%
M48
M72
T01C0.0118
T02C0.0236
T03C0.0354
T04C0.0394
T05C0.0400
T06C0.0472
T07C0.0531
T08C0.0551
T09C0.0591
T10C0.0945
T11C0.1260
%
T01
X5620Y7259
X8534Y9725
X8809Y6944
X9439Y6944
X11742Y9660
X12982Y9660
X16132Y8597
X16526Y8243
X18494Y10251
X20305Y12220
X21393Y12688
X21393Y11688
X21393Y10688
X21014Y8597
X20443Y8243
X20266Y7731
X21196Y6867
X21604Y7338
X21211Y6235
X21196Y5725
X21200Y5134
X22872Y6629
X25266Y7416
X27352Y7220
X28258Y7653
X28691Y7259
X30305Y6865
X31171Y7653
X33494Y5094
X31250Y4660
X29715Y3873
X28179Y4700
X27392Y3873
X28258Y2534
X31171Y2574
X35974Y6865
X36014Y8007
X36880Y8046
X38022Y7180
X40502Y7101
X35541Y9975
X35502Y10566
X39045Y14995
X39770Y15401
X40439Y15755
X40498Y16129
X41030Y16444
X41951Y17660
X41250Y18834
X41266Y20440
X41305Y20775
X41368Y22042
X42132Y22515
X42565Y22783
X42270Y23223
X41742Y23775
X41024Y23361
X40581Y22660
X39754Y22298
X39478Y23479
X39478Y24188
X38628Y24357
X37805Y23767
X37805Y23511
X37805Y23255
X37805Y22999
X37786Y22101
X36467Y21806
X35896Y22456
X36683Y20920
X36644Y20448
X36053Y19818
X35600Y18519
X34400Y18007
X36368Y16550
X37116Y17534
X37549Y17141
X38081Y17928
X38652Y18145
X39498Y18558
X38612Y20534
X40935Y24385
X40187Y25771
X40246Y26235
X39971Y26491
X40715Y26346
X39872Y27653
X38313Y27842
X37549Y28369
X37703Y29338
X38140Y29031
X38589Y29259
X38825Y29613
X39258Y29534
X39518Y29779
X39163Y29936
X39085Y30290
X38809Y30527
X38648Y31267
X39041Y31306
X39439Y31897
X39041Y32192
X38667Y32192
X39534Y32546
X40203Y32861
X38667Y33235
X37703Y33235
X37683Y32094
X37392Y31432
X37683Y30952
X37526Y30716
X37329Y30499
X37408Y29810
X36955Y29318
X36683Y29708
X35675Y30164
X36463Y31995
X35951Y32487
X36600Y33373
X36880Y34038
X39715Y30763
X39888Y29534
X40699Y29531
X41191Y29542
X42486Y26031
X42506Y25401
X43022Y23723
X37250Y25401
X37250Y25696
X36526Y25881
X36506Y26668
X33337Y30527
X29747Y26942
X29432Y26549
X30298Y26076
X31007Y25997
X29747Y25053
X29373Y24738
X28692Y24797
X29038Y25663
X30298Y24186
X28101Y23517
X27215Y25013
X26845Y24986
X24816Y24895
X24816Y24501
X24816Y24108
X24422Y24108
X24422Y24501
X24028Y24501
X23635Y24501
X23635Y24108
X24028Y24108
X24028Y23714
X23635Y23714
X23241Y23714
X23241Y24108
X23241Y24501
X23241Y24895
X23635Y24895
X24028Y24895
X24028Y25289
X23635Y25289
X23241Y25289
X23026Y25852
X22708Y25623
X21269Y25992
X20950Y26003
X20680Y25586
X20271Y26482
X20542Y26726
X21176Y26714
X21526Y27444
X22077Y27405
X21967Y28433
X20550Y29240
X20314Y28885
X19605Y28787
X19015Y28492
X19015Y28177
X18719Y27842
X17916Y28005
X17572Y27385
X18084Y26933
X17670Y26322
X18211Y26066
X18143Y25289
X17552Y25299
X16725Y25338
X16843Y26007
X17089Y26627
X16568Y27464
X17168Y28242
X17011Y28753
X16656Y29383
X15908Y29029
X15347Y28803
X14521Y28724
X13694Y29039
X13182Y29747
X12552Y29452
X12926Y28645
X12296Y28547
X12749Y27681
X13458Y27661
X13576Y28291
X14284Y27740
X14717Y26952
X15072Y26401
X15899Y26716
X16017Y25771
X15269Y25377
X14422Y26007
X14186Y25338
X13261Y25318
X12808Y25692
X12276Y25929
X12234Y25330
X12648Y26531
X13261Y26913
X14028Y26834
X13477Y26125
X12237Y27149
X10859Y27385
X10485Y27621
X10032Y27385
X10485Y26913
X10859Y26559
X10859Y25850
X10485Y25653
X10030Y25842
X10030Y25231
X10856Y25231
X10032Y26559
X10032Y28133
X10446Y28448
X10839Y28133
X10761Y28842
X10780Y29511
X10406Y29787
X10030Y29464
X10030Y28794
X10111Y30614
X10150Y31440
X10030Y31865
X9793Y32534
X9400Y33011
X9203Y33471
X10057Y33405
X10662Y32779
X10780Y31578
X10702Y30594
X12513Y30673
X12473Y31559
X12434Y32346
X12276Y33055
X12276Y33842
X11607Y33999
X11115Y34334
X11160Y34842
X11770Y34802
X12352Y34712
X12710Y35535
X12355Y36165
X11711Y35617
X11014Y35735
X10505Y35338
X10328Y34807
X9703Y34971
X9284Y34905
X8742Y34960
X8380Y34853
X8793Y35538
X9006Y35960
X9073Y36432
X8506Y36432
X8510Y35960
X8223Y35668
X7770Y35763
X7547Y35970
X8018Y36157
X7703Y36471
X7152Y36353
X6950Y36563
X5384Y36550
X5057Y36168
X5226Y35684
X5620Y35448
X6093Y34897
X5636Y34696
X5045Y34708
X4927Y35196
X4506Y35011
X4624Y34208
X4545Y33511
X4585Y32747
X4703Y31971
X5467Y31893
X5754Y32668
X5309Y33460
X5730Y34038
X6108Y33511
X6675Y32763
X6486Y31865
X7313Y31865
X7620Y32641
X7982Y33479
X8612Y33479
X8691Y32574
X9124Y31865
X8219Y31865
X7321Y33590
X6880Y33952
X6683Y34385
X4573Y35775
X4478Y36550
X9478Y35471
X10041Y35893
X9757Y36440
X10584Y36440
X11568Y36362
X13261Y36440
X14127Y36125
X14993Y36362
X15820Y36165
X15820Y35220
X14993Y35338
X14127Y35181
X13891Y34354
X13064Y34629
X13497Y35456
X13103Y33566
X13221Y32621
X13339Y31637
X13930Y31086
X13615Y30614
X13812Y30102
X14166Y32149
X14127Y33291
X14954Y33881
X15820Y34472
X15899Y32700
X16526Y31511
X16656Y30683
X17365Y30289
X17562Y29462
X18310Y29462
X18782Y30289
X18192Y30643
X18455Y31314
X19321Y31275
X19570Y30525
X20160Y30289
X20633Y29659
X19845Y29462
X19137Y29383
X18271Y28675
X18900Y26903
X19688Y26470
X19755Y26072
X19304Y25887
X18979Y26116
X18812Y25279
X19461Y25336
X19658Y23665
X19717Y23261
X19609Y22828
X19097Y22700
X18930Y23025
X18507Y22769
X18664Y22100
X18822Y21312
X19452Y20761
X19097Y20289
X17956Y20131
X17877Y19462
X16932Y19934
X17011Y20801
X17119Y21559
X17828Y21834
X17956Y20840
X16686Y22543
X16213Y21873
X15347Y21598
X15269Y22346
X15820Y23055
X16410Y23645
X17589Y23755
X17943Y23519
X18376Y23519
X18730Y23755
X17601Y22897
X15741Y20889
X15869Y20249
X14954Y20023
X14402Y20771
X13851Y21480
X13497Y20889
X13044Y21519
X13418Y22503
X13044Y23212
X13221Y23684
X13930Y23527
X14481Y22976
X15111Y23645
X14284Y22031
X12336Y23350
X12257Y23744
X10938Y23507
X10623Y23507
X10328Y23507
X10032Y23507
X10387Y21559
X11489Y20102
X11253Y19354
X11765Y18684
X11765Y17858
X12513Y18055
X13143Y18527
X13339Y17818
X13379Y16755
X12434Y17031
X12434Y16204
X11725Y16244
X11332Y15535
X11647Y14590
X11174Y13803
X10269Y13763
X10190Y14511
X10150Y15653
X10111Y16952
X10150Y17936
X10820Y18291
X10111Y18803
X10190Y19787
X12395Y19354
X13773Y19472
X11292Y17070
X12591Y15220
X13339Y15574
X13654Y14747
X14196Y14482
X14048Y13566
X13202Y13891
X12355Y13527
X14087Y15771
X15150Y16007
X15977Y15417
X15308Y14905
X15032Y13645
X18074Y17021
X19243Y17474
X19412Y18084
X20267Y17789
X20908Y17651
X21617Y17848
X21420Y17060
X20523Y16942
X20278Y18793
X20306Y19403
X21152Y19088
X21656Y18596
X22247Y17730
X22609Y19265
X22089Y20186
X22129Y20540
X22444Y20919
X22820Y21356
X23200Y20978
X22629Y21899
X22845Y22194
X22062Y21637
X21684Y21657
X21801Y21312
X21507Y21982
X21784Y22214
X21617Y22557
X21320Y22328
X21113Y21667
X20822Y21293
X20523Y21824
X20523Y22139
X20475Y22612
X20834Y23066
X21168Y23068
X20532Y23470
X20187Y23637
X20003Y22179
X19806Y21391
X21125Y20604
X21519Y20604
X23066Y23135
X22696Y23419
X23534Y23163
X24422Y23714
X24816Y23714
X24422Y24895
X24422Y25289
X24816Y25289
X24243Y27690
X24243Y28104
X23109Y30100
X23475Y30997
X21971Y32060
X20948Y32060
X20817Y33834
X20384Y34267
X21408Y34897
X21841Y35094
X21329Y35487
X22825Y35527
X23100Y35251
X22943Y36078
X23691Y35527
X24085Y35527
X24518Y35527
X24951Y35448
X24951Y35999
X25541Y35330
X25879Y36240
X24242Y37672
X23809Y37534
X23061Y37377
X24085Y36078
X19715Y37613
X18927Y38834
X17471Y31314
X15948Y28242
X15229Y27464
X17001Y18606
X16607Y17582
X20374Y13833
X21393Y13688
X25326Y19679
X25641Y20368
X27037Y11157
X28258Y10290
X25266Y4700
X41998Y15094
X43136Y15086
X42998Y16483
X31900Y37751
X28888Y37968
X29557Y46157
X32953Y47221
X33453Y46721
X33845Y46221
X36014Y44109
X37392Y44109
X36723Y46905
X37859Y47106
X42786Y40597
X43297Y40007
X6447Y12220
T02
X9085Y2625
X9585Y2625
X10089Y2625
X10585Y2625
X11089Y2625
X11585Y2625
T03
X36230Y3912
X36230Y4897
X36230Y5881
X37530Y5881
X37530Y4897
X37530Y3912
X41585Y3912
X41585Y4897
X41585Y5881
X42884Y5881
X42884Y4897
X42884Y3912
X30167Y34739
X30167Y35723
X30167Y36708
X28868Y36708
X28868Y35723
X28868Y34739
X40167Y41629
X40167Y42416
X41467Y42416
X41467Y41629
X41467Y43991
X41467Y44779
X40167Y44779
X40167Y43991
T04
X38573Y43243
X36801Y46038
X32388Y48200
X31388Y48200
X30388Y48200
X29388Y48200
X28388Y48200
X27388Y48200
X26388Y48200
X25388Y48200
X24388Y48200
X23388Y48200
X22388Y48200
X21388Y48200
X20388Y48200
X19388Y48200
X18388Y48200
X17388Y48200
X16388Y48200
X15388Y48200
X15388Y38200
X16388Y38200
X17388Y38200
X18388Y38200
X19388Y38200
X20388Y38200
X21388Y38200
X22388Y38200
X23388Y38200
X24388Y38200
X25388Y38200
X26388Y38200
X27388Y38200
X28388Y38200
X29388Y38200
X30388Y38200
X31388Y38200
X32388Y38200
X33388Y38200
X32864Y33322
X38022Y33912
X39203Y33912
X41266Y32763
X41900Y32790
X41266Y31897
X41266Y31031
X41900Y31097
X41250Y39542
X40463Y39542
X42715Y22200
X42715Y21200
X42715Y20200
X42715Y19200
X42715Y18200
X42715Y17200
X42703Y13971
X42703Y12971
X42703Y11971
X42703Y10971
X42703Y9971
X42703Y8971
X41703Y8971
X41703Y9971
X40703Y9971
X40703Y8971
X39703Y8971
X39703Y9971
X38703Y9971
X38703Y8971
X37703Y8971
X37703Y9971
X37703Y10971
X38703Y10971
X39703Y10971
X40703Y10971
X41703Y10971
X41703Y11971
X40703Y11971
X39703Y11971
X38703Y11971
X37703Y11971
X37703Y12971
X38703Y12971
X39703Y12971
X40703Y12971
X41703Y12971
X41703Y13971
X40703Y13971
X39703Y13971
X38703Y13971
X37703Y13971
X14388Y38200
X11203Y8971
X10203Y8971
T05
X16526Y16001
X17526Y16001
X18526Y16001
X19526Y16001
X20526Y16001
X21526Y16001
X22526Y16001
X23526Y16001
X24526Y16001
X25526Y16001
X26526Y16001
X27526Y16001
X28526Y16001
X29526Y16001
X30526Y16001
X31526Y16001
X32526Y17001
X32526Y18001
X32526Y19001
X32526Y20001
X32526Y21001
X32526Y22001
X32526Y23001
X32526Y24001
X32526Y25001
X32526Y26001
X32526Y27001
X32526Y28001
X32526Y29001
X32526Y30001
X32526Y31001
X32526Y32001
X31526Y33001
X30526Y33001
X29526Y33001
X28526Y33001
X27526Y33001
X26526Y33001
X25526Y33001
X24526Y33001
X23526Y33001
X22526Y33001
X21526Y33001
X20526Y33001
X19526Y33001
X18526Y33001
X17526Y33001
X16526Y33001
X15526Y32001
X15526Y31001
X15526Y30001
X17691Y34779
X18691Y34779
X19691Y34779
X19691Y35802
X18691Y35802
X17691Y35802
X17691Y36826
X18691Y36826
X19691Y36826
X15526Y19001
X15526Y18001
X15526Y17001
X21761Y9589
X22761Y9589
X24593Y10688
X24593Y11688
X24593Y12688
X24593Y13688
X25593Y13688
X25593Y12688
X25593Y11688
X25593Y10688
X36184Y36641
X36184Y37641
X36184Y38641
X36184Y39641
X39833Y47987
X40833Y47987
X41833Y47987
X42833Y47987
T06
X34695Y43223
X13081Y43204
X13081Y5783
X34695Y5802
T07
X18474Y7099
X18474Y12851
X6467Y12851
X6467Y7099
T08
X11604Y21517
T09
X12608Y20513
X12608Y22521
X10601Y22521
X10601Y20513
T10
X13081Y40389
X34695Y8617
T11
X38140Y36700
X39242Y38668
X40581Y36700
M30
