G75*
G70*
%OFA0B0*%
%FSLAX24Y24*%
%IPPOS*%
%LPD*%
%AMOC8*
5,1,8,0,0,1.08239X$1,22.5*
%
%ADD10C,0.0600*%
%ADD11C,0.0827*%
%ADD12C,0.0886*%
%ADD13C,0.0531*%
%ADD14C,0.0591*%
%ADD15C,0.0860*%
%ADD16R,0.1660X0.1660*%
%ADD17C,0.0394*%
%ADD18OC8,0.0600*%
%ADD19OC8,0.0591*%
%ADD20R,0.0396X0.0396*%
%ADD21C,0.0079*%
%ADD22C,0.0276*%
%ADD23C,0.0240*%
%ADD24C,0.0660*%
%ADD25C,0.0118*%
%ADD26C,0.0098*%
%ADD27C,0.0315*%
%ADD28C,0.0551*%
%ADD29C,0.0100*%
%ADD30C,0.0120*%
D10*
X015226Y017001D02*
X015826Y017001D01*
X016526Y016301D02*
X016526Y015701D01*
X017526Y015701D02*
X017526Y016301D01*
X018526Y016301D02*
X018526Y015701D01*
X019526Y015701D02*
X019526Y016301D01*
X020526Y016301D02*
X020526Y015701D01*
X021526Y015701D02*
X021526Y016301D01*
X022526Y016301D02*
X022526Y015701D01*
X023526Y015701D02*
X023526Y016301D01*
X024526Y016301D02*
X024526Y015701D01*
X025526Y015701D02*
X025526Y016301D01*
X026526Y016301D02*
X026526Y015701D01*
X027526Y015701D02*
X027526Y016301D01*
X028526Y016301D02*
X028526Y015701D01*
X029526Y015701D02*
X029526Y016301D01*
X030526Y016301D02*
X030526Y015701D01*
X031526Y015701D02*
X031526Y016301D01*
X032226Y017001D02*
X032826Y017001D01*
X032826Y018001D02*
X032226Y018001D01*
X032226Y019001D02*
X032826Y019001D01*
X032826Y020001D02*
X032226Y020001D01*
X032226Y021001D02*
X032826Y021001D01*
X032826Y022001D02*
X032226Y022001D01*
X032226Y023001D02*
X032826Y023001D01*
X032826Y024001D02*
X032226Y024001D01*
X032226Y025001D02*
X032826Y025001D01*
X032826Y026001D02*
X032226Y026001D01*
X032226Y027001D02*
X032826Y027001D01*
X032826Y028001D02*
X032226Y028001D01*
X032226Y029001D02*
X032826Y029001D01*
X032826Y030001D02*
X032226Y030001D01*
X032226Y031001D02*
X032826Y031001D01*
X032826Y032001D02*
X032226Y032001D01*
X031526Y032701D02*
X031526Y033301D01*
X030526Y033301D02*
X030526Y032701D01*
X029526Y032701D02*
X029526Y033301D01*
X028526Y033301D02*
X028526Y032701D01*
X027526Y032701D02*
X027526Y033301D01*
X026526Y033301D02*
X026526Y032701D01*
X025526Y032701D02*
X025526Y033301D01*
X024526Y033301D02*
X024526Y032701D01*
X023526Y032701D02*
X023526Y033301D01*
X022526Y033301D02*
X022526Y032701D01*
X021526Y032701D02*
X021526Y033301D01*
X020526Y033301D02*
X020526Y032701D01*
X019526Y032701D02*
X019526Y033301D01*
X018526Y033301D02*
X018526Y032701D01*
X017526Y032701D02*
X017526Y033301D01*
X016526Y033301D02*
X016526Y032701D01*
X015826Y032001D02*
X015226Y032001D01*
X015226Y031001D02*
X015826Y031001D01*
X015826Y030001D02*
X015226Y030001D01*
X015226Y019001D02*
X015826Y019001D01*
X015826Y018001D02*
X015226Y018001D01*
X021761Y009889D02*
X021761Y009289D01*
X022761Y009289D02*
X022761Y009889D01*
X035884Y036641D02*
X036484Y036641D01*
X036484Y037641D02*
X035884Y037641D01*
X035884Y038641D02*
X036484Y038641D01*
X036484Y039641D02*
X035884Y039641D01*
X039833Y047687D02*
X039833Y048287D01*
X040833Y048287D02*
X040833Y047687D01*
X041833Y047687D02*
X041833Y048287D01*
X042833Y048287D02*
X042833Y047687D01*
D11*
X011604Y021517D03*
D12*
X012608Y020513D03*
X012608Y022521D03*
X010601Y022521D03*
X010601Y020513D03*
D13*
X028602Y034739D02*
X029134Y034739D01*
X029902Y034739D02*
X030433Y034739D01*
X030433Y035723D02*
X029902Y035723D01*
X029902Y036708D02*
X030433Y036708D01*
X029134Y036708D02*
X028602Y036708D01*
X028602Y035723D02*
X029134Y035723D01*
X039902Y041629D02*
X040433Y041629D01*
X040433Y042416D02*
X039902Y042416D01*
X041201Y042416D02*
X041732Y042416D01*
X041732Y041629D02*
X041201Y041629D01*
X041201Y043991D02*
X041732Y043991D01*
X041732Y044779D02*
X041201Y044779D01*
X040433Y044779D02*
X039902Y044779D01*
X039902Y043991D02*
X040433Y043991D01*
X041319Y005881D02*
X041850Y005881D01*
X042618Y005881D02*
X043150Y005881D01*
X043150Y004897D02*
X042618Y004897D01*
X041850Y004897D02*
X041319Y004897D01*
X041319Y003912D02*
X041850Y003912D01*
X042618Y003912D02*
X043150Y003912D01*
X037795Y003912D02*
X037264Y003912D01*
X036496Y003912D02*
X035965Y003912D01*
X035965Y004897D02*
X036496Y004897D01*
X037264Y004897D02*
X037795Y004897D01*
X037795Y005881D02*
X037264Y005881D01*
X036496Y005881D02*
X035965Y005881D01*
D14*
X042715Y017200D03*
X042715Y018200D03*
X042715Y019200D03*
X042715Y020200D03*
X042715Y021200D03*
X042715Y022200D03*
X041900Y031097D03*
X041266Y031897D03*
X041900Y032790D03*
X039203Y033912D03*
X038022Y033912D03*
X032864Y033322D03*
X040463Y039542D03*
X041250Y039542D03*
X038573Y043243D03*
X036801Y046038D03*
D15*
X034695Y043223D03*
X013081Y043204D03*
X013081Y005783D03*
X034695Y005802D03*
D16*
X038140Y036700D03*
X039242Y038668D03*
X040581Y036700D03*
D17*
X015226Y047141D03*
X043179Y001865D03*
D18*
X025593Y010688D03*
X025593Y011688D03*
X025593Y012688D03*
X025593Y013688D03*
X024593Y013688D03*
X024593Y012688D03*
X024593Y011688D03*
X024593Y010688D03*
X019691Y034779D03*
X018691Y034779D03*
X017691Y034779D03*
X017691Y035802D03*
X018691Y035802D03*
X019691Y035802D03*
X019691Y036826D03*
X018691Y036826D03*
X017691Y036826D03*
D19*
X017388Y038200D03*
X018388Y038200D03*
X019388Y038200D03*
X020388Y038200D03*
X021388Y038200D03*
X022388Y038200D03*
X023388Y038200D03*
X024388Y038200D03*
X025388Y038200D03*
X026388Y038200D03*
X027388Y038200D03*
X028388Y038200D03*
X029388Y038200D03*
X030388Y038200D03*
X031388Y038200D03*
X032388Y038200D03*
X033388Y038200D03*
X032388Y048200D03*
X031388Y048200D03*
X030388Y048200D03*
X029388Y048200D03*
X028388Y048200D03*
X027388Y048200D03*
X026388Y048200D03*
X025388Y048200D03*
X024388Y048200D03*
X023388Y048200D03*
X022388Y048200D03*
X021388Y048200D03*
X020388Y048200D03*
X019388Y048200D03*
X018388Y048200D03*
X017388Y048200D03*
X016388Y048200D03*
X015388Y048200D03*
X015388Y038200D03*
X016388Y038200D03*
X014388Y038200D03*
D20*
X011585Y002625D03*
X011089Y002625D03*
X010585Y002625D03*
X010089Y002625D03*
X009585Y002625D03*
X009085Y002625D03*
D21*
X009911Y013283D02*
X009911Y031668D01*
X004360Y031668D01*
X004360Y036668D01*
X014380Y036668D01*
X014380Y030256D01*
X014484Y030153D01*
X014812Y029824D01*
X014847Y029824D01*
X014872Y029765D01*
X014990Y029647D01*
X015143Y029583D01*
X015910Y029583D01*
X016063Y029647D01*
X016181Y029765D01*
X016206Y029826D01*
X021280Y029826D01*
X022540Y028566D01*
X022540Y025818D01*
X022491Y025768D01*
X022452Y025674D01*
X022452Y025573D01*
X022491Y025479D01*
X022563Y025406D01*
X022657Y025368D01*
X022758Y025368D01*
X022852Y025406D01*
X022924Y025479D01*
X022963Y025573D01*
X022963Y025601D01*
X022976Y025596D01*
X023077Y025596D01*
X023171Y025635D01*
X023243Y025707D01*
X023282Y025801D01*
X023282Y025903D01*
X023243Y025997D01*
X023194Y026046D01*
X023194Y029408D01*
X023194Y029547D01*
X021576Y031165D01*
X021437Y031165D01*
X016211Y031165D01*
X016181Y031238D01*
X016063Y031356D01*
X015910Y031419D01*
X015359Y031419D01*
X015195Y031583D01*
X015910Y031583D01*
X016063Y031647D01*
X016181Y031765D01*
X016245Y031918D01*
X016245Y032085D01*
X016181Y032238D01*
X016063Y032356D01*
X015910Y032419D01*
X015143Y032419D01*
X014990Y032356D01*
X014951Y032317D01*
X014951Y032402D01*
X015461Y032912D01*
X015565Y033016D01*
X015565Y036668D01*
X016408Y036668D01*
X016408Y033705D01*
X016290Y033656D01*
X016172Y033538D01*
X016108Y033385D01*
X016108Y032618D01*
X016172Y032465D01*
X016290Y032347D01*
X016408Y032298D01*
X016408Y032180D01*
X031723Y032180D01*
X031723Y016826D01*
X016408Y016826D01*
X016408Y016705D01*
X016290Y016656D01*
X016172Y016538D01*
X016108Y016385D01*
X016108Y015618D01*
X016172Y015465D01*
X016290Y015347D01*
X016408Y015298D01*
X016408Y013283D01*
X009911Y013283D01*
X009911Y013296D02*
X016408Y013296D01*
X016408Y013373D02*
X009911Y013373D01*
X009911Y013450D02*
X016408Y013450D01*
X016408Y013528D02*
X009911Y013528D01*
X009911Y013605D02*
X016408Y013605D01*
X016408Y013682D02*
X009911Y013682D01*
X009911Y013760D02*
X016408Y013760D01*
X016408Y013837D02*
X009911Y013837D01*
X009911Y013914D02*
X016408Y013914D01*
X016408Y013991D02*
X009911Y013991D01*
X009911Y014069D02*
X016408Y014069D01*
X016408Y014146D02*
X009911Y014146D01*
X009911Y014223D02*
X016408Y014223D01*
X016408Y014301D02*
X009911Y014301D01*
X009911Y014378D02*
X016408Y014378D01*
X016408Y014455D02*
X009911Y014455D01*
X009911Y014532D02*
X016408Y014532D01*
X016408Y014610D02*
X009911Y014610D01*
X009911Y014687D02*
X016408Y014687D01*
X016408Y014764D02*
X009911Y014764D01*
X009911Y014842D02*
X016408Y014842D01*
X016408Y014919D02*
X009911Y014919D01*
X009911Y014996D02*
X016408Y014996D01*
X016408Y015073D02*
X009911Y015073D01*
X009911Y015151D02*
X016408Y015151D01*
X016408Y015228D02*
X009911Y015228D01*
X009911Y015305D02*
X016390Y015305D01*
X016254Y015383D02*
X009911Y015383D01*
X009911Y015460D02*
X016177Y015460D01*
X016142Y015537D02*
X009911Y015537D01*
X009911Y015614D02*
X016110Y015614D01*
X016108Y015692D02*
X009911Y015692D01*
X009911Y015769D02*
X016108Y015769D01*
X016108Y015846D02*
X009911Y015846D01*
X009911Y015924D02*
X016108Y015924D01*
X016108Y016001D02*
X009911Y016001D01*
X009911Y016078D02*
X016108Y016078D01*
X016108Y016155D02*
X009911Y016155D01*
X009911Y016233D02*
X016108Y016233D01*
X016108Y016310D02*
X009911Y016310D01*
X009911Y016387D02*
X016109Y016387D01*
X016141Y016464D02*
X009911Y016464D01*
X009911Y016542D02*
X016176Y016542D01*
X016253Y016619D02*
X015996Y016619D01*
X016063Y016647D02*
X016181Y016765D01*
X016210Y016834D01*
X017284Y016834D01*
X017423Y016834D01*
X020056Y019467D01*
X020050Y019454D01*
X020050Y019352D01*
X020089Y019258D01*
X020161Y019186D01*
X020255Y019147D01*
X020357Y019147D01*
X020451Y019186D01*
X020501Y019236D01*
X020938Y019236D01*
X020935Y019233D01*
X020897Y019139D01*
X020897Y019037D01*
X020935Y018943D01*
X021007Y018871D01*
X021101Y018832D01*
X021203Y018832D01*
X021297Y018871D01*
X021347Y018921D01*
X022009Y018921D01*
X022107Y019019D01*
X022353Y019265D01*
X022353Y019214D01*
X022392Y019120D01*
X022464Y019048D01*
X022558Y019009D01*
X022660Y019009D01*
X022754Y019048D01*
X022826Y019120D01*
X022865Y019214D01*
X022865Y019316D01*
X022826Y019410D01*
X022754Y019482D01*
X022660Y019521D01*
X022609Y019521D01*
X023643Y020554D01*
X023643Y020693D01*
X023643Y021634D01*
X023545Y021732D01*
X023101Y022175D01*
X023101Y022245D01*
X023062Y022339D01*
X022990Y022411D01*
X022896Y022450D01*
X022820Y022450D01*
X023135Y022766D01*
X023233Y022864D01*
X023233Y022941D01*
X023283Y022990D01*
X023322Y023084D01*
X023322Y023186D01*
X023283Y023280D01*
X023211Y023352D01*
X023117Y023391D01*
X023015Y023391D01*
X022950Y023364D01*
X022952Y023368D01*
X022952Y023470D01*
X022913Y023564D01*
X022841Y023636D01*
X022747Y023675D01*
X022645Y023675D01*
X022551Y023636D01*
X022501Y023586D01*
X021989Y023586D01*
X021851Y023586D01*
X020965Y022700D01*
X020867Y022602D01*
X020867Y021815D01*
X020867Y021741D01*
X020857Y021718D01*
X020857Y021616D01*
X020888Y021542D01*
X020873Y021549D01*
X020771Y021549D01*
X020677Y021510D01*
X020627Y021460D01*
X020611Y021460D01*
X020473Y021460D01*
X018170Y019157D01*
X016215Y019157D01*
X016181Y019238D01*
X016063Y019356D01*
X015910Y019419D01*
X015143Y019419D01*
X014990Y019356D01*
X014872Y019238D01*
X014808Y019085D01*
X014808Y018918D01*
X014872Y018765D01*
X014990Y018647D01*
X015143Y018583D01*
X015910Y018583D01*
X016063Y018647D01*
X016181Y018765D01*
X016205Y018822D01*
X018268Y018822D01*
X017615Y018169D01*
X016210Y018169D01*
X016181Y018238D01*
X016063Y018356D01*
X015910Y018419D01*
X015143Y018419D01*
X014990Y018356D01*
X014872Y018238D01*
X014808Y018085D01*
X014808Y017918D01*
X014872Y017765D01*
X014990Y017647D01*
X015143Y017583D01*
X015910Y017583D01*
X016063Y017647D01*
X016181Y017765D01*
X016210Y017834D01*
X017753Y017834D01*
X017851Y017932D01*
X019647Y019728D01*
X019843Y019728D01*
X017284Y017169D01*
X016210Y017169D01*
X016181Y017238D01*
X016063Y017356D01*
X015910Y017419D01*
X015143Y017419D01*
X014990Y017356D01*
X014872Y017238D01*
X014808Y017085D01*
X014808Y016918D01*
X014872Y016765D01*
X014990Y016647D01*
X015143Y016583D01*
X015910Y016583D01*
X016063Y016647D01*
X016113Y016696D02*
X016387Y016696D01*
X016408Y016774D02*
X016185Y016774D01*
X016181Y017237D02*
X017353Y017237D01*
X017430Y017315D02*
X016104Y017315D01*
X015976Y017392D02*
X017507Y017392D01*
X017584Y017469D02*
X009911Y017469D01*
X009911Y017392D02*
X015077Y017392D01*
X014948Y017315D02*
X009911Y017315D01*
X009911Y017237D02*
X014872Y017237D01*
X014840Y017160D02*
X009911Y017160D01*
X009911Y017083D02*
X014808Y017083D01*
X014808Y017005D02*
X009911Y017005D01*
X009911Y016928D02*
X014808Y016928D01*
X014836Y016851D02*
X009911Y016851D01*
X009911Y016774D02*
X014868Y016774D01*
X014940Y016696D02*
X009911Y016696D01*
X009911Y016619D02*
X015057Y016619D01*
X015046Y017624D02*
X009911Y017624D01*
X009911Y017701D02*
X014936Y017701D01*
X014866Y017778D02*
X009911Y017778D01*
X009911Y017856D02*
X014834Y017856D01*
X014808Y017933D02*
X009911Y017933D01*
X009911Y018010D02*
X014808Y018010D01*
X014810Y018087D02*
X009911Y018087D01*
X009911Y018165D02*
X014842Y018165D01*
X014876Y018242D02*
X009911Y018242D01*
X009911Y018319D02*
X014953Y018319D01*
X015088Y018397D02*
X009911Y018397D01*
X009911Y018474D02*
X017920Y018474D01*
X017997Y018551D02*
X009911Y018551D01*
X009911Y018628D02*
X015034Y018628D01*
X014931Y018706D02*
X009911Y018706D01*
X009911Y018783D02*
X014864Y018783D01*
X014832Y018860D02*
X009911Y018860D01*
X009911Y018938D02*
X014808Y018938D01*
X014808Y019015D02*
X009911Y019015D01*
X009911Y019092D02*
X014811Y019092D01*
X014844Y019169D02*
X009911Y019169D01*
X009911Y019247D02*
X014880Y019247D01*
X014958Y019324D02*
X009911Y019324D01*
X009911Y019401D02*
X015099Y019401D01*
X015954Y019401D02*
X018414Y019401D01*
X018337Y019324D02*
X016095Y019324D01*
X016172Y019247D02*
X018260Y019247D01*
X018182Y019169D02*
X016209Y019169D01*
X016188Y018783D02*
X018229Y018783D01*
X018152Y018706D02*
X016122Y018706D01*
X016019Y018628D02*
X018074Y018628D01*
X017843Y018397D02*
X015965Y018397D01*
X016100Y018319D02*
X017765Y018319D01*
X017688Y018242D02*
X016177Y018242D01*
X016187Y017778D02*
X017894Y017778D01*
X017971Y017856D02*
X017775Y017856D01*
X017852Y017933D02*
X018048Y017933D01*
X018125Y018010D02*
X017929Y018010D01*
X018007Y018087D02*
X018203Y018087D01*
X018280Y018165D02*
X018084Y018165D01*
X018161Y018242D02*
X018357Y018242D01*
X018435Y018319D02*
X018238Y018319D01*
X018316Y018397D02*
X018512Y018397D01*
X018589Y018474D02*
X018393Y018474D01*
X018470Y018551D02*
X018666Y018551D01*
X018744Y018628D02*
X018548Y018628D01*
X018625Y018706D02*
X018821Y018706D01*
X018898Y018783D02*
X018702Y018783D01*
X018779Y018860D02*
X018976Y018860D01*
X019053Y018938D02*
X018857Y018938D01*
X018934Y019015D02*
X019130Y019015D01*
X019207Y019092D02*
X019011Y019092D01*
X019089Y019169D02*
X019285Y019169D01*
X019362Y019247D02*
X019166Y019247D01*
X019243Y019324D02*
X019439Y019324D01*
X019516Y019401D02*
X019320Y019401D01*
X019398Y019479D02*
X019594Y019479D01*
X019671Y019556D02*
X019475Y019556D01*
X019552Y019633D02*
X019748Y019633D01*
X019826Y019710D02*
X019630Y019710D01*
X019647Y020062D02*
X021634Y020062D01*
X021634Y021118D01*
X021584Y021167D01*
X021545Y021261D01*
X021545Y021363D01*
X021572Y021426D01*
X021539Y021440D01*
X021467Y021512D01*
X021428Y021606D01*
X021428Y021708D01*
X021439Y021733D01*
X021362Y021765D01*
X021341Y021786D01*
X021369Y021718D01*
X021369Y021616D01*
X021330Y021522D01*
X021258Y021450D01*
X021164Y021411D01*
X021062Y021411D01*
X021047Y021417D01*
X021078Y021344D01*
X021078Y021242D01*
X021039Y021148D01*
X020967Y021076D01*
X020873Y021037D01*
X020771Y021037D01*
X020677Y021076D01*
X020627Y021125D01*
X020611Y021125D01*
X019548Y020062D01*
X019647Y020062D01*
X019583Y020097D02*
X021634Y020097D01*
X021634Y020174D02*
X019660Y020174D01*
X019737Y020251D02*
X021634Y020251D01*
X021634Y020329D02*
X019815Y020329D01*
X019892Y020406D02*
X021634Y020406D01*
X021634Y020483D02*
X019969Y020483D01*
X020047Y020561D02*
X021634Y020561D01*
X021634Y020638D02*
X020124Y020638D01*
X020201Y020715D02*
X021634Y020715D01*
X021634Y020792D02*
X020278Y020792D01*
X020356Y020870D02*
X021634Y020870D01*
X021634Y020947D02*
X020433Y020947D01*
X020510Y021024D02*
X021634Y021024D01*
X021634Y021101D02*
X020992Y021101D01*
X021051Y021179D02*
X021580Y021179D01*
X021548Y021256D02*
X021078Y021256D01*
X021078Y021333D02*
X021545Y021333D01*
X021565Y021411D02*
X021050Y021411D01*
X020878Y021565D02*
X012372Y021565D01*
X012372Y021488D02*
X020655Y021488D01*
X020573Y021568D02*
X020667Y021607D01*
X020739Y021679D01*
X020778Y021773D01*
X020778Y021875D01*
X020739Y021969D01*
X020727Y021982D01*
X020739Y021994D01*
X020778Y022088D01*
X020778Y022190D01*
X020739Y022284D01*
X020667Y022356D01*
X020573Y022395D01*
X020472Y022395D01*
X020378Y022356D01*
X020306Y022284D01*
X020267Y022190D01*
X020267Y022088D01*
X020306Y021994D01*
X020318Y021982D01*
X020306Y021969D01*
X020267Y021875D01*
X020267Y021773D01*
X020306Y021679D01*
X020378Y021607D01*
X020472Y021568D01*
X020573Y021568D01*
X020703Y021642D02*
X020857Y021642D01*
X020858Y021720D02*
X020756Y021720D01*
X020778Y021797D02*
X020867Y021797D01*
X020867Y021874D02*
X020778Y021874D01*
X020747Y021952D02*
X020867Y021952D01*
X020867Y022029D02*
X020754Y022029D01*
X020778Y022106D02*
X020867Y022106D01*
X020867Y022183D02*
X020778Y022183D01*
X020749Y022261D02*
X020867Y022261D01*
X020867Y022338D02*
X020686Y022338D01*
X020867Y022415D02*
X013160Y022415D01*
X013155Y022390D02*
X013169Y022477D01*
X013169Y022482D01*
X012648Y022482D01*
X012648Y022560D01*
X013169Y022560D01*
X013169Y022565D01*
X013155Y022652D01*
X013128Y022736D01*
X013088Y022815D01*
X013036Y022887D01*
X012974Y022949D01*
X012902Y023001D01*
X012824Y023041D01*
X012740Y023068D01*
X012652Y023082D01*
X012648Y023082D01*
X012648Y022561D01*
X012569Y022561D01*
X012569Y023082D01*
X012564Y023082D01*
X012477Y023068D01*
X012393Y023041D01*
X012314Y023001D01*
X012243Y022949D01*
X012180Y022887D01*
X012128Y022815D01*
X012088Y022736D01*
X012061Y022652D01*
X012047Y022565D01*
X012047Y022560D01*
X012569Y022560D01*
X012569Y022482D01*
X012047Y022482D01*
X012047Y022477D01*
X012061Y022390D01*
X012088Y022306D01*
X012128Y022227D01*
X012180Y022156D01*
X012243Y022093D01*
X012314Y022041D01*
X012393Y022001D01*
X012477Y021974D01*
X012564Y021960D01*
X012569Y021960D01*
X012569Y022481D01*
X012648Y022481D01*
X012648Y021960D01*
X012652Y021960D01*
X012740Y021974D01*
X012824Y022001D01*
X012902Y022041D01*
X012974Y022093D01*
X013036Y022156D01*
X013088Y022227D01*
X013128Y022306D01*
X013155Y022390D01*
X013139Y022338D02*
X020359Y022338D01*
X020296Y022261D02*
X013105Y022261D01*
X013056Y022183D02*
X020267Y022183D01*
X020267Y022106D02*
X012987Y022106D01*
X012878Y022029D02*
X020291Y022029D01*
X020298Y021952D02*
X012255Y021952D01*
X012039Y022168D01*
X011757Y022285D01*
X011452Y022285D01*
X011170Y022168D01*
X010954Y021952D01*
X010837Y021670D01*
X010837Y021364D01*
X010954Y021082D01*
X011170Y020866D01*
X011452Y020749D01*
X011757Y020749D01*
X012039Y020866D01*
X012255Y021082D01*
X012372Y021364D01*
X012372Y021670D01*
X012255Y021952D01*
X012287Y021874D02*
X020267Y021874D01*
X020267Y021797D02*
X012319Y021797D01*
X012351Y021720D02*
X020289Y021720D01*
X020342Y021642D02*
X012372Y021642D01*
X012372Y021411D02*
X020423Y021411D01*
X020346Y021333D02*
X012359Y021333D01*
X012327Y021256D02*
X020269Y021256D01*
X020192Y021179D02*
X012295Y021179D01*
X012263Y021101D02*
X020114Y021101D01*
X020037Y021024D02*
X012841Y021024D01*
X012824Y021033D02*
X012740Y021060D01*
X012652Y021074D01*
X012648Y021074D01*
X012648Y020553D01*
X013169Y020553D01*
X013169Y020557D01*
X013155Y020645D01*
X013128Y020729D01*
X013088Y020807D01*
X013036Y020879D01*
X012974Y020941D01*
X012902Y020993D01*
X012824Y021033D01*
X012966Y020947D02*
X019960Y020947D01*
X019882Y020870D02*
X013043Y020870D01*
X013096Y020792D02*
X019805Y020792D01*
X019728Y020715D02*
X013133Y020715D01*
X013157Y020638D02*
X019651Y020638D01*
X019573Y020561D02*
X013169Y020561D01*
X013169Y020474D02*
X012648Y020474D01*
X012648Y020553D01*
X012569Y020553D01*
X012569Y021074D01*
X012564Y021074D01*
X012477Y021060D01*
X012393Y021033D01*
X012314Y020993D01*
X012243Y020941D01*
X012180Y020879D01*
X012128Y020807D01*
X012088Y020729D01*
X012061Y020645D01*
X012047Y020557D01*
X012047Y020553D01*
X012569Y020553D01*
X012569Y020474D01*
X012047Y020474D01*
X012047Y020469D01*
X012061Y020382D01*
X012088Y020298D01*
X012128Y020219D01*
X012180Y020148D01*
X012243Y020085D01*
X012314Y020033D01*
X012393Y019993D01*
X012477Y019966D01*
X012564Y019952D01*
X012569Y019952D01*
X012569Y020474D01*
X012648Y020474D01*
X012648Y019952D01*
X012652Y019952D01*
X012740Y019966D01*
X012824Y019993D01*
X012902Y020033D01*
X012974Y020085D01*
X013036Y020148D01*
X013088Y020219D01*
X013128Y020298D01*
X013155Y020382D01*
X013169Y020469D01*
X013169Y020474D01*
X013159Y020406D02*
X019419Y020406D01*
X019496Y020483D02*
X012648Y020483D01*
X012648Y020406D02*
X012569Y020406D01*
X012569Y020483D02*
X010640Y020483D01*
X010640Y020474D02*
X010640Y020553D01*
X010561Y020553D01*
X010561Y021074D01*
X010556Y021074D01*
X010469Y021060D01*
X010385Y021033D01*
X010306Y020993D01*
X010235Y020941D01*
X010173Y020879D01*
X010121Y020807D01*
X010081Y020729D01*
X010053Y020645D01*
X010039Y020557D01*
X010039Y020553D01*
X010561Y020553D01*
X010561Y020474D01*
X010039Y020474D01*
X010039Y020469D01*
X010053Y020382D01*
X010081Y020298D01*
X010121Y020219D01*
X010173Y020148D01*
X010235Y020085D01*
X010306Y020033D01*
X010385Y019993D01*
X010469Y019966D01*
X010556Y019952D01*
X010561Y019952D01*
X010561Y020474D01*
X010640Y020474D01*
X011161Y020474D01*
X011161Y020469D01*
X011148Y020382D01*
X011120Y020298D01*
X011080Y020219D01*
X011028Y020148D01*
X010966Y020085D01*
X010895Y020033D01*
X010816Y019993D01*
X010732Y019966D01*
X010645Y019952D01*
X010640Y019952D01*
X010640Y020474D01*
X010640Y020406D02*
X010561Y020406D01*
X010561Y020483D02*
X009911Y020483D01*
X009911Y020406D02*
X010049Y020406D01*
X010071Y020329D02*
X009911Y020329D01*
X009911Y020251D02*
X010104Y020251D01*
X010153Y020174D02*
X009911Y020174D01*
X009911Y020097D02*
X010224Y020097D01*
X010334Y020020D02*
X009911Y020020D01*
X009911Y019942D02*
X018955Y019942D01*
X018878Y019865D02*
X009911Y019865D01*
X009911Y019788D02*
X018801Y019788D01*
X018723Y019710D02*
X009911Y019710D01*
X009911Y019633D02*
X018646Y019633D01*
X018569Y019556D02*
X009911Y019556D01*
X009911Y019479D02*
X018491Y019479D01*
X019032Y020020D02*
X012875Y020020D01*
X012985Y020097D02*
X019110Y020097D01*
X019187Y020174D02*
X013055Y020174D01*
X013104Y020251D02*
X019264Y020251D01*
X019341Y020329D02*
X013138Y020329D01*
X012648Y020329D02*
X012569Y020329D01*
X012569Y020251D02*
X012648Y020251D01*
X012648Y020174D02*
X012569Y020174D01*
X012569Y020097D02*
X012648Y020097D01*
X012648Y020020D02*
X012569Y020020D01*
X012341Y020020D02*
X010867Y020020D01*
X010977Y020097D02*
X012231Y020097D01*
X012161Y020174D02*
X011048Y020174D01*
X011097Y020251D02*
X012112Y020251D01*
X012078Y020329D02*
X011130Y020329D01*
X011151Y020406D02*
X012057Y020406D01*
X012048Y020561D02*
X011161Y020561D01*
X011161Y020557D02*
X011148Y020645D01*
X011120Y020729D01*
X011080Y020807D01*
X011028Y020879D01*
X010966Y020941D01*
X010895Y020993D01*
X010816Y021033D01*
X010732Y021060D01*
X010645Y021074D01*
X010640Y021074D01*
X010640Y020553D01*
X011161Y020553D01*
X011161Y020557D01*
X011149Y020638D02*
X012060Y020638D01*
X012084Y020715D02*
X011125Y020715D01*
X011088Y020792D02*
X011348Y020792D01*
X011166Y020870D02*
X011035Y020870D01*
X011089Y020947D02*
X010958Y020947D01*
X011012Y021024D02*
X010833Y021024D01*
X010946Y021101D02*
X009911Y021101D01*
X009911Y021024D02*
X010368Y021024D01*
X010243Y020947D02*
X009911Y020947D01*
X009911Y020870D02*
X010166Y020870D01*
X010113Y020792D02*
X009911Y020792D01*
X009911Y020715D02*
X010076Y020715D01*
X010052Y020638D02*
X009911Y020638D01*
X009911Y020561D02*
X010040Y020561D01*
X010561Y020561D02*
X010640Y020561D01*
X010640Y020638D02*
X010561Y020638D01*
X010561Y020715D02*
X010640Y020715D01*
X010640Y020792D02*
X010561Y020792D01*
X010561Y020870D02*
X010640Y020870D01*
X010640Y020947D02*
X010561Y020947D01*
X010561Y021024D02*
X010640Y021024D01*
X010914Y021179D02*
X009911Y021179D01*
X009911Y021256D02*
X010882Y021256D01*
X010850Y021333D02*
X009911Y021333D01*
X009911Y021411D02*
X010837Y021411D01*
X010837Y021488D02*
X009911Y021488D01*
X009911Y021565D02*
X010837Y021565D01*
X010837Y021642D02*
X009911Y021642D01*
X009911Y021720D02*
X010857Y021720D01*
X010889Y021797D02*
X009911Y021797D01*
X009911Y021874D02*
X010921Y021874D01*
X010953Y021952D02*
X009911Y021952D01*
X009911Y022029D02*
X010331Y022029D01*
X010306Y022041D02*
X010385Y022001D01*
X010469Y021974D01*
X010556Y021960D01*
X010561Y021960D01*
X010561Y022481D01*
X010640Y022481D01*
X010640Y021960D01*
X010645Y021960D01*
X010732Y021974D01*
X010816Y022001D01*
X010895Y022041D01*
X010966Y022093D01*
X011028Y022156D01*
X011080Y022227D01*
X011120Y022306D01*
X011148Y022390D01*
X011161Y022477D01*
X011161Y022482D01*
X010640Y022482D01*
X010640Y022560D01*
X011161Y022560D01*
X011161Y022565D01*
X011148Y022652D01*
X011120Y022736D01*
X011080Y022815D01*
X011028Y022887D01*
X010966Y022949D01*
X010895Y023001D01*
X010816Y023041D01*
X010732Y023068D01*
X010645Y023082D01*
X010640Y023082D01*
X010640Y022561D01*
X010561Y022561D01*
X010561Y023082D01*
X010556Y023082D01*
X010469Y023068D01*
X010385Y023041D01*
X010306Y023001D01*
X010235Y022949D01*
X010173Y022887D01*
X010121Y022815D01*
X010081Y022736D01*
X010053Y022652D01*
X010039Y022565D01*
X010039Y022560D01*
X010561Y022560D01*
X010561Y022482D01*
X010039Y022482D01*
X010039Y022477D01*
X010053Y022390D01*
X010081Y022306D01*
X010121Y022227D01*
X010173Y022156D01*
X010235Y022093D01*
X010306Y022041D01*
X010222Y022106D02*
X009911Y022106D01*
X009911Y022183D02*
X010152Y022183D01*
X010103Y022261D02*
X009911Y022261D01*
X009911Y022338D02*
X010070Y022338D01*
X010049Y022415D02*
X009911Y022415D01*
X009911Y022493D02*
X010561Y022493D01*
X010561Y022570D02*
X010640Y022570D01*
X010640Y022647D02*
X010561Y022647D01*
X010561Y022724D02*
X010640Y022724D01*
X010640Y022802D02*
X010561Y022802D01*
X010561Y022879D02*
X010640Y022879D01*
X010640Y022956D02*
X010561Y022956D01*
X010561Y023034D02*
X010640Y023034D01*
X010830Y023034D02*
X012378Y023034D01*
X012253Y022956D02*
X010956Y022956D01*
X011034Y022879D02*
X012175Y022879D01*
X012122Y022802D02*
X011087Y022802D01*
X011124Y022724D02*
X012085Y022724D01*
X012060Y022647D02*
X011149Y022647D01*
X011161Y022570D02*
X012048Y022570D01*
X012057Y022415D02*
X011152Y022415D01*
X011131Y022338D02*
X012078Y022338D01*
X012111Y022261D02*
X011815Y022261D01*
X012002Y022183D02*
X012160Y022183D01*
X012101Y022106D02*
X012230Y022106D01*
X012178Y022029D02*
X012338Y022029D01*
X012569Y022029D02*
X012648Y022029D01*
X012648Y022106D02*
X012569Y022106D01*
X012569Y022183D02*
X012648Y022183D01*
X012648Y022261D02*
X012569Y022261D01*
X012569Y022338D02*
X012648Y022338D01*
X012648Y022415D02*
X012569Y022415D01*
X012569Y022493D02*
X010640Y022493D01*
X010640Y022415D02*
X010561Y022415D01*
X010561Y022338D02*
X010640Y022338D01*
X010640Y022261D02*
X010561Y022261D01*
X010561Y022183D02*
X010640Y022183D01*
X010640Y022106D02*
X010561Y022106D01*
X010561Y022029D02*
X010640Y022029D01*
X010870Y022029D02*
X011030Y022029D01*
X010979Y022106D02*
X011108Y022106D01*
X011049Y022183D02*
X011207Y022183D01*
X011097Y022261D02*
X011394Y022261D01*
X010371Y023034D02*
X009911Y023034D01*
X009911Y023111D02*
X021376Y023111D01*
X021453Y023188D02*
X009911Y023188D01*
X009911Y023265D02*
X020375Y023265D01*
X020387Y023253D02*
X020481Y023214D01*
X020583Y023214D01*
X020677Y023253D01*
X020749Y023325D01*
X020788Y023419D01*
X020788Y023521D01*
X020749Y023615D01*
X020677Y023687D01*
X020583Y023726D01*
X020481Y023726D01*
X020387Y023687D01*
X020315Y023615D01*
X020276Y023521D01*
X020276Y023419D01*
X020315Y023325D01*
X020387Y023253D01*
X020308Y023343D02*
X009911Y023343D01*
X009911Y023420D02*
X020276Y023420D01*
X020276Y023497D02*
X009911Y023497D01*
X009911Y023575D02*
X020299Y023575D01*
X020352Y023652D02*
X009911Y023652D01*
X009911Y023729D02*
X031723Y023729D01*
X031723Y023652D02*
X022802Y023652D01*
X022902Y023575D02*
X031723Y023575D01*
X031723Y023497D02*
X022940Y023497D01*
X022952Y023420D02*
X031723Y023420D01*
X031723Y023343D02*
X023220Y023343D01*
X023289Y023265D02*
X031723Y023265D01*
X031723Y023188D02*
X023321Y023188D01*
X023322Y023111D02*
X031723Y023111D01*
X031723Y023034D02*
X023301Y023034D01*
X023249Y022956D02*
X031723Y022956D01*
X031723Y022879D02*
X023233Y022879D01*
X023171Y022802D02*
X031723Y022802D01*
X031723Y022724D02*
X023094Y022724D01*
X023017Y022647D02*
X031723Y022647D01*
X031723Y022570D02*
X022939Y022570D01*
X022862Y022493D02*
X031723Y022493D01*
X031723Y022415D02*
X022981Y022415D01*
X023063Y022338D02*
X031723Y022338D01*
X031723Y022261D02*
X023095Y022261D01*
X023101Y022183D02*
X031723Y022183D01*
X031723Y022106D02*
X023170Y022106D01*
X023247Y022029D02*
X031723Y022029D01*
X031723Y021952D02*
X023325Y021952D01*
X023402Y021874D02*
X031723Y021874D01*
X031723Y021797D02*
X023479Y021797D01*
X023556Y021720D02*
X031723Y021720D01*
X031723Y021642D02*
X023634Y021642D01*
X023643Y021565D02*
X031723Y021565D01*
X031723Y021488D02*
X023643Y021488D01*
X023643Y021411D02*
X031723Y021411D01*
X031723Y021333D02*
X023643Y021333D01*
X023643Y021256D02*
X031723Y021256D01*
X031723Y021179D02*
X023643Y021179D01*
X023643Y021101D02*
X031723Y021101D01*
X031723Y021024D02*
X023643Y021024D01*
X023643Y020947D02*
X031723Y020947D01*
X031723Y020870D02*
X023643Y020870D01*
X023643Y020792D02*
X031723Y020792D01*
X031723Y020715D02*
X023643Y020715D01*
X023643Y020638D02*
X031723Y020638D01*
X031723Y020561D02*
X025810Y020561D01*
X025786Y020584D02*
X025692Y020623D01*
X025590Y020623D01*
X025496Y020584D01*
X025424Y020512D01*
X025385Y020418D01*
X025385Y020317D01*
X025424Y020223D01*
X025496Y020151D01*
X025590Y020112D01*
X025692Y020112D01*
X025786Y020151D01*
X025858Y020223D01*
X025896Y020317D01*
X025896Y020418D01*
X025858Y020512D01*
X025786Y020584D01*
X025870Y020483D02*
X031723Y020483D01*
X031723Y020406D02*
X025896Y020406D01*
X025896Y020329D02*
X031723Y020329D01*
X031723Y020251D02*
X025869Y020251D01*
X025809Y020174D02*
X031723Y020174D01*
X031723Y020097D02*
X023185Y020097D01*
X023262Y020174D02*
X025472Y020174D01*
X025412Y020251D02*
X023340Y020251D01*
X023417Y020329D02*
X025385Y020329D01*
X025385Y020406D02*
X023494Y020406D01*
X023572Y020483D02*
X025412Y020483D01*
X025472Y020561D02*
X023643Y020561D01*
X023308Y020693D02*
X023308Y021495D01*
X022885Y021918D01*
X022885Y021848D01*
X022846Y021754D01*
X022774Y021682D01*
X022698Y021651D01*
X022698Y021582D01*
X022769Y021612D01*
X022871Y021612D01*
X022965Y021573D01*
X023037Y021501D01*
X023076Y021407D01*
X023076Y021305D01*
X023037Y021211D01*
X022965Y021139D01*
X022878Y021103D01*
X022957Y021024D01*
X023308Y021024D01*
X023308Y020947D02*
X022957Y020947D01*
X022957Y020886D02*
X022957Y021024D01*
X022879Y021101D02*
X023308Y021101D01*
X023308Y021179D02*
X023005Y021179D01*
X023055Y021256D02*
X023308Y021256D01*
X023308Y021333D02*
X023076Y021333D01*
X023074Y021411D02*
X023308Y021411D01*
X023308Y021488D02*
X023042Y021488D01*
X022972Y021565D02*
X023238Y021565D01*
X023161Y021642D02*
X022698Y021642D01*
X022811Y021720D02*
X023083Y021720D01*
X023006Y021797D02*
X022864Y021797D01*
X022885Y021874D02*
X022929Y021874D01*
X022411Y022041D02*
X022373Y021950D01*
X022373Y021880D01*
X022363Y021870D01*
X022363Y021283D01*
X022363Y021162D01*
X022299Y021136D01*
X022227Y021064D01*
X022188Y020970D01*
X022188Y020868D01*
X022227Y020774D01*
X022276Y020724D01*
X022276Y020232D01*
X021969Y019924D01*
X021969Y021118D01*
X022018Y021167D01*
X022057Y021261D01*
X022057Y021363D01*
X022018Y021457D01*
X021946Y021529D01*
X021914Y021543D01*
X021940Y021606D01*
X021940Y021676D01*
X022040Y021777D01*
X022146Y021777D01*
X022244Y021875D01*
X022411Y022041D01*
X022406Y022029D02*
X022398Y022029D01*
X022374Y021952D02*
X022321Y021952D01*
X022367Y021874D02*
X022244Y021874D01*
X022167Y021797D02*
X022363Y021797D01*
X022363Y021720D02*
X021983Y021720D01*
X021940Y021642D02*
X022363Y021642D01*
X022363Y021565D02*
X021923Y021565D01*
X021988Y021488D02*
X022363Y021488D01*
X022363Y021411D02*
X022038Y021411D01*
X022057Y021333D02*
X022363Y021333D01*
X022363Y021256D02*
X022055Y021256D01*
X022023Y021179D02*
X022363Y021179D01*
X022265Y021101D02*
X021969Y021101D01*
X021969Y021024D02*
X022211Y021024D01*
X022188Y020947D02*
X021969Y020947D01*
X021969Y020870D02*
X022188Y020870D01*
X022219Y020792D02*
X021969Y020792D01*
X021969Y020715D02*
X022276Y020715D01*
X022276Y020638D02*
X021969Y020638D01*
X021969Y020561D02*
X022276Y020561D01*
X022276Y020483D02*
X021969Y020483D01*
X021969Y020406D02*
X022276Y020406D01*
X022276Y020329D02*
X021969Y020329D01*
X021969Y020251D02*
X022276Y020251D01*
X022218Y020174D02*
X021969Y020174D01*
X021969Y020097D02*
X022141Y020097D01*
X022064Y020020D02*
X021969Y020020D01*
X021969Y019942D02*
X021987Y019942D01*
X022644Y019556D02*
X031723Y019556D01*
X031723Y019633D02*
X022721Y019633D01*
X022799Y019710D02*
X031723Y019710D01*
X031723Y019788D02*
X022876Y019788D01*
X022953Y019865D02*
X031723Y019865D01*
X031723Y019942D02*
X023031Y019942D01*
X023108Y020020D02*
X031723Y020020D01*
X031723Y019479D02*
X022758Y019479D01*
X022830Y019401D02*
X031723Y019401D01*
X031723Y019324D02*
X022862Y019324D01*
X022865Y019247D02*
X031723Y019247D01*
X031723Y019169D02*
X022846Y019169D01*
X022798Y019092D02*
X031723Y019092D01*
X031723Y019015D02*
X022673Y019015D01*
X022545Y019015D02*
X022103Y019015D01*
X022026Y018938D02*
X031723Y018938D01*
X031723Y018860D02*
X021271Y018860D01*
X021034Y018860D02*
X019449Y018860D01*
X019526Y018938D02*
X020941Y018938D01*
X020906Y019015D02*
X019603Y019015D01*
X019681Y019092D02*
X020897Y019092D01*
X020909Y019169D02*
X020411Y019169D01*
X020201Y019169D02*
X019758Y019169D01*
X019835Y019247D02*
X020100Y019247D01*
X020062Y019324D02*
X019912Y019324D01*
X019990Y019401D02*
X020050Y019401D01*
X019371Y018783D02*
X031723Y018783D01*
X031723Y018706D02*
X019294Y018706D01*
X019217Y018628D02*
X031723Y018628D01*
X031723Y018551D02*
X019140Y018551D01*
X019062Y018474D02*
X031723Y018474D01*
X031723Y018397D02*
X018985Y018397D01*
X018908Y018319D02*
X031723Y018319D01*
X031723Y018242D02*
X018830Y018242D01*
X018753Y018165D02*
X031723Y018165D01*
X031723Y018087D02*
X018676Y018087D01*
X018599Y018010D02*
X020132Y018010D01*
X020122Y018006D02*
X020050Y017934D01*
X020011Y017840D01*
X020011Y017738D01*
X020050Y017644D01*
X020122Y017572D01*
X020216Y017533D01*
X020318Y017533D01*
X020412Y017572D01*
X020484Y017644D01*
X020522Y017738D01*
X020522Y017840D01*
X020484Y017934D01*
X020412Y018006D01*
X020318Y018045D01*
X020216Y018045D01*
X020122Y018006D01*
X020049Y017933D02*
X018521Y017933D01*
X018444Y017856D02*
X020017Y017856D01*
X020011Y017778D02*
X018367Y017778D01*
X018289Y017701D02*
X020026Y017701D01*
X020070Y017624D02*
X018212Y017624D01*
X018135Y017546D02*
X020183Y017546D01*
X020350Y017546D02*
X031723Y017546D01*
X031723Y017469D02*
X018058Y017469D01*
X017980Y017392D02*
X031723Y017392D01*
X031723Y017315D02*
X017903Y017315D01*
X017826Y017237D02*
X031723Y017237D01*
X031723Y017160D02*
X017748Y017160D01*
X017671Y017083D02*
X031723Y017083D01*
X031723Y017005D02*
X017594Y017005D01*
X017517Y016928D02*
X031723Y016928D01*
X031723Y016851D02*
X017439Y016851D01*
X017662Y017546D02*
X009911Y017546D01*
X010561Y020020D02*
X010640Y020020D01*
X010640Y020097D02*
X010561Y020097D01*
X010561Y020174D02*
X010640Y020174D01*
X010640Y020251D02*
X010561Y020251D01*
X010561Y020329D02*
X010640Y020329D01*
X011861Y020792D02*
X012121Y020792D01*
X012174Y020870D02*
X012043Y020870D01*
X012120Y020947D02*
X012251Y020947D01*
X012197Y021024D02*
X012375Y021024D01*
X012569Y021024D02*
X012648Y021024D01*
X012648Y020947D02*
X012569Y020947D01*
X012569Y020870D02*
X012648Y020870D01*
X012648Y020792D02*
X012569Y020792D01*
X012569Y020715D02*
X012648Y020715D01*
X012648Y020638D02*
X012569Y020638D01*
X012569Y020561D02*
X012648Y020561D01*
X012648Y022493D02*
X020867Y022493D01*
X020867Y022570D02*
X013169Y022570D01*
X013156Y022647D02*
X020912Y022647D01*
X020989Y022724D02*
X013132Y022724D01*
X013095Y022802D02*
X021067Y022802D01*
X021144Y022879D02*
X013042Y022879D01*
X012964Y022956D02*
X021221Y022956D01*
X021298Y023034D02*
X012838Y023034D01*
X012648Y023034D02*
X012569Y023034D01*
X012569Y022956D02*
X012648Y022956D01*
X012648Y022879D02*
X012569Y022879D01*
X012569Y022802D02*
X012648Y022802D01*
X012648Y022724D02*
X012569Y022724D01*
X012569Y022647D02*
X012648Y022647D01*
X012648Y022570D02*
X012569Y022570D01*
X010245Y022956D02*
X009911Y022956D01*
X009911Y022879D02*
X010167Y022879D01*
X010114Y022802D02*
X009911Y022802D01*
X009911Y022724D02*
X010077Y022724D01*
X010052Y022647D02*
X009911Y022647D01*
X009911Y022570D02*
X010040Y022570D01*
X009911Y023806D02*
X031723Y023806D01*
X031723Y023884D02*
X009911Y023884D01*
X009911Y023961D02*
X030174Y023961D01*
X030153Y023969D02*
X030247Y023931D01*
X030349Y023931D01*
X030443Y023969D01*
X030515Y024041D01*
X030554Y024136D01*
X030554Y024237D01*
X030515Y024331D01*
X030443Y024403D01*
X030349Y024442D01*
X030247Y024442D01*
X030153Y024403D01*
X030081Y024331D01*
X030042Y024237D01*
X030042Y024136D01*
X030081Y024041D01*
X030153Y023969D01*
X030084Y024038D02*
X009911Y024038D01*
X009911Y024116D02*
X030050Y024116D01*
X030042Y024193D02*
X009911Y024193D01*
X009911Y024270D02*
X030056Y024270D01*
X030097Y024347D02*
X009911Y024347D01*
X009911Y024425D02*
X030205Y024425D01*
X030392Y024425D02*
X031723Y024425D01*
X031723Y024502D02*
X009911Y024502D01*
X009911Y024579D02*
X031723Y024579D01*
X031723Y024657D02*
X009911Y024657D01*
X009911Y024734D02*
X026785Y024734D01*
X026794Y024730D02*
X026896Y024730D01*
X026990Y024769D01*
X027062Y024841D01*
X027101Y024935D01*
X027101Y025037D01*
X027062Y025131D01*
X026990Y025203D01*
X026896Y025242D01*
X026794Y025242D01*
X026700Y025203D01*
X026628Y025131D01*
X026589Y025037D01*
X026589Y024935D01*
X026628Y024841D01*
X026700Y024769D01*
X026794Y024730D01*
X026906Y024734D02*
X031723Y024734D01*
X031723Y024811D02*
X027033Y024811D01*
X027082Y024888D02*
X031723Y024888D01*
X031723Y024966D02*
X027101Y024966D01*
X027099Y025043D02*
X031723Y025043D01*
X031723Y025120D02*
X027067Y025120D01*
X026995Y025198D02*
X031723Y025198D01*
X031723Y025275D02*
X009911Y025275D01*
X009911Y025352D02*
X020576Y025352D01*
X020535Y025369D02*
X020629Y025330D01*
X020731Y025330D01*
X020825Y025369D01*
X020897Y025441D01*
X020936Y025535D01*
X020936Y025637D01*
X020897Y025731D01*
X020825Y025803D01*
X020731Y025842D01*
X020629Y025842D01*
X020535Y025803D01*
X020463Y025731D01*
X020424Y025637D01*
X020424Y025535D01*
X020463Y025441D01*
X020535Y025369D01*
X020475Y025429D02*
X009911Y025429D01*
X009911Y025507D02*
X020436Y025507D01*
X020424Y025584D02*
X009911Y025584D01*
X009911Y025661D02*
X020434Y025661D01*
X020471Y025739D02*
X009911Y025739D01*
X009911Y025816D02*
X020566Y025816D01*
X020794Y025816D02*
X022538Y025816D01*
X022540Y025893D02*
X009911Y025893D01*
X009911Y025970D02*
X022540Y025970D01*
X022540Y026048D02*
X009911Y026048D01*
X009911Y026125D02*
X022540Y026125D01*
X022540Y026202D02*
X009911Y026202D01*
X009911Y026279D02*
X022540Y026279D01*
X022540Y026357D02*
X009911Y026357D01*
X009911Y026434D02*
X022540Y026434D01*
X022540Y026511D02*
X021335Y026511D01*
X021321Y026497D02*
X021393Y026569D01*
X021432Y026663D01*
X021432Y026765D01*
X021393Y026859D01*
X021321Y026931D01*
X021227Y026970D01*
X021125Y026970D01*
X021031Y026931D01*
X020959Y026859D01*
X020920Y026765D01*
X020920Y026663D01*
X020959Y026569D01*
X021031Y026497D01*
X021125Y026458D01*
X021227Y026458D01*
X021321Y026497D01*
X021401Y026589D02*
X022540Y026589D01*
X022540Y026666D02*
X021432Y026666D01*
X021432Y026743D02*
X022540Y026743D01*
X022540Y026820D02*
X021409Y026820D01*
X021354Y026898D02*
X022540Y026898D01*
X022540Y026975D02*
X009911Y026975D01*
X009911Y026898D02*
X020998Y026898D01*
X020943Y026820D02*
X009911Y026820D01*
X009911Y026743D02*
X020920Y026743D01*
X020920Y026666D02*
X009911Y026666D01*
X009911Y026589D02*
X020951Y026589D01*
X021017Y026511D02*
X009911Y026511D01*
X009911Y027052D02*
X022540Y027052D01*
X022540Y027130D02*
X009911Y027130D01*
X009911Y027207D02*
X022540Y027207D01*
X022540Y027284D02*
X009911Y027284D01*
X009911Y027361D02*
X022540Y027361D01*
X022540Y027439D02*
X009911Y027439D01*
X009911Y027516D02*
X022540Y027516D01*
X022540Y027593D02*
X009911Y027593D01*
X009911Y027671D02*
X022540Y027671D01*
X022540Y027748D02*
X009911Y027748D01*
X009911Y027825D02*
X022540Y027825D01*
X022540Y027902D02*
X009911Y027902D01*
X009911Y027980D02*
X022540Y027980D01*
X022540Y028057D02*
X009911Y028057D01*
X009911Y028134D02*
X022540Y028134D01*
X022540Y028212D02*
X009911Y028212D01*
X009911Y028289D02*
X022540Y028289D01*
X022540Y028366D02*
X009911Y028366D01*
X009911Y028443D02*
X022540Y028443D01*
X022540Y028521D02*
X009911Y028521D01*
X009911Y028598D02*
X022508Y028598D01*
X022431Y028675D02*
X009911Y028675D01*
X009911Y028753D02*
X022354Y028753D01*
X022276Y028830D02*
X009911Y028830D01*
X009911Y028907D02*
X022199Y028907D01*
X022122Y028984D02*
X009911Y028984D01*
X009911Y029062D02*
X022044Y029062D01*
X021967Y029139D02*
X009911Y029139D01*
X009911Y029216D02*
X021890Y029216D01*
X021813Y029294D02*
X009911Y029294D01*
X009911Y029371D02*
X021735Y029371D01*
X021658Y029448D02*
X009911Y029448D01*
X009911Y029525D02*
X021581Y029525D01*
X021504Y029603D02*
X015956Y029603D01*
X016096Y029680D02*
X021426Y029680D01*
X021349Y029757D02*
X016174Y029757D01*
X016213Y030161D02*
X016181Y030238D01*
X016063Y030356D01*
X015910Y030419D01*
X015143Y030419D01*
X014990Y030356D01*
X014886Y030252D01*
X014734Y030403D01*
X014734Y031543D01*
X014956Y031322D01*
X014872Y031238D01*
X014808Y031085D01*
X014808Y030918D01*
X014872Y030765D01*
X014990Y030647D01*
X015143Y030583D01*
X015910Y030583D01*
X016063Y030647D01*
X016181Y030765D01*
X016208Y030830D01*
X021437Y030830D01*
X022859Y029408D01*
X022859Y028720D01*
X021517Y030063D01*
X021419Y030161D01*
X016213Y030161D01*
X016188Y030221D02*
X022047Y030221D01*
X022124Y030144D02*
X021436Y030144D01*
X021513Y030066D02*
X022201Y030066D01*
X022279Y029989D02*
X021590Y029989D01*
X021668Y029912D02*
X022356Y029912D01*
X022433Y029835D02*
X021745Y029835D01*
X021822Y029757D02*
X022510Y029757D01*
X022588Y029680D02*
X021899Y029680D01*
X021977Y029603D02*
X022665Y029603D01*
X022742Y029525D02*
X022054Y029525D01*
X022131Y029448D02*
X022819Y029448D01*
X022859Y029371D02*
X022209Y029371D01*
X022286Y029294D02*
X022859Y029294D01*
X022859Y029216D02*
X022363Y029216D01*
X022440Y029139D02*
X022859Y029139D01*
X022859Y029062D02*
X022518Y029062D01*
X022595Y028984D02*
X022859Y028984D01*
X022859Y028907D02*
X022672Y028907D01*
X022750Y028830D02*
X022859Y028830D01*
X022859Y028753D02*
X022827Y028753D01*
X023194Y028753D02*
X031723Y028753D01*
X031723Y028830D02*
X023194Y028830D01*
X023194Y028907D02*
X031723Y028907D01*
X031723Y028984D02*
X023194Y028984D01*
X023194Y029062D02*
X031723Y029062D01*
X031723Y029139D02*
X023194Y029139D01*
X023194Y029216D02*
X031723Y029216D01*
X031723Y029294D02*
X023194Y029294D01*
X023194Y029371D02*
X031723Y029371D01*
X031723Y029448D02*
X023194Y029448D01*
X023194Y029525D02*
X031723Y029525D01*
X031723Y029603D02*
X023138Y029603D01*
X023061Y029680D02*
X031723Y029680D01*
X031723Y029757D02*
X022984Y029757D01*
X022906Y029835D02*
X031723Y029835D01*
X031723Y029912D02*
X023283Y029912D01*
X023254Y029883D02*
X023326Y029955D01*
X023365Y030049D01*
X023365Y030151D01*
X023326Y030245D01*
X023254Y030317D01*
X023160Y030356D01*
X023058Y030356D01*
X022964Y030317D01*
X022892Y030245D01*
X022853Y030151D01*
X022853Y030049D01*
X022892Y029955D01*
X022964Y029883D01*
X023058Y029844D01*
X023160Y029844D01*
X023254Y029883D01*
X023340Y029989D02*
X031723Y029989D01*
X031723Y030066D02*
X023365Y030066D01*
X023365Y030144D02*
X031723Y030144D01*
X031723Y030221D02*
X023336Y030221D01*
X023273Y030298D02*
X031723Y030298D01*
X031723Y030376D02*
X022365Y030376D01*
X022288Y030453D02*
X031723Y030453D01*
X031723Y030530D02*
X022211Y030530D01*
X022133Y030607D02*
X031723Y030607D01*
X031723Y030685D02*
X022056Y030685D01*
X021979Y030762D02*
X031723Y030762D01*
X031723Y030839D02*
X021902Y030839D01*
X021824Y030916D02*
X031723Y030916D01*
X031723Y030994D02*
X021747Y030994D01*
X021670Y031071D02*
X031723Y031071D01*
X031723Y031148D02*
X021592Y031148D01*
X021506Y030762D02*
X016178Y030762D01*
X016101Y030685D02*
X021583Y030685D01*
X021660Y030607D02*
X015968Y030607D01*
X016016Y030376D02*
X021892Y030376D01*
X021815Y030453D02*
X014734Y030453D01*
X014734Y030530D02*
X021738Y030530D01*
X021969Y030298D02*
X016121Y030298D01*
X016186Y031226D02*
X031723Y031226D01*
X031723Y031303D02*
X016116Y031303D01*
X016004Y031380D02*
X031723Y031380D01*
X031723Y031457D02*
X015321Y031457D01*
X015244Y031535D02*
X031723Y031535D01*
X031723Y031612D02*
X015979Y031612D01*
X016106Y031689D02*
X031723Y031689D01*
X031723Y031767D02*
X016182Y031767D01*
X016214Y031844D02*
X031723Y031844D01*
X031723Y031921D02*
X016245Y031921D01*
X016245Y031998D02*
X031723Y031998D01*
X031723Y032076D02*
X016245Y032076D01*
X016216Y032153D02*
X031723Y032153D01*
X031723Y028675D02*
X023194Y028675D01*
X023194Y028598D02*
X031723Y028598D01*
X031723Y028521D02*
X023194Y028521D01*
X023194Y028443D02*
X031723Y028443D01*
X031723Y028366D02*
X023194Y028366D01*
X023194Y028289D02*
X031723Y028289D01*
X031723Y028212D02*
X023194Y028212D01*
X023194Y028134D02*
X031723Y028134D01*
X031723Y028057D02*
X023194Y028057D01*
X023194Y027980D02*
X031723Y027980D01*
X031723Y027902D02*
X024393Y027902D01*
X024388Y027907D02*
X024294Y027946D01*
X024192Y027946D01*
X024098Y027907D01*
X024026Y027835D01*
X023987Y027741D01*
X023987Y027639D01*
X024026Y027545D01*
X024098Y027473D01*
X024192Y027434D01*
X024294Y027434D01*
X024388Y027473D01*
X024460Y027545D01*
X024499Y027639D01*
X024499Y027741D01*
X024460Y027835D01*
X024388Y027907D01*
X024464Y027825D02*
X031723Y027825D01*
X031723Y027748D02*
X024496Y027748D01*
X024499Y027671D02*
X031723Y027671D01*
X031723Y027593D02*
X024480Y027593D01*
X024431Y027516D02*
X031723Y027516D01*
X031723Y027439D02*
X024304Y027439D01*
X024182Y027439D02*
X023194Y027439D01*
X023194Y027516D02*
X024055Y027516D01*
X024006Y027593D02*
X023194Y027593D01*
X023194Y027671D02*
X023987Y027671D01*
X023990Y027748D02*
X023194Y027748D01*
X023194Y027825D02*
X024022Y027825D01*
X024093Y027902D02*
X023194Y027902D01*
X023194Y027361D02*
X031723Y027361D01*
X031723Y027284D02*
X023194Y027284D01*
X023194Y027207D02*
X031723Y027207D01*
X031723Y027130D02*
X023194Y027130D01*
X023194Y027052D02*
X031723Y027052D01*
X031723Y026975D02*
X023194Y026975D01*
X023194Y026898D02*
X031723Y026898D01*
X031723Y026820D02*
X023194Y026820D01*
X023194Y026743D02*
X031723Y026743D01*
X031723Y026666D02*
X023194Y026666D01*
X023194Y026589D02*
X031723Y026589D01*
X031723Y026511D02*
X023194Y026511D01*
X023194Y026434D02*
X031723Y026434D01*
X031723Y026357D02*
X023194Y026357D01*
X023194Y026279D02*
X030139Y026279D01*
X030153Y026293D02*
X030081Y026221D01*
X030042Y026127D01*
X030042Y026025D01*
X030081Y025931D01*
X030153Y025859D01*
X030224Y025830D01*
X029233Y025830D01*
X029183Y025880D01*
X029089Y025919D01*
X028987Y025919D01*
X028893Y025880D01*
X028821Y025808D01*
X028782Y025714D01*
X028782Y025612D01*
X028821Y025518D01*
X028893Y025446D01*
X028987Y025407D01*
X029089Y025407D01*
X029183Y025446D01*
X029233Y025496D01*
X030741Y025496D01*
X030839Y025594D01*
X030987Y025742D01*
X031058Y025742D01*
X031152Y025781D01*
X031224Y025853D01*
X031263Y025947D01*
X031263Y026048D01*
X031723Y026048D01*
X031723Y026125D02*
X031231Y026125D01*
X031224Y026142D02*
X031152Y026214D01*
X031058Y026253D01*
X030956Y026253D01*
X030862Y026214D01*
X030790Y026142D01*
X030751Y026048D01*
X030554Y026048D01*
X030554Y026025D02*
X030554Y026127D01*
X030515Y026221D01*
X030443Y026293D01*
X030349Y026332D01*
X030247Y026332D01*
X030153Y026293D01*
X030073Y026202D02*
X023194Y026202D01*
X023194Y026125D02*
X030042Y026125D01*
X030042Y026048D02*
X023194Y026048D01*
X023254Y025970D02*
X030065Y025970D01*
X030119Y025893D02*
X029151Y025893D01*
X028925Y025893D02*
X023282Y025893D01*
X023282Y025816D02*
X028829Y025816D01*
X028793Y025739D02*
X023256Y025739D01*
X023198Y025661D02*
X028782Y025661D01*
X028794Y025584D02*
X022963Y025584D01*
X022936Y025507D02*
X028833Y025507D01*
X028933Y025429D02*
X022875Y025429D01*
X022540Y025429D02*
X020885Y025429D01*
X020924Y025507D02*
X022479Y025507D01*
X022452Y025584D02*
X020936Y025584D01*
X020926Y025661D02*
X022452Y025661D01*
X022478Y025739D02*
X020889Y025739D01*
X020784Y025352D02*
X031723Y025352D01*
X031723Y025429D02*
X029143Y025429D01*
X030373Y025830D02*
X030443Y025859D01*
X030515Y025931D01*
X030554Y026025D01*
X030531Y025970D02*
X030743Y025970D01*
X030751Y025978D02*
X030603Y025830D01*
X030373Y025830D01*
X030477Y025893D02*
X030666Y025893D01*
X030751Y025978D02*
X030751Y026048D01*
X030783Y026125D02*
X030554Y026125D01*
X030523Y026202D02*
X030850Y026202D01*
X031164Y026202D02*
X031723Y026202D01*
X031723Y026279D02*
X030457Y026279D01*
X030984Y025739D02*
X031723Y025739D01*
X031723Y025816D02*
X031187Y025816D01*
X031240Y025893D02*
X031723Y025893D01*
X031723Y025970D02*
X031263Y025970D01*
X031263Y026048D02*
X031224Y026142D01*
X030907Y025661D02*
X031723Y025661D01*
X031723Y025584D02*
X030830Y025584D01*
X030753Y025507D02*
X031723Y025507D01*
X031723Y024347D02*
X030499Y024347D01*
X030540Y024270D02*
X031723Y024270D01*
X031723Y024193D02*
X030554Y024193D01*
X030546Y024116D02*
X031723Y024116D01*
X031723Y024038D02*
X030512Y024038D01*
X030422Y023961D02*
X031723Y023961D01*
X026658Y024811D02*
X009911Y024811D01*
X009911Y024888D02*
X026609Y024888D01*
X026589Y024966D02*
X009911Y024966D01*
X009911Y025043D02*
X026592Y025043D01*
X026624Y025120D02*
X009911Y025120D01*
X009911Y025198D02*
X026695Y025198D01*
X022811Y023190D02*
X022810Y023186D01*
X022810Y023084D01*
X022849Y022990D01*
X022868Y022971D01*
X022027Y022130D01*
X022040Y022163D01*
X022040Y022265D01*
X022001Y022359D01*
X021929Y022431D01*
X021835Y022470D01*
X021733Y022470D01*
X021639Y022431D01*
X021576Y022367D01*
X021576Y022379D01*
X021537Y022473D01*
X021465Y022545D01*
X021371Y022584D01*
X021322Y022584D01*
X021989Y023251D01*
X022501Y023251D01*
X022551Y023202D01*
X022645Y023163D01*
X022747Y023163D01*
X022811Y023190D01*
X022811Y023188D02*
X022808Y023188D01*
X022810Y023111D02*
X021849Y023111D01*
X021926Y023188D02*
X022584Y023188D01*
X022831Y023034D02*
X021772Y023034D01*
X021694Y022956D02*
X022853Y022956D01*
X022775Y022879D02*
X021617Y022879D01*
X021540Y022802D02*
X022698Y022802D01*
X022621Y022724D02*
X021462Y022724D01*
X021385Y022647D02*
X022544Y022647D01*
X022466Y022570D02*
X021405Y022570D01*
X021517Y022493D02*
X022389Y022493D01*
X022312Y022415D02*
X021945Y022415D01*
X022010Y022338D02*
X022234Y022338D01*
X022157Y022261D02*
X022040Y022261D01*
X022040Y022183D02*
X022080Y022183D01*
X021624Y022415D02*
X021561Y022415D01*
X021433Y021720D02*
X021368Y021720D01*
X021369Y021642D02*
X021428Y021642D01*
X021445Y021565D02*
X021348Y021565D01*
X021296Y021488D02*
X021491Y021488D01*
X020651Y021101D02*
X020588Y021101D01*
X020690Y023265D02*
X021530Y023265D01*
X021608Y023343D02*
X020757Y023343D01*
X020788Y023420D02*
X021685Y023420D01*
X021762Y023497D02*
X020788Y023497D01*
X020766Y023575D02*
X021839Y023575D01*
X022590Y023652D02*
X020712Y023652D01*
X022957Y020886D02*
X022957Y020341D01*
X023308Y020693D01*
X023308Y020715D02*
X022957Y020715D01*
X022957Y020638D02*
X023253Y020638D01*
X023176Y020561D02*
X022957Y020561D01*
X022957Y020483D02*
X023098Y020483D01*
X023021Y020406D02*
X022957Y020406D01*
X022957Y020792D02*
X023308Y020792D01*
X023308Y020870D02*
X022957Y020870D01*
X022353Y019247D02*
X022335Y019247D01*
X022372Y019169D02*
X022258Y019169D01*
X022181Y019092D02*
X022420Y019092D01*
X020484Y017933D02*
X031723Y017933D01*
X031723Y018010D02*
X020401Y018010D01*
X020516Y017856D02*
X031723Y017856D01*
X031723Y017778D02*
X020522Y017778D01*
X020507Y017701D02*
X031723Y017701D01*
X031723Y017624D02*
X020463Y017624D01*
X017816Y017701D02*
X016117Y017701D01*
X016007Y017624D02*
X017739Y017624D01*
X015096Y029603D02*
X009911Y029603D01*
X009911Y029680D02*
X014957Y029680D01*
X014879Y029757D02*
X009911Y029757D01*
X009911Y029835D02*
X014802Y029835D01*
X014725Y029912D02*
X009911Y029912D01*
X009911Y029989D02*
X014647Y029989D01*
X014570Y030066D02*
X009911Y030066D01*
X009911Y030144D02*
X014493Y030144D01*
X014415Y030221D02*
X009911Y030221D01*
X009911Y030298D02*
X014380Y030298D01*
X014380Y030376D02*
X009911Y030376D01*
X009911Y030453D02*
X014380Y030453D01*
X014380Y030530D02*
X009911Y030530D01*
X009911Y030607D02*
X014380Y030607D01*
X014380Y030685D02*
X009911Y030685D01*
X009911Y030762D02*
X014380Y030762D01*
X014380Y030839D02*
X009911Y030839D01*
X009911Y030916D02*
X014380Y030916D01*
X014380Y030994D02*
X009911Y030994D01*
X009911Y031071D02*
X014380Y031071D01*
X014380Y031148D02*
X009911Y031148D01*
X009911Y031226D02*
X014380Y031226D01*
X014380Y031303D02*
X009911Y031303D01*
X009911Y031380D02*
X014380Y031380D01*
X014380Y031457D02*
X009911Y031457D01*
X009911Y031535D02*
X014380Y031535D01*
X014380Y031612D02*
X009911Y031612D01*
X014380Y031689D02*
X004360Y031689D01*
X004360Y031767D02*
X014380Y031767D01*
X014380Y031844D02*
X004360Y031844D01*
X004360Y031921D02*
X014380Y031921D01*
X014380Y031998D02*
X004360Y031998D01*
X004360Y032076D02*
X014380Y032076D01*
X014380Y032153D02*
X004360Y032153D01*
X004360Y032230D02*
X014380Y032230D01*
X014380Y032308D02*
X004360Y032308D01*
X004360Y032385D02*
X014380Y032385D01*
X014380Y032462D02*
X004360Y032462D01*
X004360Y032539D02*
X014380Y032539D01*
X014380Y032617D02*
X004360Y032617D01*
X004360Y032694D02*
X014380Y032694D01*
X014380Y032771D02*
X004360Y032771D01*
X004360Y032849D02*
X014380Y032849D01*
X014380Y032926D02*
X004360Y032926D01*
X004360Y033003D02*
X014380Y033003D01*
X014380Y033080D02*
X004360Y033080D01*
X004360Y033158D02*
X014380Y033158D01*
X014380Y033235D02*
X004360Y033235D01*
X004360Y033312D02*
X014380Y033312D01*
X014380Y033390D02*
X004360Y033390D01*
X004360Y033467D02*
X014380Y033467D01*
X014380Y033544D02*
X004360Y033544D01*
X004360Y033621D02*
X014380Y033621D01*
X014380Y033699D02*
X004360Y033699D01*
X004360Y033776D02*
X014380Y033776D01*
X014380Y033853D02*
X004360Y033853D01*
X004360Y033931D02*
X014380Y033931D01*
X014380Y034008D02*
X004360Y034008D01*
X004360Y034085D02*
X014380Y034085D01*
X014380Y034162D02*
X004360Y034162D01*
X004360Y034240D02*
X014380Y034240D01*
X014380Y034317D02*
X004360Y034317D01*
X004360Y034394D02*
X014380Y034394D01*
X014380Y034472D02*
X004360Y034472D01*
X004360Y034549D02*
X014380Y034549D01*
X014380Y034626D02*
X004360Y034626D01*
X004360Y034703D02*
X014380Y034703D01*
X014380Y034781D02*
X004360Y034781D01*
X004360Y034858D02*
X014380Y034858D01*
X014380Y034935D02*
X004360Y034935D01*
X004360Y035013D02*
X014380Y035013D01*
X014380Y035090D02*
X004360Y035090D01*
X004360Y035167D02*
X014380Y035167D01*
X014380Y035244D02*
X004360Y035244D01*
X004360Y035322D02*
X014380Y035322D01*
X014380Y035399D02*
X004360Y035399D01*
X004360Y035476D02*
X014380Y035476D01*
X014380Y035554D02*
X004360Y035554D01*
X004360Y035631D02*
X014380Y035631D01*
X014380Y035708D02*
X004360Y035708D01*
X004360Y035785D02*
X014380Y035785D01*
X014380Y035863D02*
X004360Y035863D01*
X004360Y035940D02*
X014380Y035940D01*
X014380Y036017D02*
X004360Y036017D01*
X004360Y036094D02*
X014380Y036094D01*
X014380Y036172D02*
X004360Y036172D01*
X004360Y036249D02*
X014380Y036249D01*
X014380Y036326D02*
X004360Y036326D01*
X004360Y036404D02*
X014380Y036404D01*
X014380Y036481D02*
X004360Y036481D01*
X004360Y036558D02*
X014380Y036558D01*
X014380Y036635D02*
X004360Y036635D01*
X014734Y036635D02*
X015211Y036635D01*
X015211Y036668D02*
X015211Y033163D01*
X014734Y032687D01*
X014734Y036668D01*
X015211Y036668D01*
X015211Y036558D02*
X014734Y036558D01*
X014734Y036481D02*
X015211Y036481D01*
X015211Y036404D02*
X014734Y036404D01*
X014734Y036326D02*
X015211Y036326D01*
X015211Y036249D02*
X014734Y036249D01*
X014734Y036172D02*
X015211Y036172D01*
X015211Y036094D02*
X014734Y036094D01*
X014734Y036017D02*
X015211Y036017D01*
X015211Y035940D02*
X014734Y035940D01*
X014734Y035863D02*
X015211Y035863D01*
X015211Y035785D02*
X014734Y035785D01*
X014734Y035708D02*
X015211Y035708D01*
X015211Y035631D02*
X014734Y035631D01*
X014734Y035554D02*
X015211Y035554D01*
X015211Y035476D02*
X014734Y035476D01*
X014734Y035399D02*
X015211Y035399D01*
X015211Y035322D02*
X014734Y035322D01*
X014734Y035244D02*
X015211Y035244D01*
X015211Y035167D02*
X014734Y035167D01*
X014734Y035090D02*
X015211Y035090D01*
X015211Y035013D02*
X014734Y035013D01*
X014734Y034935D02*
X015211Y034935D01*
X015211Y034858D02*
X014734Y034858D01*
X014734Y034781D02*
X015211Y034781D01*
X015211Y034703D02*
X014734Y034703D01*
X014734Y034626D02*
X015211Y034626D01*
X015211Y034549D02*
X014734Y034549D01*
X014734Y034472D02*
X015211Y034472D01*
X015211Y034394D02*
X014734Y034394D01*
X014734Y034317D02*
X015211Y034317D01*
X015211Y034240D02*
X014734Y034240D01*
X014734Y034162D02*
X015211Y034162D01*
X015211Y034085D02*
X014734Y034085D01*
X014734Y034008D02*
X015211Y034008D01*
X015211Y033931D02*
X014734Y033931D01*
X014734Y033853D02*
X015211Y033853D01*
X015211Y033776D02*
X014734Y033776D01*
X014734Y033699D02*
X015211Y033699D01*
X015211Y033621D02*
X014734Y033621D01*
X014734Y033544D02*
X015211Y033544D01*
X015211Y033467D02*
X014734Y033467D01*
X014734Y033390D02*
X015211Y033390D01*
X015211Y033312D02*
X014734Y033312D01*
X014734Y033235D02*
X015211Y033235D01*
X015205Y033158D02*
X014734Y033158D01*
X014734Y033080D02*
X015128Y033080D01*
X015051Y033003D02*
X014734Y033003D01*
X014734Y032926D02*
X014974Y032926D01*
X014896Y032849D02*
X014734Y032849D01*
X014734Y032771D02*
X014819Y032771D01*
X014742Y032694D02*
X014734Y032694D01*
X015011Y032462D02*
X016174Y032462D01*
X016141Y032539D02*
X015088Y032539D01*
X015166Y032617D02*
X016109Y032617D01*
X016108Y032694D02*
X015243Y032694D01*
X015320Y032771D02*
X016108Y032771D01*
X016108Y032849D02*
X015397Y032849D01*
X015475Y032926D02*
X016108Y032926D01*
X016108Y033003D02*
X015552Y033003D01*
X015565Y033080D02*
X016108Y033080D01*
X016108Y033158D02*
X015565Y033158D01*
X015565Y033235D02*
X016108Y033235D01*
X016108Y033312D02*
X015565Y033312D01*
X015565Y033390D02*
X016110Y033390D01*
X016142Y033467D02*
X015565Y033467D01*
X015565Y033544D02*
X016178Y033544D01*
X016255Y033621D02*
X015565Y033621D01*
X015565Y033699D02*
X016393Y033699D01*
X016408Y033776D02*
X015565Y033776D01*
X015565Y033853D02*
X016408Y033853D01*
X016408Y033931D02*
X015565Y033931D01*
X015565Y034008D02*
X016408Y034008D01*
X016408Y034085D02*
X015565Y034085D01*
X015565Y034162D02*
X016408Y034162D01*
X016408Y034240D02*
X015565Y034240D01*
X015565Y034317D02*
X016408Y034317D01*
X016408Y034394D02*
X015565Y034394D01*
X015565Y034472D02*
X016408Y034472D01*
X016408Y034549D02*
X015565Y034549D01*
X015565Y034626D02*
X016408Y034626D01*
X016408Y034703D02*
X015565Y034703D01*
X015565Y034781D02*
X016408Y034781D01*
X016408Y034858D02*
X015565Y034858D01*
X015565Y034935D02*
X016408Y034935D01*
X016408Y035013D02*
X015565Y035013D01*
X015565Y035090D02*
X016408Y035090D01*
X016408Y035167D02*
X015565Y035167D01*
X015565Y035244D02*
X016408Y035244D01*
X016408Y035322D02*
X015565Y035322D01*
X015565Y035399D02*
X016408Y035399D01*
X016408Y035476D02*
X015565Y035476D01*
X015565Y035554D02*
X016408Y035554D01*
X016408Y035631D02*
X015565Y035631D01*
X015565Y035708D02*
X016408Y035708D01*
X016408Y035785D02*
X015565Y035785D01*
X015565Y035863D02*
X016408Y035863D01*
X016408Y035940D02*
X015565Y035940D01*
X015565Y036017D02*
X016408Y036017D01*
X016408Y036094D02*
X015565Y036094D01*
X015565Y036172D02*
X016408Y036172D01*
X016408Y036249D02*
X015565Y036249D01*
X015565Y036326D02*
X016408Y036326D01*
X016408Y036404D02*
X015565Y036404D01*
X015565Y036481D02*
X016408Y036481D01*
X016408Y036558D02*
X015565Y036558D01*
X015565Y036635D02*
X016408Y036635D01*
X016252Y032385D02*
X015993Y032385D01*
X016111Y032308D02*
X016385Y032308D01*
X016408Y032230D02*
X016184Y032230D01*
X015060Y032385D02*
X014951Y032385D01*
X014743Y031535D02*
X014734Y031535D01*
X014734Y031457D02*
X014820Y031457D01*
X014897Y031380D02*
X014734Y031380D01*
X014734Y031303D02*
X014937Y031303D01*
X014867Y031226D02*
X014734Y031226D01*
X014734Y031148D02*
X014835Y031148D01*
X014808Y031071D02*
X014734Y031071D01*
X014734Y030994D02*
X014808Y030994D01*
X014809Y030916D02*
X014734Y030916D01*
X014734Y030839D02*
X014841Y030839D01*
X014875Y030762D02*
X014734Y030762D01*
X014734Y030685D02*
X014952Y030685D01*
X015085Y030607D02*
X014734Y030607D01*
X014762Y030376D02*
X015037Y030376D01*
X014932Y030298D02*
X014839Y030298D01*
X022443Y030298D02*
X022946Y030298D01*
X022882Y030221D02*
X022520Y030221D01*
X022597Y030144D02*
X022853Y030144D01*
X022853Y030066D02*
X022674Y030066D01*
X022752Y029989D02*
X022878Y029989D01*
X022829Y029912D02*
X022935Y029912D01*
D22*
X005620Y007259D03*
X008534Y009725D03*
X008809Y006944D03*
X009439Y006944D03*
X011742Y009660D03*
X012982Y009660D03*
X016132Y008597D03*
X016526Y008243D03*
X018494Y010251D03*
X020305Y012220D03*
X021393Y012688D03*
X021393Y011688D03*
X021393Y010688D03*
X021014Y008597D03*
X020443Y008243D03*
X020266Y007731D03*
X021196Y006867D03*
X021604Y007338D03*
X021211Y006235D03*
X021196Y005725D03*
X021200Y005134D03*
X022872Y006629D03*
X025266Y007416D03*
X027352Y007220D03*
X028258Y007653D03*
X028691Y007259D03*
X030305Y006865D03*
X031171Y007653D03*
X033494Y005094D03*
X031250Y004660D03*
X029715Y003873D03*
X028179Y004700D03*
X027392Y003873D03*
X028258Y002534D03*
X031171Y002574D03*
X035974Y006865D03*
X036014Y008007D03*
X036880Y008046D03*
X038022Y007180D03*
X040502Y007101D03*
X035541Y009975D03*
X035502Y010566D03*
X039045Y014995D03*
X039770Y015401D03*
X040439Y015755D03*
X040498Y016129D03*
X041030Y016444D03*
X041951Y017660D03*
X041250Y018834D03*
X041266Y020440D03*
X041305Y020775D03*
X041368Y022042D03*
X042132Y022515D03*
X042565Y022783D03*
X042270Y023223D03*
X041742Y023775D03*
X041024Y023361D03*
X040581Y022660D03*
X039754Y022298D03*
X039478Y023479D03*
X039478Y024188D03*
X038628Y024357D03*
X037805Y023767D03*
X037805Y023511D03*
X037805Y023255D03*
X037805Y022999D03*
X037786Y022101D03*
X036467Y021806D03*
X035896Y022456D03*
X036683Y020920D03*
X036644Y020448D03*
X036053Y019818D03*
X035600Y018519D03*
X034400Y018007D03*
X036368Y016550D03*
X037116Y017534D03*
X037549Y017141D03*
X038081Y017928D03*
X038652Y018145D03*
X039498Y018558D03*
X038612Y020534D03*
X040935Y024385D03*
X040187Y025771D03*
X040246Y026235D03*
X039971Y026491D03*
X040715Y026346D03*
X039872Y027653D03*
X038313Y027842D03*
X037549Y028369D03*
X037703Y029338D03*
X038140Y029031D03*
X038589Y029259D03*
X038825Y029613D03*
X039258Y029534D03*
X039518Y029779D03*
X039163Y029936D03*
X039085Y030290D03*
X038809Y030527D03*
X038648Y031267D03*
X039041Y031306D03*
X039439Y031897D03*
X039041Y032192D03*
X038667Y032192D03*
X039534Y032546D03*
X040203Y032861D03*
X038667Y033235D03*
X037703Y033235D03*
X037683Y032094D03*
X037392Y031432D03*
X037683Y030952D03*
X037526Y030716D03*
X037329Y030499D03*
X037408Y029810D03*
X036955Y029318D03*
X036683Y029708D03*
X035675Y030164D03*
X036463Y031995D03*
X035951Y032487D03*
X036600Y033373D03*
X036880Y034038D03*
X039715Y030763D03*
X039888Y029534D03*
X040699Y029531D03*
X041191Y029542D03*
X042486Y026031D03*
X042506Y025401D03*
X043022Y023723D03*
X037250Y025401D03*
X037250Y025696D03*
X036526Y025881D03*
X036506Y026668D03*
X033337Y030527D03*
X029747Y026942D03*
X029432Y026549D03*
X030298Y026076D03*
X031007Y025997D03*
X029747Y025053D03*
X029373Y024738D03*
X028692Y024797D03*
X029038Y025663D03*
X030298Y024186D03*
X028101Y023517D03*
X027215Y025013D03*
X026845Y024986D03*
X024816Y024895D03*
X024816Y024501D03*
X024816Y024108D03*
X024422Y024108D03*
X024422Y024501D03*
X024028Y024501D03*
X023635Y024501D03*
X023635Y024108D03*
X024028Y024108D03*
X024028Y023714D03*
X023635Y023714D03*
X023241Y023714D03*
X023241Y024108D03*
X023241Y024501D03*
X023241Y024895D03*
X023635Y024895D03*
X024028Y024895D03*
X024028Y025289D03*
X023635Y025289D03*
X023241Y025289D03*
X023026Y025852D03*
X022708Y025623D03*
X021269Y025992D03*
X020950Y026003D03*
X020680Y025586D03*
X020271Y026482D03*
X020542Y026726D03*
X021176Y026714D03*
X021526Y027444D03*
X022077Y027405D03*
X021967Y028433D03*
X020550Y029240D03*
X020314Y028885D03*
X019605Y028787D03*
X019015Y028492D03*
X019015Y028177D03*
X018719Y027842D03*
X017916Y028005D03*
X017572Y027385D03*
X018084Y026933D03*
X017670Y026322D03*
X018211Y026066D03*
X018143Y025289D03*
X017552Y025299D03*
X016725Y025338D03*
X016843Y026007D03*
X017089Y026627D03*
X016568Y027464D03*
X017168Y028242D03*
X017011Y028753D03*
X016656Y029383D03*
X015908Y029029D03*
X015347Y028803D03*
X014521Y028724D03*
X013694Y029039D03*
X013182Y029747D03*
X012552Y029452D03*
X012926Y028645D03*
X012296Y028547D03*
X012749Y027681D03*
X013458Y027661D03*
X013576Y028291D03*
X014284Y027740D03*
X014717Y026952D03*
X015072Y026401D03*
X015899Y026716D03*
X016017Y025771D03*
X015269Y025377D03*
X014422Y026007D03*
X014186Y025338D03*
X013261Y025318D03*
X012808Y025692D03*
X012276Y025929D03*
X012234Y025330D03*
X012648Y026531D03*
X013261Y026913D03*
X014028Y026834D03*
X013477Y026125D03*
X012237Y027149D03*
X010859Y027385D03*
X010485Y027621D03*
X010032Y027385D03*
X010485Y026913D03*
X010859Y026559D03*
X010859Y025850D03*
X010485Y025653D03*
X010030Y025842D03*
X010030Y025231D03*
X010856Y025231D03*
X010032Y026559D03*
X010032Y028133D03*
X010446Y028448D03*
X010839Y028133D03*
X010761Y028842D03*
X010780Y029511D03*
X010406Y029787D03*
X010030Y029464D03*
X010030Y028794D03*
X010111Y030614D03*
X010150Y031440D03*
X010030Y031865D03*
X009793Y032534D03*
X009400Y033011D03*
X009203Y033471D03*
X010057Y033405D03*
X010662Y032779D03*
X010780Y031578D03*
X010702Y030594D03*
X012513Y030673D03*
X012473Y031559D03*
X012434Y032346D03*
X012276Y033055D03*
X012276Y033842D03*
X011607Y033999D03*
X011115Y034334D03*
X011160Y034842D03*
X011770Y034802D03*
X012352Y034712D03*
X012710Y035535D03*
X012355Y036165D03*
X011711Y035617D03*
X011014Y035735D03*
X010505Y035338D03*
X010328Y034807D03*
X009703Y034971D03*
X009284Y034905D03*
X008742Y034960D03*
X008380Y034853D03*
X008793Y035538D03*
X009006Y035960D03*
X009073Y036432D03*
X008506Y036432D03*
X008510Y035960D03*
X008223Y035668D03*
X007770Y035763D03*
X007547Y035970D03*
X008018Y036157D03*
X007703Y036471D03*
X007152Y036353D03*
X006950Y036563D03*
X005384Y036550D03*
X005057Y036168D03*
X005226Y035684D03*
X005620Y035448D03*
X006093Y034897D03*
X005636Y034696D03*
X005045Y034708D03*
X004927Y035196D03*
X004506Y035011D03*
X004624Y034208D03*
X004545Y033511D03*
X004585Y032747D03*
X004703Y031971D03*
X005467Y031893D03*
X005754Y032668D03*
X005309Y033460D03*
X005730Y034038D03*
X006108Y033511D03*
X006675Y032763D03*
X006486Y031865D03*
X007313Y031865D03*
X007620Y032641D03*
X007982Y033479D03*
X008612Y033479D03*
X008691Y032574D03*
X009124Y031865D03*
X008219Y031865D03*
X007321Y033590D03*
X006880Y033952D03*
X006683Y034385D03*
X004573Y035775D03*
X004478Y036550D03*
X009478Y035471D03*
X010041Y035893D03*
X009757Y036440D03*
X010584Y036440D03*
X011568Y036362D03*
X013261Y036440D03*
X014127Y036125D03*
X014993Y036362D03*
X015820Y036165D03*
X015820Y035220D03*
X014993Y035338D03*
X014127Y035181D03*
X013891Y034354D03*
X013064Y034629D03*
X013497Y035456D03*
X013103Y033566D03*
X013221Y032621D03*
X013339Y031637D03*
X013930Y031086D03*
X013615Y030614D03*
X013812Y030102D03*
X014166Y032149D03*
X014127Y033291D03*
X014954Y033881D03*
X015820Y034472D03*
X015899Y032700D03*
X016526Y031511D03*
X016656Y030683D03*
X017365Y030289D03*
X017562Y029462D03*
X018310Y029462D03*
X018782Y030289D03*
X018192Y030643D03*
X018455Y031314D03*
X019321Y031275D03*
X019570Y030525D03*
X020160Y030289D03*
X020633Y029659D03*
X019845Y029462D03*
X019137Y029383D03*
X018271Y028675D03*
X018900Y026903D03*
X019688Y026470D03*
X019755Y026072D03*
X019304Y025887D03*
X018979Y026116D03*
X018812Y025279D03*
X019461Y025336D03*
X019658Y023665D03*
X019717Y023261D03*
X019609Y022828D03*
X019097Y022700D03*
X018930Y023025D03*
X018507Y022769D03*
X018664Y022100D03*
X018822Y021312D03*
X019452Y020761D03*
X019097Y020289D03*
X017956Y020131D03*
X017877Y019462D03*
X016932Y019934D03*
X017011Y020801D03*
X017119Y021559D03*
X017828Y021834D03*
X017956Y020840D03*
X016686Y022543D03*
X016213Y021873D03*
X015347Y021598D03*
X015269Y022346D03*
X015820Y023055D03*
X016410Y023645D03*
X017589Y023755D03*
X017943Y023519D03*
X018376Y023519D03*
X018730Y023755D03*
X017601Y022897D03*
X015741Y020889D03*
X015869Y020249D03*
X014954Y020023D03*
X014402Y020771D03*
X013851Y021480D03*
X013497Y020889D03*
X013044Y021519D03*
X013418Y022503D03*
X013044Y023212D03*
X013221Y023684D03*
X013930Y023527D03*
X014481Y022976D03*
X015111Y023645D03*
X014284Y022031D03*
X012336Y023350D03*
X012257Y023744D03*
X010938Y023507D03*
X010623Y023507D03*
X010328Y023507D03*
X010032Y023507D03*
X010387Y021559D03*
X011489Y020102D03*
X011253Y019354D03*
X011765Y018684D03*
X011765Y017858D03*
X012513Y018055D03*
X013143Y018527D03*
X013339Y017818D03*
X013379Y016755D03*
X012434Y017031D03*
X012434Y016204D03*
X011725Y016244D03*
X011332Y015535D03*
X011647Y014590D03*
X011174Y013803D03*
X010269Y013763D03*
X010190Y014511D03*
X010150Y015653D03*
X010111Y016952D03*
X010150Y017936D03*
X010820Y018291D03*
X010111Y018803D03*
X010190Y019787D03*
X012395Y019354D03*
X013773Y019472D03*
X011292Y017070D03*
X012591Y015220D03*
X013339Y015574D03*
X013654Y014747D03*
X014196Y014482D03*
X014048Y013566D03*
X013202Y013891D03*
X012355Y013527D03*
X014087Y015771D03*
X015150Y016007D03*
X015977Y015417D03*
X015308Y014905D03*
X015032Y013645D03*
X018074Y017021D03*
X019243Y017474D03*
X019412Y018084D03*
X020267Y017789D03*
X020908Y017651D03*
X021617Y017848D03*
X021420Y017060D03*
X020523Y016942D03*
X020278Y018793D03*
X020306Y019403D03*
X021152Y019088D03*
X021656Y018596D03*
X022247Y017730D03*
X022609Y019265D03*
X022089Y020186D03*
X022129Y020540D03*
X022444Y020919D03*
X022820Y021356D03*
X023200Y020978D03*
X022629Y021899D03*
X022845Y022194D03*
X022062Y021637D03*
X021684Y021657D03*
X021801Y021312D03*
X021507Y021982D03*
X021784Y022214D03*
X021617Y022557D03*
X021320Y022328D03*
X021113Y021667D03*
X020822Y021293D03*
X020523Y021824D03*
X020523Y022139D03*
X020475Y022612D03*
X020834Y023066D03*
X021168Y023068D03*
X020532Y023470D03*
X020187Y023637D03*
X020003Y022179D03*
X019806Y021391D03*
X021125Y020604D03*
X021519Y020604D03*
X023066Y023135D03*
X022696Y023419D03*
X023534Y023163D03*
X024422Y023714D03*
X024816Y023714D03*
X024422Y024895D03*
X024422Y025289D03*
X024816Y025289D03*
X024243Y027690D03*
X024243Y028104D03*
X023109Y030100D03*
X023475Y030997D03*
X021971Y032060D03*
X020948Y032060D03*
X020817Y033834D03*
X020384Y034267D03*
X021408Y034897D03*
X021841Y035094D03*
X021329Y035487D03*
X022825Y035527D03*
X023100Y035251D03*
X022943Y036078D03*
X023691Y035527D03*
X024085Y035527D03*
X024518Y035527D03*
X024951Y035448D03*
X024951Y035999D03*
X025541Y035330D03*
X025879Y036240D03*
X024242Y037672D03*
X023809Y037534D03*
X023061Y037377D03*
X024085Y036078D03*
X019715Y037613D03*
X018927Y038834D03*
X017471Y031314D03*
X015948Y028242D03*
X015229Y027464D03*
X017001Y018606D03*
X016607Y017582D03*
X020374Y013833D03*
X021393Y013688D03*
X025326Y019679D03*
X025641Y020368D03*
X027037Y011157D03*
X028258Y010290D03*
X025266Y004700D03*
X041998Y015094D03*
X043136Y015086D03*
X042998Y016483D03*
X031900Y037751D03*
X028888Y037968D03*
X029557Y046157D03*
X032953Y047221D03*
X033453Y046721D03*
X033845Y046221D03*
X036014Y044109D03*
X037392Y044109D03*
X036723Y046905D03*
X037859Y047106D03*
X042786Y040597D03*
X043297Y040007D03*
X006447Y012220D03*
D23*
X031171Y007653D02*
X031171Y007613D01*
D24*
X037703Y008971D03*
X037703Y009971D03*
X038703Y009971D03*
X038703Y008971D03*
X039703Y008971D03*
X039703Y009971D03*
X040703Y009971D03*
X040703Y008971D03*
X041703Y008971D03*
X041703Y009971D03*
X042703Y009971D03*
X042703Y008971D03*
X042703Y010971D03*
X041703Y010971D03*
X040703Y010971D03*
X039703Y010971D03*
X038703Y010971D03*
X037703Y010971D03*
X037703Y011971D03*
X038703Y011971D03*
X039703Y011971D03*
X040703Y011971D03*
X041703Y011971D03*
X042703Y011971D03*
X042703Y012971D03*
X041703Y012971D03*
X040703Y012971D03*
X039703Y012971D03*
X038703Y012971D03*
X037703Y012971D03*
X037703Y013971D03*
X038703Y013971D03*
X039703Y013971D03*
X040703Y013971D03*
X041703Y013971D03*
X042703Y013971D03*
D25*
X039045Y014995D02*
X038996Y015044D01*
X038996Y019257D01*
X036368Y016550D02*
X036368Y010330D01*
X036801Y009897D01*
X036801Y008361D01*
X036801Y008125D01*
X036880Y008046D01*
X036802Y008361D02*
X036803Y008371D01*
X036807Y008380D01*
X036813Y008389D01*
X036822Y008395D01*
X036831Y008399D01*
X036841Y008400D01*
X036841Y008401D02*
X042037Y008401D01*
X042884Y007554D01*
X042884Y005881D01*
X041585Y005881D02*
X041585Y007436D01*
X040856Y008164D01*
X039793Y008164D01*
X039124Y007495D01*
X036762Y007495D01*
X036526Y007731D01*
X036526Y008164D01*
X036211Y008479D01*
X036211Y009857D01*
X035502Y010566D01*
X036014Y008007D02*
X036014Y007397D01*
X037530Y005881D01*
X038022Y007180D02*
X038927Y006275D01*
X038927Y005369D01*
X037943Y004385D01*
X030699Y004385D01*
X029282Y005802D01*
X029282Y006668D01*
X028691Y007259D01*
X029715Y007456D02*
X029715Y012849D01*
X031526Y014660D01*
X031526Y016001D01*
X031526Y016001D01*
X030526Y016001D02*
X030526Y014291D01*
X028258Y012023D01*
X028258Y010290D01*
X027037Y011157D02*
X027037Y015512D01*
X027526Y016001D01*
X028526Y016001D02*
X028526Y015244D01*
X027352Y014070D01*
X027352Y007220D01*
X027904Y006471D02*
X029715Y004660D01*
X029715Y003873D01*
X027392Y003873D02*
X026723Y004542D01*
X026723Y014805D01*
X025526Y016001D01*
X025108Y015420D02*
X025108Y007574D01*
X025266Y007416D01*
X024124Y009424D02*
X024124Y005094D01*
X025935Y003283D01*
X040955Y003283D01*
X041585Y003912D01*
X042018Y003046D02*
X022864Y003046D01*
X020856Y005054D01*
X020856Y007692D01*
X021289Y008125D01*
X021289Y008912D01*
X020541Y009660D01*
X012982Y009660D01*
X012077Y010251D02*
X012077Y006590D01*
X010585Y005097D01*
X010585Y002625D01*
X010089Y002625D02*
X010089Y005389D01*
X011742Y007042D01*
X011742Y009660D01*
X012077Y010251D02*
X018494Y010251D01*
X019242Y010999D01*
X022549Y010999D01*
X024124Y009424D01*
X022872Y007645D02*
X022872Y006629D01*
X022872Y007645D02*
X021761Y008755D01*
X021761Y009589D01*
X021014Y008597D02*
X016132Y008597D01*
X013415Y008597D01*
X012352Y007534D01*
X012352Y003794D01*
X011585Y003027D01*
X011585Y002625D01*
X016526Y008243D02*
X020443Y008243D01*
X020374Y013833D02*
X018526Y015681D01*
X018526Y016001D01*
X024526Y016001D02*
X025108Y015420D01*
X027904Y013952D02*
X028730Y014779D01*
X029163Y014779D01*
X029526Y015142D01*
X029526Y016001D01*
X027904Y013952D02*
X027904Y006471D01*
X029715Y007456D02*
X030305Y006865D01*
X035423Y006314D02*
X035423Y005645D01*
X036171Y004897D01*
X036230Y004897D01*
X035423Y006314D02*
X035974Y006865D01*
X040502Y007101D02*
X040502Y005979D01*
X041585Y004897D01*
X042884Y003912D02*
X042018Y003046D01*
X033166Y025001D02*
X032526Y025001D01*
X033166Y025001D02*
X034085Y025920D01*
X034085Y038519D01*
X033494Y039109D01*
X021408Y039109D01*
X020896Y038597D01*
X020896Y036235D01*
X020148Y037495D02*
X020148Y034503D01*
X020384Y034267D01*
X019006Y033481D02*
X018966Y033441D01*
X018526Y033001D01*
X021526Y033001D02*
X022388Y033863D01*
X022388Y038200D01*
X023388Y038200D02*
X023388Y033863D01*
X022526Y033001D01*
X026526Y033001D02*
X026526Y038061D01*
X026388Y038200D01*
X027388Y038200D02*
X027392Y038196D01*
X027392Y038204D01*
X027526Y038069D01*
X027526Y033001D01*
X029518Y033010D02*
X030935Y034427D01*
X030935Y037023D01*
X030463Y037495D01*
X029360Y037495D01*
X028888Y037968D01*
X029388Y038200D02*
X028911Y038676D01*
X024163Y038676D01*
X023888Y038401D01*
X023888Y037613D01*
X023809Y037534D01*
X021388Y041294D02*
X021388Y048200D01*
X020388Y048200D02*
X020388Y041357D01*
X017864Y038834D01*
X017864Y037259D01*
X016880Y036393D02*
X016880Y038637D01*
X019388Y041145D01*
X019388Y048200D01*
X021388Y041294D02*
X018927Y038834D01*
X019715Y037613D02*
X020030Y037613D01*
X020148Y037495D01*
X015388Y038200D02*
X015388Y033090D01*
X014774Y032475D01*
X014774Y031754D01*
X015530Y030997D01*
X015526Y030001D02*
X014886Y030001D01*
X014557Y030330D01*
X014557Y038031D01*
X014388Y038200D01*
X015388Y038200D02*
X015388Y038208D01*
X031388Y038200D02*
X031526Y038061D01*
X031526Y033001D01*
X032330Y032198D02*
X032526Y032001D01*
X032330Y032198D02*
X032330Y037321D01*
X031900Y037751D01*
X037392Y031432D02*
X037904Y031432D01*
X038140Y031196D01*
X038140Y029031D01*
X012077Y010251D02*
X010620Y010251D01*
X008652Y012220D01*
X006447Y012220D01*
D26*
X015526Y017001D02*
X017353Y017001D01*
X020050Y019698D01*
X021979Y019698D01*
X022444Y020163D01*
X022444Y020919D01*
X022592Y021152D02*
X022708Y021037D01*
X022789Y020955D01*
X022789Y020233D01*
X021960Y019403D01*
X020306Y019403D01*
X021152Y019088D02*
X021940Y019088D01*
X023475Y020623D01*
X023475Y021564D01*
X022845Y022194D01*
X022629Y021899D02*
X022530Y021801D01*
X022530Y021214D01*
X022592Y021152D01*
X021801Y021312D02*
X021801Y019993D01*
X021704Y019895D01*
X019578Y019895D01*
X017684Y018001D01*
X015526Y018001D01*
X015538Y018990D02*
X015526Y019001D01*
X015538Y018990D02*
X018239Y018990D01*
X020542Y021293D01*
X020822Y021293D01*
X021113Y021667D02*
X021034Y021746D01*
X021034Y022533D01*
X021920Y023419D01*
X022696Y023419D01*
X023066Y023135D02*
X023066Y022933D01*
X022077Y021944D01*
X021971Y021944D01*
X021684Y021657D01*
X022708Y025623D02*
X022708Y028635D01*
X021349Y029994D01*
X015534Y029994D01*
X015526Y030001D01*
X015530Y030997D02*
X021507Y030997D01*
X023026Y029478D01*
X023026Y025852D01*
X029038Y025663D02*
X030672Y025663D01*
X031007Y025997D01*
X039085Y030290D02*
X039557Y030763D01*
X039715Y030763D01*
X021841Y035566D02*
X021408Y035133D01*
X021408Y034897D01*
X021841Y035566D02*
X021841Y035842D01*
X021565Y036117D01*
X021014Y036117D01*
X020896Y036235D01*
X015526Y031001D02*
X015530Y030997D01*
D27*
X034695Y029562D02*
X034695Y043223D01*
X037037Y040566D02*
X037786Y041314D01*
X038730Y041314D01*
X039242Y041826D01*
X039242Y044267D01*
X039754Y044779D01*
X040167Y044779D01*
X041467Y044779D01*
X041467Y043991D02*
X040167Y043991D01*
X040167Y042416D02*
X041467Y042416D01*
X041467Y041629D02*
X040167Y041629D01*
X037037Y040566D02*
X037037Y036019D01*
X036467Y035448D01*
X035719Y035448D01*
X035266Y034995D01*
X035266Y030023D01*
X035581Y029708D01*
X036683Y029708D01*
X034990Y029267D02*
X034990Y009542D01*
X035541Y008991D01*
X035541Y008164D01*
X034695Y007318D01*
X034695Y005802D01*
X034990Y029267D02*
X034695Y029562D01*
X036184Y037641D02*
X036184Y038641D01*
X011203Y008971D02*
X010203Y008971D01*
D28*
X010203Y008971D03*
X011203Y008971D03*
D29*
X035600Y018519D02*
X036309Y019227D01*
X038967Y019227D01*
X038996Y019257D01*
X041368Y021629D01*
X041368Y022042D01*
X041368Y023952D01*
X040935Y024385D01*
X039400Y025920D01*
X039400Y027180D01*
X039872Y027653D01*
X039577Y027653D01*
X039577Y029720D01*
X039518Y029779D01*
X039577Y029838D01*
X040896Y029838D01*
X041191Y029542D01*
X039577Y027653D02*
X038927Y027653D01*
X037943Y026668D01*
X036506Y026668D01*
X036526Y025881D02*
X036171Y025527D01*
X036171Y021432D01*
X036683Y020920D01*
X036644Y020448D02*
X035896Y021196D01*
X035896Y022456D01*
X037786Y022101D02*
X038888Y022101D01*
X039478Y022692D01*
X039478Y023479D01*
X039754Y023912D02*
X039478Y024188D01*
X039754Y023912D02*
X039754Y022298D01*
X038927Y027653D02*
X038061Y028519D01*
X037982Y028519D01*
X037333Y029168D01*
X037333Y029385D01*
X037010Y029708D01*
X036683Y029708D01*
D30*
X031178Y033653D02*
X030526Y033001D01*
X031178Y033653D02*
X031178Y037409D01*
X030388Y038200D01*
X028388Y038200D02*
X028153Y037965D01*
X028153Y033375D01*
X028526Y033001D01*
X029518Y033010D02*
X029526Y033001D01*
X020699Y034174D02*
X020699Y034660D01*
X020388Y034971D01*
X020388Y038200D01*
X019388Y038200D02*
X019163Y037975D01*
X019163Y033638D01*
X018966Y033441D01*
X019526Y033001D02*
X020699Y034174D01*
X018179Y033654D02*
X017526Y033001D01*
X018179Y033654D02*
X018179Y037991D01*
X018388Y038200D01*
X017864Y037259D02*
X017864Y036999D01*
X017691Y036826D01*
X016880Y036393D02*
X017471Y035802D01*
X017691Y035802D01*
M02*
