G75*
G70*
%OFA0B0*%
%FSLAX24Y24*%
%IPPOS*%
%LPD*%
%AMOC8*
5,1,8,0,0,1.08239X$1,22.5*
%
%ADD10R,0.0197X0.0197*%
%ADD11R,0.0630X0.0492*%
%ADD12C,0.0118*%
%ADD13R,0.0669X0.0669*%
%ADD14R,0.0276X0.0315*%
%ADD15R,0.0315X0.0276*%
%ADD16R,0.0630X0.0551*%
%ADD17R,0.0591X0.0512*%
%ADD18R,0.0236X0.0276*%
%ADD19R,0.0787X0.0315*%
%ADD20R,0.0551X0.0118*%
%ADD21R,0.0118X0.0551*%
%ADD22R,0.0709X0.0472*%
%ADD23R,0.0197X0.0394*%
%ADD24R,0.0394X0.0197*%
%ADD25R,0.0354X0.0157*%
%ADD26R,0.0157X0.0394*%
%ADD27R,0.0217X0.0118*%
%ADD28R,0.0886X0.0197*%
%ADD29R,0.0984X0.0787*%
%ADD30R,0.0551X0.0394*%
%ADD31R,0.0394X0.0551*%
%ADD32R,0.0197X0.0069*%
%ADD33R,0.0020X0.0207*%
%ADD34R,0.1150X0.0291*%
%ADD35R,0.0069X0.0197*%
%ADD36R,0.0207X0.0020*%
%ADD37R,0.2165X0.0984*%
%ADD38R,0.0197X0.0197*%
%ADD39R,0.0118X0.0689*%
%ADD40R,0.0315X0.0315*%
%ADD41R,0.0945X0.0709*%
%ADD42R,0.0394X0.0709*%
D10*
X018526Y016942D03*
X018920Y016942D03*
X018920Y017486D03*
X018526Y017486D03*
X021125Y020927D03*
X021125Y021320D03*
X021523Y021320D03*
X021523Y020927D03*
X022129Y020881D03*
X022129Y021275D03*
X022082Y021980D03*
X022082Y022373D03*
X021711Y022873D03*
X021711Y023267D03*
X021215Y023370D03*
X020873Y023371D03*
X020873Y023765D03*
X021215Y023763D03*
X021171Y024306D03*
X020817Y024306D03*
X020541Y024306D03*
X020226Y024306D03*
X019833Y024306D03*
X019518Y024503D03*
X019833Y024700D03*
X020226Y024700D03*
X020541Y024700D03*
X020817Y024700D03*
X021171Y024700D03*
X021565Y024700D03*
X021565Y024306D03*
X021351Y025261D03*
X021024Y025261D03*
X021024Y025655D03*
X021351Y025655D03*
X021150Y026415D03*
X020757Y026415D03*
X020174Y025249D03*
X019780Y025249D03*
X020541Y025094D03*
X020541Y023912D03*
X020824Y022604D03*
X021217Y022604D03*
X021174Y021982D03*
X020780Y021982D03*
X023274Y021864D03*
X023274Y021470D03*
X023613Y019934D03*
X023613Y019541D03*
X024597Y019541D03*
X024597Y019934D03*
X025326Y019974D03*
X025326Y020368D03*
X028013Y024767D03*
X028406Y024767D03*
X027038Y025289D03*
X026645Y025289D03*
X023914Y027535D03*
X023914Y027929D03*
X020995Y028891D03*
X020601Y028891D03*
X019046Y027848D03*
X019046Y027454D03*
X019124Y024503D03*
X018770Y024503D03*
X018376Y024503D03*
X018376Y024247D03*
X018376Y023853D03*
X017943Y023853D03*
X017943Y024247D03*
X017943Y024503D03*
X017549Y024503D03*
X017195Y024503D03*
X016801Y024503D03*
X011604Y024503D03*
X011604Y024503D03*
X011604Y024503D03*
X011211Y024503D03*
X010896Y024247D03*
X010709Y024503D03*
X010315Y024503D03*
X010128Y024247D03*
X010128Y023853D03*
X010896Y023853D03*
X011604Y024109D03*
X011604Y024897D03*
X021604Y036353D03*
X021604Y036747D03*
X030310Y025671D03*
X030310Y025277D03*
X035951Y030164D03*
X036345Y030164D03*
X037978Y030912D03*
X037978Y031267D03*
X037978Y031582D03*
X037978Y031897D03*
X037978Y032212D03*
X037978Y032566D03*
X037703Y032566D03*
X037703Y032960D03*
X037270Y033393D03*
X037270Y033708D03*
X036876Y033708D03*
X036876Y033393D03*
X038372Y032566D03*
X038667Y032566D03*
X038667Y032960D03*
X038372Y032212D03*
X038372Y031897D03*
X038372Y031582D03*
X038372Y031267D03*
X038372Y030912D03*
X038943Y029259D03*
X039258Y029259D03*
X039573Y029259D03*
X039888Y029259D03*
X039888Y028865D03*
X039573Y028865D03*
X039258Y028865D03*
X038943Y028865D03*
X037211Y027290D03*
X036817Y027290D03*
X036817Y026660D03*
X037211Y026660D03*
X037085Y028377D03*
X036691Y028377D03*
X040715Y028865D03*
X041030Y028865D03*
X041345Y028865D03*
X041345Y029259D03*
X041030Y029259D03*
X040715Y029259D03*
X041817Y026031D03*
X041817Y025716D03*
X041817Y025401D03*
X042211Y025401D03*
X042211Y025716D03*
X042211Y026031D03*
X041467Y023775D03*
X041073Y023775D03*
X041738Y022212D03*
X042132Y022212D03*
X042841Y022723D03*
X042841Y023066D03*
X043234Y023066D03*
X043234Y022723D03*
X042723Y016483D03*
X042329Y016483D03*
X040439Y015479D03*
X040439Y015086D03*
X039770Y015676D03*
X039455Y015676D03*
X039455Y016070D03*
X039770Y016070D03*
X039045Y015684D03*
X038730Y015684D03*
X038730Y015290D03*
X039045Y015290D03*
X038258Y015290D03*
X038258Y015684D03*
X037825Y015684D03*
X037825Y015290D03*
X035990Y018157D03*
X035597Y018157D03*
X035597Y018944D03*
X035990Y018944D03*
X023689Y013688D03*
X023296Y013688D03*
X023296Y012688D03*
X023689Y012688D03*
X023689Y011688D03*
X023296Y011688D03*
X023296Y010688D03*
X023689Y010688D03*
X022458Y007309D03*
X022065Y007309D03*
X022065Y006867D03*
X022458Y006867D03*
D11*
X020995Y027454D03*
X020995Y028320D03*
X019617Y028320D03*
X019617Y027454D03*
D12*
X022158Y025978D02*
X022394Y025978D01*
X022394Y025781D02*
X022158Y025781D01*
X022158Y025584D02*
X022394Y025584D01*
X022394Y025387D02*
X022158Y025387D01*
X022158Y025190D02*
X022394Y025190D01*
X022394Y024994D02*
X022158Y024994D01*
X022158Y024797D02*
X022394Y024797D01*
X022394Y024600D02*
X022158Y024600D01*
X022158Y024403D02*
X022394Y024403D01*
X022394Y024206D02*
X022158Y024206D01*
X022158Y024009D02*
X022394Y024009D01*
X022394Y023812D02*
X022158Y023812D01*
X022158Y023616D02*
X022394Y023616D01*
X022394Y023419D02*
X022158Y023419D01*
X022158Y023222D02*
X022394Y023222D01*
X022394Y023025D02*
X022158Y023025D01*
X022552Y022867D02*
X022552Y022631D01*
X022749Y022631D02*
X022749Y022867D01*
X022946Y022867D02*
X022946Y022631D01*
X023143Y022631D02*
X023143Y022867D01*
X023339Y022867D02*
X023339Y022631D01*
X023536Y022631D02*
X023536Y022867D01*
X023733Y022867D02*
X023733Y022631D01*
X023930Y022631D02*
X023930Y022867D01*
X024127Y022867D02*
X024127Y022631D01*
X024324Y022631D02*
X024324Y022867D01*
X024521Y022867D02*
X024521Y022631D01*
X024717Y022631D02*
X024717Y022867D01*
X024914Y022867D02*
X024914Y022631D01*
X025111Y022631D02*
X025111Y022867D01*
X025308Y022867D02*
X025308Y022631D01*
X025505Y022667D02*
X025505Y022903D01*
X025662Y023025D02*
X025898Y023025D01*
X025898Y023222D02*
X025662Y023222D01*
X025662Y023419D02*
X025898Y023419D01*
X025898Y023616D02*
X025662Y023616D01*
X025662Y023812D02*
X025898Y023812D01*
X025898Y024009D02*
X025662Y024009D01*
X025662Y024206D02*
X025898Y024206D01*
X025898Y024403D02*
X025662Y024403D01*
X025662Y024600D02*
X025898Y024600D01*
X025898Y024797D02*
X025662Y024797D01*
X025662Y024994D02*
X025898Y024994D01*
X025898Y025190D02*
X025662Y025190D01*
X025662Y025387D02*
X025898Y025387D01*
X025898Y025584D02*
X025662Y025584D01*
X025662Y025781D02*
X025898Y025781D01*
X025898Y025978D02*
X025662Y025978D01*
X025505Y026135D02*
X025505Y026371D01*
X025308Y026371D02*
X025308Y026135D01*
X025111Y026135D02*
X025111Y026371D01*
X024914Y026371D02*
X024914Y026135D01*
X024717Y026135D02*
X024717Y026371D01*
X024521Y026371D02*
X024521Y026135D01*
X024324Y026135D02*
X024324Y026371D01*
X024127Y026371D02*
X024127Y026135D01*
X023930Y026135D02*
X023930Y026371D01*
X023733Y026371D02*
X023733Y026135D01*
X023536Y026135D02*
X023536Y026371D01*
X023339Y026371D02*
X023339Y026135D01*
X023143Y026135D02*
X023143Y026371D01*
X022946Y026371D02*
X022946Y026135D01*
X022749Y026135D02*
X022749Y026371D01*
X022552Y026371D02*
X022552Y026135D01*
D13*
X023379Y025151D03*
X023379Y023852D03*
X024678Y023852D03*
X024678Y025151D03*
D14*
X027239Y023519D03*
X027790Y023519D03*
X029747Y024698D03*
X030298Y024698D03*
X030298Y026549D03*
X029747Y026549D03*
X036856Y030164D03*
X037408Y030164D03*
X041660Y022869D03*
X042211Y022869D03*
X022356Y013688D03*
X021805Y013688D03*
X021805Y012688D03*
X022356Y012688D03*
X022356Y011688D03*
X021805Y011688D03*
X021805Y010688D03*
X022356Y010688D03*
X022537Y005134D03*
X021986Y005134D03*
D15*
X022156Y018597D03*
X022156Y019149D03*
X023109Y030438D03*
X023109Y030990D03*
X037329Y029338D03*
X037329Y028786D03*
D16*
X009223Y024503D03*
X004892Y024503D03*
D17*
X004892Y023479D03*
X004892Y025527D03*
X009223Y025527D03*
X009223Y023479D03*
D18*
X007057Y023519D03*
X007057Y025487D03*
D19*
X025262Y006865D03*
X025262Y005094D03*
X028175Y005094D03*
X028262Y003873D03*
X028262Y002101D03*
X031175Y002101D03*
X031175Y003873D03*
X031262Y005094D03*
X031262Y006865D03*
X031175Y008094D03*
X031175Y009865D03*
X028262Y009865D03*
X028262Y008094D03*
X028175Y006865D03*
X034175Y006865D03*
X034175Y005094D03*
X035266Y042346D03*
X035266Y044117D03*
X038179Y044117D03*
X038179Y042346D03*
D20*
X037250Y020912D03*
X037250Y020716D03*
X037250Y020519D03*
X037250Y020322D03*
X037250Y020125D03*
X037250Y019928D03*
X037250Y019731D03*
X037250Y019534D03*
X037250Y019338D03*
X037250Y019141D03*
X037250Y018944D03*
X037250Y018747D03*
X037250Y018550D03*
X037250Y018353D03*
X037250Y018157D03*
X037250Y017960D03*
X041817Y017960D03*
X041817Y018157D03*
X041817Y018353D03*
X041817Y018550D03*
X041817Y018747D03*
X041817Y018944D03*
X041817Y019141D03*
X041817Y019338D03*
X041817Y019534D03*
X041817Y019731D03*
X041817Y019928D03*
X041817Y020125D03*
X041817Y020322D03*
X041817Y020519D03*
X041817Y020716D03*
X041817Y020912D03*
D21*
X041010Y021720D03*
X040813Y021720D03*
X040616Y021720D03*
X040419Y021720D03*
X040223Y021720D03*
X040026Y021720D03*
X039829Y021720D03*
X039632Y021720D03*
X039435Y021720D03*
X039238Y021720D03*
X039041Y021720D03*
X038845Y021720D03*
X038648Y021720D03*
X038451Y021720D03*
X038254Y021720D03*
X038057Y021720D03*
X038057Y017153D03*
X038254Y017153D03*
X038451Y017153D03*
X038648Y017153D03*
X038845Y017153D03*
X039041Y017153D03*
X039238Y017153D03*
X039435Y017153D03*
X039632Y017153D03*
X039829Y017153D03*
X040026Y017153D03*
X040223Y017153D03*
X040419Y017153D03*
X040616Y017153D03*
X040813Y017153D03*
X041010Y017153D03*
D22*
X041030Y016031D03*
X041030Y015086D03*
X042604Y015086D03*
X042604Y016031D03*
D23*
X040518Y024771D03*
X040203Y024771D03*
X039888Y024771D03*
X039573Y024771D03*
X039258Y024771D03*
X038943Y024771D03*
X038628Y024771D03*
X038313Y024771D03*
X038313Y028235D03*
X038628Y028235D03*
X038943Y028235D03*
X039258Y028235D03*
X039573Y028235D03*
X039888Y028235D03*
X040203Y028235D03*
X040518Y028235D03*
D24*
X041148Y027605D03*
X041148Y027290D03*
X041148Y026975D03*
X041148Y026660D03*
X041148Y026346D03*
X041148Y026031D03*
X041148Y025716D03*
X041148Y025401D03*
X037683Y025401D03*
X037683Y025716D03*
X037683Y026031D03*
X037683Y026346D03*
X037683Y026660D03*
X037683Y026975D03*
X037683Y027290D03*
X037683Y027605D03*
D25*
X038254Y023777D03*
X038254Y023521D03*
X038254Y023265D03*
X038254Y023009D03*
X040577Y023009D03*
X040577Y023265D03*
X040577Y023521D03*
X040577Y023777D03*
D26*
X036984Y030686D03*
X036728Y030686D03*
X036473Y030686D03*
X036217Y030686D03*
X036217Y032477D03*
X036473Y032477D03*
X036728Y032477D03*
X036984Y032477D03*
D27*
X037900Y030125D03*
X037900Y029928D03*
X037900Y029731D03*
X038451Y029731D03*
X038451Y030125D03*
D28*
X040203Y031267D03*
X040203Y031582D03*
X040203Y031897D03*
X040203Y032212D03*
X040203Y032527D03*
D29*
X040242Y033649D03*
X042388Y033649D03*
X042368Y030145D03*
X040242Y030145D03*
D30*
X037347Y047110D03*
X037347Y047858D03*
X036481Y047484D03*
D31*
X042049Y040007D03*
X042797Y040007D03*
X042423Y039141D03*
D32*
X040321Y029402D03*
X040321Y028683D03*
D33*
X040410Y028821D03*
X040232Y028821D03*
X040232Y029264D03*
X040410Y029264D03*
D34*
X005635Y007725D03*
X005635Y008225D03*
X005635Y008725D03*
X005635Y009225D03*
X005635Y009725D03*
X005635Y010225D03*
X005635Y010725D03*
X005635Y011225D03*
X005635Y011725D03*
X005635Y012225D03*
X007299Y012225D03*
X007299Y011738D03*
X007299Y011225D03*
X007299Y010725D03*
X007299Y010225D03*
X007299Y009725D03*
X007299Y009225D03*
X007299Y008725D03*
X007299Y008225D03*
X007299Y007725D03*
X017642Y007725D03*
X017642Y008225D03*
X017643Y008725D03*
X017642Y009225D03*
X017643Y009725D03*
X017642Y010225D03*
X017643Y010725D03*
X017642Y011225D03*
X017643Y011725D03*
X017642Y012225D03*
X019307Y012225D03*
X019307Y011738D03*
X019307Y011225D03*
X019307Y010725D03*
X019307Y010225D03*
X019307Y009725D03*
X019307Y009225D03*
X019307Y008725D03*
X019307Y008225D03*
X019306Y007725D03*
D35*
X037796Y030519D03*
X038515Y030519D03*
D36*
X038377Y030607D03*
X038377Y030430D03*
X037934Y030430D03*
X037934Y030607D03*
D37*
X006073Y037594D03*
X006073Y047436D03*
D38*
G36*
X006944Y036223D02*
X006806Y036085D01*
X006668Y036223D01*
X006806Y036361D01*
X006944Y036223D01*
G37*
G36*
X006666Y035944D02*
X006528Y035806D01*
X006390Y035944D01*
X006528Y036082D01*
X006666Y035944D01*
G37*
G36*
X006500Y035720D02*
X006638Y035582D01*
X006500Y035444D01*
X006362Y035582D01*
X006500Y035720D01*
G37*
G36*
X006778Y035442D02*
X006916Y035304D01*
X006778Y035166D01*
X006640Y035304D01*
X006778Y035442D01*
G37*
G36*
X007286Y035324D02*
X007148Y035186D01*
X007010Y035324D01*
X007148Y035462D01*
X007286Y035324D01*
G37*
G36*
X007565Y035602D02*
X007427Y035464D01*
X007289Y035602D01*
X007427Y035740D01*
X007565Y035602D01*
G37*
D39*
X022513Y034700D03*
X022763Y034700D03*
X023013Y034700D03*
X023263Y034700D03*
X023513Y034700D03*
X023763Y034700D03*
X024013Y034700D03*
X024263Y034700D03*
X024513Y034700D03*
X024763Y034700D03*
X025013Y034700D03*
X025263Y034700D03*
X025263Y036747D03*
X025013Y036747D03*
X024763Y036747D03*
X024513Y036747D03*
X024263Y036747D03*
X024013Y036747D03*
X023763Y036747D03*
X023513Y036747D03*
X023263Y036747D03*
X023013Y036747D03*
X022763Y036747D03*
X022513Y036747D03*
D40*
X022872Y006235D03*
X022872Y005723D03*
X021651Y005723D03*
X021651Y006235D03*
D41*
X009117Y007588D03*
X009117Y008966D03*
D42*
X023612Y020576D03*
X024597Y020576D03*
M02*
