G75*
G70*
%OFA0B0*%
%FSLAX24Y24*%
%IPPOS*%
%LPD*%
%AMOC8*
5,1,8,0,0,1.08239X$1,22.5*
%
%ADD10C,0.0600*%
%ADD11C,0.0827*%
%ADD12C,0.0886*%
%ADD13C,0.0531*%
%ADD14C,0.0591*%
%ADD15C,0.0860*%
%ADD16R,0.1660X0.1660*%
%ADD17OC8,0.0600*%
%ADD18OC8,0.0591*%
%ADD19R,0.0396X0.0396*%
D10*
X015226Y017001D02*
X015826Y017001D01*
X016526Y016301D02*
X016526Y015701D01*
X017526Y015701D02*
X017526Y016301D01*
X018526Y016301D02*
X018526Y015701D01*
X019526Y015701D02*
X019526Y016301D01*
X020526Y016301D02*
X020526Y015701D01*
X021526Y015701D02*
X021526Y016301D01*
X022526Y016301D02*
X022526Y015701D01*
X023526Y015701D02*
X023526Y016301D01*
X024526Y016301D02*
X024526Y015701D01*
X025526Y015701D02*
X025526Y016301D01*
X026526Y016301D02*
X026526Y015701D01*
X027526Y015701D02*
X027526Y016301D01*
X028526Y016301D02*
X028526Y015701D01*
X029526Y015701D02*
X029526Y016301D01*
X030526Y016301D02*
X030526Y015701D01*
X031526Y015701D02*
X031526Y016301D01*
X032226Y017001D02*
X032826Y017001D01*
X032826Y018001D02*
X032226Y018001D01*
X032226Y019001D02*
X032826Y019001D01*
X032826Y020001D02*
X032226Y020001D01*
X032226Y021001D02*
X032826Y021001D01*
X032826Y022001D02*
X032226Y022001D01*
X032226Y023001D02*
X032826Y023001D01*
X032826Y024001D02*
X032226Y024001D01*
X032226Y025001D02*
X032826Y025001D01*
X032826Y026001D02*
X032226Y026001D01*
X032226Y027001D02*
X032826Y027001D01*
X032826Y028001D02*
X032226Y028001D01*
X032226Y029001D02*
X032826Y029001D01*
X032826Y030001D02*
X032226Y030001D01*
X032226Y031001D02*
X032826Y031001D01*
X032826Y032001D02*
X032226Y032001D01*
X031526Y032701D02*
X031526Y033301D01*
X030526Y033301D02*
X030526Y032701D01*
X029526Y032701D02*
X029526Y033301D01*
X028526Y033301D02*
X028526Y032701D01*
X027526Y032701D02*
X027526Y033301D01*
X026526Y033301D02*
X026526Y032701D01*
X025526Y032701D02*
X025526Y033301D01*
X024526Y033301D02*
X024526Y032701D01*
X023526Y032701D02*
X023526Y033301D01*
X022526Y033301D02*
X022526Y032701D01*
X021526Y032701D02*
X021526Y033301D01*
X020526Y033301D02*
X020526Y032701D01*
X019526Y032701D02*
X019526Y033301D01*
X018526Y033301D02*
X018526Y032701D01*
X017526Y032701D02*
X017526Y033301D01*
X016526Y033301D02*
X016526Y032701D01*
X015826Y032001D02*
X015226Y032001D01*
X015226Y031001D02*
X015826Y031001D01*
X015826Y030001D02*
X015226Y030001D01*
X015226Y019001D02*
X015826Y019001D01*
X015826Y018001D02*
X015226Y018001D01*
X021761Y009889D02*
X021761Y009289D01*
X022761Y009289D02*
X022761Y009889D01*
X035884Y036641D02*
X036484Y036641D01*
X036484Y037641D02*
X035884Y037641D01*
X035884Y038641D02*
X036484Y038641D01*
X036484Y039641D02*
X035884Y039641D01*
X039833Y047687D02*
X039833Y048287D01*
X040833Y048287D02*
X040833Y047687D01*
X041833Y047687D02*
X041833Y048287D01*
X042833Y048287D02*
X042833Y047687D01*
D11*
X011604Y021517D03*
D12*
X012608Y020513D03*
X012608Y022521D03*
X010601Y022521D03*
X010601Y020513D03*
D13*
X028602Y034739D02*
X029134Y034739D01*
X029902Y034739D02*
X030433Y034739D01*
X030433Y035723D02*
X029902Y035723D01*
X029902Y036708D02*
X030433Y036708D01*
X029134Y036708D02*
X028602Y036708D01*
X028602Y035723D02*
X029134Y035723D01*
X039902Y041629D02*
X040433Y041629D01*
X040433Y042416D02*
X039902Y042416D01*
X041201Y042416D02*
X041732Y042416D01*
X041732Y041629D02*
X041201Y041629D01*
X041201Y043991D02*
X041732Y043991D01*
X041732Y044779D02*
X041201Y044779D01*
X040433Y044779D02*
X039902Y044779D01*
X039902Y043991D02*
X040433Y043991D01*
X041319Y005881D02*
X041850Y005881D01*
X042618Y005881D02*
X043150Y005881D01*
X043150Y004897D02*
X042618Y004897D01*
X041850Y004897D02*
X041319Y004897D01*
X041319Y003912D02*
X041850Y003912D01*
X042618Y003912D02*
X043150Y003912D01*
X037795Y003912D02*
X037264Y003912D01*
X036496Y003912D02*
X035965Y003912D01*
X035965Y004897D02*
X036496Y004897D01*
X037264Y004897D02*
X037795Y004897D01*
X037795Y005881D02*
X037264Y005881D01*
X036496Y005881D02*
X035965Y005881D01*
D14*
X042715Y017200D03*
X042715Y018200D03*
X042715Y019200D03*
X042715Y020200D03*
X042715Y021200D03*
X042715Y022200D03*
X041900Y031097D03*
X041266Y031897D03*
X041900Y032790D03*
X039203Y033912D03*
X038022Y033912D03*
X032864Y033322D03*
X040463Y039542D03*
X041250Y039542D03*
X038573Y043243D03*
X036801Y046038D03*
D15*
X034695Y043223D03*
X013081Y043204D03*
X013081Y005783D03*
X034695Y005802D03*
D16*
X038140Y036700D03*
X039242Y038668D03*
X040581Y036700D03*
D17*
X025593Y013688D03*
X025593Y012688D03*
X025593Y011688D03*
X025593Y010688D03*
X024593Y010688D03*
X024593Y011688D03*
X024593Y012688D03*
X024593Y013688D03*
X019691Y034779D03*
X018691Y034779D03*
X017691Y034779D03*
X017691Y035802D03*
X018691Y035802D03*
X019691Y035802D03*
X019691Y036826D03*
X018691Y036826D03*
X017691Y036826D03*
D18*
X017388Y038200D03*
X018388Y038200D03*
X019388Y038200D03*
X020388Y038200D03*
X021388Y038200D03*
X022388Y038200D03*
X023388Y038200D03*
X024388Y038200D03*
X025388Y038200D03*
X026388Y038200D03*
X027388Y038200D03*
X028388Y038200D03*
X029388Y038200D03*
X030388Y038200D03*
X031388Y038200D03*
X032388Y038200D03*
X033388Y038200D03*
X032388Y048200D03*
X031388Y048200D03*
X030388Y048200D03*
X029388Y048200D03*
X028388Y048200D03*
X027388Y048200D03*
X026388Y048200D03*
X025388Y048200D03*
X024388Y048200D03*
X023388Y048200D03*
X022388Y048200D03*
X021388Y048200D03*
X020388Y048200D03*
X019388Y048200D03*
X018388Y048200D03*
X017388Y048200D03*
X016388Y048200D03*
X015388Y048200D03*
X015388Y038200D03*
X016388Y038200D03*
X014388Y038200D03*
D19*
X009085Y002625D03*
X009585Y002625D03*
X010089Y002625D03*
X010585Y002625D03*
X011089Y002625D03*
X011585Y002625D03*
M02*
