G75*
G70*
%OFA0B0*%
%FSLAX24Y24*%
%IPPOS*%
%LPD*%
%AMOC8*
5,1,8,0,0,1.08239X$1,22.5*
%
%ADD10C,0.0040*%
%ADD11R,0.0197X0.0197*%
%ADD12R,0.0630X0.0492*%
%ADD13R,0.1969X0.1969*%
%ADD14C,0.0118*%
%ADD15C,0.0600*%
%ADD16C,0.0827*%
%ADD17C,0.0886*%
%ADD18R,0.0276X0.0315*%
%ADD19R,0.0315X0.0276*%
%ADD20R,0.0630X0.0551*%
%ADD21R,0.0591X0.0512*%
%ADD22R,0.0236X0.0276*%
%ADD23R,0.0787X0.0315*%
%ADD24C,0.0531*%
%ADD25R,0.0551X0.0118*%
%ADD26R,0.0118X0.0551*%
%ADD27R,0.0709X0.0472*%
%ADD28C,0.0591*%
%ADD29R,0.0197X0.0394*%
%ADD30R,0.0394X0.0197*%
%ADD31R,0.0354X0.0157*%
%ADD32R,0.0157X0.0394*%
%ADD33R,0.0217X0.0118*%
%ADD34R,0.0886X0.0197*%
%ADD35R,0.0984X0.0787*%
%ADD36C,0.0860*%
%ADD37R,0.1660X0.1660*%
%ADD38R,0.0551X0.0394*%
%ADD39R,0.0394X0.0551*%
%ADD40R,0.0197X0.0276*%
%ADD41R,0.1150X0.0291*%
%ADD42R,0.0276X0.0197*%
%ADD43R,0.2165X0.0984*%
%ADD44R,0.0197X0.0197*%
%ADD45R,0.0118X0.0689*%
%ADD46C,0.0394*%
%ADD47R,0.0315X0.0315*%
%ADD48OC8,0.0600*%
%ADD49R,0.0945X0.0709*%
%ADD50OC8,0.0591*%
%ADD51R,0.0396X0.0396*%
%ADD52R,0.0394X0.0709*%
%ADD53C,0.0079*%
%ADD54C,0.0276*%
%ADD55C,0.0059*%
%ADD56C,0.0098*%
%ADD57C,0.0394*%
%ADD58C,0.0236*%
%ADD59C,0.0100*%
%ADD60C,0.0157*%
%ADD61C,0.0240*%
%ADD62C,0.0660*%
%ADD63C,0.0120*%
%ADD64C,0.0197*%
%ADD65C,0.0276*%
%ADD66C,0.0315*%
%ADD67C,0.0551*%
%ADD68C,0.0160*%
D10*
X012264Y002302D02*
X012571Y002302D01*
X012417Y002302D02*
X012417Y002762D01*
X012264Y002609D01*
D11*
X022065Y006867D03*
X022458Y006867D03*
X022458Y007309D03*
X022065Y007309D03*
X023296Y010688D03*
X023689Y010688D03*
X023689Y011688D03*
X023296Y011688D03*
X023296Y012688D03*
X023689Y012688D03*
X023689Y013688D03*
X023296Y013688D03*
X018920Y016942D03*
X018526Y016942D03*
X018526Y017486D03*
X018920Y017486D03*
X021125Y020927D03*
X021125Y021320D03*
X021523Y021320D03*
X021523Y020927D03*
X022129Y020881D03*
X022129Y021275D03*
X022082Y021980D03*
X022082Y022373D03*
X021711Y022873D03*
X021711Y023267D03*
X021215Y023370D03*
X020873Y023371D03*
X020873Y023765D03*
X021215Y023763D03*
X021171Y024306D03*
X020817Y024306D03*
X020541Y024306D03*
X020226Y024306D03*
X019833Y024306D03*
X019518Y024503D03*
X019833Y024700D03*
X020226Y024700D03*
X020541Y024700D03*
X020817Y024700D03*
X021171Y024700D03*
X021565Y024700D03*
X021565Y024306D03*
X021351Y025261D03*
X021024Y025261D03*
X021024Y025655D03*
X021351Y025655D03*
X021150Y026415D03*
X020757Y026415D03*
X020174Y025249D03*
X019780Y025249D03*
X020541Y025094D03*
X020541Y023912D03*
X020824Y022604D03*
X021217Y022604D03*
X021174Y021982D03*
X020780Y021982D03*
X023274Y021864D03*
X023274Y021470D03*
X023613Y019934D03*
X023613Y019541D03*
X024597Y019541D03*
X024597Y019934D03*
X025326Y019974D03*
X025326Y020368D03*
X028013Y024767D03*
X028406Y024767D03*
X027038Y025289D03*
X026645Y025289D03*
X023914Y027535D03*
X023914Y027929D03*
X020995Y028891D03*
X020601Y028891D03*
X019046Y027848D03*
X019046Y027454D03*
X019124Y024503D03*
X018770Y024503D03*
X018376Y024503D03*
X018376Y024247D03*
X018376Y023853D03*
X017943Y023853D03*
X017943Y024247D03*
X017943Y024503D03*
X017549Y024503D03*
X017195Y024503D03*
X016801Y024503D03*
X011604Y024503D03*
X011604Y024503D03*
X011604Y024503D03*
X011211Y024503D03*
X010896Y024247D03*
X010709Y024503D03*
X010315Y024503D03*
X010128Y024247D03*
X010128Y023853D03*
X010896Y023853D03*
X011604Y024109D03*
X011604Y024897D03*
X021604Y036353D03*
X021604Y036747D03*
X030310Y025671D03*
X030310Y025277D03*
X035951Y030164D03*
X036345Y030164D03*
X037978Y030912D03*
X037978Y031267D03*
X037978Y031582D03*
X037978Y031897D03*
X037978Y032212D03*
X037978Y032566D03*
X037703Y032566D03*
X037703Y032960D03*
X037270Y033393D03*
X037270Y033708D03*
X036876Y033708D03*
X036876Y033393D03*
X038372Y032566D03*
X038667Y032566D03*
X038667Y032960D03*
X038372Y032212D03*
X038372Y031897D03*
X038372Y031582D03*
X038372Y031267D03*
X038372Y030912D03*
X038943Y029259D03*
X039258Y029259D03*
X039573Y029259D03*
X039888Y029259D03*
X039888Y028865D03*
X039573Y028865D03*
X039258Y028865D03*
X038943Y028865D03*
X037211Y027290D03*
X036817Y027290D03*
X036817Y026660D03*
X037211Y026660D03*
X037085Y028377D03*
X036691Y028377D03*
X040715Y028865D03*
X041030Y028865D03*
X041345Y028865D03*
X041345Y029259D03*
X041030Y029259D03*
X040715Y029259D03*
X041817Y026031D03*
X041817Y025716D03*
X041817Y025401D03*
X042211Y025401D03*
X042211Y025716D03*
X042211Y026031D03*
X041467Y023775D03*
X041073Y023775D03*
X041738Y022212D03*
X042132Y022212D03*
X042841Y022723D03*
X042841Y023066D03*
X043234Y023066D03*
X043234Y022723D03*
X042723Y016483D03*
X042329Y016483D03*
X040439Y015479D03*
X040439Y015086D03*
X039770Y015676D03*
X039455Y015676D03*
X039455Y016070D03*
X039770Y016070D03*
X039045Y015684D03*
X038730Y015684D03*
X038730Y015290D03*
X039045Y015290D03*
X038258Y015290D03*
X038258Y015684D03*
X037825Y015684D03*
X037825Y015290D03*
X035990Y018157D03*
X035597Y018157D03*
X035597Y018944D03*
X035990Y018944D03*
D12*
X020995Y027454D03*
X020995Y028320D03*
X019617Y028320D03*
X019617Y027454D03*
D13*
X024028Y024501D03*
D14*
X023930Y022867D02*
X023930Y022631D01*
X023930Y022749D02*
X023930Y021999D01*
X023733Y021823D02*
X024597Y020960D01*
X024597Y020576D01*
X024597Y019934D01*
X024597Y019541D02*
X024597Y018086D01*
X023730Y017220D01*
X023376Y016865D01*
X022707Y016865D01*
X022526Y016685D01*
X022526Y016001D01*
X021526Y016001D02*
X021526Y016748D01*
X021841Y017062D01*
X023287Y017062D01*
X023613Y017388D01*
X023613Y019541D01*
X023613Y019934D02*
X023613Y020575D01*
X023612Y020576D01*
X023612Y021648D01*
X023536Y021724D01*
X023536Y022749D01*
X023536Y022867D02*
X023536Y022631D01*
X023339Y022631D02*
X023339Y022867D01*
X023143Y022867D02*
X023143Y022631D01*
X022946Y022631D02*
X022946Y022867D01*
X022749Y022867D02*
X022749Y022631D01*
X022552Y022631D02*
X022552Y022867D01*
X022394Y023025D02*
X022158Y023025D01*
X021960Y022946D02*
X022062Y022627D01*
X022082Y022373D01*
X021960Y022946D02*
X021960Y023446D01*
X021987Y023541D01*
X022089Y023616D01*
X022276Y023616D01*
X022394Y023616D02*
X022158Y023616D01*
X022276Y023812D02*
X022026Y023812D01*
X021889Y023722D01*
X021751Y023588D01*
X021719Y023509D01*
X021711Y023501D01*
X021711Y023267D01*
X021463Y023513D02*
X021463Y022962D01*
X021416Y022805D01*
X021330Y022694D01*
X021239Y022604D01*
X021217Y022604D01*
X021217Y022431D01*
X021320Y022328D01*
X021174Y021982D02*
X021507Y021982D01*
X020780Y021982D02*
X020623Y022139D01*
X020523Y022139D01*
X020778Y021983D02*
X020619Y021824D01*
X020523Y021824D01*
X021463Y023513D02*
X021546Y023675D01*
X021625Y023753D01*
X021767Y023879D01*
X021841Y023927D01*
X021936Y023994D01*
X021999Y024009D01*
X022276Y024009D01*
X022394Y024009D02*
X022158Y024009D01*
X022158Y023812D02*
X022394Y023812D01*
X022394Y023419D02*
X022158Y023419D01*
X022158Y023222D02*
X022394Y023222D01*
X021814Y024127D02*
X021920Y024186D01*
X022023Y024206D01*
X022276Y024206D01*
X022394Y024206D02*
X022158Y024206D01*
X022276Y024403D02*
X021853Y024403D01*
X021565Y024306D01*
X021814Y024127D02*
X021444Y023871D01*
X021215Y023763D01*
X021221Y023765D01*
X020873Y023765D01*
X021565Y024700D02*
X021861Y024600D01*
X022276Y024600D01*
X022394Y024600D02*
X022158Y024600D01*
X022058Y024797D02*
X021960Y024816D01*
X021723Y024974D01*
X021351Y025261D01*
X021024Y025261D01*
X021005Y025261D01*
X020680Y025586D01*
X021605Y025407D02*
X021605Y025978D01*
X021526Y026135D01*
X021247Y026415D01*
X021150Y026415D01*
X021162Y026415D01*
X021176Y026401D01*
X021605Y025407D02*
X021739Y025198D01*
X021920Y025053D01*
X021979Y025013D01*
X022058Y024994D01*
X022276Y024994D01*
X022394Y024994D02*
X022158Y024994D01*
X022097Y025190D02*
X022276Y025190D01*
X022394Y025190D02*
X022158Y025190D01*
X022158Y025387D02*
X022394Y025387D01*
X022394Y025584D02*
X022158Y025584D01*
X022158Y025781D02*
X022394Y025781D01*
X022394Y025978D02*
X022158Y025978D01*
X022552Y026135D02*
X022552Y026371D01*
X022749Y026371D02*
X022749Y026135D01*
X022946Y026135D02*
X022946Y026371D01*
X023143Y026371D02*
X023143Y026135D01*
X023339Y026135D02*
X023339Y026371D01*
X023536Y026371D02*
X023536Y026135D01*
X023733Y026135D02*
X023733Y026371D01*
X023930Y026371D02*
X023930Y026135D01*
X024127Y026135D02*
X024127Y026371D01*
X024324Y026371D02*
X024324Y026135D01*
X024521Y026135D02*
X024521Y026371D01*
X024717Y026371D02*
X024717Y026135D01*
X024914Y026135D02*
X024914Y026371D01*
X025111Y026371D02*
X025111Y026135D01*
X025308Y026135D02*
X025308Y026371D01*
X025505Y026371D02*
X025505Y026135D01*
X025662Y025978D02*
X025898Y025978D01*
X025898Y025781D02*
X025662Y025781D01*
X025662Y025584D02*
X025898Y025584D01*
X025898Y025387D02*
X025662Y025387D01*
X025662Y025190D02*
X025898Y025190D01*
X025898Y024994D02*
X025662Y024994D01*
X025780Y024994D02*
X026341Y024994D01*
X026637Y025289D01*
X026645Y025289D01*
X026645Y025186D01*
X026845Y024986D01*
X027038Y025289D02*
X027215Y025112D01*
X027215Y025013D01*
X028013Y024767D02*
X028014Y024767D01*
X028023Y024759D01*
X028406Y024767D02*
X028662Y024767D01*
X028692Y024797D01*
X029668Y024777D02*
X029747Y024698D01*
X029747Y024777D02*
X029747Y025053D01*
X029747Y026549D02*
X029432Y026549D01*
X029747Y026549D02*
X029747Y026942D01*
X032526Y028001D02*
X033134Y028001D01*
X033337Y028204D01*
X033337Y030527D01*
X032526Y032001D02*
X032546Y032021D01*
X035226Y034306D02*
X035226Y017692D01*
X036368Y016550D01*
X036014Y016393D02*
X034400Y018007D01*
X035597Y018944D02*
X035597Y026180D01*
X036392Y026975D01*
X037683Y026975D01*
X037683Y026660D02*
X037211Y026660D01*
X037211Y027290D02*
X037683Y027290D01*
X039179Y027290D01*
X039360Y027109D01*
X039360Y026597D01*
X040187Y025771D01*
X040246Y026235D02*
X040246Y026412D01*
X040541Y026708D01*
X040541Y027160D01*
X040671Y027290D01*
X041148Y027290D01*
X041030Y027586D02*
X040514Y027586D01*
X040266Y027338D01*
X040266Y026786D01*
X039971Y026491D01*
X041148Y026031D02*
X041817Y026031D01*
X041817Y025716D01*
X042211Y025716D02*
X042801Y025716D01*
X043022Y025495D01*
X043022Y023723D01*
X043234Y023385D02*
X043376Y023527D01*
X043376Y033960D01*
X043022Y034314D01*
X039864Y034314D01*
X039557Y034621D01*
X036841Y034621D01*
X036408Y034188D01*
X036408Y033676D01*
X036250Y033519D01*
X036250Y033164D01*
X036486Y032928D01*
X036604Y032928D01*
X036728Y032804D01*
X036728Y032477D01*
X036473Y032477D02*
X036473Y032005D01*
X036463Y031995D01*
X036217Y032477D02*
X035961Y032477D01*
X035951Y032487D01*
X036984Y032477D02*
X036984Y032875D01*
X037116Y033007D01*
X037234Y033007D01*
X037274Y033046D01*
X037274Y033389D01*
X037270Y033393D01*
X037270Y033708D01*
X037270Y033393D02*
X037260Y033383D01*
X036876Y033393D02*
X036620Y033393D01*
X036600Y033373D01*
X036876Y033708D02*
X036876Y034034D01*
X036880Y034038D01*
X037978Y033869D02*
X037978Y032566D01*
X037978Y032212D02*
X037978Y032192D01*
X037959Y032212D01*
X037801Y032212D01*
X037683Y032094D01*
X037978Y032192D02*
X037978Y031897D01*
X037978Y031582D02*
X037978Y031267D01*
X037978Y031582D02*
X037541Y031582D01*
X037392Y031432D01*
X037683Y030952D02*
X037723Y030912D01*
X037978Y030912D01*
X037900Y030519D02*
X037723Y030519D01*
X037526Y030716D01*
X037329Y030499D02*
X037329Y030243D01*
X037408Y030164D01*
X037408Y029810D01*
X037329Y029338D02*
X037250Y029338D01*
X037270Y029318D01*
X036955Y029318D01*
X037270Y029318D02*
X037309Y029318D01*
X037329Y029338D01*
X037703Y029338D01*
X038140Y029031D02*
X038140Y028912D01*
X038628Y028424D01*
X038628Y028235D01*
X038943Y028235D02*
X038943Y028452D01*
X038589Y028806D01*
X038589Y029259D01*
X038943Y029259D01*
X038943Y028865D02*
X038943Y028767D01*
X039258Y028452D01*
X039258Y028235D01*
X039573Y028235D02*
X039573Y028865D01*
X039258Y028865D01*
X039888Y028865D02*
X039888Y028235D01*
X040321Y028786D02*
X040518Y028590D01*
X040715Y028786D01*
X040715Y028865D01*
X040518Y028590D02*
X040518Y028235D01*
X040715Y029259D02*
X040715Y029515D01*
X040699Y029531D01*
X040778Y030763D02*
X039715Y030763D01*
X038809Y030527D02*
X038801Y030519D01*
X038411Y030519D01*
X038372Y031267D02*
X038648Y031267D01*
X038372Y031582D02*
X040203Y031582D01*
X040707Y031582D01*
X040856Y031432D01*
X041565Y031432D01*
X041900Y031097D01*
X041266Y031897D02*
X040203Y031897D01*
X039439Y031897D01*
X038372Y031897D01*
X038372Y032212D02*
X038648Y032212D01*
X038667Y032192D01*
X037978Y033869D02*
X038022Y033912D01*
X037156Y036235D02*
X035226Y034306D01*
X037156Y036235D02*
X037156Y042346D01*
X038179Y042346D01*
X037156Y042346D02*
X035266Y042346D01*
X035463Y038637D02*
X036179Y038637D01*
X036184Y038641D01*
X035463Y038637D02*
X035136Y038310D01*
X035136Y037641D01*
X033388Y038200D02*
X032289Y037101D01*
X031408Y037101D01*
X031289Y037220D01*
X027746Y037220D01*
X027667Y037298D01*
X024911Y037298D01*
X024763Y037150D01*
X024763Y036747D01*
X025013Y036747D02*
X025013Y036061D01*
X024951Y035999D01*
X024974Y036022D01*
X024754Y035802D02*
X024833Y035723D01*
X025266Y035723D01*
X025263Y035726D01*
X025263Y036747D01*
X025266Y035723D02*
X026959Y035723D01*
X026408Y034739D02*
X025302Y034739D01*
X025263Y034700D01*
X025013Y034700D02*
X025013Y035116D01*
X025226Y035330D01*
X025541Y035330D01*
X024951Y035448D02*
X024763Y035260D01*
X024763Y034700D01*
X024263Y034700D02*
X024263Y035348D01*
X024085Y035527D01*
X023763Y035100D02*
X023652Y035212D01*
X023534Y035212D01*
X023219Y035527D01*
X022825Y035527D01*
X022589Y035802D02*
X024754Y035802D01*
X024513Y036747D02*
X024513Y037215D01*
X024833Y037534D01*
X027786Y037534D01*
X027864Y037456D01*
X032156Y037456D01*
X032392Y037692D01*
X032392Y038196D01*
X032388Y038200D01*
X031900Y037751D02*
X031801Y037653D01*
X028022Y037653D01*
X027923Y037751D01*
X024734Y037751D01*
X024263Y037280D01*
X024263Y036747D01*
X024013Y036747D02*
X024013Y037345D01*
X024242Y037574D01*
X024242Y037672D01*
X023809Y037534D02*
X023763Y037488D01*
X023763Y036747D01*
X023513Y036747D02*
X023513Y037671D01*
X024041Y038200D01*
X024388Y038200D01*
X024872Y038716D02*
X022077Y038716D01*
X021841Y038479D01*
X021841Y037968D01*
X020463Y036590D01*
X020581Y036353D02*
X021604Y037377D01*
X022667Y037377D01*
X022763Y037282D01*
X022763Y036747D01*
X023013Y036747D02*
X023013Y037329D01*
X023061Y037377D01*
X023263Y036747D02*
X023263Y036230D01*
X023415Y036078D01*
X024085Y036078D01*
X023763Y035100D02*
X023763Y034700D01*
X023513Y034700D02*
X023513Y034049D01*
X023219Y033755D01*
X021289Y033755D01*
X020896Y034149D01*
X020896Y035054D01*
X021329Y035487D01*
X021408Y034897D02*
X021408Y034385D01*
X021841Y033952D01*
X023022Y033952D01*
X023263Y034193D01*
X023263Y034700D01*
X023013Y034700D02*
X023013Y035163D01*
X023100Y035251D01*
X022763Y034700D02*
X022763Y034284D01*
X022667Y034188D01*
X022037Y034188D01*
X021841Y034385D01*
X021841Y035094D01*
X022513Y034700D02*
X022513Y035726D01*
X022589Y035802D01*
X022037Y036353D01*
X021604Y036353D01*
X021604Y036747D02*
X022513Y036747D01*
X022513Y036232D01*
X022667Y036078D01*
X022943Y036078D01*
X021388Y038200D02*
X020329Y037141D01*
X020581Y036353D02*
X020581Y035507D01*
X020364Y035290D01*
X020817Y033834D02*
X019833Y033834D01*
X019526Y033001D02*
X019526Y032663D01*
X019617Y032572D01*
X018526Y032757D02*
X018526Y033001D01*
X017530Y032997D02*
X017526Y033001D01*
X017530Y032997D02*
X017530Y032710D01*
X016526Y033001D02*
X016526Y033638D01*
X017943Y037653D02*
X018652Y037653D01*
X018927Y037928D01*
X018927Y038834D01*
X019675Y037613D02*
X019715Y037613D01*
X024872Y038716D02*
X025388Y038200D01*
X029557Y046157D02*
X028219Y047495D01*
X019093Y047495D01*
X018388Y048200D01*
X029388Y048200D02*
X029388Y047536D01*
X030703Y046221D01*
X033845Y046221D01*
X033453Y046721D02*
X031203Y046721D01*
X030388Y047536D01*
X030388Y048200D01*
X031388Y048200D02*
X031388Y047536D01*
X031703Y047221D01*
X032953Y047221D01*
X037308Y047106D02*
X037859Y047106D01*
X037347Y047110D02*
X037308Y047070D01*
X040856Y031432D02*
X040856Y030842D01*
X040778Y030763D01*
X037683Y028235D02*
X037683Y027605D01*
X037683Y028235D02*
X037549Y028369D01*
X037541Y028377D01*
X037085Y028377D01*
X037329Y028590D02*
X037549Y028369D01*
X037329Y028590D02*
X037329Y028786D01*
X036506Y026668D02*
X036506Y026660D01*
X037738Y024771D02*
X037234Y024267D01*
X037234Y023007D01*
X036053Y021826D01*
X036053Y019818D01*
X037250Y019534D02*
X037778Y019534D01*
X038140Y019897D01*
X038140Y020723D01*
X038494Y021078D01*
X039242Y021078D01*
X040108Y020212D01*
X040108Y017700D01*
X040026Y017617D01*
X040026Y017153D01*
X040026Y016712D01*
X039636Y016322D01*
X039282Y016322D01*
X039045Y016086D01*
X038888Y016086D01*
X038730Y015928D01*
X038730Y015684D01*
X039045Y015684D02*
X039045Y016086D01*
X039455Y016070D02*
X039770Y016070D01*
X040337Y016637D01*
X040699Y016637D01*
X040813Y016751D01*
X040813Y017153D01*
X040616Y017153D02*
X040419Y017153D01*
X040419Y017625D01*
X040345Y017700D01*
X040108Y017700D01*
X039829Y017153D02*
X039829Y019318D01*
X038612Y020534D01*
X038652Y022613D02*
X037274Y022613D01*
X036467Y021806D01*
X037805Y022999D02*
X037805Y023009D01*
X038254Y023009D01*
X038254Y023265D02*
X037805Y023265D01*
X037805Y023255D01*
X037805Y023511D02*
X037805Y023521D01*
X038254Y023521D01*
X038254Y023777D02*
X037805Y023777D01*
X037805Y023767D01*
X037738Y024771D02*
X038313Y024771D01*
X038943Y024771D02*
X038943Y022905D01*
X038652Y022613D01*
X040577Y022664D02*
X040577Y023009D01*
X040577Y022664D02*
X040581Y022660D01*
X041010Y021747D02*
X041010Y021720D01*
X041738Y021720D01*
X042234Y021720D01*
X042715Y022200D01*
X042624Y022723D02*
X042565Y022783D01*
X042624Y022723D02*
X042841Y022723D01*
X043234Y022723D02*
X043234Y021720D01*
X042715Y021200D01*
X041817Y020912D02*
X041738Y020912D01*
X041738Y021720D01*
X041738Y022212D01*
X041660Y022290D01*
X041660Y022869D01*
X042211Y022869D02*
X042211Y023164D01*
X042270Y023223D01*
X043234Y023066D02*
X043234Y023385D01*
X043234Y023066D02*
X043234Y022723D01*
X041014Y021716D02*
X041010Y021720D01*
X039498Y018558D02*
X039490Y018550D01*
X037250Y018550D01*
X037250Y017960D02*
X037250Y017668D01*
X037116Y017534D01*
X037549Y017141D02*
X038045Y017141D01*
X038057Y017153D01*
X038254Y017153D02*
X038254Y016751D01*
X037825Y016322D01*
X037825Y015684D01*
X037825Y015290D02*
X036998Y015290D01*
X036289Y014582D01*
X036289Y007180D01*
X035974Y006865D01*
X035541Y006570D02*
X036230Y005881D01*
X035541Y006570D02*
X035541Y009975D01*
X035502Y010566D02*
X035502Y013086D01*
X034045Y014542D01*
X018140Y014542D01*
X017526Y015156D01*
X017526Y016001D01*
X018526Y016001D02*
X018526Y016942D01*
X018526Y017486D01*
X018526Y017781D01*
X018922Y016944D02*
X019526Y016944D01*
X019526Y016982D02*
X019487Y016942D01*
X018922Y016944D02*
X018920Y016942D01*
X020374Y013833D02*
X020837Y013370D01*
X020837Y009562D01*
X021565Y008834D01*
X026604Y008834D01*
X028179Y007259D01*
X028691Y007259D01*
X027352Y007220D02*
X027352Y006865D01*
X025266Y007416D02*
X025262Y007412D01*
X024478Y007101D02*
X022982Y008597D01*
X021014Y008597D01*
X020974Y008597D01*
X020443Y008243D02*
X022667Y008243D01*
X024085Y006826D01*
X024085Y004424D01*
X025660Y002849D01*
X036467Y002849D01*
X037530Y003912D01*
X037530Y004897D02*
X038248Y005615D01*
X038258Y005625D01*
X038258Y006353D01*
X037982Y006629D01*
X037234Y006629D01*
X036604Y007259D01*
X036604Y014503D01*
X037077Y014975D01*
X037943Y014975D01*
X038258Y015290D01*
X038258Y015684D02*
X038258Y016401D01*
X038451Y016594D01*
X038451Y017153D01*
X038451Y017944D01*
X038652Y018145D01*
X038254Y017755D02*
X038081Y017928D01*
X038254Y017755D02*
X038254Y017153D01*
X039455Y015676D02*
X039455Y014873D01*
X039163Y014582D01*
X038691Y014582D01*
X038573Y014464D01*
X037431Y014464D01*
X037195Y014227D01*
X037195Y008519D01*
X037667Y008046D01*
X039557Y008046D01*
X040502Y007101D01*
X040758Y006373D02*
X040758Y005664D01*
X041053Y005369D01*
X042411Y005369D01*
X042884Y004897D01*
X040758Y006373D02*
X039360Y007771D01*
X037549Y007771D01*
X036919Y008401D01*
X036919Y014424D01*
X037195Y014700D01*
X038455Y014700D01*
X038730Y014975D01*
X038730Y015290D01*
X039045Y015290D02*
X039045Y014995D01*
X036014Y016393D02*
X036014Y008007D01*
X036880Y008046D02*
X037746Y007180D01*
X038022Y007180D01*
X036230Y003912D02*
X035797Y003479D01*
X026053Y003479D01*
X024478Y005054D01*
X024478Y007101D01*
X023247Y006876D02*
X022814Y007309D01*
X022458Y007309D01*
X022065Y007309D02*
X021633Y007309D01*
X021604Y007338D01*
X021196Y006867D02*
X022065Y006867D01*
X022458Y006867D02*
X022460Y006865D01*
X022707Y006865D01*
X022872Y006700D01*
X022872Y006629D01*
X022872Y006235D01*
X022872Y005723D02*
X023247Y005723D01*
X023247Y006876D01*
X023247Y005723D02*
X023247Y005410D01*
X022972Y005134D01*
X022537Y005134D01*
X021986Y005134D02*
X021200Y005134D01*
X021196Y005723D02*
X021196Y005725D01*
X021196Y005723D02*
X021651Y005723D01*
X021651Y006235D02*
X021211Y006235D01*
X022761Y009589D02*
X026061Y009589D01*
X027037Y010566D01*
X027037Y011157D01*
X028258Y010290D02*
X028258Y009869D01*
X028262Y009865D01*
X030305Y006865D02*
X031262Y006865D01*
X029715Y003912D02*
X029675Y003873D01*
X029715Y003873D02*
X029715Y003912D01*
X024593Y010688D02*
X023689Y010688D01*
X023296Y010688D02*
X022356Y010688D01*
X021805Y010688D02*
X021393Y010688D01*
X021393Y011688D02*
X021805Y011688D01*
X022356Y011688D02*
X023296Y011688D01*
X023689Y011688D02*
X024593Y011688D01*
X024593Y012688D02*
X023689Y012688D01*
X023296Y012688D02*
X022356Y012688D01*
X021805Y012688D02*
X021393Y012688D01*
X021393Y013688D02*
X021805Y013688D01*
X022356Y013688D02*
X023296Y013688D01*
X023689Y013688D02*
X024593Y013688D01*
X024526Y016001D02*
X024526Y017277D01*
X025945Y018696D01*
X025945Y020517D01*
X025345Y021117D01*
X025463Y021314D02*
X026201Y020576D01*
X026201Y018617D01*
X025526Y017943D01*
X025526Y016001D01*
X026526Y016001D02*
X026526Y020565D01*
X025581Y021511D01*
X025641Y020368D02*
X025326Y020368D01*
X025117Y020368D01*
X025030Y020281D01*
X025030Y018125D01*
X023526Y016622D01*
X023526Y016001D01*
X025326Y019679D02*
X025326Y019974D01*
X023733Y021823D02*
X023733Y022749D01*
X023733Y022867D02*
X023733Y022631D01*
X024127Y022631D02*
X024127Y022867D01*
X024324Y022867D02*
X024324Y022631D01*
X024521Y022631D02*
X024521Y022867D01*
X024717Y022867D02*
X024717Y022631D01*
X024914Y022631D02*
X024914Y022867D01*
X025111Y022867D02*
X025111Y022631D01*
X025308Y022631D02*
X025308Y022867D01*
X025505Y022903D02*
X025505Y022667D01*
X025505Y022785D02*
X025841Y022785D01*
X031526Y017100D01*
X031526Y016001D01*
X032274Y017001D02*
X032526Y017001D01*
X032274Y017001D02*
X026251Y023025D01*
X025780Y023025D01*
X025662Y023025D02*
X025898Y023025D01*
X025898Y023222D02*
X025662Y023222D01*
X025780Y023222D02*
X026526Y023222D01*
X027452Y022297D01*
X027963Y022297D01*
X032255Y018005D01*
X032523Y018005D01*
X032526Y018001D01*
X032526Y019001D02*
X032519Y019009D01*
X032235Y019009D01*
X028554Y022690D01*
X027511Y022690D01*
X026782Y023419D01*
X025780Y023419D01*
X025662Y023419D02*
X025898Y023419D01*
X025898Y023616D02*
X025662Y023616D01*
X025780Y023616D02*
X027235Y023616D01*
X027235Y023538D01*
X027239Y023534D01*
X027239Y023519D01*
X027235Y023525D02*
X027235Y023538D01*
X027235Y023525D02*
X027578Y023183D01*
X028908Y023183D01*
X032089Y020001D01*
X032526Y020001D01*
X028101Y023517D02*
X027792Y023517D01*
X027790Y023519D01*
X028082Y023521D02*
X028093Y023509D01*
X028101Y023517D01*
X025898Y023812D02*
X025662Y023812D01*
X025662Y024009D02*
X025898Y024009D01*
X025898Y024206D02*
X025662Y024206D01*
X025662Y024403D02*
X025898Y024403D01*
X025898Y024600D02*
X025662Y024600D01*
X025662Y024797D02*
X025898Y024797D01*
X024243Y027690D02*
X024070Y027690D01*
X023914Y027535D01*
X023914Y027929D02*
X024068Y027929D01*
X024243Y028104D01*
X022276Y024797D02*
X022058Y024797D01*
X022158Y024797D02*
X022394Y024797D01*
X022394Y024403D02*
X022158Y024403D01*
X019695Y027357D02*
X019636Y027357D01*
X019577Y027416D01*
X019616Y027456D01*
X019626Y027446D01*
X019704Y027446D01*
X019656Y027397D02*
X019695Y027357D01*
X019656Y027397D02*
X019656Y027594D01*
X019617Y027555D01*
X019617Y027454D01*
X019046Y027454D01*
X020995Y028320D02*
X020995Y028891D01*
X017642Y012225D02*
X016728Y012225D01*
X016132Y011629D01*
X016132Y008597D01*
X016526Y008243D02*
X011919Y008243D01*
X009085Y005409D01*
X009085Y002625D01*
X010502Y009660D02*
X008937Y011225D01*
X007299Y011225D01*
X010502Y009660D02*
X011742Y009660D01*
X012982Y009660D01*
X016526Y008243D02*
X016565Y008283D01*
X016565Y011432D01*
X016858Y011725D01*
X017643Y011725D01*
X017642Y010225D02*
X018469Y010225D01*
X018494Y010251D01*
X041817Y017960D02*
X041955Y017960D01*
X041955Y017664D01*
X041951Y017660D01*
D15*
X032826Y018001D02*
X032226Y018001D01*
X032226Y017001D02*
X032826Y017001D01*
X031526Y016301D02*
X031526Y015701D01*
X030526Y015701D02*
X030526Y016301D01*
X029526Y016301D02*
X029526Y015701D01*
X028526Y015701D02*
X028526Y016301D01*
X027526Y016301D02*
X027526Y015701D01*
X026526Y015701D02*
X026526Y016301D01*
X025526Y016301D02*
X025526Y015701D01*
X024526Y015701D02*
X024526Y016301D01*
X023526Y016301D02*
X023526Y015701D01*
X022526Y015701D02*
X022526Y016301D01*
X021526Y016301D02*
X021526Y015701D01*
X020526Y015701D02*
X020526Y016301D01*
X019526Y016301D02*
X019526Y015701D01*
X018526Y015701D02*
X018526Y016301D01*
X017526Y016301D02*
X017526Y015701D01*
X016526Y015701D02*
X016526Y016301D01*
X015826Y017001D02*
X015226Y017001D01*
X015226Y018001D02*
X015826Y018001D01*
X015826Y019001D02*
X015226Y019001D01*
X021761Y009889D02*
X021761Y009289D01*
X022761Y009289D02*
X022761Y009889D01*
X032226Y019001D02*
X032826Y019001D01*
X032826Y020001D02*
X032226Y020001D01*
X032226Y021001D02*
X032826Y021001D01*
X032826Y022001D02*
X032226Y022001D01*
X032226Y023001D02*
X032826Y023001D01*
X032826Y024001D02*
X032226Y024001D01*
X032226Y025001D02*
X032826Y025001D01*
X032826Y026001D02*
X032226Y026001D01*
X032226Y027001D02*
X032826Y027001D01*
X032826Y028001D02*
X032226Y028001D01*
X032226Y029001D02*
X032826Y029001D01*
X032826Y030001D02*
X032226Y030001D01*
X032226Y031001D02*
X032826Y031001D01*
X032826Y032001D02*
X032226Y032001D01*
X031526Y032701D02*
X031526Y033301D01*
X030526Y033301D02*
X030526Y032701D01*
X029526Y032701D02*
X029526Y033301D01*
X028526Y033301D02*
X028526Y032701D01*
X027526Y032701D02*
X027526Y033301D01*
X026526Y033301D02*
X026526Y032701D01*
X025526Y032701D02*
X025526Y033301D01*
X024526Y033301D02*
X024526Y032701D01*
X023526Y032701D02*
X023526Y033301D01*
X022526Y033301D02*
X022526Y032701D01*
X021526Y032701D02*
X021526Y033301D01*
X020526Y033301D02*
X020526Y032701D01*
X019526Y032701D02*
X019526Y033301D01*
X018526Y033301D02*
X018526Y032701D01*
X017526Y032701D02*
X017526Y033301D01*
X016526Y033301D02*
X016526Y032701D01*
X015826Y032001D02*
X015226Y032001D01*
X015226Y031001D02*
X015826Y031001D01*
X015826Y030001D02*
X015226Y030001D01*
X035884Y036641D02*
X036484Y036641D01*
X036484Y037641D02*
X035884Y037641D01*
X035884Y038641D02*
X036484Y038641D01*
X036484Y039641D02*
X035884Y039641D01*
X039833Y047687D02*
X039833Y048287D01*
X040833Y048287D02*
X040833Y047687D01*
X041833Y047687D02*
X041833Y048287D01*
X042833Y048287D02*
X042833Y047687D01*
D16*
X011604Y021517D03*
D17*
X012608Y020513D03*
X012608Y022521D03*
X010601Y022521D03*
X010601Y020513D03*
D18*
X021805Y013688D03*
X022356Y013688D03*
X022356Y012688D03*
X021805Y012688D03*
X021805Y011688D03*
X022356Y011688D03*
X022356Y010688D03*
X021805Y010688D03*
X021986Y005134D03*
X022537Y005134D03*
X027239Y023519D03*
X027790Y023519D03*
X029747Y024698D03*
X030298Y024698D03*
X030298Y026549D03*
X029747Y026549D03*
X036856Y030164D03*
X037408Y030164D03*
X041660Y022869D03*
X042211Y022869D03*
D19*
X037329Y028786D03*
X037329Y029338D03*
X023109Y030438D03*
X023109Y030990D03*
X022156Y019149D03*
X022156Y018597D03*
D20*
X009223Y024503D03*
X004892Y024503D03*
D21*
X004892Y023479D03*
X004892Y025527D03*
X009223Y025527D03*
X009223Y023479D03*
D22*
X007057Y023519D03*
X007057Y025487D03*
D23*
X025262Y006865D03*
X025262Y005094D03*
X028175Y005094D03*
X028262Y003873D03*
X028262Y002101D03*
X031175Y002101D03*
X031175Y003873D03*
X031262Y005094D03*
X031262Y006865D03*
X031175Y008094D03*
X031175Y009865D03*
X028262Y009865D03*
X028262Y008094D03*
X028175Y006865D03*
X034175Y006865D03*
X034175Y005094D03*
X035266Y042346D03*
X035266Y044117D03*
X038179Y044117D03*
X038179Y042346D03*
D24*
X039902Y042416D02*
X040433Y042416D01*
X040433Y041629D02*
X039902Y041629D01*
X041201Y041629D02*
X041732Y041629D01*
X041732Y042416D02*
X041201Y042416D01*
X041201Y043991D02*
X041732Y043991D01*
X041732Y044779D02*
X041201Y044779D01*
X040433Y044779D02*
X039902Y044779D01*
X039902Y043991D02*
X040433Y043991D01*
X030433Y036708D02*
X029902Y036708D01*
X029902Y035723D02*
X030433Y035723D01*
X030433Y034739D02*
X029902Y034739D01*
X029134Y034739D02*
X028602Y034739D01*
X028602Y035723D02*
X029134Y035723D01*
X029134Y036708D02*
X028602Y036708D01*
X035965Y005881D02*
X036496Y005881D01*
X037264Y005881D02*
X037795Y005881D01*
X037795Y004897D02*
X037264Y004897D01*
X036496Y004897D02*
X035965Y004897D01*
X035965Y003912D02*
X036496Y003912D01*
X037264Y003912D02*
X037795Y003912D01*
X041319Y003912D02*
X041850Y003912D01*
X042618Y003912D02*
X043150Y003912D01*
X043150Y004897D02*
X042618Y004897D01*
X041850Y004897D02*
X041319Y004897D01*
X041319Y005881D02*
X041850Y005881D01*
X042618Y005881D02*
X043150Y005881D01*
D25*
X041817Y017960D03*
X041817Y018157D03*
X041817Y018353D03*
X041817Y018550D03*
X041817Y018747D03*
X041817Y018944D03*
X041817Y019141D03*
X041817Y019338D03*
X041817Y019534D03*
X041817Y019731D03*
X041817Y019928D03*
X041817Y020125D03*
X041817Y020322D03*
X041817Y020519D03*
X041817Y020716D03*
X041817Y020912D03*
X037250Y020912D03*
X037250Y020716D03*
X037250Y020519D03*
X037250Y020322D03*
X037250Y020125D03*
X037250Y019928D03*
X037250Y019731D03*
X037250Y019534D03*
X037250Y019338D03*
X037250Y019141D03*
X037250Y018944D03*
X037250Y018747D03*
X037250Y018550D03*
X037250Y018353D03*
X037250Y018157D03*
X037250Y017960D03*
D26*
X038057Y017153D03*
X038254Y017153D03*
X038451Y017153D03*
X038648Y017153D03*
X038845Y017153D03*
X039041Y017153D03*
X039238Y017153D03*
X039435Y017153D03*
X039632Y017153D03*
X039829Y017153D03*
X040026Y017153D03*
X040223Y017153D03*
X040419Y017153D03*
X040616Y017153D03*
X040813Y017153D03*
X041010Y017153D03*
X041010Y021720D03*
X040813Y021720D03*
X040616Y021720D03*
X040419Y021720D03*
X040223Y021720D03*
X040026Y021720D03*
X039829Y021720D03*
X039632Y021720D03*
X039435Y021720D03*
X039238Y021720D03*
X039041Y021720D03*
X038845Y021720D03*
X038648Y021720D03*
X038451Y021720D03*
X038254Y021720D03*
X038057Y021720D03*
D27*
X041030Y016031D03*
X041030Y015086D03*
X042604Y015086D03*
X042604Y016031D03*
D28*
X042715Y017200D03*
X042715Y018200D03*
X042715Y019200D03*
X042715Y020200D03*
X042715Y021200D03*
X042715Y022200D03*
X041900Y031097D03*
X041266Y031897D03*
X041900Y032790D03*
X039203Y033912D03*
X038022Y033912D03*
X032864Y033322D03*
X040463Y039542D03*
X041250Y039542D03*
X038573Y043243D03*
X036801Y046038D03*
D29*
X038313Y028235D03*
X038628Y028235D03*
X038943Y028235D03*
X039258Y028235D03*
X039573Y028235D03*
X039888Y028235D03*
X040203Y028235D03*
X040518Y028235D03*
X040518Y024771D03*
X040203Y024771D03*
X039888Y024771D03*
X039573Y024771D03*
X039258Y024771D03*
X038943Y024771D03*
X038628Y024771D03*
X038313Y024771D03*
D30*
X037683Y025401D03*
X037683Y025716D03*
X037683Y026031D03*
X037683Y026346D03*
X037683Y026660D03*
X037683Y026975D03*
X037683Y027290D03*
X037683Y027605D03*
X041148Y027605D03*
X041148Y027290D03*
X041148Y026975D03*
X041148Y026660D03*
X041148Y026346D03*
X041148Y026031D03*
X041148Y025716D03*
X041148Y025401D03*
D31*
X040577Y023777D03*
X040577Y023521D03*
X040577Y023265D03*
X040577Y023009D03*
X038254Y023009D03*
X038254Y023265D03*
X038254Y023521D03*
X038254Y023777D03*
D32*
X036984Y030686D03*
X036728Y030686D03*
X036473Y030686D03*
X036217Y030686D03*
X036217Y032477D03*
X036473Y032477D03*
X036728Y032477D03*
X036984Y032477D03*
D33*
X037900Y030125D03*
X037900Y029928D03*
X037900Y029731D03*
X038451Y029731D03*
X038451Y030125D03*
D34*
X040203Y031267D03*
X040203Y031582D03*
X040203Y031897D03*
X040203Y032212D03*
X040203Y032527D03*
D35*
X040242Y033649D03*
X042388Y033649D03*
X042368Y030145D03*
X040242Y030145D03*
D36*
X034695Y043223D03*
X013081Y043204D03*
X013081Y005783D03*
X034695Y005802D03*
D37*
X038140Y036700D03*
X039242Y038668D03*
X040581Y036700D03*
D38*
X037347Y047110D03*
X037347Y047858D03*
X036481Y047484D03*
D39*
X042049Y040007D03*
X042797Y040007D03*
X042423Y039141D03*
D40*
X040321Y029298D03*
X040321Y028786D03*
D41*
X019307Y012225D03*
X019307Y011738D03*
X019307Y011225D03*
X019307Y010725D03*
X019307Y010225D03*
X019307Y009725D03*
X019307Y009225D03*
X019307Y008725D03*
X019307Y008225D03*
X019306Y007725D03*
X017642Y007725D03*
X017642Y008225D03*
X017643Y008725D03*
X017642Y009225D03*
X017643Y009725D03*
X017642Y010225D03*
X017643Y010725D03*
X017642Y011225D03*
X017643Y011725D03*
X017642Y012225D03*
X007299Y012225D03*
X007299Y011738D03*
X007299Y011225D03*
X007299Y010725D03*
X007299Y010225D03*
X007299Y009725D03*
X007299Y009225D03*
X007299Y008725D03*
X007299Y008225D03*
X007299Y007725D03*
X005635Y007725D03*
X005635Y008225D03*
X005635Y008725D03*
X005635Y009225D03*
X005635Y009725D03*
X005635Y010225D03*
X005635Y010725D03*
X005635Y011225D03*
X005635Y011725D03*
X005635Y012225D03*
D42*
X037900Y030519D03*
X038411Y030519D03*
D43*
X006073Y037594D03*
X006073Y047436D03*
D44*
G36*
X006944Y036223D02*
X006806Y036085D01*
X006668Y036223D01*
X006806Y036361D01*
X006944Y036223D01*
G37*
G36*
X006666Y035944D02*
X006528Y035806D01*
X006390Y035944D01*
X006528Y036082D01*
X006666Y035944D01*
G37*
G36*
X006500Y035720D02*
X006638Y035582D01*
X006500Y035444D01*
X006362Y035582D01*
X006500Y035720D01*
G37*
G36*
X006778Y035442D02*
X006916Y035304D01*
X006778Y035166D01*
X006640Y035304D01*
X006778Y035442D01*
G37*
G36*
X007286Y035324D02*
X007148Y035186D01*
X007010Y035324D01*
X007148Y035462D01*
X007286Y035324D01*
G37*
G36*
X007565Y035602D02*
X007427Y035464D01*
X007289Y035602D01*
X007427Y035740D01*
X007565Y035602D01*
G37*
D45*
X022513Y034700D03*
X022763Y034700D03*
X023013Y034700D03*
X023263Y034700D03*
X023513Y034700D03*
X023763Y034700D03*
X024013Y034700D03*
X024263Y034700D03*
X024513Y034700D03*
X024763Y034700D03*
X025013Y034700D03*
X025263Y034700D03*
X025263Y036747D03*
X025013Y036747D03*
X024763Y036747D03*
X024513Y036747D03*
X024263Y036747D03*
X024013Y036747D03*
X023763Y036747D03*
X023513Y036747D03*
X023263Y036747D03*
X023013Y036747D03*
X022763Y036747D03*
X022513Y036747D03*
D46*
X015226Y047141D03*
X043179Y001865D03*
D47*
X022872Y005723D03*
X022872Y006235D03*
X021651Y006235D03*
X021651Y005723D03*
D48*
X024593Y010688D03*
X024593Y011688D03*
X024593Y012688D03*
X024593Y013688D03*
X025593Y013688D03*
X025593Y012688D03*
X025593Y011688D03*
X025593Y010688D03*
X019691Y034779D03*
X018691Y034779D03*
X017691Y034779D03*
X017691Y035802D03*
X018691Y035802D03*
X019691Y035802D03*
X019691Y036826D03*
X018691Y036826D03*
X017691Y036826D03*
D49*
X009117Y008966D03*
X009117Y007588D03*
D50*
X014388Y038200D03*
X015388Y038200D03*
X016388Y038200D03*
X017388Y038200D03*
X018388Y038200D03*
X019388Y038200D03*
X020388Y038200D03*
X021388Y038200D03*
X022388Y038200D03*
X023388Y038200D03*
X024388Y038200D03*
X025388Y038200D03*
X026388Y038200D03*
X027388Y038200D03*
X028388Y038200D03*
X029388Y038200D03*
X030388Y038200D03*
X031388Y038200D03*
X032388Y038200D03*
X033388Y038200D03*
X032388Y048200D03*
X031388Y048200D03*
X030388Y048200D03*
X029388Y048200D03*
X028388Y048200D03*
X027388Y048200D03*
X026388Y048200D03*
X025388Y048200D03*
X024388Y048200D03*
X023388Y048200D03*
X022388Y048200D03*
X021388Y048200D03*
X020388Y048200D03*
X019388Y048200D03*
X018388Y048200D03*
X017388Y048200D03*
X016388Y048200D03*
X015388Y048200D03*
D51*
X011585Y002625D03*
X011089Y002625D03*
X010585Y002625D03*
X010089Y002625D03*
X009585Y002625D03*
X009085Y002625D03*
D52*
X023612Y020576D03*
X024597Y020576D03*
D53*
X023435Y021048D02*
X023366Y021048D01*
X023297Y020979D01*
X023297Y020173D01*
X023366Y020103D01*
X023418Y020103D01*
X023397Y020082D01*
X023397Y019787D01*
X023446Y019738D01*
X023397Y019688D01*
X023397Y019393D01*
X023436Y019354D01*
X023436Y017461D01*
X023214Y017239D01*
X021767Y017239D01*
X021663Y017135D01*
X021453Y016925D01*
X021354Y016826D01*
X019841Y016826D01*
X019841Y016881D01*
X019841Y016918D01*
X020534Y017610D01*
X020582Y017726D01*
X020582Y017851D01*
X020534Y017967D01*
X020445Y018056D01*
X020329Y018104D01*
X020204Y018104D01*
X020088Y018056D01*
X019259Y017227D01*
X019216Y017121D01*
X019105Y017121D01*
X019067Y017159D01*
X018773Y017159D01*
X018723Y017109D01*
X018704Y017129D01*
X018704Y017299D01*
X018724Y017320D01*
X018727Y017315D01*
X018749Y017293D01*
X018776Y017277D01*
X018806Y017269D01*
X018910Y017269D01*
X018910Y017476D01*
X018930Y017476D01*
X018930Y017496D01*
X018910Y017496D01*
X018910Y017702D01*
X018806Y017702D01*
X018776Y017694D01*
X018749Y017679D01*
X018727Y017657D01*
X018724Y017652D01*
X018704Y017672D01*
X018704Y017721D01*
X019312Y018330D01*
X020886Y018330D01*
X021025Y018330D01*
X021880Y019185D01*
X021880Y018962D01*
X021949Y018893D01*
X022362Y018893D01*
X022380Y018911D01*
X022394Y018911D01*
X022591Y018911D01*
X022711Y019030D01*
X022754Y019048D01*
X022826Y019120D01*
X022844Y019163D01*
X022847Y019167D01*
X022847Y019171D01*
X022865Y019214D01*
X022865Y019316D01*
X022847Y019359D01*
X022847Y019364D01*
X022844Y019367D01*
X022826Y019410D01*
X022754Y019482D01*
X022711Y019500D01*
X022708Y019503D01*
X022703Y019503D01*
X022660Y019521D01*
X022558Y019521D01*
X022515Y019503D01*
X022510Y019503D01*
X022507Y019500D01*
X022464Y019482D01*
X022392Y019410D01*
X022382Y019387D01*
X022380Y019387D01*
X022362Y019405D01*
X022099Y019405D01*
X022851Y020156D01*
X022949Y020254D01*
X022949Y020913D01*
X022949Y021052D01*
X022892Y021109D01*
X022965Y021139D01*
X023037Y021211D01*
X023076Y021305D01*
X023076Y021309D01*
X023082Y021299D01*
X023104Y021277D01*
X023130Y021261D01*
X023160Y021253D01*
X023265Y021253D01*
X023265Y021460D01*
X023284Y021460D01*
X023284Y021253D01*
X023388Y021253D01*
X023419Y021261D01*
X023435Y021271D01*
X023435Y021048D01*
X023435Y021101D02*
X022899Y021101D01*
X022949Y021024D02*
X023342Y021024D01*
X023297Y020947D02*
X022949Y020947D01*
X022949Y020870D02*
X023297Y020870D01*
X023297Y020792D02*
X022949Y020792D01*
X022949Y020715D02*
X023297Y020715D01*
X023297Y020638D02*
X022949Y020638D01*
X022949Y020561D02*
X023297Y020561D01*
X023297Y020483D02*
X022949Y020483D01*
X022949Y020406D02*
X023297Y020406D01*
X023297Y020329D02*
X022949Y020329D01*
X022946Y020251D02*
X023297Y020251D01*
X023297Y020174D02*
X022869Y020174D01*
X022791Y020097D02*
X023412Y020097D01*
X023397Y020020D02*
X022714Y020020D01*
X022637Y019942D02*
X023397Y019942D01*
X023397Y019865D02*
X022560Y019865D01*
X022482Y019788D02*
X023397Y019788D01*
X023419Y019710D02*
X022405Y019710D01*
X022328Y019633D02*
X023397Y019633D01*
X023397Y019556D02*
X022251Y019556D01*
X022173Y019479D02*
X022461Y019479D01*
X022389Y019401D02*
X022365Y019401D01*
X022758Y019479D02*
X023397Y019479D01*
X023397Y019401D02*
X022830Y019401D01*
X022862Y019324D02*
X023436Y019324D01*
X023436Y019247D02*
X022865Y019247D01*
X022847Y019169D02*
X023436Y019169D01*
X023436Y019092D02*
X022798Y019092D01*
X022695Y019015D02*
X023436Y019015D01*
X023436Y018938D02*
X022618Y018938D01*
X022408Y018808D02*
X022386Y018830D01*
X022359Y018845D01*
X022329Y018853D01*
X022185Y018853D01*
X022185Y018627D01*
X022126Y018627D01*
X022126Y018568D01*
X021880Y018568D01*
X021880Y018444D01*
X021888Y018414D01*
X021904Y018387D01*
X021926Y018365D01*
X021952Y018350D01*
X021983Y018342D01*
X022126Y018342D01*
X022126Y018568D01*
X022185Y018568D01*
X022185Y018342D01*
X022329Y018342D01*
X022359Y018350D01*
X022386Y018365D01*
X022408Y018387D01*
X022423Y018414D01*
X022431Y018444D01*
X022431Y018568D01*
X022185Y018568D01*
X022185Y018627D01*
X022431Y018627D01*
X022431Y018751D01*
X022423Y018781D01*
X022408Y018808D01*
X022422Y018783D02*
X023436Y018783D01*
X023436Y018860D02*
X021555Y018860D01*
X021478Y018783D02*
X021889Y018783D01*
X021888Y018781D02*
X021880Y018751D01*
X021880Y018627D01*
X022126Y018627D01*
X022126Y018853D01*
X021983Y018853D01*
X021952Y018845D01*
X021926Y018830D01*
X021904Y018808D01*
X021888Y018781D01*
X021880Y018706D02*
X021400Y018706D01*
X021323Y018628D02*
X021880Y018628D01*
X021880Y018551D02*
X021246Y018551D01*
X021169Y018474D02*
X021880Y018474D01*
X021898Y018397D02*
X021091Y018397D01*
X020886Y018665D02*
X019371Y018665D01*
X019627Y018921D01*
X020958Y018921D01*
X021007Y018871D01*
X021068Y018846D01*
X020886Y018665D01*
X020927Y018706D02*
X019412Y018706D01*
X019489Y018783D02*
X021005Y018783D01*
X021034Y018860D02*
X019567Y018860D01*
X019301Y018319D02*
X023436Y018319D01*
X023436Y018242D02*
X019224Y018242D01*
X019147Y018165D02*
X023436Y018165D01*
X023436Y018087D02*
X020369Y018087D01*
X020491Y018010D02*
X023436Y018010D01*
X023436Y017933D02*
X020548Y017933D01*
X020580Y017856D02*
X023436Y017856D01*
X023436Y017778D02*
X020582Y017778D01*
X020571Y017701D02*
X023436Y017701D01*
X023436Y017624D02*
X020539Y017624D01*
X020470Y017546D02*
X023436Y017546D01*
X023436Y017469D02*
X020392Y017469D01*
X020315Y017392D02*
X023367Y017392D01*
X023289Y017315D02*
X020238Y017315D01*
X020161Y017237D02*
X021765Y017237D01*
X021688Y017160D02*
X020083Y017160D01*
X020006Y017083D02*
X021611Y017083D01*
X021534Y017005D02*
X019929Y017005D01*
X019851Y016928D02*
X021456Y016928D01*
X021379Y016851D02*
X019841Y016851D01*
X019347Y017315D02*
X019113Y017315D01*
X019129Y017342D01*
X019137Y017372D01*
X019137Y017476D01*
X018930Y017476D01*
X018930Y017269D01*
X019034Y017269D01*
X019064Y017277D01*
X019091Y017293D01*
X019113Y017315D01*
X019137Y017392D02*
X019424Y017392D01*
X019502Y017469D02*
X019137Y017469D01*
X019137Y017496D02*
X019137Y017600D01*
X019129Y017630D01*
X019113Y017657D01*
X019091Y017679D01*
X019064Y017694D01*
X019034Y017702D01*
X018930Y017702D01*
X018930Y017496D01*
X019137Y017496D01*
X019137Y017546D02*
X019579Y017546D01*
X019656Y017624D02*
X019130Y017624D01*
X019038Y017701D02*
X019733Y017701D01*
X019811Y017778D02*
X018760Y017778D01*
X018802Y017701D02*
X018704Y017701D01*
X018838Y017856D02*
X019888Y017856D01*
X019965Y017933D02*
X018915Y017933D01*
X018992Y018010D02*
X020043Y018010D01*
X020165Y018087D02*
X019070Y018087D01*
X018930Y017701D02*
X018910Y017701D01*
X018910Y017624D02*
X018930Y017624D01*
X018930Y017546D02*
X018910Y017546D01*
X018910Y017469D02*
X018930Y017469D01*
X018930Y017392D02*
X018910Y017392D01*
X018910Y017315D02*
X018930Y017315D01*
X018727Y017315D02*
X018719Y017315D01*
X018704Y017237D02*
X019270Y017237D01*
X019232Y017160D02*
X018704Y017160D01*
X018349Y017160D02*
X017867Y017160D01*
X017944Y017237D02*
X018349Y017237D01*
X018349Y017299D02*
X018349Y017129D01*
X018310Y017090D01*
X018310Y016826D01*
X017694Y016826D01*
X017694Y016987D01*
X018310Y017603D01*
X018310Y017338D01*
X018349Y017299D01*
X018334Y017315D02*
X018021Y017315D01*
X018098Y017392D02*
X018310Y017392D01*
X018310Y017469D02*
X018176Y017469D01*
X018253Y017546D02*
X018310Y017546D01*
X018310Y017083D02*
X017789Y017083D01*
X017712Y017005D02*
X018310Y017005D01*
X018310Y016928D02*
X017694Y016928D01*
X017694Y016851D02*
X018310Y016851D01*
X017262Y017856D02*
X016219Y017856D01*
X016245Y017918D02*
X016181Y017765D01*
X016063Y017647D01*
X016014Y017626D01*
X016014Y017376D01*
X015910Y017419D01*
X015143Y017419D01*
X014990Y017356D01*
X014872Y017238D01*
X014808Y017085D01*
X014808Y016918D01*
X014872Y016765D01*
X014990Y016647D01*
X015143Y016583D01*
X015910Y016583D01*
X016014Y016626D01*
X016014Y013283D01*
X009911Y013283D01*
X009911Y023912D01*
X009911Y023863D01*
X010118Y023863D01*
X010118Y023843D01*
X010138Y023843D01*
X010138Y023637D01*
X010242Y023637D01*
X010272Y023645D01*
X010299Y023660D01*
X010321Y023682D01*
X010336Y023709D01*
X010345Y023739D01*
X010345Y023843D01*
X010138Y023843D01*
X010138Y023863D01*
X010345Y023863D01*
X010345Y023912D01*
X010679Y023912D01*
X010679Y023863D01*
X010886Y023863D01*
X010886Y023843D01*
X010906Y023843D01*
X010906Y023863D01*
X011112Y023863D01*
X011112Y023912D01*
X011112Y023912D01*
X011112Y022752D01*
X011080Y022815D01*
X011028Y022887D01*
X010966Y022949D01*
X010895Y023001D01*
X010816Y023041D01*
X010732Y023068D01*
X010645Y023082D01*
X010640Y023082D01*
X010640Y022561D01*
X010561Y022561D01*
X010561Y023082D01*
X010556Y023082D01*
X010469Y023068D01*
X010385Y023041D01*
X010306Y023001D01*
X010235Y022949D01*
X010173Y022887D01*
X010121Y022815D01*
X010081Y022736D01*
X010053Y022652D01*
X010039Y022565D01*
X010039Y022560D01*
X010561Y022560D01*
X010561Y022482D01*
X010039Y022482D01*
X010039Y022477D01*
X010053Y022390D01*
X010081Y022306D01*
X010121Y022227D01*
X010173Y022156D01*
X010235Y022093D01*
X010306Y022041D01*
X010385Y022001D01*
X010469Y021974D01*
X010556Y021960D01*
X010561Y021960D01*
X010561Y022481D01*
X010640Y022481D01*
X010640Y021960D01*
X010645Y021960D01*
X010732Y021974D01*
X010816Y022001D01*
X010895Y022041D01*
X010966Y022093D01*
X011028Y022156D01*
X011080Y022227D01*
X011112Y022290D01*
X011112Y022111D01*
X010954Y021952D01*
X010837Y021670D01*
X010837Y021364D01*
X010954Y021082D01*
X011170Y020866D01*
X011452Y020749D01*
X011757Y020749D01*
X012039Y020866D01*
X012255Y021082D01*
X012372Y021364D01*
X012372Y021670D01*
X012255Y021952D01*
X012096Y022111D01*
X012096Y022290D01*
X012128Y022227D01*
X012180Y022156D01*
X012243Y022093D01*
X012314Y022041D01*
X012393Y022001D01*
X012477Y021974D01*
X012564Y021960D01*
X012569Y021960D01*
X012569Y022481D01*
X012648Y022481D01*
X012648Y021960D01*
X012652Y021960D01*
X012740Y021974D01*
X012824Y022001D01*
X012902Y022041D01*
X012974Y022093D01*
X013036Y022156D01*
X013088Y022227D01*
X013128Y022306D01*
X013155Y022390D01*
X013169Y022477D01*
X013169Y022482D01*
X012648Y022482D01*
X012648Y022560D01*
X013169Y022560D01*
X013169Y022565D01*
X013155Y022652D01*
X013128Y022736D01*
X013088Y022815D01*
X013036Y022887D01*
X012974Y022949D01*
X012902Y023001D01*
X012824Y023041D01*
X012740Y023068D01*
X012652Y023082D01*
X012648Y023082D01*
X012648Y022561D01*
X012569Y022561D01*
X012569Y023082D01*
X012564Y023082D01*
X012477Y023068D01*
X012393Y023041D01*
X012314Y023001D01*
X012243Y022949D01*
X012180Y022887D01*
X012128Y022815D01*
X012096Y022752D01*
X012096Y023912D01*
X017726Y023912D01*
X017726Y023863D01*
X017933Y023863D01*
X017933Y023843D01*
X017953Y023843D01*
X017953Y023637D01*
X018057Y023637D01*
X018087Y023645D01*
X018114Y023660D01*
X018136Y023682D01*
X018151Y023709D01*
X018159Y023739D01*
X018160Y023739D02*
X018168Y023709D01*
X018183Y023682D01*
X018205Y023660D01*
X018232Y023645D01*
X018262Y023637D01*
X018366Y023637D01*
X018366Y023843D01*
X018386Y023843D01*
X018386Y023637D01*
X018490Y023637D01*
X018520Y023645D01*
X018547Y023660D01*
X018569Y023682D01*
X018585Y023709D01*
X018593Y023739D01*
X018593Y023843D01*
X018386Y023843D01*
X018386Y023863D01*
X018593Y023863D01*
X018593Y023912D01*
X018770Y023912D01*
X018770Y022849D01*
X016014Y022849D01*
X016014Y019376D01*
X015910Y019419D01*
X015143Y019419D01*
X014990Y019356D01*
X014872Y019238D01*
X014808Y019085D01*
X014808Y018918D01*
X014872Y018765D01*
X014990Y018647D01*
X015143Y018583D01*
X015910Y018583D01*
X016014Y018626D01*
X016014Y018376D01*
X015910Y018419D01*
X015143Y018419D01*
X014990Y018356D01*
X014872Y018238D01*
X014808Y018085D01*
X014808Y017918D01*
X014872Y017765D01*
X014990Y017647D01*
X015143Y017583D01*
X015910Y017583D01*
X016014Y017626D01*
X016014Y017376D01*
X016063Y017356D01*
X016181Y017238D01*
X016245Y017085D01*
X016245Y016918D01*
X016206Y016826D01*
X016359Y016826D01*
X016359Y016953D01*
X016457Y017051D01*
X018977Y019570D01*
X019115Y019570D01*
X020111Y019570D01*
X020161Y019620D01*
X020255Y019659D01*
X020357Y019659D01*
X020451Y019620D01*
X020523Y019548D01*
X020562Y019454D01*
X020562Y019352D01*
X020523Y019258D01*
X020520Y019255D01*
X020958Y019255D01*
X021007Y019305D01*
X021101Y019344D01*
X021203Y019344D01*
X021297Y019305D01*
X021369Y019233D01*
X021394Y019173D01*
X022614Y020393D01*
X022614Y020727D01*
X022589Y020702D01*
X022495Y020663D01*
X022393Y020663D01*
X022309Y020697D01*
X022300Y020688D01*
X022273Y020672D01*
X022243Y020664D01*
X022139Y020664D01*
X022139Y020871D01*
X022119Y020871D01*
X022119Y020664D01*
X022015Y020664D01*
X021985Y020672D01*
X021958Y020688D01*
X021936Y020710D01*
X021920Y020737D01*
X021912Y020767D01*
X021912Y020871D01*
X022119Y020871D01*
X022119Y020891D01*
X021912Y020891D01*
X021912Y020995D01*
X021920Y021025D01*
X021936Y021052D01*
X021958Y021074D01*
X021963Y021077D01*
X021945Y021095D01*
X021852Y021057D01*
X021750Y021057D01*
X021733Y021064D01*
X021739Y021041D01*
X021739Y020936D01*
X021533Y020936D01*
X021533Y020917D01*
X021739Y020917D01*
X021739Y020813D01*
X021731Y020783D01*
X021715Y020756D01*
X021693Y020734D01*
X021667Y020718D01*
X021636Y020710D01*
X021532Y020710D01*
X021532Y020916D01*
X021513Y020916D01*
X021513Y020710D01*
X021409Y020710D01*
X021378Y020718D01*
X021352Y020734D01*
X021330Y020756D01*
X021324Y020766D01*
X021318Y020756D01*
X021296Y020734D01*
X021269Y020718D01*
X021239Y020710D01*
X021135Y020710D01*
X021135Y020916D01*
X021115Y020916D01*
X021115Y020710D01*
X021011Y020710D01*
X020981Y020718D01*
X020954Y020734D01*
X020932Y020756D01*
X020916Y020783D01*
X020908Y020813D01*
X020908Y020917D01*
X021115Y020917D01*
X021115Y020936D01*
X020908Y020936D01*
X020908Y021041D01*
X020912Y021053D01*
X020873Y021037D01*
X020771Y021037D01*
X020677Y021076D01*
X020605Y021148D01*
X020566Y021242D01*
X020566Y021344D01*
X020605Y021438D01*
X020677Y021510D01*
X020771Y021549D01*
X020873Y021549D01*
X020888Y021542D01*
X020857Y021616D01*
X020857Y021718D01*
X020877Y021765D01*
X020810Y021765D01*
X020750Y021705D01*
X020739Y021679D01*
X020667Y021607D01*
X020573Y021568D01*
X020472Y021568D01*
X020378Y021607D01*
X020306Y021679D01*
X020267Y021773D01*
X020267Y021875D01*
X020306Y021969D01*
X020318Y021982D01*
X020306Y021994D01*
X020267Y022088D01*
X020267Y022190D01*
X020306Y022284D01*
X020378Y022356D01*
X020472Y022395D01*
X020573Y022395D01*
X020667Y022356D01*
X020739Y022284D01*
X020747Y022265D01*
X020814Y022198D01*
X020928Y022198D01*
X020977Y022149D01*
X021027Y022198D01*
X021097Y022198D01*
X021064Y022277D01*
X021064Y022334D01*
X021040Y022357D01*
X021040Y022417D01*
X021019Y022438D01*
X021017Y022433D01*
X020995Y022411D01*
X020968Y022395D01*
X020938Y022387D01*
X020834Y022387D01*
X020834Y022594D01*
X020814Y022594D01*
X020814Y022387D01*
X020710Y022387D01*
X020680Y022395D01*
X020653Y022411D01*
X020631Y022433D01*
X020615Y022460D01*
X020607Y022490D01*
X020607Y022594D01*
X020814Y022594D01*
X020814Y022614D01*
X020814Y022820D01*
X020710Y022820D01*
X020680Y022812D01*
X020653Y022797D01*
X020631Y022775D01*
X020615Y022748D01*
X020607Y022718D01*
X020607Y022614D01*
X020814Y022614D01*
X020834Y022614D01*
X020834Y022820D01*
X020938Y022820D01*
X020968Y022812D01*
X020995Y022797D01*
X021017Y022775D01*
X021019Y022770D01*
X021070Y022820D01*
X021203Y022820D01*
X021256Y022888D01*
X021286Y022988D01*
X021286Y023153D01*
X021225Y023153D01*
X021225Y023359D01*
X021206Y023359D01*
X021206Y023153D01*
X021101Y023153D01*
X021071Y023161D01*
X021044Y023177D01*
X021043Y023178D01*
X021017Y023163D01*
X020987Y023155D01*
X020883Y023155D01*
X020883Y023361D01*
X020863Y023361D01*
X020863Y023155D01*
X020759Y023155D01*
X020729Y023163D01*
X020702Y023179D01*
X020680Y023201D01*
X020664Y023227D01*
X020660Y023246D01*
X020583Y023214D01*
X020481Y023214D01*
X020387Y023253D01*
X020315Y023325D01*
X020276Y023419D01*
X020276Y023521D01*
X020315Y023615D01*
X020387Y023687D01*
X020416Y023699D01*
X020397Y023704D01*
X020370Y023719D01*
X020348Y023741D01*
X020333Y023768D01*
X020325Y023798D01*
X020325Y023903D01*
X020531Y023903D01*
X020531Y023912D01*
X018770Y023912D01*
X018770Y022849D01*
X016014Y022849D01*
X016014Y019376D01*
X016063Y019356D01*
X016181Y019238D01*
X016245Y019085D01*
X016245Y018918D01*
X016181Y018765D01*
X016063Y018647D01*
X016014Y018626D01*
X016014Y018376D01*
X016063Y018356D01*
X016181Y018238D01*
X016245Y018085D01*
X016245Y017918D01*
X016245Y017933D02*
X017339Y017933D01*
X017417Y018010D02*
X016245Y018010D01*
X016243Y018087D02*
X017494Y018087D01*
X017571Y018165D02*
X016211Y018165D01*
X016177Y018242D02*
X017649Y018242D01*
X017726Y018319D02*
X016100Y018319D01*
X016014Y018397D02*
X015965Y018397D01*
X016014Y018397D02*
X017803Y018397D01*
X017880Y018474D02*
X016014Y018474D01*
X009911Y018474D01*
X009911Y018551D02*
X016014Y018551D01*
X017958Y018551D01*
X018035Y018628D02*
X016019Y018628D01*
X016122Y018706D02*
X018112Y018706D01*
X018190Y018783D02*
X016188Y018783D01*
X016221Y018860D02*
X018267Y018860D01*
X018344Y018938D02*
X016245Y018938D01*
X016245Y019015D02*
X018421Y019015D01*
X018499Y019092D02*
X016241Y019092D01*
X016209Y019169D02*
X018576Y019169D01*
X018653Y019247D02*
X016172Y019247D01*
X016095Y019324D02*
X018731Y019324D01*
X018808Y019401D02*
X016014Y019401D01*
X015954Y019401D01*
X016014Y019479D02*
X009911Y019479D01*
X009911Y019556D02*
X016014Y019556D01*
X018962Y019556D01*
X018885Y019479D02*
X016014Y019479D01*
X016014Y019633D02*
X009911Y019633D01*
X009911Y019710D02*
X016014Y019710D01*
X021932Y019710D01*
X021855Y019633D02*
X020419Y019633D01*
X020515Y019556D02*
X021777Y019556D01*
X021700Y019479D02*
X020552Y019479D01*
X020562Y019401D02*
X021623Y019401D01*
X021546Y019324D02*
X021251Y019324D01*
X021356Y019247D02*
X021468Y019247D01*
X021710Y019015D02*
X021880Y019015D01*
X021880Y019092D02*
X021787Y019092D01*
X021864Y019169D02*
X021880Y019169D01*
X021904Y018938D02*
X021632Y018938D01*
X022126Y018783D02*
X022185Y018783D01*
X022185Y018706D02*
X022126Y018706D01*
X022126Y018628D02*
X022185Y018628D01*
X022185Y018551D02*
X022126Y018551D01*
X022126Y018474D02*
X022185Y018474D01*
X022185Y018397D02*
X022126Y018397D01*
X022413Y018397D02*
X023436Y018397D01*
X023436Y018474D02*
X022431Y018474D01*
X022431Y018551D02*
X023436Y018551D01*
X023436Y018628D02*
X022431Y018628D01*
X022431Y018706D02*
X023436Y018706D01*
X022164Y019942D02*
X016014Y019942D01*
X009911Y019942D01*
X009911Y019865D02*
X016014Y019865D01*
X022086Y019865D01*
X022009Y019788D02*
X016014Y019788D01*
X009911Y019788D01*
X009911Y020020D02*
X010334Y020020D01*
X010306Y020033D02*
X010385Y019993D01*
X010469Y019966D01*
X010556Y019952D01*
X010561Y019952D01*
X010561Y020474D01*
X010039Y020474D01*
X010039Y020469D01*
X010053Y020382D01*
X010081Y020298D01*
X010121Y020219D01*
X010173Y020148D01*
X010235Y020085D01*
X010306Y020033D01*
X010224Y020097D02*
X009911Y020097D01*
X009911Y020174D02*
X010153Y020174D01*
X010104Y020251D02*
X009911Y020251D01*
X009911Y020329D02*
X010071Y020329D01*
X010049Y020406D02*
X009911Y020406D01*
X009911Y020483D02*
X010561Y020483D01*
X010561Y020474D02*
X010561Y020553D01*
X010561Y021074D01*
X010556Y021074D01*
X010469Y021060D01*
X010385Y021033D01*
X010306Y020993D01*
X010235Y020941D01*
X010173Y020879D01*
X010121Y020807D01*
X010081Y020729D01*
X010053Y020645D01*
X010039Y020557D01*
X010039Y020553D01*
X010561Y020553D01*
X010640Y020553D01*
X010640Y021074D01*
X010645Y021074D01*
X010732Y021060D01*
X010816Y021033D01*
X010895Y020993D01*
X010966Y020941D01*
X011028Y020879D01*
X011080Y020807D01*
X011120Y020729D01*
X011148Y020645D01*
X011161Y020557D01*
X011161Y020553D01*
X010640Y020553D01*
X010640Y020474D01*
X011161Y020474D01*
X011161Y020469D01*
X011148Y020382D01*
X011120Y020298D01*
X011080Y020219D01*
X011028Y020148D01*
X010966Y020085D01*
X010895Y020033D01*
X010816Y019993D01*
X010732Y019966D01*
X010645Y019952D01*
X010640Y019952D01*
X010640Y020474D01*
X010561Y020474D01*
X010561Y020406D02*
X010640Y020406D01*
X010640Y020483D02*
X012569Y020483D01*
X012569Y020474D02*
X012569Y020553D01*
X012569Y021074D01*
X012564Y021074D01*
X012477Y021060D01*
X012393Y021033D01*
X012314Y020993D01*
X012243Y020941D01*
X012180Y020879D01*
X012128Y020807D01*
X012088Y020729D01*
X012061Y020645D01*
X012047Y020557D01*
X012047Y020553D01*
X012569Y020553D01*
X012648Y020553D01*
X013169Y020553D01*
X013169Y020557D01*
X013155Y020645D01*
X013128Y020729D01*
X013088Y020807D01*
X013036Y020879D01*
X012974Y020941D01*
X012902Y020993D01*
X012824Y021033D01*
X012740Y021060D01*
X012652Y021074D01*
X012648Y021074D01*
X012648Y020553D01*
X012648Y020474D01*
X013169Y020474D01*
X013169Y020469D01*
X013155Y020382D01*
X013128Y020298D01*
X013088Y020219D01*
X013036Y020148D01*
X012974Y020085D01*
X012902Y020033D01*
X012824Y019993D01*
X012740Y019966D01*
X012652Y019952D01*
X012648Y019952D01*
X012648Y020474D01*
X012569Y020474D01*
X012047Y020474D01*
X012047Y020469D01*
X012061Y020382D01*
X012088Y020298D01*
X012128Y020219D01*
X012180Y020148D01*
X012243Y020085D01*
X012314Y020033D01*
X012393Y019993D01*
X012477Y019966D01*
X012564Y019952D01*
X012569Y019952D01*
X012569Y020474D01*
X012569Y020406D02*
X012648Y020406D01*
X012648Y020483D02*
X016014Y020483D01*
X022614Y020483D01*
X022614Y020406D02*
X016014Y020406D01*
X013159Y020406D01*
X013138Y020329D02*
X016014Y020329D01*
X022550Y020329D01*
X022473Y020251D02*
X016014Y020251D01*
X013104Y020251D01*
X013055Y020174D02*
X016014Y020174D01*
X022396Y020174D01*
X022318Y020097D02*
X016014Y020097D01*
X012985Y020097D01*
X012875Y020020D02*
X016014Y020020D01*
X022241Y020020D01*
X022614Y020561D02*
X016014Y020561D01*
X013169Y020561D01*
X013157Y020638D02*
X016014Y020638D01*
X022614Y020638D01*
X022602Y020715D02*
X022614Y020715D01*
X022139Y020715D02*
X022119Y020715D01*
X022119Y020792D02*
X022139Y020792D01*
X022139Y020870D02*
X022119Y020870D01*
X021912Y020870D02*
X021739Y020870D01*
X021739Y020947D02*
X021912Y020947D01*
X021920Y021024D02*
X021739Y021024D01*
X021734Y020792D02*
X021912Y020792D01*
X021933Y020715D02*
X021655Y020715D01*
X021532Y020715D02*
X021513Y020715D01*
X021513Y020792D02*
X021532Y020792D01*
X021532Y020870D02*
X021513Y020870D01*
X021512Y020917D02*
X021341Y020917D01*
X021135Y020917D01*
X021135Y020936D01*
X021306Y020936D01*
X021512Y020936D01*
X021512Y020917D01*
X021390Y020715D02*
X021258Y020715D01*
X021135Y020715D02*
X021115Y020715D01*
X021115Y020792D02*
X021135Y020792D01*
X021135Y020870D02*
X021115Y020870D01*
X020992Y020715D02*
X016014Y020715D01*
X013133Y020715D01*
X013096Y020792D02*
X016014Y020792D01*
X020914Y020792D01*
X020908Y020870D02*
X016014Y020870D01*
X013043Y020870D01*
X012966Y020947D02*
X016014Y020947D01*
X020908Y020947D01*
X020908Y021024D02*
X016014Y021024D01*
X012841Y021024D01*
X012648Y021024D02*
X012569Y021024D01*
X012569Y020947D02*
X012648Y020947D01*
X012648Y020870D02*
X012569Y020870D01*
X012569Y020792D02*
X012648Y020792D01*
X012648Y020715D02*
X012569Y020715D01*
X012569Y020638D02*
X012648Y020638D01*
X012648Y020561D02*
X012569Y020561D01*
X012569Y020329D02*
X012648Y020329D01*
X012648Y020251D02*
X012569Y020251D01*
X012569Y020174D02*
X012648Y020174D01*
X012648Y020097D02*
X012569Y020097D01*
X012569Y020020D02*
X012648Y020020D01*
X012341Y020020D02*
X010867Y020020D01*
X010977Y020097D02*
X012231Y020097D01*
X012161Y020174D02*
X011048Y020174D01*
X011097Y020251D02*
X012112Y020251D01*
X012078Y020329D02*
X011130Y020329D01*
X011151Y020406D02*
X012057Y020406D01*
X012048Y020561D02*
X011161Y020561D01*
X011149Y020638D02*
X012060Y020638D01*
X012084Y020715D02*
X011125Y020715D01*
X011088Y020792D02*
X011348Y020792D01*
X011166Y020870D02*
X011035Y020870D01*
X011089Y020947D02*
X010958Y020947D01*
X011012Y021024D02*
X010833Y021024D01*
X010946Y021101D02*
X009911Y021101D01*
X009911Y021024D02*
X010368Y021024D01*
X010243Y020947D02*
X009911Y020947D01*
X009911Y020870D02*
X010166Y020870D01*
X010113Y020792D02*
X009911Y020792D01*
X009911Y020715D02*
X010076Y020715D01*
X010052Y020638D02*
X009911Y020638D01*
X009911Y020561D02*
X010040Y020561D01*
X010561Y020561D02*
X010640Y020561D01*
X010640Y020638D02*
X010561Y020638D01*
X010561Y020715D02*
X010640Y020715D01*
X010640Y020792D02*
X010561Y020792D01*
X010561Y020870D02*
X010640Y020870D01*
X010640Y020947D02*
X010561Y020947D01*
X010561Y021024D02*
X010640Y021024D01*
X010914Y021179D02*
X009911Y021179D01*
X009911Y021256D02*
X010882Y021256D01*
X010850Y021333D02*
X009911Y021333D01*
X009911Y021411D02*
X010837Y021411D01*
X010837Y021488D02*
X009911Y021488D01*
X009911Y021565D02*
X010837Y021565D01*
X010837Y021642D02*
X009911Y021642D01*
X009911Y021720D02*
X010857Y021720D01*
X010889Y021797D02*
X009911Y021797D01*
X009911Y021874D02*
X010921Y021874D01*
X010953Y021952D02*
X009911Y021952D01*
X009911Y022029D02*
X010331Y022029D01*
X010222Y022106D02*
X009911Y022106D01*
X009911Y022183D02*
X010152Y022183D01*
X010103Y022261D02*
X009911Y022261D01*
X009911Y022338D02*
X010070Y022338D01*
X010049Y022415D02*
X009911Y022415D01*
X009911Y022493D02*
X010561Y022493D01*
X010561Y022570D02*
X010640Y022570D01*
X010640Y022647D02*
X010561Y022647D01*
X010561Y022724D02*
X010640Y022724D01*
X010640Y022802D02*
X010561Y022802D01*
X010561Y022879D02*
X010640Y022879D01*
X010640Y022956D02*
X010561Y022956D01*
X010561Y023034D02*
X010640Y023034D01*
X010830Y023034D02*
X011112Y023034D01*
X011112Y023111D02*
X009911Y023111D01*
X009911Y023188D02*
X011112Y023188D01*
X011112Y023265D02*
X009911Y023265D01*
X009911Y023343D02*
X011112Y023343D01*
X011112Y023420D02*
X009911Y023420D01*
X009911Y023497D02*
X011112Y023497D01*
X011112Y023575D02*
X009911Y023575D01*
X009911Y023652D02*
X009972Y023652D01*
X009984Y023645D02*
X010014Y023637D01*
X010118Y023637D01*
X010118Y023843D01*
X009911Y023843D01*
X009911Y023739D01*
X009920Y023709D01*
X009935Y023682D01*
X009957Y023660D01*
X009984Y023645D01*
X009914Y023729D02*
X009911Y023729D01*
X010118Y023729D02*
X010138Y023729D01*
X010138Y023652D02*
X010118Y023652D01*
X010118Y023806D02*
X010138Y023806D01*
X010345Y023806D02*
X010679Y023806D01*
X010679Y023843D02*
X010679Y023739D01*
X010687Y023709D01*
X010703Y023682D01*
X010725Y023660D01*
X010752Y023645D01*
X010782Y023637D01*
X010886Y023637D01*
X010886Y023843D01*
X010679Y023843D01*
X010679Y023884D02*
X010345Y023884D01*
X010342Y023729D02*
X010682Y023729D01*
X010740Y023652D02*
X010284Y023652D01*
X010886Y023652D02*
X010906Y023652D01*
X010906Y023637D02*
X011010Y023637D01*
X011040Y023645D01*
X011067Y023660D01*
X011089Y023682D01*
X011104Y023709D01*
X011112Y023739D01*
X011112Y023843D01*
X010906Y023843D01*
X010906Y023637D01*
X010906Y023729D02*
X010886Y023729D01*
X010886Y023806D02*
X010906Y023806D01*
X011112Y023806D02*
X011112Y023806D01*
X011109Y023729D02*
X011112Y023729D01*
X011112Y023652D02*
X011052Y023652D01*
X011112Y023884D02*
X011112Y023884D01*
X011112Y022956D02*
X010956Y022956D01*
X011034Y022879D02*
X011112Y022879D01*
X011112Y022802D02*
X011087Y022802D01*
X011097Y022261D02*
X011112Y022261D01*
X011112Y022183D02*
X011049Y022183D01*
X011108Y022106D02*
X010979Y022106D01*
X011031Y022029D02*
X010870Y022029D01*
X010640Y022029D02*
X010561Y022029D01*
X010561Y022106D02*
X010640Y022106D01*
X010640Y022183D02*
X010561Y022183D01*
X010561Y022261D02*
X010640Y022261D01*
X010640Y022338D02*
X010561Y022338D01*
X010561Y022415D02*
X010640Y022415D01*
X010167Y022879D02*
X009911Y022879D01*
X009911Y022956D02*
X010245Y022956D01*
X010371Y023034D02*
X009911Y023034D01*
X009911Y022802D02*
X010114Y022802D01*
X010077Y022724D02*
X009911Y022724D01*
X009911Y022647D02*
X010052Y022647D01*
X010040Y022570D02*
X009911Y022570D01*
X010561Y020329D02*
X010640Y020329D01*
X010640Y020251D02*
X010561Y020251D01*
X010561Y020174D02*
X010640Y020174D01*
X010640Y020097D02*
X010561Y020097D01*
X010561Y020020D02*
X010640Y020020D01*
X009911Y019401D02*
X015099Y019401D01*
X014958Y019324D02*
X009911Y019324D01*
X009911Y019247D02*
X014880Y019247D01*
X014844Y019169D02*
X009911Y019169D01*
X009911Y019092D02*
X014811Y019092D01*
X014808Y019015D02*
X009911Y019015D01*
X009911Y018938D02*
X014808Y018938D01*
X014832Y018860D02*
X009911Y018860D01*
X009911Y018783D02*
X014864Y018783D01*
X014931Y018706D02*
X009911Y018706D01*
X009911Y018628D02*
X015034Y018628D01*
X015088Y018397D02*
X009911Y018397D01*
X009911Y018319D02*
X014953Y018319D01*
X014876Y018242D02*
X009911Y018242D01*
X009911Y018165D02*
X014842Y018165D01*
X014810Y018087D02*
X009911Y018087D01*
X009911Y018010D02*
X014808Y018010D01*
X014808Y017933D02*
X009911Y017933D01*
X009911Y017856D02*
X014834Y017856D01*
X014866Y017778D02*
X009911Y017778D01*
X009911Y017701D02*
X014936Y017701D01*
X015046Y017624D02*
X009911Y017624D01*
X009911Y017546D02*
X016014Y017546D01*
X016953Y017546D01*
X016876Y017469D02*
X016014Y017469D01*
X009911Y017469D01*
X009911Y017392D02*
X015077Y017392D01*
X014948Y017315D02*
X009911Y017315D01*
X009911Y017237D02*
X014872Y017237D01*
X014840Y017160D02*
X009911Y017160D01*
X009911Y017083D02*
X014808Y017083D01*
X014808Y017005D02*
X009911Y017005D01*
X009911Y016928D02*
X014808Y016928D01*
X014836Y016851D02*
X009911Y016851D01*
X009911Y016774D02*
X014868Y016774D01*
X014940Y016696D02*
X009911Y016696D01*
X009911Y016619D02*
X015057Y016619D01*
X015996Y016619D02*
X016014Y016619D01*
X016014Y016542D02*
X009911Y016542D01*
X009911Y016464D02*
X016014Y016464D01*
X016014Y016387D02*
X009911Y016387D01*
X009911Y016310D02*
X016014Y016310D01*
X016014Y016233D02*
X009911Y016233D01*
X009911Y016155D02*
X016014Y016155D01*
X016014Y016078D02*
X009911Y016078D01*
X009911Y016001D02*
X016014Y016001D01*
X016014Y015924D02*
X009911Y015924D01*
X009911Y015846D02*
X016014Y015846D01*
X016014Y015769D02*
X009911Y015769D01*
X009911Y015692D02*
X016014Y015692D01*
X016014Y015614D02*
X009911Y015614D01*
X009911Y015537D02*
X016014Y015537D01*
X016014Y015460D02*
X009911Y015460D01*
X009911Y015383D02*
X016014Y015383D01*
X016014Y015305D02*
X009911Y015305D01*
X009911Y015228D02*
X016014Y015228D01*
X016014Y015151D02*
X009911Y015151D01*
X009911Y015073D02*
X016014Y015073D01*
X016014Y014996D02*
X009911Y014996D01*
X009911Y014919D02*
X016014Y014919D01*
X016014Y014842D02*
X009911Y014842D01*
X009911Y014764D02*
X016014Y014764D01*
X016014Y014687D02*
X009911Y014687D01*
X009911Y014610D02*
X016014Y014610D01*
X016014Y014532D02*
X009911Y014532D01*
X009911Y014455D02*
X016014Y014455D01*
X016014Y014378D02*
X009911Y014378D01*
X009911Y014301D02*
X016014Y014301D01*
X016014Y014223D02*
X009911Y014223D01*
X009911Y014146D02*
X016014Y014146D01*
X016014Y014069D02*
X009911Y014069D01*
X009911Y013991D02*
X016014Y013991D01*
X016014Y013914D02*
X009911Y013914D01*
X009911Y013837D02*
X016014Y013837D01*
X016014Y013760D02*
X009911Y013760D01*
X009911Y013682D02*
X016014Y013682D01*
X016014Y013605D02*
X009911Y013605D01*
X009911Y013528D02*
X016014Y013528D01*
X016014Y013450D02*
X009911Y013450D01*
X009911Y013373D02*
X016014Y013373D01*
X016014Y013296D02*
X009911Y013296D01*
X016217Y016851D02*
X016359Y016851D01*
X016359Y016928D02*
X016245Y016928D01*
X016245Y017005D02*
X016412Y017005D01*
X016489Y017083D02*
X016245Y017083D01*
X016213Y017160D02*
X016567Y017160D01*
X016644Y017237D02*
X016181Y017237D01*
X016104Y017315D02*
X016721Y017315D01*
X016798Y017392D02*
X016014Y017392D01*
X015976Y017392D01*
X016007Y017624D02*
X016014Y017624D01*
X017030Y017624D01*
X017108Y017701D02*
X016117Y017701D01*
X016187Y017778D02*
X017185Y017778D01*
X016014Y019633D02*
X020193Y019633D01*
X020550Y019324D02*
X021053Y019324D01*
X020651Y021101D02*
X016014Y021101D01*
X012263Y021101D01*
X012295Y021179D02*
X016014Y021179D01*
X020592Y021179D01*
X020566Y021256D02*
X016014Y021256D01*
X012327Y021256D01*
X012359Y021333D02*
X016014Y021333D01*
X020566Y021333D01*
X020594Y021411D02*
X016014Y021411D01*
X012372Y021411D01*
X012372Y021488D02*
X016014Y021488D01*
X020655Y021488D01*
X020703Y021642D02*
X020857Y021642D01*
X020858Y021720D02*
X020765Y021720D01*
X020878Y021565D02*
X016014Y021565D01*
X012372Y021565D01*
X012372Y021642D02*
X016014Y021642D01*
X020342Y021642D01*
X020289Y021720D02*
X016014Y021720D01*
X012351Y021720D01*
X012319Y021797D02*
X016014Y021797D01*
X020267Y021797D01*
X020267Y021874D02*
X016014Y021874D01*
X012287Y021874D01*
X012255Y021952D02*
X016014Y021952D01*
X020298Y021952D01*
X020291Y022029D02*
X016014Y022029D01*
X012878Y022029D01*
X012987Y022106D02*
X016014Y022106D01*
X020267Y022106D01*
X020267Y022183D02*
X016014Y022183D01*
X013056Y022183D01*
X013105Y022261D02*
X016014Y022261D01*
X020296Y022261D01*
X020359Y022338D02*
X016014Y022338D01*
X013139Y022338D01*
X013160Y022415D02*
X016014Y022415D01*
X020648Y022415D01*
X020686Y022338D02*
X021059Y022338D01*
X021071Y022261D02*
X020752Y022261D01*
X020814Y022415D02*
X020834Y022415D01*
X020834Y022493D02*
X020814Y022493D01*
X020814Y022570D02*
X020834Y022570D01*
X020834Y022647D02*
X020814Y022647D01*
X020814Y022724D02*
X020834Y022724D01*
X020834Y022802D02*
X020814Y022802D01*
X020661Y022802D02*
X016014Y022802D01*
X013095Y022802D01*
X013132Y022724D02*
X016014Y022724D01*
X020609Y022724D01*
X020607Y022647D02*
X016014Y022647D01*
X013156Y022647D01*
X013169Y022570D02*
X016014Y022570D01*
X020607Y022570D01*
X020607Y022493D02*
X016014Y022493D01*
X012648Y022493D01*
X012648Y022570D02*
X012569Y022570D01*
X012569Y022647D02*
X012648Y022647D01*
X012648Y022724D02*
X012569Y022724D01*
X012569Y022802D02*
X012648Y022802D01*
X012648Y022879D02*
X012569Y022879D01*
X012569Y022956D02*
X012648Y022956D01*
X012648Y023034D02*
X012569Y023034D01*
X012378Y023034D02*
X012096Y023034D01*
X012096Y023111D02*
X018770Y023111D01*
X021286Y023111D01*
X021286Y023034D02*
X018770Y023034D01*
X012838Y023034D01*
X012964Y022956D02*
X018770Y022956D01*
X021277Y022956D01*
X021249Y022879D02*
X018770Y022879D01*
X013042Y022879D01*
X012648Y022415D02*
X012569Y022415D01*
X012569Y022338D02*
X012648Y022338D01*
X012648Y022261D02*
X012569Y022261D01*
X012569Y022183D02*
X012648Y022183D01*
X012648Y022106D02*
X012569Y022106D01*
X012569Y022029D02*
X012648Y022029D01*
X012338Y022029D02*
X012178Y022029D01*
X012230Y022106D02*
X012101Y022106D01*
X012096Y022183D02*
X012160Y022183D01*
X012111Y022261D02*
X012096Y022261D01*
X012096Y022802D02*
X012122Y022802D01*
X012096Y022879D02*
X012175Y022879D01*
X012253Y022956D02*
X012096Y022956D01*
X012096Y023188D02*
X018770Y023188D01*
X020692Y023188D01*
X020863Y023188D02*
X020883Y023188D01*
X020883Y023265D02*
X020863Y023265D01*
X020863Y023343D02*
X020883Y023343D01*
X020883Y023362D02*
X020883Y023381D01*
X020999Y023381D01*
X020999Y023379D01*
X021205Y023379D01*
X021205Y023360D01*
X021089Y023360D01*
X021089Y023362D01*
X020883Y023362D01*
X021206Y023343D02*
X021225Y023343D01*
X021225Y023265D02*
X021206Y023265D01*
X021206Y023188D02*
X021225Y023188D01*
X021052Y022802D02*
X020986Y022802D01*
X020999Y022415D02*
X021040Y022415D01*
X021012Y022183D02*
X020942Y022183D01*
X021444Y022554D02*
X021462Y022576D01*
X021507Y022621D01*
X021507Y022633D01*
X021533Y022666D01*
X021550Y022675D01*
X021567Y022665D01*
X021597Y022657D01*
X021702Y022657D01*
X021702Y022863D01*
X021721Y022863D01*
X021721Y022657D01*
X021825Y022657D01*
X021856Y022665D01*
X021862Y022669D01*
X021887Y022593D01*
X021890Y022546D01*
X021885Y022541D01*
X021874Y022541D01*
X021804Y022470D01*
X021733Y022470D01*
X021639Y022431D01*
X021576Y022367D01*
X021576Y022379D01*
X021537Y022473D01*
X021465Y022545D01*
X021444Y022554D01*
X021457Y022570D02*
X021889Y022570D01*
X021869Y022647D02*
X021518Y022647D01*
X021517Y022493D02*
X021826Y022493D01*
X021624Y022415D02*
X021561Y022415D01*
X021702Y022724D02*
X021721Y022724D01*
X021721Y022802D02*
X021702Y022802D01*
X021911Y021990D02*
X022071Y021990D01*
X022071Y021970D01*
X021865Y021970D01*
X021865Y021866D01*
X021873Y021836D01*
X021881Y021821D01*
X021829Y021874D01*
X021752Y021906D01*
X021763Y021931D01*
X021763Y021958D01*
X021835Y021958D01*
X021911Y021990D01*
X021865Y021952D02*
X021763Y021952D01*
X021828Y021874D02*
X021865Y021874D01*
X021905Y021793D02*
X021911Y021787D01*
X021938Y021771D01*
X021968Y021763D01*
X022072Y021763D01*
X022072Y021970D01*
X022091Y021970D01*
X022091Y021763D01*
X022181Y021763D01*
X022181Y021672D01*
X022182Y021671D01*
X022182Y021564D01*
X022109Y021491D01*
X021984Y021491D01*
X021946Y021529D01*
X021914Y021543D01*
X021940Y021606D01*
X021940Y021708D01*
X021905Y021793D01*
X021935Y021720D02*
X022181Y021720D01*
X022182Y021642D02*
X021940Y021642D01*
X021923Y021565D02*
X022182Y021565D01*
X022091Y021797D02*
X022072Y021797D01*
X022072Y021874D02*
X022091Y021874D01*
X022091Y021952D02*
X022072Y021952D01*
X023055Y021256D02*
X023150Y021256D01*
X023265Y021256D02*
X023284Y021256D01*
X023284Y021333D02*
X023265Y021333D01*
X023265Y021411D02*
X023284Y021411D01*
X023398Y021256D02*
X023435Y021256D01*
X023435Y021179D02*
X023005Y021179D01*
X020375Y023265D02*
X018770Y023265D01*
X012096Y023265D01*
X012096Y023343D02*
X018770Y023343D01*
X020308Y023343D01*
X020276Y023420D02*
X018770Y023420D01*
X012096Y023420D01*
X012096Y023497D02*
X018770Y023497D01*
X020276Y023497D01*
X020299Y023575D02*
X018770Y023575D01*
X012096Y023575D01*
X012096Y023652D02*
X017787Y023652D01*
X017799Y023645D02*
X017829Y023637D01*
X017933Y023637D01*
X017933Y023843D01*
X017726Y023843D01*
X017726Y023739D01*
X017734Y023709D01*
X017750Y023682D01*
X017772Y023660D01*
X017799Y023645D01*
X017729Y023729D02*
X012096Y023729D01*
X012096Y023806D02*
X017726Y023806D01*
X017726Y023884D02*
X012096Y023884D01*
X012097Y025094D02*
X012097Y033145D01*
X010600Y034641D01*
X008297Y034641D01*
X007530Y035399D01*
X007573Y035442D01*
X007427Y035588D01*
X007441Y035602D01*
X007427Y035616D01*
X007573Y035762D01*
X007499Y035836D01*
X007472Y035851D01*
X007442Y035859D01*
X007411Y035859D01*
X007381Y035851D01*
X007354Y035836D01*
X007280Y035762D01*
X007426Y035616D01*
X007412Y035602D01*
X007267Y035748D01*
X007222Y035704D01*
X006906Y036016D01*
X006952Y036062D01*
X006806Y036208D01*
X006820Y036222D01*
X006966Y036076D01*
X007040Y036150D01*
X007055Y036177D01*
X007063Y036207D01*
X007063Y036238D01*
X007055Y036268D01*
X007040Y036295D01*
X006966Y036369D01*
X006820Y036223D01*
X006806Y036237D01*
X006952Y036383D01*
X006878Y036456D01*
X006852Y036472D01*
X006822Y036480D01*
X006790Y036480D01*
X006760Y036472D01*
X006733Y036456D01*
X006660Y036383D01*
X006806Y036237D01*
X006792Y036223D01*
X006646Y036369D01*
X006598Y036321D01*
X006565Y036353D01*
X006565Y036668D01*
X016014Y036668D01*
X016014Y032376D01*
X015910Y032419D01*
X015143Y032419D01*
X014990Y032356D01*
X014872Y032238D01*
X014808Y032085D01*
X014808Y031918D01*
X014872Y031765D01*
X014990Y031647D01*
X015143Y031583D01*
X015910Y031583D01*
X016014Y031626D01*
X016014Y031376D01*
X015910Y031419D01*
X015143Y031419D01*
X014990Y031356D01*
X014872Y031238D01*
X014808Y031085D01*
X014808Y030918D01*
X014872Y030765D01*
X014990Y030647D01*
X015143Y030583D01*
X015910Y030583D01*
X016014Y030626D01*
X016014Y030376D01*
X015910Y030419D01*
X015143Y030419D01*
X014990Y030356D01*
X014872Y030238D01*
X014808Y030085D01*
X014808Y029918D01*
X014872Y029765D01*
X014990Y029647D01*
X015143Y029583D01*
X015910Y029583D01*
X016014Y029626D01*
X016014Y026314D01*
X019872Y026314D01*
X019872Y025466D01*
X019790Y025466D01*
X019790Y025260D01*
X019770Y025260D01*
X019770Y025466D01*
X019666Y025466D01*
X019636Y025458D01*
X019609Y025442D01*
X019587Y025420D01*
X019572Y025393D01*
X019564Y025363D01*
X019564Y025259D01*
X019770Y025259D01*
X019770Y025240D01*
X019564Y025240D01*
X019564Y025135D01*
X019566Y025129D01*
X019321Y025094D01*
X012097Y025094D01*
X012097Y025120D02*
X019508Y025120D01*
X019564Y025198D02*
X012097Y025198D01*
X012097Y025275D02*
X019564Y025275D01*
X019564Y025352D02*
X012097Y025352D01*
X012097Y025429D02*
X019596Y025429D01*
X019770Y025429D02*
X019790Y025429D01*
X019790Y025352D02*
X019770Y025352D01*
X019770Y025275D02*
X019790Y025275D01*
X019872Y025507D02*
X012097Y025507D01*
X012097Y025584D02*
X019872Y025584D01*
X019872Y025661D02*
X012097Y025661D01*
X012097Y025739D02*
X019872Y025739D01*
X020471Y025739D01*
X020463Y025731D02*
X020535Y025803D01*
X020629Y025842D01*
X020731Y025842D01*
X020820Y025805D01*
X020832Y025826D01*
X020854Y025848D01*
X020880Y025863D01*
X020910Y025871D01*
X021015Y025871D01*
X021015Y025684D01*
X021034Y025684D01*
X021034Y025871D01*
X021138Y025871D01*
X021169Y025863D01*
X021188Y025852D01*
X021207Y025863D01*
X021237Y025871D01*
X021341Y025871D01*
X021341Y025684D01*
X021361Y025684D01*
X021361Y025871D01*
X021428Y025871D01*
X021428Y025936D01*
X021381Y026030D01*
X021213Y026198D01*
X021003Y026198D01*
X020953Y026249D01*
X020950Y026244D01*
X020928Y026222D01*
X020901Y026206D01*
X020871Y026198D01*
X020767Y026198D01*
X020767Y026405D01*
X020747Y026405D01*
X020747Y026198D01*
X020643Y026198D01*
X020613Y026206D01*
X020586Y026222D01*
X020564Y026244D01*
X020548Y026271D01*
X020540Y026301D01*
X020540Y026405D01*
X020747Y026405D01*
X020747Y026425D01*
X020747Y026631D01*
X020643Y026631D01*
X020613Y026623D01*
X020586Y026608D01*
X020564Y026586D01*
X020548Y026559D01*
X020540Y026529D01*
X020540Y026425D01*
X020747Y026425D01*
X020767Y026425D01*
X020767Y026631D01*
X020871Y026631D01*
X020901Y026623D01*
X020928Y026608D01*
X020950Y026586D01*
X020953Y026581D01*
X020954Y026582D01*
X020920Y026663D01*
X020920Y026765D01*
X020949Y026834D01*
X020218Y026834D01*
X020079Y026834D01*
X019823Y027090D01*
X019253Y027090D01*
X019184Y027159D01*
X019184Y027238D01*
X018899Y027238D01*
X018830Y027307D01*
X018830Y027601D01*
X018880Y027652D01*
X018875Y027655D01*
X018853Y027677D01*
X018838Y027704D01*
X018830Y027734D01*
X018830Y027838D01*
X019036Y027838D01*
X019036Y027858D01*
X019036Y028064D01*
X018932Y028064D01*
X018902Y028056D01*
X018875Y028041D01*
X018853Y028019D01*
X018838Y027992D01*
X018830Y027962D01*
X018830Y027858D01*
X019036Y027858D01*
X019056Y027858D01*
X019056Y028064D01*
X019160Y028064D01*
X019184Y028058D01*
X019184Y028059D01*
X019184Y028281D01*
X019577Y028281D01*
X019577Y028360D01*
X019184Y028360D01*
X019184Y028582D01*
X019192Y028612D01*
X019208Y028639D01*
X019230Y028661D01*
X019256Y028676D01*
X019286Y028684D01*
X019578Y028684D01*
X019578Y028360D01*
X019656Y028360D01*
X019656Y028684D01*
X019948Y028684D01*
X019978Y028676D01*
X020004Y028661D01*
X020026Y028639D01*
X020042Y028612D01*
X020050Y028582D01*
X020050Y028360D01*
X019656Y028360D01*
X019656Y028281D01*
X019656Y027956D01*
X019948Y027956D01*
X019978Y027964D01*
X020004Y027980D01*
X020607Y027980D01*
X020631Y027956D02*
X021359Y027956D01*
X021428Y028025D01*
X021428Y028153D01*
X021516Y028153D01*
X021634Y028035D01*
X021634Y027053D01*
X021634Y026953D01*
X021517Y027071D01*
X021421Y027166D01*
X021428Y027193D01*
X021428Y027415D01*
X021034Y027415D01*
X021034Y027493D01*
X021428Y027493D01*
X021428Y027716D01*
X021420Y027746D01*
X021404Y027773D01*
X021382Y027795D01*
X021356Y027810D01*
X021325Y027818D01*
X021034Y027818D01*
X021034Y027494D01*
X020956Y027494D01*
X020956Y027818D01*
X020664Y027818D01*
X020634Y027810D01*
X020607Y027795D01*
X020585Y027773D01*
X020570Y027746D01*
X020562Y027716D01*
X020562Y027493D01*
X020955Y027493D01*
X020955Y027415D01*
X020562Y027415D01*
X020562Y027193D01*
X020568Y027169D01*
X020218Y027169D01*
X020050Y027336D01*
X020050Y027749D01*
X019981Y027818D01*
X019263Y027818D01*
X019263Y027838D01*
X019056Y027838D01*
X019056Y027858D01*
X019263Y027858D01*
X019263Y027962D01*
X019262Y027963D01*
X019286Y027956D01*
X019578Y027956D01*
X019578Y028281D01*
X019656Y028281D01*
X020050Y028281D01*
X020050Y028059D01*
X020042Y028029D01*
X020026Y028002D01*
X020004Y027980D01*
X020050Y028057D02*
X020562Y028057D01*
X020562Y028025D02*
X020631Y027956D01*
X020562Y028025D02*
X020562Y028615D01*
X020621Y028675D01*
X020611Y028675D01*
X020591Y028675D01*
X020591Y028881D01*
X020385Y028881D01*
X020385Y028777D01*
X020393Y028747D01*
X020408Y028720D01*
X020430Y028698D01*
X020457Y028683D01*
X020487Y028675D01*
X020591Y028675D01*
X020611Y028675D02*
X020611Y028881D01*
X020591Y028881D01*
X020591Y028901D01*
X020385Y028901D01*
X020385Y029005D01*
X020393Y029035D01*
X020408Y029062D01*
X016014Y029062D01*
X012097Y029062D01*
X012097Y029139D02*
X016014Y029139D01*
X021633Y029139D01*
X021710Y029062D02*
X021188Y029062D01*
X021211Y029039D02*
X021142Y029108D01*
X020848Y029108D01*
X020797Y029057D01*
X020794Y029062D01*
X020772Y029084D01*
X020745Y029100D01*
X020715Y029108D01*
X020611Y029108D01*
X020611Y028901D01*
X020591Y028901D01*
X020591Y029108D01*
X020487Y029108D01*
X020457Y029100D01*
X020430Y029084D01*
X020408Y029062D01*
X020385Y028984D02*
X016014Y028984D01*
X012097Y028984D01*
X012097Y028907D02*
X016014Y028907D01*
X020385Y028907D01*
X020385Y028830D02*
X016014Y028830D01*
X012097Y028830D01*
X012097Y028753D02*
X016014Y028753D01*
X020391Y028753D01*
X020485Y028675D02*
X019980Y028675D01*
X020046Y028598D02*
X020562Y028598D01*
X020562Y028521D02*
X020050Y028521D01*
X020050Y028443D02*
X020562Y028443D01*
X020562Y028366D02*
X020050Y028366D01*
X020050Y028212D02*
X020562Y028212D01*
X020562Y028289D02*
X019656Y028289D01*
X019656Y028366D02*
X019578Y028366D01*
X019577Y028289D02*
X016014Y028289D01*
X012097Y028289D01*
X012097Y028366D02*
X016014Y028366D01*
X019184Y028366D01*
X019184Y028443D02*
X016014Y028443D01*
X012097Y028443D01*
X012097Y028521D02*
X016014Y028521D01*
X019184Y028521D01*
X019188Y028598D02*
X016014Y028598D01*
X012097Y028598D01*
X012097Y028675D02*
X016014Y028675D01*
X019254Y028675D01*
X019578Y028675D02*
X019656Y028675D01*
X019656Y028598D02*
X019578Y028598D01*
X019578Y028521D02*
X019656Y028521D01*
X019656Y028443D02*
X019578Y028443D01*
X019578Y028212D02*
X019656Y028212D01*
X019656Y028134D02*
X019578Y028134D01*
X019578Y028057D02*
X019656Y028057D01*
X019656Y027980D02*
X019578Y027980D01*
X019263Y027902D02*
X021634Y027902D01*
X021634Y027825D02*
X019263Y027825D01*
X019056Y027902D02*
X019036Y027902D01*
X019036Y027980D02*
X019056Y027980D01*
X019056Y028057D02*
X019036Y028057D01*
X018905Y028057D02*
X016014Y028057D01*
X012097Y028057D01*
X012097Y028134D02*
X016014Y028134D01*
X019184Y028134D01*
X019184Y028212D02*
X016014Y028212D01*
X012097Y028212D01*
X012097Y027980D02*
X016014Y027980D01*
X018834Y027980D01*
X018830Y027902D02*
X016014Y027902D01*
X012097Y027902D01*
X012097Y027825D02*
X016014Y027825D01*
X018830Y027825D01*
X018830Y027748D02*
X016014Y027748D01*
X012097Y027748D01*
X012097Y027671D02*
X016014Y027671D01*
X018860Y027671D01*
X018830Y027593D02*
X016014Y027593D01*
X012097Y027593D01*
X012097Y027516D02*
X016014Y027516D01*
X018830Y027516D01*
X018830Y027439D02*
X016014Y027439D01*
X012097Y027439D01*
X012097Y027361D02*
X016014Y027361D01*
X018830Y027361D01*
X018852Y027284D02*
X016014Y027284D01*
X012097Y027284D01*
X012097Y027207D02*
X016014Y027207D01*
X019184Y027207D01*
X019214Y027130D02*
X016014Y027130D01*
X012097Y027130D01*
X012097Y027052D02*
X016014Y027052D01*
X019861Y027052D01*
X019938Y026975D02*
X016014Y026975D01*
X012097Y026975D01*
X012097Y026898D02*
X016014Y026898D01*
X020016Y026898D01*
X020180Y027207D02*
X020562Y027207D01*
X020562Y027284D02*
X020102Y027284D01*
X020050Y027361D02*
X020562Y027361D01*
X020562Y027516D02*
X020050Y027516D01*
X020050Y027439D02*
X020955Y027439D01*
X020956Y027516D02*
X021034Y027516D01*
X021034Y027439D02*
X021634Y027439D01*
X021634Y027516D02*
X021428Y027516D01*
X021428Y027593D02*
X021634Y027593D01*
X021634Y027671D02*
X021428Y027671D01*
X021419Y027748D02*
X021634Y027748D01*
X021634Y027980D02*
X021382Y027980D01*
X021428Y028057D02*
X021612Y028057D01*
X021535Y028134D02*
X021428Y028134D01*
X021428Y028488D02*
X021428Y028615D01*
X021359Y028684D01*
X021172Y028684D01*
X021172Y028704D01*
X021211Y028744D01*
X021211Y029039D01*
X021211Y028984D02*
X021787Y028984D01*
X021864Y028907D02*
X021211Y028907D01*
X021211Y028830D02*
X021942Y028830D01*
X022019Y028753D02*
X021211Y028753D01*
X021368Y028675D02*
X022096Y028675D01*
X022174Y028598D02*
X021428Y028598D01*
X021428Y028521D02*
X022186Y028521D01*
X022186Y028586D02*
X022186Y026155D01*
X022139Y026155D01*
X022139Y026883D01*
X022041Y026981D01*
X021969Y027053D01*
X021969Y028174D01*
X021871Y028272D01*
X021655Y028488D01*
X021516Y028488D01*
X021428Y028488D01*
X021699Y028443D02*
X022186Y028443D01*
X022186Y028366D02*
X021776Y028366D01*
X021854Y028289D02*
X022186Y028289D01*
X022186Y028212D02*
X021931Y028212D01*
X021969Y028134D02*
X022186Y028134D01*
X022186Y028057D02*
X021969Y028057D01*
X021969Y027980D02*
X022186Y027980D01*
X022186Y027902D02*
X021969Y027902D01*
X021969Y027825D02*
X022186Y027825D01*
X022186Y027748D02*
X021969Y027748D01*
X021969Y027671D02*
X022186Y027671D01*
X022186Y027593D02*
X021969Y027593D01*
X021969Y027516D02*
X022186Y027516D01*
X022186Y027439D02*
X021969Y027439D01*
X021969Y027361D02*
X022186Y027361D01*
X022186Y027284D02*
X021969Y027284D01*
X021969Y027207D02*
X022186Y027207D01*
X022186Y027130D02*
X021969Y027130D01*
X021969Y027052D02*
X022186Y027052D01*
X022186Y026975D02*
X022046Y026975D01*
X022123Y026898D02*
X022186Y026898D01*
X022186Y026820D02*
X022139Y026820D01*
X022139Y026743D02*
X022186Y026743D01*
X022186Y026666D02*
X022139Y026666D01*
X022139Y026589D02*
X022186Y026589D01*
X022186Y026511D02*
X022139Y026511D01*
X022139Y026434D02*
X022186Y026434D01*
X022186Y026357D02*
X022139Y026357D01*
X022139Y026279D02*
X022186Y026279D01*
X022186Y026202D02*
X022139Y026202D01*
X021411Y025970D02*
X019872Y025970D01*
X012097Y025970D01*
X012097Y025893D02*
X019872Y025893D01*
X021428Y025893D01*
X021361Y025816D02*
X021341Y025816D01*
X021341Y025739D02*
X021361Y025739D01*
X021364Y026048D02*
X019872Y026048D01*
X012097Y026048D01*
X012097Y026125D02*
X019872Y026125D01*
X021286Y026125D01*
X020999Y026202D02*
X020885Y026202D01*
X020767Y026202D02*
X020747Y026202D01*
X020747Y026279D02*
X020767Y026279D01*
X020767Y026357D02*
X020747Y026357D01*
X020747Y026434D02*
X020767Y026434D01*
X020767Y026511D02*
X020747Y026511D01*
X020747Y026589D02*
X020767Y026589D01*
X020920Y026666D02*
X016014Y026666D01*
X012097Y026666D01*
X012097Y026743D02*
X016014Y026743D01*
X020920Y026743D01*
X020943Y026820D02*
X016014Y026820D01*
X012097Y026820D01*
X012097Y026589D02*
X016014Y026589D01*
X020567Y026589D01*
X020540Y026511D02*
X016014Y026511D01*
X012097Y026511D01*
X012097Y026434D02*
X016014Y026434D01*
X020540Y026434D01*
X020540Y026357D02*
X016014Y026357D01*
X012097Y026357D01*
X012097Y026279D02*
X019872Y026279D01*
X020546Y026279D01*
X020628Y026202D02*
X019872Y026202D01*
X012097Y026202D01*
X012097Y025816D02*
X019872Y025816D01*
X020566Y025816D01*
X020463Y025731D02*
X020444Y025684D01*
X019872Y025684D01*
X019872Y026314D01*
X016014Y026314D01*
X016014Y029626D01*
X016063Y029647D01*
X016181Y029765D01*
X016245Y029918D01*
X016245Y030085D01*
X016181Y030238D01*
X016063Y030356D01*
X016014Y030376D01*
X016014Y030626D01*
X016063Y030647D01*
X016181Y030765D01*
X016245Y030918D01*
X016245Y031085D01*
X016181Y031238D01*
X016063Y031356D01*
X016014Y031376D01*
X016014Y031626D01*
X016063Y031647D01*
X016181Y031765D01*
X016210Y031834D01*
X016615Y031834D01*
X016989Y031460D01*
X017127Y031460D01*
X019311Y031460D01*
X022186Y028586D01*
X021555Y029216D02*
X016014Y029216D01*
X012097Y029216D01*
X012097Y029294D02*
X016014Y029294D01*
X021478Y029294D01*
X021401Y029371D02*
X016014Y029371D01*
X012097Y029371D01*
X012097Y029448D02*
X016014Y029448D01*
X021323Y029448D01*
X021246Y029525D02*
X016014Y029525D01*
X012097Y029525D01*
X012097Y029603D02*
X015096Y029603D01*
X014957Y029680D02*
X012097Y029680D01*
X012097Y029757D02*
X014879Y029757D01*
X014843Y029835D02*
X012097Y029835D01*
X012097Y029912D02*
X014811Y029912D01*
X014808Y029989D02*
X012097Y029989D01*
X012097Y030066D02*
X014808Y030066D01*
X014833Y030144D02*
X012097Y030144D01*
X012097Y030221D02*
X014865Y030221D01*
X014932Y030298D02*
X012097Y030298D01*
X012097Y030376D02*
X015037Y030376D01*
X015085Y030607D02*
X012097Y030607D01*
X012097Y030530D02*
X016014Y030530D01*
X020241Y030530D01*
X020164Y030607D02*
X016014Y030607D01*
X015968Y030607D01*
X016101Y030685D02*
X020087Y030685D01*
X020010Y030762D02*
X016178Y030762D01*
X016212Y030839D02*
X019932Y030839D01*
X019855Y030916D02*
X016244Y030916D01*
X016245Y030994D02*
X019778Y030994D01*
X019700Y031071D02*
X016245Y031071D01*
X016218Y031148D02*
X019623Y031148D01*
X019546Y031226D02*
X016186Y031226D01*
X016116Y031303D02*
X019469Y031303D01*
X019391Y031380D02*
X016014Y031380D01*
X016004Y031380D01*
X016014Y031457D02*
X012097Y031457D01*
X012097Y031380D02*
X015048Y031380D01*
X014937Y031303D02*
X012097Y031303D01*
X012097Y031226D02*
X014867Y031226D01*
X014835Y031148D02*
X012097Y031148D01*
X012097Y031071D02*
X014808Y031071D01*
X014808Y030994D02*
X012097Y030994D01*
X012097Y030916D02*
X014809Y030916D01*
X014841Y030839D02*
X012097Y030839D01*
X012097Y030762D02*
X014875Y030762D01*
X014952Y030685D02*
X012097Y030685D01*
X012097Y030453D02*
X016014Y030453D01*
X020319Y030453D01*
X020396Y030376D02*
X016016Y030376D01*
X016121Y030298D02*
X020473Y030298D01*
X020551Y030221D02*
X016188Y030221D01*
X016220Y030144D02*
X020628Y030144D01*
X020705Y030066D02*
X016245Y030066D01*
X016245Y029989D02*
X020782Y029989D01*
X020860Y029912D02*
X016242Y029912D01*
X016210Y029835D02*
X020937Y029835D01*
X021014Y029757D02*
X016174Y029757D01*
X016096Y029680D02*
X021092Y029680D01*
X021169Y029603D02*
X016014Y029603D01*
X015956Y029603D01*
X016014Y031457D02*
X019314Y031457D01*
X020694Y031831D02*
X020694Y032180D01*
X021359Y032180D01*
X021359Y031165D01*
X020694Y031831D01*
X020694Y031844D02*
X021359Y031844D01*
X021359Y031921D02*
X020694Y031921D01*
X020694Y031998D02*
X021359Y031998D01*
X021359Y032076D02*
X020694Y032076D01*
X020694Y032153D02*
X021359Y032153D01*
X021694Y032153D02*
X022359Y032153D01*
X022359Y032180D02*
X022359Y031870D01*
X022225Y031736D01*
X022127Y031638D01*
X022127Y030653D01*
X021694Y031086D01*
X021694Y032180D01*
X022359Y032180D01*
X022359Y032076D02*
X021694Y032076D01*
X021694Y031998D02*
X022359Y031998D01*
X022359Y031921D02*
X021694Y031921D01*
X021694Y031844D02*
X022333Y031844D01*
X022256Y031767D02*
X021694Y031767D01*
X021694Y031689D02*
X022179Y031689D01*
X022127Y031612D02*
X021694Y031612D01*
X021694Y031535D02*
X022127Y031535D01*
X022127Y031457D02*
X021694Y031457D01*
X021694Y031380D02*
X022127Y031380D01*
X022127Y031303D02*
X021694Y031303D01*
X021694Y031226D02*
X022127Y031226D01*
X022127Y031148D02*
X021694Y031148D01*
X021709Y031071D02*
X022127Y031071D01*
X022127Y030994D02*
X021786Y030994D01*
X021864Y030916D02*
X022127Y030916D01*
X022127Y030839D02*
X021941Y030839D01*
X022018Y030762D02*
X022127Y030762D01*
X022127Y030685D02*
X022096Y030685D01*
X021359Y031226D02*
X021299Y031226D01*
X021359Y031303D02*
X021221Y031303D01*
X021144Y031380D02*
X021359Y031380D01*
X021359Y031457D02*
X021067Y031457D01*
X020990Y031535D02*
X021359Y031535D01*
X021359Y031612D02*
X020912Y031612D01*
X020835Y031689D02*
X021359Y031689D01*
X021359Y031767D02*
X020758Y031767D01*
X020794Y029062D02*
X020802Y029062D01*
X020611Y029062D02*
X020591Y029062D01*
X020591Y028984D02*
X020611Y028984D01*
X020611Y028907D02*
X020591Y028907D01*
X020591Y028830D02*
X020611Y028830D01*
X020611Y028753D02*
X020591Y028753D01*
X020562Y028134D02*
X020050Y028134D01*
X020050Y027748D02*
X020571Y027748D01*
X020562Y027671D02*
X020050Y027671D01*
X020050Y027593D02*
X020562Y027593D01*
X020956Y027593D02*
X021034Y027593D01*
X021034Y027671D02*
X020956Y027671D01*
X020956Y027748D02*
X021034Y027748D01*
X021428Y027361D02*
X021634Y027361D01*
X021634Y027284D02*
X021428Y027284D01*
X021428Y027207D02*
X021634Y027207D01*
X021634Y027130D02*
X021458Y027130D01*
X021535Y027052D02*
X021634Y027052D01*
X021634Y026975D02*
X021612Y026975D01*
X020951Y026589D02*
X020947Y026589D01*
X021015Y025816D02*
X021034Y025816D01*
X021034Y025739D02*
X021015Y025739D01*
X020826Y025816D02*
X020794Y025816D01*
X020325Y023884D02*
X018770Y023884D01*
X018593Y023884D01*
X018593Y023806D02*
X018770Y023806D01*
X020325Y023806D01*
X020361Y023729D02*
X018770Y023729D01*
X018590Y023729D01*
X018532Y023652D02*
X018770Y023652D01*
X020352Y023652D01*
X018386Y023652D02*
X018366Y023652D01*
X018366Y023729D02*
X018386Y023729D01*
X018386Y023806D02*
X018366Y023806D01*
X018366Y023843D02*
X018160Y023843D01*
X018160Y023739D01*
X018159Y023739D02*
X018159Y023843D01*
X017953Y023843D01*
X017953Y023863D01*
X018159Y023863D01*
X018159Y023912D01*
X018160Y023912D01*
X018160Y023863D01*
X018366Y023863D01*
X018366Y023843D01*
X018160Y023806D02*
X018159Y023806D01*
X018157Y023729D02*
X018162Y023729D01*
X018220Y023652D02*
X018099Y023652D01*
X017953Y023652D02*
X017933Y023652D01*
X017933Y023729D02*
X017953Y023729D01*
X017953Y023806D02*
X017933Y023806D01*
X018159Y023884D02*
X018160Y023884D01*
X012375Y021024D02*
X012197Y021024D01*
X012251Y020947D02*
X012120Y020947D01*
X012174Y020870D02*
X012043Y020870D01*
X012121Y020792D02*
X011861Y020792D01*
X011111Y025094D02*
X009911Y025094D01*
X009911Y031668D01*
X004360Y031668D01*
X004360Y036668D01*
X005581Y036668D01*
X005581Y035763D01*
X007687Y033657D01*
X010207Y033657D01*
X011112Y032751D01*
X011112Y025095D01*
X011111Y025094D01*
X011112Y025120D02*
X009911Y025120D01*
X009911Y025198D02*
X011112Y025198D01*
X011112Y025275D02*
X009911Y025275D01*
X009911Y025352D02*
X011112Y025352D01*
X011112Y025429D02*
X009911Y025429D01*
X009911Y025507D02*
X011112Y025507D01*
X011112Y025584D02*
X009911Y025584D01*
X009911Y025661D02*
X011112Y025661D01*
X011112Y025739D02*
X009911Y025739D01*
X009911Y025816D02*
X011112Y025816D01*
X011112Y025893D02*
X009911Y025893D01*
X009911Y025970D02*
X011112Y025970D01*
X011112Y026048D02*
X009911Y026048D01*
X009911Y026125D02*
X011112Y026125D01*
X011112Y026202D02*
X009911Y026202D01*
X009911Y026279D02*
X011112Y026279D01*
X011112Y026357D02*
X009911Y026357D01*
X009911Y026434D02*
X011112Y026434D01*
X011112Y026511D02*
X009911Y026511D01*
X009911Y026589D02*
X011112Y026589D01*
X011112Y026666D02*
X009911Y026666D01*
X009911Y026743D02*
X011112Y026743D01*
X011112Y026820D02*
X009911Y026820D01*
X009911Y026898D02*
X011112Y026898D01*
X011112Y026975D02*
X009911Y026975D01*
X009911Y027052D02*
X011112Y027052D01*
X011112Y027130D02*
X009911Y027130D01*
X009911Y027207D02*
X011112Y027207D01*
X011112Y027284D02*
X009911Y027284D01*
X009911Y027361D02*
X011112Y027361D01*
X011112Y027439D02*
X009911Y027439D01*
X009911Y027516D02*
X011112Y027516D01*
X011112Y027593D02*
X009911Y027593D01*
X009911Y027671D02*
X011112Y027671D01*
X011112Y027748D02*
X009911Y027748D01*
X009911Y027825D02*
X011112Y027825D01*
X011112Y027902D02*
X009911Y027902D01*
X009911Y027980D02*
X011112Y027980D01*
X011112Y028057D02*
X009911Y028057D01*
X009911Y028134D02*
X011112Y028134D01*
X011112Y028212D02*
X009911Y028212D01*
X009911Y028289D02*
X011112Y028289D01*
X011112Y028366D02*
X009911Y028366D01*
X009911Y028443D02*
X011112Y028443D01*
X011112Y028521D02*
X009911Y028521D01*
X009911Y028598D02*
X011112Y028598D01*
X011112Y028675D02*
X009911Y028675D01*
X009911Y028753D02*
X011112Y028753D01*
X011112Y028830D02*
X009911Y028830D01*
X009911Y028907D02*
X011112Y028907D01*
X011112Y028984D02*
X009911Y028984D01*
X009911Y029062D02*
X011112Y029062D01*
X011112Y029139D02*
X009911Y029139D01*
X009911Y029216D02*
X011112Y029216D01*
X011112Y029294D02*
X009911Y029294D01*
X009911Y029371D02*
X011112Y029371D01*
X011112Y029448D02*
X009911Y029448D01*
X009911Y029525D02*
X011112Y029525D01*
X011112Y029603D02*
X009911Y029603D01*
X009911Y029680D02*
X011112Y029680D01*
X011112Y029757D02*
X009911Y029757D01*
X009911Y029835D02*
X011112Y029835D01*
X011112Y029912D02*
X009911Y029912D01*
X009911Y029989D02*
X011112Y029989D01*
X011112Y030066D02*
X009911Y030066D01*
X009911Y030144D02*
X011112Y030144D01*
X011112Y030221D02*
X009911Y030221D01*
X009911Y030298D02*
X011112Y030298D01*
X011112Y030376D02*
X009911Y030376D01*
X009911Y030453D02*
X011112Y030453D01*
X011112Y030530D02*
X009911Y030530D01*
X009911Y030607D02*
X011112Y030607D01*
X011112Y030685D02*
X009911Y030685D01*
X009911Y030762D02*
X011112Y030762D01*
X011112Y030839D02*
X009911Y030839D01*
X009911Y030916D02*
X011112Y030916D01*
X011112Y030994D02*
X009911Y030994D01*
X009911Y031071D02*
X011112Y031071D01*
X011112Y031148D02*
X009911Y031148D01*
X009911Y031226D02*
X011112Y031226D01*
X011112Y031303D02*
X009911Y031303D01*
X009911Y031380D02*
X011112Y031380D01*
X011112Y031457D02*
X009911Y031457D01*
X009911Y031535D02*
X011112Y031535D01*
X011112Y031612D02*
X009911Y031612D01*
X011015Y032849D02*
X004360Y032849D01*
X004360Y032926D02*
X010937Y032926D01*
X010860Y033003D02*
X004360Y033003D01*
X004360Y033080D02*
X010783Y033080D01*
X010706Y033158D02*
X004360Y033158D01*
X004360Y033235D02*
X010628Y033235D01*
X010551Y033312D02*
X004360Y033312D01*
X004360Y033390D02*
X010474Y033390D01*
X010396Y033467D02*
X004360Y033467D01*
X004360Y033544D02*
X010319Y033544D01*
X010242Y033621D02*
X004360Y033621D01*
X004360Y033699D02*
X007645Y033699D01*
X007568Y033776D02*
X004360Y033776D01*
X004360Y033853D02*
X007490Y033853D01*
X007413Y033931D02*
X004360Y033931D01*
X004360Y034008D02*
X007336Y034008D01*
X007259Y034085D02*
X004360Y034085D01*
X004360Y034162D02*
X007181Y034162D01*
X007104Y034240D02*
X004360Y034240D01*
X004360Y034317D02*
X007027Y034317D01*
X006949Y034394D02*
X004360Y034394D01*
X004360Y034472D02*
X006872Y034472D01*
X006795Y034549D02*
X004360Y034549D01*
X004360Y034626D02*
X006718Y034626D01*
X006640Y034703D02*
X004360Y034703D01*
X004360Y034781D02*
X006563Y034781D01*
X006486Y034858D02*
X004360Y034858D01*
X004360Y034935D02*
X006408Y034935D01*
X006331Y035013D02*
X004360Y035013D01*
X004360Y035090D02*
X006254Y035090D01*
X006177Y035167D02*
X004360Y035167D01*
X004360Y035244D02*
X006099Y035244D01*
X006022Y035322D02*
X004360Y035322D01*
X004360Y035399D02*
X005945Y035399D01*
X005867Y035476D02*
X004360Y035476D01*
X004360Y035554D02*
X005790Y035554D01*
X005713Y035631D02*
X004360Y035631D01*
X004360Y035708D02*
X005636Y035708D01*
X005581Y035785D02*
X004360Y035785D01*
X004360Y035863D02*
X005581Y035863D01*
X005581Y035940D02*
X004360Y035940D01*
X004360Y036017D02*
X005581Y036017D01*
X005581Y036094D02*
X004360Y036094D01*
X004360Y036172D02*
X005581Y036172D01*
X005581Y036249D02*
X004360Y036249D01*
X004360Y036326D02*
X005581Y036326D01*
X005581Y036404D02*
X004360Y036404D01*
X004360Y036481D02*
X005581Y036481D01*
X005581Y036558D02*
X004360Y036558D01*
X004360Y036635D02*
X005581Y036635D01*
X006565Y036635D02*
X016014Y036635D01*
X016014Y036558D02*
X006565Y036558D01*
X006565Y036481D02*
X016014Y036481D01*
X016014Y036404D02*
X006931Y036404D01*
X006924Y036326D02*
X006896Y036326D01*
X006846Y036249D02*
X006818Y036249D01*
X006793Y036249D02*
X006765Y036249D01*
X006716Y036326D02*
X006688Y036326D01*
X006681Y036404D02*
X006565Y036404D01*
X006592Y036326D02*
X006604Y036326D01*
X006843Y036172D02*
X006871Y036172D01*
X006920Y036094D02*
X006948Y036094D01*
X006984Y036094D02*
X016014Y036094D01*
X016014Y036017D02*
X006907Y036017D01*
X006983Y035940D02*
X016014Y035940D01*
X016014Y035863D02*
X007061Y035863D01*
X007140Y035785D02*
X007304Y035785D01*
X007306Y035708D02*
X007334Y035708D01*
X007384Y035631D02*
X007412Y035631D01*
X007441Y035631D02*
X007469Y035631D01*
X007441Y035602D02*
X007587Y035748D01*
X007660Y035674D01*
X007676Y035648D01*
X007684Y035617D01*
X007684Y035586D01*
X007676Y035556D01*
X007660Y035529D01*
X007587Y035456D01*
X007441Y035602D01*
X007461Y035554D02*
X007489Y035554D01*
X007538Y035476D02*
X007566Y035476D01*
X007607Y035476D02*
X016014Y035476D01*
X016014Y035399D02*
X007530Y035399D01*
X007609Y035322D02*
X016014Y035322D01*
X016014Y035244D02*
X007687Y035244D01*
X007765Y035167D02*
X016014Y035167D01*
X016014Y035090D02*
X007843Y035090D01*
X007921Y035013D02*
X016014Y035013D01*
X016014Y034935D02*
X007999Y034935D01*
X008078Y034858D02*
X016014Y034858D01*
X016014Y034781D02*
X008156Y034781D01*
X008234Y034703D02*
X016014Y034703D01*
X016014Y034626D02*
X010615Y034626D01*
X010692Y034549D02*
X016014Y034549D01*
X016014Y034472D02*
X010770Y034472D01*
X010847Y034394D02*
X016014Y034394D01*
X016014Y034317D02*
X010924Y034317D01*
X011002Y034240D02*
X016014Y034240D01*
X016014Y034162D02*
X011079Y034162D01*
X011156Y034085D02*
X016014Y034085D01*
X016014Y034008D02*
X011233Y034008D01*
X011311Y033931D02*
X016014Y033931D01*
X016014Y033853D02*
X011388Y033853D01*
X011465Y033776D02*
X016014Y033776D01*
X016014Y033699D02*
X011543Y033699D01*
X011620Y033621D02*
X016014Y033621D01*
X016014Y033544D02*
X011697Y033544D01*
X011774Y033467D02*
X016014Y033467D01*
X016014Y033390D02*
X011852Y033390D01*
X011929Y033312D02*
X016014Y033312D01*
X016014Y033235D02*
X012006Y033235D01*
X012084Y033158D02*
X016014Y033158D01*
X016014Y033080D02*
X012097Y033080D01*
X012097Y033003D02*
X016014Y033003D01*
X016014Y032926D02*
X012097Y032926D01*
X012097Y032849D02*
X016014Y032849D01*
X016014Y032771D02*
X012097Y032771D01*
X012097Y032694D02*
X016014Y032694D01*
X016014Y032617D02*
X012097Y032617D01*
X012097Y032539D02*
X016014Y032539D01*
X016014Y032462D02*
X012097Y032462D01*
X012097Y032385D02*
X015060Y032385D01*
X014941Y032308D02*
X012097Y032308D01*
X012097Y032230D02*
X014869Y032230D01*
X014837Y032153D02*
X012097Y032153D01*
X012097Y032076D02*
X014808Y032076D01*
X014808Y031998D02*
X012097Y031998D01*
X012097Y031921D02*
X014808Y031921D01*
X014839Y031844D02*
X012097Y031844D01*
X012097Y031767D02*
X014871Y031767D01*
X014947Y031689D02*
X012097Y031689D01*
X012097Y031612D02*
X015074Y031612D01*
X015979Y031612D02*
X016014Y031612D01*
X016837Y031612D01*
X016914Y031535D02*
X016014Y031535D01*
X012097Y031535D01*
X011112Y031689D02*
X004360Y031689D01*
X004360Y031767D02*
X011112Y031767D01*
X011112Y031844D02*
X004360Y031844D01*
X004360Y031921D02*
X011112Y031921D01*
X011112Y031998D02*
X004360Y031998D01*
X004360Y032076D02*
X011112Y032076D01*
X011112Y032153D02*
X004360Y032153D01*
X004360Y032230D02*
X011112Y032230D01*
X011112Y032308D02*
X004360Y032308D01*
X004360Y032385D02*
X011112Y032385D01*
X011112Y032462D02*
X004360Y032462D01*
X004360Y032539D02*
X011112Y032539D01*
X011112Y032617D02*
X004360Y032617D01*
X004360Y032694D02*
X011112Y032694D01*
X011092Y032771D02*
X004360Y032771D01*
X007218Y035708D02*
X007227Y035708D01*
X007519Y035708D02*
X007547Y035708D01*
X007549Y035785D02*
X016014Y035785D01*
X016014Y035708D02*
X007627Y035708D01*
X007680Y035631D02*
X016014Y035631D01*
X016014Y035554D02*
X007674Y035554D01*
X007052Y036172D02*
X016014Y036172D01*
X016014Y036249D02*
X007060Y036249D01*
X007008Y036326D02*
X016014Y036326D01*
X015993Y032385D02*
X016014Y032385D01*
X016182Y031767D02*
X016682Y031767D01*
X016759Y031689D02*
X016106Y031689D01*
X028003Y024698D02*
X028023Y024718D01*
X040104Y028432D02*
X040203Y028334D01*
X040203Y028235D01*
X040104Y028432D02*
X040104Y029082D01*
X040321Y029298D01*
X040577Y023521D02*
X040864Y023521D01*
X041024Y023361D01*
X041817Y018747D02*
X042132Y018747D01*
X042211Y018668D01*
X042211Y016601D01*
X042329Y016483D01*
X042329Y016129D01*
X042427Y016031D01*
X042604Y016031D01*
X042723Y016483D02*
X042998Y016483D01*
X042624Y015086D02*
X042604Y015086D01*
X041030Y015086D02*
X040439Y015086D01*
X040439Y015479D02*
X040439Y015755D01*
D54*
X005620Y007259D03*
X008534Y009725D03*
X008809Y006944D03*
X009439Y006944D03*
X011742Y009660D03*
X012982Y009660D03*
X016132Y008597D03*
X016526Y008243D03*
X018494Y010251D03*
X020305Y012220D03*
X021393Y012688D03*
X021393Y011688D03*
X021393Y010688D03*
X021014Y008597D03*
X020443Y008243D03*
X020266Y007731D03*
X021196Y006867D03*
X021604Y007338D03*
X021211Y006235D03*
X021196Y005725D03*
X021200Y005134D03*
X022872Y006629D03*
X025266Y007416D03*
X027352Y007220D03*
X028258Y007653D03*
X028691Y007259D03*
X030305Y006865D03*
X031171Y007653D03*
X033494Y005094D03*
X031250Y004660D03*
X029715Y003873D03*
X028179Y004700D03*
X027392Y003873D03*
X028258Y002534D03*
X031171Y002574D03*
X035974Y006865D03*
X036014Y008007D03*
X036880Y008046D03*
X038022Y007180D03*
X040502Y007101D03*
X035541Y009975D03*
X035502Y010566D03*
X039045Y014995D03*
X039770Y015401D03*
X040439Y015755D03*
X040498Y016129D03*
X041030Y016444D03*
X041951Y017660D03*
X041250Y018834D03*
X041266Y020440D03*
X041305Y020775D03*
X041368Y022042D03*
X042132Y022515D03*
X042565Y022783D03*
X042270Y023223D03*
X041742Y023775D03*
X041024Y023361D03*
X040581Y022660D03*
X039754Y022298D03*
X039478Y023479D03*
X039478Y024188D03*
X038628Y024357D03*
X037805Y023767D03*
X037805Y023511D03*
X037805Y023255D03*
X037805Y022999D03*
X037786Y022101D03*
X036467Y021806D03*
X035896Y022456D03*
X036683Y020920D03*
X036644Y020448D03*
X036053Y019818D03*
X035600Y018519D03*
X034400Y018007D03*
X036368Y016550D03*
X037116Y017534D03*
X037549Y017141D03*
X038081Y017928D03*
X038652Y018145D03*
X039498Y018558D03*
X038612Y020534D03*
X040935Y024385D03*
X040187Y025771D03*
X040246Y026235D03*
X039971Y026491D03*
X040715Y026346D03*
X039872Y027653D03*
X038313Y027842D03*
X037549Y028369D03*
X037703Y029338D03*
X038140Y029031D03*
X038589Y029259D03*
X038825Y029613D03*
X039258Y029534D03*
X039518Y029779D03*
X039163Y029936D03*
X039085Y030290D03*
X038809Y030527D03*
X038648Y031267D03*
X039041Y031306D03*
X039439Y031897D03*
X039041Y032192D03*
X038667Y032192D03*
X039534Y032546D03*
X040203Y032861D03*
X038667Y033235D03*
X037703Y033235D03*
X037683Y032094D03*
X037392Y031432D03*
X037683Y030952D03*
X037526Y030716D03*
X037329Y030499D03*
X037408Y029810D03*
X036955Y029318D03*
X036683Y029708D03*
X035675Y030164D03*
X036463Y031995D03*
X035951Y032487D03*
X036600Y033373D03*
X036880Y034038D03*
X039715Y030763D03*
X039888Y029534D03*
X040699Y029531D03*
X041191Y029542D03*
X042486Y026031D03*
X042506Y025401D03*
X043022Y023723D03*
X037250Y025401D03*
X037250Y025696D03*
X036526Y025881D03*
X036506Y026668D03*
X033337Y030527D03*
X029747Y026942D03*
X029432Y026549D03*
X030298Y026076D03*
X031007Y025997D03*
X029747Y025053D03*
X029373Y024738D03*
X028692Y024797D03*
X029038Y025663D03*
X030298Y024186D03*
X028101Y023517D03*
X027215Y025013D03*
X026845Y024986D03*
X024816Y024895D03*
X024816Y024501D03*
X024816Y024108D03*
X024422Y024108D03*
X024422Y024501D03*
X024028Y024501D03*
X023635Y024501D03*
X023635Y024108D03*
X024028Y024108D03*
X024028Y023714D03*
X023635Y023714D03*
X023241Y023714D03*
X023241Y024108D03*
X023241Y024501D03*
X023241Y024895D03*
X023635Y024895D03*
X024028Y024895D03*
X024028Y025289D03*
X023635Y025289D03*
X023241Y025289D03*
X023026Y025852D03*
X022708Y025623D03*
X021269Y025992D03*
X020950Y026003D03*
X020680Y025586D03*
X020271Y026482D03*
X020542Y026726D03*
X021176Y026714D03*
X021526Y027444D03*
X022077Y027405D03*
X021967Y028433D03*
X020550Y029240D03*
X020314Y028885D03*
X019605Y028787D03*
X019015Y028492D03*
X019015Y028177D03*
X018719Y027842D03*
X017916Y028005D03*
X017572Y027385D03*
X018084Y026933D03*
X017670Y026322D03*
X018211Y026066D03*
X018143Y025289D03*
X017552Y025299D03*
X016725Y025338D03*
X016843Y026007D03*
X017089Y026627D03*
X016568Y027464D03*
X017168Y028242D03*
X017011Y028753D03*
X016656Y029383D03*
X015908Y029029D03*
X015347Y028803D03*
X014521Y028724D03*
X013694Y029039D03*
X013182Y029747D03*
X012552Y029452D03*
X012926Y028645D03*
X012296Y028547D03*
X012749Y027681D03*
X013458Y027661D03*
X013576Y028291D03*
X014284Y027740D03*
X014717Y026952D03*
X015072Y026401D03*
X015899Y026716D03*
X016017Y025771D03*
X015269Y025377D03*
X014422Y026007D03*
X014186Y025338D03*
X013261Y025318D03*
X012808Y025692D03*
X012276Y025929D03*
X012234Y025330D03*
X012648Y026531D03*
X013261Y026913D03*
X014028Y026834D03*
X013477Y026125D03*
X012237Y027149D03*
X010859Y027385D03*
X010485Y027621D03*
X010032Y027385D03*
X010485Y026913D03*
X010859Y026559D03*
X010859Y025850D03*
X010485Y025653D03*
X010030Y025842D03*
X010030Y025231D03*
X010856Y025231D03*
X010032Y026559D03*
X010032Y028133D03*
X010446Y028448D03*
X010839Y028133D03*
X010761Y028842D03*
X010780Y029511D03*
X010406Y029787D03*
X010030Y029464D03*
X010030Y028794D03*
X010111Y030614D03*
X010150Y031440D03*
X010030Y031865D03*
X009793Y032534D03*
X009400Y033011D03*
X009203Y033471D03*
X010057Y033405D03*
X010662Y032779D03*
X010780Y031578D03*
X010702Y030594D03*
X012513Y030673D03*
X012473Y031559D03*
X012434Y032346D03*
X012276Y033055D03*
X012276Y033842D03*
X011607Y033999D03*
X011115Y034334D03*
X011160Y034842D03*
X011770Y034802D03*
X012352Y034712D03*
X012710Y035535D03*
X012355Y036165D03*
X011711Y035617D03*
X011014Y035735D03*
X010505Y035338D03*
X010328Y034807D03*
X009703Y034971D03*
X009284Y034905D03*
X008742Y034960D03*
X008380Y034853D03*
X008793Y035538D03*
X009006Y035960D03*
X009073Y036432D03*
X008506Y036432D03*
X008510Y035960D03*
X008223Y035668D03*
X007770Y035763D03*
X007547Y035970D03*
X008018Y036157D03*
X007703Y036471D03*
X007152Y036353D03*
X006950Y036563D03*
X005384Y036550D03*
X005057Y036168D03*
X005226Y035684D03*
X005620Y035448D03*
X006093Y034897D03*
X005636Y034696D03*
X005045Y034708D03*
X004927Y035196D03*
X004506Y035011D03*
X004624Y034208D03*
X004545Y033511D03*
X004585Y032747D03*
X004703Y031971D03*
X005467Y031893D03*
X005754Y032668D03*
X005309Y033460D03*
X005730Y034038D03*
X006108Y033511D03*
X006675Y032763D03*
X006486Y031865D03*
X007313Y031865D03*
X007620Y032641D03*
X007982Y033479D03*
X008612Y033479D03*
X008691Y032574D03*
X009124Y031865D03*
X008219Y031865D03*
X007321Y033590D03*
X006880Y033952D03*
X006683Y034385D03*
X004573Y035775D03*
X004478Y036550D03*
X009478Y035471D03*
X010041Y035893D03*
X009757Y036440D03*
X010584Y036440D03*
X011568Y036362D03*
X013261Y036440D03*
X014127Y036125D03*
X014993Y036362D03*
X015820Y036165D03*
X015820Y035220D03*
X014993Y035338D03*
X014127Y035181D03*
X013891Y034354D03*
X013064Y034629D03*
X013497Y035456D03*
X013103Y033566D03*
X013221Y032621D03*
X013339Y031637D03*
X013930Y031086D03*
X013615Y030614D03*
X013812Y030102D03*
X014166Y032149D03*
X014127Y033291D03*
X014954Y033881D03*
X015820Y034472D03*
X015899Y032700D03*
X016526Y031511D03*
X016656Y030683D03*
X017365Y030289D03*
X017562Y029462D03*
X018310Y029462D03*
X018782Y030289D03*
X018192Y030643D03*
X018455Y031314D03*
X019321Y031275D03*
X019570Y030525D03*
X020160Y030289D03*
X020633Y029659D03*
X019845Y029462D03*
X019137Y029383D03*
X018271Y028675D03*
X018900Y026903D03*
X019688Y026470D03*
X019755Y026072D03*
X019304Y025887D03*
X018979Y026116D03*
X018812Y025279D03*
X019461Y025336D03*
X019658Y023665D03*
X019717Y023261D03*
X019609Y022828D03*
X019097Y022700D03*
X018930Y023025D03*
X018507Y022769D03*
X018664Y022100D03*
X018822Y021312D03*
X019452Y020761D03*
X019097Y020289D03*
X017956Y020131D03*
X017877Y019462D03*
X016932Y019934D03*
X017011Y020801D03*
X017119Y021559D03*
X017828Y021834D03*
X017956Y020840D03*
X016686Y022543D03*
X016213Y021873D03*
X015347Y021598D03*
X015269Y022346D03*
X015820Y023055D03*
X016410Y023645D03*
X017589Y023755D03*
X017943Y023519D03*
X018376Y023519D03*
X018730Y023755D03*
X017601Y022897D03*
X015741Y020889D03*
X015869Y020249D03*
X014954Y020023D03*
X014402Y020771D03*
X013851Y021480D03*
X013497Y020889D03*
X013044Y021519D03*
X013418Y022503D03*
X013044Y023212D03*
X013221Y023684D03*
X013930Y023527D03*
X014481Y022976D03*
X015111Y023645D03*
X014284Y022031D03*
X012336Y023350D03*
X012257Y023744D03*
X010938Y023507D03*
X010623Y023507D03*
X010328Y023507D03*
X010032Y023507D03*
X010387Y021559D03*
X011489Y020102D03*
X011253Y019354D03*
X011765Y018684D03*
X011765Y017858D03*
X012513Y018055D03*
X013143Y018527D03*
X013339Y017818D03*
X013379Y016755D03*
X012434Y017031D03*
X012434Y016204D03*
X011725Y016244D03*
X011332Y015535D03*
X011647Y014590D03*
X011174Y013803D03*
X010269Y013763D03*
X010190Y014511D03*
X010150Y015653D03*
X010111Y016952D03*
X010150Y017936D03*
X010820Y018291D03*
X010111Y018803D03*
X010190Y019787D03*
X012395Y019354D03*
X013773Y019472D03*
X011292Y017070D03*
X012591Y015220D03*
X013339Y015574D03*
X013654Y014747D03*
X014196Y014482D03*
X014048Y013566D03*
X013202Y013891D03*
X012355Y013527D03*
X014087Y015771D03*
X015150Y016007D03*
X015977Y015417D03*
X015308Y014905D03*
X015032Y013645D03*
X018074Y017021D03*
X019243Y017474D03*
X019412Y018084D03*
X020267Y017789D03*
X020908Y017651D03*
X021617Y017848D03*
X021420Y017060D03*
X020523Y016942D03*
X020278Y018793D03*
X020306Y019403D03*
X021152Y019088D03*
X021656Y018596D03*
X022247Y017730D03*
X022609Y019265D03*
X022089Y020186D03*
X022129Y020540D03*
X022444Y020919D03*
X022820Y021356D03*
X023200Y020978D03*
X022629Y021899D03*
X022845Y022194D03*
X022062Y021637D03*
X021684Y021657D03*
X021801Y021312D03*
X021507Y021982D03*
X021784Y022214D03*
X021617Y022557D03*
X021320Y022328D03*
X021113Y021667D03*
X020822Y021293D03*
X020523Y021824D03*
X020523Y022139D03*
X020475Y022612D03*
X020834Y023066D03*
X021168Y023068D03*
X020532Y023470D03*
X020187Y023637D03*
X020003Y022179D03*
X019806Y021391D03*
X021125Y020604D03*
X021519Y020604D03*
X023066Y023135D03*
X022696Y023419D03*
X023534Y023163D03*
X024422Y023714D03*
X024816Y023714D03*
X024422Y024895D03*
X024422Y025289D03*
X024816Y025289D03*
X024243Y027690D03*
X024243Y028104D03*
X023109Y030100D03*
X023475Y030997D03*
X021971Y032060D03*
X020948Y032060D03*
X020817Y033834D03*
X020384Y034267D03*
X021408Y034897D03*
X021841Y035094D03*
X021329Y035487D03*
X022825Y035527D03*
X023100Y035251D03*
X022943Y036078D03*
X023691Y035527D03*
X024085Y035527D03*
X024518Y035527D03*
X024951Y035448D03*
X024951Y035999D03*
X025541Y035330D03*
X025879Y036240D03*
X024242Y037672D03*
X023809Y037534D03*
X023061Y037377D03*
X024085Y036078D03*
X019715Y037613D03*
X018927Y038834D03*
X017471Y031314D03*
X015948Y028242D03*
X015229Y027464D03*
X017001Y018606D03*
X016607Y017582D03*
X020374Y013833D03*
X021393Y013688D03*
X025326Y019679D03*
X025641Y020368D03*
X027037Y011157D03*
X028258Y010290D03*
X025266Y004700D03*
X041998Y015094D03*
X043136Y015086D03*
X042998Y016483D03*
X031900Y037751D03*
X028888Y037968D03*
X029557Y046157D03*
X032953Y047221D03*
X033453Y046721D03*
X033845Y046221D03*
X036014Y044109D03*
X037392Y044109D03*
X036723Y046905D03*
X037859Y047106D03*
X042786Y040597D03*
X043297Y040007D03*
X006447Y012220D03*
D55*
X022082Y021980D02*
X022087Y021974D01*
D56*
X022349Y021742D02*
X022349Y021495D01*
X022129Y021275D01*
X022444Y020960D01*
X022444Y020919D01*
X022530Y021234D02*
X022782Y020983D01*
X022782Y020323D01*
X020956Y018497D01*
X019243Y018497D01*
X018526Y017781D01*
X018920Y017486D02*
X018932Y017474D01*
X019243Y017474D01*
X019558Y019088D02*
X017526Y017057D01*
X017526Y016001D01*
X016526Y016001D02*
X016526Y016883D01*
X019046Y019403D01*
X020306Y019403D01*
X019558Y019088D02*
X021152Y019088D01*
X021097Y021293D02*
X021125Y021320D01*
X021125Y021655D01*
X021113Y021667D01*
X021097Y021293D02*
X020822Y021293D01*
X021523Y021320D02*
X021530Y021312D01*
X021801Y021312D01*
X021523Y021320D02*
X021523Y021496D01*
X021684Y021657D01*
X021784Y022214D02*
X021944Y022373D01*
X022082Y022373D01*
X022552Y022749D02*
X022552Y021976D01*
X022629Y021899D01*
X022923Y021924D02*
X022955Y021924D01*
X023085Y022054D01*
X023085Y022078D01*
X023112Y022105D01*
X023112Y022306D01*
X022946Y022473D01*
X022946Y022749D01*
X023143Y022749D02*
X023143Y022543D01*
X023322Y022364D01*
X023322Y022068D01*
X023274Y022021D01*
X023274Y021864D01*
X023237Y021864D01*
X022820Y021447D01*
X022820Y021356D01*
X022726Y021609D02*
X022923Y021806D01*
X022923Y021924D01*
X022845Y022194D02*
X022749Y022291D01*
X022749Y022749D01*
X022578Y023135D02*
X023066Y023135D01*
X022696Y023419D02*
X022276Y023419D01*
X022276Y023222D02*
X022491Y023222D01*
X022578Y023135D01*
X022687Y021609D02*
X022530Y021453D01*
X022530Y021234D01*
X022687Y021609D02*
X022726Y021609D01*
X023274Y021470D02*
X023274Y021053D01*
X023200Y020978D01*
X023930Y021999D02*
X025009Y020920D01*
X025226Y020920D01*
X025326Y020821D01*
X025326Y020368D01*
X025345Y021117D02*
X025088Y021117D01*
X024127Y022078D01*
X024127Y022749D01*
X024324Y022749D02*
X024324Y022137D01*
X025147Y021314D01*
X025463Y021314D01*
X025581Y021511D02*
X025226Y021511D01*
X024521Y022216D01*
X024521Y022749D01*
X024717Y022749D02*
X024717Y022314D01*
X025324Y021708D01*
X025699Y021708D01*
X027526Y019880D01*
X027526Y016001D01*
X028526Y016001D02*
X028526Y019195D01*
X025817Y021905D01*
X025403Y021905D01*
X024914Y022393D01*
X024914Y022749D01*
X025111Y022749D02*
X025111Y022472D01*
X025482Y022101D01*
X025896Y022101D01*
X029526Y018471D01*
X029526Y016001D01*
X030526Y016001D02*
X030526Y017786D01*
X025974Y022338D01*
X025521Y022338D01*
X025308Y022551D01*
X025308Y022749D01*
X025787Y023806D02*
X028699Y023806D01*
X031503Y021001D01*
X032526Y021001D01*
X032526Y022001D02*
X030807Y022001D01*
X028821Y023987D01*
X026124Y023987D01*
X026102Y024009D01*
X025780Y024009D01*
X025780Y023812D02*
X025787Y023806D01*
X025780Y024206D02*
X026150Y024206D01*
X026192Y024164D01*
X028940Y024164D01*
X030103Y023001D01*
X032526Y023001D01*
X032515Y023990D02*
X031723Y023990D01*
X031330Y023596D01*
X029786Y023596D01*
X029038Y024344D01*
X026389Y024344D01*
X026330Y024403D01*
X025780Y024403D01*
X025780Y024600D02*
X026389Y024600D01*
X026467Y024521D01*
X029156Y024521D01*
X029904Y023773D01*
X031015Y023773D01*
X032196Y024954D01*
X032479Y024954D01*
X032526Y025001D01*
X032523Y025997D02*
X031007Y025997D01*
X032523Y025997D02*
X032526Y026001D01*
X032526Y024001D02*
X032515Y023990D01*
X029668Y024777D02*
X029629Y024738D01*
X029373Y024738D01*
X029038Y025663D02*
X028613Y025663D01*
X028023Y025072D01*
X028023Y024759D01*
X028023Y024718D01*
X028003Y024698D02*
X026566Y024698D01*
X026467Y024797D01*
X025780Y024797D01*
X025780Y025190D02*
X026152Y025190D01*
X028963Y028001D01*
X032526Y028001D01*
X032526Y029001D02*
X029708Y029001D01*
X026093Y025387D01*
X025780Y025387D01*
X025780Y025584D02*
X026034Y025584D01*
X030452Y030001D01*
X032526Y030001D01*
X032526Y031001D02*
X031193Y031001D01*
X025973Y025781D01*
X025780Y025781D01*
X025780Y025978D02*
X025780Y026118D01*
X031664Y032001D01*
X032526Y032001D01*
X031526Y032120D02*
X031526Y033001D01*
X031526Y032120D02*
X025660Y026253D01*
X025505Y026253D01*
X025308Y026253D02*
X025308Y026492D01*
X030526Y031710D01*
X030526Y033001D01*
X029526Y033001D02*
X029519Y032994D01*
X029519Y031017D01*
X025111Y026610D01*
X025111Y026253D01*
X024914Y026253D02*
X024914Y026708D01*
X028534Y030328D01*
X028534Y032994D01*
X028526Y033001D01*
X027530Y032997D02*
X027526Y033001D01*
X027530Y032997D02*
X027530Y029659D01*
X024717Y026846D01*
X024717Y026253D01*
X024521Y026253D02*
X024521Y026984D01*
X026526Y028990D01*
X026526Y033001D01*
X025526Y033001D02*
X025526Y028285D01*
X024324Y027082D01*
X024324Y026253D01*
X024127Y026253D02*
X024127Y027181D01*
X024526Y027580D01*
X024526Y033001D01*
X024513Y034700D02*
X024513Y035522D01*
X024518Y035527D01*
X024013Y035205D02*
X024013Y034700D01*
X024013Y035205D02*
X023691Y035527D01*
X022526Y033001D02*
X022526Y031801D01*
X022294Y031568D01*
X022294Y030505D01*
X023672Y029127D01*
X023672Y027120D01*
X023733Y027059D01*
X023733Y026253D01*
X023536Y026253D02*
X023536Y026999D01*
X023495Y027041D01*
X023495Y029049D01*
X021526Y031017D01*
X021526Y033001D01*
X020526Y033001D02*
X020526Y031761D01*
X023318Y028970D01*
X023318Y026923D01*
X023339Y026901D01*
X023339Y026253D01*
X023143Y026253D02*
X023143Y026726D01*
X023141Y026728D01*
X023141Y028891D01*
X019617Y032415D01*
X019617Y032572D01*
X019617Y032159D02*
X019125Y032159D01*
X018526Y032757D01*
X018259Y031982D02*
X017530Y032710D01*
X017471Y031805D02*
X016526Y032749D01*
X016526Y033001D01*
X016684Y032001D02*
X015526Y032001D01*
X016684Y032001D02*
X017058Y031627D01*
X019381Y031627D01*
X022353Y028655D01*
X022353Y026055D01*
X022276Y025978D01*
X022276Y025781D02*
X022463Y025781D01*
X022589Y025907D01*
X022971Y025907D01*
X023026Y025852D01*
X022708Y025623D02*
X022668Y025584D01*
X022276Y025584D01*
X022276Y025387D02*
X022117Y025387D01*
X022019Y025450D01*
X021971Y025533D01*
X021971Y026813D01*
X021801Y026983D01*
X021801Y028105D01*
X021586Y028320D01*
X020995Y028320D01*
X021349Y027001D02*
X020149Y027001D01*
X019704Y027446D01*
X019696Y027454D01*
X019617Y027454D01*
X021176Y026714D02*
X021176Y026401D01*
X021704Y026647D02*
X021349Y027001D01*
X021704Y026647D02*
X021704Y026234D01*
X021794Y026135D01*
X021794Y025466D01*
X021885Y025324D01*
X022078Y025190D01*
X022097Y025190D01*
X022552Y026253D02*
X022552Y028712D01*
X019460Y031805D01*
X017471Y031805D01*
X018259Y031982D02*
X019538Y031982D01*
X022749Y028771D01*
X022749Y026253D01*
X022946Y026253D02*
X022946Y028830D01*
X019617Y032159D01*
X023914Y027535D02*
X023930Y027519D01*
X023930Y026253D01*
X023143Y026726D02*
X023143Y026803D01*
X035990Y018944D02*
X035990Y018157D01*
X036364Y018157D01*
X036364Y021247D01*
X037506Y022389D01*
X039238Y022389D01*
X040104Y023255D01*
X040567Y023255D01*
X040577Y023265D01*
X041467Y023775D02*
X041742Y023775D01*
X042132Y022515D02*
X042132Y022212D01*
X041817Y020716D02*
X041364Y020716D01*
X041305Y020775D01*
X041345Y020519D02*
X041266Y020440D01*
X041345Y020519D02*
X041817Y020519D01*
X041817Y019141D02*
X042163Y019141D01*
X042471Y018834D01*
X042471Y018444D01*
X042715Y018200D01*
X041817Y018550D02*
X041108Y018550D01*
X041010Y018452D01*
X041010Y017743D01*
X041541Y017212D01*
X041541Y015479D01*
X041148Y015086D01*
X041030Y015086D01*
X041030Y016031D02*
X041030Y016129D01*
X040498Y016129D01*
X039770Y015676D02*
X039770Y015401D01*
X041030Y016129D02*
X041030Y016444D01*
X042624Y015086D02*
X043136Y015086D01*
X041250Y018834D02*
X041360Y018944D01*
X041817Y018944D01*
X037250Y018157D02*
X036364Y018157D01*
X038628Y024357D02*
X038628Y024771D01*
X037683Y025401D02*
X037250Y025401D01*
X037250Y025696D02*
X037270Y025716D01*
X037683Y025716D01*
X038313Y027842D02*
X038313Y028235D01*
X039258Y029259D02*
X039258Y029534D01*
X039163Y029936D02*
X038179Y029936D01*
X038179Y029731D01*
X037900Y029731D01*
X037900Y030125D02*
X037978Y030125D01*
X038372Y030519D01*
X038411Y030519D01*
X038451Y030125D02*
X038919Y030125D01*
X039085Y030290D01*
X038707Y029731D02*
X038825Y029613D01*
X038707Y029731D02*
X038451Y029731D01*
X039888Y029534D02*
X039888Y029259D01*
X041030Y028865D02*
X041030Y027586D01*
X041128Y027586D01*
X041148Y027605D01*
X041148Y027290D02*
X041482Y027290D01*
X041561Y027369D01*
X041561Y028649D01*
X041345Y028865D01*
X041148Y026346D02*
X040715Y026346D01*
X042211Y026031D02*
X042486Y026031D01*
X042506Y025401D02*
X042211Y025401D01*
X021650Y005725D02*
X021651Y005723D01*
D57*
X020526Y016001D02*
X020523Y016005D01*
X020523Y016942D01*
X020267Y017789D02*
X019526Y017049D01*
X019526Y016982D01*
X019526Y016944D01*
X019526Y016001D01*
X040085Y030125D02*
X040104Y030145D01*
X040242Y030145D01*
X040085Y030125D02*
X042349Y030125D01*
X042368Y030145D01*
X042368Y033629D02*
X042349Y033649D01*
X042368Y033629D02*
X042388Y033649D01*
D58*
X040203Y032861D02*
X040203Y032546D01*
X039534Y032546D01*
X038667Y032960D02*
X038667Y033235D01*
X037703Y033235D02*
X037703Y032960D01*
X039041Y031306D02*
X039612Y031306D01*
X039652Y031267D01*
X040203Y031267D01*
X040242Y030145D02*
X039711Y030145D01*
X038943Y030912D01*
X038372Y030912D01*
X036856Y030164D02*
X036856Y029881D01*
X036683Y029708D01*
X040203Y032527D02*
X040203Y032546D01*
X042797Y040007D02*
X042797Y040586D01*
X042786Y040597D01*
X042786Y040046D01*
X042825Y040007D01*
X043297Y040007D01*
X030298Y026549D02*
X030298Y026076D01*
X030310Y026064D01*
X030310Y025671D01*
X030310Y025277D02*
X030310Y024710D01*
X030298Y024698D01*
X030298Y024186D01*
X023479Y030990D02*
X023479Y030994D01*
X023475Y030997D01*
X023479Y030990D02*
X023109Y030990D01*
X022550Y031194D02*
X022550Y030702D01*
X022806Y030446D01*
X023101Y030446D01*
X023109Y030438D01*
X023109Y030100D01*
X022550Y031194D02*
X023526Y032171D01*
X023526Y033001D01*
X020305Y012225D02*
X019307Y012225D01*
X020305Y012225D02*
X020305Y012220D01*
X020266Y007731D02*
X020266Y007725D01*
X019306Y007725D01*
X006447Y012220D02*
X006447Y012225D01*
X005635Y012225D01*
X005620Y007725D02*
X005620Y007259D01*
X005620Y007725D02*
X005635Y007725D01*
D59*
X022349Y021742D02*
X022349Y023025D01*
X022276Y023025D01*
X023339Y022968D02*
X023534Y023163D01*
X023339Y022968D02*
X023339Y022749D01*
X035600Y018519D02*
X035600Y018160D01*
X035597Y018157D01*
X036644Y020448D02*
X036911Y020716D01*
X037250Y020716D01*
X037250Y020912D02*
X037242Y020920D01*
X036683Y020920D01*
X038057Y021720D02*
X038057Y022027D01*
X037982Y022101D01*
X037786Y022101D01*
X038254Y022058D02*
X038337Y022141D01*
X039597Y022141D01*
X039754Y022298D01*
X039478Y023479D02*
X039872Y023873D01*
X039872Y024188D01*
X039573Y024487D01*
X039573Y024771D01*
X039258Y024771D02*
X039258Y024409D01*
X039478Y024188D01*
X040518Y024234D02*
X040518Y023836D01*
X040577Y023777D01*
X040518Y024234D02*
X040784Y024234D01*
X040935Y024385D01*
X040518Y024234D02*
X040518Y024771D01*
X041821Y023507D02*
X041660Y023346D01*
X041660Y022869D01*
X041821Y023507D02*
X042589Y023507D01*
X042841Y023255D01*
X042841Y023066D01*
X041738Y022212D02*
X041738Y022042D01*
X041368Y022042D01*
X042270Y020755D02*
X042270Y019771D01*
X042230Y019731D01*
X041817Y019731D01*
X041817Y019534D02*
X042427Y019534D01*
X042715Y019822D01*
X042715Y020200D01*
X042270Y020755D02*
X042715Y021200D01*
X042289Y019338D02*
X041817Y019338D01*
X042289Y019338D02*
X042427Y019200D01*
X042715Y019200D01*
X042624Y015086D02*
X041998Y015086D01*
X041998Y015094D01*
X038254Y021720D02*
X038254Y022058D01*
X035896Y022456D02*
X035896Y025920D01*
X036321Y026346D01*
X037683Y026346D01*
X037683Y026031D02*
X036675Y026031D01*
X036526Y025881D01*
X036506Y026660D02*
X036817Y026660D01*
X036817Y027290D02*
X036691Y027416D01*
X036691Y028377D01*
X036683Y028385D01*
X036683Y029708D01*
X039518Y029779D02*
X039573Y029723D01*
X039573Y029259D01*
X039888Y028235D02*
X039888Y027653D01*
X039872Y027653D01*
X041030Y029259D02*
X041030Y029381D01*
X041191Y029542D01*
X036723Y046905D02*
X036723Y047070D01*
X037308Y047070D01*
D60*
X036345Y031208D02*
X036217Y031080D01*
X036217Y030686D01*
X036219Y030507D02*
X036219Y030290D01*
X036345Y030164D01*
X036473Y030292D01*
X036473Y030686D01*
X036473Y031080D01*
X036728Y030686D02*
X036728Y030292D01*
X036856Y030164D01*
X036984Y030292D01*
X036984Y030686D01*
X035951Y030164D02*
X035675Y030164D01*
D61*
X032510Y027023D02*
X030772Y027023D01*
X030298Y026549D01*
X022609Y019265D02*
X022493Y019149D01*
X022156Y019149D01*
X028262Y008094D02*
X028258Y008090D01*
X028258Y007653D01*
X028175Y005094D02*
X028179Y005090D01*
X028179Y004700D01*
X028258Y002534D02*
X028258Y002097D01*
X028262Y002101D01*
X031171Y002105D02*
X031175Y002101D01*
X031171Y002105D02*
X031171Y002574D01*
X031250Y004660D02*
X031250Y005082D01*
X031262Y005094D01*
X033494Y005094D02*
X034175Y005094D01*
X031171Y007653D02*
X031171Y008090D01*
X031175Y008094D01*
X025266Y005090D02*
X025266Y004700D01*
X025266Y005090D02*
X025262Y005094D01*
X009439Y006944D02*
X009439Y007534D01*
X008770Y007534D01*
X008809Y007495D01*
X008809Y006944D01*
X009439Y006944D02*
X009439Y007588D01*
X009117Y007588D01*
X009117Y008966D02*
X009117Y009142D01*
X008534Y009725D02*
X008034Y009225D01*
X007299Y009225D01*
X007299Y009725D02*
X008534Y009725D01*
D62*
X037703Y009971D03*
X037703Y008971D03*
X038703Y008971D03*
X038703Y009971D03*
X039703Y009971D03*
X039703Y008971D03*
X040703Y008971D03*
X040703Y009971D03*
X041703Y009971D03*
X041703Y008971D03*
X042703Y008971D03*
X042703Y009971D03*
X042703Y010971D03*
X041703Y010971D03*
X040703Y010971D03*
X039703Y010971D03*
X038703Y010971D03*
X037703Y010971D03*
X037703Y011971D03*
X038703Y011971D03*
X039703Y011971D03*
X040703Y011971D03*
X041703Y011971D03*
X042703Y011971D03*
X042703Y012971D03*
X041703Y012971D03*
X040703Y012971D03*
X039703Y012971D03*
X038703Y012971D03*
X037703Y012971D03*
X037703Y013971D03*
X038703Y013971D03*
X039703Y013971D03*
X040703Y013971D03*
X041703Y013971D03*
X042703Y013971D03*
D63*
X034175Y006865D02*
X031262Y006865D01*
X031175Y009865D02*
X028262Y009865D01*
X028175Y006865D02*
X027352Y006865D01*
X025262Y006865D01*
X028262Y003873D02*
X029675Y003873D01*
X031175Y003873D01*
X040579Y023775D02*
X040577Y023777D01*
X040579Y023775D02*
X041073Y023775D01*
X040880Y024771D02*
X041132Y025023D01*
X041132Y025385D01*
X041148Y025401D01*
X041817Y025401D01*
X040880Y024771D02*
X040518Y024771D01*
X040203Y024771D01*
X041030Y029259D02*
X041345Y029259D01*
X033735Y036240D02*
X035136Y037641D01*
X033735Y036240D02*
X025879Y036240D01*
X026959Y035723D02*
X028868Y035723D01*
X028868Y034739D02*
X026408Y034739D01*
X020364Y035290D02*
X020203Y035129D01*
X020203Y034571D01*
X019753Y034121D01*
X017103Y034121D01*
X016388Y034836D01*
X016388Y038200D01*
X016653Y037471D02*
X017381Y038200D01*
X017388Y038200D01*
X017384Y037653D02*
X016903Y037171D01*
X016903Y035321D01*
X017446Y034779D01*
X017691Y034779D01*
X018003Y034321D02*
X017253Y034321D01*
X016653Y034921D01*
X016653Y037471D01*
X017384Y037653D02*
X017943Y037653D01*
X018691Y036826D02*
X019478Y037613D01*
X019715Y037613D01*
X020329Y037141D02*
X020014Y036826D01*
X019691Y036826D01*
X020303Y036430D02*
X020303Y035721D01*
X019691Y035110D01*
X019691Y034779D01*
X019160Y035271D02*
X018453Y035271D01*
X018203Y035021D01*
X018203Y034521D01*
X018003Y034321D01*
X019160Y035271D02*
X019691Y035802D01*
X020303Y036430D02*
X020463Y036590D01*
X019833Y033834D02*
X016723Y033834D01*
X016526Y033638D01*
D64*
X020174Y025249D02*
X020386Y025249D01*
X020541Y025094D01*
X020541Y024700D02*
X020226Y024700D01*
X020541Y024700D02*
X020817Y024700D01*
X021171Y024700D01*
X021171Y024306D02*
X020817Y024306D01*
X020541Y024306D01*
X020226Y024306D01*
X019833Y024306D02*
X019715Y024306D01*
X019518Y024503D01*
X019715Y024700D01*
X019833Y024700D01*
X019124Y024503D02*
X018770Y024503D01*
X018376Y024503D02*
X018376Y024247D01*
X018376Y024503D02*
X017943Y024503D01*
X017943Y024247D01*
X017549Y024503D02*
X017195Y024503D01*
X016801Y024503D02*
X016604Y024503D01*
X020187Y023637D02*
X020463Y023912D01*
X020541Y023912D01*
X011801Y024503D02*
X011604Y024503D01*
X011211Y024503D02*
X010896Y024503D01*
X010709Y024503D01*
X010896Y024503D02*
X010896Y024247D01*
X010315Y024503D02*
X010128Y024503D01*
X010128Y024483D01*
X010128Y024247D01*
X011604Y024109D02*
X011604Y023912D01*
X011604Y024897D02*
X011604Y025094D01*
X006958Y035133D02*
X006959Y035133D01*
X006958Y035133D02*
X006949Y035133D01*
X006778Y035304D01*
X006958Y035133D02*
X007148Y035324D01*
X006500Y035582D02*
X006344Y035738D01*
X006344Y035760D01*
X006528Y035944D01*
X006329Y035763D02*
X006329Y035753D01*
X006344Y035738D01*
X037703Y032566D02*
X037978Y032566D01*
X038372Y032566D02*
X038667Y032566D01*
X038896Y032566D01*
X039041Y032420D01*
X039041Y032192D01*
X042368Y033649D02*
X042707Y033649D01*
X042707Y030133D01*
D65*
X037392Y044109D02*
X037400Y044117D01*
X038179Y044117D01*
X036801Y046038D02*
X034715Y046038D01*
X035266Y044117D02*
X036006Y044117D01*
X036014Y044109D01*
X016604Y024503D02*
X011801Y024503D01*
X011604Y023912D02*
X011604Y021517D01*
X010128Y024483D02*
X009223Y024483D01*
X009223Y024503D01*
X011604Y025094D02*
X011604Y032948D01*
X010404Y034149D01*
X007933Y034149D01*
X006958Y035124D01*
X006958Y035133D01*
X006329Y035763D02*
X006073Y036019D01*
X006073Y037594D01*
D66*
X013081Y043204D02*
X033022Y043204D01*
X034715Y044897D01*
X034715Y046038D01*
X034715Y046314D01*
X035884Y047484D01*
X036481Y047484D01*
X036482Y047482D01*
X036481Y047484D02*
X036465Y047499D01*
X037347Y047857D02*
X037347Y047858D01*
X038171Y047858D01*
X038967Y047062D01*
X038967Y046235D01*
X039449Y045753D01*
X042126Y045753D01*
X042431Y045448D01*
X042431Y044267D01*
X042156Y043991D01*
X041467Y043991D01*
X041467Y041629D02*
X041467Y041200D01*
X042049Y040617D01*
X042049Y040007D01*
X042423Y039141D02*
X042423Y038716D01*
X041951Y038243D01*
X041951Y035755D01*
X041486Y035290D01*
X039549Y035290D01*
X038140Y036700D01*
X036184Y036641D02*
X034707Y036641D01*
X033750Y035684D01*
X033750Y033912D01*
X032864Y033912D01*
X032864Y033322D01*
X032864Y033912D02*
X023986Y033912D01*
X023527Y033453D01*
X023527Y033002D01*
X023526Y033001D01*
X032526Y027001D02*
X033729Y027001D01*
X033729Y027002D02*
X033737Y027004D01*
X033744Y027008D01*
X033748Y027015D01*
X033750Y027023D01*
X033750Y033912D01*
X033750Y027023D02*
X033750Y016846D01*
X032037Y015133D01*
X019774Y015133D01*
X019526Y015380D01*
X019526Y016001D01*
X009124Y009464D02*
X009124Y009148D01*
X009117Y009142D01*
X009124Y009464D02*
X008862Y009725D01*
X008534Y009725D01*
X040242Y033649D02*
X042368Y033649D01*
X042388Y033649D01*
X042368Y030145D02*
X042380Y030133D01*
X042707Y030133D01*
X041951Y038243D02*
X040699Y038243D01*
X040463Y038479D01*
X040463Y039542D01*
X040833Y047987D02*
X039833Y047987D01*
D67*
X011203Y008971D03*
X010203Y008971D03*
D68*
X020532Y023470D02*
X020828Y023765D01*
X020873Y023765D01*
X036345Y031208D02*
X037313Y032176D01*
X037313Y032180D01*
X037313Y032338D01*
X037541Y032566D01*
X037703Y032566D01*
X036345Y031208D02*
X036473Y031080D01*
M02*
