G75*
G70*
%OFA0B0*%
%FSLAX24Y24*%
%IPPOS*%
%LPD*%
%AMOC8*
5,1,8,0,0,1.08239X$1,22.5*
%
%ADD10R,0.0236X0.0236*%
%ADD11R,0.0669X0.0531*%
%ADD12R,0.2008X0.2008*%
%ADD13C,0.0157*%
%ADD14C,0.0639*%
%ADD15C,0.0866*%
%ADD16C,0.0925*%
%ADD17R,0.0315X0.0354*%
%ADD18R,0.0354X0.0315*%
%ADD19R,0.0669X0.0591*%
%ADD20R,0.0630X0.0551*%
%ADD21R,0.0276X0.0315*%
%ADD22R,0.0827X0.0354*%
%ADD23C,0.0571*%
%ADD24R,0.0591X0.0157*%
%ADD25R,0.0157X0.0591*%
%ADD26R,0.0748X0.0512*%
%ADD27C,0.0630*%
%ADD28R,0.0236X0.0433*%
%ADD29R,0.0433X0.0236*%
%ADD30R,0.0394X0.0197*%
%ADD31R,0.0197X0.0433*%
%ADD32R,0.0256X0.0157*%
%ADD33C,0.0433*%
%ADD34R,0.0925X0.0236*%
%ADD35R,0.1024X0.0827*%
%ADD36C,0.0899*%
%ADD37C,0.0984*%
%ADD38R,0.1699X0.1699*%
%ADD39R,0.0591X0.0433*%
%ADD40R,0.0433X0.0591*%
%ADD41R,0.0236X0.0315*%
%ADD42C,0.0571*%
%ADD43R,0.1189X0.0331*%
%ADD44R,0.0315X0.0236*%
%ADD45R,0.2205X0.1024*%
%ADD46R,0.0236X0.0236*%
%ADD47R,0.0157X0.0728*%
%ADD48C,0.0050*%
%ADD49R,0.0354X0.0354*%
%ADD50OC8,0.0639*%
%ADD51R,0.0984X0.0748*%
%ADD52OC8,0.0630*%
%ADD53R,0.0436X0.0436*%
%ADD54R,0.0433X0.0748*%
%ADD55C,0.0699*%
%ADD56C,0.0591*%
D10*
X018526Y016942D03*
X018920Y016942D03*
X018920Y017486D03*
X018526Y017486D03*
X021125Y020927D03*
X021125Y021320D03*
X021523Y021320D03*
X021523Y020927D03*
X022129Y020881D03*
X022129Y021275D03*
X022082Y021980D03*
X022082Y022373D03*
X021711Y022873D03*
X021711Y023267D03*
X021215Y023370D03*
X020873Y023371D03*
X020873Y023765D03*
X021215Y023763D03*
X021171Y024306D03*
X020817Y024306D03*
X020541Y024306D03*
X020226Y024306D03*
X019833Y024306D03*
X019518Y024503D03*
X019833Y024700D03*
X020226Y024700D03*
X020541Y024700D03*
X020817Y024700D03*
X021171Y024700D03*
X021565Y024700D03*
X021565Y024306D03*
X021351Y025261D03*
X021024Y025261D03*
X021024Y025655D03*
X021351Y025655D03*
X021150Y026415D03*
X020757Y026415D03*
X020174Y025249D03*
X019780Y025249D03*
X020541Y025094D03*
X020541Y023912D03*
X020824Y022604D03*
X021217Y022604D03*
X021174Y021982D03*
X020780Y021982D03*
X023274Y021864D03*
X023274Y021470D03*
X023613Y019934D03*
X023613Y019541D03*
X024597Y019541D03*
X024597Y019934D03*
X025326Y019974D03*
X025326Y020368D03*
X028013Y024767D03*
X028406Y024767D03*
X027038Y025289D03*
X026645Y025289D03*
X023914Y027535D03*
X023914Y027929D03*
X020995Y028891D03*
X020601Y028891D03*
X019046Y027848D03*
X019046Y027454D03*
X019124Y024503D03*
X018770Y024503D03*
X018376Y024503D03*
X018376Y024247D03*
X018376Y023853D03*
X017943Y023853D03*
X017943Y024247D03*
X017943Y024503D03*
X017549Y024503D03*
X017195Y024503D03*
X016801Y024503D03*
X011604Y024503D03*
X011604Y024503D03*
X011604Y024503D03*
X011211Y024503D03*
X010896Y024247D03*
X010709Y024503D03*
X010315Y024503D03*
X010128Y024247D03*
X010128Y023853D03*
X010896Y023853D03*
X011604Y024109D03*
X011604Y024897D03*
X021604Y036353D03*
X021604Y036747D03*
X030310Y025671D03*
X030310Y025277D03*
X035951Y030164D03*
X036345Y030164D03*
X037978Y030912D03*
X037978Y031267D03*
X037978Y031582D03*
X037978Y031897D03*
X037978Y032212D03*
X037978Y032566D03*
X037703Y032566D03*
X037703Y032960D03*
X037270Y033393D03*
X037270Y033708D03*
X036876Y033708D03*
X036876Y033393D03*
X038372Y032566D03*
X038667Y032566D03*
X038667Y032960D03*
X038372Y032212D03*
X038372Y031897D03*
X038372Y031582D03*
X038372Y031267D03*
X038372Y030912D03*
X038943Y029259D03*
X039258Y029259D03*
X039573Y029259D03*
X039888Y029259D03*
X039888Y028865D03*
X039573Y028865D03*
X039258Y028865D03*
X038943Y028865D03*
X037211Y027290D03*
X036817Y027290D03*
X036817Y026660D03*
X037211Y026660D03*
X037085Y028377D03*
X036691Y028377D03*
X040715Y028865D03*
X041030Y028865D03*
X041345Y028865D03*
X041345Y029259D03*
X041030Y029259D03*
X040715Y029259D03*
X041817Y026031D03*
X041817Y025716D03*
X041817Y025401D03*
X042211Y025401D03*
X042211Y025716D03*
X042211Y026031D03*
X041467Y023775D03*
X041073Y023775D03*
X041738Y022212D03*
X042132Y022212D03*
X042841Y022723D03*
X042841Y023066D03*
X043234Y023066D03*
X043234Y022723D03*
X042723Y016483D03*
X042329Y016483D03*
X040439Y015479D03*
X040439Y015086D03*
X039770Y015676D03*
X039455Y015676D03*
X039455Y016070D03*
X039770Y016070D03*
X039045Y015684D03*
X038730Y015684D03*
X038730Y015290D03*
X039045Y015290D03*
X038258Y015290D03*
X038258Y015684D03*
X037825Y015684D03*
X037825Y015290D03*
X035990Y018157D03*
X035597Y018157D03*
X035597Y018944D03*
X035990Y018944D03*
X023689Y013688D03*
X023296Y013688D03*
X023296Y012688D03*
X023689Y012688D03*
X023689Y011688D03*
X023296Y011688D03*
X023296Y010688D03*
X023689Y010688D03*
X022458Y007309D03*
X022065Y007309D03*
X022065Y006867D03*
X022458Y006867D03*
D11*
X020995Y027454D03*
X020995Y028320D03*
X019617Y028320D03*
X019617Y027454D03*
D12*
X024028Y024501D03*
D13*
X023930Y022868D02*
X023930Y022630D01*
X023930Y022868D02*
X023930Y022868D01*
X023930Y022630D01*
X023930Y022630D01*
X023930Y022786D02*
X023930Y022786D01*
X023733Y022868D02*
X023733Y022630D01*
X023733Y022868D02*
X023733Y022868D01*
X023733Y022630D01*
X023733Y022630D01*
X023733Y022786D02*
X023733Y022786D01*
X023536Y022868D02*
X023536Y022630D01*
X023536Y022868D02*
X023536Y022868D01*
X023536Y022630D01*
X023536Y022630D01*
X023536Y022786D02*
X023536Y022786D01*
X023339Y022868D02*
X023339Y022630D01*
X023339Y022868D02*
X023339Y022868D01*
X023339Y022630D01*
X023339Y022630D01*
X023339Y022786D02*
X023339Y022786D01*
X023143Y022868D02*
X023143Y022630D01*
X023143Y022868D02*
X023143Y022868D01*
X023143Y022630D01*
X023143Y022630D01*
X023143Y022786D02*
X023143Y022786D01*
X022946Y022868D02*
X022946Y022630D01*
X022946Y022868D02*
X022946Y022868D01*
X022946Y022630D01*
X022946Y022630D01*
X022946Y022786D02*
X022946Y022786D01*
X022749Y022868D02*
X022749Y022630D01*
X022749Y022868D02*
X022749Y022868D01*
X022749Y022630D01*
X022749Y022630D01*
X022749Y022786D02*
X022749Y022786D01*
X022552Y022868D02*
X022552Y022630D01*
X022552Y022868D02*
X022552Y022868D01*
X022552Y022630D01*
X022552Y022630D01*
X022552Y022786D02*
X022552Y022786D01*
X022395Y023025D02*
X022157Y023025D01*
X022395Y023025D02*
X022395Y023025D01*
X022157Y023025D01*
X022157Y023025D01*
X022157Y023222D02*
X022395Y023222D01*
X022395Y023222D01*
X022157Y023222D01*
X022157Y023222D01*
X022157Y023419D02*
X022395Y023419D01*
X022395Y023419D01*
X022157Y023419D01*
X022157Y023419D01*
X022157Y023616D02*
X022395Y023616D01*
X022395Y023616D01*
X022157Y023616D01*
X022157Y023616D01*
X022157Y023812D02*
X022395Y023812D01*
X022395Y023812D01*
X022157Y023812D01*
X022157Y023812D01*
X022157Y024009D02*
X022395Y024009D01*
X022395Y024009D01*
X022157Y024009D01*
X022157Y024009D01*
X022157Y024206D02*
X022395Y024206D01*
X022395Y024206D01*
X022157Y024206D01*
X022157Y024206D01*
X022157Y024403D02*
X022395Y024403D01*
X022395Y024403D01*
X022157Y024403D01*
X022157Y024403D01*
X022157Y024600D02*
X022395Y024600D01*
X022395Y024600D01*
X022157Y024600D01*
X022157Y024600D01*
X022157Y024797D02*
X022395Y024797D01*
X022395Y024797D01*
X022157Y024797D01*
X022157Y024797D01*
X022157Y024994D02*
X022395Y024994D01*
X022395Y024994D01*
X022157Y024994D01*
X022157Y024994D01*
X022157Y025190D02*
X022395Y025190D01*
X022395Y025190D01*
X022157Y025190D01*
X022157Y025190D01*
X022157Y025387D02*
X022395Y025387D01*
X022395Y025387D01*
X022157Y025387D01*
X022157Y025387D01*
X022157Y025584D02*
X022395Y025584D01*
X022395Y025584D01*
X022157Y025584D01*
X022157Y025584D01*
X022157Y025781D02*
X022395Y025781D01*
X022395Y025781D01*
X022157Y025781D01*
X022157Y025781D01*
X022157Y025978D02*
X022395Y025978D01*
X022395Y025978D01*
X022157Y025978D01*
X022157Y025978D01*
X022552Y026134D02*
X022552Y026372D01*
X022552Y026134D02*
X022552Y026134D01*
X022552Y026372D01*
X022552Y026372D01*
X022552Y026290D02*
X022552Y026290D01*
X022749Y026372D02*
X022749Y026134D01*
X022749Y026134D01*
X022749Y026372D01*
X022749Y026372D01*
X022749Y026290D02*
X022749Y026290D01*
X022946Y026372D02*
X022946Y026134D01*
X022946Y026134D01*
X022946Y026372D01*
X022946Y026372D01*
X022946Y026290D02*
X022946Y026290D01*
X023143Y026372D02*
X023143Y026134D01*
X023143Y026134D01*
X023143Y026372D01*
X023143Y026372D01*
X023143Y026290D02*
X023143Y026290D01*
X023339Y026372D02*
X023339Y026134D01*
X023339Y026134D01*
X023339Y026372D01*
X023339Y026372D01*
X023339Y026290D02*
X023339Y026290D01*
X023536Y026372D02*
X023536Y026134D01*
X023536Y026134D01*
X023536Y026372D01*
X023536Y026372D01*
X023536Y026290D02*
X023536Y026290D01*
X023733Y026372D02*
X023733Y026134D01*
X023733Y026134D01*
X023733Y026372D01*
X023733Y026372D01*
X023733Y026290D02*
X023733Y026290D01*
X023930Y026372D02*
X023930Y026134D01*
X023930Y026134D01*
X023930Y026372D01*
X023930Y026372D01*
X023930Y026290D02*
X023930Y026290D01*
X024127Y026372D02*
X024127Y026134D01*
X024127Y026134D01*
X024127Y026372D01*
X024127Y026372D01*
X024127Y026290D02*
X024127Y026290D01*
X024324Y026372D02*
X024324Y026134D01*
X024324Y026134D01*
X024324Y026372D01*
X024324Y026372D01*
X024324Y026290D02*
X024324Y026290D01*
X024521Y026372D02*
X024521Y026134D01*
X024521Y026134D01*
X024521Y026372D01*
X024521Y026372D01*
X024521Y026290D02*
X024521Y026290D01*
X024717Y026372D02*
X024717Y026134D01*
X024717Y026134D01*
X024717Y026372D01*
X024717Y026372D01*
X024717Y026290D02*
X024717Y026290D01*
X024914Y026372D02*
X024914Y026134D01*
X024914Y026134D01*
X024914Y026372D01*
X024914Y026372D01*
X024914Y026290D02*
X024914Y026290D01*
X025111Y026372D02*
X025111Y026134D01*
X025111Y026134D01*
X025111Y026372D01*
X025111Y026372D01*
X025111Y026290D02*
X025111Y026290D01*
X025308Y026372D02*
X025308Y026134D01*
X025308Y026134D01*
X025308Y026372D01*
X025308Y026372D01*
X025308Y026290D02*
X025308Y026290D01*
X025505Y026372D02*
X025505Y026134D01*
X025505Y026134D01*
X025505Y026372D01*
X025505Y026372D01*
X025505Y026290D02*
X025505Y026290D01*
X025661Y025978D02*
X025899Y025978D01*
X025661Y025978D02*
X025661Y025978D01*
X025899Y025978D01*
X025899Y025978D01*
X025899Y025781D02*
X025661Y025781D01*
X025661Y025781D01*
X025899Y025781D01*
X025899Y025781D01*
X025899Y025584D02*
X025661Y025584D01*
X025661Y025584D01*
X025899Y025584D01*
X025899Y025584D01*
X025899Y025387D02*
X025661Y025387D01*
X025661Y025387D01*
X025899Y025387D01*
X025899Y025387D01*
X025899Y025190D02*
X025661Y025190D01*
X025661Y025190D01*
X025899Y025190D01*
X025899Y025190D01*
X025899Y024994D02*
X025661Y024994D01*
X025661Y024994D01*
X025899Y024994D01*
X025899Y024994D01*
X025899Y024797D02*
X025661Y024797D01*
X025661Y024797D01*
X025899Y024797D01*
X025899Y024797D01*
X025899Y024600D02*
X025661Y024600D01*
X025661Y024600D01*
X025899Y024600D01*
X025899Y024600D01*
X025899Y024403D02*
X025661Y024403D01*
X025661Y024403D01*
X025899Y024403D01*
X025899Y024403D01*
X025899Y024206D02*
X025661Y024206D01*
X025661Y024206D01*
X025899Y024206D01*
X025899Y024206D01*
X025899Y024009D02*
X025661Y024009D01*
X025661Y024009D01*
X025899Y024009D01*
X025899Y024009D01*
X025899Y023812D02*
X025661Y023812D01*
X025661Y023812D01*
X025899Y023812D01*
X025899Y023812D01*
X025899Y023616D02*
X025661Y023616D01*
X025661Y023616D01*
X025899Y023616D01*
X025899Y023616D01*
X025899Y023419D02*
X025661Y023419D01*
X025661Y023419D01*
X025899Y023419D01*
X025899Y023419D01*
X025899Y023222D02*
X025661Y023222D01*
X025661Y023222D01*
X025899Y023222D01*
X025899Y023222D01*
X025899Y023025D02*
X025661Y023025D01*
X025661Y023025D01*
X025899Y023025D01*
X025899Y023025D01*
X025505Y022904D02*
X025505Y022666D01*
X025505Y022904D02*
X025505Y022904D01*
X025505Y022666D01*
X025505Y022666D01*
X025505Y022822D02*
X025505Y022822D01*
X025308Y022868D02*
X025308Y022630D01*
X025308Y022868D02*
X025308Y022868D01*
X025308Y022630D01*
X025308Y022630D01*
X025308Y022786D02*
X025308Y022786D01*
X025111Y022868D02*
X025111Y022630D01*
X025111Y022868D02*
X025111Y022868D01*
X025111Y022630D01*
X025111Y022630D01*
X025111Y022786D02*
X025111Y022786D01*
X024914Y022868D02*
X024914Y022630D01*
X024914Y022868D02*
X024914Y022868D01*
X024914Y022630D01*
X024914Y022630D01*
X024914Y022786D02*
X024914Y022786D01*
X024717Y022868D02*
X024717Y022630D01*
X024717Y022868D02*
X024717Y022868D01*
X024717Y022630D01*
X024717Y022630D01*
X024717Y022786D02*
X024717Y022786D01*
X024521Y022868D02*
X024521Y022630D01*
X024521Y022868D02*
X024521Y022868D01*
X024521Y022630D01*
X024521Y022630D01*
X024521Y022786D02*
X024521Y022786D01*
X024324Y022868D02*
X024324Y022630D01*
X024324Y022868D02*
X024324Y022868D01*
X024324Y022630D01*
X024324Y022630D01*
X024324Y022786D02*
X024324Y022786D01*
X024127Y022868D02*
X024127Y022630D01*
X024127Y022868D02*
X024127Y022868D01*
X024127Y022630D01*
X024127Y022630D01*
X024127Y022786D02*
X024127Y022786D01*
D14*
X024526Y016301D02*
X024526Y015701D01*
X023526Y015701D02*
X023526Y016301D01*
X022526Y016301D02*
X022526Y015701D01*
X021526Y015701D02*
X021526Y016301D01*
X020526Y016301D02*
X020526Y015701D01*
X019526Y015701D02*
X019526Y016301D01*
X018526Y016301D02*
X018526Y015701D01*
X017526Y015701D02*
X017526Y016301D01*
X016526Y016301D02*
X016526Y015701D01*
X015826Y017001D02*
X015226Y017001D01*
X015226Y018001D02*
X015826Y018001D01*
X015826Y019001D02*
X015226Y019001D01*
X021761Y009889D02*
X021761Y009289D01*
X022761Y009289D02*
X022761Y009889D01*
X025526Y015701D02*
X025526Y016301D01*
X026526Y016301D02*
X026526Y015701D01*
X027526Y015701D02*
X027526Y016301D01*
X028526Y016301D02*
X028526Y015701D01*
X029526Y015701D02*
X029526Y016301D01*
X030526Y016301D02*
X030526Y015701D01*
X031526Y015701D02*
X031526Y016301D01*
X032226Y017001D02*
X032826Y017001D01*
X032826Y018001D02*
X032226Y018001D01*
X032226Y019001D02*
X032826Y019001D01*
X032826Y020001D02*
X032226Y020001D01*
X032226Y021001D02*
X032826Y021001D01*
X032826Y022001D02*
X032226Y022001D01*
X032226Y023001D02*
X032826Y023001D01*
X032826Y024001D02*
X032226Y024001D01*
X032226Y025001D02*
X032826Y025001D01*
X032826Y026001D02*
X032226Y026001D01*
X032226Y027001D02*
X032826Y027001D01*
X032826Y028001D02*
X032226Y028001D01*
X032226Y029001D02*
X032826Y029001D01*
X032826Y030001D02*
X032226Y030001D01*
X032226Y031001D02*
X032826Y031001D01*
X032826Y032001D02*
X032226Y032001D01*
X031526Y032701D02*
X031526Y033301D01*
X030526Y033301D02*
X030526Y032701D01*
X029526Y032701D02*
X029526Y033301D01*
X028526Y033301D02*
X028526Y032701D01*
X027526Y032701D02*
X027526Y033301D01*
X026526Y033301D02*
X026526Y032701D01*
X025526Y032701D02*
X025526Y033301D01*
X024526Y033301D02*
X024526Y032701D01*
X023526Y032701D02*
X023526Y033301D01*
X022526Y033301D02*
X022526Y032701D01*
X021526Y032701D02*
X021526Y033301D01*
X020526Y033301D02*
X020526Y032701D01*
X019526Y032701D02*
X019526Y033301D01*
X018526Y033301D02*
X018526Y032701D01*
X017526Y032701D02*
X017526Y033301D01*
X016526Y033301D02*
X016526Y032701D01*
X015826Y032001D02*
X015226Y032001D01*
X015226Y031001D02*
X015826Y031001D01*
X015826Y030001D02*
X015226Y030001D01*
X035884Y036641D02*
X036484Y036641D01*
X036484Y037641D02*
X035884Y037641D01*
X035884Y038641D02*
X036484Y038641D01*
X036484Y039641D02*
X035884Y039641D01*
X039833Y047687D02*
X039833Y048287D01*
X040833Y048287D02*
X040833Y047687D01*
X041833Y047687D02*
X041833Y048287D01*
X042833Y048287D02*
X042833Y047687D01*
D15*
X011604Y021517D03*
D16*
X012608Y020513D03*
X012608Y022521D03*
X010601Y022521D03*
X010601Y020513D03*
D17*
X021805Y013688D03*
X022356Y013688D03*
X022356Y012688D03*
X021805Y012688D03*
X021805Y011688D03*
X022356Y011688D03*
X022356Y010688D03*
X021805Y010688D03*
X021986Y005134D03*
X022537Y005134D03*
X027239Y023519D03*
X027790Y023519D03*
X029747Y024698D03*
X030298Y024698D03*
X030298Y026549D03*
X029747Y026549D03*
X036856Y030164D03*
X037408Y030164D03*
X041660Y022869D03*
X042211Y022869D03*
D18*
X037329Y028786D03*
X037329Y029338D03*
X023109Y030438D03*
X023109Y030990D03*
X022156Y019149D03*
X022156Y018597D03*
D19*
X009223Y024503D03*
X004892Y024503D03*
D20*
X004892Y023479D03*
X004892Y025527D03*
X009223Y025527D03*
X009223Y023479D03*
D21*
X007057Y023519D03*
X007057Y025487D03*
D22*
X025262Y006865D03*
X025262Y005094D03*
X028175Y005094D03*
X028262Y003873D03*
X028262Y002101D03*
X031175Y002101D03*
X031175Y003873D03*
X031262Y005094D03*
X031262Y006865D03*
X031175Y008094D03*
X031175Y009865D03*
X028262Y009865D03*
X028262Y008094D03*
X028175Y006865D03*
X034175Y006865D03*
X034175Y005094D03*
X035266Y042346D03*
X035266Y044117D03*
X038179Y044117D03*
X038179Y042346D03*
D23*
X039902Y042416D02*
X040433Y042416D01*
X040433Y041629D02*
X039902Y041629D01*
X041201Y041629D02*
X041732Y041629D01*
X041732Y042416D02*
X041201Y042416D01*
X041201Y043991D02*
X041732Y043991D01*
X041732Y044779D02*
X041201Y044779D01*
X040433Y044779D02*
X039902Y044779D01*
X039902Y043991D02*
X040433Y043991D01*
X030433Y036708D02*
X029902Y036708D01*
X029902Y035723D02*
X030433Y035723D01*
X030433Y034739D02*
X029902Y034739D01*
X029134Y034739D02*
X028602Y034739D01*
X028602Y035723D02*
X029134Y035723D01*
X029134Y036708D02*
X028602Y036708D01*
X035965Y005881D02*
X036496Y005881D01*
X037264Y005881D02*
X037795Y005881D01*
X037795Y004897D02*
X037264Y004897D01*
X036496Y004897D02*
X035965Y004897D01*
X035965Y003912D02*
X036496Y003912D01*
X037264Y003912D02*
X037795Y003912D01*
X041319Y003912D02*
X041850Y003912D01*
X042618Y003912D02*
X043150Y003912D01*
X043150Y004897D02*
X042618Y004897D01*
X041850Y004897D02*
X041319Y004897D01*
X041319Y005881D02*
X041850Y005881D01*
X042618Y005881D02*
X043150Y005881D01*
D24*
X041817Y017960D03*
X041817Y018157D03*
X041817Y018353D03*
X041817Y018550D03*
X041817Y018747D03*
X041817Y018944D03*
X041817Y019141D03*
X041817Y019338D03*
X041817Y019534D03*
X041817Y019731D03*
X041817Y019928D03*
X041817Y020125D03*
X041817Y020322D03*
X041817Y020519D03*
X041817Y020716D03*
X041817Y020912D03*
X037250Y020912D03*
X037250Y020716D03*
X037250Y020519D03*
X037250Y020322D03*
X037250Y020125D03*
X037250Y019928D03*
X037250Y019731D03*
X037250Y019534D03*
X037250Y019338D03*
X037250Y019141D03*
X037250Y018944D03*
X037250Y018747D03*
X037250Y018550D03*
X037250Y018353D03*
X037250Y018157D03*
X037250Y017960D03*
D25*
X038057Y017153D03*
X038254Y017153D03*
X038451Y017153D03*
X038648Y017153D03*
X038845Y017153D03*
X039041Y017153D03*
X039238Y017153D03*
X039435Y017153D03*
X039632Y017153D03*
X039829Y017153D03*
X040026Y017153D03*
X040223Y017153D03*
X040419Y017153D03*
X040616Y017153D03*
X040813Y017153D03*
X041010Y017153D03*
X041010Y021720D03*
X040813Y021720D03*
X040616Y021720D03*
X040419Y021720D03*
X040223Y021720D03*
X040026Y021720D03*
X039829Y021720D03*
X039632Y021720D03*
X039435Y021720D03*
X039238Y021720D03*
X039041Y021720D03*
X038845Y021720D03*
X038648Y021720D03*
X038451Y021720D03*
X038254Y021720D03*
X038057Y021720D03*
D26*
X041030Y016031D03*
X041030Y015086D03*
X042604Y015086D03*
X042604Y016031D03*
D27*
X042715Y017200D03*
X042715Y018200D03*
X042715Y019200D03*
X042715Y020200D03*
X042715Y021200D03*
X042715Y022200D03*
X041900Y031097D03*
X041266Y031897D03*
X041900Y032790D03*
X039203Y033912D03*
X038022Y033912D03*
X032864Y033322D03*
X040463Y039542D03*
X041250Y039542D03*
X038573Y043243D03*
X036801Y046038D03*
D28*
X038313Y028235D03*
X038628Y028235D03*
X038943Y028235D03*
X039258Y028235D03*
X039573Y028235D03*
X039888Y028235D03*
X040203Y028235D03*
X040518Y028235D03*
X040518Y024771D03*
X040203Y024771D03*
X039888Y024771D03*
X039573Y024771D03*
X039258Y024771D03*
X038943Y024771D03*
X038628Y024771D03*
X038313Y024771D03*
D29*
X037683Y025401D03*
X037683Y025716D03*
X037683Y026031D03*
X037683Y026346D03*
X037683Y026660D03*
X037683Y026975D03*
X037683Y027290D03*
X037683Y027605D03*
X041148Y027605D03*
X041148Y027290D03*
X041148Y026975D03*
X041148Y026660D03*
X041148Y026346D03*
X041148Y026031D03*
X041148Y025716D03*
X041148Y025401D03*
D30*
X040577Y023777D03*
X040577Y023521D03*
X040577Y023265D03*
X040577Y023009D03*
X038254Y023009D03*
X038254Y023265D03*
X038254Y023521D03*
X038254Y023777D03*
D31*
X036984Y030686D03*
X036728Y030686D03*
X036473Y030686D03*
X036217Y030686D03*
X036217Y032477D03*
X036473Y032477D03*
X036728Y032477D03*
X036984Y032477D03*
D32*
X037900Y030125D03*
X037900Y029928D03*
X037900Y029731D03*
X038451Y029731D03*
X038451Y030125D03*
D33*
X041266Y031031D03*
X041266Y032763D03*
D34*
X040203Y032527D03*
X040203Y032212D03*
X040203Y031897D03*
X040203Y031582D03*
X040203Y031267D03*
D35*
X040242Y030145D03*
X042368Y030145D03*
X042388Y033649D03*
X040242Y033649D03*
D36*
X034695Y043223D03*
X013081Y043204D03*
X013081Y005783D03*
X034695Y005802D03*
D37*
X034695Y008617D03*
X013081Y040389D03*
D38*
X038140Y036700D03*
X039242Y038668D03*
X040581Y036700D03*
D39*
X037347Y047110D03*
X037347Y047858D03*
X036481Y047484D03*
D40*
X042049Y040007D03*
X042797Y040007D03*
X042423Y039141D03*
D41*
X040321Y029298D03*
X040321Y028786D03*
D42*
X006467Y007099D03*
X006467Y012851D03*
X018474Y012851D03*
X018474Y007099D03*
D43*
X017642Y007725D03*
X017642Y008225D03*
X017643Y008725D03*
X017642Y009225D03*
X017643Y009725D03*
X017642Y010225D03*
X017643Y010725D03*
X017642Y011225D03*
X017643Y011725D03*
X017642Y012225D03*
X019307Y012225D03*
X019307Y011738D03*
X019307Y011225D03*
X019307Y010725D03*
X019307Y010225D03*
X019307Y009725D03*
X019307Y009225D03*
X019307Y008725D03*
X019307Y008225D03*
X019306Y007725D03*
X007299Y007725D03*
X007299Y008225D03*
X007299Y008725D03*
X007299Y009225D03*
X007299Y009725D03*
X007299Y010225D03*
X007299Y010725D03*
X007299Y011225D03*
X007299Y011738D03*
X007299Y012225D03*
X005635Y012225D03*
X005635Y011725D03*
X005635Y011225D03*
X005635Y010725D03*
X005635Y010225D03*
X005635Y009725D03*
X005635Y009225D03*
X005635Y008725D03*
X005635Y008225D03*
X005635Y007725D03*
D44*
X037900Y030519D03*
X038411Y030519D03*
D45*
X006073Y037594D03*
X006073Y047436D03*
D46*
G36*
X006972Y036223D02*
X006806Y036057D01*
X006640Y036223D01*
X006806Y036389D01*
X006972Y036223D01*
G37*
G36*
X006694Y035944D02*
X006528Y035778D01*
X006362Y035944D01*
X006528Y036110D01*
X006694Y035944D01*
G37*
G36*
X006500Y035748D02*
X006666Y035582D01*
X006500Y035416D01*
X006334Y035582D01*
X006500Y035748D01*
G37*
G36*
X006778Y035470D02*
X006944Y035304D01*
X006778Y035138D01*
X006612Y035304D01*
X006778Y035470D01*
G37*
G36*
X007314Y035324D02*
X007148Y035158D01*
X006982Y035324D01*
X007148Y035490D01*
X007314Y035324D01*
G37*
G36*
X007593Y035602D02*
X007427Y035436D01*
X007261Y035602D01*
X007427Y035768D01*
X007593Y035602D01*
G37*
D47*
X022513Y034700D03*
X022763Y034700D03*
X023013Y034700D03*
X023263Y034700D03*
X023513Y034700D03*
X023763Y034700D03*
X024013Y034700D03*
X024263Y034700D03*
X024513Y034700D03*
X024763Y034700D03*
X025013Y034700D03*
X025263Y034700D03*
X025263Y036747D03*
X025013Y036747D03*
X024763Y036747D03*
X024513Y036747D03*
X024263Y036747D03*
X024013Y036747D03*
X023763Y036747D03*
X023513Y036747D03*
X023263Y036747D03*
X023013Y036747D03*
X022763Y036747D03*
X022513Y036747D03*
D48*
X015349Y046987D02*
X015312Y046963D01*
X015270Y046949D01*
X015226Y046944D01*
X015183Y046949D01*
X015141Y046963D01*
X015104Y046987D01*
X015073Y047018D01*
X015049Y047055D01*
X015035Y047097D01*
X015030Y047141D01*
X015035Y047185D01*
X015049Y047226D01*
X015073Y047264D01*
X015104Y047295D01*
X015141Y047318D01*
X015183Y047333D01*
X015226Y047338D01*
X015270Y047333D01*
X015312Y047318D01*
X015349Y047295D01*
X015380Y047264D01*
X015404Y047226D01*
X015418Y047185D01*
X015423Y047141D01*
X015418Y047097D01*
X015404Y047055D01*
X015380Y047018D01*
X015349Y046987D01*
X015367Y047005D02*
X015086Y047005D01*
X015050Y047054D02*
X015403Y047054D01*
X015419Y047102D02*
X015034Y047102D01*
X015031Y047151D02*
X015422Y047151D01*
X015413Y047199D02*
X015040Y047199D01*
X015063Y047248D02*
X015390Y047248D01*
X015346Y047296D02*
X015106Y047296D01*
X015161Y046957D02*
X015292Y046957D01*
X043094Y002043D02*
X043135Y002057D01*
X043179Y002062D01*
X043223Y002057D01*
X043265Y002043D01*
X043302Y002019D01*
X043333Y001988D01*
X043357Y001951D01*
X043371Y001909D01*
X043376Y001865D01*
X043371Y001821D01*
X043357Y001780D01*
X043333Y001742D01*
X043302Y001711D01*
X043265Y001688D01*
X043223Y001673D01*
X043179Y001668D01*
X043135Y001673D01*
X043094Y001688D01*
X043056Y001711D01*
X043025Y001742D01*
X043002Y001780D01*
X042987Y001821D01*
X042982Y001865D01*
X042987Y001909D01*
X043002Y001951D01*
X043025Y001988D01*
X043056Y002019D01*
X043094Y002043D01*
X043126Y002054D02*
X043232Y002054D01*
X043316Y002005D02*
X043043Y002005D01*
X043006Y001957D02*
X043353Y001957D01*
X043371Y001908D02*
X042987Y001908D01*
X042983Y001860D02*
X043375Y001860D01*
X043368Y001811D02*
X042991Y001811D01*
X043013Y001763D02*
X043346Y001763D01*
X043305Y001714D02*
X043054Y001714D01*
D49*
X022872Y005723D03*
X022872Y006235D03*
X021651Y006235D03*
X021651Y005723D03*
D50*
X024593Y010688D03*
X024593Y011688D03*
X024593Y012688D03*
X024593Y013688D03*
X025593Y013688D03*
X025593Y012688D03*
X025593Y011688D03*
X025593Y010688D03*
X019691Y034779D03*
X018691Y034779D03*
X017691Y034779D03*
X017691Y035802D03*
X018691Y035802D03*
X019691Y035802D03*
X019691Y036826D03*
X018691Y036826D03*
X017691Y036826D03*
D51*
X009117Y008966D03*
X009117Y007588D03*
D52*
X014388Y038200D03*
X015388Y038200D03*
X016388Y038200D03*
X017388Y038200D03*
X018388Y038200D03*
X019388Y038200D03*
X020388Y038200D03*
X021388Y038200D03*
X022388Y038200D03*
X023388Y038200D03*
X024388Y038200D03*
X025388Y038200D03*
X026388Y038200D03*
X027388Y038200D03*
X028388Y038200D03*
X029388Y038200D03*
X030388Y038200D03*
X031388Y038200D03*
X032388Y038200D03*
X033388Y038200D03*
X032388Y048200D03*
X031388Y048200D03*
X030388Y048200D03*
X029388Y048200D03*
X028388Y048200D03*
X027388Y048200D03*
X026388Y048200D03*
X025388Y048200D03*
X024388Y048200D03*
X023388Y048200D03*
X022388Y048200D03*
X021388Y048200D03*
X020388Y048200D03*
X019388Y048200D03*
X018388Y048200D03*
X017388Y048200D03*
X016388Y048200D03*
X015388Y048200D03*
D53*
X011585Y002625D03*
X011089Y002625D03*
X010585Y002625D03*
X010089Y002625D03*
X009585Y002625D03*
X009085Y002625D03*
D54*
X023612Y020576D03*
X024597Y020576D03*
D55*
X037703Y013971D03*
X037703Y012971D03*
X037703Y011971D03*
X037703Y010971D03*
X037703Y009971D03*
X037703Y008971D03*
X038703Y008971D03*
X038703Y009971D03*
X039703Y009971D03*
X039703Y008971D03*
X040703Y008971D03*
X040703Y009971D03*
X041703Y009971D03*
X041703Y008971D03*
X042703Y008971D03*
X042703Y009971D03*
X042703Y010971D03*
X041703Y010971D03*
X040703Y010971D03*
X039703Y010971D03*
X038703Y010971D03*
X038703Y011971D03*
X039703Y011971D03*
X040703Y011971D03*
X041703Y011971D03*
X042703Y011971D03*
X042703Y012971D03*
X041703Y012971D03*
X040703Y012971D03*
X039703Y012971D03*
X038703Y012971D03*
X038703Y013971D03*
X039703Y013971D03*
X040703Y013971D03*
X041703Y013971D03*
X042703Y013971D03*
D56*
X011203Y008971D03*
X010203Y008971D03*
M02*
