G75*
G70*
%OFA0B0*%
%FSLAX24Y24*%
%IPPOS*%
%LPD*%
%AMOC8*
5,1,8,0,0,1.08239X$1,22.5*
%
%ADD10C,0.0000*%
%ADD11C,0.0080*%
%ADD12C,0.0060*%
%ADD13C,0.0039*%
%ADD14C,0.0050*%
D10*
X004203Y001471D02*
X004203Y048716D01*
X043573Y048716D01*
X043573Y001471D01*
X004203Y001471D01*
X006201Y007099D02*
X006203Y007131D01*
X006209Y007163D01*
X006218Y007193D01*
X006231Y007223D01*
X006248Y007250D01*
X006268Y007275D01*
X006291Y007298D01*
X006316Y007318D01*
X006343Y007335D01*
X006373Y007348D01*
X006403Y007357D01*
X006435Y007363D01*
X006467Y007365D01*
X006499Y007363D01*
X006531Y007357D01*
X006561Y007348D01*
X006591Y007335D01*
X006618Y007318D01*
X006643Y007298D01*
X006666Y007275D01*
X006686Y007250D01*
X006703Y007223D01*
X006716Y007193D01*
X006725Y007163D01*
X006731Y007131D01*
X006733Y007099D01*
X006731Y007067D01*
X006725Y007035D01*
X006716Y007005D01*
X006703Y006975D01*
X006686Y006948D01*
X006666Y006923D01*
X006643Y006900D01*
X006618Y006880D01*
X006591Y006863D01*
X006561Y006850D01*
X006531Y006841D01*
X006499Y006835D01*
X006467Y006833D01*
X006435Y006835D01*
X006403Y006841D01*
X006373Y006850D01*
X006343Y006863D01*
X006316Y006880D01*
X006291Y006900D01*
X006268Y006923D01*
X006248Y006948D01*
X006231Y006975D01*
X006218Y007005D01*
X006209Y007035D01*
X006203Y007067D01*
X006201Y007099D01*
X006201Y012851D02*
X006203Y012883D01*
X006209Y012915D01*
X006218Y012945D01*
X006231Y012975D01*
X006248Y013002D01*
X006268Y013027D01*
X006291Y013050D01*
X006316Y013070D01*
X006343Y013087D01*
X006373Y013100D01*
X006403Y013109D01*
X006435Y013115D01*
X006467Y013117D01*
X006499Y013115D01*
X006531Y013109D01*
X006561Y013100D01*
X006591Y013087D01*
X006618Y013070D01*
X006643Y013050D01*
X006666Y013027D01*
X006686Y013002D01*
X006703Y012975D01*
X006716Y012945D01*
X006725Y012915D01*
X006731Y012883D01*
X006733Y012851D01*
X006731Y012819D01*
X006725Y012787D01*
X006716Y012757D01*
X006703Y012727D01*
X006686Y012700D01*
X006666Y012675D01*
X006643Y012652D01*
X006618Y012632D01*
X006591Y012615D01*
X006561Y012602D01*
X006531Y012593D01*
X006499Y012587D01*
X006467Y012585D01*
X006435Y012587D01*
X006403Y012593D01*
X006373Y012602D01*
X006343Y012615D01*
X006316Y012632D01*
X006291Y012652D01*
X006268Y012675D01*
X006248Y012700D01*
X006231Y012727D01*
X006218Y012757D01*
X006209Y012787D01*
X006203Y012819D01*
X006201Y012851D01*
X018208Y012851D02*
X018210Y012883D01*
X018216Y012915D01*
X018225Y012945D01*
X018238Y012975D01*
X018255Y013002D01*
X018275Y013027D01*
X018298Y013050D01*
X018323Y013070D01*
X018350Y013087D01*
X018380Y013100D01*
X018410Y013109D01*
X018442Y013115D01*
X018474Y013117D01*
X018506Y013115D01*
X018538Y013109D01*
X018568Y013100D01*
X018598Y013087D01*
X018625Y013070D01*
X018650Y013050D01*
X018673Y013027D01*
X018693Y013002D01*
X018710Y012975D01*
X018723Y012945D01*
X018732Y012915D01*
X018738Y012883D01*
X018740Y012851D01*
X018738Y012819D01*
X018732Y012787D01*
X018723Y012757D01*
X018710Y012727D01*
X018693Y012700D01*
X018673Y012675D01*
X018650Y012652D01*
X018625Y012632D01*
X018598Y012615D01*
X018568Y012602D01*
X018538Y012593D01*
X018506Y012587D01*
X018474Y012585D01*
X018442Y012587D01*
X018410Y012593D01*
X018380Y012602D01*
X018350Y012615D01*
X018323Y012632D01*
X018298Y012652D01*
X018275Y012675D01*
X018255Y012700D01*
X018238Y012727D01*
X018225Y012757D01*
X018216Y012787D01*
X018210Y012819D01*
X018208Y012851D01*
X018208Y007099D02*
X018210Y007131D01*
X018216Y007163D01*
X018225Y007193D01*
X018238Y007223D01*
X018255Y007250D01*
X018275Y007275D01*
X018298Y007298D01*
X018323Y007318D01*
X018350Y007335D01*
X018380Y007348D01*
X018410Y007357D01*
X018442Y007363D01*
X018474Y007365D01*
X018506Y007363D01*
X018538Y007357D01*
X018568Y007348D01*
X018598Y007335D01*
X018625Y007318D01*
X018650Y007298D01*
X018673Y007275D01*
X018693Y007250D01*
X018710Y007223D01*
X018723Y007193D01*
X018732Y007163D01*
X018738Y007131D01*
X018740Y007099D01*
X018738Y007067D01*
X018732Y007035D01*
X018723Y007005D01*
X018710Y006975D01*
X018693Y006948D01*
X018673Y006923D01*
X018650Y006900D01*
X018625Y006880D01*
X018598Y006863D01*
X018568Y006850D01*
X018538Y006841D01*
X018506Y006835D01*
X018474Y006833D01*
X018442Y006835D01*
X018410Y006841D01*
X018380Y006850D01*
X018350Y006863D01*
X018323Y006880D01*
X018298Y006900D01*
X018275Y006923D01*
X018255Y006948D01*
X018238Y006975D01*
X018225Y007005D01*
X018216Y007035D01*
X018210Y007067D01*
X018208Y007099D01*
X034223Y008617D02*
X034225Y008660D01*
X034231Y008702D01*
X034241Y008744D01*
X034254Y008785D01*
X034271Y008825D01*
X034292Y008862D01*
X034316Y008898D01*
X034343Y008931D01*
X034373Y008962D01*
X034406Y008990D01*
X034441Y009015D01*
X034478Y009036D01*
X034517Y009054D01*
X034557Y009068D01*
X034599Y009079D01*
X034641Y009086D01*
X034684Y009089D01*
X034727Y009088D01*
X034770Y009083D01*
X034812Y009074D01*
X034853Y009062D01*
X034893Y009046D01*
X034931Y009026D01*
X034967Y009003D01*
X035001Y008976D01*
X035033Y008947D01*
X035061Y008915D01*
X035087Y008880D01*
X035109Y008844D01*
X035128Y008805D01*
X035143Y008765D01*
X035155Y008724D01*
X035163Y008681D01*
X035167Y008638D01*
X035167Y008596D01*
X035163Y008553D01*
X035155Y008510D01*
X035143Y008469D01*
X035128Y008429D01*
X035109Y008390D01*
X035087Y008354D01*
X035061Y008319D01*
X035033Y008287D01*
X035001Y008258D01*
X034967Y008231D01*
X034931Y008208D01*
X034893Y008188D01*
X034853Y008172D01*
X034812Y008160D01*
X034770Y008151D01*
X034727Y008146D01*
X034684Y008145D01*
X034641Y008148D01*
X034599Y008155D01*
X034557Y008166D01*
X034517Y008180D01*
X034478Y008198D01*
X034441Y008219D01*
X034406Y008244D01*
X034373Y008272D01*
X034343Y008303D01*
X034316Y008336D01*
X034292Y008372D01*
X034271Y008409D01*
X034254Y008449D01*
X034241Y008490D01*
X034231Y008532D01*
X034225Y008574D01*
X034223Y008617D01*
X041069Y031031D02*
X041071Y031058D01*
X041077Y031085D01*
X041086Y031111D01*
X041099Y031135D01*
X041115Y031158D01*
X041134Y031177D01*
X041156Y031194D01*
X041180Y031208D01*
X041205Y031218D01*
X041232Y031225D01*
X041259Y031228D01*
X041287Y031227D01*
X041314Y031222D01*
X041340Y031214D01*
X041364Y031202D01*
X041387Y031186D01*
X041408Y031168D01*
X041425Y031147D01*
X041440Y031123D01*
X041451Y031098D01*
X041459Y031072D01*
X041463Y031045D01*
X041463Y031017D01*
X041459Y030990D01*
X041451Y030964D01*
X041440Y030939D01*
X041425Y030915D01*
X041408Y030894D01*
X041387Y030876D01*
X041365Y030860D01*
X041340Y030848D01*
X041314Y030840D01*
X041287Y030835D01*
X041259Y030834D01*
X041232Y030837D01*
X041205Y030844D01*
X041180Y030854D01*
X041156Y030868D01*
X041134Y030885D01*
X041115Y030904D01*
X041099Y030927D01*
X041086Y030951D01*
X041077Y030977D01*
X041071Y031004D01*
X041069Y031031D01*
X041069Y032763D02*
X041071Y032790D01*
X041077Y032817D01*
X041086Y032843D01*
X041099Y032867D01*
X041115Y032890D01*
X041134Y032909D01*
X041156Y032926D01*
X041180Y032940D01*
X041205Y032950D01*
X041232Y032957D01*
X041259Y032960D01*
X041287Y032959D01*
X041314Y032954D01*
X041340Y032946D01*
X041364Y032934D01*
X041387Y032918D01*
X041408Y032900D01*
X041425Y032879D01*
X041440Y032855D01*
X041451Y032830D01*
X041459Y032804D01*
X041463Y032777D01*
X041463Y032749D01*
X041459Y032722D01*
X041451Y032696D01*
X041440Y032671D01*
X041425Y032647D01*
X041408Y032626D01*
X041387Y032608D01*
X041365Y032592D01*
X041340Y032580D01*
X041314Y032572D01*
X041287Y032567D01*
X041259Y032566D01*
X041232Y032569D01*
X041205Y032576D01*
X041180Y032586D01*
X041156Y032600D01*
X041134Y032617D01*
X041115Y032636D01*
X041099Y032659D01*
X041086Y032683D01*
X041077Y032709D01*
X041071Y032736D01*
X041069Y032763D01*
X012609Y040389D02*
X012611Y040432D01*
X012617Y040474D01*
X012627Y040516D01*
X012640Y040557D01*
X012657Y040597D01*
X012678Y040634D01*
X012702Y040670D01*
X012729Y040703D01*
X012759Y040734D01*
X012792Y040762D01*
X012827Y040787D01*
X012864Y040808D01*
X012903Y040826D01*
X012943Y040840D01*
X012985Y040851D01*
X013027Y040858D01*
X013070Y040861D01*
X013113Y040860D01*
X013156Y040855D01*
X013198Y040846D01*
X013239Y040834D01*
X013279Y040818D01*
X013317Y040798D01*
X013353Y040775D01*
X013387Y040748D01*
X013419Y040719D01*
X013447Y040687D01*
X013473Y040652D01*
X013495Y040616D01*
X013514Y040577D01*
X013529Y040537D01*
X013541Y040496D01*
X013549Y040453D01*
X013553Y040410D01*
X013553Y040368D01*
X013549Y040325D01*
X013541Y040282D01*
X013529Y040241D01*
X013514Y040201D01*
X013495Y040162D01*
X013473Y040126D01*
X013447Y040091D01*
X013419Y040059D01*
X013387Y040030D01*
X013353Y040003D01*
X013317Y039980D01*
X013279Y039960D01*
X013239Y039944D01*
X013198Y039932D01*
X013156Y039923D01*
X013113Y039918D01*
X013070Y039917D01*
X013027Y039920D01*
X012985Y039927D01*
X012943Y039938D01*
X012903Y039952D01*
X012864Y039970D01*
X012827Y039991D01*
X012792Y040016D01*
X012759Y040044D01*
X012729Y040075D01*
X012702Y040108D01*
X012678Y040144D01*
X012657Y040181D01*
X012640Y040221D01*
X012627Y040262D01*
X012617Y040304D01*
X012611Y040346D01*
X012609Y040389D01*
D11*
X019808Y043218D02*
X020422Y043218D01*
X020115Y043525D02*
X020115Y042911D01*
X027263Y042972D02*
X027877Y042972D01*
X027887Y006096D02*
X027887Y005482D01*
X027581Y005789D02*
X028194Y005789D01*
X020740Y006035D02*
X020126Y006035D01*
D12*
X020989Y007844D02*
X021202Y007844D01*
X021096Y007844D02*
X021096Y008485D01*
X021202Y008485D01*
X021525Y008485D02*
X021525Y007844D01*
X021632Y007844D02*
X021418Y007844D01*
X021849Y008058D02*
X022276Y008058D01*
X022276Y008164D02*
X022170Y008271D01*
X021956Y008271D01*
X021849Y008164D01*
X021849Y008058D01*
X021956Y007844D02*
X022170Y007844D01*
X022276Y007951D01*
X022276Y008164D01*
X022494Y007951D02*
X022601Y007844D01*
X022814Y007844D01*
X022921Y007951D01*
X022921Y008378D01*
X022814Y008485D01*
X022601Y008485D01*
X022494Y008378D01*
X021632Y008485D02*
X021525Y008485D01*
X023783Y008271D02*
X023783Y007844D01*
X023783Y008164D02*
X024210Y008164D01*
X024210Y008271D02*
X023997Y008485D01*
X023783Y008271D01*
X024210Y008271D02*
X024210Y007844D01*
X024428Y007844D02*
X024428Y008271D01*
X024641Y008485D01*
X024855Y008271D01*
X024855Y007844D01*
X024855Y008164D02*
X024428Y008164D01*
X025717Y008271D02*
X026144Y007844D01*
X026144Y008271D02*
X025717Y007844D01*
X027006Y007844D02*
X027433Y007844D01*
X027219Y007844D02*
X027219Y008485D01*
X027433Y008271D01*
X026943Y040522D02*
X026516Y040522D01*
X026730Y040522D02*
X026730Y041162D01*
X026943Y040949D01*
X025654Y040949D02*
X025227Y040522D01*
X025654Y040522D02*
X025227Y040949D01*
X024365Y040949D02*
X024152Y041162D01*
X023938Y040949D01*
X023938Y040522D01*
X023721Y040522D02*
X023721Y040949D01*
X023507Y041162D01*
X023294Y040949D01*
X023294Y040522D01*
X023294Y040842D02*
X023721Y040842D01*
X023938Y040842D02*
X024365Y040842D01*
X024365Y040949D02*
X024365Y040522D01*
X022432Y040629D02*
X022325Y040522D01*
X022111Y040522D01*
X022005Y040629D01*
X021787Y040629D02*
X021787Y040842D01*
X021680Y040949D01*
X021467Y040949D01*
X021360Y040842D01*
X021360Y040735D01*
X021787Y040735D01*
X021787Y040629D02*
X021680Y040522D01*
X021467Y040522D01*
X021143Y040522D02*
X020929Y040522D01*
X021036Y040522D02*
X021036Y041162D01*
X021143Y041162D01*
X020713Y041162D02*
X020606Y041162D01*
X020606Y040522D01*
X020713Y040522D02*
X020499Y040522D01*
X022005Y041056D02*
X022111Y041162D01*
X022325Y041162D01*
X022432Y041056D01*
X022432Y040629D01*
D13*
X019951Y041629D02*
X019951Y042416D01*
X019163Y042416D01*
X019163Y043991D01*
X019951Y043991D01*
X019951Y044779D01*
X027825Y044779D01*
X027825Y041629D01*
X019951Y041629D01*
X014045Y042810D02*
X014045Y043597D01*
X012471Y043597D01*
X012471Y042810D02*
X014045Y042810D01*
X012471Y041235D02*
X012471Y045172D01*
X012864Y045566D02*
X012077Y045566D01*
X012864Y045566D02*
X012864Y046353D01*
X034911Y046353D01*
X034911Y045566D01*
X035699Y045566D01*
X035305Y045172D02*
X035305Y041235D01*
X034911Y040842D02*
X034911Y040054D01*
X012864Y040054D01*
X012864Y040842D01*
X012077Y040842D01*
X012097Y039995D02*
X035679Y039995D01*
X035679Y046412D01*
X012097Y046412D01*
X012097Y039995D01*
X033730Y042810D02*
X033730Y043597D01*
X035305Y043597D01*
X035305Y042810D02*
X033730Y042810D01*
X034911Y040842D02*
X035699Y040842D01*
X035679Y009011D02*
X012097Y009011D01*
X012097Y002594D01*
X035679Y002594D01*
X035679Y009011D01*
X034911Y008952D02*
X012864Y008952D01*
X012864Y008164D01*
X012077Y008164D01*
X012471Y007771D02*
X012471Y003834D01*
X012864Y003440D02*
X012077Y003440D01*
X012864Y003440D02*
X012864Y002653D01*
X034911Y002653D01*
X034911Y003440D01*
X035699Y003440D01*
X035305Y003834D02*
X035305Y007771D01*
X034911Y008164D02*
X034911Y008952D01*
X034911Y008164D02*
X035699Y008164D01*
X035305Y006196D02*
X033730Y006196D01*
X033730Y005409D01*
X035305Y005409D01*
X028612Y005015D02*
X027825Y005015D01*
X027825Y004227D01*
X019951Y004227D01*
X019951Y007377D01*
X027825Y007377D01*
X027825Y006590D01*
X028612Y006590D01*
X028612Y005015D01*
X014045Y005409D02*
X012471Y005409D01*
X012471Y006196D02*
X014045Y006196D01*
X014045Y005409D01*
D14*
X015030Y005802D02*
X015032Y005864D01*
X015038Y005927D01*
X015048Y005988D01*
X015062Y006049D01*
X015079Y006109D01*
X015100Y006168D01*
X015126Y006225D01*
X015154Y006280D01*
X015186Y006334D01*
X015222Y006385D01*
X015260Y006435D01*
X015302Y006481D01*
X015346Y006525D01*
X015394Y006566D01*
X015443Y006604D01*
X015495Y006638D01*
X015549Y006669D01*
X015605Y006697D01*
X015663Y006721D01*
X015722Y006742D01*
X015782Y006758D01*
X015843Y006771D01*
X015905Y006780D01*
X015967Y006785D01*
X016030Y006786D01*
X016092Y006783D01*
X016154Y006776D01*
X016216Y006765D01*
X016276Y006750D01*
X016336Y006732D01*
X016394Y006710D01*
X016451Y006684D01*
X016506Y006654D01*
X016559Y006621D01*
X016610Y006585D01*
X016658Y006546D01*
X016704Y006503D01*
X016747Y006458D01*
X016787Y006410D01*
X016824Y006360D01*
X016858Y006307D01*
X016889Y006253D01*
X016915Y006197D01*
X016939Y006139D01*
X016958Y006079D01*
X016974Y006019D01*
X016986Y005957D01*
X016994Y005896D01*
X016998Y005833D01*
X016998Y005771D01*
X016994Y005708D01*
X016986Y005647D01*
X016974Y005585D01*
X016958Y005525D01*
X016939Y005465D01*
X016915Y005407D01*
X016889Y005351D01*
X016858Y005297D01*
X016824Y005244D01*
X016787Y005194D01*
X016747Y005146D01*
X016704Y005101D01*
X016658Y005058D01*
X016610Y005019D01*
X016559Y004983D01*
X016506Y004950D01*
X016451Y004920D01*
X016394Y004894D01*
X016336Y004872D01*
X016276Y004854D01*
X016216Y004839D01*
X016154Y004828D01*
X016092Y004821D01*
X016030Y004818D01*
X015967Y004819D01*
X015905Y004824D01*
X015843Y004833D01*
X015782Y004846D01*
X015722Y004862D01*
X015663Y004883D01*
X015605Y004907D01*
X015549Y004935D01*
X015495Y004966D01*
X015443Y005000D01*
X015394Y005038D01*
X015346Y005079D01*
X015302Y005123D01*
X015260Y005169D01*
X015222Y005219D01*
X015186Y005270D01*
X015154Y005324D01*
X015126Y005379D01*
X015100Y005436D01*
X015079Y005495D01*
X015062Y005555D01*
X015048Y005616D01*
X015038Y005677D01*
X015032Y005740D01*
X015030Y005802D01*
X015423Y005802D02*
X015425Y005850D01*
X015431Y005898D01*
X015441Y005945D01*
X015454Y005991D01*
X015472Y006036D01*
X015492Y006080D01*
X015517Y006122D01*
X015545Y006161D01*
X015575Y006198D01*
X015609Y006232D01*
X015646Y006264D01*
X015684Y006293D01*
X015725Y006318D01*
X015768Y006340D01*
X015813Y006358D01*
X015859Y006372D01*
X015906Y006383D01*
X015954Y006390D01*
X016002Y006393D01*
X016050Y006392D01*
X016098Y006387D01*
X016146Y006378D01*
X016192Y006366D01*
X016237Y006349D01*
X016281Y006329D01*
X016323Y006306D01*
X016363Y006279D01*
X016401Y006249D01*
X016436Y006216D01*
X016468Y006180D01*
X016498Y006142D01*
X016524Y006101D01*
X016546Y006058D01*
X016566Y006014D01*
X016581Y005969D01*
X016593Y005922D01*
X016601Y005874D01*
X016605Y005826D01*
X016605Y005778D01*
X016601Y005730D01*
X016593Y005682D01*
X016581Y005635D01*
X016566Y005590D01*
X016546Y005546D01*
X016524Y005503D01*
X016498Y005462D01*
X016468Y005424D01*
X016436Y005388D01*
X016401Y005355D01*
X016363Y005325D01*
X016323Y005298D01*
X016281Y005275D01*
X016237Y005255D01*
X016192Y005238D01*
X016146Y005226D01*
X016098Y005217D01*
X016050Y005212D01*
X016002Y005211D01*
X015954Y005214D01*
X015906Y005221D01*
X015859Y005232D01*
X015813Y005246D01*
X015768Y005264D01*
X015725Y005286D01*
X015684Y005311D01*
X015646Y005340D01*
X015609Y005372D01*
X015575Y005406D01*
X015545Y005443D01*
X015517Y005482D01*
X015492Y005524D01*
X015472Y005568D01*
X015454Y005613D01*
X015441Y005659D01*
X015431Y005706D01*
X015425Y005754D01*
X015423Y005802D01*
X030778Y005802D02*
X030780Y005864D01*
X030786Y005927D01*
X030796Y005988D01*
X030810Y006049D01*
X030827Y006109D01*
X030848Y006168D01*
X030874Y006225D01*
X030902Y006280D01*
X030934Y006334D01*
X030970Y006385D01*
X031008Y006435D01*
X031050Y006481D01*
X031094Y006525D01*
X031142Y006566D01*
X031191Y006604D01*
X031243Y006638D01*
X031297Y006669D01*
X031353Y006697D01*
X031411Y006721D01*
X031470Y006742D01*
X031530Y006758D01*
X031591Y006771D01*
X031653Y006780D01*
X031715Y006785D01*
X031778Y006786D01*
X031840Y006783D01*
X031902Y006776D01*
X031964Y006765D01*
X032024Y006750D01*
X032084Y006732D01*
X032142Y006710D01*
X032199Y006684D01*
X032254Y006654D01*
X032307Y006621D01*
X032358Y006585D01*
X032406Y006546D01*
X032452Y006503D01*
X032495Y006458D01*
X032535Y006410D01*
X032572Y006360D01*
X032606Y006307D01*
X032637Y006253D01*
X032663Y006197D01*
X032687Y006139D01*
X032706Y006079D01*
X032722Y006019D01*
X032734Y005957D01*
X032742Y005896D01*
X032746Y005833D01*
X032746Y005771D01*
X032742Y005708D01*
X032734Y005647D01*
X032722Y005585D01*
X032706Y005525D01*
X032687Y005465D01*
X032663Y005407D01*
X032637Y005351D01*
X032606Y005297D01*
X032572Y005244D01*
X032535Y005194D01*
X032495Y005146D01*
X032452Y005101D01*
X032406Y005058D01*
X032358Y005019D01*
X032307Y004983D01*
X032254Y004950D01*
X032199Y004920D01*
X032142Y004894D01*
X032084Y004872D01*
X032024Y004854D01*
X031964Y004839D01*
X031902Y004828D01*
X031840Y004821D01*
X031778Y004818D01*
X031715Y004819D01*
X031653Y004824D01*
X031591Y004833D01*
X031530Y004846D01*
X031470Y004862D01*
X031411Y004883D01*
X031353Y004907D01*
X031297Y004935D01*
X031243Y004966D01*
X031191Y005000D01*
X031142Y005038D01*
X031094Y005079D01*
X031050Y005123D01*
X031008Y005169D01*
X030970Y005219D01*
X030934Y005270D01*
X030902Y005324D01*
X030874Y005379D01*
X030848Y005436D01*
X030827Y005495D01*
X030810Y005555D01*
X030796Y005616D01*
X030786Y005677D01*
X030780Y005740D01*
X030778Y005802D01*
X031171Y005802D02*
X031173Y005850D01*
X031179Y005898D01*
X031189Y005945D01*
X031202Y005991D01*
X031220Y006036D01*
X031240Y006080D01*
X031265Y006122D01*
X031293Y006161D01*
X031323Y006198D01*
X031357Y006232D01*
X031394Y006264D01*
X031432Y006293D01*
X031473Y006318D01*
X031516Y006340D01*
X031561Y006358D01*
X031607Y006372D01*
X031654Y006383D01*
X031702Y006390D01*
X031750Y006393D01*
X031798Y006392D01*
X031846Y006387D01*
X031894Y006378D01*
X031940Y006366D01*
X031985Y006349D01*
X032029Y006329D01*
X032071Y006306D01*
X032111Y006279D01*
X032149Y006249D01*
X032184Y006216D01*
X032216Y006180D01*
X032246Y006142D01*
X032272Y006101D01*
X032294Y006058D01*
X032314Y006014D01*
X032329Y005969D01*
X032341Y005922D01*
X032349Y005874D01*
X032353Y005826D01*
X032353Y005778D01*
X032349Y005730D01*
X032341Y005682D01*
X032329Y005635D01*
X032314Y005590D01*
X032294Y005546D01*
X032272Y005503D01*
X032246Y005462D01*
X032216Y005424D01*
X032184Y005388D01*
X032149Y005355D01*
X032111Y005325D01*
X032071Y005298D01*
X032029Y005275D01*
X031985Y005255D01*
X031940Y005238D01*
X031894Y005226D01*
X031846Y005217D01*
X031798Y005212D01*
X031750Y005211D01*
X031702Y005214D01*
X031654Y005221D01*
X031607Y005232D01*
X031561Y005246D01*
X031516Y005264D01*
X031473Y005286D01*
X031432Y005311D01*
X031394Y005340D01*
X031357Y005372D01*
X031323Y005406D01*
X031293Y005443D01*
X031265Y005482D01*
X031240Y005524D01*
X031220Y005568D01*
X031202Y005613D01*
X031189Y005659D01*
X031179Y005706D01*
X031173Y005754D01*
X031171Y005802D01*
X030778Y043204D02*
X030780Y043266D01*
X030786Y043329D01*
X030796Y043390D01*
X030810Y043451D01*
X030827Y043511D01*
X030848Y043570D01*
X030874Y043627D01*
X030902Y043682D01*
X030934Y043736D01*
X030970Y043787D01*
X031008Y043837D01*
X031050Y043883D01*
X031094Y043927D01*
X031142Y043968D01*
X031191Y044006D01*
X031243Y044040D01*
X031297Y044071D01*
X031353Y044099D01*
X031411Y044123D01*
X031470Y044144D01*
X031530Y044160D01*
X031591Y044173D01*
X031653Y044182D01*
X031715Y044187D01*
X031778Y044188D01*
X031840Y044185D01*
X031902Y044178D01*
X031964Y044167D01*
X032024Y044152D01*
X032084Y044134D01*
X032142Y044112D01*
X032199Y044086D01*
X032254Y044056D01*
X032307Y044023D01*
X032358Y043987D01*
X032406Y043948D01*
X032452Y043905D01*
X032495Y043860D01*
X032535Y043812D01*
X032572Y043762D01*
X032606Y043709D01*
X032637Y043655D01*
X032663Y043599D01*
X032687Y043541D01*
X032706Y043481D01*
X032722Y043421D01*
X032734Y043359D01*
X032742Y043298D01*
X032746Y043235D01*
X032746Y043173D01*
X032742Y043110D01*
X032734Y043049D01*
X032722Y042987D01*
X032706Y042927D01*
X032687Y042867D01*
X032663Y042809D01*
X032637Y042753D01*
X032606Y042699D01*
X032572Y042646D01*
X032535Y042596D01*
X032495Y042548D01*
X032452Y042503D01*
X032406Y042460D01*
X032358Y042421D01*
X032307Y042385D01*
X032254Y042352D01*
X032199Y042322D01*
X032142Y042296D01*
X032084Y042274D01*
X032024Y042256D01*
X031964Y042241D01*
X031902Y042230D01*
X031840Y042223D01*
X031778Y042220D01*
X031715Y042221D01*
X031653Y042226D01*
X031591Y042235D01*
X031530Y042248D01*
X031470Y042264D01*
X031411Y042285D01*
X031353Y042309D01*
X031297Y042337D01*
X031243Y042368D01*
X031191Y042402D01*
X031142Y042440D01*
X031094Y042481D01*
X031050Y042525D01*
X031008Y042571D01*
X030970Y042621D01*
X030934Y042672D01*
X030902Y042726D01*
X030874Y042781D01*
X030848Y042838D01*
X030827Y042897D01*
X030810Y042957D01*
X030796Y043018D01*
X030786Y043079D01*
X030780Y043142D01*
X030778Y043204D01*
X031171Y043204D02*
X031173Y043252D01*
X031179Y043300D01*
X031189Y043347D01*
X031202Y043393D01*
X031220Y043438D01*
X031240Y043482D01*
X031265Y043524D01*
X031293Y043563D01*
X031323Y043600D01*
X031357Y043634D01*
X031394Y043666D01*
X031432Y043695D01*
X031473Y043720D01*
X031516Y043742D01*
X031561Y043760D01*
X031607Y043774D01*
X031654Y043785D01*
X031702Y043792D01*
X031750Y043795D01*
X031798Y043794D01*
X031846Y043789D01*
X031894Y043780D01*
X031940Y043768D01*
X031985Y043751D01*
X032029Y043731D01*
X032071Y043708D01*
X032111Y043681D01*
X032149Y043651D01*
X032184Y043618D01*
X032216Y043582D01*
X032246Y043544D01*
X032272Y043503D01*
X032294Y043460D01*
X032314Y043416D01*
X032329Y043371D01*
X032341Y043324D01*
X032349Y043276D01*
X032353Y043228D01*
X032353Y043180D01*
X032349Y043132D01*
X032341Y043084D01*
X032329Y043037D01*
X032314Y042992D01*
X032294Y042948D01*
X032272Y042905D01*
X032246Y042864D01*
X032216Y042826D01*
X032184Y042790D01*
X032149Y042757D01*
X032111Y042727D01*
X032071Y042700D01*
X032029Y042677D01*
X031985Y042657D01*
X031940Y042640D01*
X031894Y042628D01*
X031846Y042619D01*
X031798Y042614D01*
X031750Y042613D01*
X031702Y042616D01*
X031654Y042623D01*
X031607Y042634D01*
X031561Y042648D01*
X031516Y042666D01*
X031473Y042688D01*
X031432Y042713D01*
X031394Y042742D01*
X031357Y042774D01*
X031323Y042808D01*
X031293Y042845D01*
X031265Y042884D01*
X031240Y042926D01*
X031220Y042970D01*
X031202Y043015D01*
X031189Y043061D01*
X031179Y043108D01*
X031173Y043156D01*
X031171Y043204D01*
X015030Y043204D02*
X015032Y043266D01*
X015038Y043329D01*
X015048Y043390D01*
X015062Y043451D01*
X015079Y043511D01*
X015100Y043570D01*
X015126Y043627D01*
X015154Y043682D01*
X015186Y043736D01*
X015222Y043787D01*
X015260Y043837D01*
X015302Y043883D01*
X015346Y043927D01*
X015394Y043968D01*
X015443Y044006D01*
X015495Y044040D01*
X015549Y044071D01*
X015605Y044099D01*
X015663Y044123D01*
X015722Y044144D01*
X015782Y044160D01*
X015843Y044173D01*
X015905Y044182D01*
X015967Y044187D01*
X016030Y044188D01*
X016092Y044185D01*
X016154Y044178D01*
X016216Y044167D01*
X016276Y044152D01*
X016336Y044134D01*
X016394Y044112D01*
X016451Y044086D01*
X016506Y044056D01*
X016559Y044023D01*
X016610Y043987D01*
X016658Y043948D01*
X016704Y043905D01*
X016747Y043860D01*
X016787Y043812D01*
X016824Y043762D01*
X016858Y043709D01*
X016889Y043655D01*
X016915Y043599D01*
X016939Y043541D01*
X016958Y043481D01*
X016974Y043421D01*
X016986Y043359D01*
X016994Y043298D01*
X016998Y043235D01*
X016998Y043173D01*
X016994Y043110D01*
X016986Y043049D01*
X016974Y042987D01*
X016958Y042927D01*
X016939Y042867D01*
X016915Y042809D01*
X016889Y042753D01*
X016858Y042699D01*
X016824Y042646D01*
X016787Y042596D01*
X016747Y042548D01*
X016704Y042503D01*
X016658Y042460D01*
X016610Y042421D01*
X016559Y042385D01*
X016506Y042352D01*
X016451Y042322D01*
X016394Y042296D01*
X016336Y042274D01*
X016276Y042256D01*
X016216Y042241D01*
X016154Y042230D01*
X016092Y042223D01*
X016030Y042220D01*
X015967Y042221D01*
X015905Y042226D01*
X015843Y042235D01*
X015782Y042248D01*
X015722Y042264D01*
X015663Y042285D01*
X015605Y042309D01*
X015549Y042337D01*
X015495Y042368D01*
X015443Y042402D01*
X015394Y042440D01*
X015346Y042481D01*
X015302Y042525D01*
X015260Y042571D01*
X015222Y042621D01*
X015186Y042672D01*
X015154Y042726D01*
X015126Y042781D01*
X015100Y042838D01*
X015079Y042897D01*
X015062Y042957D01*
X015048Y043018D01*
X015038Y043079D01*
X015032Y043142D01*
X015030Y043204D01*
X015423Y043204D02*
X015425Y043252D01*
X015431Y043300D01*
X015441Y043347D01*
X015454Y043393D01*
X015472Y043438D01*
X015492Y043482D01*
X015517Y043524D01*
X015545Y043563D01*
X015575Y043600D01*
X015609Y043634D01*
X015646Y043666D01*
X015684Y043695D01*
X015725Y043720D01*
X015768Y043742D01*
X015813Y043760D01*
X015859Y043774D01*
X015906Y043785D01*
X015954Y043792D01*
X016002Y043795D01*
X016050Y043794D01*
X016098Y043789D01*
X016146Y043780D01*
X016192Y043768D01*
X016237Y043751D01*
X016281Y043731D01*
X016323Y043708D01*
X016363Y043681D01*
X016401Y043651D01*
X016436Y043618D01*
X016468Y043582D01*
X016498Y043544D01*
X016524Y043503D01*
X016546Y043460D01*
X016566Y043416D01*
X016581Y043371D01*
X016593Y043324D01*
X016601Y043276D01*
X016605Y043228D01*
X016605Y043180D01*
X016601Y043132D01*
X016593Y043084D01*
X016581Y043037D01*
X016566Y042992D01*
X016546Y042948D01*
X016524Y042905D01*
X016498Y042864D01*
X016468Y042826D01*
X016436Y042790D01*
X016401Y042757D01*
X016363Y042727D01*
X016323Y042700D01*
X016281Y042677D01*
X016237Y042657D01*
X016192Y042640D01*
X016146Y042628D01*
X016098Y042619D01*
X016050Y042614D01*
X016002Y042613D01*
X015954Y042616D01*
X015906Y042623D01*
X015859Y042634D01*
X015813Y042648D01*
X015768Y042666D01*
X015725Y042688D01*
X015684Y042713D01*
X015646Y042742D01*
X015609Y042774D01*
X015575Y042808D01*
X015545Y042845D01*
X015517Y042884D01*
X015492Y042926D01*
X015472Y042970D01*
X015454Y043015D01*
X015441Y043061D01*
X015431Y043108D01*
X015425Y043156D01*
X015423Y043204D01*
M02*
