%
M48
M72
T01C0.0130
T02C0.0200
T03C0.0374
T04C0.0472
T05C0.0787
T06C0.0935
%
T01
X3160Y840
X4410Y890
X3660Y1840
X3010Y2540
X3710Y2940
X4510Y2690
X3760Y3690
X4010Y4490
X5910Y3590
X7910Y4190
X6910Y5090
X8710Y5290
X10310Y5290
X11840Y5870
X12360Y5490
X13250Y6500
X13600Y6800
X13250Y6950
X11960Y7990
X11010Y7490
X11510Y6990
X10260Y7840
X8810Y7090
X7960Y8320
X9020Y8780
X9210Y9140
X10100Y9900
X11010Y10440
X11460Y10490
X10510Y10740
X11910Y9540
X13160Y10640
X15500Y10100
X16200Y10500
X15710Y10790
X16710Y10140
X17160Y9490
X17990Y9090
X19010Y8890
X20110Y8540
X20910Y8790
X21960Y8990
X21610Y9390
X22110Y9790
X22760Y10090
X23210Y10490
X23910Y10840
X23360Y11240
X22510Y11440
X21260Y11140
X21810Y10640
X20960Y9990
X20410Y10240
X18360Y10590
X21260Y12090
X21760Y12190
X22510Y12190
X23310Y12590
X23760Y12040
X23960Y12890
X23060Y13540
X23860Y13740
X23260Y14290
X22910Y14840
X23660Y15140
X22960Y15940
X23760Y15990
X22060Y15840
X21560Y15140
X21260Y13490
X21560Y12890
X22410Y12990
X18360Y16040
X15560Y15990
X13060Y15990
X10510Y15990
X7910Y16040
X5360Y15990
X2710Y16040
X5360Y13490
X10560Y13490
X15760Y13490
X7960Y10540
X6910Y9540
X6210Y8940
X5300Y10000
X5610Y10490
X3460Y9090
X1660Y9590
X760Y10090
X2760Y10590
X1310Y8440
X4160Y7640
X5960Y7790
X6210Y6890
X4110Y6690
X3010Y6690
X1960Y6690
X610Y6490
X1960Y5540
X810Y4790
X1960Y4540
X2360Y3790
X1910Y3190
X1060Y2540
X4110Y5540
X10060Y4040
X11510Y3440
X11840Y3750
X12260Y3290
X12110Y2740
X11600Y2100
X10140Y2640
X9860Y2140
X9860Y1140
X11310Y790
X12460Y990
X13060Y1340
X13660Y1340
X14060Y940
X14710Y540
X13420Y400
X14510Y1440
X16260Y3190
X17710Y3190
X17660Y2090
X19710Y2840
X20560Y2490
X21160Y2490
X20860Y2040
X20410Y1790
X20710Y1290
X21210Y1040
X20660Y690
X21560Y490
X22360Y640
X22910Y640
X22110Y1040
X23060Y1390
X23510Y1840
X24060Y1540
X24110Y1040
X24060Y540
X24010Y2240
X23810Y2740
X23260Y2640
X22660Y2740
X22160Y2940
X21760Y2740
X19710Y4190
X21410Y4690
X21910Y4440
X22660Y4440
X22010Y5090
X21510Y5240
X21810Y6090
X21660Y7040
X21710Y8090
X22660Y8240
X23610Y8040
X23660Y8990
X23510Y9590
X22810Y9290
X20760Y7990
X18260Y7040
X17800Y6600
X17450Y7150
X17010Y7240
X15860Y7490
X14960Y8290
X14410Y8890
X16760Y8790
X16120Y6190
X16260Y4690
X17710Y4690
X19710Y5390
X23710Y6040
X23810Y5340
X24160Y4890
X23910Y4390
X23760Y6940
X13310Y3840
X10140Y3220
X7660Y840
T02
X7910Y2940
T03
X8060Y3440
X7260Y3440
X7660Y1440
T04
X6976Y10729
X8944Y10729
X12126Y10729
X14094Y10729
X17376Y10729
X19344Y10729
X19344Y15651
X17376Y15651
X14094Y15651
X12126Y15651
X8944Y15651
X6976Y15651
X3744Y15651
X1776Y15651
X1776Y10729
X3744Y10729
T05
X2000Y2000
X22000Y2000
X22000Y14000
T06
X8910Y2690
X8910Y1440
X6410Y1440
X6410Y2690
M30
