G75*
G70*
%OFA0B0*%
%FSLAX24Y24*%
%IPPOS*%
%LPD*%
%AMOC8*
5,1,8,0,0,1.08239X$1,22.5*
%
%ADD10R,0.0197X0.0197*%
%ADD11R,0.0315X0.0276*%
%ADD12R,0.0276X0.0315*%
%ADD13R,0.2047X0.2047*%
%ADD14C,0.0118*%
%ADD15R,0.0394X0.0433*%
%ADD16R,0.0433X0.0394*%
%ADD17R,0.0315X0.0315*%
%ADD18C,0.0300*%
%ADD19R,0.0394X0.0197*%
%ADD20R,0.0394X0.0787*%
%ADD21C,0.0010*%
%ADD22R,0.0945X0.0669*%
%ADD23C,0.0681*%
%ADD24R,0.0925X0.0748*%
%ADD25R,0.0591X0.1339*%
%ADD26C,0.0850*%
%ADD27C,0.0100*%
%ADD28R,0.0120X0.0060*%
%ADD29C,0.0310*%
%ADD30R,0.0118X0.0390*%
%ADD31C,0.0200*%
%ADD32C,0.0270*%
%ADD33C,0.0340*%
%ADD34C,0.0160*%
%ADD35C,0.0060*%
%ADD36C,0.0240*%
%ADD37C,0.0470*%
D10*
X019063Y003440D03*
X019457Y003440D03*
X019810Y003443D03*
X020263Y003440D03*
X020657Y003440D03*
X020657Y003040D03*
X020263Y003040D03*
X021063Y003040D03*
X021457Y003040D03*
X021813Y003440D03*
X022207Y003440D03*
X022610Y003437D03*
X022960Y003437D03*
X022960Y003043D03*
X022610Y003043D03*
X023660Y003193D03*
X024110Y003193D03*
X024110Y003587D03*
X023660Y003587D03*
X023713Y003890D03*
X023357Y003890D03*
X022963Y003890D03*
X022607Y003890D03*
X022213Y003890D03*
X021457Y003840D03*
X021063Y003840D03*
X020657Y003840D03*
X020263Y003840D03*
X019810Y003837D03*
X019457Y003840D03*
X019063Y003840D03*
X020263Y004190D03*
X020657Y004190D03*
X024107Y003890D03*
D11*
X023460Y004224D03*
X023460Y004756D03*
X019910Y002216D03*
X019910Y001664D03*
X019910Y001216D03*
X019910Y000664D03*
X014410Y002764D03*
X013860Y002764D03*
X013310Y002764D03*
X012760Y002764D03*
X012760Y003316D03*
X013310Y003316D03*
X013860Y003316D03*
X014410Y003316D03*
X014650Y005484D03*
X014100Y005484D03*
X013550Y005484D03*
X013550Y006016D03*
X014100Y006016D03*
X014650Y006016D03*
X015200Y006016D03*
X015200Y005484D03*
X016460Y006214D03*
X017010Y006214D03*
X017010Y006766D03*
X016460Y006766D03*
X020110Y007564D03*
X020110Y008116D03*
X019610Y009414D03*
X019010Y009424D03*
X019010Y009956D03*
X019610Y009966D03*
X017760Y010006D03*
X017760Y009474D03*
X014410Y009474D03*
X013810Y009464D03*
X013810Y010016D03*
X014410Y010006D03*
X012510Y010056D03*
X012510Y009524D03*
X009210Y009464D03*
X008610Y009474D03*
X008610Y010006D03*
X009210Y010016D03*
X007410Y010056D03*
X007410Y009524D03*
X004060Y009514D03*
X004060Y010066D03*
X003460Y010056D03*
X003460Y009524D03*
X002210Y009574D03*
X002210Y010106D03*
D12*
X008334Y006240D03*
X008886Y006240D03*
X013684Y003840D03*
X014236Y003840D03*
X019184Y005940D03*
X019736Y005940D03*
X020134Y005940D03*
X020686Y005940D03*
X020686Y005390D03*
X020134Y005390D03*
X020144Y004840D03*
X020676Y004840D03*
X020686Y006490D03*
X020134Y006490D03*
X019736Y006490D03*
X019184Y006490D03*
X019184Y007040D03*
X019736Y007040D03*
X020134Y007040D03*
X020686Y007040D03*
D13*
X016960Y003940D03*
D14*
X018188Y003842D02*
X018570Y003842D01*
X018570Y004038D02*
X018188Y004038D01*
X018188Y004235D02*
X018570Y004235D01*
X018570Y004432D02*
X018188Y004432D01*
X018188Y004629D02*
X018570Y004629D01*
X018570Y004826D02*
X018188Y004826D01*
X018188Y005023D02*
X018570Y005023D01*
X018043Y005168D02*
X018043Y005550D01*
X017846Y005550D02*
X017846Y005168D01*
X017649Y005168D02*
X017649Y005550D01*
X017452Y005550D02*
X017452Y005168D01*
X017255Y005168D02*
X017255Y005550D01*
X017058Y005550D02*
X017058Y005168D01*
X016862Y005168D02*
X016862Y005550D01*
X016665Y005550D02*
X016665Y005168D01*
X016468Y005168D02*
X016468Y005550D01*
X016271Y005550D02*
X016271Y005168D01*
X016074Y005168D02*
X016074Y005550D01*
X015877Y005550D02*
X015877Y005168D01*
X015732Y005023D02*
X015350Y005023D01*
X015350Y004826D02*
X015732Y004826D01*
X015732Y004629D02*
X015350Y004629D01*
X015350Y004432D02*
X015732Y004432D01*
X015732Y004235D02*
X015350Y004235D01*
X015350Y004038D02*
X015732Y004038D01*
X015732Y003842D02*
X015350Y003842D01*
X015350Y003645D02*
X015732Y003645D01*
X015732Y003448D02*
X015350Y003448D01*
X015350Y003251D02*
X015732Y003251D01*
X015732Y003054D02*
X015350Y003054D01*
X015350Y002857D02*
X015732Y002857D01*
X015877Y002712D02*
X015877Y002330D01*
X016074Y002330D02*
X016074Y002712D01*
X016271Y002712D02*
X016271Y002330D01*
X016468Y002330D02*
X016468Y002712D01*
X016665Y002712D02*
X016665Y002330D01*
X016862Y002330D02*
X016862Y002712D01*
X017058Y002712D02*
X017058Y002330D01*
X017255Y002330D02*
X017255Y002712D01*
X017452Y002712D02*
X017452Y002330D01*
X017649Y002330D02*
X017649Y002712D01*
X017846Y002712D02*
X017846Y002330D01*
X018043Y002330D02*
X018043Y002712D01*
X018188Y002857D02*
X018570Y002857D01*
X018570Y003054D02*
X018188Y003054D01*
X018188Y003251D02*
X018570Y003251D01*
X018570Y003448D02*
X018188Y003448D01*
X018188Y003645D02*
X018570Y003645D01*
D15*
X007745Y006240D03*
X007075Y006240D03*
D16*
X011010Y007955D03*
X011010Y008625D03*
D17*
X013110Y009445D03*
X013110Y010035D03*
X007960Y010035D03*
X007960Y009445D03*
X002760Y009495D03*
X002760Y010085D03*
X018360Y009985D03*
X018360Y009395D03*
D18*
X020110Y009290D03*
X014820Y008940D03*
X011010Y006990D03*
X007800Y007100D03*
X009710Y008940D03*
X004860Y008940D03*
X008400Y003950D03*
X009700Y002650D03*
X009800Y001650D03*
X015050Y001150D03*
X015700Y001150D03*
X016300Y001150D03*
X016950Y001150D03*
X017250Y000550D03*
X017850Y000550D03*
X018300Y000550D03*
X016600Y000550D03*
X015950Y000550D03*
X015400Y000550D03*
X023500Y000750D03*
X018980Y005030D03*
X018810Y005460D03*
X018500Y006150D03*
X018050Y006150D03*
X016060Y005810D03*
X015680Y005780D03*
X000850Y003300D03*
X021090Y015810D03*
D19*
X024245Y003890D03*
D20*
X024115Y001327D03*
D21*
X023918Y001326D02*
X032580Y001326D01*
X032580Y001318D02*
X023918Y001318D01*
X023918Y001309D02*
X032580Y001309D01*
X032580Y001301D02*
X023918Y001301D01*
X023918Y001292D02*
X032580Y001292D01*
X032580Y001284D02*
X023918Y001284D01*
X023918Y001275D02*
X032580Y001275D01*
X032580Y001267D02*
X023918Y001267D01*
X023918Y001258D02*
X032580Y001258D01*
X032580Y001250D02*
X023918Y001250D01*
X023918Y001241D02*
X032580Y001241D01*
X032580Y001233D02*
X023918Y001233D01*
X023918Y001224D02*
X032580Y001224D01*
X032580Y001216D02*
X023918Y001216D01*
X023918Y001207D02*
X032580Y001207D01*
X032580Y001199D02*
X023918Y001199D01*
X023918Y001190D02*
X032580Y001190D01*
X032580Y001182D02*
X023918Y001182D01*
X023918Y001173D02*
X032580Y001173D01*
X032580Y001165D02*
X023918Y001165D01*
X023918Y001156D02*
X032580Y001156D01*
X032580Y001148D02*
X023918Y001148D01*
X023918Y001139D02*
X032580Y001139D01*
X032580Y001134D02*
X024312Y001134D01*
X024312Y000937D01*
X023918Y000937D01*
X023918Y001725D01*
X024312Y001725D01*
X024312Y001528D01*
X032186Y001528D01*
X032186Y003496D01*
X032580Y003496D01*
X032580Y006252D01*
X028249Y006252D01*
X028249Y007827D01*
X032580Y007827D01*
X032580Y010189D01*
X028249Y010189D01*
X028249Y011764D01*
X032580Y011764D01*
X032580Y014126D01*
X028249Y014126D01*
X028249Y015701D01*
X032580Y015701D01*
X032580Y016095D01*
X027855Y016095D01*
X027855Y013733D01*
X032186Y013733D01*
X032186Y012158D01*
X027855Y012158D01*
X027855Y009796D01*
X032186Y009796D01*
X032186Y008221D01*
X027855Y008221D01*
X027855Y005859D01*
X032186Y005859D01*
X032186Y004284D01*
X032580Y004284D01*
X032580Y004276D02*
X024698Y004276D01*
X024706Y004284D02*
X024410Y003988D01*
X024017Y003988D01*
X024017Y003792D01*
X024410Y003792D01*
X024706Y003496D01*
X032580Y003496D01*
X032580Y001134D01*
X032580Y001335D02*
X023918Y001335D01*
X023918Y001343D02*
X032580Y001343D01*
X032580Y001352D02*
X023918Y001352D01*
X023918Y001360D02*
X032580Y001360D01*
X032580Y001369D02*
X023918Y001369D01*
X023918Y001377D02*
X032580Y001377D01*
X032580Y001386D02*
X023918Y001386D01*
X023918Y001394D02*
X032580Y001394D01*
X032580Y001403D02*
X023918Y001403D01*
X023918Y001411D02*
X032580Y001411D01*
X032580Y001420D02*
X023918Y001420D01*
X023918Y001428D02*
X032580Y001428D01*
X032580Y001437D02*
X023918Y001437D01*
X023918Y001445D02*
X032580Y001445D01*
X032580Y001454D02*
X023918Y001454D01*
X023918Y001462D02*
X032580Y001462D01*
X032580Y001471D02*
X023918Y001471D01*
X023918Y001479D02*
X032580Y001479D01*
X032580Y001488D02*
X023918Y001488D01*
X023918Y001496D02*
X032580Y001496D01*
X032580Y001505D02*
X023918Y001505D01*
X023918Y001513D02*
X032580Y001513D01*
X032580Y001522D02*
X023918Y001522D01*
X023918Y001530D02*
X024312Y001530D01*
X024312Y001539D02*
X023918Y001539D01*
X023918Y001547D02*
X024312Y001547D01*
X024312Y001556D02*
X023918Y001556D01*
X023918Y001564D02*
X024312Y001564D01*
X024312Y001573D02*
X023918Y001573D01*
X023918Y001581D02*
X024312Y001581D01*
X024312Y001590D02*
X023918Y001590D01*
X023918Y001598D02*
X024312Y001598D01*
X024312Y001607D02*
X023918Y001607D01*
X023918Y001615D02*
X024312Y001615D01*
X024312Y001624D02*
X023918Y001624D01*
X023918Y001632D02*
X024312Y001632D01*
X024312Y001641D02*
X023918Y001641D01*
X023918Y001649D02*
X024312Y001649D01*
X024312Y001658D02*
X023918Y001658D01*
X023918Y001666D02*
X024312Y001666D01*
X024312Y001675D02*
X023918Y001675D01*
X023918Y001683D02*
X024312Y001683D01*
X024312Y001692D02*
X023918Y001692D01*
X023918Y001700D02*
X024312Y001700D01*
X024312Y001709D02*
X023918Y001709D01*
X023918Y001717D02*
X024312Y001717D01*
X024312Y001131D02*
X023918Y001131D01*
X023918Y001122D02*
X024312Y001122D01*
X024312Y001114D02*
X023918Y001114D01*
X023918Y001105D02*
X024312Y001105D01*
X024312Y001097D02*
X023918Y001097D01*
X023918Y001088D02*
X024312Y001088D01*
X024312Y001080D02*
X023918Y001080D01*
X023918Y001071D02*
X024312Y001071D01*
X024312Y001063D02*
X023918Y001063D01*
X023918Y001054D02*
X024312Y001054D01*
X024312Y001046D02*
X023918Y001046D01*
X023918Y001037D02*
X024312Y001037D01*
X024312Y001029D02*
X023918Y001029D01*
X023918Y001020D02*
X024312Y001020D01*
X024312Y001012D02*
X023918Y001012D01*
X023918Y001003D02*
X024312Y001003D01*
X024312Y000995D02*
X023918Y000995D01*
X023918Y000986D02*
X024312Y000986D01*
X024312Y000978D02*
X023918Y000978D01*
X023918Y000969D02*
X024312Y000969D01*
X024312Y000961D02*
X023918Y000961D01*
X023918Y000952D02*
X024312Y000952D01*
X024312Y000944D02*
X023918Y000944D01*
X024700Y003502D02*
X032580Y003502D01*
X032580Y003494D02*
X032186Y003494D01*
X032186Y003485D02*
X032580Y003485D01*
X032580Y003477D02*
X032186Y003477D01*
X032186Y003468D02*
X032580Y003468D01*
X032580Y003460D02*
X032186Y003460D01*
X032186Y003451D02*
X032580Y003451D01*
X032580Y003443D02*
X032186Y003443D01*
X032186Y003434D02*
X032580Y003434D01*
X032580Y003426D02*
X032186Y003426D01*
X032186Y003417D02*
X032580Y003417D01*
X032580Y003409D02*
X032186Y003409D01*
X032186Y003400D02*
X032580Y003400D01*
X032580Y003392D02*
X032186Y003392D01*
X032186Y003383D02*
X032580Y003383D01*
X032580Y003375D02*
X032186Y003375D01*
X032186Y003366D02*
X032580Y003366D01*
X032580Y003358D02*
X032186Y003358D01*
X032186Y003349D02*
X032580Y003349D01*
X032580Y003341D02*
X032186Y003341D01*
X032186Y003332D02*
X032580Y003332D01*
X032580Y003324D02*
X032186Y003324D01*
X032186Y003315D02*
X032580Y003315D01*
X032580Y003307D02*
X032186Y003307D01*
X032186Y003298D02*
X032580Y003298D01*
X032580Y003290D02*
X032186Y003290D01*
X032186Y003281D02*
X032580Y003281D01*
X032580Y003273D02*
X032186Y003273D01*
X032186Y003264D02*
X032580Y003264D01*
X032580Y003256D02*
X032186Y003256D01*
X032186Y003247D02*
X032580Y003247D01*
X032580Y003239D02*
X032186Y003239D01*
X032186Y003230D02*
X032580Y003230D01*
X032580Y003222D02*
X032186Y003222D01*
X032186Y003213D02*
X032580Y003213D01*
X032580Y003205D02*
X032186Y003205D01*
X032186Y003196D02*
X032580Y003196D01*
X032580Y003188D02*
X032186Y003188D01*
X032186Y003179D02*
X032580Y003179D01*
X032580Y003171D02*
X032186Y003171D01*
X032186Y003162D02*
X032580Y003162D01*
X032580Y003154D02*
X032186Y003154D01*
X032186Y003145D02*
X032580Y003145D01*
X032580Y003137D02*
X032186Y003137D01*
X032186Y003128D02*
X032580Y003128D01*
X032580Y003120D02*
X032186Y003120D01*
X032186Y003111D02*
X032580Y003111D01*
X032580Y003103D02*
X032186Y003103D01*
X032186Y003094D02*
X032580Y003094D01*
X032580Y003086D02*
X032186Y003086D01*
X032186Y003077D02*
X032580Y003077D01*
X032580Y003069D02*
X032186Y003069D01*
X032186Y003060D02*
X032580Y003060D01*
X032580Y003052D02*
X032186Y003052D01*
X032186Y003043D02*
X032580Y003043D01*
X032580Y003035D02*
X032186Y003035D01*
X032186Y003026D02*
X032580Y003026D01*
X032580Y003018D02*
X032186Y003018D01*
X032186Y003009D02*
X032580Y003009D01*
X032580Y003001D02*
X032186Y003001D01*
X032186Y002992D02*
X032580Y002992D01*
X032580Y002984D02*
X032186Y002984D01*
X032186Y002975D02*
X032580Y002975D01*
X032580Y002967D02*
X032186Y002967D01*
X032186Y002958D02*
X032580Y002958D01*
X032580Y002950D02*
X032186Y002950D01*
X032186Y002941D02*
X032580Y002941D01*
X032580Y002933D02*
X032186Y002933D01*
X032186Y002924D02*
X032580Y002924D01*
X032580Y002916D02*
X032186Y002916D01*
X032186Y002907D02*
X032580Y002907D01*
X032580Y002899D02*
X032186Y002899D01*
X032186Y002890D02*
X032580Y002890D01*
X032580Y002882D02*
X032186Y002882D01*
X032186Y002873D02*
X032580Y002873D01*
X032580Y002865D02*
X032186Y002865D01*
X032186Y002856D02*
X032580Y002856D01*
X032580Y002848D02*
X032186Y002848D01*
X032186Y002839D02*
X032580Y002839D01*
X032580Y002831D02*
X032186Y002831D01*
X032186Y002822D02*
X032580Y002822D01*
X032580Y002814D02*
X032186Y002814D01*
X032186Y002805D02*
X032580Y002805D01*
X032580Y002797D02*
X032186Y002797D01*
X032186Y002788D02*
X032580Y002788D01*
X032580Y002780D02*
X032186Y002780D01*
X032186Y002771D02*
X032580Y002771D01*
X032580Y002763D02*
X032186Y002763D01*
X032186Y002754D02*
X032580Y002754D01*
X032580Y002746D02*
X032186Y002746D01*
X032186Y002737D02*
X032580Y002737D01*
X032580Y002729D02*
X032186Y002729D01*
X032186Y002720D02*
X032580Y002720D01*
X032580Y002712D02*
X032186Y002712D01*
X032186Y002703D02*
X032580Y002703D01*
X032580Y002695D02*
X032186Y002695D01*
X032186Y002686D02*
X032580Y002686D01*
X032580Y002678D02*
X032186Y002678D01*
X032186Y002669D02*
X032580Y002669D01*
X032580Y002661D02*
X032186Y002661D01*
X032186Y002652D02*
X032580Y002652D01*
X032580Y002644D02*
X032186Y002644D01*
X032186Y002635D02*
X032580Y002635D01*
X032580Y002627D02*
X032186Y002627D01*
X032186Y002618D02*
X032580Y002618D01*
X032580Y002610D02*
X032186Y002610D01*
X032186Y002601D02*
X032580Y002601D01*
X032580Y002593D02*
X032186Y002593D01*
X032186Y002584D02*
X032580Y002584D01*
X032580Y002576D02*
X032186Y002576D01*
X032186Y002567D02*
X032580Y002567D01*
X032580Y002559D02*
X032186Y002559D01*
X032186Y002550D02*
X032580Y002550D01*
X032580Y002542D02*
X032186Y002542D01*
X032186Y002533D02*
X032580Y002533D01*
X032580Y002525D02*
X032186Y002525D01*
X032186Y002516D02*
X032580Y002516D01*
X032580Y002508D02*
X032186Y002508D01*
X032186Y002499D02*
X032580Y002499D01*
X032580Y002491D02*
X032186Y002491D01*
X032186Y002482D02*
X032580Y002482D01*
X032580Y002474D02*
X032186Y002474D01*
X032186Y002465D02*
X032580Y002465D01*
X032580Y002457D02*
X032186Y002457D01*
X032186Y002448D02*
X032580Y002448D01*
X032580Y002440D02*
X032186Y002440D01*
X032186Y002431D02*
X032580Y002431D01*
X032580Y002423D02*
X032186Y002423D01*
X032186Y002414D02*
X032580Y002414D01*
X032580Y002406D02*
X032186Y002406D01*
X032186Y002397D02*
X032580Y002397D01*
X032580Y002389D02*
X032186Y002389D01*
X032186Y002380D02*
X032580Y002380D01*
X032580Y002372D02*
X032186Y002372D01*
X032186Y002363D02*
X032580Y002363D01*
X032580Y002355D02*
X032186Y002355D01*
X032186Y002346D02*
X032580Y002346D01*
X032580Y002338D02*
X032186Y002338D01*
X032186Y002329D02*
X032580Y002329D01*
X032580Y002321D02*
X032186Y002321D01*
X032186Y002312D02*
X032580Y002312D01*
X032580Y002304D02*
X032186Y002304D01*
X032186Y002295D02*
X032580Y002295D01*
X032580Y002287D02*
X032186Y002287D01*
X032186Y002278D02*
X032580Y002278D01*
X032580Y002270D02*
X032186Y002270D01*
X032186Y002261D02*
X032580Y002261D01*
X032580Y002253D02*
X032186Y002253D01*
X032186Y002244D02*
X032580Y002244D01*
X032580Y002236D02*
X032186Y002236D01*
X032186Y002227D02*
X032580Y002227D01*
X032580Y002219D02*
X032186Y002219D01*
X032186Y002210D02*
X032580Y002210D01*
X032580Y002202D02*
X032186Y002202D01*
X032186Y002193D02*
X032580Y002193D01*
X032580Y002185D02*
X032186Y002185D01*
X032186Y002176D02*
X032580Y002176D01*
X032580Y002168D02*
X032186Y002168D01*
X032186Y002159D02*
X032580Y002159D01*
X032580Y002151D02*
X032186Y002151D01*
X032186Y002142D02*
X032580Y002142D01*
X032580Y002134D02*
X032186Y002134D01*
X032186Y002125D02*
X032580Y002125D01*
X032580Y002117D02*
X032186Y002117D01*
X032186Y002108D02*
X032580Y002108D01*
X032580Y002100D02*
X032186Y002100D01*
X032186Y002091D02*
X032580Y002091D01*
X032580Y002083D02*
X032186Y002083D01*
X032186Y002074D02*
X032580Y002074D01*
X032580Y002066D02*
X032186Y002066D01*
X032186Y002057D02*
X032580Y002057D01*
X032580Y002049D02*
X032186Y002049D01*
X032186Y002040D02*
X032580Y002040D01*
X032580Y002032D02*
X032186Y002032D01*
X032186Y002023D02*
X032580Y002023D01*
X032580Y002015D02*
X032186Y002015D01*
X032186Y002006D02*
X032580Y002006D01*
X032580Y001998D02*
X032186Y001998D01*
X032186Y001989D02*
X032580Y001989D01*
X032580Y001981D02*
X032186Y001981D01*
X032186Y001972D02*
X032580Y001972D01*
X032580Y001964D02*
X032186Y001964D01*
X032186Y001955D02*
X032580Y001955D01*
X032580Y001947D02*
X032186Y001947D01*
X032186Y001938D02*
X032580Y001938D01*
X032580Y001930D02*
X032186Y001930D01*
X032186Y001921D02*
X032580Y001921D01*
X032580Y001913D02*
X032186Y001913D01*
X032186Y001904D02*
X032580Y001904D01*
X032580Y001896D02*
X032186Y001896D01*
X032186Y001887D02*
X032580Y001887D01*
X032580Y001879D02*
X032186Y001879D01*
X032186Y001870D02*
X032580Y001870D01*
X032580Y001862D02*
X032186Y001862D01*
X032186Y001853D02*
X032580Y001853D01*
X032580Y001845D02*
X032186Y001845D01*
X032186Y001836D02*
X032580Y001836D01*
X032580Y001828D02*
X032186Y001828D01*
X032186Y001819D02*
X032580Y001819D01*
X032580Y001811D02*
X032186Y001811D01*
X032186Y001802D02*
X032580Y001802D01*
X032580Y001794D02*
X032186Y001794D01*
X032186Y001785D02*
X032580Y001785D01*
X032580Y001777D02*
X032186Y001777D01*
X032186Y001768D02*
X032580Y001768D01*
X032580Y001760D02*
X032186Y001760D01*
X032186Y001751D02*
X032580Y001751D01*
X032580Y001743D02*
X032186Y001743D01*
X032186Y001734D02*
X032580Y001734D01*
X032580Y001726D02*
X032186Y001726D01*
X032186Y001717D02*
X032580Y001717D01*
X032580Y001709D02*
X032186Y001709D01*
X032186Y001700D02*
X032580Y001700D01*
X032580Y001692D02*
X032186Y001692D01*
X032186Y001683D02*
X032580Y001683D01*
X032580Y001675D02*
X032186Y001675D01*
X032186Y001666D02*
X032580Y001666D01*
X032580Y001658D02*
X032186Y001658D01*
X032186Y001649D02*
X032580Y001649D01*
X032580Y001641D02*
X032186Y001641D01*
X032186Y001632D02*
X032580Y001632D01*
X032580Y001624D02*
X032186Y001624D01*
X032186Y001615D02*
X032580Y001615D01*
X032580Y001607D02*
X032186Y001607D01*
X032186Y001598D02*
X032580Y001598D01*
X032580Y001590D02*
X032186Y001590D01*
X032186Y001581D02*
X032580Y001581D01*
X032580Y001573D02*
X032186Y001573D01*
X032186Y001564D02*
X032580Y001564D01*
X032580Y001556D02*
X032186Y001556D01*
X032186Y001547D02*
X032580Y001547D01*
X032580Y001539D02*
X032186Y001539D01*
X032186Y001530D02*
X032580Y001530D01*
X032580Y003511D02*
X024691Y003511D01*
X024683Y003519D02*
X032580Y003519D01*
X032580Y003528D02*
X024674Y003528D01*
X024666Y003536D02*
X032580Y003536D01*
X032580Y003545D02*
X024657Y003545D01*
X024649Y003553D02*
X032580Y003553D01*
X032580Y003562D02*
X024640Y003562D01*
X024632Y003570D02*
X032580Y003570D01*
X032580Y003579D02*
X024623Y003579D01*
X024615Y003587D02*
X032580Y003587D01*
X032580Y003596D02*
X024606Y003596D01*
X024598Y003604D02*
X032580Y003604D01*
X032580Y003613D02*
X024589Y003613D01*
X024581Y003621D02*
X032580Y003621D01*
X032580Y003630D02*
X024572Y003630D01*
X024564Y003638D02*
X032580Y003638D01*
X032580Y003647D02*
X024555Y003647D01*
X024547Y003655D02*
X032580Y003655D01*
X032580Y003664D02*
X024538Y003664D01*
X024530Y003672D02*
X032580Y003672D01*
X032580Y003681D02*
X024521Y003681D01*
X024513Y003689D02*
X032580Y003689D01*
X032580Y003698D02*
X024504Y003698D01*
X024496Y003706D02*
X032580Y003706D01*
X032580Y003715D02*
X024487Y003715D01*
X024479Y003723D02*
X032580Y003723D01*
X032580Y003732D02*
X024470Y003732D01*
X024462Y003740D02*
X032580Y003740D01*
X032580Y003749D02*
X024453Y003749D01*
X024445Y003757D02*
X032580Y003757D01*
X032580Y003766D02*
X024436Y003766D01*
X024428Y003774D02*
X032580Y003774D01*
X032580Y003783D02*
X024419Y003783D01*
X024411Y003791D02*
X032580Y003791D01*
X032580Y003800D02*
X024017Y003800D01*
X024017Y003808D02*
X032580Y003808D01*
X032580Y003817D02*
X024017Y003817D01*
X024017Y003825D02*
X032580Y003825D01*
X032580Y003834D02*
X024017Y003834D01*
X024017Y003842D02*
X032580Y003842D01*
X032580Y003851D02*
X024017Y003851D01*
X024017Y003859D02*
X032580Y003859D01*
X032580Y003868D02*
X024017Y003868D01*
X024017Y003876D02*
X032580Y003876D01*
X032580Y003885D02*
X024017Y003885D01*
X024017Y003893D02*
X032580Y003893D01*
X032580Y003902D02*
X024017Y003902D01*
X024017Y003910D02*
X032580Y003910D01*
X032580Y003919D02*
X024017Y003919D01*
X024017Y003927D02*
X032580Y003927D01*
X032580Y003936D02*
X024017Y003936D01*
X024017Y003944D02*
X032580Y003944D01*
X032580Y003953D02*
X024017Y003953D01*
X024017Y003961D02*
X032580Y003961D01*
X032580Y003970D02*
X024017Y003970D01*
X024017Y003978D02*
X032580Y003978D01*
X032580Y003987D02*
X024017Y003987D01*
X024417Y003995D02*
X032580Y003995D01*
X032580Y004004D02*
X024426Y004004D01*
X024434Y004012D02*
X032580Y004012D01*
X032580Y004021D02*
X024443Y004021D01*
X024451Y004029D02*
X032580Y004029D01*
X032580Y004038D02*
X024460Y004038D01*
X024468Y004046D02*
X032580Y004046D01*
X032580Y004055D02*
X024477Y004055D01*
X024485Y004063D02*
X032580Y004063D01*
X032580Y004072D02*
X024494Y004072D01*
X024502Y004080D02*
X032580Y004080D01*
X032580Y004089D02*
X024511Y004089D01*
X024519Y004097D02*
X032580Y004097D01*
X032580Y004106D02*
X024528Y004106D01*
X024536Y004114D02*
X032580Y004114D01*
X032580Y004123D02*
X024545Y004123D01*
X024553Y004131D02*
X032580Y004131D01*
X032580Y004140D02*
X024562Y004140D01*
X024570Y004148D02*
X032580Y004148D01*
X032580Y004157D02*
X024579Y004157D01*
X024587Y004165D02*
X032580Y004165D01*
X032580Y004174D02*
X024596Y004174D01*
X024604Y004182D02*
X032580Y004182D01*
X032580Y004191D02*
X024613Y004191D01*
X024621Y004199D02*
X032580Y004199D01*
X032580Y004208D02*
X024630Y004208D01*
X024638Y004216D02*
X032580Y004216D01*
X032580Y004225D02*
X024647Y004225D01*
X024655Y004233D02*
X032580Y004233D01*
X032580Y004242D02*
X024664Y004242D01*
X024672Y004250D02*
X032580Y004250D01*
X032580Y004259D02*
X024681Y004259D01*
X024689Y004267D02*
X032580Y004267D01*
X032580Y004293D02*
X032186Y004293D01*
X032186Y004301D02*
X032580Y004301D01*
X032580Y004310D02*
X032186Y004310D01*
X032186Y004318D02*
X032580Y004318D01*
X032580Y004327D02*
X032186Y004327D01*
X032186Y004335D02*
X032580Y004335D01*
X032580Y004344D02*
X032186Y004344D01*
X032186Y004352D02*
X032580Y004352D01*
X032580Y004361D02*
X032186Y004361D01*
X032186Y004369D02*
X032580Y004369D01*
X032580Y004378D02*
X032186Y004378D01*
X032186Y004386D02*
X032580Y004386D01*
X032580Y004395D02*
X032186Y004395D01*
X032186Y004403D02*
X032580Y004403D01*
X032580Y004412D02*
X032186Y004412D01*
X032186Y004420D02*
X032580Y004420D01*
X032580Y004429D02*
X032186Y004429D01*
X032186Y004437D02*
X032580Y004437D01*
X032580Y004446D02*
X032186Y004446D01*
X032186Y004454D02*
X032580Y004454D01*
X032580Y004463D02*
X032186Y004463D01*
X032186Y004471D02*
X032580Y004471D01*
X032580Y004480D02*
X032186Y004480D01*
X032186Y004488D02*
X032580Y004488D01*
X032580Y004497D02*
X032186Y004497D01*
X032186Y004505D02*
X032580Y004505D01*
X032580Y004514D02*
X032186Y004514D01*
X032186Y004522D02*
X032580Y004522D01*
X032580Y004531D02*
X032186Y004531D01*
X032186Y004539D02*
X032580Y004539D01*
X032580Y004548D02*
X032186Y004548D01*
X032186Y004556D02*
X032580Y004556D01*
X032580Y004565D02*
X032186Y004565D01*
X032186Y004573D02*
X032580Y004573D01*
X032580Y004582D02*
X032186Y004582D01*
X032186Y004590D02*
X032580Y004590D01*
X032580Y004599D02*
X032186Y004599D01*
X032186Y004607D02*
X032580Y004607D01*
X032580Y004616D02*
X032186Y004616D01*
X032186Y004624D02*
X032580Y004624D01*
X032580Y004633D02*
X032186Y004633D01*
X032186Y004641D02*
X032580Y004641D01*
X032580Y004650D02*
X032186Y004650D01*
X032186Y004658D02*
X032580Y004658D01*
X032580Y004667D02*
X032186Y004667D01*
X032186Y004675D02*
X032580Y004675D01*
X032580Y004684D02*
X032186Y004684D01*
X032186Y004692D02*
X032580Y004692D01*
X032580Y004701D02*
X032186Y004701D01*
X032186Y004709D02*
X032580Y004709D01*
X032580Y004718D02*
X032186Y004718D01*
X032186Y004726D02*
X032580Y004726D01*
X032580Y004735D02*
X032186Y004735D01*
X032186Y004743D02*
X032580Y004743D01*
X032580Y004752D02*
X032186Y004752D01*
X032186Y004760D02*
X032580Y004760D01*
X032580Y004769D02*
X032186Y004769D01*
X032186Y004777D02*
X032580Y004777D01*
X032580Y004786D02*
X032186Y004786D01*
X032186Y004794D02*
X032580Y004794D01*
X032580Y004803D02*
X032186Y004803D01*
X032186Y004811D02*
X032580Y004811D01*
X032580Y004820D02*
X032186Y004820D01*
X032186Y004828D02*
X032580Y004828D01*
X032580Y004837D02*
X032186Y004837D01*
X032186Y004845D02*
X032580Y004845D01*
X032580Y004854D02*
X032186Y004854D01*
X032186Y004862D02*
X032580Y004862D01*
X032580Y004871D02*
X032186Y004871D01*
X032186Y004879D02*
X032580Y004879D01*
X032580Y004888D02*
X032186Y004888D01*
X032186Y004896D02*
X032580Y004896D01*
X032580Y004905D02*
X032186Y004905D01*
X032186Y004913D02*
X032580Y004913D01*
X032580Y004922D02*
X032186Y004922D01*
X032186Y004930D02*
X032580Y004930D01*
X032580Y004939D02*
X032186Y004939D01*
X032186Y004947D02*
X032580Y004947D01*
X032580Y004956D02*
X032186Y004956D01*
X032186Y004964D02*
X032580Y004964D01*
X032580Y004973D02*
X032186Y004973D01*
X032186Y004981D02*
X032580Y004981D01*
X032580Y004990D02*
X032186Y004990D01*
X032186Y004998D02*
X032580Y004998D01*
X032580Y005007D02*
X032186Y005007D01*
X032186Y005015D02*
X032580Y005015D01*
X032580Y005024D02*
X032186Y005024D01*
X032186Y005032D02*
X032580Y005032D01*
X032580Y005041D02*
X032186Y005041D01*
X032186Y005049D02*
X032580Y005049D01*
X032580Y005058D02*
X032186Y005058D01*
X032186Y005066D02*
X032580Y005066D01*
X032580Y005075D02*
X032186Y005075D01*
X032186Y005083D02*
X032580Y005083D01*
X032580Y005092D02*
X032186Y005092D01*
X032186Y005100D02*
X032580Y005100D01*
X032580Y005109D02*
X032186Y005109D01*
X032186Y005117D02*
X032580Y005117D01*
X032580Y005126D02*
X032186Y005126D01*
X032186Y005134D02*
X032580Y005134D01*
X032580Y005143D02*
X032186Y005143D01*
X032186Y005151D02*
X032580Y005151D01*
X032580Y005160D02*
X032186Y005160D01*
X032186Y005168D02*
X032580Y005168D01*
X032580Y005177D02*
X032186Y005177D01*
X032186Y005185D02*
X032580Y005185D01*
X032580Y005194D02*
X032186Y005194D01*
X032186Y005202D02*
X032580Y005202D01*
X032580Y005211D02*
X032186Y005211D01*
X032186Y005219D02*
X032580Y005219D01*
X032580Y005228D02*
X032186Y005228D01*
X032186Y005236D02*
X032580Y005236D01*
X032580Y005245D02*
X032186Y005245D01*
X032186Y005253D02*
X032580Y005253D01*
X032580Y005262D02*
X032186Y005262D01*
X032186Y005270D02*
X032580Y005270D01*
X032580Y005279D02*
X032186Y005279D01*
X032186Y005287D02*
X032580Y005287D01*
X032580Y005296D02*
X032186Y005296D01*
X032186Y005304D02*
X032580Y005304D01*
X032580Y005313D02*
X032186Y005313D01*
X032186Y005321D02*
X032580Y005321D01*
X032580Y005330D02*
X032186Y005330D01*
X032186Y005338D02*
X032580Y005338D01*
X032580Y005347D02*
X032186Y005347D01*
X032186Y005355D02*
X032580Y005355D01*
X032580Y005364D02*
X032186Y005364D01*
X032186Y005372D02*
X032580Y005372D01*
X032580Y005381D02*
X032186Y005381D01*
X032186Y005389D02*
X032580Y005389D01*
X032580Y005398D02*
X032186Y005398D01*
X032186Y005406D02*
X032580Y005406D01*
X032580Y005415D02*
X032186Y005415D01*
X032186Y005423D02*
X032580Y005423D01*
X032580Y005432D02*
X032186Y005432D01*
X032186Y005440D02*
X032580Y005440D01*
X032580Y005449D02*
X032186Y005449D01*
X032186Y005457D02*
X032580Y005457D01*
X032580Y005466D02*
X032186Y005466D01*
X032186Y005474D02*
X032580Y005474D01*
X032580Y005483D02*
X032186Y005483D01*
X032186Y005491D02*
X032580Y005491D01*
X032580Y005500D02*
X032186Y005500D01*
X032186Y005508D02*
X032580Y005508D01*
X032580Y005517D02*
X032186Y005517D01*
X032186Y005525D02*
X032580Y005525D01*
X032580Y005534D02*
X032186Y005534D01*
X032186Y005542D02*
X032580Y005542D01*
X032580Y005551D02*
X032186Y005551D01*
X032186Y005559D02*
X032580Y005559D01*
X032580Y005568D02*
X032186Y005568D01*
X032186Y005576D02*
X032580Y005576D01*
X032580Y005585D02*
X032186Y005585D01*
X032186Y005593D02*
X032580Y005593D01*
X032580Y005602D02*
X032186Y005602D01*
X032186Y005610D02*
X032580Y005610D01*
X032580Y005619D02*
X032186Y005619D01*
X032186Y005627D02*
X032580Y005627D01*
X032580Y005636D02*
X032186Y005636D01*
X032186Y005644D02*
X032580Y005644D01*
X032580Y005653D02*
X032186Y005653D01*
X032186Y005661D02*
X032580Y005661D01*
X032580Y005670D02*
X032186Y005670D01*
X032186Y005678D02*
X032580Y005678D01*
X032580Y005687D02*
X032186Y005687D01*
X032186Y005695D02*
X032580Y005695D01*
X032580Y005704D02*
X032186Y005704D01*
X032186Y005712D02*
X032580Y005712D01*
X032580Y005721D02*
X032186Y005721D01*
X032186Y005729D02*
X032580Y005729D01*
X032580Y005738D02*
X032186Y005738D01*
X032186Y005746D02*
X032580Y005746D01*
X032580Y005755D02*
X032186Y005755D01*
X032186Y005763D02*
X032580Y005763D01*
X032580Y005772D02*
X032186Y005772D01*
X032186Y005780D02*
X032580Y005780D01*
X032580Y005789D02*
X032186Y005789D01*
X032186Y005797D02*
X032580Y005797D01*
X032580Y005806D02*
X032186Y005806D01*
X032186Y005814D02*
X032580Y005814D01*
X032580Y005823D02*
X032186Y005823D01*
X032186Y005831D02*
X032580Y005831D01*
X032580Y005840D02*
X032186Y005840D01*
X032186Y005848D02*
X032580Y005848D01*
X032580Y005857D02*
X032186Y005857D01*
X032580Y005865D02*
X027855Y005865D01*
X027855Y005874D02*
X032580Y005874D01*
X032580Y005882D02*
X027855Y005882D01*
X027855Y005891D02*
X032580Y005891D01*
X032580Y005899D02*
X027855Y005899D01*
X027855Y005908D02*
X032580Y005908D01*
X032580Y005916D02*
X027855Y005916D01*
X027855Y005925D02*
X032580Y005925D01*
X032580Y005933D02*
X027855Y005933D01*
X027855Y005942D02*
X032580Y005942D01*
X032580Y005950D02*
X027855Y005950D01*
X027855Y005959D02*
X032580Y005959D01*
X032580Y005967D02*
X027855Y005967D01*
X027855Y005976D02*
X032580Y005976D01*
X032580Y005984D02*
X027855Y005984D01*
X027855Y005993D02*
X032580Y005993D01*
X032580Y006001D02*
X027855Y006001D01*
X027855Y006010D02*
X032580Y006010D01*
X032580Y006018D02*
X027855Y006018D01*
X027855Y006027D02*
X032580Y006027D01*
X032580Y006035D02*
X027855Y006035D01*
X027855Y006044D02*
X032580Y006044D01*
X032580Y006052D02*
X027855Y006052D01*
X027855Y006061D02*
X032580Y006061D01*
X032580Y006069D02*
X027855Y006069D01*
X027855Y006078D02*
X032580Y006078D01*
X032580Y006086D02*
X027855Y006086D01*
X027855Y006095D02*
X032580Y006095D01*
X032580Y006103D02*
X027855Y006103D01*
X027855Y006112D02*
X032580Y006112D01*
X032580Y006120D02*
X027855Y006120D01*
X027855Y006129D02*
X032580Y006129D01*
X032580Y006137D02*
X027855Y006137D01*
X027855Y006146D02*
X032580Y006146D01*
X032580Y006154D02*
X027855Y006154D01*
X027855Y006163D02*
X032580Y006163D01*
X032580Y006171D02*
X027855Y006171D01*
X027855Y006180D02*
X032580Y006180D01*
X032580Y006188D02*
X027855Y006188D01*
X027855Y006197D02*
X032580Y006197D01*
X032580Y006205D02*
X027855Y006205D01*
X027855Y006214D02*
X032580Y006214D01*
X032580Y006222D02*
X027855Y006222D01*
X027855Y006231D02*
X032580Y006231D01*
X032580Y006239D02*
X027855Y006239D01*
X027855Y006248D02*
X032580Y006248D01*
X032580Y007829D02*
X027855Y007829D01*
X027855Y007837D02*
X032580Y007837D01*
X032580Y007846D02*
X027855Y007846D01*
X027855Y007854D02*
X032580Y007854D01*
X032580Y007863D02*
X027855Y007863D01*
X027855Y007871D02*
X032580Y007871D01*
X032580Y007880D02*
X027855Y007880D01*
X027855Y007888D02*
X032580Y007888D01*
X032580Y007897D02*
X027855Y007897D01*
X027855Y007905D02*
X032580Y007905D01*
X032580Y007914D02*
X027855Y007914D01*
X027855Y007922D02*
X032580Y007922D01*
X032580Y007931D02*
X027855Y007931D01*
X027855Y007939D02*
X032580Y007939D01*
X032580Y007948D02*
X027855Y007948D01*
X027855Y007956D02*
X032580Y007956D01*
X032580Y007965D02*
X027855Y007965D01*
X027855Y007973D02*
X032580Y007973D01*
X032580Y007982D02*
X027855Y007982D01*
X027855Y007990D02*
X032580Y007990D01*
X032580Y007999D02*
X027855Y007999D01*
X027855Y008007D02*
X032580Y008007D01*
X032580Y008016D02*
X027855Y008016D01*
X027855Y008024D02*
X032580Y008024D01*
X032580Y008033D02*
X027855Y008033D01*
X027855Y008041D02*
X032580Y008041D01*
X032580Y008050D02*
X027855Y008050D01*
X027855Y008058D02*
X032580Y008058D01*
X032580Y008067D02*
X027855Y008067D01*
X027855Y008075D02*
X032580Y008075D01*
X032580Y008084D02*
X027855Y008084D01*
X027855Y008092D02*
X032580Y008092D01*
X032580Y008101D02*
X027855Y008101D01*
X027855Y008109D02*
X032580Y008109D01*
X032580Y008118D02*
X027855Y008118D01*
X027855Y008126D02*
X032580Y008126D01*
X032580Y008135D02*
X027855Y008135D01*
X027855Y008143D02*
X032580Y008143D01*
X032580Y008152D02*
X027855Y008152D01*
X027855Y008160D02*
X032580Y008160D01*
X032580Y008169D02*
X027855Y008169D01*
X027855Y008177D02*
X032580Y008177D01*
X032580Y008186D02*
X027855Y008186D01*
X027855Y008194D02*
X032580Y008194D01*
X032580Y008203D02*
X027855Y008203D01*
X027855Y008211D02*
X032580Y008211D01*
X032580Y008220D02*
X027855Y008220D01*
X027855Y007820D02*
X028249Y007820D01*
X028249Y007812D02*
X027855Y007812D01*
X027855Y007803D02*
X028249Y007803D01*
X028249Y007795D02*
X027855Y007795D01*
X027855Y007786D02*
X028249Y007786D01*
X028249Y007778D02*
X027855Y007778D01*
X027855Y007769D02*
X028249Y007769D01*
X028249Y007761D02*
X027855Y007761D01*
X027855Y007752D02*
X028249Y007752D01*
X028249Y007744D02*
X027855Y007744D01*
X027855Y007735D02*
X028249Y007735D01*
X028249Y007727D02*
X027855Y007727D01*
X027855Y007718D02*
X028249Y007718D01*
X028249Y007710D02*
X027855Y007710D01*
X027855Y007701D02*
X028249Y007701D01*
X028249Y007693D02*
X027855Y007693D01*
X027855Y007684D02*
X028249Y007684D01*
X028249Y007676D02*
X027855Y007676D01*
X027855Y007667D02*
X028249Y007667D01*
X028249Y007659D02*
X027855Y007659D01*
X027855Y007650D02*
X028249Y007650D01*
X028249Y007642D02*
X027855Y007642D01*
X027855Y007633D02*
X028249Y007633D01*
X028249Y007625D02*
X027855Y007625D01*
X027855Y007616D02*
X028249Y007616D01*
X028249Y007608D02*
X027855Y007608D01*
X027855Y007599D02*
X028249Y007599D01*
X028249Y007591D02*
X027855Y007591D01*
X027855Y007582D02*
X028249Y007582D01*
X028249Y007574D02*
X027855Y007574D01*
X027855Y007565D02*
X028249Y007565D01*
X028249Y007557D02*
X027855Y007557D01*
X027855Y007548D02*
X028249Y007548D01*
X028249Y007540D02*
X027855Y007540D01*
X027855Y007531D02*
X028249Y007531D01*
X028249Y007523D02*
X027855Y007523D01*
X027855Y007514D02*
X028249Y007514D01*
X028249Y007506D02*
X027855Y007506D01*
X027855Y007497D02*
X028249Y007497D01*
X028249Y007489D02*
X027855Y007489D01*
X027855Y007480D02*
X028249Y007480D01*
X028249Y007472D02*
X027855Y007472D01*
X027855Y007463D02*
X028249Y007463D01*
X028249Y007455D02*
X027855Y007455D01*
X027855Y007446D02*
X028249Y007446D01*
X028249Y007438D02*
X027855Y007438D01*
X027855Y007429D02*
X028249Y007429D01*
X028249Y007421D02*
X027855Y007421D01*
X027855Y007412D02*
X028249Y007412D01*
X028249Y007404D02*
X027855Y007404D01*
X027855Y007395D02*
X028249Y007395D01*
X028249Y007387D02*
X027855Y007387D01*
X027855Y007378D02*
X028249Y007378D01*
X028249Y007370D02*
X027855Y007370D01*
X027855Y007361D02*
X028249Y007361D01*
X028249Y007353D02*
X027855Y007353D01*
X027855Y007344D02*
X028249Y007344D01*
X028249Y007336D02*
X027855Y007336D01*
X027855Y007327D02*
X028249Y007327D01*
X028249Y007319D02*
X027855Y007319D01*
X027855Y007310D02*
X028249Y007310D01*
X028249Y007302D02*
X027855Y007302D01*
X027855Y007293D02*
X028249Y007293D01*
X028249Y007285D02*
X027855Y007285D01*
X027855Y007276D02*
X028249Y007276D01*
X028249Y007268D02*
X027855Y007268D01*
X027855Y007259D02*
X028249Y007259D01*
X028249Y007251D02*
X027855Y007251D01*
X027855Y007242D02*
X028249Y007242D01*
X028249Y007234D02*
X027855Y007234D01*
X027855Y007225D02*
X028249Y007225D01*
X028249Y007217D02*
X027855Y007217D01*
X027855Y007208D02*
X028249Y007208D01*
X028249Y007200D02*
X027855Y007200D01*
X027855Y007191D02*
X028249Y007191D01*
X028249Y007183D02*
X027855Y007183D01*
X027855Y007174D02*
X028249Y007174D01*
X028249Y007166D02*
X027855Y007166D01*
X027855Y007157D02*
X028249Y007157D01*
X028249Y007149D02*
X027855Y007149D01*
X027855Y007140D02*
X028249Y007140D01*
X028249Y007132D02*
X027855Y007132D01*
X027855Y007123D02*
X028249Y007123D01*
X028249Y007115D02*
X027855Y007115D01*
X027855Y007106D02*
X028249Y007106D01*
X028249Y007098D02*
X027855Y007098D01*
X027855Y007089D02*
X028249Y007089D01*
X028249Y007081D02*
X027855Y007081D01*
X027855Y007072D02*
X028249Y007072D01*
X028249Y007064D02*
X027855Y007064D01*
X027855Y007055D02*
X028249Y007055D01*
X028249Y007047D02*
X027855Y007047D01*
X027855Y007038D02*
X028249Y007038D01*
X028249Y007030D02*
X027855Y007030D01*
X027855Y007021D02*
X028249Y007021D01*
X028249Y007013D02*
X027855Y007013D01*
X027855Y007004D02*
X028249Y007004D01*
X028249Y006996D02*
X027855Y006996D01*
X027855Y006987D02*
X028249Y006987D01*
X028249Y006979D02*
X027855Y006979D01*
X027855Y006970D02*
X028249Y006970D01*
X028249Y006962D02*
X027855Y006962D01*
X027855Y006953D02*
X028249Y006953D01*
X028249Y006945D02*
X027855Y006945D01*
X027855Y006936D02*
X028249Y006936D01*
X028249Y006928D02*
X027855Y006928D01*
X027855Y006919D02*
X028249Y006919D01*
X028249Y006911D02*
X027855Y006911D01*
X027855Y006902D02*
X028249Y006902D01*
X028249Y006894D02*
X027855Y006894D01*
X027855Y006885D02*
X028249Y006885D01*
X028249Y006877D02*
X027855Y006877D01*
X027855Y006868D02*
X028249Y006868D01*
X028249Y006860D02*
X027855Y006860D01*
X027855Y006851D02*
X028249Y006851D01*
X028249Y006843D02*
X027855Y006843D01*
X027855Y006834D02*
X028249Y006834D01*
X028249Y006826D02*
X027855Y006826D01*
X027855Y006817D02*
X028249Y006817D01*
X028249Y006809D02*
X027855Y006809D01*
X027855Y006800D02*
X028249Y006800D01*
X028249Y006792D02*
X027855Y006792D01*
X027855Y006783D02*
X028249Y006783D01*
X028249Y006775D02*
X027855Y006775D01*
X027855Y006766D02*
X028249Y006766D01*
X028249Y006758D02*
X027855Y006758D01*
X027855Y006749D02*
X028249Y006749D01*
X028249Y006741D02*
X027855Y006741D01*
X027855Y006732D02*
X028249Y006732D01*
X028249Y006724D02*
X027855Y006724D01*
X027855Y006715D02*
X028249Y006715D01*
X028249Y006707D02*
X027855Y006707D01*
X027855Y006698D02*
X028249Y006698D01*
X028249Y006690D02*
X027855Y006690D01*
X027855Y006681D02*
X028249Y006681D01*
X028249Y006673D02*
X027855Y006673D01*
X027855Y006664D02*
X028249Y006664D01*
X028249Y006656D02*
X027855Y006656D01*
X027855Y006647D02*
X028249Y006647D01*
X028249Y006639D02*
X027855Y006639D01*
X027855Y006630D02*
X028249Y006630D01*
X028249Y006622D02*
X027855Y006622D01*
X027855Y006613D02*
X028249Y006613D01*
X028249Y006605D02*
X027855Y006605D01*
X027855Y006596D02*
X028249Y006596D01*
X028249Y006588D02*
X027855Y006588D01*
X027855Y006579D02*
X028249Y006579D01*
X028249Y006571D02*
X027855Y006571D01*
X027855Y006562D02*
X028249Y006562D01*
X028249Y006554D02*
X027855Y006554D01*
X027855Y006545D02*
X028249Y006545D01*
X028249Y006537D02*
X027855Y006537D01*
X027855Y006528D02*
X028249Y006528D01*
X028249Y006520D02*
X027855Y006520D01*
X027855Y006511D02*
X028249Y006511D01*
X028249Y006503D02*
X027855Y006503D01*
X027855Y006494D02*
X028249Y006494D01*
X028249Y006486D02*
X027855Y006486D01*
X027855Y006477D02*
X028249Y006477D01*
X028249Y006469D02*
X027855Y006469D01*
X027855Y006460D02*
X028249Y006460D01*
X028249Y006452D02*
X027855Y006452D01*
X027855Y006443D02*
X028249Y006443D01*
X028249Y006435D02*
X027855Y006435D01*
X027855Y006426D02*
X028249Y006426D01*
X028249Y006418D02*
X027855Y006418D01*
X027855Y006409D02*
X028249Y006409D01*
X028249Y006401D02*
X027855Y006401D01*
X027855Y006392D02*
X028249Y006392D01*
X028249Y006384D02*
X027855Y006384D01*
X027855Y006375D02*
X028249Y006375D01*
X028249Y006367D02*
X027855Y006367D01*
X027855Y006358D02*
X028249Y006358D01*
X028249Y006350D02*
X027855Y006350D01*
X027855Y006341D02*
X028249Y006341D01*
X028249Y006333D02*
X027855Y006333D01*
X027855Y006324D02*
X028249Y006324D01*
X028249Y006316D02*
X027855Y006316D01*
X027855Y006307D02*
X028249Y006307D01*
X028249Y006299D02*
X027855Y006299D01*
X027855Y006290D02*
X028249Y006290D01*
X028249Y006282D02*
X027855Y006282D01*
X027855Y006273D02*
X028249Y006273D01*
X028249Y006265D02*
X027855Y006265D01*
X027855Y006256D02*
X028249Y006256D01*
X024706Y004284D02*
X032186Y004284D01*
X032186Y008228D02*
X032580Y008228D01*
X032580Y008237D02*
X032186Y008237D01*
X032186Y008245D02*
X032580Y008245D01*
X032580Y008254D02*
X032186Y008254D01*
X032186Y008262D02*
X032580Y008262D01*
X032580Y008271D02*
X032186Y008271D01*
X032186Y008279D02*
X032580Y008279D01*
X032580Y008288D02*
X032186Y008288D01*
X032186Y008296D02*
X032580Y008296D01*
X032580Y008305D02*
X032186Y008305D01*
X032186Y008313D02*
X032580Y008313D01*
X032580Y008322D02*
X032186Y008322D01*
X032186Y008330D02*
X032580Y008330D01*
X032580Y008339D02*
X032186Y008339D01*
X032186Y008347D02*
X032580Y008347D01*
X032580Y008356D02*
X032186Y008356D01*
X032186Y008364D02*
X032580Y008364D01*
X032580Y008373D02*
X032186Y008373D01*
X032186Y008381D02*
X032580Y008381D01*
X032580Y008390D02*
X032186Y008390D01*
X032186Y008398D02*
X032580Y008398D01*
X032580Y008407D02*
X032186Y008407D01*
X032186Y008415D02*
X032580Y008415D01*
X032580Y008424D02*
X032186Y008424D01*
X032186Y008432D02*
X032580Y008432D01*
X032580Y008441D02*
X032186Y008441D01*
X032186Y008449D02*
X032580Y008449D01*
X032580Y008458D02*
X032186Y008458D01*
X032186Y008466D02*
X032580Y008466D01*
X032580Y008475D02*
X032186Y008475D01*
X032186Y008483D02*
X032580Y008483D01*
X032580Y008492D02*
X032186Y008492D01*
X032186Y008500D02*
X032580Y008500D01*
X032580Y008509D02*
X032186Y008509D01*
X032186Y008517D02*
X032580Y008517D01*
X032580Y008526D02*
X032186Y008526D01*
X032186Y008534D02*
X032580Y008534D01*
X032580Y008543D02*
X032186Y008543D01*
X032186Y008551D02*
X032580Y008551D01*
X032580Y008560D02*
X032186Y008560D01*
X032186Y008568D02*
X032580Y008568D01*
X032580Y008577D02*
X032186Y008577D01*
X032186Y008585D02*
X032580Y008585D01*
X032580Y008594D02*
X032186Y008594D01*
X032186Y008602D02*
X032580Y008602D01*
X032580Y008611D02*
X032186Y008611D01*
X032186Y008619D02*
X032580Y008619D01*
X032580Y008628D02*
X032186Y008628D01*
X032186Y008636D02*
X032580Y008636D01*
X032580Y008645D02*
X032186Y008645D01*
X032186Y008653D02*
X032580Y008653D01*
X032580Y008662D02*
X032186Y008662D01*
X032186Y008670D02*
X032580Y008670D01*
X032580Y008679D02*
X032186Y008679D01*
X032186Y008687D02*
X032580Y008687D01*
X032580Y008696D02*
X032186Y008696D01*
X032186Y008704D02*
X032580Y008704D01*
X032580Y008713D02*
X032186Y008713D01*
X032186Y008721D02*
X032580Y008721D01*
X032580Y008730D02*
X032186Y008730D01*
X032186Y008738D02*
X032580Y008738D01*
X032580Y008747D02*
X032186Y008747D01*
X032186Y008755D02*
X032580Y008755D01*
X032580Y008764D02*
X032186Y008764D01*
X032186Y008772D02*
X032580Y008772D01*
X032580Y008781D02*
X032186Y008781D01*
X032186Y008789D02*
X032580Y008789D01*
X032580Y008798D02*
X032186Y008798D01*
X032186Y008806D02*
X032580Y008806D01*
X032580Y008815D02*
X032186Y008815D01*
X032186Y008823D02*
X032580Y008823D01*
X032580Y008832D02*
X032186Y008832D01*
X032186Y008840D02*
X032580Y008840D01*
X032580Y008849D02*
X032186Y008849D01*
X032186Y008857D02*
X032580Y008857D01*
X032580Y008866D02*
X032186Y008866D01*
X032186Y008874D02*
X032580Y008874D01*
X032580Y008883D02*
X032186Y008883D01*
X032186Y008891D02*
X032580Y008891D01*
X032580Y008900D02*
X032186Y008900D01*
X032186Y008908D02*
X032580Y008908D01*
X032580Y008917D02*
X032186Y008917D01*
X032186Y008925D02*
X032580Y008925D01*
X032580Y008934D02*
X032186Y008934D01*
X032186Y008942D02*
X032580Y008942D01*
X032580Y008951D02*
X032186Y008951D01*
X032186Y008959D02*
X032580Y008959D01*
X032580Y008968D02*
X032186Y008968D01*
X032186Y008976D02*
X032580Y008976D01*
X032580Y008985D02*
X032186Y008985D01*
X032186Y008993D02*
X032580Y008993D01*
X032580Y009002D02*
X032186Y009002D01*
X032186Y009010D02*
X032580Y009010D01*
X032580Y009019D02*
X032186Y009019D01*
X032186Y009027D02*
X032580Y009027D01*
X032580Y009036D02*
X032186Y009036D01*
X032186Y009044D02*
X032580Y009044D01*
X032580Y009053D02*
X032186Y009053D01*
X032186Y009061D02*
X032580Y009061D01*
X032580Y009070D02*
X032186Y009070D01*
X032186Y009078D02*
X032580Y009078D01*
X032580Y009087D02*
X032186Y009087D01*
X032186Y009095D02*
X032580Y009095D01*
X032580Y009104D02*
X032186Y009104D01*
X032186Y009112D02*
X032580Y009112D01*
X032580Y009121D02*
X032186Y009121D01*
X032186Y009129D02*
X032580Y009129D01*
X032580Y009138D02*
X032186Y009138D01*
X032186Y009146D02*
X032580Y009146D01*
X032580Y009155D02*
X032186Y009155D01*
X032186Y009163D02*
X032580Y009163D01*
X032580Y009172D02*
X032186Y009172D01*
X032186Y009180D02*
X032580Y009180D01*
X032580Y009189D02*
X032186Y009189D01*
X032186Y009197D02*
X032580Y009197D01*
X032580Y009206D02*
X032186Y009206D01*
X032186Y009214D02*
X032580Y009214D01*
X032580Y009223D02*
X032186Y009223D01*
X032186Y009231D02*
X032580Y009231D01*
X032580Y009240D02*
X032186Y009240D01*
X032186Y009248D02*
X032580Y009248D01*
X032580Y009257D02*
X032186Y009257D01*
X032186Y009265D02*
X032580Y009265D01*
X032580Y009274D02*
X032186Y009274D01*
X032186Y009282D02*
X032580Y009282D01*
X032580Y009291D02*
X032186Y009291D01*
X032186Y009299D02*
X032580Y009299D01*
X032580Y009308D02*
X032186Y009308D01*
X032186Y009316D02*
X032580Y009316D01*
X032580Y009325D02*
X032186Y009325D01*
X032186Y009333D02*
X032580Y009333D01*
X032580Y009342D02*
X032186Y009342D01*
X032186Y009350D02*
X032580Y009350D01*
X032580Y009359D02*
X032186Y009359D01*
X032186Y009367D02*
X032580Y009367D01*
X032580Y009376D02*
X032186Y009376D01*
X032186Y009384D02*
X032580Y009384D01*
X032580Y009393D02*
X032186Y009393D01*
X032186Y009401D02*
X032580Y009401D01*
X032580Y009410D02*
X032186Y009410D01*
X032186Y009418D02*
X032580Y009418D01*
X032580Y009427D02*
X032186Y009427D01*
X032186Y009435D02*
X032580Y009435D01*
X032580Y009444D02*
X032186Y009444D01*
X032186Y009452D02*
X032580Y009452D01*
X032580Y009461D02*
X032186Y009461D01*
X032186Y009469D02*
X032580Y009469D01*
X032580Y009478D02*
X032186Y009478D01*
X032186Y009486D02*
X032580Y009486D01*
X032580Y009495D02*
X032186Y009495D01*
X032186Y009503D02*
X032580Y009503D01*
X032580Y009512D02*
X032186Y009512D01*
X032186Y009520D02*
X032580Y009520D01*
X032580Y009529D02*
X032186Y009529D01*
X032186Y009537D02*
X032580Y009537D01*
X032580Y009546D02*
X032186Y009546D01*
X032186Y009554D02*
X032580Y009554D01*
X032580Y009563D02*
X032186Y009563D01*
X032186Y009571D02*
X032580Y009571D01*
X032580Y009580D02*
X032186Y009580D01*
X032186Y009588D02*
X032580Y009588D01*
X032580Y009597D02*
X032186Y009597D01*
X032186Y009605D02*
X032580Y009605D01*
X032580Y009614D02*
X032186Y009614D01*
X032186Y009622D02*
X032580Y009622D01*
X032580Y009631D02*
X032186Y009631D01*
X032186Y009639D02*
X032580Y009639D01*
X032580Y009648D02*
X032186Y009648D01*
X032186Y009656D02*
X032580Y009656D01*
X032580Y009665D02*
X032186Y009665D01*
X032186Y009673D02*
X032580Y009673D01*
X032580Y009682D02*
X032186Y009682D01*
X032186Y009690D02*
X032580Y009690D01*
X032580Y009699D02*
X032186Y009699D01*
X032186Y009707D02*
X032580Y009707D01*
X032580Y009716D02*
X032186Y009716D01*
X032186Y009724D02*
X032580Y009724D01*
X032580Y009733D02*
X032186Y009733D01*
X032186Y009741D02*
X032580Y009741D01*
X032580Y009750D02*
X032186Y009750D01*
X032186Y009758D02*
X032580Y009758D01*
X032580Y009767D02*
X032186Y009767D01*
X032186Y009775D02*
X032580Y009775D01*
X032580Y009784D02*
X032186Y009784D01*
X032186Y009792D02*
X032580Y009792D01*
X032580Y009801D02*
X027855Y009801D01*
X027855Y009809D02*
X032580Y009809D01*
X032580Y009818D02*
X027855Y009818D01*
X027855Y009826D02*
X032580Y009826D01*
X032580Y009835D02*
X027855Y009835D01*
X027855Y009843D02*
X032580Y009843D01*
X032580Y009852D02*
X027855Y009852D01*
X027855Y009860D02*
X032580Y009860D01*
X032580Y009869D02*
X027855Y009869D01*
X027855Y009877D02*
X032580Y009877D01*
X032580Y009886D02*
X027855Y009886D01*
X027855Y009894D02*
X032580Y009894D01*
X032580Y009903D02*
X027855Y009903D01*
X027855Y009911D02*
X032580Y009911D01*
X032580Y009920D02*
X027855Y009920D01*
X027855Y009928D02*
X032580Y009928D01*
X032580Y009937D02*
X027855Y009937D01*
X027855Y009945D02*
X032580Y009945D01*
X032580Y009954D02*
X027855Y009954D01*
X027855Y009962D02*
X032580Y009962D01*
X032580Y009971D02*
X027855Y009971D01*
X027855Y009979D02*
X032580Y009979D01*
X032580Y009988D02*
X027855Y009988D01*
X027855Y009996D02*
X032580Y009996D01*
X032580Y010005D02*
X027855Y010005D01*
X027855Y010013D02*
X032580Y010013D01*
X032580Y010022D02*
X027855Y010022D01*
X027855Y010030D02*
X032580Y010030D01*
X032580Y010039D02*
X027855Y010039D01*
X027855Y010047D02*
X032580Y010047D01*
X032580Y010056D02*
X027855Y010056D01*
X027855Y010064D02*
X032580Y010064D01*
X032580Y010073D02*
X027855Y010073D01*
X027855Y010081D02*
X032580Y010081D01*
X032580Y010090D02*
X027855Y010090D01*
X027855Y010098D02*
X032580Y010098D01*
X032580Y010107D02*
X027855Y010107D01*
X027855Y010115D02*
X032580Y010115D01*
X032580Y010124D02*
X027855Y010124D01*
X027855Y010132D02*
X032580Y010132D01*
X032580Y010141D02*
X027855Y010141D01*
X027855Y010149D02*
X032580Y010149D01*
X032580Y010158D02*
X027855Y010158D01*
X027855Y010166D02*
X032580Y010166D01*
X032580Y010175D02*
X027855Y010175D01*
X027855Y010183D02*
X032580Y010183D01*
X032580Y011764D02*
X027855Y011764D01*
X027855Y011756D02*
X028249Y011756D01*
X028249Y011747D02*
X027855Y011747D01*
X027855Y011739D02*
X028249Y011739D01*
X028249Y011730D02*
X027855Y011730D01*
X027855Y011722D02*
X028249Y011722D01*
X028249Y011713D02*
X027855Y011713D01*
X027855Y011705D02*
X028249Y011705D01*
X028249Y011696D02*
X027855Y011696D01*
X027855Y011688D02*
X028249Y011688D01*
X028249Y011679D02*
X027855Y011679D01*
X027855Y011671D02*
X028249Y011671D01*
X028249Y011662D02*
X027855Y011662D01*
X027855Y011654D02*
X028249Y011654D01*
X028249Y011645D02*
X027855Y011645D01*
X027855Y011637D02*
X028249Y011637D01*
X028249Y011628D02*
X027855Y011628D01*
X027855Y011620D02*
X028249Y011620D01*
X028249Y011611D02*
X027855Y011611D01*
X027855Y011603D02*
X028249Y011603D01*
X028249Y011594D02*
X027855Y011594D01*
X027855Y011586D02*
X028249Y011586D01*
X028249Y011577D02*
X027855Y011577D01*
X027855Y011569D02*
X028249Y011569D01*
X028249Y011560D02*
X027855Y011560D01*
X027855Y011552D02*
X028249Y011552D01*
X028249Y011543D02*
X027855Y011543D01*
X027855Y011535D02*
X028249Y011535D01*
X028249Y011526D02*
X027855Y011526D01*
X027855Y011518D02*
X028249Y011518D01*
X028249Y011509D02*
X027855Y011509D01*
X027855Y011501D02*
X028249Y011501D01*
X028249Y011492D02*
X027855Y011492D01*
X027855Y011484D02*
X028249Y011484D01*
X028249Y011475D02*
X027855Y011475D01*
X027855Y011467D02*
X028249Y011467D01*
X028249Y011458D02*
X027855Y011458D01*
X027855Y011450D02*
X028249Y011450D01*
X028249Y011441D02*
X027855Y011441D01*
X027855Y011433D02*
X028249Y011433D01*
X028249Y011424D02*
X027855Y011424D01*
X027855Y011416D02*
X028249Y011416D01*
X028249Y011407D02*
X027855Y011407D01*
X027855Y011399D02*
X028249Y011399D01*
X028249Y011390D02*
X027855Y011390D01*
X027855Y011382D02*
X028249Y011382D01*
X028249Y011373D02*
X027855Y011373D01*
X027855Y011365D02*
X028249Y011365D01*
X028249Y011356D02*
X027855Y011356D01*
X027855Y011348D02*
X028249Y011348D01*
X028249Y011339D02*
X027855Y011339D01*
X027855Y011331D02*
X028249Y011331D01*
X028249Y011322D02*
X027855Y011322D01*
X027855Y011314D02*
X028249Y011314D01*
X028249Y011305D02*
X027855Y011305D01*
X027855Y011297D02*
X028249Y011297D01*
X028249Y011288D02*
X027855Y011288D01*
X027855Y011280D02*
X028249Y011280D01*
X028249Y011271D02*
X027855Y011271D01*
X027855Y011263D02*
X028249Y011263D01*
X028249Y011254D02*
X027855Y011254D01*
X027855Y011246D02*
X028249Y011246D01*
X028249Y011237D02*
X027855Y011237D01*
X027855Y011229D02*
X028249Y011229D01*
X028249Y011220D02*
X027855Y011220D01*
X027855Y011212D02*
X028249Y011212D01*
X028249Y011203D02*
X027855Y011203D01*
X027855Y011195D02*
X028249Y011195D01*
X028249Y011186D02*
X027855Y011186D01*
X027855Y011178D02*
X028249Y011178D01*
X028249Y011169D02*
X027855Y011169D01*
X027855Y011161D02*
X028249Y011161D01*
X028249Y011152D02*
X027855Y011152D01*
X027855Y011144D02*
X028249Y011144D01*
X028249Y011135D02*
X027855Y011135D01*
X027855Y011127D02*
X028249Y011127D01*
X028249Y011118D02*
X027855Y011118D01*
X027855Y011110D02*
X028249Y011110D01*
X028249Y011101D02*
X027855Y011101D01*
X027855Y011093D02*
X028249Y011093D01*
X028249Y011084D02*
X027855Y011084D01*
X027855Y011076D02*
X028249Y011076D01*
X028249Y011067D02*
X027855Y011067D01*
X027855Y011059D02*
X028249Y011059D01*
X028249Y011050D02*
X027855Y011050D01*
X027855Y011042D02*
X028249Y011042D01*
X028249Y011033D02*
X027855Y011033D01*
X027855Y011025D02*
X028249Y011025D01*
X028249Y011016D02*
X027855Y011016D01*
X027855Y011008D02*
X028249Y011008D01*
X028249Y010999D02*
X027855Y010999D01*
X027855Y010991D02*
X028249Y010991D01*
X028249Y010982D02*
X027855Y010982D01*
X027855Y010974D02*
X028249Y010974D01*
X028249Y010965D02*
X027855Y010965D01*
X027855Y010957D02*
X028249Y010957D01*
X028249Y010948D02*
X027855Y010948D01*
X027855Y010940D02*
X028249Y010940D01*
X028249Y010931D02*
X027855Y010931D01*
X027855Y010923D02*
X028249Y010923D01*
X028249Y010914D02*
X027855Y010914D01*
X027855Y010906D02*
X028249Y010906D01*
X028249Y010897D02*
X027855Y010897D01*
X027855Y010889D02*
X028249Y010889D01*
X028249Y010880D02*
X027855Y010880D01*
X027855Y010872D02*
X028249Y010872D01*
X028249Y010863D02*
X027855Y010863D01*
X027855Y010855D02*
X028249Y010855D01*
X028249Y010846D02*
X027855Y010846D01*
X027855Y010838D02*
X028249Y010838D01*
X028249Y010829D02*
X027855Y010829D01*
X027855Y010821D02*
X028249Y010821D01*
X028249Y010812D02*
X027855Y010812D01*
X027855Y010804D02*
X028249Y010804D01*
X028249Y010795D02*
X027855Y010795D01*
X027855Y010787D02*
X028249Y010787D01*
X028249Y010778D02*
X027855Y010778D01*
X027855Y010770D02*
X028249Y010770D01*
X028249Y010761D02*
X027855Y010761D01*
X027855Y010753D02*
X028249Y010753D01*
X028249Y010744D02*
X027855Y010744D01*
X027855Y010736D02*
X028249Y010736D01*
X028249Y010727D02*
X027855Y010727D01*
X027855Y010719D02*
X028249Y010719D01*
X028249Y010710D02*
X027855Y010710D01*
X027855Y010702D02*
X028249Y010702D01*
X028249Y010693D02*
X027855Y010693D01*
X027855Y010685D02*
X028249Y010685D01*
X028249Y010676D02*
X027855Y010676D01*
X027855Y010668D02*
X028249Y010668D01*
X028249Y010659D02*
X027855Y010659D01*
X027855Y010651D02*
X028249Y010651D01*
X028249Y010642D02*
X027855Y010642D01*
X027855Y010634D02*
X028249Y010634D01*
X028249Y010625D02*
X027855Y010625D01*
X027855Y010617D02*
X028249Y010617D01*
X028249Y010608D02*
X027855Y010608D01*
X027855Y010600D02*
X028249Y010600D01*
X028249Y010591D02*
X027855Y010591D01*
X027855Y010583D02*
X028249Y010583D01*
X028249Y010574D02*
X027855Y010574D01*
X027855Y010566D02*
X028249Y010566D01*
X028249Y010557D02*
X027855Y010557D01*
X027855Y010549D02*
X028249Y010549D01*
X028249Y010540D02*
X027855Y010540D01*
X027855Y010532D02*
X028249Y010532D01*
X028249Y010523D02*
X027855Y010523D01*
X027855Y010515D02*
X028249Y010515D01*
X028249Y010506D02*
X027855Y010506D01*
X027855Y010498D02*
X028249Y010498D01*
X028249Y010489D02*
X027855Y010489D01*
X027855Y010481D02*
X028249Y010481D01*
X028249Y010472D02*
X027855Y010472D01*
X027855Y010464D02*
X028249Y010464D01*
X028249Y010455D02*
X027855Y010455D01*
X027855Y010447D02*
X028249Y010447D01*
X028249Y010438D02*
X027855Y010438D01*
X027855Y010430D02*
X028249Y010430D01*
X028249Y010421D02*
X027855Y010421D01*
X027855Y010413D02*
X028249Y010413D01*
X028249Y010404D02*
X027855Y010404D01*
X027855Y010396D02*
X028249Y010396D01*
X028249Y010387D02*
X027855Y010387D01*
X027855Y010379D02*
X028249Y010379D01*
X028249Y010370D02*
X027855Y010370D01*
X027855Y010362D02*
X028249Y010362D01*
X028249Y010353D02*
X027855Y010353D01*
X027855Y010345D02*
X028249Y010345D01*
X028249Y010336D02*
X027855Y010336D01*
X027855Y010328D02*
X028249Y010328D01*
X028249Y010319D02*
X027855Y010319D01*
X027855Y010311D02*
X028249Y010311D01*
X028249Y010302D02*
X027855Y010302D01*
X027855Y010294D02*
X028249Y010294D01*
X028249Y010285D02*
X027855Y010285D01*
X027855Y010277D02*
X028249Y010277D01*
X028249Y010268D02*
X027855Y010268D01*
X027855Y010260D02*
X028249Y010260D01*
X028249Y010251D02*
X027855Y010251D01*
X027855Y010243D02*
X028249Y010243D01*
X028249Y010234D02*
X027855Y010234D01*
X027855Y010226D02*
X028249Y010226D01*
X028249Y010217D02*
X027855Y010217D01*
X027855Y010209D02*
X028249Y010209D01*
X028249Y010200D02*
X027855Y010200D01*
X027855Y010192D02*
X028249Y010192D01*
X027855Y011773D02*
X032580Y011773D01*
X032580Y011781D02*
X027855Y011781D01*
X027855Y011790D02*
X032580Y011790D01*
X032580Y011798D02*
X027855Y011798D01*
X027855Y011807D02*
X032580Y011807D01*
X032580Y011815D02*
X027855Y011815D01*
X027855Y011824D02*
X032580Y011824D01*
X032580Y011832D02*
X027855Y011832D01*
X027855Y011841D02*
X032580Y011841D01*
X032580Y011849D02*
X027855Y011849D01*
X027855Y011858D02*
X032580Y011858D01*
X032580Y011866D02*
X027855Y011866D01*
X027855Y011875D02*
X032580Y011875D01*
X032580Y011883D02*
X027855Y011883D01*
X027855Y011892D02*
X032580Y011892D01*
X032580Y011900D02*
X027855Y011900D01*
X027855Y011909D02*
X032580Y011909D01*
X032580Y011917D02*
X027855Y011917D01*
X027855Y011926D02*
X032580Y011926D01*
X032580Y011934D02*
X027855Y011934D01*
X027855Y011943D02*
X032580Y011943D01*
X032580Y011951D02*
X027855Y011951D01*
X027855Y011960D02*
X032580Y011960D01*
X032580Y011968D02*
X027855Y011968D01*
X027855Y011977D02*
X032580Y011977D01*
X032580Y011985D02*
X027855Y011985D01*
X027855Y011994D02*
X032580Y011994D01*
X032580Y012002D02*
X027855Y012002D01*
X027855Y012011D02*
X032580Y012011D01*
X032580Y012019D02*
X027855Y012019D01*
X027855Y012028D02*
X032580Y012028D01*
X032580Y012036D02*
X027855Y012036D01*
X027855Y012045D02*
X032580Y012045D01*
X032580Y012053D02*
X027855Y012053D01*
X027855Y012062D02*
X032580Y012062D01*
X032580Y012070D02*
X027855Y012070D01*
X027855Y012079D02*
X032580Y012079D01*
X032580Y012087D02*
X027855Y012087D01*
X027855Y012096D02*
X032580Y012096D01*
X032580Y012104D02*
X027855Y012104D01*
X027855Y012113D02*
X032580Y012113D01*
X032580Y012121D02*
X027855Y012121D01*
X027855Y012130D02*
X032580Y012130D01*
X032580Y012138D02*
X027855Y012138D01*
X027855Y012147D02*
X032580Y012147D01*
X032580Y012155D02*
X027855Y012155D01*
X027855Y013736D02*
X032580Y013736D01*
X032580Y013728D02*
X032186Y013728D01*
X032186Y013719D02*
X032580Y013719D01*
X032580Y013711D02*
X032186Y013711D01*
X032186Y013702D02*
X032580Y013702D01*
X032580Y013694D02*
X032186Y013694D01*
X032186Y013685D02*
X032580Y013685D01*
X032580Y013677D02*
X032186Y013677D01*
X032186Y013668D02*
X032580Y013668D01*
X032580Y013660D02*
X032186Y013660D01*
X032186Y013651D02*
X032580Y013651D01*
X032580Y013643D02*
X032186Y013643D01*
X032186Y013634D02*
X032580Y013634D01*
X032580Y013626D02*
X032186Y013626D01*
X032186Y013617D02*
X032580Y013617D01*
X032580Y013609D02*
X032186Y013609D01*
X032186Y013600D02*
X032580Y013600D01*
X032580Y013592D02*
X032186Y013592D01*
X032186Y013583D02*
X032580Y013583D01*
X032580Y013575D02*
X032186Y013575D01*
X032186Y013566D02*
X032580Y013566D01*
X032580Y013558D02*
X032186Y013558D01*
X032186Y013549D02*
X032580Y013549D01*
X032580Y013541D02*
X032186Y013541D01*
X032186Y013532D02*
X032580Y013532D01*
X032580Y013524D02*
X032186Y013524D01*
X032186Y013515D02*
X032580Y013515D01*
X032580Y013507D02*
X032186Y013507D01*
X032186Y013498D02*
X032580Y013498D01*
X032580Y013490D02*
X032186Y013490D01*
X032186Y013481D02*
X032580Y013481D01*
X032580Y013473D02*
X032186Y013473D01*
X032186Y013464D02*
X032580Y013464D01*
X032580Y013456D02*
X032186Y013456D01*
X032186Y013447D02*
X032580Y013447D01*
X032580Y013439D02*
X032186Y013439D01*
X032186Y013430D02*
X032580Y013430D01*
X032580Y013422D02*
X032186Y013422D01*
X032186Y013413D02*
X032580Y013413D01*
X032580Y013405D02*
X032186Y013405D01*
X032186Y013396D02*
X032580Y013396D01*
X032580Y013388D02*
X032186Y013388D01*
X032186Y013379D02*
X032580Y013379D01*
X032580Y013371D02*
X032186Y013371D01*
X032186Y013362D02*
X032580Y013362D01*
X032580Y013354D02*
X032186Y013354D01*
X032186Y013345D02*
X032580Y013345D01*
X032580Y013337D02*
X032186Y013337D01*
X032186Y013328D02*
X032580Y013328D01*
X032580Y013320D02*
X032186Y013320D01*
X032186Y013311D02*
X032580Y013311D01*
X032580Y013303D02*
X032186Y013303D01*
X032186Y013294D02*
X032580Y013294D01*
X032580Y013286D02*
X032186Y013286D01*
X032186Y013277D02*
X032580Y013277D01*
X032580Y013269D02*
X032186Y013269D01*
X032186Y013260D02*
X032580Y013260D01*
X032580Y013252D02*
X032186Y013252D01*
X032186Y013243D02*
X032580Y013243D01*
X032580Y013235D02*
X032186Y013235D01*
X032186Y013226D02*
X032580Y013226D01*
X032580Y013218D02*
X032186Y013218D01*
X032186Y013209D02*
X032580Y013209D01*
X032580Y013201D02*
X032186Y013201D01*
X032186Y013192D02*
X032580Y013192D01*
X032580Y013184D02*
X032186Y013184D01*
X032186Y013175D02*
X032580Y013175D01*
X032580Y013167D02*
X032186Y013167D01*
X032186Y013158D02*
X032580Y013158D01*
X032580Y013150D02*
X032186Y013150D01*
X032186Y013141D02*
X032580Y013141D01*
X032580Y013133D02*
X032186Y013133D01*
X032186Y013124D02*
X032580Y013124D01*
X032580Y013116D02*
X032186Y013116D01*
X032186Y013107D02*
X032580Y013107D01*
X032580Y013099D02*
X032186Y013099D01*
X032186Y013090D02*
X032580Y013090D01*
X032580Y013082D02*
X032186Y013082D01*
X032186Y013073D02*
X032580Y013073D01*
X032580Y013065D02*
X032186Y013065D01*
X032186Y013056D02*
X032580Y013056D01*
X032580Y013048D02*
X032186Y013048D01*
X032186Y013039D02*
X032580Y013039D01*
X032580Y013031D02*
X032186Y013031D01*
X032186Y013022D02*
X032580Y013022D01*
X032580Y013014D02*
X032186Y013014D01*
X032186Y013005D02*
X032580Y013005D01*
X032580Y012997D02*
X032186Y012997D01*
X032186Y012988D02*
X032580Y012988D01*
X032580Y012980D02*
X032186Y012980D01*
X032186Y012971D02*
X032580Y012971D01*
X032580Y012963D02*
X032186Y012963D01*
X032186Y012954D02*
X032580Y012954D01*
X032580Y012946D02*
X032186Y012946D01*
X032186Y012937D02*
X032580Y012937D01*
X032580Y012929D02*
X032186Y012929D01*
X032186Y012920D02*
X032580Y012920D01*
X032580Y012912D02*
X032186Y012912D01*
X032186Y012903D02*
X032580Y012903D01*
X032580Y012895D02*
X032186Y012895D01*
X032186Y012886D02*
X032580Y012886D01*
X032580Y012878D02*
X032186Y012878D01*
X032186Y012869D02*
X032580Y012869D01*
X032580Y012861D02*
X032186Y012861D01*
X032186Y012852D02*
X032580Y012852D01*
X032580Y012844D02*
X032186Y012844D01*
X032186Y012835D02*
X032580Y012835D01*
X032580Y012827D02*
X032186Y012827D01*
X032186Y012818D02*
X032580Y012818D01*
X032580Y012810D02*
X032186Y012810D01*
X032186Y012801D02*
X032580Y012801D01*
X032580Y012793D02*
X032186Y012793D01*
X032186Y012784D02*
X032580Y012784D01*
X032580Y012776D02*
X032186Y012776D01*
X032186Y012767D02*
X032580Y012767D01*
X032580Y012759D02*
X032186Y012759D01*
X032186Y012750D02*
X032580Y012750D01*
X032580Y012742D02*
X032186Y012742D01*
X032186Y012733D02*
X032580Y012733D01*
X032580Y012725D02*
X032186Y012725D01*
X032186Y012716D02*
X032580Y012716D01*
X032580Y012708D02*
X032186Y012708D01*
X032186Y012699D02*
X032580Y012699D01*
X032580Y012691D02*
X032186Y012691D01*
X032186Y012682D02*
X032580Y012682D01*
X032580Y012674D02*
X032186Y012674D01*
X032186Y012665D02*
X032580Y012665D01*
X032580Y012657D02*
X032186Y012657D01*
X032186Y012648D02*
X032580Y012648D01*
X032580Y012640D02*
X032186Y012640D01*
X032186Y012631D02*
X032580Y012631D01*
X032580Y012623D02*
X032186Y012623D01*
X032186Y012614D02*
X032580Y012614D01*
X032580Y012606D02*
X032186Y012606D01*
X032186Y012597D02*
X032580Y012597D01*
X032580Y012589D02*
X032186Y012589D01*
X032186Y012580D02*
X032580Y012580D01*
X032580Y012572D02*
X032186Y012572D01*
X032186Y012563D02*
X032580Y012563D01*
X032580Y012555D02*
X032186Y012555D01*
X032186Y012546D02*
X032580Y012546D01*
X032580Y012538D02*
X032186Y012538D01*
X032186Y012529D02*
X032580Y012529D01*
X032580Y012521D02*
X032186Y012521D01*
X032186Y012512D02*
X032580Y012512D01*
X032580Y012504D02*
X032186Y012504D01*
X032186Y012495D02*
X032580Y012495D01*
X032580Y012487D02*
X032186Y012487D01*
X032186Y012478D02*
X032580Y012478D01*
X032580Y012470D02*
X032186Y012470D01*
X032186Y012461D02*
X032580Y012461D01*
X032580Y012453D02*
X032186Y012453D01*
X032186Y012444D02*
X032580Y012444D01*
X032580Y012436D02*
X032186Y012436D01*
X032186Y012427D02*
X032580Y012427D01*
X032580Y012419D02*
X032186Y012419D01*
X032186Y012410D02*
X032580Y012410D01*
X032580Y012402D02*
X032186Y012402D01*
X032186Y012393D02*
X032580Y012393D01*
X032580Y012385D02*
X032186Y012385D01*
X032186Y012376D02*
X032580Y012376D01*
X032580Y012368D02*
X032186Y012368D01*
X032186Y012359D02*
X032580Y012359D01*
X032580Y012351D02*
X032186Y012351D01*
X032186Y012342D02*
X032580Y012342D01*
X032580Y012334D02*
X032186Y012334D01*
X032186Y012325D02*
X032580Y012325D01*
X032580Y012317D02*
X032186Y012317D01*
X032186Y012308D02*
X032580Y012308D01*
X032580Y012300D02*
X032186Y012300D01*
X032186Y012291D02*
X032580Y012291D01*
X032580Y012283D02*
X032186Y012283D01*
X032186Y012274D02*
X032580Y012274D01*
X032580Y012266D02*
X032186Y012266D01*
X032186Y012257D02*
X032580Y012257D01*
X032580Y012249D02*
X032186Y012249D01*
X032186Y012240D02*
X032580Y012240D01*
X032580Y012232D02*
X032186Y012232D01*
X032186Y012223D02*
X032580Y012223D01*
X032580Y012215D02*
X032186Y012215D01*
X032186Y012206D02*
X032580Y012206D01*
X032580Y012198D02*
X032186Y012198D01*
X032186Y012189D02*
X032580Y012189D01*
X032580Y012181D02*
X032186Y012181D01*
X032186Y012172D02*
X032580Y012172D01*
X032580Y012164D02*
X032186Y012164D01*
X032580Y013745D02*
X027855Y013745D01*
X027855Y013753D02*
X032580Y013753D01*
X032580Y013762D02*
X027855Y013762D01*
X027855Y013770D02*
X032580Y013770D01*
X032580Y013779D02*
X027855Y013779D01*
X027855Y013787D02*
X032580Y013787D01*
X032580Y013796D02*
X027855Y013796D01*
X027855Y013804D02*
X032580Y013804D01*
X032580Y013813D02*
X027855Y013813D01*
X027855Y013821D02*
X032580Y013821D01*
X032580Y013830D02*
X027855Y013830D01*
X027855Y013838D02*
X032580Y013838D01*
X032580Y013847D02*
X027855Y013847D01*
X027855Y013855D02*
X032580Y013855D01*
X032580Y013864D02*
X027855Y013864D01*
X027855Y013872D02*
X032580Y013872D01*
X032580Y013881D02*
X027855Y013881D01*
X027855Y013889D02*
X032580Y013889D01*
X032580Y013898D02*
X027855Y013898D01*
X027855Y013906D02*
X032580Y013906D01*
X032580Y013915D02*
X027855Y013915D01*
X027855Y013923D02*
X032580Y013923D01*
X032580Y013932D02*
X027855Y013932D01*
X027855Y013940D02*
X032580Y013940D01*
X032580Y013949D02*
X027855Y013949D01*
X027855Y013957D02*
X032580Y013957D01*
X032580Y013966D02*
X027855Y013966D01*
X027855Y013974D02*
X032580Y013974D01*
X032580Y013983D02*
X027855Y013983D01*
X027855Y013991D02*
X032580Y013991D01*
X032580Y014000D02*
X027855Y014000D01*
X027855Y014008D02*
X032580Y014008D01*
X032580Y014017D02*
X027855Y014017D01*
X027855Y014025D02*
X032580Y014025D01*
X032580Y014034D02*
X027855Y014034D01*
X027855Y014042D02*
X032580Y014042D01*
X032580Y014051D02*
X027855Y014051D01*
X027855Y014059D02*
X032580Y014059D01*
X032580Y014068D02*
X027855Y014068D01*
X027855Y014076D02*
X032580Y014076D01*
X032580Y014085D02*
X027855Y014085D01*
X027855Y014093D02*
X032580Y014093D01*
X032580Y014102D02*
X027855Y014102D01*
X027855Y014110D02*
X032580Y014110D01*
X032580Y014119D02*
X027855Y014119D01*
X027855Y014127D02*
X028249Y014127D01*
X028249Y014136D02*
X027855Y014136D01*
X027855Y014144D02*
X028249Y014144D01*
X028249Y014153D02*
X027855Y014153D01*
X027855Y014161D02*
X028249Y014161D01*
X028249Y014170D02*
X027855Y014170D01*
X027855Y014178D02*
X028249Y014178D01*
X028249Y014187D02*
X027855Y014187D01*
X027855Y014195D02*
X028249Y014195D01*
X028249Y014204D02*
X027855Y014204D01*
X027855Y014212D02*
X028249Y014212D01*
X028249Y014221D02*
X027855Y014221D01*
X027855Y014229D02*
X028249Y014229D01*
X028249Y014238D02*
X027855Y014238D01*
X027855Y014246D02*
X028249Y014246D01*
X028249Y014255D02*
X027855Y014255D01*
X027855Y014263D02*
X028249Y014263D01*
X028249Y014272D02*
X027855Y014272D01*
X027855Y014280D02*
X028249Y014280D01*
X028249Y014289D02*
X027855Y014289D01*
X027855Y014297D02*
X028249Y014297D01*
X028249Y014306D02*
X027855Y014306D01*
X027855Y014314D02*
X028249Y014314D01*
X028249Y014323D02*
X027855Y014323D01*
X027855Y014331D02*
X028249Y014331D01*
X028249Y014340D02*
X027855Y014340D01*
X027855Y014348D02*
X028249Y014348D01*
X028249Y014357D02*
X027855Y014357D01*
X027855Y014365D02*
X028249Y014365D01*
X028249Y014374D02*
X027855Y014374D01*
X027855Y014382D02*
X028249Y014382D01*
X028249Y014391D02*
X027855Y014391D01*
X027855Y014399D02*
X028249Y014399D01*
X028249Y014408D02*
X027855Y014408D01*
X027855Y014416D02*
X028249Y014416D01*
X028249Y014425D02*
X027855Y014425D01*
X027855Y014433D02*
X028249Y014433D01*
X028249Y014442D02*
X027855Y014442D01*
X027855Y014450D02*
X028249Y014450D01*
X028249Y014459D02*
X027855Y014459D01*
X027855Y014467D02*
X028249Y014467D01*
X028249Y014476D02*
X027855Y014476D01*
X027855Y014484D02*
X028249Y014484D01*
X028249Y014493D02*
X027855Y014493D01*
X027855Y014501D02*
X028249Y014501D01*
X028249Y014510D02*
X027855Y014510D01*
X027855Y014518D02*
X028249Y014518D01*
X028249Y014527D02*
X027855Y014527D01*
X027855Y014535D02*
X028249Y014535D01*
X028249Y014544D02*
X027855Y014544D01*
X027855Y014552D02*
X028249Y014552D01*
X028249Y014561D02*
X027855Y014561D01*
X027855Y014569D02*
X028249Y014569D01*
X028249Y014578D02*
X027855Y014578D01*
X027855Y014586D02*
X028249Y014586D01*
X028249Y014595D02*
X027855Y014595D01*
X027855Y014603D02*
X028249Y014603D01*
X028249Y014612D02*
X027855Y014612D01*
X027855Y014620D02*
X028249Y014620D01*
X028249Y014629D02*
X027855Y014629D01*
X027855Y014637D02*
X028249Y014637D01*
X028249Y014646D02*
X027855Y014646D01*
X027855Y014654D02*
X028249Y014654D01*
X028249Y014663D02*
X027855Y014663D01*
X027855Y014671D02*
X028249Y014671D01*
X028249Y014680D02*
X027855Y014680D01*
X027855Y014688D02*
X028249Y014688D01*
X028249Y014697D02*
X027855Y014697D01*
X027855Y014705D02*
X028249Y014705D01*
X028249Y014714D02*
X027855Y014714D01*
X027855Y014722D02*
X028249Y014722D01*
X028249Y014731D02*
X027855Y014731D01*
X027855Y014739D02*
X028249Y014739D01*
X028249Y014748D02*
X027855Y014748D01*
X027855Y014756D02*
X028249Y014756D01*
X028249Y014765D02*
X027855Y014765D01*
X027855Y014773D02*
X028249Y014773D01*
X028249Y014782D02*
X027855Y014782D01*
X027855Y014790D02*
X028249Y014790D01*
X028249Y014799D02*
X027855Y014799D01*
X027855Y014807D02*
X028249Y014807D01*
X028249Y014816D02*
X027855Y014816D01*
X027855Y014824D02*
X028249Y014824D01*
X028249Y014833D02*
X027855Y014833D01*
X027855Y014841D02*
X028249Y014841D01*
X028249Y014850D02*
X027855Y014850D01*
X027855Y014858D02*
X028249Y014858D01*
X028249Y014867D02*
X027855Y014867D01*
X027855Y014875D02*
X028249Y014875D01*
X028249Y014884D02*
X027855Y014884D01*
X027855Y014892D02*
X028249Y014892D01*
X028249Y014901D02*
X027855Y014901D01*
X027855Y014909D02*
X028249Y014909D01*
X028249Y014918D02*
X027855Y014918D01*
X027855Y014926D02*
X028249Y014926D01*
X028249Y014935D02*
X027855Y014935D01*
X027855Y014943D02*
X028249Y014943D01*
X028249Y014952D02*
X027855Y014952D01*
X027855Y014960D02*
X028249Y014960D01*
X028249Y014969D02*
X027855Y014969D01*
X027855Y014977D02*
X028249Y014977D01*
X028249Y014986D02*
X027855Y014986D01*
X027855Y014994D02*
X028249Y014994D01*
X028249Y015003D02*
X027855Y015003D01*
X027855Y015011D02*
X028249Y015011D01*
X028249Y015020D02*
X027855Y015020D01*
X027855Y015028D02*
X028249Y015028D01*
X028249Y015037D02*
X027855Y015037D01*
X027855Y015045D02*
X028249Y015045D01*
X028249Y015054D02*
X027855Y015054D01*
X027855Y015062D02*
X028249Y015062D01*
X028249Y015071D02*
X027855Y015071D01*
X027855Y015079D02*
X028249Y015079D01*
X028249Y015088D02*
X027855Y015088D01*
X027855Y015096D02*
X028249Y015096D01*
X028249Y015105D02*
X027855Y015105D01*
X027855Y015113D02*
X028249Y015113D01*
X028249Y015122D02*
X027855Y015122D01*
X027855Y015130D02*
X028249Y015130D01*
X028249Y015139D02*
X027855Y015139D01*
X027855Y015147D02*
X028249Y015147D01*
X028249Y015156D02*
X027855Y015156D01*
X027855Y015164D02*
X028249Y015164D01*
X028249Y015173D02*
X027855Y015173D01*
X027855Y015181D02*
X028249Y015181D01*
X028249Y015190D02*
X027855Y015190D01*
X027855Y015198D02*
X028249Y015198D01*
X028249Y015207D02*
X027855Y015207D01*
X027855Y015215D02*
X028249Y015215D01*
X028249Y015224D02*
X027855Y015224D01*
X027855Y015232D02*
X028249Y015232D01*
X028249Y015241D02*
X027855Y015241D01*
X027855Y015249D02*
X028249Y015249D01*
X028249Y015258D02*
X027855Y015258D01*
X027855Y015266D02*
X028249Y015266D01*
X028249Y015275D02*
X027855Y015275D01*
X027855Y015283D02*
X028249Y015283D01*
X028249Y015292D02*
X027855Y015292D01*
X027855Y015300D02*
X028249Y015300D01*
X028249Y015309D02*
X027855Y015309D01*
X027855Y015317D02*
X028249Y015317D01*
X028249Y015326D02*
X027855Y015326D01*
X027855Y015334D02*
X028249Y015334D01*
X028249Y015343D02*
X027855Y015343D01*
X027855Y015351D02*
X028249Y015351D01*
X028249Y015360D02*
X027855Y015360D01*
X027855Y015368D02*
X028249Y015368D01*
X028249Y015377D02*
X027855Y015377D01*
X027855Y015385D02*
X028249Y015385D01*
X028249Y015394D02*
X027855Y015394D01*
X027855Y015402D02*
X028249Y015402D01*
X028249Y015411D02*
X027855Y015411D01*
X027855Y015419D02*
X028249Y015419D01*
X028249Y015428D02*
X027855Y015428D01*
X027855Y015436D02*
X028249Y015436D01*
X028249Y015445D02*
X027855Y015445D01*
X027855Y015453D02*
X028249Y015453D01*
X028249Y015462D02*
X027855Y015462D01*
X027855Y015470D02*
X028249Y015470D01*
X028249Y015479D02*
X027855Y015479D01*
X027855Y015487D02*
X028249Y015487D01*
X028249Y015496D02*
X027855Y015496D01*
X027855Y015504D02*
X028249Y015504D01*
X028249Y015513D02*
X027855Y015513D01*
X027855Y015521D02*
X028249Y015521D01*
X028249Y015530D02*
X027855Y015530D01*
X027855Y015538D02*
X028249Y015538D01*
X028249Y015547D02*
X027855Y015547D01*
X027855Y015555D02*
X028249Y015555D01*
X028249Y015564D02*
X027855Y015564D01*
X027855Y015572D02*
X028249Y015572D01*
X028249Y015581D02*
X027855Y015581D01*
X027855Y015589D02*
X028249Y015589D01*
X028249Y015598D02*
X027855Y015598D01*
X027855Y015606D02*
X028249Y015606D01*
X028249Y015615D02*
X027855Y015615D01*
X027855Y015623D02*
X028249Y015623D01*
X028249Y015632D02*
X027855Y015632D01*
X027855Y015640D02*
X028249Y015640D01*
X028249Y015649D02*
X027855Y015649D01*
X027855Y015657D02*
X028249Y015657D01*
X028249Y015666D02*
X027855Y015666D01*
X027855Y015674D02*
X028249Y015674D01*
X028249Y015683D02*
X027855Y015683D01*
X027855Y015691D02*
X028249Y015691D01*
X028249Y015700D02*
X027855Y015700D01*
X027855Y015708D02*
X032580Y015708D01*
X032580Y015717D02*
X027855Y015717D01*
X027855Y015725D02*
X032580Y015725D01*
X032580Y015734D02*
X027855Y015734D01*
X027855Y015742D02*
X032580Y015742D01*
X032580Y015751D02*
X027855Y015751D01*
X027855Y015759D02*
X032580Y015759D01*
X032580Y015768D02*
X027855Y015768D01*
X027855Y015776D02*
X032580Y015776D01*
X032580Y015785D02*
X027855Y015785D01*
X027855Y015793D02*
X032580Y015793D01*
X032580Y015802D02*
X027855Y015802D01*
X027855Y015810D02*
X032580Y015810D01*
X032580Y015819D02*
X027855Y015819D01*
X027855Y015827D02*
X032580Y015827D01*
X032580Y015836D02*
X027855Y015836D01*
X027855Y015844D02*
X032580Y015844D01*
X032580Y015853D02*
X027855Y015853D01*
X027855Y015861D02*
X032580Y015861D01*
X032580Y015870D02*
X027855Y015870D01*
X027855Y015878D02*
X032580Y015878D01*
X032580Y015887D02*
X027855Y015887D01*
X027855Y015895D02*
X032580Y015895D01*
X032580Y015904D02*
X027855Y015904D01*
X027855Y015912D02*
X032580Y015912D01*
X032580Y015921D02*
X027855Y015921D01*
X027855Y015929D02*
X032580Y015929D01*
X032580Y015938D02*
X027855Y015938D01*
X027855Y015946D02*
X032580Y015946D01*
X032580Y015955D02*
X027855Y015955D01*
X027855Y015963D02*
X032580Y015963D01*
X032580Y015972D02*
X027855Y015972D01*
X027855Y015980D02*
X032580Y015980D01*
X032580Y015989D02*
X027855Y015989D01*
X027855Y015997D02*
X032580Y015997D01*
X032580Y016006D02*
X027855Y016006D01*
X027855Y016014D02*
X032580Y016014D01*
X032580Y016023D02*
X027855Y016023D01*
X027855Y016031D02*
X032580Y016031D01*
X032580Y016040D02*
X027855Y016040D01*
X027855Y016048D02*
X032580Y016048D01*
X032580Y016057D02*
X027855Y016057D01*
X027855Y016065D02*
X032580Y016065D01*
X032580Y016074D02*
X027855Y016074D01*
X027855Y016082D02*
X032580Y016082D01*
X032580Y016091D02*
X027855Y016091D01*
D22*
X019060Y002168D03*
X019060Y000712D03*
D23*
X022660Y007090D03*
D24*
X021725Y006066D03*
X023595Y006066D03*
X023595Y008114D03*
X021725Y008114D03*
D25*
X021558Y007090D03*
X023762Y007090D03*
D26*
X019344Y010729D03*
X017376Y010729D03*
X014094Y010729D03*
X012126Y010729D03*
X008944Y010729D03*
X006976Y010729D03*
X003744Y010729D03*
X001776Y010729D03*
X001776Y015651D03*
X003744Y015651D03*
X006976Y015651D03*
X008944Y015651D03*
X012126Y015651D03*
X014094Y015651D03*
X017376Y015651D03*
X019344Y015651D03*
D27*
X001892Y000578D02*
X001370Y000926D01*
X000926Y001370D01*
X000578Y001892D01*
X000338Y002471D01*
X000215Y003086D01*
X000200Y003400D01*
X000200Y015400D01*
X000212Y015556D01*
X000309Y015854D01*
X000493Y016107D01*
X000746Y016291D01*
X001044Y016388D01*
X001200Y016400D01*
X024340Y016400D01*
X024340Y004143D01*
X023952Y004143D01*
X023947Y004138D01*
X023946Y004138D01*
X023910Y004102D01*
X023874Y004138D01*
X023767Y004138D01*
X023767Y004424D01*
X023702Y004490D01*
X023767Y004556D01*
X023767Y004707D01*
X023795Y004773D01*
X023795Y004927D01*
X023736Y005068D01*
X023262Y005542D01*
X023545Y005542D01*
X023545Y006016D01*
X023645Y006016D01*
X023645Y005542D01*
X024077Y005542D01*
X024116Y005553D01*
X024150Y005572D01*
X024178Y005600D01*
X024197Y005634D01*
X024208Y005673D01*
X024208Y006016D01*
X023645Y006016D01*
X023645Y006116D01*
X024208Y006116D01*
X024208Y007040D01*
X023812Y007040D01*
X023812Y006590D01*
X023712Y006590D01*
X023712Y007040D01*
X023317Y007040D01*
X023317Y006590D01*
X023113Y006590D01*
X023075Y006580D01*
X023045Y006563D01*
X023045Y006781D01*
X023076Y006812D01*
X023151Y006992D01*
X023151Y007188D01*
X023076Y007368D01*
X022938Y007506D01*
X022758Y007581D01*
X022562Y007581D01*
X022382Y007506D01*
X022244Y007368D01*
X022169Y007188D01*
X022169Y006992D01*
X022244Y006812D01*
X022275Y006781D01*
X022275Y006563D01*
X022245Y006580D01*
X022207Y006590D01*
X022003Y006590D01*
X022003Y007040D01*
X021608Y007040D01*
X021608Y007140D01*
X022003Y007140D01*
X022003Y007590D01*
X022207Y007590D01*
X022245Y007600D01*
X022280Y007620D01*
X022308Y007648D01*
X022327Y007682D01*
X022338Y007720D01*
X022338Y008064D01*
X021775Y008064D01*
X021775Y008164D01*
X021675Y008164D01*
X021675Y008638D01*
X021243Y008638D01*
X021204Y008627D01*
X021170Y008608D01*
X021142Y008580D01*
X021123Y008546D01*
X021112Y008507D01*
X021112Y008164D01*
X021675Y008164D01*
X021675Y008064D01*
X021112Y008064D01*
X021112Y007140D01*
X021508Y007140D01*
X021508Y007040D01*
X021112Y007040D01*
X021112Y006426D01*
X021112Y006116D01*
X021675Y006116D01*
X021675Y006016D01*
X021775Y006016D01*
X021775Y005542D01*
X022207Y005542D01*
X022245Y005553D01*
X022275Y005570D01*
X022275Y005513D01*
X022278Y005507D01*
X022278Y005500D01*
X022307Y005437D01*
X022334Y005372D01*
X022338Y005367D01*
X022341Y005361D01*
X022392Y005313D01*
X022442Y005264D01*
X022448Y005261D01*
X022542Y005173D01*
X023153Y004563D01*
X023153Y004556D01*
X023218Y004490D01*
X023153Y004424D01*
X023153Y004110D01*
X023124Y004138D01*
X023017Y004138D01*
X023013Y004140D01*
X022557Y004140D01*
X022553Y004138D01*
X022446Y004138D01*
X022410Y004102D01*
X022374Y004138D01*
X022267Y004138D01*
X022263Y004140D01*
X022163Y004140D01*
X022160Y004138D01*
X022053Y004138D01*
X021965Y004051D01*
X021965Y004042D01*
X021955Y004052D01*
X021863Y004090D01*
X021407Y004090D01*
X021403Y004088D01*
X021296Y004088D01*
X021260Y004052D01*
X021224Y004088D01*
X021117Y004088D01*
X021113Y004090D01*
X020905Y004090D01*
X020905Y004190D01*
X020905Y004308D01*
X020895Y004346D01*
X020875Y004381D01*
X020847Y004408D01*
X020813Y004428D01*
X020775Y004438D01*
X020657Y004438D01*
X020657Y004190D01*
X020905Y004190D01*
X020657Y004190D01*
X020657Y004190D01*
X020657Y004190D01*
X020657Y004438D01*
X020539Y004438D01*
X020501Y004428D01*
X020466Y004408D01*
X020460Y004402D01*
X020424Y004438D01*
X020317Y004438D01*
X020313Y004440D01*
X020213Y004440D01*
X020210Y004438D01*
X020103Y004438D01*
X020015Y004351D01*
X020015Y004244D01*
X020013Y004240D01*
X020013Y004090D01*
X019977Y004090D01*
X019995Y004133D01*
X019995Y004247D01*
X019952Y004351D01*
X019871Y004432D01*
X019767Y004475D01*
X019653Y004475D01*
X019549Y004432D01*
X019537Y004420D01*
X019389Y004420D01*
X019636Y004640D01*
X019856Y004640D01*
X019856Y004620D01*
X019944Y004533D01*
X020344Y004533D01*
X020412Y004600D01*
X020418Y004590D01*
X020446Y004562D01*
X020480Y004543D01*
X020518Y004533D01*
X020657Y004533D01*
X020657Y004821D01*
X020695Y004821D01*
X020695Y004859D01*
X020964Y004859D01*
X020964Y005017D01*
X020953Y005055D01*
X020934Y005090D01*
X020912Y005111D01*
X020915Y005112D01*
X020943Y005140D01*
X020963Y005175D01*
X020973Y005213D01*
X020973Y005371D01*
X020704Y005371D01*
X020704Y005147D01*
X020695Y005147D01*
X020695Y004859D01*
X020657Y004859D01*
X020657Y005083D01*
X020667Y005083D01*
X020667Y005371D01*
X020704Y005371D01*
X020704Y005409D01*
X020667Y005409D01*
X020667Y005697D01*
X020667Y005921D01*
X020704Y005921D01*
X020704Y005409D01*
X020973Y005409D01*
X020973Y005567D01*
X020963Y005605D01*
X020943Y005640D01*
X020918Y005665D01*
X020943Y005690D01*
X020963Y005725D01*
X020973Y005763D01*
X020973Y005921D01*
X020704Y005921D01*
X020704Y005959D01*
X020667Y005959D01*
X020667Y006471D01*
X020704Y006471D01*
X020704Y006183D01*
X020704Y005959D01*
X020973Y005959D01*
X020973Y006117D01*
X020963Y006155D01*
X020943Y006190D01*
X020918Y006215D01*
X020943Y006240D01*
X020963Y006275D01*
X020973Y006313D01*
X020973Y006471D01*
X020704Y006471D01*
X020704Y006509D01*
X020667Y006509D01*
X020667Y007021D01*
X020704Y007021D01*
X020704Y006733D01*
X020704Y006509D01*
X020973Y006509D01*
X020973Y006667D01*
X020963Y006705D01*
X020943Y006740D01*
X020918Y006765D01*
X020943Y006790D01*
X020963Y006825D01*
X020973Y006863D01*
X020973Y007021D01*
X020704Y007021D01*
X020704Y007059D01*
X020667Y007059D01*
X020667Y007347D01*
X020528Y007347D01*
X020490Y007337D01*
X020456Y007318D01*
X020428Y007290D01*
X020415Y007267D01*
X020367Y007314D01*
X020417Y007364D01*
X020417Y007764D01*
X020342Y007840D01*
X020417Y007916D01*
X020417Y008316D01*
X020352Y008381D01*
X020395Y008483D01*
X020395Y008597D01*
X020352Y008701D01*
X020271Y008782D01*
X020167Y008825D01*
X020053Y008825D01*
X019949Y008782D01*
X019868Y008701D01*
X019825Y008597D01*
X019825Y008483D01*
X019868Y008381D01*
X019803Y008316D01*
X019803Y007916D01*
X019878Y007840D01*
X019803Y007764D01*
X019803Y007364D01*
X019820Y007347D01*
X019536Y007347D01*
X019455Y007267D01*
X019442Y007290D01*
X019414Y007318D01*
X019380Y007337D01*
X019342Y007347D01*
X019203Y007347D01*
X019203Y007059D01*
X019166Y007059D01*
X019166Y007347D01*
X019027Y007347D01*
X018989Y007337D01*
X018955Y007318D01*
X018927Y007290D01*
X018907Y007255D01*
X018897Y007217D01*
X018897Y007059D01*
X019166Y007059D01*
X019166Y007021D01*
X019203Y007021D01*
X019203Y006509D01*
X019166Y006509D01*
X019166Y006733D01*
X019166Y007021D01*
X018897Y007021D01*
X018897Y006863D01*
X018907Y006825D01*
X018927Y006790D01*
X018952Y006765D01*
X018927Y006740D01*
X018907Y006705D01*
X018897Y006667D01*
X018897Y006509D01*
X019166Y006509D01*
X019166Y006471D01*
X019203Y006471D01*
X019203Y005959D01*
X019166Y005959D01*
X019166Y006247D01*
X019166Y006471D01*
X018897Y006471D01*
X018897Y006313D01*
X018907Y006275D01*
X018927Y006240D01*
X018952Y006215D01*
X018927Y006190D01*
X018907Y006155D01*
X018897Y006117D01*
X018897Y005959D01*
X019166Y005959D01*
X019166Y005921D01*
X019203Y005921D01*
X019203Y005633D01*
X019342Y005633D01*
X019380Y005643D01*
X019414Y005662D01*
X019442Y005690D01*
X019455Y005713D01*
X019480Y005688D01*
X019480Y005563D01*
X019468Y005551D01*
X019425Y005447D01*
X019425Y005388D01*
X019235Y005198D01*
X019234Y005200D01*
X019150Y005284D01*
X019075Y005315D01*
X019110Y005400D01*
X019110Y005520D01*
X019064Y005630D01*
X019062Y005633D01*
X019166Y005633D01*
X019166Y005921D01*
X018897Y005921D01*
X018897Y005763D01*
X018901Y005747D01*
X018870Y005760D01*
X018750Y005760D01*
X018640Y005714D01*
X018556Y005630D01*
X018510Y005520D01*
X018510Y005443D01*
X018500Y005433D01*
X018500Y005232D01*
X018252Y005232D01*
X018252Y005636D01*
X018243Y005645D01*
X018243Y005653D01*
X018464Y005850D01*
X018560Y005850D01*
X018670Y005896D01*
X018754Y005980D01*
X018800Y006090D01*
X018800Y006210D01*
X018754Y006320D01*
X018670Y006404D01*
X018560Y006450D01*
X018440Y006450D01*
X018330Y006404D01*
X018275Y006349D01*
X018220Y006404D01*
X018110Y006450D01*
X018046Y006450D01*
X018085Y006543D01*
X018085Y006657D01*
X018042Y006761D01*
X017961Y006842D01*
X017857Y006885D01*
X017743Y006885D01*
X017652Y006847D01*
X017652Y006949D01*
X017692Y006989D01*
X017735Y007093D01*
X017735Y007207D01*
X017692Y007311D01*
X017611Y007392D01*
X017507Y007435D01*
X017393Y007435D01*
X017289Y007392D01*
X017208Y007311D01*
X017165Y007207D01*
X017165Y007093D01*
X017182Y007053D01*
X017029Y007053D01*
X017029Y006784D01*
X016991Y006784D01*
X016991Y006747D01*
X016703Y006747D01*
X016479Y006747D01*
X016479Y006784D01*
X016991Y006784D01*
X016991Y007053D01*
X016833Y007053D01*
X016795Y007043D01*
X016760Y007023D01*
X016735Y006998D01*
X016710Y007023D01*
X016675Y007043D01*
X016637Y007053D01*
X016479Y007053D01*
X016479Y006784D01*
X016441Y006784D01*
X016441Y006747D01*
X016153Y006747D01*
X016153Y006608D01*
X016163Y006570D01*
X016182Y006536D01*
X016210Y006508D01*
X016233Y006495D01*
X016202Y006464D01*
X016177Y006475D01*
X016063Y006475D01*
X015959Y006432D01*
X015878Y006351D01*
X015835Y006247D01*
X015835Y006133D01*
X015871Y006046D01*
X015855Y006029D01*
X015850Y006034D01*
X015740Y006080D01*
X015620Y006080D01*
X015510Y006034D01*
X015507Y006032D01*
X015507Y006216D01*
X015420Y006304D01*
X015400Y006304D01*
X015859Y006304D01*
X015835Y006206D02*
X015507Y006206D01*
X015507Y006107D02*
X015846Y006107D01*
X016060Y005810D02*
X016074Y005796D01*
X016074Y005359D01*
X015877Y005359D02*
X015877Y005583D01*
X015680Y005780D01*
X015200Y006016D02*
X015200Y007900D01*
X015560Y008260D01*
X016200Y008260D01*
X016194Y008266D01*
X016194Y009000D01*
X016000Y009000D02*
X016000Y008700D01*
X015900Y008600D01*
X015994Y008570D02*
X014850Y008570D01*
X014850Y008640D02*
X014880Y008640D01*
X014990Y008686D01*
X015074Y008770D01*
X015087Y008800D01*
X015591Y008800D01*
X015591Y008743D01*
X015679Y008655D01*
X015994Y008655D01*
X015994Y008460D01*
X015477Y008460D01*
X015360Y008343D01*
X015117Y008100D01*
X015000Y007983D01*
X015000Y006304D01*
X014850Y006304D01*
X014850Y008640D01*
X014947Y008668D02*
X015666Y008668D01*
X015591Y008767D02*
X015071Y008767D01*
X014880Y009000D02*
X014820Y008940D01*
X014650Y008770D01*
X014650Y006016D01*
X014850Y006304D02*
X014870Y006304D01*
X014925Y006248D01*
X014980Y006304D01*
X015000Y006304D01*
X015000Y006403D02*
X014850Y006403D01*
X014850Y006501D02*
X015000Y006501D01*
X015000Y006600D02*
X014850Y006600D01*
X014850Y006698D02*
X015000Y006698D01*
X015000Y006797D02*
X014850Y006797D01*
X014850Y006895D02*
X015000Y006895D01*
X015000Y006994D02*
X014850Y006994D01*
X014850Y007092D02*
X015000Y007092D01*
X015000Y007191D02*
X014850Y007191D01*
X014850Y007289D02*
X015000Y007289D01*
X015000Y007388D02*
X014850Y007388D01*
X014850Y007486D02*
X015000Y007486D01*
X015000Y007585D02*
X014850Y007585D01*
X014850Y007683D02*
X015000Y007683D01*
X015000Y007782D02*
X014850Y007782D01*
X014850Y007880D02*
X015000Y007880D01*
X015000Y007979D02*
X014850Y007979D01*
X014850Y008077D02*
X015094Y008077D01*
X015117Y008100D02*
X015117Y008100D01*
X015193Y008176D02*
X014850Y008176D01*
X014850Y008274D02*
X015291Y008274D01*
X015390Y008373D02*
X014850Y008373D01*
X014850Y008471D02*
X015994Y008471D01*
X016200Y008260D02*
X019100Y008260D01*
X019780Y008940D01*
X020110Y009290D01*
X020110Y009966D01*
X019610Y009966D01*
X019610Y010464D01*
X019344Y010729D01*
X019605Y010990D01*
X019960Y010990D01*
X020560Y010990D01*
X020550Y011000D01*
X020550Y011120D01*
X020560Y010990D02*
X020560Y011490D01*
X016360Y011490D01*
X016160Y011290D02*
X016160Y010990D01*
X016710Y010990D01*
X017115Y010990D01*
X017376Y010729D01*
X017951Y010737D02*
X018769Y010737D01*
X018769Y010835D02*
X017951Y010835D01*
X017951Y010844D02*
X017863Y011055D01*
X017828Y011090D01*
X018892Y011090D01*
X018857Y011055D01*
X018769Y010844D01*
X018769Y010615D01*
X018857Y010404D01*
X019017Y010244D01*
X018790Y010244D01*
X018703Y010156D01*
X018703Y009756D01*
X018770Y009688D01*
X018760Y009682D01*
X018732Y009654D01*
X018713Y009620D01*
X018703Y009582D01*
X018703Y009443D01*
X018991Y009443D01*
X018991Y009405D01*
X019029Y009405D01*
X019029Y009136D01*
X019187Y009136D01*
X019225Y009147D01*
X019260Y009166D01*
X019288Y009194D01*
X019307Y009229D01*
X019309Y009234D01*
X019313Y009219D01*
X019332Y009185D01*
X019360Y009157D01*
X019395Y009137D01*
X019433Y009127D01*
X019591Y009127D01*
X019591Y009396D01*
X019317Y009396D01*
X019317Y009405D01*
X019029Y009405D01*
X019029Y009443D01*
X019303Y009443D01*
X019303Y009433D01*
X019591Y009433D01*
X019591Y009396D01*
X019629Y009396D01*
X019629Y009127D01*
X019681Y009127D01*
X019637Y009079D01*
X019017Y008460D01*
X016394Y008460D01*
X016394Y008734D01*
X016403Y008743D01*
X016403Y009257D01*
X016343Y009317D01*
X016403Y009377D01*
X016403Y009891D01*
X016400Y009894D01*
X016400Y010297D01*
X016442Y010339D01*
X016485Y010443D01*
X016485Y010557D01*
X016442Y010661D01*
X016361Y010742D01*
X016257Y010785D01*
X016143Y010785D01*
X016039Y010742D01*
X015958Y010661D01*
X015915Y010557D01*
X015915Y010443D01*
X015958Y010339D01*
X016000Y010297D01*
X016000Y009979D01*
X015997Y009979D01*
X015997Y009903D01*
X015997Y009903D01*
X015997Y009903D01*
X015997Y009979D01*
X015904Y009979D01*
X015785Y010098D01*
X015785Y010157D01*
X015742Y010261D01*
X015661Y010342D01*
X015557Y010385D01*
X015443Y010385D01*
X015339Y010342D01*
X015258Y010261D01*
X015215Y010157D01*
X015215Y010043D01*
X015258Y009939D01*
X015339Y009858D01*
X015443Y009815D01*
X015502Y009815D01*
X015591Y009726D01*
X015591Y009377D01*
X015651Y009317D01*
X015591Y009257D01*
X015591Y009200D01*
X015020Y009200D01*
X015020Y010089D01*
X014903Y010206D01*
X014717Y010206D01*
X014630Y010294D01*
X014610Y010294D01*
X014610Y010391D01*
X014616Y010398D01*
X014610Y010472D01*
X014669Y010615D01*
X014669Y010790D01*
X015393Y010790D01*
X015510Y010907D01*
X015510Y015173D01*
X015393Y015290D01*
X014547Y015290D01*
X014582Y015325D01*
X014669Y015536D01*
X014669Y015765D01*
X014582Y015976D01*
X014420Y016138D01*
X014209Y016226D01*
X013980Y016226D01*
X013769Y016138D01*
X013607Y015976D01*
X013519Y015765D01*
X013519Y015536D01*
X013607Y015325D01*
X013642Y015290D01*
X012578Y015290D01*
X012613Y015325D01*
X012701Y015536D01*
X012701Y015765D01*
X012613Y015976D01*
X012451Y016138D01*
X012240Y016226D01*
X012011Y016226D01*
X011800Y016138D01*
X011638Y015976D01*
X011551Y015765D01*
X011551Y015536D01*
X011638Y015325D01*
X011673Y015290D01*
X010827Y015290D01*
X010710Y015173D01*
X010710Y015007D01*
X010727Y014990D01*
X010710Y014973D01*
X010710Y010907D01*
X010827Y010790D01*
X011551Y010790D01*
X011551Y010615D01*
X011638Y010404D01*
X011800Y010242D01*
X012011Y010154D01*
X012203Y010154D01*
X012203Y009856D01*
X012268Y009790D01*
X012233Y009754D01*
X012099Y009754D01*
X012071Y009782D01*
X011967Y009825D01*
X011853Y009825D01*
X011749Y009782D01*
X011668Y009701D01*
X011625Y009597D01*
X011625Y009483D01*
X011643Y009440D01*
X011527Y009440D01*
X011427Y009340D01*
X011310Y009223D01*
X011310Y008950D01*
X011289Y008971D01*
X011240Y008971D01*
X011240Y010267D01*
X011252Y010279D01*
X011295Y010383D01*
X011295Y010497D01*
X011252Y010601D01*
X011171Y010682D01*
X011067Y010725D01*
X010953Y010725D01*
X010849Y010682D01*
X010768Y010601D01*
X010747Y010550D01*
X010720Y010523D01*
X010720Y010357D01*
X010747Y010330D01*
X010768Y010279D01*
X010780Y010267D01*
X010780Y008971D01*
X010731Y008971D01*
X010643Y008884D01*
X010643Y008366D01*
X010719Y008290D01*
X010643Y008214D01*
X010643Y007696D01*
X010731Y007609D01*
X010751Y007609D01*
X010725Y007547D01*
X010725Y007433D01*
X010768Y007329D01*
X010810Y007287D01*
X010810Y007214D01*
X010756Y007160D01*
X010710Y007050D01*
X010710Y006930D01*
X010723Y006900D01*
X009983Y006900D01*
X009900Y006983D01*
X009900Y008706D01*
X009964Y008770D01*
X010010Y008880D01*
X010010Y009000D01*
X009964Y009110D01*
X009910Y009164D01*
X009910Y009687D01*
X009939Y009658D01*
X010043Y009615D01*
X010157Y009615D01*
X010261Y009658D01*
X010342Y009739D01*
X010385Y009843D01*
X010385Y009957D01*
X010342Y010061D01*
X010261Y010142D01*
X010157Y010185D01*
X010043Y010185D01*
X009939Y010142D01*
X009898Y010101D01*
X009793Y010206D01*
X009517Y010206D01*
X009517Y010216D01*
X009430Y010303D01*
X009410Y010303D01*
X009410Y010382D01*
X009432Y010404D01*
X009519Y010615D01*
X009519Y010790D01*
X010243Y010790D01*
X010360Y010907D01*
X010360Y015173D01*
X010243Y015290D01*
X009397Y015290D01*
X009432Y015325D01*
X009519Y015536D01*
X009519Y015765D01*
X009432Y015976D01*
X009270Y016138D01*
X009059Y016226D01*
X008830Y016226D01*
X008619Y016138D01*
X008457Y015976D01*
X008369Y015765D01*
X008369Y015536D01*
X008457Y015325D01*
X008492Y015290D01*
X007428Y015290D01*
X007463Y015325D01*
X007551Y015536D01*
X007551Y015765D01*
X007463Y015976D01*
X007301Y016138D01*
X007090Y016226D01*
X006861Y016226D01*
X006650Y016138D01*
X006488Y015976D01*
X006401Y015765D01*
X006401Y015536D01*
X006488Y015325D01*
X006523Y015290D01*
X005677Y015290D01*
X005560Y015173D01*
X005560Y015007D01*
X005577Y014990D01*
X005560Y014973D01*
X005560Y010907D01*
X005677Y010790D01*
X006401Y010790D01*
X006401Y010615D01*
X006488Y010404D01*
X006650Y010242D01*
X006861Y010154D01*
X007090Y010154D01*
X007103Y010160D01*
X007103Y009856D01*
X007168Y009790D01*
X007148Y009770D01*
X007083Y009770D01*
X007071Y009782D01*
X006967Y009825D01*
X006853Y009825D01*
X006749Y009782D01*
X006668Y009701D01*
X006625Y009597D01*
X006625Y009483D01*
X006668Y009379D01*
X006749Y009298D01*
X006853Y009255D01*
X006900Y009255D01*
X006900Y006607D01*
X006816Y006607D01*
X006729Y006519D01*
X006729Y006440D01*
X006257Y006440D01*
X005550Y005733D01*
X005550Y008183D01*
X005250Y008483D01*
X005133Y008600D01*
X004683Y008600D01*
X004450Y008833D01*
X004333Y008950D01*
X003233Y008950D01*
X002988Y009195D01*
X003067Y009275D01*
X003067Y009714D01*
X002992Y009790D01*
X003067Y009866D01*
X003067Y010305D01*
X002980Y010393D01*
X002540Y010393D01*
X002485Y010338D01*
X002430Y010394D01*
X002253Y010394D01*
X002263Y010404D01*
X002351Y010615D01*
X002351Y010844D01*
X002263Y011055D01*
X002228Y011090D01*
X003292Y011090D01*
X003257Y011055D01*
X003169Y010844D01*
X003169Y010615D01*
X003257Y010404D01*
X003317Y010344D01*
X003240Y010344D01*
X003153Y010256D01*
X003153Y009856D01*
X003220Y009788D01*
X003210Y009782D01*
X003182Y009754D01*
X003163Y009720D01*
X003153Y009682D01*
X003153Y009543D01*
X003441Y009543D01*
X003441Y009505D01*
X003479Y009505D01*
X003479Y009236D01*
X003637Y009236D01*
X003675Y009247D01*
X003710Y009266D01*
X003738Y009294D01*
X003757Y009329D01*
X003759Y009334D01*
X003763Y009319D01*
X003782Y009285D01*
X003810Y009257D01*
X003845Y009237D01*
X003883Y009227D01*
X004041Y009227D01*
X004041Y009496D01*
X003767Y009496D01*
X003767Y009505D01*
X003479Y009505D01*
X003479Y009543D01*
X003753Y009543D01*
X003753Y009533D01*
X004041Y009533D01*
X004041Y009496D01*
X004079Y009496D01*
X004079Y009533D01*
X004367Y009533D01*
X004367Y009672D01*
X004357Y009710D01*
X004338Y009744D01*
X004310Y009772D01*
X004287Y009785D01*
X004342Y009840D01*
X004660Y009840D01*
X004660Y009164D01*
X004606Y009110D01*
X004560Y009000D01*
X004560Y008880D01*
X004606Y008770D01*
X004690Y008686D01*
X004800Y008640D01*
X004920Y008640D01*
X005030Y008686D01*
X005084Y008740D01*
X006007Y008740D01*
X006049Y008698D01*
X006153Y008655D01*
X006267Y008655D01*
X006371Y008698D01*
X006452Y008779D01*
X006495Y008883D01*
X006495Y008997D01*
X006452Y009101D01*
X006371Y009182D01*
X006267Y009225D01*
X006153Y009225D01*
X006049Y009182D01*
X006007Y009140D01*
X005084Y009140D01*
X005060Y009164D01*
X005060Y009800D01*
X005097Y009800D01*
X005139Y009758D01*
X005243Y009715D01*
X005357Y009715D01*
X005461Y009758D01*
X005542Y009839D01*
X005585Y009943D01*
X005585Y010057D01*
X005542Y010161D01*
X005461Y010242D01*
X005357Y010285D01*
X005243Y010285D01*
X005139Y010242D01*
X005097Y010200D01*
X004983Y010200D01*
X004943Y010240D01*
X004367Y010240D01*
X004367Y010266D01*
X004280Y010353D01*
X004260Y010353D01*
X004260Y010391D01*
X004266Y010398D01*
X004260Y010472D01*
X004319Y010615D01*
X004319Y010790D01*
X005043Y010790D01*
X005160Y010907D01*
X005160Y011435D01*
X005174Y011458D01*
X005160Y011515D01*
X005160Y015173D01*
X005043Y015290D01*
X004197Y015290D01*
X004232Y015325D01*
X004319Y015536D01*
X004319Y015765D01*
X004232Y015976D01*
X004070Y016138D01*
X003859Y016226D01*
X003630Y016226D01*
X003419Y016138D01*
X003257Y015976D01*
X003169Y015765D01*
X003169Y015536D01*
X003257Y015325D01*
X003292Y015290D01*
X002228Y015290D01*
X002263Y015325D01*
X002351Y015536D01*
X002351Y015765D01*
X002263Y015976D01*
X002101Y016138D01*
X001890Y016226D01*
X001661Y016226D01*
X001450Y016138D01*
X001288Y015976D01*
X001201Y015765D01*
X001201Y015536D01*
X001288Y015325D01*
X001323Y015290D01*
X000477Y015290D01*
X000360Y015173D01*
X000360Y015007D01*
X000377Y014990D01*
X000360Y014973D01*
X000360Y010907D01*
X000477Y010790D01*
X001201Y010790D01*
X001201Y010615D01*
X001288Y010404D01*
X001450Y010242D01*
X001661Y010154D01*
X001890Y010154D01*
X001903Y010160D01*
X001903Y009906D01*
X001968Y009840D01*
X001948Y009820D01*
X001833Y009820D01*
X001821Y009832D01*
X001717Y009875D01*
X001603Y009875D01*
X001499Y009832D01*
X001418Y009751D01*
X001375Y009647D01*
X001375Y009533D01*
X001418Y009429D01*
X001499Y009348D01*
X001603Y009305D01*
X001717Y009305D01*
X001821Y009348D01*
X001833Y009360D01*
X001917Y009360D01*
X001990Y009286D01*
X002430Y009286D01*
X002453Y009309D01*
X002453Y009275D01*
X002540Y009187D01*
X002550Y009187D01*
X002550Y009067D01*
X002667Y008950D01*
X003067Y008550D01*
X004167Y008550D01*
X004517Y008200D01*
X004967Y008200D01*
X005150Y008017D01*
X005150Y000717D01*
X005267Y000600D01*
X005567Y000300D01*
X010083Y000300D01*
X010200Y000417D01*
X010600Y000817D01*
X010600Y001650D01*
X014583Y001650D01*
X014700Y001767D01*
X015450Y002517D01*
X015450Y002648D01*
X015668Y002648D01*
X015668Y002244D01*
X015677Y002235D01*
X015677Y002168D01*
X014975Y001550D01*
X014967Y001550D01*
X014913Y001496D01*
X014856Y001446D01*
X014855Y001438D01*
X014850Y001433D01*
X014850Y001374D01*
X014796Y001320D01*
X014750Y001210D01*
X014750Y001090D01*
X014796Y000980D01*
X014880Y000896D01*
X014990Y000850D01*
X015110Y000850D01*
X015200Y000887D01*
X015200Y000774D01*
X015146Y000720D01*
X015100Y000610D01*
X015100Y000490D01*
X015146Y000380D01*
X015230Y000296D01*
X015340Y000250D01*
X015460Y000250D01*
X015570Y000296D01*
X015654Y000380D01*
X015675Y000430D01*
X015696Y000380D01*
X015780Y000296D01*
X015890Y000250D01*
X016010Y000250D01*
X016120Y000296D01*
X016204Y000380D01*
X016250Y000490D01*
X016250Y000610D01*
X016204Y000720D01*
X016200Y000724D01*
X016200Y000867D01*
X016240Y000850D01*
X016360Y000850D01*
X016400Y000867D01*
X016400Y000774D01*
X016346Y000720D01*
X016300Y000610D01*
X016300Y000490D01*
X016346Y000380D01*
X016430Y000296D01*
X016540Y000250D01*
X016660Y000250D01*
X016770Y000296D01*
X016854Y000380D01*
X016900Y000490D01*
X016900Y000610D01*
X016854Y000720D01*
X016800Y000774D01*
X016800Y000887D01*
X016890Y000850D01*
X017010Y000850D01*
X017055Y000869D01*
X017055Y000780D01*
X016996Y000720D01*
X016950Y000610D01*
X016950Y000490D01*
X016996Y000380D01*
X017080Y000296D01*
X017190Y000250D01*
X017310Y000250D01*
X017420Y000296D01*
X017504Y000380D01*
X017550Y000490D01*
X017596Y000380D01*
X017680Y000296D01*
X017790Y000250D01*
X017910Y000250D01*
X018020Y000296D01*
X018075Y000351D01*
X018130Y000296D01*
X018240Y000250D01*
X018360Y000250D01*
X018461Y000292D01*
X018525Y000227D01*
X019595Y000227D01*
X019682Y000315D01*
X019682Y000385D01*
X019690Y000377D01*
X020130Y000377D01*
X020217Y000464D01*
X020217Y000864D01*
X020137Y000945D01*
X020160Y000958D01*
X020188Y000986D01*
X020207Y001020D01*
X020217Y001058D01*
X020217Y001197D01*
X019929Y001197D01*
X019929Y001234D01*
X020217Y001234D01*
X020217Y001373D01*
X020207Y001411D01*
X020191Y001440D01*
X020207Y001469D01*
X020217Y001507D01*
X020217Y001646D01*
X019929Y001646D01*
X019929Y001683D01*
X020217Y001683D01*
X020217Y001822D01*
X020207Y001860D01*
X020188Y001894D01*
X020160Y001922D01*
X020137Y001935D01*
X020217Y002016D01*
X020217Y002416D01*
X020130Y002503D01*
X019690Y002503D01*
X019682Y002495D01*
X019682Y002555D01*
X019767Y002555D01*
X019871Y002598D01*
X019952Y002679D01*
X019995Y002783D01*
X019995Y002897D01*
X019952Y003001D01*
X019871Y003082D01*
X019767Y003125D01*
X019653Y003125D01*
X019549Y003082D01*
X019537Y003070D01*
X019355Y003070D01*
X019229Y003197D01*
X019260Y003228D01*
X019296Y003192D01*
X019403Y003192D01*
X019407Y003190D01*
X019860Y003190D01*
X019867Y003193D01*
X020013Y003193D01*
X020013Y002990D01*
X020015Y002986D01*
X020015Y002879D01*
X020103Y002792D01*
X020210Y002792D01*
X020213Y002790D01*
X020313Y002790D01*
X020317Y002792D01*
X020424Y002792D01*
X020460Y002828D01*
X020496Y002792D01*
X020603Y002792D01*
X020607Y002790D01*
X021113Y002790D01*
X021117Y002792D01*
X021224Y002792D01*
X021260Y002828D01*
X021266Y002822D01*
X021301Y002802D01*
X021339Y002792D01*
X021457Y002792D01*
X021575Y002792D01*
X021613Y002802D01*
X021647Y002822D01*
X021675Y002849D01*
X021695Y002884D01*
X021705Y002922D01*
X021705Y003040D01*
X021705Y003158D01*
X021696Y003192D01*
X021760Y003192D01*
X021763Y003190D01*
X021863Y003190D01*
X021867Y003192D01*
X021974Y003192D01*
X022010Y003228D01*
X022046Y003192D01*
X022153Y003192D01*
X022157Y003190D01*
X022369Y003190D01*
X022362Y003161D01*
X022362Y003043D01*
X022362Y002925D01*
X022372Y002887D01*
X022392Y002853D01*
X022419Y002825D01*
X022454Y002805D01*
X022492Y002795D01*
X022610Y002795D01*
X022728Y002795D01*
X022766Y002805D01*
X022785Y002816D01*
X022804Y002805D01*
X022842Y002795D01*
X022960Y002795D01*
X023078Y002795D01*
X023116Y002805D01*
X023151Y002825D01*
X023178Y002853D01*
X023198Y002887D01*
X023208Y002925D01*
X023208Y003043D01*
X022960Y003043D01*
X022960Y002795D01*
X022960Y003043D01*
X022960Y003043D01*
X022858Y003043D01*
X022610Y003043D01*
X022610Y002795D01*
X022610Y003043D01*
X022610Y003043D01*
X022610Y003043D01*
X022362Y003043D01*
X022610Y003043D01*
X022610Y003043D01*
X022960Y003043D01*
X022960Y003043D01*
X022960Y003043D01*
X023208Y003043D01*
X023208Y003161D01*
X023198Y003199D01*
X023178Y003234D01*
X023172Y003240D01*
X023208Y003276D01*
X023208Y003383D01*
X023210Y003387D01*
X023210Y003487D01*
X023208Y003490D01*
X023208Y003597D01*
X023144Y003662D01*
X023160Y003678D01*
X023196Y003642D01*
X023303Y003642D01*
X023307Y003640D01*
X023410Y003640D01*
X023410Y003537D01*
X023412Y003533D01*
X023412Y003426D01*
X023448Y003390D01*
X023442Y003384D01*
X023422Y003349D01*
X023208Y003349D01*
X023210Y003448D02*
X023412Y003448D01*
X023410Y003546D02*
X023208Y003546D01*
X023193Y003645D02*
X023161Y003645D01*
X023422Y003349D02*
X023412Y003311D01*
X023412Y003193D01*
X023412Y003075D01*
X023422Y003037D01*
X023442Y003003D01*
X023469Y002975D01*
X023504Y002955D01*
X023542Y002945D01*
X023660Y002945D01*
X023778Y002945D01*
X023816Y002955D01*
X023851Y002975D01*
X023878Y003003D01*
X023885Y003014D01*
X023892Y003003D01*
X023919Y002975D01*
X023954Y002955D01*
X023992Y002945D01*
X024110Y002945D01*
X024228Y002945D01*
X024266Y002955D01*
X024301Y002975D01*
X024328Y003003D01*
X024340Y003023D01*
X024340Y001878D01*
X024332Y001880D01*
X024164Y001880D01*
X024164Y001375D01*
X024067Y001375D01*
X024067Y001279D01*
X023763Y001279D01*
X023763Y000917D01*
X023774Y000877D01*
X023794Y000842D01*
X023823Y000813D01*
X023858Y000793D01*
X023898Y000782D01*
X024067Y000782D01*
X024067Y001279D01*
X024164Y001279D01*
X024164Y000782D01*
X024332Y000782D01*
X024340Y000784D01*
X024340Y000200D01*
X003400Y000200D01*
X003086Y000215D01*
X002471Y000338D01*
X001892Y000578D01*
X001872Y000591D02*
X005276Y000591D01*
X005178Y000690D02*
X001724Y000690D01*
X001577Y000788D02*
X005150Y000788D01*
X005150Y000887D02*
X001430Y000887D01*
X001311Y000985D02*
X005150Y000985D01*
X005150Y001084D02*
X001213Y001084D01*
X001114Y001182D02*
X005150Y001182D01*
X005150Y001281D02*
X001016Y001281D01*
X000920Y001379D02*
X005150Y001379D01*
X005150Y001478D02*
X002290Y001478D01*
X002336Y001497D02*
X002503Y001664D01*
X002594Y001882D01*
X002594Y002118D01*
X002503Y002336D01*
X002336Y002503D01*
X002118Y002594D01*
X001882Y002594D01*
X001664Y002503D01*
X001497Y002336D01*
X001406Y002118D01*
X001406Y001882D01*
X001497Y001664D01*
X001664Y001497D01*
X001882Y001406D01*
X002118Y001406D01*
X002336Y001497D01*
X002416Y001576D02*
X005150Y001576D01*
X005150Y001675D02*
X002508Y001675D01*
X002549Y001773D02*
X005150Y001773D01*
X005150Y001872D02*
X002589Y001872D01*
X002594Y001970D02*
X005150Y001970D01*
X005150Y002069D02*
X002594Y002069D01*
X002573Y002167D02*
X005150Y002167D01*
X005150Y002266D02*
X002533Y002266D01*
X002476Y002364D02*
X005150Y002364D01*
X005150Y002463D02*
X002377Y002463D01*
X002197Y002561D02*
X005150Y002561D01*
X005150Y002660D02*
X000300Y002660D01*
X000281Y002758D02*
X005150Y002758D01*
X005150Y002857D02*
X000261Y002857D01*
X000242Y002955D02*
X005150Y002955D01*
X005150Y003054D02*
X001021Y003054D01*
X001041Y003067D02*
X001083Y003109D01*
X001116Y003158D01*
X001138Y003212D01*
X001150Y003270D01*
X001150Y003275D01*
X000875Y003275D01*
X000875Y003325D01*
X000825Y003325D01*
X000825Y003600D01*
X000820Y003600D01*
X000762Y003588D01*
X000708Y003566D01*
X000659Y003533D01*
X000617Y003491D01*
X000584Y003442D01*
X000562Y003388D01*
X000550Y003330D01*
X000550Y003325D01*
X000825Y003325D01*
X000825Y003275D01*
X000875Y003275D01*
X000875Y003000D01*
X000880Y003000D01*
X000938Y003012D01*
X000992Y003034D01*
X001041Y003067D01*
X001112Y003152D02*
X005150Y003152D01*
X005150Y003251D02*
X001146Y003251D01*
X001150Y003325D02*
X001150Y003330D01*
X001138Y003388D01*
X001116Y003442D01*
X001083Y003491D01*
X001041Y003533D01*
X000992Y003566D01*
X000938Y003588D01*
X000880Y003600D01*
X000875Y003600D01*
X000875Y003325D01*
X001150Y003325D01*
X001146Y003349D02*
X005150Y003349D01*
X005150Y003448D02*
X001112Y003448D01*
X001022Y003546D02*
X005150Y003546D01*
X005150Y003645D02*
X000200Y003645D01*
X000200Y003743D02*
X005150Y003743D01*
X005150Y003842D02*
X000200Y003842D01*
X000200Y003940D02*
X005150Y003940D01*
X005150Y004039D02*
X000200Y004039D01*
X000200Y004137D02*
X005150Y004137D01*
X005150Y004236D02*
X000200Y004236D01*
X000200Y004334D02*
X005150Y004334D01*
X005150Y004433D02*
X000200Y004433D01*
X000200Y004531D02*
X005150Y004531D01*
X005150Y004630D02*
X000200Y004630D01*
X000200Y004728D02*
X005150Y004728D01*
X005150Y004827D02*
X000200Y004827D01*
X000200Y004925D02*
X005150Y004925D01*
X005150Y005024D02*
X000200Y005024D01*
X000200Y005122D02*
X005150Y005122D01*
X005150Y005221D02*
X000200Y005221D01*
X000200Y005319D02*
X005150Y005319D01*
X005150Y005418D02*
X000200Y005418D01*
X000200Y005516D02*
X005150Y005516D01*
X005150Y005615D02*
X000200Y005615D01*
X000200Y005713D02*
X005150Y005713D01*
X005150Y005812D02*
X000200Y005812D01*
X000200Y005910D02*
X005150Y005910D01*
X005150Y006009D02*
X000200Y006009D01*
X000200Y006107D02*
X005150Y006107D01*
X005150Y006206D02*
X000200Y006206D01*
X000200Y006304D02*
X005150Y006304D01*
X005150Y006403D02*
X000200Y006403D01*
X000200Y006501D02*
X005150Y006501D01*
X005150Y006600D02*
X000200Y006600D01*
X000200Y006698D02*
X005150Y006698D01*
X005150Y006797D02*
X000200Y006797D01*
X000200Y006895D02*
X005150Y006895D01*
X005150Y006994D02*
X000200Y006994D01*
X000200Y007092D02*
X005150Y007092D01*
X005150Y007191D02*
X000200Y007191D01*
X000200Y007289D02*
X005150Y007289D01*
X005150Y007388D02*
X000200Y007388D01*
X000200Y007486D02*
X005150Y007486D01*
X005150Y007585D02*
X000200Y007585D01*
X000200Y007683D02*
X005150Y007683D01*
X005150Y007782D02*
X000200Y007782D01*
X000200Y007880D02*
X005150Y007880D01*
X005150Y007979D02*
X000200Y007979D01*
X000200Y008077D02*
X005090Y008077D01*
X004992Y008176D02*
X000200Y008176D01*
X000200Y008274D02*
X004443Y008274D01*
X004345Y008373D02*
X000200Y008373D01*
X000200Y008471D02*
X004246Y008471D01*
X004250Y008750D02*
X004600Y008400D01*
X005050Y008400D01*
X005350Y008100D01*
X005350Y000800D01*
X005650Y000500D01*
X010000Y000500D01*
X010400Y000900D01*
X010400Y001850D01*
X014500Y001850D01*
X015250Y002600D01*
X015250Y002750D01*
X015357Y002857D01*
X015541Y002857D01*
X015541Y003054D02*
X015224Y003054D01*
X015010Y002840D01*
X015010Y002660D01*
X014450Y002100D01*
X011600Y002100D01*
X011610Y002440D02*
X011510Y002540D01*
X011510Y003440D01*
X011200Y003500D02*
X011200Y002600D01*
X010800Y002200D01*
X010230Y002200D01*
X010180Y002150D01*
X010180Y001650D01*
X009800Y001650D01*
X009526Y001773D02*
X009495Y001773D01*
X009510Y001735D02*
X009476Y001818D01*
X009288Y002006D01*
X009145Y002065D01*
X009288Y002124D01*
X009476Y002312D01*
X009516Y002409D01*
X009530Y002396D01*
X009640Y002350D01*
X009760Y002350D01*
X009870Y002396D01*
X009926Y002451D01*
X009979Y002398D01*
X010083Y002355D01*
X010102Y002355D01*
X009980Y002233D01*
X009980Y002067D01*
X009980Y001894D01*
X009970Y001904D01*
X009860Y001950D01*
X009740Y001950D01*
X009630Y001904D01*
X009546Y001820D01*
X009510Y001735D01*
X009422Y001872D02*
X009597Y001872D01*
X009324Y001970D02*
X009980Y001970D01*
X009980Y002069D02*
X009154Y002069D01*
X009331Y002167D02*
X009980Y002167D01*
X010013Y002266D02*
X009429Y002266D01*
X009497Y002364D02*
X009607Y002364D01*
X009793Y002364D02*
X010062Y002364D01*
X010140Y002640D02*
X010150Y002650D01*
X010600Y002650D01*
X010750Y002800D01*
X010750Y003350D01*
X011790Y004340D01*
X013530Y004340D01*
X013620Y004350D01*
X014560Y004350D01*
X014715Y004235D01*
X015541Y004235D01*
X015541Y004038D02*
X014562Y004038D01*
X014410Y004140D01*
X011840Y004140D01*
X011200Y003500D01*
X011840Y003750D02*
X011840Y003150D01*
X011960Y003040D01*
X014660Y003040D01*
X015068Y003448D01*
X015541Y003448D01*
X015541Y003645D02*
X014739Y003645D01*
X014410Y003316D01*
X014760Y002840D02*
X015171Y003251D01*
X015541Y003251D01*
X014760Y002840D02*
X014760Y002640D01*
X014560Y002440D01*
X011610Y002440D01*
X011710Y002640D02*
X011710Y002997D01*
X011757Y002950D01*
X011762Y002950D01*
X011822Y002896D01*
X011877Y002840D01*
X011882Y002840D01*
X011886Y002837D01*
X011964Y002840D01*
X012453Y002840D01*
X012453Y002783D01*
X012741Y002783D01*
X012741Y002746D01*
X012453Y002746D01*
X012453Y002640D01*
X011710Y002640D01*
X011710Y002660D02*
X012453Y002660D01*
X012741Y002758D02*
X011710Y002758D01*
X011710Y002857D02*
X011861Y002857D01*
X011752Y002955D02*
X011710Y002955D01*
X012779Y002783D02*
X013291Y002783D01*
X013291Y002746D01*
X013003Y002746D01*
X012779Y002746D01*
X012779Y002783D01*
X012779Y002758D02*
X013291Y002758D01*
X013329Y002758D02*
X013841Y002758D01*
X013841Y002746D02*
X013617Y002746D01*
X013329Y002746D01*
X013329Y002783D01*
X013841Y002783D01*
X013841Y002746D01*
X013879Y002746D02*
X013879Y002783D01*
X014103Y002783D01*
X014391Y002783D01*
X014391Y002746D01*
X013879Y002746D01*
X013879Y002758D02*
X014391Y002758D01*
X015198Y002266D02*
X015668Y002266D01*
X015668Y002364D02*
X015297Y002364D01*
X015395Y002463D02*
X015668Y002463D01*
X015668Y002561D02*
X015450Y002561D01*
X015877Y002521D02*
X015877Y002077D01*
X015050Y001350D01*
X015050Y001150D01*
X014779Y001281D02*
X010600Y001281D01*
X010600Y001379D02*
X014850Y001379D01*
X014892Y001478D02*
X010600Y001478D01*
X010600Y001576D02*
X015004Y001576D01*
X015116Y001675D02*
X014607Y001675D01*
X014706Y001773D02*
X015228Y001773D01*
X015340Y001872D02*
X014804Y001872D01*
X014903Y001970D02*
X015452Y001970D01*
X015564Y002069D02*
X015001Y002069D01*
X015100Y002167D02*
X015676Y002167D01*
X016074Y001974D02*
X015400Y001350D01*
X015400Y000550D01*
X015133Y000690D02*
X010472Y000690D01*
X010571Y000788D02*
X015200Y000788D01*
X015198Y000887D02*
X015200Y000887D01*
X014902Y000887D02*
X010600Y000887D01*
X010600Y000985D02*
X014794Y000985D01*
X014753Y001084D02*
X010600Y001084D01*
X010600Y001182D02*
X014750Y001182D01*
X015100Y000591D02*
X010374Y000591D01*
X010275Y000493D02*
X015100Y000493D01*
X015140Y000394D02*
X010177Y000394D01*
X009870Y000700D02*
X010180Y001010D01*
X010180Y001650D01*
X009980Y001406D02*
X009980Y001093D01*
X009787Y000900D01*
X009314Y000900D01*
X009476Y001062D01*
X009577Y001307D01*
X009577Y001448D01*
X009630Y001396D01*
X009740Y001350D01*
X009860Y001350D01*
X009970Y001396D01*
X009980Y001406D01*
X009980Y001379D02*
X009930Y001379D01*
X009980Y001281D02*
X009566Y001281D01*
X009577Y001379D02*
X009670Y001379D01*
X009526Y001182D02*
X009980Y001182D01*
X009971Y001084D02*
X009485Y001084D01*
X009399Y000985D02*
X009872Y000985D01*
X009870Y000700D02*
X008220Y000700D01*
X008180Y000740D01*
X008180Y001650D01*
X007910Y001920D01*
X007910Y001940D01*
X007410Y001940D02*
X007240Y001770D01*
X007240Y000920D01*
X007020Y000700D01*
X005750Y000700D01*
X005600Y000850D01*
X005600Y005500D01*
X006340Y006240D01*
X007075Y006240D01*
X007100Y006265D01*
X007100Y006450D01*
X007100Y006600D01*
X007100Y009200D01*
X007424Y009524D01*
X007450Y009550D01*
X007424Y009524D02*
X007410Y009524D01*
X007108Y009850D02*
X005546Y009850D01*
X005585Y009949D02*
X007103Y009949D01*
X007103Y010047D02*
X005585Y010047D01*
X005548Y010146D02*
X007103Y010146D01*
X007410Y010056D02*
X008010Y010056D01*
X007960Y010035D01*
X008267Y010047D02*
X008303Y010047D01*
X008303Y009949D02*
X008267Y009949D01*
X008267Y009850D02*
X008303Y009850D01*
X008303Y009806D02*
X008370Y009738D01*
X008360Y009732D01*
X008332Y009704D01*
X008313Y009670D01*
X008303Y009632D01*
X008303Y009493D01*
X008591Y009493D01*
X008591Y009455D01*
X008629Y009455D01*
X008629Y009186D01*
X008787Y009186D01*
X008825Y009197D01*
X008860Y009216D01*
X008888Y009244D01*
X008907Y009279D01*
X008909Y009284D01*
X008913Y009269D01*
X008932Y009235D01*
X008960Y009207D01*
X008995Y009187D01*
X009033Y009177D01*
X009191Y009177D01*
X009191Y009446D01*
X008917Y009446D01*
X008917Y009455D01*
X008629Y009455D01*
X008629Y009493D01*
X008903Y009493D01*
X008903Y009483D01*
X009191Y009483D01*
X009191Y009446D01*
X009229Y009446D01*
X009229Y009177D01*
X009387Y009177D01*
X009425Y009187D01*
X009460Y009207D01*
X009488Y009235D01*
X009507Y009269D01*
X009510Y009279D01*
X009510Y009164D01*
X009456Y009110D01*
X009410Y009000D01*
X009410Y008880D01*
X009456Y008770D01*
X009500Y008726D01*
X009500Y008583D01*
X009305Y008778D01*
X009305Y008837D01*
X009262Y008941D01*
X009181Y009022D01*
X009077Y009065D01*
X008963Y009065D01*
X008859Y009022D01*
X008778Y008941D01*
X008735Y008837D01*
X008735Y008723D01*
X008778Y008619D01*
X008859Y008538D01*
X008963Y008495D01*
X009022Y008495D01*
X009280Y008237D01*
X009280Y006900D01*
X008367Y006900D01*
X008267Y006800D01*
X008150Y006683D01*
X008150Y006547D01*
X008134Y006547D01*
X008091Y006504D01*
X008091Y006519D01*
X008004Y006607D01*
X008000Y006607D01*
X008000Y006876D01*
X008054Y006930D01*
X008100Y007040D01*
X008100Y007160D01*
X008054Y007270D01*
X007970Y007354D01*
X007860Y007400D01*
X007740Y007400D01*
X007630Y007354D01*
X007546Y007270D01*
X007500Y007160D01*
X007500Y007040D01*
X007546Y006930D01*
X007600Y006876D01*
X007600Y006607D01*
X007486Y006607D01*
X007410Y006531D01*
X007334Y006607D01*
X007300Y006607D01*
X007300Y009117D01*
X007419Y009236D01*
X007630Y009236D01*
X007653Y009259D01*
X007652Y009259D01*
X007653Y009259D02*
X007653Y009225D01*
X007740Y009137D01*
X007760Y009137D01*
X007760Y008523D01*
X007718Y008481D01*
X007675Y008377D01*
X007675Y008263D01*
X007718Y008159D01*
X007799Y008078D01*
X007903Y008035D01*
X008017Y008035D01*
X008121Y008078D01*
X008202Y008159D01*
X008245Y008263D01*
X008245Y008377D01*
X008202Y008481D01*
X008160Y008523D01*
X008160Y009137D01*
X008180Y009137D01*
X008267Y009225D01*
X008267Y009664D01*
X008192Y009740D01*
X008267Y009816D01*
X008267Y010255D01*
X008180Y010343D01*
X007740Y010343D01*
X007685Y010288D01*
X007630Y010344D01*
X007403Y010344D01*
X007463Y010404D01*
X007551Y010615D01*
X007551Y010844D01*
X007463Y011055D01*
X007428Y011090D01*
X008492Y011090D01*
X008457Y011055D01*
X008369Y010844D01*
X008369Y010615D01*
X008457Y010404D01*
X008567Y010294D01*
X008390Y010294D01*
X008303Y010206D01*
X008303Y009806D01*
X008357Y009752D02*
X008203Y009752D01*
X008267Y009653D02*
X008308Y009653D01*
X008303Y009555D02*
X008267Y009555D01*
X008267Y009456D02*
X008591Y009456D01*
X008591Y009455D02*
X008303Y009455D01*
X008303Y009317D01*
X008313Y009279D01*
X008332Y009244D01*
X008360Y009216D01*
X008395Y009197D01*
X008433Y009186D01*
X008591Y009186D01*
X008591Y009455D01*
X008629Y009456D02*
X009191Y009456D01*
X009191Y009358D02*
X009229Y009358D01*
X009229Y009259D02*
X009191Y009259D01*
X009084Y009062D02*
X009436Y009062D01*
X009410Y008964D02*
X009240Y008964D01*
X009293Y008865D02*
X009416Y008865D01*
X009459Y008767D02*
X009316Y008767D01*
X009415Y008668D02*
X009500Y008668D01*
X009480Y008350D02*
X009450Y008350D01*
X009020Y008780D01*
X008758Y008668D02*
X008160Y008668D01*
X008160Y008570D02*
X008827Y008570D01*
X008735Y008767D02*
X008160Y008767D01*
X008160Y008865D02*
X008747Y008865D01*
X008800Y008964D02*
X008160Y008964D01*
X008160Y009062D02*
X008956Y009062D01*
X008918Y009259D02*
X008896Y009259D01*
X008629Y009259D02*
X008591Y009259D01*
X008591Y009358D02*
X008629Y009358D01*
X008324Y009259D02*
X008267Y009259D01*
X008267Y009358D02*
X008303Y009358D01*
X008203Y009161D02*
X009506Y009161D01*
X009502Y009259D02*
X009510Y009259D01*
X009710Y008940D02*
X009700Y008930D01*
X009700Y006900D01*
X009900Y006700D01*
X011750Y006700D01*
X011900Y006850D01*
X012800Y007650D01*
X014100Y007650D01*
X014100Y006016D01*
X014300Y006304D02*
X014300Y007733D01*
X014183Y007850D01*
X012806Y007850D01*
X012729Y007855D01*
X012724Y007850D01*
X012717Y007850D01*
X012663Y007796D01*
X011824Y007050D01*
X011817Y007050D01*
X011795Y007028D01*
X011795Y007047D01*
X011752Y007151D01*
X011710Y007193D01*
X011710Y009040D01*
X013193Y009040D01*
X013290Y009137D01*
X013330Y009137D01*
X013417Y009225D01*
X013417Y009664D01*
X013342Y009740D01*
X013417Y009816D01*
X013417Y010255D01*
X013330Y010343D01*
X012890Y010343D01*
X012810Y010263D01*
X012730Y010344D01*
X012553Y010344D01*
X012613Y010404D01*
X012701Y010615D01*
X012701Y010844D01*
X012613Y011055D01*
X012578Y011090D01*
X013642Y011090D01*
X013607Y011055D01*
X013519Y010844D01*
X013519Y010615D01*
X013607Y010404D01*
X013707Y010303D01*
X013590Y010303D01*
X013503Y010216D01*
X013503Y009816D01*
X013583Y009735D01*
X013560Y009722D01*
X013532Y009694D01*
X013513Y009660D01*
X013503Y009622D01*
X013503Y009483D01*
X013791Y009483D01*
X013791Y009446D01*
X013503Y009446D01*
X013503Y009307D01*
X013513Y009269D01*
X013532Y009235D01*
X013560Y009207D01*
X013595Y009187D01*
X013633Y009177D01*
X013791Y009177D01*
X013791Y009446D01*
X013829Y009446D01*
X013829Y009483D01*
X014117Y009483D01*
X014117Y009493D01*
X014391Y009493D01*
X014391Y009455D01*
X014429Y009455D01*
X014429Y009186D01*
X014587Y009186D01*
X014620Y009195D01*
X014620Y009164D01*
X014566Y009110D01*
X014520Y009000D01*
X014520Y008923D01*
X014450Y008853D01*
X014450Y006304D01*
X014300Y006304D01*
X014320Y006304D01*
X014375Y006248D01*
X014430Y006304D01*
X014450Y006304D01*
X014450Y006403D02*
X014300Y006403D01*
X014300Y006501D02*
X014450Y006501D01*
X014450Y006600D02*
X014300Y006600D01*
X014300Y006698D02*
X014450Y006698D01*
X014450Y006797D02*
X014300Y006797D01*
X014300Y006895D02*
X014450Y006895D01*
X014450Y006994D02*
X014300Y006994D01*
X014300Y007092D02*
X014450Y007092D01*
X014450Y007191D02*
X014300Y007191D01*
X014300Y007289D02*
X014450Y007289D01*
X014450Y007388D02*
X014300Y007388D01*
X014300Y007486D02*
X014450Y007486D01*
X014450Y007585D02*
X014300Y007585D01*
X014300Y007683D02*
X014450Y007683D01*
X014450Y007782D02*
X014251Y007782D01*
X014450Y007880D02*
X011710Y007880D01*
X011710Y007782D02*
X012647Y007782D01*
X012536Y007683D02*
X011710Y007683D01*
X011710Y007585D02*
X012425Y007585D01*
X012314Y007486D02*
X011710Y007486D01*
X011710Y007388D02*
X012204Y007388D01*
X012093Y007289D02*
X011710Y007289D01*
X011713Y007191D02*
X011982Y007191D01*
X011871Y007092D02*
X011776Y007092D01*
X011510Y006990D02*
X011510Y009140D01*
X011610Y009240D01*
X013110Y009240D01*
X013110Y009445D01*
X013417Y009456D02*
X013791Y009456D01*
X013829Y009456D02*
X014391Y009456D01*
X014391Y009455D02*
X014103Y009455D01*
X014103Y009446D01*
X013829Y009446D01*
X013829Y009177D01*
X013987Y009177D01*
X014025Y009187D01*
X014060Y009207D01*
X014088Y009235D01*
X014107Y009269D01*
X014111Y009284D01*
X014113Y009279D01*
X014132Y009244D01*
X014160Y009216D01*
X014195Y009197D01*
X014233Y009186D01*
X014391Y009186D01*
X014391Y009455D01*
X014391Y009358D02*
X014429Y009358D01*
X014429Y009259D02*
X014391Y009259D01*
X014616Y009161D02*
X013353Y009161D01*
X013417Y009259D02*
X013518Y009259D01*
X013503Y009358D02*
X013417Y009358D01*
X013417Y009555D02*
X013503Y009555D01*
X013511Y009653D02*
X013417Y009653D01*
X013353Y009752D02*
X013567Y009752D01*
X013503Y009850D02*
X013417Y009850D01*
X013417Y009949D02*
X013503Y009949D01*
X013503Y010047D02*
X013417Y010047D01*
X013417Y010146D02*
X013503Y010146D01*
X013531Y010244D02*
X013417Y010244D01*
X013330Y010343D02*
X013668Y010343D01*
X013591Y010441D02*
X012629Y010441D01*
X012669Y010540D02*
X013551Y010540D01*
X013519Y010638D02*
X012701Y010638D01*
X012701Y010737D02*
X013519Y010737D01*
X013519Y010835D02*
X012701Y010835D01*
X012664Y010934D02*
X013556Y010934D01*
X013597Y011032D02*
X012623Y011032D01*
X012126Y010729D02*
X011865Y010990D01*
X011460Y010990D01*
X010910Y010990D01*
X010910Y011290D01*
X015110Y011290D01*
X015310Y011210D02*
X015310Y010990D01*
X014710Y010990D01*
X014355Y010990D01*
X014094Y010729D01*
X014410Y010464D01*
X014410Y010006D01*
X014820Y010006D01*
X014820Y008940D01*
X014880Y009000D02*
X015800Y009000D01*
X015997Y009000D02*
X016000Y009000D01*
X016403Y008964D02*
X017734Y008964D01*
X017748Y008929D02*
X017829Y008848D01*
X017933Y008805D01*
X018047Y008805D01*
X018151Y008848D01*
X018232Y008929D01*
X018270Y009022D01*
X018335Y009087D01*
X018580Y009087D01*
X018667Y009175D01*
X018667Y009614D01*
X018592Y009690D01*
X018667Y009766D01*
X018667Y010205D01*
X018580Y010293D01*
X018140Y010293D01*
X018060Y010213D01*
X017980Y010294D01*
X017753Y010294D01*
X017863Y010404D01*
X017951Y010615D01*
X017951Y010844D01*
X017914Y010934D02*
X018806Y010934D01*
X018847Y011032D02*
X017873Y011032D01*
X017951Y010638D02*
X018769Y010638D01*
X018801Y010540D02*
X017919Y010540D01*
X017879Y010441D02*
X018841Y010441D01*
X018918Y010343D02*
X017802Y010343D01*
X018029Y010244D02*
X018092Y010244D01*
X018360Y009985D02*
X017780Y009985D01*
X017760Y010006D01*
X017453Y010047D02*
X016400Y010047D01*
X016400Y009949D02*
X017453Y009949D01*
X017453Y009850D02*
X016403Y009850D01*
X016403Y009752D02*
X017047Y009752D01*
X016999Y009732D02*
X016918Y009651D01*
X016875Y009547D01*
X016875Y009433D01*
X016918Y009329D01*
X016999Y009248D01*
X017103Y009205D01*
X017217Y009205D01*
X017321Y009248D01*
X017333Y009260D01*
X017467Y009260D01*
X017540Y009186D01*
X017721Y009186D01*
X017705Y009147D01*
X017705Y009033D01*
X017748Y008929D01*
X017812Y008865D02*
X016403Y008865D01*
X016403Y008767D02*
X019324Y008767D01*
X019422Y008865D02*
X018168Y008865D01*
X018246Y008964D02*
X019521Y008964D01*
X019619Y009062D02*
X018310Y009062D01*
X017990Y009090D02*
X017990Y009025D01*
X018360Y009395D01*
X018667Y009358D02*
X018703Y009358D01*
X018703Y009405D02*
X018703Y009267D01*
X018713Y009229D01*
X018732Y009194D01*
X018760Y009166D01*
X018795Y009147D01*
X018833Y009136D01*
X018991Y009136D01*
X018991Y009405D01*
X018703Y009405D01*
X018703Y009456D02*
X018667Y009456D01*
X018667Y009555D02*
X018703Y009555D01*
X018732Y009653D02*
X018629Y009653D01*
X018653Y009752D02*
X018707Y009752D01*
X018703Y009850D02*
X018667Y009850D01*
X018667Y009949D02*
X018703Y009949D01*
X018703Y010047D02*
X018667Y010047D01*
X018667Y010146D02*
X018703Y010146D01*
X018628Y010244D02*
X019016Y010244D01*
X019010Y009956D02*
X019610Y009956D01*
X019610Y009966D01*
X019810Y010253D02*
X019810Y010382D01*
X019832Y010404D01*
X019919Y010615D01*
X019919Y010790D01*
X020643Y010790D01*
X020760Y010907D01*
X020760Y015173D01*
X020643Y015290D01*
X019797Y015290D01*
X019832Y015325D01*
X019919Y015536D01*
X019919Y015765D01*
X019832Y015976D01*
X019670Y016138D01*
X019459Y016226D01*
X019230Y016226D01*
X019019Y016138D01*
X018857Y015976D01*
X018769Y015765D01*
X018769Y015536D01*
X018857Y015325D01*
X018892Y015290D01*
X017828Y015290D01*
X017863Y015325D01*
X017951Y015536D01*
X017951Y015765D01*
X017863Y015976D01*
X017701Y016138D01*
X017490Y016226D01*
X017261Y016226D01*
X017050Y016138D01*
X016888Y015976D01*
X016801Y015765D01*
X016801Y015536D01*
X016888Y015325D01*
X016923Y015290D01*
X016077Y015290D01*
X015960Y015173D01*
X015960Y015007D01*
X015977Y014990D01*
X015960Y014973D01*
X015960Y010907D01*
X016077Y010790D01*
X016801Y010790D01*
X016801Y010615D01*
X016888Y010404D01*
X017050Y010242D01*
X017261Y010154D01*
X017453Y010154D01*
X017453Y009806D01*
X017518Y009740D01*
X017498Y009720D01*
X017333Y009720D01*
X017321Y009732D01*
X017217Y009775D01*
X017103Y009775D01*
X016999Y009732D01*
X016920Y009653D02*
X016403Y009653D01*
X016403Y009555D02*
X016878Y009555D01*
X016875Y009456D02*
X016403Y009456D01*
X016383Y009358D02*
X016906Y009358D01*
X016988Y009259D02*
X016401Y009259D01*
X016403Y009161D02*
X017711Y009161D01*
X017705Y009062D02*
X016403Y009062D01*
X016394Y008668D02*
X019225Y008668D01*
X019127Y008570D02*
X016394Y008570D01*
X016394Y008471D02*
X019028Y008471D01*
X019298Y008176D02*
X019803Y008176D01*
X019803Y008274D02*
X019397Y008274D01*
X019495Y008373D02*
X019860Y008373D01*
X019830Y008471D02*
X019594Y008471D01*
X019692Y008570D02*
X019825Y008570D01*
X019855Y008668D02*
X019791Y008668D01*
X019865Y008742D02*
X019869Y008743D01*
X019923Y008801D01*
X019980Y008857D01*
X019980Y008861D01*
X020102Y008990D01*
X020170Y008990D01*
X020280Y009036D01*
X020364Y009120D01*
X020410Y009230D01*
X020410Y009350D01*
X020364Y009460D01*
X020310Y009514D01*
X020310Y010048D01*
X020193Y010166D01*
X019917Y010166D01*
X019830Y010253D01*
X019810Y010253D01*
X019839Y010244D02*
X024340Y010244D01*
X024340Y010146D02*
X020213Y010146D01*
X020310Y010047D02*
X024340Y010047D01*
X024340Y009949D02*
X020310Y009949D01*
X020310Y009850D02*
X024340Y009850D01*
X024340Y009752D02*
X020310Y009752D01*
X020310Y009653D02*
X024340Y009653D01*
X024340Y009555D02*
X020310Y009555D01*
X020366Y009456D02*
X024340Y009456D01*
X024340Y009358D02*
X020407Y009358D01*
X020410Y009259D02*
X024340Y009259D01*
X024340Y009161D02*
X020381Y009161D01*
X020306Y009062D02*
X024340Y009062D01*
X024340Y008964D02*
X020077Y008964D01*
X019984Y008865D02*
X024340Y008865D01*
X024340Y008767D02*
X020287Y008767D01*
X020365Y008668D02*
X024340Y008668D01*
X024340Y008570D02*
X024184Y008570D01*
X024178Y008580D02*
X024150Y008608D01*
X024116Y008627D01*
X024077Y008638D01*
X023645Y008638D01*
X023645Y008164D01*
X023545Y008164D01*
X023545Y008638D01*
X023113Y008638D01*
X023075Y008627D01*
X023040Y008608D01*
X023012Y008580D01*
X022993Y008546D01*
X022982Y008507D01*
X022982Y008164D01*
X023545Y008164D01*
X023545Y008064D01*
X022982Y008064D01*
X022982Y007720D01*
X022993Y007682D01*
X023012Y007648D01*
X023040Y007620D01*
X023075Y007600D01*
X023113Y007590D01*
X023317Y007590D01*
X023317Y007140D01*
X023712Y007140D01*
X023712Y007040D01*
X023812Y007040D01*
X023812Y007140D01*
X024208Y007140D01*
X024208Y008064D01*
X023645Y008064D01*
X023645Y008164D01*
X024208Y008164D01*
X024208Y008507D01*
X024197Y008546D01*
X024178Y008580D01*
X024208Y008471D02*
X024340Y008471D01*
X024340Y008373D02*
X024208Y008373D01*
X024208Y008274D02*
X024340Y008274D01*
X024340Y008176D02*
X024208Y008176D01*
X024340Y008077D02*
X023645Y008077D01*
X023645Y008064D02*
X023645Y007909D01*
X023545Y007909D01*
X023545Y008064D01*
X023645Y008064D01*
X023645Y007979D02*
X023545Y007979D01*
X023545Y008077D02*
X021775Y008077D01*
X021775Y008064D02*
X021775Y007909D01*
X021675Y007909D01*
X021675Y008064D01*
X021775Y008064D01*
X021775Y007979D02*
X021675Y007979D01*
X021675Y008077D02*
X020417Y008077D01*
X020417Y007979D02*
X021112Y007979D01*
X021112Y007880D02*
X020382Y007880D01*
X020400Y007782D02*
X021112Y007782D01*
X021112Y007683D02*
X020417Y007683D01*
X020417Y007585D02*
X021112Y007585D01*
X021112Y007486D02*
X020417Y007486D01*
X020417Y007388D02*
X021112Y007388D01*
X021112Y007289D02*
X020944Y007289D01*
X020943Y007290D02*
X020915Y007318D01*
X020881Y007337D01*
X020843Y007347D01*
X020704Y007347D01*
X020704Y007059D01*
X020973Y007059D01*
X020973Y007217D01*
X020963Y007255D01*
X020943Y007290D01*
X020973Y007191D02*
X021112Y007191D01*
X020973Y007092D02*
X021508Y007092D01*
X021608Y007092D02*
X022169Y007092D01*
X022169Y006994D02*
X022003Y006994D01*
X022003Y006895D02*
X022210Y006895D01*
X022260Y006797D02*
X022003Y006797D01*
X022003Y006698D02*
X022275Y006698D01*
X022275Y006600D02*
X022003Y006600D01*
X021112Y006600D02*
X020973Y006600D01*
X020965Y006698D02*
X021112Y006698D01*
X021112Y006797D02*
X020947Y006797D01*
X020973Y006895D02*
X021112Y006895D01*
X021112Y006994D02*
X020973Y006994D01*
X020704Y006994D02*
X020667Y006994D01*
X020667Y007092D02*
X020704Y007092D01*
X020704Y007191D02*
X020667Y007191D01*
X020667Y007289D02*
X020704Y007289D01*
X020427Y007289D02*
X020393Y007289D01*
X019803Y007388D02*
X017616Y007388D01*
X017701Y007289D02*
X018926Y007289D01*
X018897Y007191D02*
X017735Y007191D01*
X017734Y007092D02*
X018897Y007092D01*
X018897Y006994D02*
X017694Y006994D01*
X017652Y006895D02*
X018897Y006895D01*
X018923Y006797D02*
X018007Y006797D01*
X018068Y006698D02*
X018905Y006698D01*
X018897Y006600D02*
X018085Y006600D01*
X018067Y006501D02*
X019166Y006501D01*
X019166Y006403D02*
X019203Y006403D01*
X019203Y006304D02*
X019166Y006304D01*
X019166Y006206D02*
X019203Y006206D01*
X019203Y006107D02*
X019166Y006107D01*
X019166Y006009D02*
X019203Y006009D01*
X019203Y005910D02*
X019166Y005910D01*
X019166Y005812D02*
X019203Y005812D01*
X019203Y005713D02*
X019166Y005713D01*
X019071Y005615D02*
X019480Y005615D01*
X019454Y005516D02*
X019110Y005516D01*
X019110Y005418D02*
X019425Y005418D01*
X019356Y005319D02*
X019076Y005319D01*
X019214Y005221D02*
X019258Y005221D01*
X018980Y005030D02*
X018776Y004826D01*
X018379Y004826D01*
X018379Y005023D02*
X018623Y005023D01*
X018700Y005100D01*
X018700Y005350D01*
X018810Y005460D01*
X018549Y005615D02*
X018252Y005615D01*
X018252Y005516D02*
X018510Y005516D01*
X018500Y005418D02*
X018252Y005418D01*
X018252Y005319D02*
X018500Y005319D01*
X018043Y005359D02*
X018043Y005743D01*
X018500Y006150D01*
X018766Y006009D02*
X018897Y006009D01*
X018897Y006107D02*
X018800Y006107D01*
X018800Y006206D02*
X018943Y006206D01*
X018899Y006304D02*
X018761Y006304D01*
X018672Y006403D02*
X018897Y006403D01*
X019166Y006600D02*
X019203Y006600D01*
X019203Y006698D02*
X019166Y006698D01*
X019166Y006797D02*
X019203Y006797D01*
X019203Y006895D02*
X019166Y006895D01*
X019166Y006994D02*
X019203Y006994D01*
X019203Y007092D02*
X019166Y007092D01*
X019166Y007191D02*
X019203Y007191D01*
X019203Y007289D02*
X019166Y007289D01*
X019443Y007289D02*
X019477Y007289D01*
X019736Y007040D02*
X019760Y007064D01*
X019803Y007486D02*
X015400Y007486D01*
X015400Y007388D02*
X017284Y007388D01*
X017199Y007289D02*
X015400Y007289D01*
X015400Y007191D02*
X017165Y007191D01*
X017166Y007092D02*
X015400Y007092D01*
X015400Y006994D02*
X016181Y006994D01*
X016182Y006995D02*
X016163Y006961D01*
X016153Y006923D01*
X016153Y006784D01*
X016441Y006784D01*
X016441Y007053D01*
X016283Y007053D01*
X016245Y007043D01*
X016210Y007023D01*
X016182Y006995D01*
X016153Y006895D02*
X015400Y006895D01*
X015400Y006797D02*
X016153Y006797D01*
X016153Y006698D02*
X015400Y006698D01*
X015400Y006600D02*
X016155Y006600D01*
X016222Y006501D02*
X015400Y006501D01*
X015400Y006403D02*
X015929Y006403D01*
X015400Y006304D02*
X015400Y007817D01*
X015643Y008060D01*
X019183Y008060D01*
X019865Y008742D01*
X019891Y008767D02*
X019933Y008767D01*
X020395Y008570D02*
X021136Y008570D01*
X021112Y008471D02*
X020390Y008471D01*
X020360Y008373D02*
X021112Y008373D01*
X021112Y008274D02*
X020417Y008274D01*
X020417Y008176D02*
X021112Y008176D01*
X021675Y008176D02*
X021775Y008176D01*
X021775Y008164D02*
X021775Y008638D01*
X022207Y008638D01*
X022245Y008627D01*
X022280Y008608D01*
X022308Y008580D01*
X022327Y008546D01*
X022338Y008507D01*
X022338Y008164D01*
X021775Y008164D01*
X021775Y008274D02*
X021675Y008274D01*
X021675Y008373D02*
X021775Y008373D01*
X021775Y008471D02*
X021675Y008471D01*
X021675Y008570D02*
X021775Y008570D01*
X022313Y008570D02*
X023007Y008570D01*
X022982Y008471D02*
X022338Y008471D01*
X022338Y008373D02*
X022982Y008373D01*
X022982Y008274D02*
X022338Y008274D01*
X022338Y008176D02*
X022982Y008176D01*
X022982Y007979D02*
X022338Y007979D01*
X022338Y007880D02*
X022982Y007880D01*
X022982Y007782D02*
X022338Y007782D01*
X022328Y007683D02*
X022992Y007683D01*
X022958Y007486D02*
X023317Y007486D01*
X023317Y007388D02*
X023056Y007388D01*
X023109Y007289D02*
X023317Y007289D01*
X023317Y007191D02*
X023149Y007191D01*
X023151Y007092D02*
X023712Y007092D01*
X023712Y006994D02*
X023812Y006994D01*
X023812Y007092D02*
X024340Y007092D01*
X024340Y006994D02*
X024208Y006994D01*
X024208Y006895D02*
X024340Y006895D01*
X024340Y006797D02*
X024208Y006797D01*
X024208Y006698D02*
X024340Y006698D01*
X024340Y006600D02*
X024208Y006600D01*
X024208Y006501D02*
X024340Y006501D01*
X024340Y006403D02*
X024208Y006403D01*
X024208Y006304D02*
X024340Y006304D01*
X024340Y006206D02*
X024208Y006206D01*
X024340Y006107D02*
X023645Y006107D01*
X023645Y006009D02*
X023545Y006009D01*
X023545Y005910D02*
X023645Y005910D01*
X023645Y005812D02*
X023545Y005812D01*
X023545Y005713D02*
X023645Y005713D01*
X023645Y005615D02*
X023545Y005615D01*
X023387Y005418D02*
X024340Y005418D01*
X024340Y005516D02*
X023288Y005516D01*
X023485Y005319D02*
X024340Y005319D01*
X024340Y005221D02*
X023584Y005221D01*
X023682Y005122D02*
X024340Y005122D01*
X024340Y005024D02*
X023755Y005024D01*
X023795Y004925D02*
X024340Y004925D01*
X024340Y004827D02*
X023795Y004827D01*
X023776Y004728D02*
X024340Y004728D01*
X024340Y004630D02*
X023767Y004630D01*
X023743Y004531D02*
X024340Y004531D01*
X024340Y004433D02*
X023759Y004433D01*
X023767Y004334D02*
X024340Y004334D01*
X024340Y004236D02*
X023767Y004236D01*
X023875Y004137D02*
X023945Y004137D01*
X023153Y004137D02*
X023125Y004137D01*
X023153Y004236D02*
X020905Y004236D01*
X020898Y004334D02*
X023153Y004334D01*
X023161Y004433D02*
X020797Y004433D01*
X020833Y004533D02*
X020695Y004533D01*
X020695Y004821D01*
X020964Y004821D01*
X020964Y004663D01*
X020953Y004625D01*
X020934Y004590D01*
X020906Y004562D01*
X020871Y004543D01*
X020833Y004533D01*
X020955Y004630D02*
X023086Y004630D01*
X023177Y004531D02*
X019513Y004531D01*
X019551Y004433D02*
X019403Y004433D01*
X019110Y004440D02*
X018387Y004440D01*
X018379Y004432D01*
X018379Y004235D02*
X018615Y004235D01*
X018860Y004190D01*
X018810Y004190D02*
X018710Y004140D01*
X018608Y004038D01*
X018379Y004038D01*
X018379Y003842D02*
X019062Y003842D01*
X018810Y003640D02*
X018284Y003640D01*
X018379Y003645D01*
X018379Y003448D02*
X018387Y003440D01*
X018660Y003440D01*
X018849Y003251D01*
X018379Y003251D01*
X018379Y003054D02*
X018696Y003054D01*
X019110Y002640D01*
X019110Y002218D01*
X019060Y002168D01*
X019157Y002266D01*
X019781Y002561D02*
X021803Y002561D01*
X021882Y002594D02*
X021664Y002503D01*
X021497Y002336D01*
X021406Y002118D01*
X021406Y001882D01*
X021497Y001664D01*
X021664Y001497D01*
X021882Y001406D01*
X022118Y001406D01*
X022336Y001497D01*
X022503Y001664D01*
X022594Y001882D01*
X022594Y002118D01*
X022503Y002336D01*
X022336Y002503D01*
X022118Y002594D01*
X021882Y002594D01*
X021623Y002463D02*
X020170Y002463D01*
X020217Y002364D02*
X021524Y002364D01*
X021467Y002266D02*
X020217Y002266D01*
X020217Y002167D02*
X021427Y002167D01*
X021406Y002069D02*
X020217Y002069D01*
X020172Y001970D02*
X021406Y001970D01*
X021411Y001872D02*
X020201Y001872D01*
X020217Y001773D02*
X021451Y001773D01*
X021492Y001675D02*
X019929Y001675D01*
X019929Y001646D02*
X019929Y001234D01*
X019891Y001234D01*
X019891Y001197D01*
X019603Y001197D01*
X019603Y001188D01*
X019595Y001196D01*
X018579Y001196D01*
X018579Y001684D01*
X019595Y001684D01*
X019603Y001692D01*
X019603Y001683D01*
X019891Y001683D01*
X019891Y001646D01*
X019603Y001646D01*
X019603Y001507D01*
X019613Y001469D01*
X019629Y001440D01*
X019613Y001411D01*
X019603Y001373D01*
X019603Y001234D01*
X019891Y001234D01*
X019891Y001503D01*
X019891Y001646D01*
X019929Y001646D01*
X019891Y001675D02*
X018579Y001675D01*
X018579Y001576D02*
X019603Y001576D01*
X019610Y001478D02*
X018579Y001478D01*
X018579Y001379D02*
X019604Y001379D01*
X019603Y001281D02*
X018579Y001281D01*
X018379Y000921D02*
X018851Y000921D01*
X019060Y000712D02*
X019107Y000664D01*
X019663Y000296D02*
X024340Y000296D01*
X024340Y000394D02*
X020147Y000394D01*
X020217Y000493D02*
X023345Y000493D01*
X023358Y000484D02*
X023412Y000462D01*
X023470Y000450D01*
X023475Y000450D01*
X023475Y000725D01*
X023525Y000725D01*
X023525Y000775D01*
X023475Y000775D01*
X023475Y001050D01*
X023470Y001050D01*
X023412Y001038D01*
X023358Y001016D01*
X023309Y000983D01*
X023267Y000941D01*
X023234Y000892D01*
X023212Y000838D01*
X023200Y000780D01*
X023200Y000775D01*
X023475Y000775D01*
X023475Y000725D01*
X023200Y000725D01*
X023200Y000720D01*
X023212Y000662D01*
X023234Y000608D01*
X023267Y000559D01*
X023309Y000517D01*
X023358Y000484D01*
X023475Y000493D02*
X023525Y000493D01*
X023525Y000450D02*
X023530Y000450D01*
X023588Y000462D01*
X023642Y000484D01*
X023691Y000517D01*
X023733Y000559D01*
X023766Y000608D01*
X023788Y000662D01*
X023800Y000720D01*
X023800Y000725D01*
X023525Y000725D01*
X023525Y000450D01*
X023655Y000493D02*
X024340Y000493D01*
X024340Y000591D02*
X023755Y000591D01*
X023794Y000690D02*
X024340Y000690D01*
X024360Y000740D02*
X023810Y000740D01*
X023810Y001940D01*
X024360Y001940D01*
X024360Y000740D01*
X024360Y000788D02*
X023810Y000788D01*
X023798Y000788D02*
X023876Y000788D01*
X023800Y000780D02*
X023788Y000838D01*
X023766Y000892D01*
X023733Y000941D01*
X023691Y000983D01*
X023642Y001016D01*
X023588Y001038D01*
X023530Y001050D01*
X023525Y001050D01*
X023525Y000775D01*
X023800Y000775D01*
X023800Y000780D01*
X023810Y000887D02*
X024360Y000887D01*
X024360Y000985D02*
X023810Y000985D01*
X023763Y000985D02*
X023688Y000985D01*
X023763Y001084D02*
X020217Y001084D01*
X020217Y001182D02*
X023763Y001182D01*
X023810Y001182D02*
X024360Y001182D01*
X024360Y001084D02*
X023810Y001084D01*
X023810Y001281D02*
X024360Y001281D01*
X024360Y001379D02*
X023810Y001379D01*
X023763Y001379D02*
X020216Y001379D01*
X020217Y001281D02*
X024067Y001281D01*
X024067Y001375D02*
X023763Y001375D01*
X023763Y001745D01*
X023774Y001784D01*
X023794Y001820D01*
X023823Y001849D01*
X023858Y001869D01*
X023898Y001880D01*
X024067Y001880D01*
X024067Y001375D01*
X024067Y001379D02*
X024164Y001379D01*
X024164Y001478D02*
X024067Y001478D01*
X024067Y001576D02*
X024164Y001576D01*
X024164Y001675D02*
X024067Y001675D01*
X024067Y001773D02*
X024164Y001773D01*
X024164Y001872D02*
X024067Y001872D01*
X023867Y001872D02*
X022589Y001872D01*
X022594Y001970D02*
X024340Y001970D01*
X024340Y002069D02*
X022594Y002069D01*
X022573Y002167D02*
X024340Y002167D01*
X024340Y002266D02*
X022533Y002266D01*
X022476Y002364D02*
X024340Y002364D01*
X024340Y002463D02*
X022377Y002463D01*
X022197Y002561D02*
X024340Y002561D01*
X024340Y002660D02*
X019933Y002660D01*
X019985Y002758D02*
X024340Y002758D01*
X024340Y002857D02*
X023181Y002857D01*
X023208Y002955D02*
X023504Y002955D01*
X023417Y003054D02*
X023208Y003054D01*
X023208Y003152D02*
X023412Y003152D01*
X023412Y003193D02*
X023660Y003193D01*
X023660Y002945D01*
X023660Y003193D01*
X023660Y003193D01*
X023660Y003193D01*
X024110Y003193D01*
X024110Y002945D01*
X024110Y003193D01*
X024110Y003193D01*
X024110Y003193D01*
X023908Y003193D01*
X023660Y003193D01*
X023660Y003193D01*
X023412Y003193D01*
X023412Y003251D02*
X023183Y003251D01*
X022960Y002955D02*
X022960Y002955D01*
X022960Y002857D02*
X022960Y002857D01*
X022610Y002857D02*
X022610Y002857D01*
X022610Y002955D02*
X022610Y002955D01*
X022389Y002857D02*
X021679Y002857D01*
X021705Y002955D02*
X022362Y002955D01*
X022362Y003054D02*
X021705Y003054D01*
X021705Y003040D02*
X021457Y003040D01*
X021457Y003040D01*
X021705Y003040D01*
X021705Y003152D02*
X022362Y003152D01*
X021565Y003288D02*
X021457Y003288D01*
X021457Y003040D01*
X021457Y003040D01*
X021457Y002792D01*
X021457Y003040D01*
X021457Y003040D01*
X021457Y003288D01*
X021339Y003288D01*
X021301Y003278D01*
X021266Y003258D01*
X021260Y003252D01*
X021224Y003288D01*
X021117Y003288D01*
X021113Y003290D01*
X020905Y003290D01*
X020905Y003386D01*
X020907Y003390D01*
X020907Y003590D01*
X021113Y003590D01*
X021117Y003592D01*
X021224Y003592D01*
X021260Y003628D01*
X021296Y003592D01*
X021403Y003592D01*
X021407Y003590D01*
X021563Y003590D01*
X021563Y003390D01*
X021565Y003386D01*
X021565Y003288D01*
X021565Y003349D02*
X020905Y003349D01*
X020907Y003448D02*
X021563Y003448D01*
X021563Y003546D02*
X020907Y003546D01*
X021457Y003251D02*
X021457Y003251D01*
X021457Y003152D02*
X021457Y003152D01*
X021457Y003054D02*
X021457Y003054D01*
X021457Y002955D02*
X021457Y002955D01*
X021457Y002857D02*
X021457Y002857D01*
X020038Y002857D02*
X019995Y002857D01*
X019971Y002955D02*
X020015Y002955D01*
X020013Y003054D02*
X019900Y003054D01*
X020013Y003152D02*
X019273Y003152D01*
X019063Y003440D02*
X019010Y003440D01*
X018810Y003640D01*
X018379Y003054D02*
X018260Y003054D01*
X018379Y002857D02*
X018379Y000921D01*
X018150Y000750D02*
X018300Y000550D01*
X018150Y000750D02*
X018150Y002200D01*
X018043Y002307D01*
X018043Y002521D01*
X017846Y002521D02*
X017846Y002254D01*
X017950Y002150D01*
X017950Y001550D01*
X017850Y001450D01*
X017850Y000550D01*
X017650Y000774D02*
X017596Y000720D01*
X017550Y000610D01*
X017550Y000490D01*
X017550Y000610D01*
X017504Y000720D01*
X017455Y000769D01*
X017455Y001892D01*
X017499Y001848D01*
X017603Y001805D01*
X017717Y001805D01*
X017750Y001819D01*
X017750Y001633D01*
X017650Y001533D01*
X017650Y000774D01*
X017650Y000788D02*
X017455Y000788D01*
X017455Y000887D02*
X017650Y000887D01*
X017650Y000985D02*
X017455Y000985D01*
X017455Y001084D02*
X017650Y001084D01*
X017650Y001182D02*
X017455Y001182D01*
X017455Y001281D02*
X017650Y001281D01*
X017650Y001379D02*
X017455Y001379D01*
X017455Y001478D02*
X017650Y001478D01*
X017693Y001576D02*
X017455Y001576D01*
X017455Y001675D02*
X017750Y001675D01*
X017750Y001773D02*
X017455Y001773D01*
X017455Y001872D02*
X017475Y001872D01*
X017660Y002090D02*
X017660Y002521D01*
X017649Y002521D01*
X017255Y002521D02*
X017255Y000555D01*
X017250Y000550D01*
X016983Y000690D02*
X016867Y000690D01*
X016900Y000591D02*
X016950Y000591D01*
X016950Y000493D02*
X016900Y000493D01*
X016860Y000394D02*
X016990Y000394D01*
X017080Y000296D02*
X016770Y000296D01*
X016600Y000550D02*
X016600Y001300D01*
X016862Y001562D01*
X016862Y002521D01*
X017058Y002521D02*
X017058Y001258D01*
X016950Y001150D01*
X016802Y000887D02*
X016800Y000887D01*
X016800Y000788D02*
X017055Y000788D01*
X017517Y000690D02*
X017583Y000690D01*
X017550Y000591D02*
X017550Y000591D01*
X017550Y000493D02*
X017550Y000493D01*
X017510Y000394D02*
X017590Y000394D01*
X017680Y000296D02*
X017420Y000296D01*
X018020Y000296D02*
X018130Y000296D01*
X016430Y000296D02*
X016120Y000296D01*
X016210Y000394D02*
X016340Y000394D01*
X016300Y000493D02*
X016250Y000493D01*
X016250Y000591D02*
X016300Y000591D01*
X016333Y000690D02*
X016217Y000690D01*
X016200Y000788D02*
X016400Y000788D01*
X016000Y000600D02*
X015950Y000550D01*
X016000Y000600D02*
X016000Y001300D01*
X016468Y001768D01*
X016468Y002521D01*
X016665Y002521D02*
X016665Y001615D01*
X016300Y001250D01*
X016300Y001150D01*
X015700Y001150D02*
X015700Y001300D01*
X016271Y001821D01*
X016271Y002521D01*
X016074Y002521D02*
X016074Y001974D01*
X017457Y003190D02*
X017058Y003588D01*
X016960Y003940D01*
X017058Y003588D02*
X017058Y005359D01*
X017255Y005359D02*
X017260Y005259D01*
X017260Y005590D01*
X017050Y005800D01*
X017050Y006104D01*
X017010Y006214D01*
X016460Y006214D02*
X016460Y005259D01*
X016468Y005359D01*
X017452Y005359D02*
X017452Y007148D01*
X017450Y007150D01*
X017029Y006994D02*
X016991Y006994D01*
X016991Y006895D02*
X017029Y006895D01*
X017029Y006797D02*
X016991Y006797D01*
X016479Y006797D02*
X016441Y006797D01*
X016441Y006895D02*
X016479Y006895D01*
X016479Y006994D02*
X016441Y006994D01*
X015400Y007585D02*
X019803Y007585D01*
X019803Y007683D02*
X015400Y007683D01*
X015400Y007782D02*
X019820Y007782D01*
X019838Y007880D02*
X015463Y007880D01*
X015561Y007979D02*
X019803Y007979D01*
X019803Y008077D02*
X019200Y008077D01*
X019249Y009161D02*
X019356Y009161D01*
X019591Y009161D02*
X019629Y009161D01*
X019629Y009259D02*
X019591Y009259D01*
X019591Y009358D02*
X019629Y009358D01*
X019029Y009358D02*
X018991Y009358D01*
X018991Y009259D02*
X019029Y009259D01*
X019029Y009161D02*
X018991Y009161D01*
X018771Y009161D02*
X018653Y009161D01*
X018667Y009259D02*
X018705Y009259D01*
X017468Y009259D02*
X017332Y009259D01*
X017273Y009752D02*
X017507Y009752D01*
X017453Y010146D02*
X016400Y010146D01*
X016400Y010244D02*
X017048Y010244D01*
X016949Y010343D02*
X016443Y010343D01*
X016484Y010441D02*
X016873Y010441D01*
X016832Y010540D02*
X016485Y010540D01*
X016451Y010638D02*
X016801Y010638D01*
X016801Y010737D02*
X016367Y010737D01*
X016200Y010500D02*
X016200Y009600D01*
X016194Y009606D01*
X016194Y009634D01*
X016000Y009637D02*
X015997Y009634D01*
X016000Y009637D02*
X016000Y010100D01*
X016000Y010146D02*
X015785Y010146D01*
X015749Y010244D02*
X016000Y010244D01*
X015957Y010343D02*
X015659Y010343D01*
X015916Y010441D02*
X014613Y010441D01*
X014610Y010343D02*
X015341Y010343D01*
X015251Y010244D02*
X014679Y010244D01*
X014963Y010146D02*
X015215Y010146D01*
X015215Y010047D02*
X015020Y010047D01*
X015020Y009949D02*
X015254Y009949D01*
X015359Y009850D02*
X015020Y009850D01*
X015020Y009752D02*
X015566Y009752D01*
X015591Y009653D02*
X015020Y009653D01*
X015020Y009555D02*
X015591Y009555D01*
X015591Y009456D02*
X015020Y009456D01*
X015020Y009358D02*
X015610Y009358D01*
X015593Y009259D02*
X015020Y009259D01*
X014546Y009062D02*
X013215Y009062D01*
X013791Y009259D02*
X013829Y009259D01*
X013829Y009358D02*
X013791Y009358D01*
X014102Y009259D02*
X014124Y009259D01*
X014520Y008964D02*
X011710Y008964D01*
X011710Y008865D02*
X014462Y008865D01*
X014450Y008767D02*
X011710Y008767D01*
X011710Y008668D02*
X014450Y008668D01*
X014450Y008570D02*
X011710Y008570D01*
X011710Y008471D02*
X014450Y008471D01*
X014450Y008373D02*
X011710Y008373D01*
X011710Y008274D02*
X014450Y008274D01*
X014450Y008176D02*
X011710Y008176D01*
X011710Y008077D02*
X014450Y008077D01*
X014450Y007979D02*
X011710Y007979D01*
X011010Y007955D02*
X011010Y007490D01*
X011010Y006990D01*
X010710Y006994D02*
X009900Y006994D01*
X009900Y007092D02*
X010728Y007092D01*
X010786Y007191D02*
X009900Y007191D01*
X009900Y007289D02*
X010808Y007289D01*
X010744Y007388D02*
X009900Y007388D01*
X009900Y007486D02*
X010725Y007486D01*
X010741Y007585D02*
X009900Y007585D01*
X009900Y007683D02*
X010657Y007683D01*
X010643Y007782D02*
X009900Y007782D01*
X009900Y007880D02*
X010643Y007880D01*
X010643Y007979D02*
X009900Y007979D01*
X009900Y008077D02*
X010643Y008077D01*
X010643Y008176D02*
X009900Y008176D01*
X009900Y008274D02*
X010703Y008274D01*
X010643Y008373D02*
X009900Y008373D01*
X009900Y008471D02*
X010643Y008471D01*
X010643Y008570D02*
X009900Y008570D01*
X009900Y008668D02*
X010643Y008668D01*
X010643Y008767D02*
X009961Y008767D01*
X010004Y008865D02*
X010643Y008865D01*
X010723Y008964D02*
X010010Y008964D01*
X009984Y009062D02*
X010780Y009062D01*
X010780Y009161D02*
X009914Y009161D01*
X009910Y009259D02*
X010780Y009259D01*
X010780Y009358D02*
X009910Y009358D01*
X009910Y009456D02*
X010780Y009456D01*
X010780Y009555D02*
X009910Y009555D01*
X009910Y009653D02*
X009952Y009653D01*
X010248Y009653D02*
X010780Y009653D01*
X010780Y009752D02*
X010347Y009752D01*
X010385Y009850D02*
X010780Y009850D01*
X010780Y009949D02*
X010385Y009949D01*
X010348Y010047D02*
X010780Y010047D01*
X010780Y010146D02*
X010252Y010146D01*
X010100Y009900D02*
X009816Y009900D01*
X009710Y010006D01*
X009210Y010006D01*
X009210Y010016D01*
X009210Y010514D01*
X008944Y010729D01*
X009205Y010990D01*
X009560Y010990D01*
X010160Y010990D01*
X010160Y011490D01*
X005960Y011490D01*
X005760Y011290D02*
X005760Y010990D01*
X006310Y010990D01*
X006715Y010990D01*
X006976Y010729D01*
X007551Y010737D02*
X008369Y010737D01*
X008369Y010835D02*
X007551Y010835D01*
X007514Y010934D02*
X008406Y010934D01*
X008447Y011032D02*
X007473Y011032D01*
X007551Y010638D02*
X008369Y010638D01*
X008401Y010540D02*
X007519Y010540D01*
X007479Y010441D02*
X008441Y010441D01*
X008518Y010343D02*
X008180Y010343D01*
X008267Y010244D02*
X008341Y010244D01*
X008303Y010146D02*
X008267Y010146D01*
X008610Y010006D02*
X009200Y010006D01*
X009210Y010016D01*
X009489Y010244D02*
X010780Y010244D01*
X010735Y010343D02*
X009410Y010343D01*
X009447Y010441D02*
X010720Y010441D01*
X010737Y010540D02*
X009488Y010540D01*
X009519Y010638D02*
X010805Y010638D01*
X010782Y010835D02*
X010288Y010835D01*
X010360Y010934D02*
X010710Y010934D01*
X010710Y011032D02*
X010360Y011032D01*
X010360Y011131D02*
X010710Y011131D01*
X010710Y011229D02*
X010360Y011229D01*
X010360Y011328D02*
X010710Y011328D01*
X010710Y011426D02*
X010360Y011426D01*
X010360Y011525D02*
X010710Y011525D01*
X010710Y011623D02*
X010360Y011623D01*
X010360Y011722D02*
X010710Y011722D01*
X010710Y011820D02*
X010360Y011820D01*
X010360Y011919D02*
X010710Y011919D01*
X010710Y012017D02*
X010360Y012017D01*
X010360Y012116D02*
X010710Y012116D01*
X010710Y012214D02*
X010360Y012214D01*
X010360Y012313D02*
X010710Y012313D01*
X010710Y012411D02*
X010360Y012411D01*
X010360Y012510D02*
X010710Y012510D01*
X010710Y012608D02*
X010360Y012608D01*
X010360Y012707D02*
X010710Y012707D01*
X010710Y012805D02*
X010360Y012805D01*
X010360Y012904D02*
X010710Y012904D01*
X010710Y013002D02*
X010360Y013002D01*
X010360Y013101D02*
X010710Y013101D01*
X010710Y013199D02*
X010360Y013199D01*
X010360Y013298D02*
X010710Y013298D01*
X010710Y013396D02*
X010360Y013396D01*
X010360Y013495D02*
X010710Y013495D01*
X010710Y013593D02*
X010360Y013593D01*
X010360Y013692D02*
X010710Y013692D01*
X010710Y013790D02*
X010360Y013790D01*
X010360Y013889D02*
X010710Y013889D01*
X010710Y013987D02*
X010360Y013987D01*
X010360Y014086D02*
X010710Y014086D01*
X010710Y014184D02*
X010360Y014184D01*
X010360Y014283D02*
X010710Y014283D01*
X010710Y014381D02*
X010360Y014381D01*
X010360Y014480D02*
X010710Y014480D01*
X010710Y014578D02*
X010360Y014578D01*
X010360Y014677D02*
X010710Y014677D01*
X010710Y014775D02*
X010360Y014775D01*
X010360Y014874D02*
X010710Y014874D01*
X010710Y014972D02*
X010360Y014972D01*
X010360Y015071D02*
X010710Y015071D01*
X010710Y015169D02*
X010360Y015169D01*
X010265Y015268D02*
X010805Y015268D01*
X010910Y015090D02*
X015310Y015090D01*
X015310Y014690D01*
X011110Y014690D01*
X010910Y014490D02*
X015110Y014490D01*
X015310Y014290D02*
X011110Y014290D01*
X010910Y014090D02*
X015110Y014090D01*
X015310Y013890D02*
X011110Y013890D01*
X010910Y013690D02*
X015110Y013690D01*
X015310Y013490D02*
X011110Y013490D01*
X010910Y013290D02*
X015110Y013290D01*
X015310Y013090D02*
X011110Y013090D01*
X010910Y012890D02*
X015110Y012890D01*
X015310Y012690D02*
X011110Y012690D01*
X010910Y012490D02*
X015110Y012490D01*
X015310Y012290D02*
X011110Y012290D01*
X010910Y012090D02*
X015110Y012090D01*
X015310Y011890D02*
X011110Y011890D01*
X010910Y011690D02*
X015110Y011690D01*
X015310Y011490D02*
X015310Y010990D01*
X015438Y010835D02*
X016032Y010835D01*
X016033Y010737D02*
X014669Y010737D01*
X014669Y010638D02*
X015949Y010638D01*
X015915Y010540D02*
X014638Y010540D01*
X015510Y010934D02*
X015960Y010934D01*
X015960Y011032D02*
X015510Y011032D01*
X015510Y011131D02*
X015960Y011131D01*
X015960Y011229D02*
X015510Y011229D01*
X015510Y011328D02*
X015960Y011328D01*
X015960Y011426D02*
X015510Y011426D01*
X015510Y011525D02*
X015960Y011525D01*
X015960Y011623D02*
X015510Y011623D01*
X015510Y011722D02*
X015960Y011722D01*
X015960Y011820D02*
X015510Y011820D01*
X015510Y011919D02*
X015960Y011919D01*
X015960Y012017D02*
X015510Y012017D01*
X015510Y012116D02*
X015960Y012116D01*
X015960Y012214D02*
X015510Y012214D01*
X015510Y012313D02*
X015960Y012313D01*
X015960Y012411D02*
X015510Y012411D01*
X015510Y012510D02*
X015960Y012510D01*
X015960Y012608D02*
X015510Y012608D01*
X015510Y012707D02*
X015960Y012707D01*
X015960Y012805D02*
X015510Y012805D01*
X015510Y012904D02*
X015960Y012904D01*
X015960Y013002D02*
X015510Y013002D01*
X015510Y013101D02*
X015960Y013101D01*
X015960Y013199D02*
X015510Y013199D01*
X015510Y013298D02*
X015960Y013298D01*
X015960Y013396D02*
X015510Y013396D01*
X015510Y013495D02*
X015960Y013495D01*
X015960Y013593D02*
X015510Y013593D01*
X015510Y013692D02*
X015960Y013692D01*
X015960Y013790D02*
X015510Y013790D01*
X015510Y013889D02*
X015960Y013889D01*
X015960Y013987D02*
X015510Y013987D01*
X015510Y014086D02*
X015960Y014086D01*
X015960Y014184D02*
X015510Y014184D01*
X015510Y014283D02*
X015960Y014283D01*
X015960Y014381D02*
X015510Y014381D01*
X015510Y014480D02*
X015960Y014480D01*
X015960Y014578D02*
X015510Y014578D01*
X015510Y014677D02*
X015960Y014677D01*
X015960Y014775D02*
X015510Y014775D01*
X015510Y014874D02*
X015960Y014874D01*
X015960Y014972D02*
X015510Y014972D01*
X015510Y015071D02*
X015960Y015071D01*
X015960Y015169D02*
X015510Y015169D01*
X015415Y015268D02*
X016055Y015268D01*
X016160Y015090D02*
X020560Y015090D01*
X020560Y014690D01*
X016360Y014690D01*
X016160Y014490D02*
X020360Y014490D01*
X020560Y014290D02*
X016360Y014290D01*
X016160Y014090D02*
X020360Y014090D01*
X020560Y013890D02*
X016360Y013890D01*
X016160Y013690D02*
X020360Y013690D01*
X020560Y013490D02*
X016360Y013490D01*
X016160Y013290D02*
X020360Y013290D01*
X020560Y013090D02*
X016360Y013090D01*
X016160Y012890D02*
X020360Y012890D01*
X020560Y012690D02*
X016360Y012690D01*
X016160Y012490D02*
X020360Y012490D01*
X020560Y012290D02*
X016360Y012290D01*
X016160Y012090D02*
X020360Y012090D01*
X020560Y011890D02*
X016360Y011890D01*
X016160Y011690D02*
X020360Y011690D01*
X020560Y011490D02*
X020560Y011890D01*
X020560Y012290D01*
X020560Y012690D01*
X020560Y013090D01*
X020560Y013490D01*
X020560Y013890D01*
X020560Y014290D01*
X020560Y014690D01*
X020760Y014677D02*
X024340Y014677D01*
X024340Y014775D02*
X020760Y014775D01*
X020760Y014874D02*
X024340Y014874D01*
X024340Y014972D02*
X020760Y014972D01*
X020760Y015071D02*
X024340Y015071D01*
X024340Y015169D02*
X020760Y015169D01*
X020665Y015268D02*
X024340Y015268D01*
X024340Y015366D02*
X019849Y015366D01*
X019890Y015465D02*
X024340Y015465D01*
X024340Y015563D02*
X021260Y015563D01*
X021281Y015577D02*
X021323Y015619D01*
X021356Y015668D01*
X021378Y015722D01*
X021390Y015780D01*
X021390Y015785D01*
X021115Y015785D01*
X021115Y015835D01*
X021065Y015835D01*
X021065Y016110D01*
X021060Y016110D01*
X021002Y016098D01*
X020948Y016076D01*
X020899Y016043D01*
X020857Y016001D01*
X020824Y015952D01*
X020802Y015898D01*
X020790Y015840D01*
X020790Y015835D01*
X021065Y015835D01*
X021065Y015785D01*
X021115Y015785D01*
X021115Y015510D01*
X021120Y015510D01*
X021178Y015522D01*
X021232Y015544D01*
X021281Y015577D01*
X021352Y015662D02*
X024340Y015662D01*
X024340Y015760D02*
X021386Y015760D01*
X021390Y015835D02*
X021115Y015835D01*
X021115Y016110D01*
X021120Y016110D01*
X021178Y016098D01*
X021232Y016076D01*
X021281Y016043D01*
X021323Y016001D01*
X021356Y015952D01*
X021378Y015898D01*
X021390Y015840D01*
X021390Y015835D01*
X021386Y015859D02*
X024340Y015859D01*
X024340Y015957D02*
X021353Y015957D01*
X021263Y016056D02*
X024340Y016056D01*
X024340Y016154D02*
X019631Y016154D01*
X019753Y016056D02*
X020917Y016056D01*
X020827Y015957D02*
X019840Y015957D01*
X019881Y015859D02*
X020794Y015859D01*
X020790Y015785D02*
X020790Y015780D01*
X020802Y015722D01*
X020824Y015668D01*
X020857Y015619D01*
X020899Y015577D01*
X020948Y015544D01*
X021002Y015522D01*
X021060Y015510D01*
X021065Y015510D01*
X021065Y015785D01*
X020790Y015785D01*
X020794Y015760D02*
X019919Y015760D01*
X019919Y015662D02*
X020828Y015662D01*
X020920Y015563D02*
X019919Y015563D01*
X018840Y015366D02*
X017880Y015366D01*
X017921Y015465D02*
X018799Y015465D01*
X018769Y015563D02*
X017951Y015563D01*
X017951Y015662D02*
X018769Y015662D01*
X018769Y015760D02*
X017951Y015760D01*
X017912Y015859D02*
X018808Y015859D01*
X018849Y015957D02*
X017871Y015957D01*
X017784Y016056D02*
X018936Y016056D01*
X019057Y016154D02*
X017663Y016154D01*
X017089Y016154D02*
X014381Y016154D01*
X014503Y016056D02*
X016967Y016056D01*
X016880Y015957D02*
X014590Y015957D01*
X014631Y015859D02*
X016839Y015859D01*
X016801Y015760D02*
X014669Y015760D01*
X014669Y015662D02*
X016801Y015662D01*
X016801Y015563D02*
X014669Y015563D01*
X014640Y015465D02*
X016830Y015465D01*
X016871Y015366D02*
X014599Y015366D01*
X015110Y014890D02*
X010910Y014890D01*
X010910Y014490D01*
X010910Y014090D01*
X010910Y013690D01*
X010910Y013290D01*
X010910Y012890D01*
X010910Y012490D01*
X010910Y012090D01*
X010910Y011690D01*
X010910Y011290D01*
X011110Y011490D02*
X015310Y011490D01*
X015310Y011890D01*
X015310Y012290D01*
X015310Y012690D01*
X015310Y013090D01*
X015310Y013490D01*
X015310Y013890D01*
X015310Y014290D01*
X015310Y014690D01*
X016160Y014490D02*
X016160Y014890D01*
X020360Y014890D01*
X020760Y014578D02*
X021844Y014578D01*
X021882Y014594D02*
X021664Y014503D01*
X021497Y014336D01*
X021406Y014118D01*
X021406Y013882D01*
X021497Y013664D01*
X021664Y013497D01*
X021882Y013406D01*
X022118Y013406D01*
X022336Y013497D01*
X022503Y013664D01*
X022594Y013882D01*
X022594Y014118D01*
X022503Y014336D01*
X022336Y014503D01*
X022118Y014594D01*
X021882Y014594D01*
X021640Y014480D02*
X020760Y014480D01*
X020760Y014381D02*
X021541Y014381D01*
X021474Y014283D02*
X020760Y014283D01*
X020760Y014184D02*
X021434Y014184D01*
X021406Y014086D02*
X020760Y014086D01*
X020760Y013987D02*
X021406Y013987D01*
X021406Y013889D02*
X020760Y013889D01*
X020760Y013790D02*
X021444Y013790D01*
X021485Y013692D02*
X020760Y013692D01*
X020760Y013593D02*
X021567Y013593D01*
X021669Y013495D02*
X020760Y013495D01*
X020760Y013396D02*
X024340Y013396D01*
X024340Y013298D02*
X020760Y013298D01*
X020760Y013199D02*
X024340Y013199D01*
X024340Y013101D02*
X020760Y013101D01*
X020760Y013002D02*
X024340Y013002D01*
X024340Y012904D02*
X020760Y012904D01*
X020760Y012805D02*
X024340Y012805D01*
X024340Y012707D02*
X020760Y012707D01*
X020760Y012608D02*
X024340Y012608D01*
X024340Y012510D02*
X020760Y012510D01*
X020760Y012411D02*
X024340Y012411D01*
X024340Y012313D02*
X020760Y012313D01*
X020760Y012214D02*
X024340Y012214D01*
X024340Y012116D02*
X020760Y012116D01*
X020760Y012017D02*
X024340Y012017D01*
X024340Y011919D02*
X020760Y011919D01*
X020760Y011820D02*
X024340Y011820D01*
X024340Y011722D02*
X020760Y011722D01*
X020760Y011623D02*
X024340Y011623D01*
X024340Y011525D02*
X020760Y011525D01*
X020760Y011426D02*
X024340Y011426D01*
X024340Y011328D02*
X020760Y011328D01*
X020760Y011229D02*
X024340Y011229D01*
X024340Y011131D02*
X020760Y011131D01*
X020760Y011032D02*
X024340Y011032D01*
X024340Y010934D02*
X020760Y010934D01*
X020688Y010835D02*
X024340Y010835D01*
X024340Y010737D02*
X019919Y010737D01*
X019919Y010638D02*
X024340Y010638D01*
X024340Y010540D02*
X019888Y010540D01*
X019847Y010441D02*
X024340Y010441D01*
X024340Y010343D02*
X019810Y010343D01*
X020360Y011290D02*
X016160Y011290D01*
X016160Y011690D01*
X016160Y012090D01*
X016160Y012490D01*
X016160Y012890D01*
X016160Y013290D01*
X016160Y013690D01*
X016160Y014090D01*
X016160Y014490D01*
X013590Y015366D02*
X012630Y015366D01*
X012671Y015465D02*
X013549Y015465D01*
X013519Y015563D02*
X012701Y015563D01*
X012701Y015662D02*
X013519Y015662D01*
X013519Y015760D02*
X012701Y015760D01*
X012662Y015859D02*
X013558Y015859D01*
X013599Y015957D02*
X012621Y015957D01*
X012534Y016056D02*
X013686Y016056D01*
X013807Y016154D02*
X012413Y016154D01*
X011839Y016154D02*
X009231Y016154D01*
X009353Y016056D02*
X011717Y016056D01*
X011630Y015957D02*
X009440Y015957D01*
X009481Y015859D02*
X011589Y015859D01*
X011551Y015760D02*
X009519Y015760D01*
X009519Y015662D02*
X011551Y015662D01*
X011551Y015563D02*
X009519Y015563D01*
X009490Y015465D02*
X011580Y015465D01*
X011621Y015366D02*
X009449Y015366D01*
X009960Y014890D02*
X005760Y014890D01*
X005760Y014490D01*
X009960Y014490D01*
X010160Y014290D02*
X005960Y014290D01*
X005760Y014090D02*
X009960Y014090D01*
X010160Y013890D02*
X005960Y013890D01*
X005760Y013690D02*
X009960Y013690D01*
X010160Y013490D02*
X005960Y013490D01*
X005760Y013290D02*
X009960Y013290D01*
X010160Y013090D02*
X005960Y013090D01*
X005760Y012890D02*
X009960Y012890D01*
X010160Y012690D02*
X005960Y012690D01*
X005760Y012490D02*
X009960Y012490D01*
X010160Y012290D02*
X005960Y012290D01*
X005760Y012090D02*
X009960Y012090D01*
X010160Y011890D02*
X005960Y011890D01*
X005760Y011690D02*
X009960Y011690D01*
X010160Y011490D02*
X010160Y011890D01*
X010160Y012290D01*
X010160Y012690D01*
X010160Y013090D01*
X010160Y013490D01*
X010160Y013890D01*
X010160Y014290D01*
X010160Y014690D01*
X005960Y014690D01*
X005760Y014490D02*
X005760Y014090D01*
X005760Y013690D01*
X005760Y013290D01*
X005760Y012890D01*
X005760Y012490D01*
X005760Y012090D01*
X005760Y011690D01*
X005760Y011290D01*
X009960Y011290D01*
X009519Y010737D02*
X011551Y010737D01*
X011551Y010638D02*
X011215Y010638D01*
X011277Y010540D02*
X011582Y010540D01*
X011623Y010441D02*
X011295Y010441D01*
X011278Y010343D02*
X011699Y010343D01*
X011798Y010244D02*
X011240Y010244D01*
X011240Y010146D02*
X012203Y010146D01*
X012203Y010047D02*
X011240Y010047D01*
X011240Y009949D02*
X012203Y009949D01*
X012208Y009850D02*
X011240Y009850D01*
X011240Y009752D02*
X011718Y009752D01*
X011648Y009653D02*
X011240Y009653D01*
X011240Y009555D02*
X011625Y009555D01*
X011636Y009456D02*
X011240Y009456D01*
X011240Y009358D02*
X011445Y009358D01*
X011346Y009259D02*
X011240Y009259D01*
X011240Y009161D02*
X011310Y009161D01*
X011310Y009062D02*
X011240Y009062D01*
X011297Y008964D02*
X011310Y008964D01*
X009710Y008940D02*
X009710Y010006D01*
X009853Y010146D02*
X009948Y010146D01*
X010920Y010440D02*
X011010Y010440D01*
X012510Y010056D02*
X012530Y010035D01*
X013110Y010035D01*
X012890Y010343D02*
X012731Y010343D01*
X013810Y010016D02*
X014400Y010016D01*
X014410Y010006D01*
X015500Y010100D02*
X015800Y009800D01*
X015800Y009634D01*
X015997Y009949D02*
X015997Y009949D01*
X016000Y010047D02*
X015836Y010047D01*
X013900Y007450D02*
X012850Y007450D01*
X012100Y006750D01*
X011830Y006480D01*
X009790Y006480D01*
X009480Y006790D01*
X009480Y008350D01*
X009243Y008274D02*
X008245Y008274D01*
X008245Y008373D02*
X009145Y008373D01*
X009046Y008471D02*
X008206Y008471D01*
X007960Y008320D02*
X007960Y009445D01*
X007717Y009161D02*
X007343Y009161D01*
X007300Y009062D02*
X007760Y009062D01*
X007760Y008964D02*
X007300Y008964D01*
X007300Y008865D02*
X007760Y008865D01*
X007760Y008767D02*
X007300Y008767D01*
X007300Y008668D02*
X007760Y008668D01*
X007760Y008570D02*
X007300Y008570D01*
X007300Y008471D02*
X007714Y008471D01*
X007675Y008373D02*
X007300Y008373D01*
X007300Y008274D02*
X007675Y008274D01*
X007711Y008176D02*
X007300Y008176D01*
X007300Y008077D02*
X007802Y008077D01*
X008118Y008077D02*
X009280Y008077D01*
X009280Y007979D02*
X007300Y007979D01*
X007300Y007880D02*
X009280Y007880D01*
X009280Y007782D02*
X007300Y007782D01*
X007300Y007683D02*
X009280Y007683D01*
X009280Y007585D02*
X007300Y007585D01*
X007300Y007486D02*
X009280Y007486D01*
X009280Y007388D02*
X007890Y007388D01*
X008035Y007289D02*
X009280Y007289D01*
X009280Y007191D02*
X008087Y007191D01*
X008100Y007092D02*
X009280Y007092D01*
X009280Y006994D02*
X008081Y006994D01*
X008019Y006895D02*
X008362Y006895D01*
X008264Y006797D02*
X008000Y006797D01*
X008000Y006698D02*
X008165Y006698D01*
X008150Y006600D02*
X008011Y006600D01*
X008350Y006600D02*
X008350Y006256D01*
X008334Y006240D01*
X007745Y006240D01*
X007745Y004645D01*
X006800Y003700D01*
X006800Y003300D01*
X007100Y003000D01*
X007100Y002800D01*
X007410Y002490D01*
X007410Y002440D01*
X007910Y002440D02*
X008170Y002440D01*
X008220Y002520D01*
X008220Y002960D01*
X008660Y003400D01*
X009450Y003400D01*
X009940Y002910D01*
X009940Y002890D01*
X009950Y002900D01*
X010300Y002900D01*
X010500Y003100D01*
X010500Y003450D01*
X011690Y004540D01*
X013270Y004540D01*
X013270Y004670D01*
X013250Y006090D01*
X013250Y006500D01*
X012965Y006501D02*
X012849Y006501D01*
X012965Y006557D02*
X012965Y006443D01*
X013008Y006339D01*
X013050Y006297D01*
X013050Y006171D01*
X013049Y006170D01*
X013050Y006089D01*
X013050Y006007D01*
X013051Y006006D01*
X013069Y004740D01*
X011694Y004740D01*
X011616Y004743D01*
X011612Y004740D01*
X011607Y004740D01*
X011552Y004685D01*
X010422Y003650D01*
X010417Y003650D01*
X010362Y003595D01*
X010304Y003542D01*
X010304Y003536D01*
X010300Y003533D01*
X010300Y003462D01*
X010197Y003505D01*
X010083Y003505D01*
X009979Y003462D01*
X009975Y003458D01*
X009700Y003733D01*
X009583Y003850D01*
X008683Y003850D01*
X008700Y003890D01*
X008700Y004010D01*
X008654Y004120D01*
X008570Y004204D01*
X008460Y004250D01*
X008340Y004250D01*
X008230Y004204D01*
X008146Y004120D01*
X008109Y004031D01*
X007892Y004030D01*
X007884Y004037D01*
X007810Y004030D01*
X007736Y004030D01*
X007729Y004023D01*
X007719Y004022D01*
X007672Y003965D01*
X007620Y003912D01*
X007620Y003902D01*
X007522Y003785D01*
X007492Y003755D01*
X007479Y003768D01*
X007337Y003827D01*
X007210Y003827D01*
X007827Y004445D01*
X007827Y004445D01*
X007945Y004562D01*
X007945Y005873D01*
X008004Y005873D01*
X008091Y005961D01*
X008091Y005976D01*
X008134Y005933D01*
X008534Y005933D01*
X008615Y006013D01*
X008628Y005990D01*
X008656Y005962D01*
X008690Y005943D01*
X008728Y005933D01*
X008867Y005933D01*
X008867Y006221D01*
X008904Y006221D01*
X008904Y005933D01*
X009043Y005933D01*
X009081Y005943D01*
X009115Y005962D01*
X009143Y005990D01*
X009163Y006025D01*
X009173Y006063D01*
X009173Y006221D01*
X008904Y006221D01*
X008904Y006259D01*
X009173Y006259D01*
X009173Y006417D01*
X009163Y006455D01*
X009143Y006490D01*
X009133Y006500D01*
X009217Y006500D01*
X009667Y006050D01*
X011617Y006050D01*
X011598Y006031D01*
X011555Y005927D01*
X011555Y005813D01*
X011598Y005709D01*
X011679Y005628D01*
X011783Y005585D01*
X011897Y005585D01*
X012001Y005628D01*
X012082Y005709D01*
X012125Y005813D01*
X012125Y005856D01*
X012996Y006632D01*
X012965Y006557D01*
X012960Y006600D02*
X012983Y006600D01*
X012982Y006403D02*
X012739Y006403D01*
X012628Y006304D02*
X013043Y006304D01*
X013050Y006206D02*
X012517Y006206D01*
X012407Y006107D02*
X013050Y006107D01*
X013050Y006009D02*
X012296Y006009D01*
X012186Y005910D02*
X013053Y005910D01*
X013054Y005812D02*
X012124Y005812D01*
X012083Y005713D02*
X013055Y005713D01*
X013057Y005615D02*
X011968Y005615D01*
X011712Y005615D02*
X007945Y005615D01*
X007945Y005713D02*
X011597Y005713D01*
X011556Y005812D02*
X007945Y005812D01*
X008040Y005910D02*
X011555Y005910D01*
X011589Y006009D02*
X009154Y006009D01*
X009173Y006107D02*
X009610Y006107D01*
X009512Y006206D02*
X009173Y006206D01*
X009173Y006304D02*
X009413Y006304D01*
X009315Y006403D02*
X009173Y006403D01*
X009300Y006700D02*
X008450Y006700D01*
X008350Y006600D01*
X007600Y006698D02*
X007300Y006698D01*
X007300Y006797D02*
X007600Y006797D01*
X007581Y006895D02*
X007300Y006895D01*
X007300Y006994D02*
X007519Y006994D01*
X007500Y007092D02*
X007300Y007092D01*
X007300Y007191D02*
X007513Y007191D01*
X007565Y007289D02*
X007300Y007289D01*
X007300Y007388D02*
X007710Y007388D01*
X007800Y007100D02*
X007800Y006295D01*
X007745Y006240D01*
X007700Y006195D01*
X007410Y005949D02*
X007486Y005873D01*
X007545Y005873D01*
X007545Y004727D01*
X006717Y003900D01*
X006600Y003783D01*
X006600Y003334D01*
X006543Y003357D01*
X006277Y003357D01*
X006032Y003256D01*
X005844Y003068D01*
X005800Y002962D01*
X005800Y005417D01*
X006423Y006040D01*
X006729Y006040D01*
X006729Y005961D01*
X006816Y005873D01*
X007334Y005873D01*
X007410Y005949D01*
X007371Y005910D02*
X007449Y005910D01*
X007545Y005812D02*
X006194Y005812D01*
X006293Y005910D02*
X006780Y005910D01*
X006729Y006009D02*
X006391Y006009D01*
X006400Y006240D02*
X007075Y006240D01*
X006729Y006501D02*
X005550Y006501D01*
X005550Y006403D02*
X006220Y006403D01*
X006121Y006304D02*
X005550Y006304D01*
X005550Y006206D02*
X006023Y006206D01*
X005924Y006107D02*
X005550Y006107D01*
X005550Y006009D02*
X005826Y006009D01*
X005727Y005910D02*
X005550Y005910D01*
X005550Y005812D02*
X005629Y005812D01*
X005997Y005615D02*
X007545Y005615D01*
X007545Y005713D02*
X006096Y005713D01*
X005899Y005516D02*
X007545Y005516D01*
X007545Y005418D02*
X005800Y005418D01*
X005800Y005319D02*
X007545Y005319D01*
X007545Y005221D02*
X005800Y005221D01*
X005800Y005122D02*
X007545Y005122D01*
X007545Y005024D02*
X005800Y005024D01*
X005800Y004925D02*
X007545Y004925D01*
X007545Y004827D02*
X005800Y004827D01*
X005800Y004728D02*
X007545Y004728D01*
X007447Y004630D02*
X005800Y004630D01*
X005800Y004531D02*
X007348Y004531D01*
X007250Y004433D02*
X005800Y004433D01*
X005800Y004334D02*
X007151Y004334D01*
X007053Y004236D02*
X005800Y004236D01*
X005800Y004137D02*
X006954Y004137D01*
X006856Y004039D02*
X005800Y004039D01*
X005800Y003940D02*
X006757Y003940D01*
X006659Y003842D02*
X005800Y003842D01*
X005800Y003743D02*
X006600Y003743D01*
X006600Y003645D02*
X005800Y003645D01*
X005800Y003546D02*
X006600Y003546D01*
X006600Y003448D02*
X005800Y003448D01*
X005800Y003349D02*
X006257Y003349D01*
X006027Y003251D02*
X005800Y003251D01*
X005800Y003152D02*
X005928Y003152D01*
X005838Y003054D02*
X005800Y003054D01*
X006563Y003349D02*
X006600Y003349D01*
X007410Y002970D02*
X007670Y003200D01*
X007670Y003650D01*
X007820Y003830D01*
X008401Y003833D01*
X008583Y003650D01*
X009500Y003650D01*
X009930Y003220D01*
X010140Y003220D01*
X010309Y003546D02*
X009887Y003546D01*
X009788Y003645D02*
X010412Y003645D01*
X010524Y003743D02*
X009690Y003743D01*
X009591Y003842D02*
X010631Y003842D01*
X010739Y003940D02*
X008700Y003940D01*
X008688Y004039D02*
X010846Y004039D01*
X010954Y004137D02*
X008637Y004137D01*
X008495Y004236D02*
X011061Y004236D01*
X011169Y004334D02*
X007717Y004334D01*
X007815Y004433D02*
X011277Y004433D01*
X011384Y004531D02*
X007914Y004531D01*
X007945Y004630D02*
X011492Y004630D01*
X011595Y004728D02*
X007945Y004728D01*
X007945Y004827D02*
X013068Y004827D01*
X013066Y004925D02*
X007945Y004925D01*
X007945Y005024D02*
X013065Y005024D01*
X013064Y005122D02*
X007945Y005122D01*
X007945Y005221D02*
X013062Y005221D01*
X013061Y005319D02*
X007945Y005319D01*
X007945Y005418D02*
X013059Y005418D01*
X013058Y005516D02*
X007945Y005516D01*
X008610Y006009D02*
X008617Y006009D01*
X008867Y006009D02*
X008904Y006009D01*
X008904Y006107D02*
X008867Y006107D01*
X008867Y006206D02*
X008904Y006206D01*
X009300Y006700D02*
X009750Y006250D01*
X011900Y006250D01*
X012900Y007250D01*
X013500Y007250D01*
X013600Y007150D01*
X013600Y006800D01*
X013250Y006950D02*
X013030Y006930D01*
X011840Y005870D01*
X013550Y006016D02*
X013550Y006400D01*
X013900Y006550D01*
X013900Y007450D01*
X014100Y005484D02*
X014100Y004990D01*
X014370Y004720D01*
X014750Y004720D01*
X014841Y004629D01*
X015541Y004629D01*
X015541Y004826D02*
X014884Y004826D01*
X014650Y005060D01*
X014650Y005484D01*
X015200Y005484D02*
X015200Y005130D01*
X015317Y005013D01*
X015541Y005023D01*
X015541Y004432D02*
X014798Y004432D01*
X014690Y004540D01*
X013890Y004540D01*
X013550Y004880D01*
X013550Y005484D01*
X013397Y003940D02*
X012053Y003940D01*
X012082Y003911D01*
X012125Y003807D01*
X012125Y003693D01*
X012082Y003589D01*
X012040Y003547D01*
X012040Y003473D01*
X012099Y003532D01*
X012203Y003575D01*
X012317Y003575D01*
X012421Y003532D01*
X012433Y003520D01*
X012457Y003520D01*
X012540Y003603D01*
X012980Y003603D01*
X013035Y003548D01*
X013090Y003603D01*
X013419Y003603D01*
X013407Y003625D01*
X013397Y003663D01*
X013397Y003821D01*
X013666Y003821D01*
X013666Y003859D01*
X013397Y003859D01*
X013397Y003940D01*
X013397Y003743D02*
X012125Y003743D01*
X012111Y003842D02*
X013666Y003842D01*
X013402Y003645D02*
X012105Y003645D01*
X012133Y003546D02*
X012040Y003546D01*
X012387Y003546D02*
X012483Y003546D01*
X014236Y003840D02*
X014287Y003842D01*
X015541Y003842D01*
X017457Y003190D02*
X017710Y003190D01*
X019910Y002216D02*
X019910Y002190D01*
X019891Y001576D02*
X019929Y001576D01*
X019929Y001478D02*
X019891Y001478D01*
X019891Y001379D02*
X019929Y001379D01*
X019929Y001281D02*
X019891Y001281D01*
X020210Y001478D02*
X021710Y001478D01*
X021584Y001576D02*
X020217Y001576D01*
X020187Y000985D02*
X023312Y000985D01*
X023232Y000887D02*
X020195Y000887D01*
X020217Y000788D02*
X023202Y000788D01*
X023206Y000690D02*
X020217Y000690D01*
X020217Y000591D02*
X023245Y000591D01*
X023475Y000591D02*
X023525Y000591D01*
X023525Y000690D02*
X023475Y000690D01*
X023475Y000788D02*
X023525Y000788D01*
X023525Y000887D02*
X023475Y000887D01*
X023475Y000985D02*
X023525Y000985D01*
X023768Y000887D02*
X023771Y000887D01*
X024067Y000887D02*
X024164Y000887D01*
X024164Y000985D02*
X024067Y000985D01*
X024067Y001084D02*
X024164Y001084D01*
X024164Y001182D02*
X024067Y001182D01*
X023810Y001478D02*
X024360Y001478D01*
X024360Y001576D02*
X023810Y001576D01*
X023763Y001576D02*
X022416Y001576D01*
X022508Y001675D02*
X023763Y001675D01*
X023810Y001675D02*
X024360Y001675D01*
X024360Y001773D02*
X023810Y001773D01*
X023771Y001773D02*
X022549Y001773D01*
X022290Y001478D02*
X023763Y001478D01*
X023810Y001872D02*
X024360Y001872D01*
X024340Y002955D02*
X024266Y002955D01*
X024110Y002955D02*
X024110Y002955D01*
X024110Y003054D02*
X024110Y003054D01*
X024110Y003152D02*
X024110Y003152D01*
X023954Y002955D02*
X023816Y002955D01*
X023660Y002955D02*
X023660Y002955D01*
X023660Y003054D02*
X023660Y003054D01*
X023660Y003152D02*
X023660Y003152D01*
X022445Y004137D02*
X022375Y004137D01*
X022051Y004137D02*
X020905Y004137D01*
X020657Y004236D02*
X020657Y004236D01*
X020657Y004334D02*
X020657Y004334D01*
X020657Y004433D02*
X020657Y004433D01*
X020517Y004433D02*
X020430Y004433D01*
X020657Y004630D02*
X020695Y004630D01*
X020695Y004728D02*
X020657Y004728D01*
X020695Y004827D02*
X022889Y004827D01*
X022791Y004925D02*
X020964Y004925D01*
X020962Y005024D02*
X022692Y005024D01*
X022594Y005122D02*
X020925Y005122D01*
X020973Y005221D02*
X022492Y005221D01*
X022386Y005319D02*
X020973Y005319D01*
X020973Y005418D02*
X022315Y005418D01*
X022275Y005516D02*
X020973Y005516D01*
X020958Y005615D02*
X021134Y005615D01*
X021142Y005600D02*
X021170Y005572D01*
X021204Y005553D01*
X021243Y005542D01*
X021675Y005542D01*
X021675Y006016D01*
X021112Y006016D01*
X021112Y005673D01*
X021123Y005634D01*
X021142Y005600D01*
X021112Y005713D02*
X020956Y005713D01*
X020973Y005812D02*
X021112Y005812D01*
X021112Y005910D02*
X020973Y005910D01*
X020973Y006009D02*
X021112Y006009D01*
X020973Y006107D02*
X021675Y006107D01*
X021675Y006009D02*
X021775Y006009D01*
X021775Y006016D02*
X022275Y006016D01*
X022275Y006116D01*
X021775Y006116D01*
X021775Y006016D01*
X021775Y006107D02*
X022275Y006107D01*
X021775Y005910D02*
X021675Y005910D01*
X021675Y005812D02*
X021775Y005812D01*
X021775Y005713D02*
X021675Y005713D01*
X021675Y005615D02*
X021775Y005615D01*
X021112Y006206D02*
X020927Y006206D01*
X020971Y006304D02*
X021112Y006304D01*
X021112Y006403D02*
X020973Y006403D01*
X021112Y006501D02*
X020704Y006501D01*
X020704Y006403D02*
X020667Y006403D01*
X020667Y006304D02*
X020704Y006304D01*
X020704Y006206D02*
X020667Y006206D01*
X020667Y006107D02*
X020704Y006107D01*
X020704Y006009D02*
X020667Y006009D01*
X020667Y005910D02*
X020704Y005910D01*
X020704Y005812D02*
X020667Y005812D01*
X020667Y005713D02*
X020704Y005713D01*
X020704Y005615D02*
X020667Y005615D01*
X020667Y005516D02*
X020704Y005516D01*
X020704Y005418D02*
X020667Y005418D01*
X020667Y005319D02*
X020704Y005319D01*
X020704Y005221D02*
X020667Y005221D01*
X020667Y005122D02*
X020695Y005122D01*
X020695Y005024D02*
X020657Y005024D01*
X020657Y004925D02*
X020695Y004925D01*
X020964Y004728D02*
X022988Y004728D01*
X024186Y005615D02*
X024340Y005615D01*
X024340Y005713D02*
X024208Y005713D01*
X024208Y005812D02*
X024340Y005812D01*
X024340Y005910D02*
X024208Y005910D01*
X024208Y006009D02*
X024340Y006009D01*
X023812Y006600D02*
X023712Y006600D01*
X023712Y006698D02*
X023812Y006698D01*
X023812Y006797D02*
X023712Y006797D01*
X023712Y006895D02*
X023812Y006895D01*
X023317Y006895D02*
X023110Y006895D01*
X023151Y006994D02*
X023317Y006994D01*
X023317Y006797D02*
X023060Y006797D01*
X023045Y006698D02*
X023317Y006698D01*
X023317Y006600D02*
X023045Y006600D01*
X022171Y007191D02*
X022003Y007191D01*
X022003Y007289D02*
X022211Y007289D01*
X022264Y007388D02*
X022003Y007388D01*
X022003Y007486D02*
X022362Y007486D01*
X022003Y007585D02*
X023317Y007585D01*
X024208Y007585D02*
X024340Y007585D01*
X024340Y007683D02*
X024208Y007683D01*
X024208Y007782D02*
X024340Y007782D01*
X024340Y007880D02*
X024208Y007880D01*
X024208Y007979D02*
X024340Y007979D01*
X023645Y008176D02*
X023545Y008176D01*
X023545Y008274D02*
X023645Y008274D01*
X023645Y008373D02*
X023545Y008373D01*
X023545Y008471D02*
X023645Y008471D01*
X023645Y008570D02*
X023545Y008570D01*
X024208Y007486D02*
X024340Y007486D01*
X024340Y007388D02*
X024208Y007388D01*
X024208Y007289D02*
X024340Y007289D01*
X024340Y007191D02*
X024208Y007191D01*
X020704Y006895D02*
X020667Y006895D01*
X020667Y006797D02*
X020704Y006797D01*
X020704Y006698D02*
X020667Y006698D01*
X020667Y006600D02*
X020704Y006600D01*
X020134Y005940D02*
X020110Y005940D01*
X019710Y005390D02*
X018949Y004629D01*
X018379Y004629D01*
X019110Y004440D02*
X019560Y004840D01*
X020144Y004840D01*
X020136Y004832D01*
X019856Y004630D02*
X019624Y004630D01*
X019869Y004433D02*
X020097Y004433D01*
X020015Y004334D02*
X019959Y004334D01*
X019995Y004236D02*
X020013Y004236D01*
X020013Y004137D02*
X019995Y004137D01*
X017846Y005359D02*
X017846Y005996D01*
X018050Y006150D01*
X018222Y006403D02*
X018328Y006403D01*
X017800Y006600D02*
X017649Y006449D01*
X017649Y005359D01*
X018310Y005713D02*
X018639Y005713D01*
X018684Y005910D02*
X018897Y005910D01*
X018897Y005812D02*
X018421Y005812D01*
X009940Y002890D02*
X009700Y002650D01*
X007938Y002745D02*
X007882Y002745D01*
X007882Y002912D01*
X007938Y002912D01*
X007938Y002745D01*
X007938Y002758D02*
X007882Y002758D01*
X007882Y002857D02*
X007938Y002857D01*
X007882Y002912D02*
X007715Y002912D01*
X007715Y002968D01*
X007882Y002968D01*
X007882Y002912D01*
X007882Y002955D02*
X007715Y002955D01*
X007410Y002940D02*
X007410Y002970D01*
X007569Y003842D02*
X007224Y003842D01*
X007323Y003940D02*
X007647Y003940D01*
X007520Y004137D02*
X008163Y004137D01*
X008112Y004039D02*
X007421Y004039D01*
X007618Y004236D02*
X008305Y004236D01*
X008400Y003950D02*
X008400Y003833D01*
X008401Y003833D01*
X007980Y001213D02*
X007980Y000700D01*
X007303Y000700D01*
X007323Y000720D01*
X007440Y000837D01*
X007440Y001113D01*
X007441Y001112D01*
X007583Y001053D01*
X007737Y001053D01*
X007879Y001112D01*
X007980Y001213D01*
X007980Y001182D02*
X007949Y001182D01*
X007980Y001084D02*
X007811Y001084D01*
X007980Y000985D02*
X007440Y000985D01*
X007440Y000887D02*
X007980Y000887D01*
X007980Y000788D02*
X007391Y000788D01*
X007440Y001084D02*
X007509Y001084D01*
X005473Y000394D02*
X002335Y000394D01*
X002098Y000493D02*
X005375Y000493D01*
X002684Y000296D02*
X015230Y000296D01*
X015570Y000296D02*
X015780Y000296D01*
X015690Y000394D02*
X015660Y000394D01*
X024067Y000788D02*
X024164Y000788D01*
X009280Y008176D02*
X008209Y008176D01*
X006900Y008176D02*
X005550Y008176D01*
X005550Y008077D02*
X006900Y008077D01*
X006900Y007979D02*
X005550Y007979D01*
X005550Y007880D02*
X006900Y007880D01*
X006900Y007782D02*
X005550Y007782D01*
X005550Y007683D02*
X006900Y007683D01*
X006900Y007585D02*
X005550Y007585D01*
X005550Y007486D02*
X006900Y007486D01*
X006900Y007388D02*
X005550Y007388D01*
X005550Y007289D02*
X006900Y007289D01*
X006900Y007191D02*
X005550Y007191D01*
X005550Y007092D02*
X006900Y007092D01*
X006900Y006994D02*
X005550Y006994D01*
X005550Y006895D02*
X006900Y006895D01*
X006900Y006797D02*
X005550Y006797D01*
X005550Y006698D02*
X006900Y006698D01*
X006809Y006600D02*
X005550Y006600D01*
X007341Y006600D02*
X007479Y006600D01*
X006900Y008274D02*
X005459Y008274D01*
X005360Y008373D02*
X006900Y008373D01*
X006900Y008471D02*
X005262Y008471D01*
X005163Y008570D02*
X006900Y008570D01*
X006900Y008668D02*
X006298Y008668D01*
X006440Y008767D02*
X006900Y008767D01*
X006900Y008865D02*
X006487Y008865D01*
X006495Y008964D02*
X006900Y008964D01*
X006900Y009062D02*
X006468Y009062D01*
X006393Y009161D02*
X006900Y009161D01*
X006844Y009259D02*
X005060Y009259D01*
X005060Y009358D02*
X006689Y009358D01*
X006636Y009456D02*
X005060Y009456D01*
X005060Y009555D02*
X006625Y009555D01*
X006648Y009653D02*
X005060Y009653D01*
X005060Y009752D02*
X005155Y009752D01*
X005300Y010000D02*
X004860Y010000D01*
X004860Y008940D01*
X006210Y008940D01*
X006027Y009161D02*
X005064Y009161D01*
X004656Y009161D02*
X003022Y009161D01*
X003051Y009259D02*
X003223Y009259D01*
X003210Y009266D02*
X003245Y009247D01*
X003283Y009236D01*
X003441Y009236D01*
X003441Y009505D01*
X003153Y009505D01*
X003153Y009367D01*
X003163Y009329D01*
X003182Y009294D01*
X003210Y009266D01*
X003155Y009358D02*
X003067Y009358D01*
X003067Y009456D02*
X003153Y009456D01*
X003153Y009555D02*
X003067Y009555D01*
X003067Y009653D02*
X003153Y009653D01*
X003181Y009752D02*
X003030Y009752D01*
X003052Y009850D02*
X003158Y009850D01*
X003153Y009949D02*
X003067Y009949D01*
X003067Y010047D02*
X003153Y010047D01*
X003153Y010146D02*
X003067Y010146D01*
X003067Y010244D02*
X003153Y010244D01*
X003239Y010343D02*
X003030Y010343D01*
X003241Y010441D02*
X002279Y010441D01*
X002319Y010540D02*
X003201Y010540D01*
X003169Y010638D02*
X002351Y010638D01*
X002351Y010737D02*
X003169Y010737D01*
X003169Y010835D02*
X002351Y010835D01*
X002314Y010934D02*
X003206Y010934D01*
X003247Y011032D02*
X002273Y011032D01*
X001776Y010729D02*
X001515Y010990D01*
X001110Y010990D01*
X000560Y010990D01*
X000560Y011290D01*
X004760Y011290D01*
X004960Y011490D02*
X004950Y011530D01*
X004960Y011490D02*
X004960Y010990D01*
X004360Y010990D01*
X004005Y010990D01*
X003744Y010729D01*
X004060Y010464D01*
X004060Y010066D01*
X004060Y010040D01*
X004860Y010040D01*
X004860Y010000D01*
X004660Y009752D02*
X004330Y009752D01*
X004367Y009653D02*
X004660Y009653D01*
X004660Y009555D02*
X004367Y009555D01*
X004367Y009496D02*
X004079Y009496D01*
X004079Y009227D01*
X004237Y009227D01*
X004275Y009237D01*
X004310Y009257D01*
X004338Y009285D01*
X004357Y009319D01*
X004367Y009357D01*
X004367Y009496D01*
X004367Y009456D02*
X004660Y009456D01*
X004660Y009358D02*
X004367Y009358D01*
X004312Y009259D02*
X004660Y009259D01*
X004586Y009062D02*
X003121Y009062D01*
X003219Y008964D02*
X004560Y008964D01*
X004566Y008865D02*
X004418Y008865D01*
X004516Y008767D02*
X004609Y008767D01*
X004615Y008668D02*
X004733Y008668D01*
X004987Y008668D02*
X006122Y008668D01*
X004250Y008750D02*
X003150Y008750D01*
X002750Y009150D01*
X002750Y009485D01*
X002760Y009495D01*
X002469Y009259D02*
X000200Y009259D01*
X000200Y009161D02*
X002550Y009161D01*
X002555Y009062D02*
X000200Y009062D01*
X000200Y008964D02*
X002654Y008964D01*
X002752Y008865D02*
X000200Y008865D01*
X000200Y008767D02*
X002851Y008767D01*
X002949Y008668D02*
X000200Y008668D01*
X000200Y008570D02*
X003048Y008570D01*
X003441Y009259D02*
X003479Y009259D01*
X003479Y009358D02*
X003441Y009358D01*
X003441Y009456D02*
X003479Y009456D01*
X003697Y009259D02*
X003808Y009259D01*
X004041Y009259D02*
X004079Y009259D01*
X004079Y009358D02*
X004041Y009358D01*
X004041Y009456D02*
X004079Y009456D01*
X004050Y010056D02*
X003460Y010056D01*
X004050Y010056D02*
X004060Y010066D01*
X004367Y010244D02*
X005144Y010244D01*
X005456Y010244D02*
X006648Y010244D01*
X006549Y010343D02*
X004290Y010343D01*
X004263Y010441D02*
X006473Y010441D01*
X006432Y010540D02*
X004288Y010540D01*
X004319Y010638D02*
X006401Y010638D01*
X006401Y010737D02*
X004319Y010737D01*
X005088Y010835D02*
X005632Y010835D01*
X005560Y010934D02*
X005160Y010934D01*
X005160Y011032D02*
X005560Y011032D01*
X005560Y011131D02*
X005160Y011131D01*
X005160Y011229D02*
X005560Y011229D01*
X005560Y011328D02*
X005160Y011328D01*
X005160Y011426D02*
X005560Y011426D01*
X005560Y011525D02*
X005160Y011525D01*
X005160Y011623D02*
X005560Y011623D01*
X005560Y011722D02*
X005160Y011722D01*
X005160Y011820D02*
X005560Y011820D01*
X005560Y011919D02*
X005160Y011919D01*
X005160Y012017D02*
X005560Y012017D01*
X005560Y012116D02*
X005160Y012116D01*
X005160Y012214D02*
X005560Y012214D01*
X005560Y012313D02*
X005160Y012313D01*
X005160Y012411D02*
X005560Y012411D01*
X005560Y012510D02*
X005160Y012510D01*
X005160Y012608D02*
X005560Y012608D01*
X005560Y012707D02*
X005160Y012707D01*
X005160Y012805D02*
X005560Y012805D01*
X005560Y012904D02*
X005160Y012904D01*
X005160Y013002D02*
X005560Y013002D01*
X005560Y013101D02*
X005160Y013101D01*
X005160Y013199D02*
X005560Y013199D01*
X005560Y013298D02*
X005160Y013298D01*
X005160Y013396D02*
X005560Y013396D01*
X005560Y013495D02*
X005160Y013495D01*
X005160Y013593D02*
X005560Y013593D01*
X005560Y013692D02*
X005160Y013692D01*
X005160Y013790D02*
X005560Y013790D01*
X005560Y013889D02*
X005160Y013889D01*
X005160Y013987D02*
X005560Y013987D01*
X005560Y014086D02*
X005160Y014086D01*
X005160Y014184D02*
X005560Y014184D01*
X005560Y014283D02*
X005160Y014283D01*
X005160Y014381D02*
X005560Y014381D01*
X005560Y014480D02*
X005160Y014480D01*
X005160Y014578D02*
X005560Y014578D01*
X005560Y014677D02*
X005160Y014677D01*
X005160Y014775D02*
X005560Y014775D01*
X005560Y014874D02*
X005160Y014874D01*
X005160Y014972D02*
X005560Y014972D01*
X005560Y015071D02*
X005160Y015071D01*
X005160Y015169D02*
X005560Y015169D01*
X005655Y015268D02*
X005065Y015268D01*
X004960Y015090D02*
X000560Y015090D01*
X000560Y014890D02*
X004760Y014890D01*
X004960Y014690D02*
X000760Y014690D01*
X000560Y014490D02*
X004760Y014490D01*
X004960Y014290D02*
X000760Y014290D01*
X000560Y014090D02*
X004760Y014090D01*
X004960Y013890D02*
X000760Y013890D01*
X000560Y013690D02*
X004760Y013690D01*
X004960Y013490D02*
X000760Y013490D01*
X000560Y013290D02*
X004760Y013290D01*
X004960Y013090D02*
X000760Y013090D01*
X000560Y012890D02*
X004760Y012890D01*
X004960Y012690D02*
X000760Y012690D01*
X000560Y012490D02*
X004760Y012490D01*
X004960Y012290D02*
X000760Y012290D01*
X000560Y012090D02*
X004760Y012090D01*
X004960Y011890D02*
X000760Y011890D01*
X000560Y011690D02*
X004760Y011690D01*
X004960Y011490D02*
X000760Y011490D01*
X000560Y011290D02*
X000560Y011690D01*
X000560Y012090D01*
X000560Y012490D01*
X000560Y012890D01*
X000560Y013290D01*
X000560Y013690D01*
X000560Y014090D01*
X000560Y014490D01*
X000560Y014890D01*
X000360Y014874D02*
X000200Y014874D01*
X000200Y014972D02*
X000360Y014972D01*
X000360Y015071D02*
X000200Y015071D01*
X000200Y015169D02*
X000360Y015169D01*
X000455Y015268D02*
X000200Y015268D01*
X000200Y015366D02*
X001271Y015366D01*
X001230Y015465D02*
X000205Y015465D01*
X000214Y015563D02*
X001201Y015563D01*
X001201Y015662D02*
X000246Y015662D01*
X000278Y015760D02*
X001201Y015760D01*
X001239Y015859D02*
X000312Y015859D01*
X000384Y015957D02*
X001280Y015957D01*
X001367Y016056D02*
X000455Y016056D01*
X000557Y016154D02*
X001489Y016154D01*
X000931Y016351D02*
X024340Y016351D01*
X024340Y016253D02*
X000693Y016253D01*
X002063Y016154D02*
X003457Y016154D01*
X003336Y016056D02*
X002184Y016056D01*
X002271Y015957D02*
X003249Y015957D01*
X003208Y015859D02*
X002312Y015859D01*
X002351Y015760D02*
X003169Y015760D01*
X003169Y015662D02*
X002351Y015662D01*
X002351Y015563D02*
X003169Y015563D01*
X003199Y015465D02*
X002321Y015465D01*
X002280Y015366D02*
X003240Y015366D01*
X004249Y015366D02*
X006471Y015366D01*
X006430Y015465D02*
X004290Y015465D01*
X004319Y015563D02*
X006401Y015563D01*
X006401Y015662D02*
X004319Y015662D01*
X004319Y015760D02*
X006401Y015760D01*
X006439Y015859D02*
X004281Y015859D01*
X004240Y015957D02*
X006480Y015957D01*
X006567Y016056D02*
X004153Y016056D01*
X004031Y016154D02*
X006689Y016154D01*
X007263Y016154D02*
X008657Y016154D01*
X008536Y016056D02*
X007384Y016056D01*
X007471Y015957D02*
X008449Y015957D01*
X008408Y015859D02*
X007512Y015859D01*
X007551Y015760D02*
X008369Y015760D01*
X008369Y015662D02*
X007551Y015662D01*
X007551Y015563D02*
X008369Y015563D01*
X008399Y015465D02*
X007521Y015465D01*
X007480Y015366D02*
X008440Y015366D01*
X010160Y015090D02*
X010160Y014690D01*
X010160Y015090D02*
X005760Y015090D01*
X004960Y015090D02*
X004960Y014690D01*
X004960Y014290D01*
X004960Y013890D01*
X004960Y013490D01*
X004960Y013090D01*
X004960Y012690D01*
X004960Y012290D01*
X004960Y011890D01*
X004960Y011490D01*
X002490Y010343D02*
X002481Y010343D01*
X002740Y010106D02*
X002210Y010106D01*
X001903Y010146D02*
X000200Y010146D01*
X000200Y010244D02*
X001448Y010244D01*
X001349Y010343D02*
X000200Y010343D01*
X000200Y010441D02*
X001273Y010441D01*
X001232Y010540D02*
X000200Y010540D01*
X000200Y010638D02*
X001201Y010638D01*
X001201Y010737D02*
X000200Y010737D01*
X000200Y010835D02*
X000432Y010835D01*
X000360Y010934D02*
X000200Y010934D01*
X000200Y011032D02*
X000360Y011032D01*
X000360Y011131D02*
X000200Y011131D01*
X000200Y011229D02*
X000360Y011229D01*
X000360Y011328D02*
X000200Y011328D01*
X000200Y011426D02*
X000360Y011426D01*
X000360Y011525D02*
X000200Y011525D01*
X000200Y011623D02*
X000360Y011623D01*
X000360Y011722D02*
X000200Y011722D01*
X000200Y011820D02*
X000360Y011820D01*
X000360Y011919D02*
X000200Y011919D01*
X000200Y012017D02*
X000360Y012017D01*
X000360Y012116D02*
X000200Y012116D01*
X000200Y012214D02*
X000360Y012214D01*
X000360Y012313D02*
X000200Y012313D01*
X000200Y012411D02*
X000360Y012411D01*
X000360Y012510D02*
X000200Y012510D01*
X000200Y012608D02*
X000360Y012608D01*
X000360Y012707D02*
X000200Y012707D01*
X000200Y012805D02*
X000360Y012805D01*
X000360Y012904D02*
X000200Y012904D01*
X000200Y013002D02*
X000360Y013002D01*
X000360Y013101D02*
X000200Y013101D01*
X000200Y013199D02*
X000360Y013199D01*
X000360Y013298D02*
X000200Y013298D01*
X000200Y013396D02*
X000360Y013396D01*
X000360Y013495D02*
X000200Y013495D01*
X000200Y013593D02*
X000360Y013593D01*
X000360Y013692D02*
X000200Y013692D01*
X000200Y013790D02*
X000360Y013790D01*
X000360Y013889D02*
X000200Y013889D01*
X000200Y013987D02*
X000360Y013987D01*
X000360Y014086D02*
X000200Y014086D01*
X000200Y014184D02*
X000360Y014184D01*
X000360Y014283D02*
X000200Y014283D01*
X000200Y014381D02*
X000360Y014381D01*
X000360Y014480D02*
X000200Y014480D01*
X000200Y014578D02*
X000360Y014578D01*
X000360Y014677D02*
X000200Y014677D01*
X000200Y014775D02*
X000360Y014775D01*
X007631Y010343D02*
X007740Y010343D01*
X006718Y009752D02*
X005445Y009752D01*
X002760Y010085D02*
X002740Y010106D01*
X001958Y009850D02*
X001777Y009850D01*
X001903Y009949D02*
X000200Y009949D01*
X000200Y010047D02*
X001903Y010047D01*
X001543Y009850D02*
X000200Y009850D01*
X000200Y009752D02*
X001418Y009752D01*
X001378Y009653D02*
X000200Y009653D01*
X000200Y009555D02*
X001375Y009555D01*
X001407Y009456D02*
X000200Y009456D01*
X000200Y009358D02*
X001489Y009358D01*
X001831Y009358D02*
X001919Y009358D01*
X000875Y003546D02*
X000825Y003546D01*
X000825Y003448D02*
X000875Y003448D01*
X000875Y003349D02*
X000825Y003349D01*
X000825Y003275D02*
X000550Y003275D01*
X000550Y003270D01*
X000562Y003212D01*
X000584Y003158D01*
X000617Y003109D01*
X000659Y003067D01*
X000708Y003034D01*
X000762Y003012D01*
X000820Y003000D01*
X000825Y003000D01*
X000825Y003275D01*
X000825Y003251D02*
X000875Y003251D01*
X000875Y003152D02*
X000825Y003152D01*
X000825Y003054D02*
X000875Y003054D01*
X000679Y003054D02*
X000222Y003054D01*
X000212Y003152D02*
X000588Y003152D01*
X000554Y003251D02*
X000207Y003251D01*
X000203Y003349D02*
X000554Y003349D01*
X000588Y003448D02*
X000200Y003448D01*
X000200Y003546D02*
X000678Y003546D01*
X000320Y002561D02*
X001803Y002561D01*
X001623Y002463D02*
X000341Y002463D01*
X000382Y002364D02*
X001524Y002364D01*
X001467Y002266D02*
X000423Y002266D01*
X000464Y002167D02*
X001427Y002167D01*
X001406Y002069D02*
X000505Y002069D01*
X000545Y001970D02*
X001406Y001970D01*
X001411Y001872D02*
X000591Y001872D01*
X000657Y001773D02*
X001451Y001773D01*
X001492Y001675D02*
X000723Y001675D01*
X000789Y001576D02*
X001584Y001576D01*
X001710Y001478D02*
X000854Y001478D01*
X022331Y013495D02*
X024340Y013495D01*
X024340Y013593D02*
X022433Y013593D01*
X022515Y013692D02*
X024340Y013692D01*
X024340Y013790D02*
X022556Y013790D01*
X022594Y013889D02*
X024340Y013889D01*
X024340Y013987D02*
X022594Y013987D01*
X022594Y014086D02*
X024340Y014086D01*
X024340Y014184D02*
X022566Y014184D01*
X022526Y014283D02*
X024340Y014283D01*
X024340Y014381D02*
X022459Y014381D01*
X022360Y014480D02*
X024340Y014480D01*
X024340Y014578D02*
X022156Y014578D01*
X021115Y015563D02*
X021065Y015563D01*
X021065Y015662D02*
X021115Y015662D01*
X021115Y015760D02*
X021065Y015760D01*
X021065Y015859D02*
X021115Y015859D01*
X021115Y015957D02*
X021065Y015957D01*
X021065Y016056D02*
X021115Y016056D01*
D28*
X019960Y010990D03*
X016710Y010990D03*
X014710Y010990D03*
X011460Y010990D03*
X009560Y010990D03*
X006310Y010990D03*
X004360Y010990D03*
X001110Y010990D03*
D29*
X007410Y002940D03*
X007910Y002940D03*
X007910Y002440D03*
X007410Y002440D03*
X007410Y001940D03*
X007910Y001940D03*
D30*
X015800Y009000D03*
X015997Y009000D03*
X016194Y009000D03*
X016194Y009634D03*
X015997Y009634D03*
X015800Y009634D03*
D31*
X020263Y004190D02*
X020263Y003840D01*
X019863Y003840D01*
X019810Y003837D01*
X019857Y003840D01*
X019457Y003840D01*
X019457Y003440D02*
X019810Y003440D01*
X019810Y003443D01*
X020260Y003443D01*
X020263Y003440D01*
X020263Y003040D01*
X020657Y003040D02*
X021063Y003040D01*
X020657Y003440D02*
X020657Y003840D01*
X021063Y003840D01*
X021457Y003840D02*
X021813Y003840D01*
X021813Y003440D01*
X022207Y003440D02*
X022607Y003440D01*
X022610Y003437D01*
X022960Y003437D01*
X022963Y003890D02*
X022607Y003890D01*
X022213Y003890D02*
X022207Y003884D01*
X022207Y003440D01*
X023357Y003890D02*
X023460Y003890D01*
X023460Y004224D01*
X023460Y003890D02*
X023713Y003890D01*
X023660Y003837D01*
X023660Y003587D01*
X024110Y003587D02*
X024110Y003887D01*
X024107Y003890D01*
X024245Y003890D01*
D32*
X023910Y004390D03*
X024160Y004890D03*
X023810Y005340D03*
X023710Y006040D03*
X023760Y006940D03*
X023610Y008040D03*
X022660Y008240D03*
X021710Y008090D03*
X020760Y007990D03*
X020110Y008540D03*
X020910Y008790D03*
X021960Y008990D03*
X021610Y009390D03*
X022110Y009790D03*
X022760Y010090D03*
X023210Y010490D03*
X023910Y010840D03*
X023360Y011240D03*
X022510Y011440D03*
X021260Y011140D03*
X021810Y010640D03*
X020960Y009990D03*
X020410Y010240D03*
X018360Y010590D03*
X016710Y010140D03*
X016200Y010500D03*
X015710Y010790D03*
X015500Y010100D03*
X017160Y009490D03*
X017990Y009090D03*
X019010Y008890D03*
X016760Y008790D03*
X014960Y008290D03*
X014410Y008890D03*
X015860Y007490D03*
X017010Y007240D03*
X017450Y007150D03*
X018260Y007040D03*
X017800Y006600D03*
X016120Y006190D03*
X013600Y006800D03*
X013250Y006950D03*
X013250Y006500D03*
X011840Y005870D03*
X012360Y005490D03*
X010310Y005290D03*
X008710Y005290D03*
X006910Y005090D03*
X007910Y004190D03*
X005910Y003590D03*
X004010Y004490D03*
X003760Y003690D03*
X003710Y002940D03*
X003010Y002540D03*
X003660Y001840D03*
X004510Y002690D03*
X002360Y003790D03*
X001960Y004540D03*
X000810Y004790D03*
X001960Y005540D03*
X000610Y006490D03*
X001960Y006690D03*
X003010Y006690D03*
X004110Y006690D03*
X004160Y007640D03*
X005960Y007790D03*
X006210Y006890D03*
X004110Y005540D03*
X001910Y003190D03*
X001060Y002540D03*
X003160Y000840D03*
X004410Y000890D03*
X007660Y000840D03*
X009860Y001140D03*
X011310Y000790D03*
X012460Y000990D03*
X013060Y001340D03*
X013660Y001340D03*
X014060Y000940D03*
X014710Y000540D03*
X013420Y000400D03*
X014510Y001440D03*
X012110Y002740D03*
X012260Y003290D03*
X011840Y003750D03*
X011510Y003440D03*
X010140Y003220D03*
X010140Y002640D03*
X009860Y002140D03*
X011600Y002100D03*
X013310Y003840D03*
X016260Y003190D03*
X017710Y003190D03*
X017660Y002090D03*
X019710Y002840D03*
X020560Y002490D03*
X021160Y002490D03*
X020860Y002040D03*
X020410Y001790D03*
X020710Y001290D03*
X021210Y001040D03*
X020660Y000690D03*
X021560Y000490D03*
X022360Y000640D03*
X022910Y000640D03*
X022110Y001040D03*
X023060Y001390D03*
X023510Y001840D03*
X024060Y001540D03*
X024110Y001040D03*
X024060Y000540D03*
X024010Y002240D03*
X023810Y002740D03*
X023260Y002640D03*
X022660Y002740D03*
X022160Y002940D03*
X021760Y002740D03*
X019710Y004190D03*
X021410Y004690D03*
X021910Y004440D03*
X022660Y004440D03*
X022010Y005090D03*
X021510Y005240D03*
X021810Y006090D03*
X021660Y007040D03*
X019710Y005390D03*
X017710Y004690D03*
X016260Y004690D03*
X011510Y006990D03*
X011010Y007490D03*
X010260Y007840D03*
X008810Y007090D03*
X007960Y008320D03*
X009020Y008780D03*
X009210Y009140D03*
X010100Y009900D03*
X011010Y010440D03*
X011460Y010490D03*
X010510Y010740D03*
X011910Y009540D03*
X013160Y010640D03*
X011960Y007990D03*
X006910Y009540D03*
X006210Y008940D03*
X005300Y010000D03*
X005610Y010490D03*
X007960Y010540D03*
X003460Y009090D03*
X001660Y009590D03*
X000760Y010090D03*
X002760Y010590D03*
X001310Y008440D03*
X010060Y004040D03*
X022810Y009290D03*
X023510Y009590D03*
X023660Y008990D03*
X023760Y012040D03*
X023310Y012590D03*
X023960Y012890D03*
X023060Y013540D03*
X023860Y013740D03*
X023260Y014290D03*
X022910Y014840D03*
X023660Y015140D03*
X022960Y015940D03*
X023760Y015990D03*
X022060Y015840D03*
X021560Y015140D03*
X021260Y013490D03*
X021560Y012890D03*
X022410Y012990D03*
X022510Y012190D03*
X021760Y012190D03*
X021260Y012090D03*
X015760Y013490D03*
X015560Y015990D03*
X013060Y015990D03*
X010510Y015990D03*
X007910Y016040D03*
X005360Y015990D03*
X002710Y016040D03*
X005360Y013490D03*
X010560Y013490D03*
X018360Y016040D03*
D33*
X007910Y002940D03*
D34*
X012260Y003290D02*
X012734Y003290D01*
X012760Y003316D01*
X013310Y003316D01*
X013860Y003316D01*
X014410Y003316D01*
X018810Y004190D02*
X018860Y004190D01*
X019710Y004190D01*
X018849Y003251D02*
X019260Y002840D01*
X019710Y002840D01*
X019910Y002190D02*
X019082Y002190D01*
X019060Y002168D01*
X018851Y000921D02*
X019060Y000712D01*
X019107Y000664D02*
X019910Y000664D01*
X019710Y005390D02*
X020160Y005390D01*
X020134Y005390D02*
X020134Y005940D01*
X020134Y006490D01*
X019710Y006490D01*
X019736Y006490D02*
X019736Y005940D01*
X019710Y005940D01*
X019710Y005390D01*
X019760Y005940D02*
X020110Y005940D01*
X020134Y006490D02*
X020160Y006490D01*
X020134Y006490D02*
X020134Y007040D01*
X019736Y007040D01*
X019736Y006490D01*
X020134Y007040D02*
X020134Y007540D01*
X020110Y007564D01*
X020110Y008116D02*
X020110Y008540D01*
X017760Y009474D02*
X017760Y009490D01*
X017160Y009490D01*
X012510Y009524D02*
X011976Y009524D01*
X011910Y009540D01*
X011010Y010440D02*
X011010Y008625D01*
X007410Y009524D02*
X007410Y009540D01*
X006910Y009540D01*
X007394Y009540D02*
X007410Y009524D01*
X002210Y009574D02*
X002209Y009580D01*
X002205Y009585D01*
X002200Y009589D01*
X002194Y009590D01*
X001660Y009590D01*
X016120Y006190D02*
X016460Y006190D01*
X016460Y006214D01*
X017010Y006214D01*
D35*
X019062Y003842D02*
X019063Y003840D01*
D36*
X022660Y005590D02*
X023460Y004756D01*
X022660Y006990D02*
X022660Y007090D01*
D37*
X022660Y006990D02*
X022660Y005590D01*
X022810Y005450D01*
X023410Y004850D01*
M02*
