G75*
G70*
%OFA0B0*%
%FSLAX24Y24*%
%IPPOS*%
%LPD*%
%AMOC8*
5,1,8,0,0,1.08239X$1,22.5*
%
%ADD10C,0.0020*%
%ADD11C,0.0160*%
%ADD12C,0.0039*%
%ADD13C,0.0020*%
%ADD14C,0.0010*%
%ADD15C,0.0050*%
%ADD16C,0.0030*%
%ADD17R,0.0059X0.0118*%
%ADD18R,0.0118X0.0118*%
%ADD19C,0.0080*%
D10*
X000640Y003560D02*
X000700Y003560D01*
X000730Y003590D01*
X000730Y003650D01*
X000670Y003650D01*
X000610Y003590D02*
X000640Y003560D01*
X000610Y003590D02*
X000610Y003710D01*
X000640Y003740D01*
X000700Y003740D01*
X000730Y003710D01*
X000794Y003740D02*
X000914Y003560D01*
X000914Y003740D01*
X000978Y003740D02*
X001068Y003740D01*
X001098Y003710D01*
X001098Y003590D01*
X001068Y003560D01*
X000978Y003560D01*
X000978Y003740D01*
X000794Y003740D02*
X000794Y003560D01*
X007200Y005780D02*
X007200Y005960D01*
X007290Y005960D01*
X007320Y005930D01*
X007320Y005870D01*
X007290Y005840D01*
X007200Y005840D01*
X007260Y005840D02*
X007320Y005780D01*
X007384Y005780D02*
X007504Y005780D01*
X007444Y005780D02*
X007444Y005960D01*
X007384Y005900D01*
X007568Y005930D02*
X007598Y005960D01*
X007658Y005960D01*
X007688Y005930D01*
X007688Y005900D01*
X007568Y005780D01*
X007688Y005780D01*
X008410Y005840D02*
X008440Y005810D01*
X008500Y005810D01*
X008530Y005840D01*
X008594Y005810D02*
X008714Y005810D01*
X008654Y005810D02*
X008654Y005990D01*
X008594Y005930D01*
X008530Y005960D02*
X008500Y005990D01*
X008440Y005990D01*
X008410Y005960D01*
X008410Y005840D01*
X007490Y006697D02*
X007400Y006788D01*
X007400Y006667D01*
X007310Y006697D02*
X007490Y006697D01*
X007460Y006852D02*
X007490Y006882D01*
X007490Y006942D01*
X007460Y006972D01*
X007460Y007036D02*
X007400Y007036D01*
X007370Y007066D01*
X007370Y007156D01*
X007310Y007156D02*
X007490Y007156D01*
X007490Y007066D01*
X007460Y007036D01*
X007310Y006972D02*
X007430Y006852D01*
X007460Y006852D01*
X007310Y006852D02*
X007310Y006972D01*
X007490Y007220D02*
X007490Y007340D01*
X007490Y007280D02*
X007310Y007280D01*
X010310Y007090D02*
X010430Y007090D01*
X010370Y007090D02*
X010370Y006910D01*
X010494Y006910D02*
X010494Y007090D01*
X010584Y007090D01*
X010614Y007060D01*
X010614Y007000D01*
X010584Y006970D01*
X010494Y006970D01*
X010678Y006970D02*
X010708Y007000D01*
X010768Y007000D01*
X010798Y006970D01*
X010798Y006940D01*
X010768Y006910D01*
X010708Y006910D01*
X010678Y006940D01*
X010678Y006970D01*
X010708Y007000D02*
X010678Y007030D01*
X010678Y007060D01*
X010708Y007090D01*
X010768Y007090D01*
X010798Y007060D01*
X010798Y007030D01*
X010768Y007000D01*
X011270Y008182D02*
X011270Y008272D01*
X011300Y008302D01*
X011360Y008302D01*
X011390Y008272D01*
X011390Y008182D01*
X011390Y008242D02*
X011450Y008302D01*
X011450Y008366D02*
X011450Y008486D01*
X011450Y008426D02*
X011270Y008426D01*
X011330Y008366D01*
X011270Y008182D02*
X011450Y008182D01*
X010408Y008900D02*
X010378Y008870D01*
X010318Y008870D01*
X010288Y008900D01*
X010288Y008960D01*
X010378Y008960D01*
X010408Y008930D01*
X010408Y008900D01*
X010348Y009020D02*
X010288Y008960D01*
X010224Y008960D02*
X010194Y008930D01*
X010104Y008930D01*
X010104Y008870D02*
X010104Y009050D01*
X010194Y009050D01*
X010224Y009020D01*
X010224Y008960D01*
X010348Y009020D02*
X010408Y009050D01*
X010040Y009050D02*
X009920Y009050D01*
X009980Y009050D02*
X009980Y008870D01*
X008990Y009640D02*
X008990Y009700D01*
X008960Y009730D01*
X008960Y009794D02*
X008990Y009794D01*
X008960Y009794D02*
X008840Y009914D01*
X008810Y009914D01*
X008810Y009794D01*
X008840Y009730D02*
X008810Y009700D01*
X008810Y009640D01*
X008840Y009610D01*
X008960Y009610D01*
X008990Y009640D01*
X008400Y009610D02*
X008220Y009610D01*
X008220Y009700D01*
X008250Y009730D01*
X008310Y009730D01*
X008340Y009700D01*
X008340Y009610D01*
X008340Y009670D02*
X008400Y009730D01*
X008310Y009794D02*
X008310Y009914D01*
X008400Y009884D02*
X008220Y009884D01*
X008310Y009794D01*
X007190Y009830D02*
X007130Y009770D01*
X007130Y009800D02*
X007130Y009710D01*
X007190Y009710D02*
X007010Y009710D01*
X007010Y009800D01*
X007040Y009830D01*
X007100Y009830D01*
X007130Y009800D01*
X007160Y009894D02*
X007190Y009924D01*
X007190Y009984D01*
X007160Y010014D01*
X007040Y010014D01*
X007010Y009984D01*
X007010Y009924D01*
X007040Y009894D01*
X007070Y009894D01*
X007100Y009924D01*
X007100Y010014D01*
X007670Y010270D02*
X007790Y010270D01*
X007854Y010270D02*
X007974Y010270D01*
X008038Y010270D02*
X008128Y010270D01*
X008158Y010300D01*
X008158Y010420D01*
X008128Y010450D01*
X008038Y010450D01*
X008038Y010270D01*
X007914Y010360D02*
X007854Y010360D01*
X007854Y010450D02*
X007854Y010270D01*
X007854Y010450D02*
X007974Y010450D01*
X008222Y010420D02*
X008252Y010450D01*
X008313Y010450D01*
X008343Y010420D01*
X008343Y010390D01*
X008313Y010360D01*
X008343Y010330D01*
X008343Y010300D01*
X008313Y010270D01*
X008252Y010270D01*
X008222Y010300D01*
X008283Y010360D02*
X008313Y010360D01*
X007670Y010450D02*
X007670Y010270D01*
X005458Y009250D02*
X005458Y009220D01*
X005338Y009100D01*
X005338Y009070D01*
X005274Y009160D02*
X005244Y009130D01*
X005154Y009130D01*
X005154Y009070D02*
X005154Y009250D01*
X005244Y009250D01*
X005274Y009220D01*
X005274Y009160D01*
X005338Y009250D02*
X005458Y009250D01*
X005090Y009250D02*
X004970Y009250D01*
X005030Y009250D02*
X005030Y009070D01*
X003840Y009640D02*
X003840Y009700D01*
X003810Y009730D01*
X003810Y009794D02*
X003780Y009794D01*
X003750Y009824D01*
X003750Y009884D01*
X003780Y009914D01*
X003810Y009914D01*
X003840Y009884D01*
X003840Y009824D01*
X003810Y009794D01*
X003750Y009824D02*
X003720Y009794D01*
X003690Y009794D01*
X003660Y009824D01*
X003660Y009884D01*
X003690Y009914D01*
X003720Y009914D01*
X003750Y009884D01*
X003690Y009730D02*
X003660Y009700D01*
X003660Y009640D01*
X003690Y009610D01*
X003810Y009610D01*
X003840Y009640D01*
X003240Y009610D02*
X003060Y009610D01*
X003060Y009700D01*
X003090Y009730D01*
X003150Y009730D01*
X003180Y009700D01*
X003180Y009610D01*
X003180Y009670D02*
X003240Y009730D01*
X003210Y009794D02*
X003240Y009824D01*
X003240Y009884D01*
X003210Y009914D01*
X003150Y009914D01*
X003120Y009884D01*
X003120Y009854D01*
X003150Y009794D01*
X003060Y009794D01*
X003060Y009914D01*
X002968Y010310D02*
X002998Y010340D01*
X002998Y010460D01*
X002968Y010490D01*
X002878Y010490D01*
X002878Y010310D01*
X002968Y010310D01*
X003062Y010400D02*
X003183Y010400D01*
X003153Y010310D02*
X003153Y010490D01*
X003062Y010400D01*
X002814Y010310D02*
X002694Y010310D01*
X002694Y010490D01*
X002814Y010490D01*
X002754Y010400D02*
X002694Y010400D01*
X002630Y010310D02*
X002510Y010310D01*
X002510Y010490D01*
X001970Y010044D02*
X001940Y010074D01*
X001910Y010074D01*
X001880Y010044D01*
X001880Y009984D01*
X001850Y009954D01*
X001820Y009954D01*
X001790Y009984D01*
X001790Y010044D01*
X001820Y010074D01*
X001850Y010074D01*
X001880Y010044D01*
X001880Y009984D02*
X001910Y009954D01*
X001940Y009954D01*
X001970Y009984D01*
X001970Y010044D01*
X001970Y009890D02*
X001910Y009830D01*
X001910Y009860D02*
X001910Y009770D01*
X001970Y009770D02*
X001790Y009770D01*
X001790Y009860D01*
X001820Y009890D01*
X001880Y009890D01*
X001910Y009860D01*
X012117Y009817D02*
X012297Y009817D01*
X012297Y009757D02*
X012297Y009877D01*
X012267Y009941D02*
X012147Y010061D01*
X012267Y010061D01*
X012297Y010031D01*
X012297Y009971D01*
X012267Y009941D01*
X012147Y009941D01*
X012117Y009971D01*
X012117Y010031D01*
X012147Y010061D01*
X012117Y009817D02*
X012177Y009757D01*
X012147Y009692D02*
X012207Y009692D01*
X012237Y009662D01*
X012237Y009572D01*
X012297Y009572D02*
X012117Y009572D01*
X012117Y009662D01*
X012147Y009692D01*
X012237Y009632D02*
X012297Y009692D01*
X012830Y010270D02*
X012950Y010270D01*
X013014Y010270D02*
X013134Y010270D01*
X013198Y010270D02*
X013288Y010270D01*
X013318Y010300D01*
X013318Y010420D01*
X013288Y010450D01*
X013198Y010450D01*
X013198Y010270D01*
X013074Y010360D02*
X013014Y010360D01*
X013014Y010450D02*
X013014Y010270D01*
X013014Y010450D02*
X013134Y010450D01*
X013382Y010420D02*
X013412Y010450D01*
X013473Y010450D01*
X013503Y010420D01*
X013503Y010390D01*
X013382Y010270D01*
X013503Y010270D01*
X012830Y010270D02*
X012830Y010450D01*
X013410Y009914D02*
X013440Y009854D01*
X013500Y009794D01*
X013500Y009884D01*
X013530Y009914D01*
X013560Y009914D01*
X013590Y009884D01*
X013590Y009824D01*
X013560Y009794D01*
X013500Y009794D01*
X013560Y009730D02*
X013590Y009700D01*
X013590Y009640D01*
X013560Y009610D01*
X013440Y009610D01*
X013410Y009640D01*
X013410Y009700D01*
X013440Y009730D01*
X014010Y009700D02*
X014010Y009610D01*
X014190Y009610D01*
X014130Y009610D02*
X014130Y009700D01*
X014100Y009730D01*
X014040Y009730D01*
X014010Y009700D01*
X014040Y009794D02*
X014010Y009824D01*
X014010Y009884D01*
X014040Y009914D01*
X014070Y009914D01*
X014100Y009884D01*
X014130Y009914D01*
X014160Y009914D01*
X014190Y009884D01*
X014190Y009824D01*
X014160Y009794D01*
X014190Y009730D02*
X014130Y009670D01*
X014100Y009854D02*
X014100Y009884D01*
X014570Y008720D02*
X014690Y008720D01*
X014630Y008720D02*
X014630Y008540D01*
X014754Y008540D02*
X014754Y008720D01*
X014844Y008720D01*
X014874Y008690D01*
X014874Y008630D01*
X014844Y008600D01*
X014754Y008600D01*
X014938Y008570D02*
X014968Y008540D01*
X015028Y008540D01*
X015058Y008570D01*
X015058Y008630D01*
X015028Y008660D01*
X014998Y008660D01*
X014938Y008630D01*
X014938Y008720D01*
X015058Y008720D01*
X017350Y009600D02*
X017350Y009690D01*
X017380Y009720D01*
X017440Y009720D01*
X017470Y009690D01*
X017470Y009600D01*
X017530Y009600D02*
X017350Y009600D01*
X017470Y009660D02*
X017530Y009720D01*
X017530Y009784D02*
X017530Y009904D01*
X017530Y009844D02*
X017350Y009844D01*
X017410Y009784D01*
X017410Y009968D02*
X017350Y010028D01*
X017530Y010028D01*
X017530Y009968D02*
X017530Y010088D01*
X018080Y010200D02*
X018200Y010200D01*
X018264Y010200D02*
X018384Y010200D01*
X018448Y010200D02*
X018448Y010380D01*
X018538Y010380D01*
X018568Y010350D01*
X018568Y010230D01*
X018538Y010200D01*
X018448Y010200D01*
X018324Y010290D02*
X018264Y010290D01*
X018264Y010380D02*
X018264Y010200D01*
X018264Y010380D02*
X018384Y010380D01*
X018632Y010320D02*
X018693Y010380D01*
X018693Y010200D01*
X018753Y010200D02*
X018632Y010200D01*
X018080Y010200D02*
X018080Y010380D01*
X018640Y009844D02*
X018610Y009814D01*
X018610Y009754D01*
X018640Y009724D01*
X018640Y009660D02*
X018700Y009660D01*
X018730Y009630D01*
X018730Y009540D01*
X018790Y009540D02*
X018610Y009540D01*
X018610Y009630D01*
X018640Y009660D01*
X018730Y009600D02*
X018790Y009660D01*
X018790Y009724D02*
X018670Y009844D01*
X018640Y009844D01*
X018790Y009844D02*
X018790Y009724D01*
X019210Y009694D02*
X019300Y009694D01*
X019270Y009754D01*
X019270Y009784D01*
X019300Y009814D01*
X019360Y009814D01*
X019390Y009784D01*
X019390Y009724D01*
X019360Y009694D01*
X019360Y009630D02*
X019390Y009600D01*
X019390Y009540D01*
X019360Y009510D01*
X019240Y009510D01*
X019210Y009540D01*
X019210Y009600D01*
X019240Y009630D01*
X019210Y009694D02*
X019210Y009814D01*
X020320Y009400D02*
X020440Y009400D01*
X020380Y009400D02*
X020380Y009220D01*
X020504Y009220D02*
X020504Y009400D01*
X020594Y009400D01*
X020624Y009370D01*
X020624Y009310D01*
X020594Y009280D01*
X020504Y009280D01*
X020688Y009310D02*
X020808Y009310D01*
X020778Y009220D02*
X020778Y009400D01*
X020688Y009310D01*
X021320Y008780D02*
X021440Y008600D01*
X021504Y008600D02*
X021624Y008600D01*
X021564Y008600D02*
X021564Y008780D01*
X021504Y008720D01*
X021440Y008780D02*
X021320Y008600D01*
X021688Y008690D02*
X021808Y008690D01*
X021872Y008600D02*
X021963Y008600D01*
X021993Y008630D01*
X021993Y008750D01*
X021963Y008780D01*
X021872Y008780D01*
X021872Y008600D01*
X022057Y008600D02*
X022057Y008780D01*
X022177Y008600D01*
X022177Y008780D01*
X022241Y008780D02*
X022301Y008780D01*
X022271Y008780D02*
X022271Y008600D01*
X022241Y008600D02*
X022301Y008600D01*
X020553Y008064D02*
X020553Y008004D01*
X020523Y007974D01*
X020403Y008094D01*
X020523Y008094D01*
X020553Y008064D01*
X020523Y007974D02*
X020403Y007974D01*
X020373Y008004D01*
X020373Y008064D01*
X020403Y008094D01*
X020553Y007910D02*
X020553Y007790D01*
X020553Y007850D02*
X020373Y007850D01*
X020433Y007790D01*
X020553Y007726D02*
X020553Y007605D01*
X020373Y007605D01*
X019698Y007350D02*
X019578Y007350D01*
X019668Y007440D01*
X019668Y007260D01*
X019514Y007290D02*
X019484Y007260D01*
X019424Y007260D01*
X019394Y007290D01*
X019330Y007290D02*
X019300Y007260D01*
X019240Y007260D01*
X019210Y007290D01*
X019210Y007410D01*
X019240Y007440D01*
X019300Y007440D01*
X019330Y007410D01*
X019394Y007410D02*
X019424Y007440D01*
X019484Y007440D01*
X019514Y007410D01*
X019514Y007380D01*
X019484Y007350D01*
X019514Y007320D01*
X019514Y007290D01*
X019484Y007350D02*
X019454Y007350D01*
X018580Y007093D02*
X018580Y006972D01*
X018580Y007033D02*
X018400Y007033D01*
X018460Y006972D01*
X018460Y006908D02*
X018430Y006908D01*
X018400Y006878D01*
X018400Y006818D01*
X018430Y006788D01*
X018430Y006724D02*
X018400Y006694D01*
X018400Y006604D01*
X018580Y006604D01*
X018520Y006604D02*
X018520Y006694D01*
X018490Y006724D01*
X018430Y006724D01*
X018580Y006788D02*
X018460Y006908D01*
X018580Y006908D02*
X018580Y006788D01*
X018760Y006738D02*
X018940Y006738D01*
X018940Y006678D02*
X018940Y006798D01*
X018820Y006678D02*
X018760Y006738D01*
X018790Y006614D02*
X018820Y006614D01*
X018850Y006584D01*
X018880Y006614D01*
X018910Y006614D01*
X018940Y006584D01*
X018940Y006524D01*
X018910Y006494D01*
X018910Y006430D02*
X018940Y006400D01*
X018940Y006340D01*
X018910Y006310D01*
X018790Y006310D01*
X018760Y006340D01*
X018760Y006400D01*
X018790Y006430D01*
X018790Y006494D02*
X018760Y006524D01*
X018760Y006584D01*
X018790Y006614D01*
X018850Y006584D02*
X018850Y006554D01*
X018580Y006480D02*
X018400Y006480D01*
X018400Y006420D02*
X018400Y006540D01*
X018750Y006198D02*
X018780Y006228D01*
X018810Y006228D01*
X018840Y006198D01*
X018840Y006138D01*
X018810Y006108D01*
X018780Y006108D01*
X018750Y006138D01*
X018750Y006198D01*
X018840Y006198D02*
X018870Y006228D01*
X018900Y006228D01*
X018930Y006198D01*
X018930Y006138D01*
X018900Y006108D01*
X018870Y006108D01*
X018840Y006138D01*
X018810Y006044D02*
X018930Y005924D01*
X018930Y006044D01*
X018810Y006044D02*
X018780Y006044D01*
X018750Y006014D01*
X018750Y005954D01*
X018780Y005924D01*
X018780Y005860D02*
X018750Y005830D01*
X018750Y005770D01*
X018780Y005740D01*
X018900Y005740D01*
X018930Y005770D01*
X018930Y005830D01*
X018900Y005860D01*
X018950Y005730D02*
X019070Y005730D01*
X019010Y005730D02*
X019010Y005550D01*
X019134Y005550D02*
X019134Y005730D01*
X019224Y005730D01*
X019254Y005700D01*
X019254Y005640D01*
X019224Y005610D01*
X019134Y005610D01*
X019318Y005550D02*
X019438Y005670D01*
X019438Y005700D01*
X019408Y005730D01*
X019348Y005730D01*
X019318Y005700D01*
X019318Y005550D02*
X019438Y005550D01*
X019502Y005550D02*
X019623Y005670D01*
X019623Y005700D01*
X019593Y005730D01*
X019532Y005730D01*
X019502Y005700D01*
X019502Y005550D02*
X019623Y005550D01*
X019618Y005140D02*
X019558Y005140D01*
X019528Y005110D01*
X019464Y005110D02*
X019464Y005050D01*
X019434Y005020D01*
X019344Y005020D01*
X019344Y004960D02*
X019344Y005140D01*
X019434Y005140D01*
X019464Y005110D01*
X019618Y005140D02*
X019648Y005110D01*
X019648Y005080D01*
X019528Y004960D01*
X019648Y004960D01*
X019712Y004990D02*
X019742Y004960D01*
X019803Y004960D01*
X019833Y004990D01*
X019833Y005020D01*
X019803Y005050D01*
X019773Y005050D01*
X019803Y005050D02*
X019833Y005080D01*
X019833Y005110D01*
X019803Y005140D01*
X019742Y005140D01*
X019712Y005110D01*
X019280Y005140D02*
X019160Y005140D01*
X019220Y005140D02*
X019220Y004960D01*
X018383Y005790D02*
X018353Y005760D01*
X018292Y005760D01*
X018262Y005790D01*
X018383Y005910D01*
X018383Y005790D01*
X018383Y005910D02*
X018353Y005940D01*
X018292Y005940D01*
X018262Y005910D01*
X018262Y005790D01*
X018198Y005760D02*
X018078Y005760D01*
X018198Y005880D01*
X018198Y005910D01*
X018168Y005940D01*
X018108Y005940D01*
X018078Y005910D01*
X018014Y005910D02*
X018014Y005850D01*
X017984Y005820D01*
X017894Y005820D01*
X017894Y005760D02*
X017894Y005940D01*
X017984Y005940D01*
X018014Y005910D01*
X017830Y005940D02*
X017710Y005940D01*
X017770Y005940D02*
X017770Y005760D01*
X016923Y005870D02*
X016802Y005750D01*
X016802Y005720D01*
X016738Y005720D02*
X016618Y005720D01*
X016738Y005840D01*
X016738Y005870D01*
X016708Y005900D01*
X016648Y005900D01*
X016618Y005870D01*
X016554Y005870D02*
X016554Y005810D01*
X016524Y005780D01*
X016434Y005780D01*
X016434Y005720D02*
X016434Y005900D01*
X016524Y005900D01*
X016554Y005870D01*
X016370Y005900D02*
X016250Y005900D01*
X016310Y005900D02*
X016310Y005720D01*
X016802Y005900D02*
X016923Y005900D01*
X016923Y005870D01*
X015700Y006020D02*
X015520Y006020D01*
X015520Y005960D02*
X015520Y006080D01*
X015520Y006144D02*
X015520Y006234D01*
X015550Y006264D01*
X015610Y006264D01*
X015640Y006234D01*
X015640Y006144D01*
X015700Y006144D02*
X015520Y006144D01*
X015550Y006328D02*
X015520Y006358D01*
X015520Y006418D01*
X015550Y006448D01*
X015580Y006448D01*
X015700Y006328D01*
X015700Y006448D01*
X015670Y006512D02*
X015640Y006512D01*
X015610Y006542D01*
X015610Y006603D01*
X015640Y006633D01*
X015670Y006633D01*
X015700Y006603D01*
X015700Y006542D01*
X015670Y006512D01*
X015610Y006542D02*
X015580Y006512D01*
X015550Y006512D01*
X015520Y006542D01*
X015520Y006603D01*
X015550Y006633D01*
X015580Y006633D01*
X015610Y006603D01*
X014054Y004247D02*
X013994Y004247D01*
X013964Y004217D01*
X013964Y004187D01*
X013994Y004157D01*
X014084Y004157D01*
X014084Y004097D02*
X014084Y004217D01*
X014054Y004247D01*
X014084Y004097D02*
X014054Y004067D01*
X013994Y004067D01*
X013964Y004097D01*
X013900Y004097D02*
X013870Y004067D01*
X013810Y004067D01*
X013780Y004097D01*
X013780Y004217D01*
X013810Y004247D01*
X013870Y004247D01*
X013900Y004217D01*
X013900Y002558D02*
X013930Y002558D01*
X013960Y002528D01*
X013960Y002468D01*
X013930Y002438D01*
X013960Y002374D02*
X013960Y002254D01*
X013960Y002314D02*
X013780Y002314D01*
X013840Y002254D01*
X013810Y002190D02*
X013780Y002160D01*
X013780Y002100D01*
X013810Y002070D01*
X013930Y002070D01*
X013960Y002100D01*
X013960Y002160D01*
X013930Y002190D01*
X014310Y002140D02*
X014310Y002080D01*
X014340Y002050D01*
X014460Y002050D01*
X014490Y002080D01*
X014490Y002140D01*
X014460Y002170D01*
X014490Y002234D02*
X014490Y002354D01*
X014490Y002294D02*
X014310Y002294D01*
X014370Y002234D01*
X014340Y002170D02*
X014310Y002140D01*
X014400Y002418D02*
X014400Y002508D01*
X014430Y002538D01*
X014460Y002538D01*
X014490Y002508D01*
X014490Y002448D01*
X014460Y002418D01*
X014400Y002418D01*
X014340Y002478D01*
X014310Y002538D01*
X013900Y002558D02*
X013870Y002528D01*
X013870Y002498D01*
X013870Y002528D02*
X013840Y002558D01*
X013810Y002558D01*
X013780Y002528D01*
X013780Y002468D01*
X013810Y002438D01*
X013390Y002458D02*
X013360Y002428D01*
X013240Y002548D01*
X013360Y002548D01*
X013390Y002518D01*
X013390Y002458D01*
X013360Y002428D02*
X013240Y002428D01*
X013210Y002458D01*
X013210Y002518D01*
X013240Y002548D01*
X013390Y002364D02*
X013390Y002244D01*
X013390Y002304D02*
X013210Y002304D01*
X013270Y002244D01*
X013240Y002180D02*
X013210Y002150D01*
X013210Y002090D01*
X013240Y002060D01*
X013360Y002060D01*
X013390Y002090D01*
X013390Y002150D01*
X013360Y002180D01*
X012850Y002140D02*
X012820Y002170D01*
X012850Y002140D02*
X012850Y002080D01*
X012820Y002050D01*
X012700Y002050D01*
X012670Y002080D01*
X012670Y002140D01*
X012700Y002170D01*
X012730Y002234D02*
X012670Y002294D01*
X012850Y002294D01*
X012850Y002234D02*
X012850Y002354D01*
X012850Y002418D02*
X012730Y002538D01*
X012700Y002538D01*
X012670Y002508D01*
X012670Y002448D01*
X012700Y002418D01*
X012850Y002418D02*
X012850Y002538D01*
X014940Y001778D02*
X014940Y001718D01*
X014970Y001688D01*
X015000Y001688D01*
X015030Y001718D01*
X015030Y001808D01*
X015090Y001808D02*
X014970Y001808D01*
X014940Y001778D01*
X015090Y001808D02*
X015120Y001778D01*
X015120Y001718D01*
X015090Y001688D01*
X015030Y001624D02*
X015060Y001594D01*
X015060Y001504D01*
X015120Y001504D02*
X014940Y001504D01*
X014940Y001594D01*
X014970Y001624D01*
X015030Y001624D01*
X014940Y001440D02*
X014940Y001320D01*
X014940Y001380D02*
X015120Y001380D01*
X015280Y001373D02*
X015310Y001403D01*
X015430Y001282D01*
X015460Y001312D01*
X015460Y001373D01*
X015430Y001403D01*
X015310Y001403D01*
X015280Y001373D02*
X015280Y001312D01*
X015310Y001282D01*
X015430Y001282D01*
X015460Y001218D02*
X015460Y001098D01*
X015460Y001158D02*
X015280Y001158D01*
X015340Y001098D01*
X015370Y001034D02*
X015400Y001004D01*
X015400Y000914D01*
X015460Y000914D02*
X015280Y000914D01*
X015280Y001004D01*
X015310Y001034D01*
X015370Y001034D01*
X015280Y000850D02*
X015280Y000730D01*
X015280Y000790D02*
X015460Y000790D01*
X015910Y000800D02*
X016090Y000800D01*
X016090Y000924D02*
X015910Y000924D01*
X015910Y001014D01*
X015940Y001044D01*
X016000Y001044D01*
X016030Y001014D01*
X016030Y000924D01*
X015910Y000860D02*
X015910Y000740D01*
X015970Y001108D02*
X015910Y001168D01*
X016090Y001168D01*
X016090Y001108D02*
X016090Y001228D01*
X016090Y001292D02*
X015970Y001413D01*
X015940Y001413D01*
X015910Y001383D01*
X015910Y001322D01*
X015940Y001292D01*
X016090Y001292D02*
X016090Y001413D01*
X016210Y001420D02*
X016390Y001420D01*
X016390Y001544D02*
X016210Y001544D01*
X016210Y001634D01*
X016240Y001664D01*
X016300Y001664D01*
X016330Y001634D01*
X016330Y001544D01*
X016210Y001480D02*
X016210Y001360D01*
X016510Y001373D02*
X016600Y001282D01*
X016600Y001403D01*
X016690Y001373D02*
X016510Y001373D01*
X016510Y001158D02*
X016690Y001158D01*
X016690Y001098D02*
X016690Y001218D01*
X016810Y001310D02*
X016810Y001430D01*
X016810Y001370D02*
X016990Y001370D01*
X016990Y001494D02*
X016810Y001494D01*
X016810Y001584D01*
X016840Y001614D01*
X016900Y001614D01*
X016930Y001584D01*
X016930Y001494D01*
X016990Y001678D02*
X016990Y001798D01*
X016990Y001738D02*
X016810Y001738D01*
X016870Y001678D01*
X016900Y001862D02*
X016810Y001862D01*
X016810Y001983D01*
X016870Y001953D02*
X016900Y001983D01*
X016960Y001983D01*
X016990Y001953D01*
X016990Y001892D01*
X016960Y001862D01*
X016900Y001862D02*
X016870Y001923D01*
X016870Y001953D01*
X016390Y001942D02*
X016360Y001912D01*
X016390Y001942D02*
X016390Y002003D01*
X016360Y002033D01*
X016330Y002033D01*
X016300Y002003D01*
X016300Y001973D01*
X016300Y002003D02*
X016270Y002033D01*
X016240Y002033D01*
X016210Y002003D01*
X016210Y001942D01*
X016240Y001912D01*
X016210Y001788D02*
X016390Y001788D01*
X016390Y001728D02*
X016390Y001848D01*
X016270Y001728D02*
X016210Y001788D01*
X015800Y001768D02*
X015620Y001768D01*
X015680Y001708D01*
X015710Y001644D02*
X015740Y001614D01*
X015740Y001524D01*
X015800Y001524D02*
X015620Y001524D01*
X015620Y001614D01*
X015650Y001644D01*
X015710Y001644D01*
X015800Y001708D02*
X015800Y001828D01*
X015800Y001892D02*
X015800Y002013D01*
X015800Y001953D02*
X015620Y001953D01*
X015680Y001892D01*
X015620Y001460D02*
X015620Y001340D01*
X015620Y001400D02*
X015800Y001400D01*
X016510Y001158D02*
X016570Y001098D01*
X016600Y001034D02*
X016630Y001004D01*
X016630Y000914D01*
X016690Y000914D02*
X016510Y000914D01*
X016510Y001004D01*
X016540Y001034D01*
X016600Y001034D01*
X016510Y000850D02*
X016510Y000730D01*
X016510Y000790D02*
X016690Y000790D01*
X017160Y000790D02*
X017340Y000790D01*
X017340Y000914D02*
X017160Y000914D01*
X017160Y001004D01*
X017190Y001034D01*
X017250Y001034D01*
X017280Y001004D01*
X017280Y000914D01*
X017160Y000850D02*
X017160Y000730D01*
X017220Y001098D02*
X017160Y001158D01*
X017340Y001158D01*
X017340Y001098D02*
X017340Y001218D01*
X017310Y001282D02*
X017340Y001312D01*
X017340Y001373D01*
X017310Y001403D01*
X017280Y001403D01*
X017250Y001373D01*
X017250Y001282D01*
X017310Y001282D01*
X017250Y001282D02*
X017190Y001343D01*
X017160Y001403D01*
X017760Y001373D02*
X017790Y001403D01*
X017820Y001403D01*
X017850Y001373D01*
X017850Y001312D01*
X017820Y001282D01*
X017790Y001282D01*
X017760Y001312D01*
X017760Y001373D01*
X017850Y001373D02*
X017880Y001403D01*
X017910Y001403D01*
X017940Y001373D01*
X017940Y001312D01*
X017910Y001282D01*
X017880Y001282D01*
X017850Y001312D01*
X017940Y001218D02*
X017940Y001098D01*
X017940Y001158D02*
X017760Y001158D01*
X017820Y001098D01*
X017850Y001034D02*
X017880Y001004D01*
X017880Y000914D01*
X017940Y000914D02*
X017760Y000914D01*
X017760Y001004D01*
X017790Y001034D01*
X017850Y001034D01*
X017760Y000850D02*
X017760Y000730D01*
X017760Y000790D02*
X017940Y000790D01*
X018110Y000760D02*
X018110Y000880D01*
X018110Y000820D02*
X018290Y000820D01*
X018290Y000944D02*
X018110Y000944D01*
X018110Y001034D01*
X018140Y001064D01*
X018200Y001064D01*
X018230Y001034D01*
X018230Y000944D01*
X018290Y001128D02*
X018290Y001248D01*
X018290Y001188D02*
X018110Y001188D01*
X018170Y001128D01*
X018170Y001312D02*
X018200Y001342D01*
X018200Y001433D01*
X018260Y001433D02*
X018140Y001433D01*
X018110Y001403D01*
X018110Y001342D01*
X018140Y001312D01*
X018170Y001312D01*
X018260Y001312D02*
X018290Y001342D01*
X018290Y001403D01*
X018260Y001433D01*
X018250Y002032D02*
X018310Y002092D01*
X018400Y002092D01*
X018310Y002092D02*
X018250Y002152D01*
X018220Y002152D01*
X018280Y002216D02*
X018220Y002276D01*
X018400Y002276D01*
X018400Y002216D02*
X018400Y002336D01*
X018250Y002032D02*
X018220Y002032D01*
X020110Y001984D02*
X020110Y001924D01*
X020140Y001894D01*
X020140Y001830D02*
X020110Y001800D01*
X020110Y001740D01*
X020140Y001710D01*
X020260Y001710D01*
X020290Y001740D01*
X020290Y001800D01*
X020260Y001830D01*
X020290Y001894D02*
X020170Y002014D01*
X020140Y002014D01*
X020110Y001984D01*
X020140Y002078D02*
X020110Y002108D01*
X020110Y002168D01*
X020140Y002198D01*
X020170Y002198D01*
X020200Y002168D01*
X020230Y002198D01*
X020260Y002198D01*
X020290Y002168D01*
X020290Y002108D01*
X020260Y002078D01*
X020290Y002014D02*
X020290Y001894D01*
X020200Y002138D02*
X020200Y002168D01*
X020167Y001160D02*
X020287Y001040D01*
X020317Y001070D01*
X020317Y001130D01*
X020287Y001160D01*
X020167Y001160D01*
X020137Y001130D01*
X020137Y001070D01*
X020167Y001040D01*
X020287Y001040D01*
X020317Y000976D02*
X020317Y000856D01*
X020197Y000976D01*
X020167Y000976D01*
X020137Y000946D01*
X020137Y000886D01*
X020167Y000856D01*
X020167Y000792D02*
X020137Y000762D01*
X020137Y000702D01*
X020167Y000672D01*
X020287Y000672D01*
X020317Y000702D01*
X020317Y000762D01*
X020287Y000792D01*
X023310Y001040D02*
X023340Y001010D01*
X023400Y001010D01*
X023430Y001040D01*
X023430Y001100D01*
X023370Y001100D01*
X023310Y001160D02*
X023310Y001040D01*
X023310Y001160D02*
X023340Y001190D01*
X023400Y001190D01*
X023430Y001160D01*
X023494Y001190D02*
X023614Y001010D01*
X023614Y001190D01*
X023678Y001190D02*
X023678Y001010D01*
X023768Y001010D01*
X023798Y001040D01*
X023798Y001160D01*
X023768Y001190D01*
X023678Y001190D01*
X023494Y001190D02*
X023494Y001010D01*
X024625Y000940D02*
X024625Y000660D01*
X024625Y000753D02*
X024765Y000753D01*
X024812Y000800D01*
X024812Y000894D01*
X024765Y000940D01*
X024625Y000940D01*
X024901Y000800D02*
X024901Y000707D01*
X024948Y000660D01*
X025041Y000660D01*
X025088Y000707D01*
X025088Y000800D01*
X025041Y000847D01*
X024948Y000847D01*
X024901Y000800D01*
X025177Y000753D02*
X025271Y000847D01*
X025318Y000847D01*
X025408Y000847D02*
X025501Y000847D01*
X025454Y000894D02*
X025454Y000707D01*
X025501Y000660D01*
X025592Y000660D02*
X025685Y000660D01*
X025639Y000660D02*
X025639Y000940D01*
X025592Y000940D01*
X025823Y000847D02*
X025916Y000847D01*
X025963Y000800D01*
X025963Y000660D01*
X025823Y000660D01*
X025776Y000707D01*
X025823Y000753D01*
X025963Y000753D01*
X026052Y000660D02*
X026052Y000847D01*
X026192Y000847D01*
X026239Y000800D01*
X026239Y000660D01*
X026328Y000707D02*
X026328Y000800D01*
X026375Y000847D01*
X026515Y000847D01*
X026515Y000940D02*
X026515Y000660D01*
X026375Y000660D01*
X026328Y000707D01*
X026331Y000490D02*
X026144Y000490D01*
X026238Y000490D02*
X026238Y000210D01*
X026421Y000257D02*
X026607Y000444D01*
X026607Y000257D01*
X026561Y000210D01*
X026467Y000210D01*
X026421Y000257D01*
X026421Y000444D01*
X026467Y000490D01*
X026561Y000490D01*
X026607Y000444D01*
X026697Y000444D02*
X026697Y000397D01*
X026743Y000350D01*
X026837Y000350D01*
X026884Y000303D01*
X026884Y000257D01*
X026837Y000210D01*
X026743Y000210D01*
X026697Y000257D01*
X026697Y000303D01*
X026743Y000350D01*
X026837Y000350D02*
X026884Y000397D01*
X026884Y000444D01*
X026837Y000490D01*
X026743Y000490D01*
X026697Y000444D01*
X026928Y000660D02*
X026881Y000707D01*
X026928Y000660D02*
X027021Y000660D01*
X027068Y000707D01*
X027068Y000753D01*
X027021Y000800D01*
X026928Y000800D01*
X026881Y000847D01*
X026881Y000894D01*
X026928Y000940D01*
X027021Y000940D01*
X027068Y000894D01*
X027157Y000847D02*
X027251Y000847D01*
X027204Y000894D02*
X027204Y000707D01*
X027251Y000660D01*
X027341Y000707D02*
X027388Y000753D01*
X027528Y000753D01*
X027528Y000800D02*
X027528Y000660D01*
X027388Y000660D01*
X027341Y000707D01*
X027388Y000847D02*
X027481Y000847D01*
X027528Y000800D01*
X027618Y000847D02*
X027711Y000847D01*
X027664Y000894D02*
X027664Y000707D01*
X027711Y000660D01*
X027802Y000707D02*
X027802Y000800D01*
X027848Y000847D01*
X027942Y000847D01*
X027989Y000800D01*
X027989Y000753D01*
X027802Y000753D01*
X027802Y000707D02*
X027848Y000660D01*
X027942Y000660D01*
X028078Y000490D02*
X028265Y000210D01*
X028265Y000490D01*
X028401Y000397D02*
X028354Y000350D01*
X028354Y000257D01*
X028401Y000210D01*
X028494Y000210D01*
X028541Y000257D01*
X028541Y000350D01*
X028494Y000397D01*
X028401Y000397D01*
X028630Y000397D02*
X028724Y000210D01*
X028817Y000397D01*
X028907Y000444D02*
X028953Y000490D01*
X029047Y000490D01*
X029093Y000444D01*
X029093Y000397D01*
X028907Y000210D01*
X029093Y000210D01*
X029183Y000257D02*
X029230Y000210D01*
X029323Y000210D01*
X029370Y000257D01*
X029370Y000444D01*
X029183Y000257D01*
X029183Y000444D01*
X029230Y000490D01*
X029323Y000490D01*
X029370Y000444D01*
X029459Y000397D02*
X029553Y000490D01*
X029553Y000210D01*
X029646Y000210D02*
X029459Y000210D01*
X029735Y000350D02*
X029922Y000350D01*
X029875Y000210D02*
X029875Y000490D01*
X029735Y000350D01*
X029643Y000660D02*
X029643Y000847D01*
X029643Y000753D02*
X029737Y000847D01*
X029783Y000847D01*
X029873Y000800D02*
X029920Y000847D01*
X030060Y000847D01*
X030150Y000847D02*
X030196Y000847D01*
X030196Y000660D01*
X030150Y000660D02*
X030243Y000660D01*
X030381Y000707D02*
X030427Y000660D01*
X030381Y000707D02*
X030381Y000894D01*
X030427Y000847D02*
X030334Y000847D01*
X030196Y000940D02*
X030196Y000987D01*
X030014Y000753D02*
X029920Y000753D01*
X029873Y000800D01*
X029873Y000660D02*
X030014Y000660D01*
X030060Y000707D01*
X030014Y000753D01*
X029554Y000753D02*
X029367Y000753D01*
X029367Y000707D02*
X029367Y000800D01*
X029414Y000847D01*
X029507Y000847D01*
X029554Y000800D01*
X029554Y000753D01*
X029507Y000660D02*
X029414Y000660D01*
X029367Y000707D01*
X029278Y000847D02*
X029184Y000660D01*
X029091Y000847D01*
X028953Y000847D02*
X028953Y000660D01*
X028907Y000660D02*
X029000Y000660D01*
X028817Y000660D02*
X028817Y000800D01*
X028771Y000847D01*
X028630Y000847D01*
X028630Y000660D01*
X028541Y000707D02*
X028541Y000940D01*
X028354Y000940D02*
X028354Y000707D01*
X028401Y000660D01*
X028494Y000660D01*
X028541Y000707D01*
X028907Y000847D02*
X028953Y000847D01*
X028953Y000940D02*
X028953Y000987D01*
X028078Y000490D02*
X028078Y000210D01*
X025777Y000210D02*
X025730Y000210D01*
X025730Y000257D01*
X025777Y000257D01*
X025777Y000210D01*
X025641Y000210D02*
X025641Y000350D01*
X025594Y000397D01*
X025547Y000350D01*
X025547Y000210D01*
X025454Y000210D02*
X025454Y000397D01*
X025500Y000397D01*
X025547Y000350D01*
X025364Y000350D02*
X025364Y000210D01*
X025224Y000210D01*
X025177Y000257D01*
X025224Y000303D01*
X025364Y000303D01*
X025364Y000350D02*
X025318Y000397D01*
X025224Y000397D01*
X025088Y000350D02*
X025088Y000303D01*
X024901Y000303D01*
X024901Y000257D02*
X024901Y000350D01*
X024948Y000397D01*
X025041Y000397D01*
X025088Y000350D01*
X025041Y000210D02*
X024948Y000210D01*
X024901Y000257D01*
X024718Y000210D02*
X024718Y000490D01*
X024625Y000490D02*
X024812Y000490D01*
X025177Y000660D02*
X025177Y000847D01*
X025730Y000397D02*
X025730Y000350D01*
X025777Y000350D01*
X025777Y000397D01*
X025730Y000397D01*
X030518Y000707D02*
X030565Y000660D01*
X030705Y000660D01*
X030705Y000613D02*
X030658Y000567D01*
X030611Y000567D01*
X030705Y000613D02*
X030705Y000847D01*
X030518Y000847D02*
X030518Y000707D01*
X031117Y000490D02*
X031257Y000490D01*
X031303Y000444D01*
X031303Y000350D01*
X031257Y000303D01*
X031117Y000303D01*
X031210Y000303D02*
X031303Y000210D01*
X031393Y000257D02*
X031439Y000210D01*
X031533Y000210D01*
X031580Y000303D02*
X031393Y000303D01*
X031393Y000257D02*
X031393Y000350D01*
X031439Y000397D01*
X031533Y000397D01*
X031580Y000350D01*
X031580Y000303D01*
X031669Y000397D02*
X031762Y000210D01*
X031856Y000397D01*
X031945Y000397D02*
X032039Y000490D01*
X032132Y000397D01*
X032132Y000210D01*
X032132Y000350D02*
X031945Y000350D01*
X031945Y000397D02*
X031945Y000210D01*
X031117Y000210D02*
X031117Y000490D01*
X021090Y004690D02*
X020910Y004690D01*
X020910Y004780D01*
X020940Y004810D01*
X021000Y004810D01*
X021030Y004780D01*
X021030Y004690D01*
X021030Y004750D02*
X021090Y004810D01*
X021060Y004874D02*
X021090Y004904D01*
X021090Y004964D01*
X021060Y004994D01*
X021030Y004994D01*
X021000Y004964D01*
X021000Y004874D01*
X021060Y004874D01*
X021000Y004874D02*
X020940Y004934D01*
X020910Y004994D01*
X020930Y005130D02*
X021050Y005130D01*
X021080Y005160D01*
X021080Y005220D01*
X021050Y005250D01*
X021050Y005314D02*
X021080Y005344D01*
X021080Y005404D01*
X021050Y005434D01*
X021020Y005434D01*
X020990Y005404D01*
X020990Y005374D01*
X020990Y005404D02*
X020960Y005434D01*
X020930Y005434D01*
X020900Y005404D01*
X020900Y005344D01*
X020930Y005314D01*
X020930Y005250D02*
X020900Y005220D01*
X020900Y005160D01*
X020930Y005130D01*
X020930Y005498D02*
X020900Y005528D01*
X020900Y005588D01*
X020930Y005618D01*
X020960Y005618D01*
X020990Y005588D01*
X021020Y005618D01*
X021050Y005618D01*
X021080Y005588D01*
X021080Y005528D01*
X021050Y005498D01*
X020990Y005558D02*
X020990Y005588D01*
X021040Y005680D02*
X021070Y005710D01*
X021070Y005770D01*
X021040Y005800D01*
X021070Y005864D02*
X020950Y005984D01*
X020920Y005984D01*
X020890Y005954D01*
X020890Y005894D01*
X020920Y005864D01*
X020920Y005800D02*
X020890Y005770D01*
X020890Y005710D01*
X020920Y005680D01*
X021040Y005680D01*
X021070Y005864D02*
X021070Y005984D01*
X020980Y006048D02*
X020980Y006168D01*
X021070Y006138D02*
X020890Y006138D01*
X020980Y006048D01*
X021030Y006250D02*
X021060Y006280D01*
X021060Y006340D01*
X021030Y006370D01*
X021060Y006434D02*
X020940Y006554D01*
X020910Y006554D01*
X020880Y006524D01*
X020880Y006464D01*
X020910Y006434D01*
X020910Y006370D02*
X020880Y006340D01*
X020880Y006280D01*
X020910Y006250D01*
X021030Y006250D01*
X021060Y006434D02*
X021060Y006554D01*
X021030Y006618D02*
X021060Y006648D01*
X021060Y006708D01*
X021030Y006738D01*
X021000Y006738D01*
X020970Y006708D01*
X020970Y006618D01*
X021030Y006618D01*
X020970Y006618D02*
X020910Y006678D01*
X020880Y006738D01*
X020910Y006830D02*
X021030Y006830D01*
X021060Y006860D01*
X021060Y006920D01*
X021030Y006950D01*
X021030Y007014D02*
X021060Y007044D01*
X021060Y007104D01*
X021030Y007134D01*
X021000Y007134D01*
X020970Y007104D01*
X020970Y007074D01*
X020970Y007104D02*
X020940Y007134D01*
X020910Y007134D01*
X020880Y007104D01*
X020880Y007044D01*
X020910Y007014D01*
X020910Y006950D02*
X020880Y006920D01*
X020880Y006860D01*
X020910Y006830D01*
X020910Y007198D02*
X020880Y007228D01*
X020880Y007288D01*
X020910Y007318D01*
X021030Y007198D01*
X021060Y007228D01*
X021060Y007288D01*
X021030Y007318D01*
X020910Y007318D01*
X020910Y007198D02*
X021030Y007198D01*
X015486Y002490D02*
X015486Y002310D01*
X015426Y002310D02*
X015546Y002310D01*
X015426Y002430D02*
X015486Y002490D01*
X015362Y002490D02*
X015362Y002340D01*
X015332Y002310D01*
X015272Y002310D01*
X015242Y002340D01*
X015242Y002490D01*
X010683Y001750D02*
X010623Y001720D01*
X010562Y001660D01*
X010653Y001660D01*
X010683Y001630D01*
X010683Y001600D01*
X010653Y001570D01*
X010592Y001570D01*
X010562Y001600D01*
X010562Y001660D01*
X010498Y001690D02*
X010498Y001720D01*
X010468Y001750D01*
X010408Y001750D01*
X010378Y001720D01*
X010314Y001720D02*
X010314Y001660D01*
X010284Y001630D01*
X010194Y001630D01*
X010194Y001570D02*
X010194Y001750D01*
X010284Y001750D01*
X010314Y001720D01*
X010378Y001570D02*
X010498Y001690D01*
X010498Y001570D02*
X010378Y001570D01*
X010130Y001750D02*
X010010Y001750D01*
X010070Y001750D02*
X010070Y001570D01*
X008546Y000930D02*
X008546Y000750D01*
X008486Y000750D02*
X008606Y000750D01*
X008486Y000870D02*
X008546Y000930D01*
X008422Y000900D02*
X008392Y000930D01*
X008332Y000930D01*
X008302Y000900D01*
X008302Y000870D01*
X008332Y000840D01*
X008392Y000840D01*
X008422Y000810D01*
X008422Y000780D01*
X008392Y000750D01*
X008332Y000750D01*
X008302Y000780D01*
X008238Y000780D02*
X008238Y000930D01*
X008118Y000930D02*
X008118Y000780D01*
X008148Y000750D01*
X008208Y000750D01*
X008238Y000780D01*
X008362Y000720D02*
X008362Y000960D01*
X009590Y002850D02*
X009590Y003030D01*
X009530Y003030D02*
X009650Y003030D01*
X009714Y003030D02*
X009804Y003030D01*
X009834Y003000D01*
X009834Y002940D01*
X009804Y002910D01*
X009714Y002910D01*
X009714Y002850D02*
X009714Y003030D01*
X009898Y003000D02*
X009928Y003030D01*
X009988Y003030D01*
X010018Y003000D01*
X010018Y002970D01*
X009898Y002850D01*
X010018Y002850D01*
X010082Y002880D02*
X010112Y002850D01*
X010173Y002850D01*
X010203Y002880D01*
X010203Y002940D01*
X010173Y002970D01*
X010143Y002970D01*
X010082Y002940D01*
X010082Y003030D01*
X010203Y003030D01*
X008912Y004170D02*
X008912Y004200D01*
X009033Y004320D01*
X009033Y004350D01*
X008912Y004350D01*
X008788Y004350D02*
X008788Y004170D01*
X008728Y004170D02*
X008848Y004170D01*
X008728Y004290D02*
X008788Y004350D01*
X008664Y004320D02*
X008664Y004260D01*
X008634Y004230D01*
X008544Y004230D01*
X008544Y004170D02*
X008544Y004350D01*
X008634Y004350D01*
X008664Y004320D01*
X008480Y004350D02*
X008360Y004350D01*
X008420Y004350D02*
X008420Y004170D01*
X020850Y016110D02*
X020880Y016080D01*
X020940Y016080D01*
X020970Y016110D01*
X020970Y016170D01*
X020910Y016170D01*
X020850Y016230D02*
X020850Y016110D01*
X020850Y016230D02*
X020880Y016260D01*
X020940Y016260D01*
X020970Y016230D01*
X021034Y016260D02*
X021154Y016080D01*
X021154Y016260D01*
X021218Y016260D02*
X021308Y016260D01*
X021338Y016230D01*
X021338Y016110D01*
X021308Y016080D01*
X021218Y016080D01*
X021218Y016260D01*
X021034Y016260D02*
X021034Y016080D01*
D11*
X018758Y008720D02*
X017530Y008720D01*
X018451Y008720D02*
X018451Y007492D01*
X018758Y007492D02*
X017530Y007492D01*
X018758Y007492D02*
X019372Y008106D01*
X018758Y008720D01*
X014072Y008720D02*
X014072Y007799D01*
X013765Y007492D01*
X013458Y007492D01*
X013151Y007799D01*
X013151Y008720D01*
X012230Y008720D02*
X014072Y008720D01*
X013151Y007799D02*
X012844Y007492D01*
X012537Y007492D01*
X012230Y007799D01*
X012230Y008720D01*
X008822Y008413D02*
X008822Y007799D01*
X008515Y007492D01*
X007287Y007492D02*
X006980Y007799D01*
X006980Y008413D01*
X007287Y008720D01*
X008515Y008720D01*
X008822Y008413D01*
X003672Y008720D02*
X003672Y007799D01*
X003365Y007492D01*
X002137Y007492D01*
X001830Y007799D01*
X001830Y008720D01*
X003672Y008720D01*
D12*
X024629Y008909D02*
X024629Y008294D01*
X024778Y008294D01*
X024778Y008145D01*
X025085Y008145D01*
X025085Y008294D01*
X025234Y008294D01*
X025234Y008452D01*
X025383Y008452D01*
X025383Y008601D01*
X025542Y008601D01*
X025542Y008750D01*
X025830Y008750D01*
X025830Y008452D01*
X025681Y008452D01*
X025681Y008145D01*
X025839Y008145D01*
X025839Y008294D01*
X025988Y008294D01*
X025988Y008909D01*
X025839Y008909D01*
X025839Y009058D01*
X025532Y009058D01*
X025532Y008909D01*
X025383Y008909D01*
X025383Y008760D01*
X025224Y008760D01*
X025224Y008611D01*
X025075Y008611D01*
X025075Y008452D01*
X024788Y008452D01*
X024788Y008750D01*
X024937Y008750D01*
X024937Y009058D01*
X024778Y009058D01*
X024778Y008909D01*
X024629Y008909D01*
X024778Y009355D02*
X024778Y009504D01*
X024629Y009504D01*
X024629Y010119D01*
X024778Y010119D01*
X024778Y010268D01*
X024937Y010268D01*
X024937Y009960D01*
X024788Y009960D01*
X024788Y009663D01*
X025075Y009663D01*
X025075Y009821D01*
X025224Y009821D01*
X025224Y009970D01*
X025383Y009970D01*
X025383Y010119D01*
X025532Y010119D01*
X025532Y010268D01*
X025839Y010268D01*
X025839Y010119D01*
X025988Y010119D01*
X025988Y009504D01*
X025839Y009504D01*
X025839Y009355D01*
X025681Y009355D01*
X025681Y009663D01*
X025830Y009663D01*
X025830Y009960D01*
X025542Y009960D01*
X025542Y009812D01*
X025383Y009812D01*
X025383Y009663D01*
X025234Y009663D01*
X025234Y009504D01*
X025085Y009504D01*
X025085Y009355D01*
X024778Y009355D01*
X024629Y010556D02*
X024629Y010863D01*
X025075Y010863D01*
X025075Y011161D01*
X024629Y011161D01*
X024629Y011468D01*
X025691Y011468D01*
X025691Y011320D01*
X025839Y011320D01*
X025839Y011171D01*
X025988Y011171D01*
X025988Y010863D01*
X025839Y010863D01*
X025839Y010704D01*
X025691Y010704D01*
X025691Y010556D01*
X024629Y010556D01*
X025234Y010863D02*
X025681Y010863D01*
X025681Y011161D01*
X025234Y011161D01*
X025234Y010863D01*
X024788Y011766D02*
X024629Y011766D01*
X024629Y012679D01*
X025988Y012679D01*
X025988Y012371D01*
X024788Y012371D01*
X024788Y011766D01*
X024778Y012966D02*
X024778Y013115D01*
X024629Y013115D01*
X024629Y013730D01*
X024778Y013730D01*
X024778Y013879D01*
X025839Y013879D01*
X025839Y013730D01*
X025988Y013730D01*
X025988Y013115D01*
X025839Y013115D01*
X025839Y012966D01*
X025532Y012966D01*
X025532Y013274D01*
X025830Y013274D01*
X025830Y013572D01*
X024788Y013572D01*
X024788Y013274D01*
X025085Y013274D01*
X025085Y012966D01*
X024778Y012966D01*
X024915Y014165D02*
X024826Y014189D01*
X024737Y014213D01*
X024666Y014254D01*
X024627Y014323D01*
X024588Y014392D01*
X024581Y014489D01*
X024619Y014623D01*
X024637Y014686D01*
X024679Y014728D01*
X024738Y014757D01*
X024796Y014787D01*
X024871Y014802D01*
X024953Y014809D01*
X025035Y014816D01*
X025125Y014816D01*
X025215Y014813D01*
X025304Y014809D01*
X025393Y014804D01*
X025472Y014802D01*
X025472Y014703D01*
X025378Y014706D01*
X025267Y014712D01*
X025160Y014712D01*
X025053Y014713D01*
X024948Y014706D01*
X024780Y014664D01*
X024718Y014628D01*
X024694Y014568D01*
X024670Y014508D01*
X024685Y014423D01*
X024758Y014306D01*
X024803Y014292D01*
X024855Y014282D01*
X024969Y014269D01*
X025030Y014266D01*
X025093Y014265D01*
X025156Y014263D01*
X025220Y014263D01*
X025285Y014264D01*
X025349Y014265D01*
X025412Y014266D01*
X025472Y014266D01*
X025472Y014167D01*
X025364Y014164D01*
X025247Y014157D01*
X025135Y014158D01*
X025023Y014158D01*
X024915Y014165D01*
X024807Y014890D02*
X024739Y014907D01*
X024695Y014947D01*
X024651Y014986D01*
X024631Y015048D01*
X024626Y015117D01*
X024622Y015186D01*
X024633Y015263D01*
X024673Y015399D01*
X024700Y015460D01*
X024728Y015496D01*
X024735Y015490D01*
X024741Y015483D01*
X024748Y015476D01*
X024755Y015470D01*
X024761Y015463D01*
X024768Y015457D01*
X024775Y015450D01*
X024781Y015443D01*
X024788Y015437D01*
X024801Y015424D01*
X024808Y015417D01*
X024786Y015390D01*
X024765Y015362D01*
X024749Y015332D01*
X024732Y015303D01*
X024719Y015273D01*
X024712Y015241D01*
X024705Y015210D01*
X024704Y015177D01*
X024711Y015144D01*
X024718Y015110D01*
X024733Y015076D01*
X024758Y015040D01*
X024770Y015037D01*
X024784Y015033D01*
X024798Y015030D01*
X024813Y015027D01*
X024828Y015024D01*
X024857Y015021D01*
X024872Y015021D01*
X024886Y015024D01*
X024900Y015026D01*
X024914Y015031D01*
X024927Y015040D01*
X024942Y015070D01*
X024956Y015100D01*
X024971Y015129D01*
X025001Y015189D01*
X025016Y015219D01*
X025031Y015248D01*
X025046Y015278D01*
X025061Y015308D01*
X025075Y015338D01*
X025090Y015367D01*
X025105Y015397D01*
X025146Y015450D01*
X025187Y015476D01*
X025227Y015483D01*
X025267Y015490D01*
X025306Y015479D01*
X025341Y015456D01*
X025376Y015434D01*
X025408Y015400D01*
X025436Y015362D01*
X025463Y015325D01*
X025486Y015285D01*
X025502Y015248D01*
X025503Y015214D01*
X025501Y015182D01*
X025497Y015152D01*
X025493Y015122D01*
X025487Y015094D01*
X025478Y015069D01*
X025469Y015045D01*
X025457Y015022D01*
X025429Y014982D01*
X025412Y014965D01*
X025393Y014951D01*
X025391Y014952D01*
X025390Y014954D01*
X025388Y014956D01*
X025386Y014957D01*
X025373Y014970D01*
X025369Y014973D01*
X025365Y014975D01*
X025361Y014978D01*
X025357Y014980D01*
X025352Y014983D01*
X025348Y014985D01*
X025344Y014988D01*
X025340Y014990D01*
X025336Y014993D01*
X025332Y014995D01*
X025328Y014998D01*
X025323Y015000D01*
X025343Y015033D01*
X025361Y015063D01*
X025374Y015094D01*
X025387Y015124D01*
X025396Y015154D01*
X025399Y015183D01*
X025402Y015213D01*
X025399Y015243D01*
X025389Y015273D01*
X025379Y015304D01*
X025361Y015335D01*
X025333Y015367D01*
X025326Y015367D01*
X025318Y015366D01*
X025311Y015365D01*
X025304Y015364D01*
X025296Y015363D01*
X025289Y015362D01*
X025281Y015362D01*
X025274Y015361D01*
X025266Y015360D01*
X025259Y015359D01*
X025252Y015358D01*
X025244Y015358D01*
X025202Y015334D01*
X025174Y015297D01*
X025151Y015255D01*
X025129Y015212D01*
X025112Y015164D01*
X025094Y015116D01*
X025076Y015069D01*
X025056Y015024D01*
X025028Y014987D01*
X024999Y014950D01*
X024961Y014922D01*
X024907Y014911D01*
X024807Y014890D01*
X025148Y015559D02*
X025106Y015589D01*
X025072Y015631D01*
X025039Y015673D01*
X025014Y015728D01*
X024997Y015788D01*
X024981Y015848D01*
X024974Y015912D01*
X024976Y015973D01*
X024629Y015973D01*
X024629Y016072D01*
X025472Y016072D01*
X025474Y016023D01*
X025477Y015974D01*
X025477Y015925D01*
X025477Y015877D01*
X025475Y015831D01*
X025463Y015745D01*
X025454Y015706D01*
X025439Y015673D01*
X025423Y015640D01*
X025402Y015614D01*
X025373Y015596D01*
X025307Y015554D01*
X025249Y015542D01*
X025199Y015551D01*
X025148Y015559D01*
X025175Y015675D02*
X025186Y015676D01*
X025198Y015677D01*
X025221Y015678D01*
X025233Y015679D01*
X025244Y015680D01*
X025256Y015681D01*
X025267Y015682D01*
X025279Y015682D01*
X025290Y015683D01*
X025302Y015684D01*
X025314Y015685D01*
X025333Y015699D01*
X025348Y015715D01*
X025360Y015734D01*
X025371Y015753D01*
X025379Y015773D01*
X025385Y015797D01*
X025390Y015820D01*
X025393Y015846D01*
X025394Y015876D01*
X025395Y015905D01*
X025394Y015937D01*
X025393Y015973D01*
X025056Y015973D01*
X025054Y015931D01*
X025056Y015896D01*
X025060Y015866D01*
X025064Y015835D01*
X025071Y015810D01*
X025081Y015788D01*
X025091Y015766D01*
X025104Y015747D01*
X025119Y015729D01*
X025135Y015710D01*
X025153Y015693D01*
X025175Y015675D01*
X024629Y007847D02*
X025988Y007847D01*
X025988Y007083D01*
X025839Y007083D01*
X025839Y006934D01*
X025383Y006934D01*
X025383Y007083D01*
X025234Y007083D01*
X025234Y006934D01*
X024778Y006934D01*
X024778Y007083D01*
X024629Y007083D01*
X024629Y007847D01*
X024788Y007540D02*
X024788Y007242D01*
X025224Y007242D01*
X025224Y007540D01*
X024788Y007540D01*
X025383Y007540D02*
X025383Y007242D01*
X025830Y007242D01*
X025830Y007540D01*
X025383Y007540D01*
X025839Y006647D02*
X024778Y006647D01*
X024778Y006498D01*
X024629Y006498D01*
X024629Y005883D01*
X024778Y005883D01*
X024778Y005734D01*
X025839Y005734D01*
X025839Y005883D01*
X025988Y005883D01*
X025988Y006498D01*
X025839Y006498D01*
X025839Y006647D01*
X025830Y006339D02*
X025830Y006041D01*
X024788Y006041D01*
X024788Y006339D01*
X025830Y006339D01*
X025988Y005436D02*
X025383Y005436D01*
X025383Y005287D01*
X025224Y005287D01*
X025224Y005139D01*
X024629Y005139D01*
X024629Y004831D01*
X025224Y004831D01*
X025224Y004672D01*
X025383Y004672D01*
X025383Y004523D01*
X025988Y004523D01*
X025988Y004831D01*
X025383Y004831D01*
X025383Y005129D01*
X025988Y005129D01*
X025988Y005436D01*
D13*
X024110Y003990D02*
X024110Y003790D01*
X024060Y003790D01*
X024060Y003990D01*
X024110Y003990D01*
X024060Y003990D02*
X023760Y003990D01*
X023760Y003790D01*
X023710Y003790D01*
X023710Y003990D01*
X023760Y003990D01*
X023760Y003790D02*
X024060Y003790D01*
X024010Y003590D02*
X024210Y003590D01*
X024210Y003540D01*
X024010Y003540D01*
X024010Y003590D01*
X024010Y003540D02*
X024010Y003240D01*
X024210Y003240D01*
X024210Y003190D01*
X024010Y003190D01*
X024010Y003240D01*
X024210Y003240D02*
X024210Y003540D01*
X023760Y003540D02*
X023760Y003240D01*
X023560Y003240D01*
X023560Y003540D01*
X023760Y003540D01*
X023760Y003590D01*
X023560Y003590D01*
X023560Y003540D01*
X023560Y003240D02*
X023560Y003190D01*
X023760Y003190D01*
X023760Y003240D01*
X023060Y003090D02*
X022860Y003090D01*
X022860Y003390D01*
X023060Y003390D01*
X023060Y003090D01*
X023060Y003040D01*
X022860Y003040D01*
X022860Y003090D01*
X022710Y003090D02*
X022710Y003390D01*
X022510Y003390D01*
X022510Y003440D01*
X022710Y003440D01*
X022710Y003390D01*
X022860Y003390D02*
X022860Y003440D01*
X023060Y003440D01*
X023060Y003390D01*
X022710Y003090D02*
X022510Y003090D01*
X022510Y003390D01*
X022510Y003090D02*
X022510Y003040D01*
X022710Y003040D01*
X022710Y003090D01*
X022210Y003340D02*
X022160Y003340D01*
X022160Y003540D01*
X022210Y003540D01*
X022210Y003340D01*
X022160Y003340D02*
X021860Y003340D01*
X021860Y003540D01*
X022160Y003540D01*
X021860Y003540D02*
X021810Y003540D01*
X021810Y003340D01*
X021860Y003340D01*
X021460Y003140D02*
X021460Y002940D01*
X021410Y002940D01*
X021410Y003140D01*
X021460Y003140D01*
X021410Y003140D02*
X021110Y003140D01*
X021110Y002940D01*
X021060Y002940D01*
X021060Y003140D01*
X021110Y003140D01*
X021110Y002940D02*
X021410Y002940D01*
X020660Y002940D02*
X020610Y002940D01*
X020610Y003140D01*
X020660Y003140D01*
X020660Y002940D01*
X020610Y002940D02*
X020310Y002940D01*
X020310Y003140D01*
X020610Y003140D01*
X020610Y003340D02*
X020310Y003340D01*
X020310Y003540D01*
X020610Y003540D01*
X020610Y003340D01*
X020660Y003340D01*
X020660Y003540D01*
X020610Y003540D01*
X020610Y003740D02*
X020310Y003740D01*
X020310Y003940D01*
X020610Y003940D01*
X020610Y003740D01*
X020660Y003740D01*
X020660Y003940D01*
X020610Y003940D01*
X020610Y004090D02*
X020310Y004090D01*
X020310Y004290D01*
X020610Y004290D01*
X020610Y004090D01*
X020660Y004090D01*
X020660Y004290D01*
X020610Y004290D01*
X020310Y004290D02*
X020260Y004290D01*
X020260Y004090D01*
X020310Y004090D01*
X020310Y003940D02*
X020260Y003940D01*
X020260Y003740D01*
X020310Y003740D01*
X020310Y003540D02*
X020260Y003540D01*
X020260Y003340D01*
X020310Y003340D01*
X020310Y003140D02*
X020260Y003140D01*
X020260Y002940D01*
X020310Y002940D01*
X019460Y003340D02*
X019460Y003540D01*
X019410Y003540D01*
X019410Y003340D01*
X019110Y003340D01*
X019110Y003540D01*
X019410Y003540D01*
X019410Y003740D02*
X019110Y003740D01*
X019110Y003940D01*
X019410Y003940D01*
X019410Y003740D01*
X019460Y003740D01*
X019460Y003940D01*
X019410Y003940D01*
X019110Y003940D02*
X019060Y003940D01*
X019060Y003740D01*
X019110Y003740D01*
X019110Y003540D02*
X019060Y003540D01*
X019060Y003340D01*
X019110Y003340D01*
X019410Y003340D02*
X019460Y003340D01*
X019710Y003440D02*
X019710Y003490D01*
X019910Y003490D01*
X019910Y003440D01*
X019710Y003440D01*
X019710Y003490D02*
X019710Y003790D01*
X019910Y003790D01*
X019910Y003490D01*
X019910Y003790D02*
X019910Y003840D01*
X019710Y003840D01*
X019710Y003790D01*
X021060Y003740D02*
X021060Y003940D01*
X021110Y003940D01*
X021110Y003740D01*
X021060Y003740D01*
X021110Y003740D02*
X021410Y003740D01*
X021410Y003940D01*
X021460Y003940D01*
X021460Y003740D01*
X021410Y003740D01*
X021410Y003940D02*
X021110Y003940D01*
X022210Y003990D02*
X022210Y003790D01*
X022260Y003790D01*
X022260Y003990D01*
X022560Y003990D01*
X022560Y003790D01*
X022260Y003790D01*
X022260Y003990D02*
X022210Y003990D01*
X022560Y003990D02*
X022610Y003990D01*
X022610Y003790D01*
X022560Y003790D01*
X022960Y003790D02*
X022960Y003990D01*
X023010Y003990D01*
X023010Y003790D01*
X022960Y003790D01*
X023010Y003790D02*
X023310Y003790D01*
X023310Y003990D01*
X023360Y003990D01*
X023360Y003790D01*
X023310Y003790D01*
X023310Y003990D02*
X023010Y003990D01*
D14*
X022501Y004128D02*
X022441Y004068D01*
X022441Y004053D01*
X022409Y004053D02*
X022349Y004053D01*
X022349Y004143D01*
X022441Y004143D02*
X022501Y004143D01*
X022501Y004128D01*
X023052Y004397D02*
X023052Y004472D01*
X023077Y004497D01*
X023127Y004497D01*
X023152Y004472D01*
X023152Y004397D01*
X023202Y004397D02*
X023052Y004397D01*
X023152Y004447D02*
X023202Y004497D01*
X023202Y004545D02*
X023177Y004545D01*
X023077Y004645D01*
X023052Y004645D01*
X023052Y004545D01*
X023775Y004122D02*
X023775Y004062D01*
X023790Y004047D01*
X023820Y004047D01*
X023835Y004062D01*
X023867Y004047D02*
X023927Y004107D01*
X023927Y004122D01*
X023912Y004137D01*
X023882Y004137D01*
X023867Y004122D01*
X023835Y004122D02*
X023820Y004137D01*
X023790Y004137D01*
X023775Y004122D01*
X023867Y004047D02*
X023927Y004047D01*
X023959Y004062D02*
X023974Y004047D01*
X024004Y004047D01*
X024019Y004062D01*
X024019Y004122D01*
X024004Y004137D01*
X023974Y004137D01*
X023959Y004122D01*
X023959Y004107D01*
X023974Y004092D01*
X024019Y004092D01*
X023239Y003737D02*
X023239Y003647D01*
X023209Y003647D02*
X023269Y003647D01*
X023209Y003707D02*
X023239Y003737D01*
X023177Y003722D02*
X023162Y003737D01*
X023132Y003737D01*
X023117Y003722D01*
X023085Y003722D02*
X023070Y003737D01*
X023040Y003737D01*
X023025Y003722D01*
X023025Y003662D01*
X023040Y003647D01*
X023070Y003647D01*
X023085Y003662D01*
X023117Y003647D02*
X023177Y003707D01*
X023177Y003722D01*
X023177Y003647D02*
X023117Y003647D01*
X023432Y003311D02*
X023447Y003311D01*
X023462Y003296D01*
X023462Y003266D01*
X023447Y003251D01*
X023432Y003251D01*
X023417Y003266D01*
X023417Y003296D01*
X023432Y003311D01*
X023462Y003296D02*
X023477Y003311D01*
X023492Y003311D01*
X023507Y003296D01*
X023507Y003266D01*
X023492Y003251D01*
X023477Y003251D01*
X023462Y003266D01*
X023507Y003219D02*
X023507Y003159D01*
X023417Y003159D01*
X023213Y003104D02*
X023198Y003119D01*
X023183Y003119D01*
X023168Y003104D01*
X023168Y003059D01*
X023198Y003059D01*
X023213Y003074D01*
X023213Y003104D01*
X023168Y003059D02*
X023138Y003089D01*
X023123Y003119D01*
X023213Y003027D02*
X023213Y002967D01*
X023123Y002967D01*
X022457Y002974D02*
X022457Y003004D01*
X022442Y003019D01*
X022457Y003051D02*
X022457Y003111D01*
X022457Y003081D02*
X022367Y003081D01*
X022397Y003051D01*
X022382Y003019D02*
X022367Y003004D01*
X022367Y002974D01*
X022382Y002959D01*
X022442Y002959D01*
X022457Y002974D01*
X022442Y003143D02*
X022457Y003158D01*
X022457Y003188D01*
X022442Y003203D01*
X022382Y003203D01*
X022367Y003188D01*
X022367Y003158D01*
X022382Y003143D01*
X022397Y003143D01*
X022412Y003158D01*
X022412Y003203D01*
X022046Y003593D02*
X022016Y003593D01*
X022001Y003608D01*
X022001Y003638D02*
X022031Y003653D01*
X022046Y003653D01*
X022061Y003638D01*
X022061Y003608D01*
X022046Y003593D01*
X022001Y003638D02*
X022001Y003683D01*
X022061Y003683D01*
X021969Y003593D02*
X021909Y003593D01*
X021909Y003683D01*
X021383Y004018D02*
X021368Y004003D01*
X021338Y004003D01*
X021323Y004018D01*
X021323Y004033D01*
X021338Y004048D01*
X021368Y004048D01*
X021383Y004033D01*
X021383Y004018D01*
X021368Y004048D02*
X021383Y004063D01*
X021383Y004078D01*
X021368Y004093D01*
X021338Y004093D01*
X021323Y004078D01*
X021323Y004063D01*
X021338Y004048D01*
X021291Y004003D02*
X021231Y004003D01*
X021261Y004003D02*
X021261Y004093D01*
X021231Y004063D01*
X021199Y004078D02*
X021184Y004093D01*
X021154Y004093D01*
X021139Y004078D01*
X021139Y004018D01*
X021154Y004003D01*
X021184Y004003D01*
X021199Y004018D01*
X020564Y004337D02*
X020564Y004427D01*
X020519Y004382D01*
X020579Y004382D01*
X020487Y004337D02*
X020427Y004337D01*
X020457Y004337D02*
X020457Y004427D01*
X020427Y004397D01*
X020395Y004412D02*
X020380Y004427D01*
X020350Y004427D01*
X020335Y004412D01*
X020335Y004352D01*
X020350Y004337D01*
X020380Y004337D01*
X020395Y004352D01*
X020377Y003697D02*
X020377Y003607D01*
X020437Y003607D01*
X020469Y003652D02*
X020529Y003652D01*
X020514Y003697D02*
X020469Y003652D01*
X020514Y003607D02*
X020514Y003697D01*
X020053Y003687D02*
X020053Y003627D01*
X020053Y003657D02*
X019963Y003657D01*
X019993Y003627D01*
X019978Y003595D02*
X019963Y003580D01*
X019963Y003550D01*
X019978Y003535D01*
X020038Y003535D01*
X020053Y003550D01*
X020053Y003580D01*
X020038Y003595D01*
X020053Y003719D02*
X020053Y003779D01*
X020053Y003749D02*
X019963Y003749D01*
X019993Y003719D01*
X019339Y003597D02*
X019279Y003597D01*
X019309Y003597D02*
X019309Y003687D01*
X019279Y003657D01*
X019247Y003597D02*
X019187Y003597D01*
X019187Y003687D01*
X019177Y003287D02*
X019177Y003197D01*
X019237Y003197D01*
X019269Y003197D02*
X019329Y003257D01*
X019329Y003272D01*
X019314Y003287D01*
X019284Y003287D01*
X019269Y003272D01*
X019269Y003197D02*
X019329Y003197D01*
X020345Y003212D02*
X020360Y003197D01*
X020390Y003197D01*
X020405Y003212D01*
X020437Y003197D02*
X020497Y003197D01*
X020467Y003197D02*
X020467Y003287D01*
X020437Y003257D01*
X020405Y003272D02*
X020390Y003287D01*
X020360Y003287D01*
X020345Y003272D01*
X020345Y003212D01*
X020529Y003212D02*
X020529Y003197D01*
X020529Y003212D02*
X020589Y003272D01*
X020589Y003287D01*
X020529Y003287D01*
X021129Y003268D02*
X021129Y003208D01*
X021144Y003193D01*
X021174Y003193D01*
X021189Y003208D01*
X021221Y003193D02*
X021281Y003193D01*
X021251Y003193D02*
X021251Y003283D01*
X021221Y003253D01*
X021189Y003268D02*
X021174Y003283D01*
X021144Y003283D01*
X021129Y003268D01*
X021313Y003283D02*
X021313Y003238D01*
X021343Y003253D01*
X021358Y003253D01*
X021373Y003238D01*
X021373Y003208D01*
X021358Y003193D01*
X021328Y003193D01*
X021313Y003208D01*
X021313Y003283D02*
X021373Y003283D01*
X020541Y002868D02*
X020541Y002853D01*
X020526Y002838D01*
X020541Y002823D01*
X020541Y002808D01*
X020526Y002793D01*
X020496Y002793D01*
X020481Y002808D01*
X020449Y002793D02*
X020389Y002793D01*
X020389Y002883D01*
X020481Y002868D02*
X020496Y002883D01*
X020526Y002883D01*
X020541Y002868D01*
X020526Y002838D02*
X020511Y002838D01*
X023867Y003159D02*
X023957Y003159D01*
X023957Y003219D01*
X023942Y003251D02*
X023957Y003266D01*
X023957Y003296D01*
X023942Y003311D01*
X023882Y003311D01*
X023867Y003296D01*
X023867Y003266D01*
X023882Y003251D01*
X023897Y003251D01*
X023912Y003266D01*
X023912Y003311D01*
X016812Y006632D02*
X016812Y006682D01*
X016787Y006707D01*
X016787Y006754D02*
X016812Y006779D01*
X016812Y006829D01*
X016787Y006854D01*
X016762Y006854D01*
X016737Y006829D01*
X016737Y006804D01*
X016737Y006829D02*
X016712Y006854D01*
X016687Y006854D01*
X016662Y006829D01*
X016662Y006779D01*
X016687Y006754D01*
X016687Y006707D02*
X016662Y006682D01*
X016662Y006632D01*
X016687Y006607D01*
X016787Y006607D01*
X016812Y006632D01*
X016812Y006902D02*
X016712Y007002D01*
X016687Y007002D01*
X016662Y006977D01*
X016662Y006927D01*
X016687Y006902D01*
X016812Y006902D02*
X016812Y007002D01*
X016252Y006912D02*
X016227Y006912D01*
X016127Y007012D01*
X016102Y007012D01*
X016102Y006912D01*
X016127Y006864D02*
X016102Y006839D01*
X016102Y006789D01*
X016127Y006764D01*
X016127Y006717D02*
X016102Y006692D01*
X016102Y006642D01*
X016127Y006617D01*
X016227Y006617D01*
X016252Y006642D01*
X016252Y006692D01*
X016227Y006717D01*
X016252Y006764D02*
X016152Y006864D01*
X016127Y006864D01*
X016252Y006864D02*
X016252Y006764D01*
X015412Y006343D02*
X015412Y006318D01*
X015387Y006293D01*
X015412Y006268D01*
X015412Y006243D01*
X015387Y006218D01*
X015337Y006218D01*
X015312Y006243D01*
X015265Y006218D02*
X015165Y006218D01*
X015117Y006218D02*
X015067Y006268D01*
X015092Y006268D02*
X015017Y006268D01*
X015017Y006218D02*
X015017Y006368D01*
X015092Y006368D01*
X015117Y006343D01*
X015117Y006293D01*
X015092Y006268D01*
X015165Y006318D02*
X015215Y006368D01*
X015215Y006218D01*
X015312Y006343D02*
X015337Y006368D01*
X015387Y006368D01*
X015412Y006343D01*
X015387Y006293D02*
X015362Y006293D01*
X014872Y006283D02*
X014772Y006283D01*
X014847Y006358D01*
X014847Y006208D01*
X014725Y006208D02*
X014625Y006208D01*
X014577Y006208D02*
X014527Y006258D01*
X014552Y006258D02*
X014477Y006258D01*
X014477Y006208D02*
X014477Y006358D01*
X014552Y006358D01*
X014577Y006333D01*
X014577Y006283D01*
X014552Y006258D01*
X014625Y006308D02*
X014675Y006358D01*
X014675Y006208D01*
X014312Y006233D02*
X014287Y006208D01*
X014237Y006208D01*
X014212Y006233D01*
X014212Y006283D02*
X014262Y006308D01*
X014287Y006308D01*
X014312Y006283D01*
X014312Y006233D01*
X014212Y006283D02*
X014212Y006358D01*
X014312Y006358D01*
X014115Y006358D02*
X014115Y006208D01*
X014065Y006208D02*
X014165Y006208D01*
X014065Y006308D02*
X014115Y006358D01*
X014017Y006333D02*
X014017Y006283D01*
X013992Y006258D01*
X013917Y006258D01*
X013917Y006208D02*
X013917Y006358D01*
X013992Y006358D01*
X014017Y006333D01*
X013967Y006258D02*
X014017Y006208D01*
X013772Y006233D02*
X013772Y006258D01*
X013747Y006283D01*
X013672Y006283D01*
X013672Y006233D01*
X013697Y006208D01*
X013747Y006208D01*
X013772Y006233D01*
X013722Y006333D02*
X013672Y006283D01*
X013722Y006333D02*
X013772Y006358D01*
X013575Y006358D02*
X013575Y006208D01*
X013525Y006208D02*
X013625Y006208D01*
X013525Y006308D02*
X013575Y006358D01*
X013477Y006333D02*
X013452Y006358D01*
X013377Y006358D01*
X013377Y006208D01*
X013377Y006258D02*
X013452Y006258D01*
X013477Y006283D01*
X013477Y006333D01*
X013427Y006258D02*
X013477Y006208D01*
D15*
X013402Y006075D02*
X013698Y006075D01*
X013698Y005425D01*
X013402Y005425D01*
X013402Y006075D01*
X013408Y006033D02*
X013692Y006033D01*
X013952Y006075D02*
X014248Y006075D01*
X014248Y005425D01*
X013952Y005425D01*
X013952Y006075D01*
X013958Y006033D02*
X014242Y006033D01*
X014502Y006075D02*
X014798Y006075D01*
X014798Y005425D01*
X014502Y005425D01*
X014502Y006075D01*
X014508Y006033D02*
X014792Y006033D01*
X015052Y006075D02*
X015348Y006075D01*
X015348Y005425D01*
X015052Y005425D01*
X015052Y006075D01*
X015058Y006033D02*
X015342Y006033D01*
X016312Y006165D02*
X016312Y006815D01*
X016608Y006815D01*
X016608Y006165D01*
X016312Y006165D01*
X016318Y006207D02*
X016602Y006207D01*
X016862Y006165D02*
X016862Y006815D01*
X017158Y006815D01*
X017158Y006165D01*
X016862Y006165D01*
X016868Y006207D02*
X017152Y006207D01*
X017152Y006773D02*
X016868Y006773D01*
X016602Y006773D02*
X016318Y006773D01*
X015342Y005467D02*
X015058Y005467D01*
X014792Y005467D02*
X014508Y005467D01*
X014242Y005467D02*
X013958Y005467D01*
X013692Y005467D02*
X013408Y005467D01*
X015602Y005298D02*
X015602Y002582D01*
X018318Y002582D01*
X018318Y005298D01*
X015602Y005298D01*
X014285Y003988D02*
X013635Y003988D01*
X013635Y003692D01*
X014285Y003692D01*
X014285Y003988D01*
X014243Y003982D02*
X014243Y003698D01*
X013677Y003698D02*
X013677Y003982D01*
X013712Y003365D02*
X014008Y003365D01*
X014008Y002715D01*
X013712Y002715D01*
X013712Y003365D01*
X013718Y003323D02*
X014002Y003323D01*
X014262Y003365D02*
X014558Y003365D01*
X014558Y002715D01*
X014262Y002715D01*
X014262Y003365D01*
X014268Y003323D02*
X014552Y003323D01*
X014552Y002757D02*
X014268Y002757D01*
X014002Y002757D02*
X013718Y002757D01*
X013458Y002715D02*
X013458Y003365D01*
X013162Y003365D01*
X013162Y002715D01*
X013458Y002715D01*
X013452Y002757D02*
X013168Y002757D01*
X012908Y002715D02*
X012908Y003365D01*
X012612Y003365D01*
X012612Y002715D01*
X012908Y002715D01*
X012902Y002757D02*
X012618Y002757D01*
X012618Y003323D02*
X012902Y003323D01*
X013168Y003323D02*
X013452Y003323D01*
X018430Y002464D02*
X018430Y000416D01*
X019690Y000416D02*
X019690Y002464D01*
X019762Y002265D02*
X020058Y002265D01*
X020058Y001615D01*
X019762Y001615D01*
X019762Y002265D01*
X019768Y002223D02*
X020052Y002223D01*
X020052Y001657D02*
X019768Y001657D01*
X019762Y001265D02*
X019762Y000615D01*
X020058Y000615D01*
X020058Y001265D01*
X019762Y001265D01*
X019768Y001223D02*
X020052Y001223D01*
X020052Y000657D02*
X019768Y000657D01*
X023312Y004165D02*
X023312Y004815D01*
X023608Y004815D01*
X023608Y004165D01*
X023312Y004165D01*
X023318Y004207D02*
X023602Y004207D01*
X023602Y004773D02*
X023318Y004773D01*
X020735Y004692D02*
X020085Y004692D01*
X020085Y004988D01*
X020735Y004988D01*
X020735Y004692D01*
X020693Y004698D02*
X020693Y004982D01*
X020735Y005242D02*
X020085Y005242D01*
X020085Y005538D01*
X020735Y005538D01*
X020735Y005242D01*
X020693Y005248D02*
X020693Y005532D01*
X020127Y005532D02*
X020127Y005248D01*
X020127Y004982D02*
X020127Y004698D01*
X020085Y005792D02*
X020085Y006088D01*
X020735Y006088D01*
X020735Y005792D01*
X020085Y005792D01*
X020127Y005798D02*
X020127Y006082D01*
X019785Y006088D02*
X019785Y005792D01*
X019135Y005792D01*
X019135Y006088D01*
X019785Y006088D01*
X019743Y006082D02*
X019743Y005798D01*
X019177Y005798D02*
X019177Y006082D01*
X019135Y006342D02*
X019785Y006342D01*
X019785Y006638D01*
X019135Y006638D01*
X019135Y006342D01*
X019177Y006348D02*
X019177Y006632D01*
X019135Y006892D02*
X019785Y006892D01*
X019785Y007188D01*
X019135Y007188D01*
X019135Y006892D01*
X019177Y006898D02*
X019177Y007182D01*
X019743Y007182D02*
X019743Y006898D01*
X019743Y006632D02*
X019743Y006348D01*
X020085Y006342D02*
X020085Y006638D01*
X020735Y006638D01*
X020735Y006342D01*
X020085Y006342D01*
X020127Y006348D02*
X020127Y006632D01*
X020085Y006892D02*
X020085Y007188D01*
X020735Y007188D01*
X020735Y006892D01*
X020085Y006892D01*
X020127Y006898D02*
X020127Y007182D01*
X020258Y007515D02*
X019962Y007515D01*
X019962Y008165D01*
X020258Y008165D01*
X020258Y007515D01*
X020252Y007557D02*
X019968Y007557D01*
X020693Y007182D02*
X020693Y006898D01*
X020693Y006632D02*
X020693Y006348D01*
X020693Y006082D02*
X020693Y005798D01*
X020252Y008123D02*
X019968Y008123D01*
X019758Y009365D02*
X019462Y009365D01*
X019462Y010015D01*
X019758Y010015D01*
X019758Y009365D01*
X019752Y009407D02*
X019468Y009407D01*
X019158Y009365D02*
X018862Y009365D01*
X018862Y010015D01*
X019158Y010015D01*
X019158Y009365D01*
X019152Y009407D02*
X018868Y009407D01*
X018868Y009973D02*
X019152Y009973D01*
X019468Y009973D02*
X019752Y009973D01*
X017908Y010065D02*
X017908Y009415D01*
X017612Y009415D01*
X017612Y010065D01*
X017908Y010065D01*
X017902Y010023D02*
X017618Y010023D01*
X017618Y009457D02*
X017902Y009457D01*
X014558Y009415D02*
X014262Y009415D01*
X014262Y010065D01*
X014558Y010065D01*
X014558Y009415D01*
X014552Y009457D02*
X014268Y009457D01*
X013958Y009415D02*
X013958Y010065D01*
X013662Y010065D01*
X013662Y009415D01*
X013958Y009415D01*
X013952Y009457D02*
X013668Y009457D01*
X013668Y010023D02*
X013952Y010023D01*
X014268Y010023D02*
X014552Y010023D01*
X012658Y010115D02*
X012658Y009465D01*
X012362Y009465D01*
X012362Y010115D01*
X012658Y010115D01*
X012652Y010073D02*
X012368Y010073D01*
X012368Y009507D02*
X012652Y009507D01*
X009358Y009415D02*
X009358Y010065D01*
X009062Y010065D01*
X009062Y009415D01*
X009358Y009415D01*
X009352Y009457D02*
X009068Y009457D01*
X008758Y009415D02*
X008462Y009415D01*
X008462Y010065D01*
X008758Y010065D01*
X008758Y009415D01*
X008752Y009457D02*
X008468Y009457D01*
X008468Y010023D02*
X008752Y010023D01*
X009068Y010023D02*
X009352Y010023D01*
X007558Y010115D02*
X007558Y009465D01*
X007262Y009465D01*
X007262Y010115D01*
X007558Y010115D01*
X007552Y010073D02*
X007268Y010073D01*
X007268Y009507D02*
X007552Y009507D01*
X004208Y009465D02*
X004208Y010115D01*
X003912Y010115D01*
X003912Y009465D01*
X004208Y009465D01*
X004202Y009507D02*
X003918Y009507D01*
X003608Y009465D02*
X003312Y009465D01*
X003312Y010115D01*
X003608Y010115D01*
X003608Y009465D01*
X003602Y009507D02*
X003318Y009507D01*
X003318Y010073D02*
X003602Y010073D01*
X003918Y010073D02*
X004202Y010073D01*
X002358Y010165D02*
X002358Y009515D01*
X002062Y009515D01*
X002062Y010165D01*
X002358Y010165D01*
X002352Y010123D02*
X002068Y010123D01*
X002068Y009557D02*
X002352Y009557D01*
X008285Y006388D02*
X008935Y006388D01*
X008935Y006092D01*
X008285Y006092D01*
X008285Y006388D01*
X008327Y006382D02*
X008327Y006098D01*
X008893Y006098D02*
X008893Y006382D01*
D16*
X015816Y005011D02*
X015818Y005028D01*
X015824Y005044D01*
X015833Y005058D01*
X015845Y005070D01*
X015860Y005078D01*
X015876Y005083D01*
X015893Y005084D01*
X015910Y005081D01*
X015925Y005074D01*
X015939Y005064D01*
X015950Y005051D01*
X015958Y005036D01*
X015962Y005019D01*
X015962Y005003D01*
X015958Y004986D01*
X015950Y004971D01*
X015939Y004958D01*
X015926Y004948D01*
X015910Y004941D01*
X015893Y004938D01*
X015876Y004939D01*
X015860Y004944D01*
X015845Y004952D01*
X015833Y004964D01*
X015824Y004978D01*
X015818Y004994D01*
X015816Y005011D01*
D17*
X018212Y009631D03*
X018508Y009631D03*
X013258Y009681D03*
X012962Y009681D03*
X008108Y009681D03*
X007812Y009681D03*
X002908Y009731D03*
X002612Y009731D03*
D18*
X002760Y009731D03*
X007960Y009681D03*
X013110Y009681D03*
X018360Y009631D03*
D19*
X016391Y009630D02*
X016391Y009039D01*
X015603Y009039D02*
X015603Y009630D01*
X015508Y009079D02*
X015510Y009093D01*
X015516Y009107D01*
X015524Y009119D01*
X015536Y009127D01*
X015550Y009133D01*
X015564Y009135D01*
X015578Y009133D01*
X015592Y009127D01*
X015604Y009119D01*
X015612Y009107D01*
X015618Y009093D01*
X015620Y009079D01*
X015618Y009065D01*
X015612Y009051D01*
X015604Y009039D01*
X015592Y009031D01*
X015578Y009025D01*
X015564Y009023D01*
X015550Y009025D01*
X015536Y009031D01*
X015524Y009039D01*
X015516Y009051D01*
X015510Y009065D01*
X015508Y009079D01*
X015079Y010828D02*
X014685Y010828D01*
X015079Y010827D02*
X015118Y010829D01*
X015156Y010835D01*
X015193Y010844D01*
X015230Y010857D01*
X015265Y010874D01*
X015298Y010893D01*
X015329Y010916D01*
X015358Y010942D01*
X015384Y010971D01*
X015407Y011002D01*
X015426Y011035D01*
X015443Y011070D01*
X015456Y011107D01*
X015465Y011144D01*
X015471Y011182D01*
X015473Y011221D01*
X015472Y011221D02*
X015472Y015159D01*
X015473Y015159D02*
X015471Y015198D01*
X015465Y015236D01*
X015456Y015273D01*
X015443Y015310D01*
X015426Y015345D01*
X015407Y015378D01*
X015384Y015409D01*
X015358Y015438D01*
X015329Y015464D01*
X015298Y015487D01*
X015265Y015506D01*
X015230Y015523D01*
X015193Y015536D01*
X015156Y015545D01*
X015118Y015551D01*
X015079Y015553D01*
X015079Y015552D02*
X014685Y015552D01*
X013504Y015552D02*
X012716Y015552D01*
X011535Y015552D02*
X011141Y015552D01*
X011141Y015553D02*
X011102Y015551D01*
X011064Y015545D01*
X011027Y015536D01*
X010990Y015523D01*
X010955Y015506D01*
X010922Y015487D01*
X010891Y015464D01*
X010862Y015438D01*
X010836Y015409D01*
X010813Y015378D01*
X010794Y015345D01*
X010777Y015310D01*
X010764Y015273D01*
X010755Y015236D01*
X010749Y015198D01*
X010747Y015159D01*
X010748Y015159D02*
X010748Y011221D01*
X010747Y011221D02*
X010749Y011182D01*
X010755Y011144D01*
X010764Y011107D01*
X010777Y011070D01*
X010794Y011035D01*
X010813Y011002D01*
X010836Y010971D01*
X010862Y010942D01*
X010891Y010916D01*
X010922Y010893D01*
X010955Y010874D01*
X010990Y010857D01*
X011027Y010844D01*
X011064Y010835D01*
X011102Y010829D01*
X011141Y010827D01*
X011141Y010828D02*
X011535Y010828D01*
X012716Y010828D02*
X013504Y010828D01*
X015998Y011221D02*
X015998Y015159D01*
X015997Y015159D02*
X015999Y015198D01*
X016005Y015236D01*
X016014Y015273D01*
X016027Y015310D01*
X016044Y015345D01*
X016063Y015378D01*
X016086Y015409D01*
X016112Y015438D01*
X016141Y015464D01*
X016172Y015487D01*
X016205Y015506D01*
X016240Y015523D01*
X016277Y015536D01*
X016314Y015545D01*
X016352Y015551D01*
X016391Y015553D01*
X016391Y015552D02*
X016785Y015552D01*
X017966Y015552D02*
X018754Y015552D01*
X019935Y015552D02*
X020329Y015552D01*
X020329Y015553D02*
X020368Y015551D01*
X020406Y015545D01*
X020443Y015536D01*
X020480Y015523D01*
X020515Y015506D01*
X020548Y015487D01*
X020579Y015464D01*
X020608Y015438D01*
X020634Y015409D01*
X020657Y015378D01*
X020676Y015345D01*
X020693Y015310D01*
X020706Y015273D01*
X020715Y015236D01*
X020721Y015198D01*
X020723Y015159D01*
X020722Y015159D02*
X020722Y011221D01*
X020723Y011221D02*
X020721Y011182D01*
X020715Y011144D01*
X020706Y011107D01*
X020693Y011070D01*
X020676Y011035D01*
X020657Y011002D01*
X020634Y010971D01*
X020608Y010942D01*
X020579Y010916D01*
X020548Y010893D01*
X020515Y010874D01*
X020480Y010857D01*
X020443Y010844D01*
X020406Y010835D01*
X020368Y010829D01*
X020329Y010827D01*
X020329Y010828D02*
X019935Y010828D01*
X018754Y010828D02*
X017966Y010828D01*
X016785Y010828D02*
X016391Y010828D01*
X016391Y010827D02*
X016352Y010829D01*
X016314Y010835D01*
X016277Y010844D01*
X016240Y010857D01*
X016205Y010874D01*
X016172Y010893D01*
X016141Y010916D01*
X016112Y010942D01*
X016086Y010971D01*
X016063Y011002D01*
X016044Y011035D01*
X016027Y011070D01*
X016014Y011107D01*
X016005Y011144D01*
X015999Y011182D01*
X015997Y011221D01*
X010322Y011221D02*
X010322Y015159D01*
X010323Y015159D02*
X010321Y015198D01*
X010315Y015236D01*
X010306Y015273D01*
X010293Y015310D01*
X010276Y015345D01*
X010257Y015378D01*
X010234Y015409D01*
X010208Y015438D01*
X010179Y015464D01*
X010148Y015487D01*
X010115Y015506D01*
X010080Y015523D01*
X010043Y015536D01*
X010006Y015545D01*
X009968Y015551D01*
X009929Y015553D01*
X009929Y015552D02*
X009535Y015552D01*
X008354Y015552D02*
X007566Y015552D01*
X006385Y015552D02*
X005991Y015552D01*
X005991Y015553D02*
X005952Y015551D01*
X005914Y015545D01*
X005877Y015536D01*
X005840Y015523D01*
X005805Y015506D01*
X005772Y015487D01*
X005741Y015464D01*
X005712Y015438D01*
X005686Y015409D01*
X005663Y015378D01*
X005644Y015345D01*
X005627Y015310D01*
X005614Y015273D01*
X005605Y015236D01*
X005599Y015198D01*
X005597Y015159D01*
X005598Y015159D02*
X005598Y011221D01*
X005597Y011221D02*
X005599Y011182D01*
X005605Y011144D01*
X005614Y011107D01*
X005627Y011070D01*
X005644Y011035D01*
X005663Y011002D01*
X005686Y010971D01*
X005712Y010942D01*
X005741Y010916D01*
X005772Y010893D01*
X005805Y010874D01*
X005840Y010857D01*
X005877Y010844D01*
X005914Y010835D01*
X005952Y010829D01*
X005991Y010827D01*
X005991Y010828D02*
X006385Y010828D01*
X007566Y010828D02*
X008354Y010828D01*
X009535Y010828D02*
X009929Y010828D01*
X009929Y010827D02*
X009968Y010829D01*
X010006Y010835D01*
X010043Y010844D01*
X010080Y010857D01*
X010115Y010874D01*
X010148Y010893D01*
X010179Y010916D01*
X010208Y010942D01*
X010234Y010971D01*
X010257Y011002D01*
X010276Y011035D01*
X010293Y011070D01*
X010306Y011107D01*
X010315Y011144D01*
X010321Y011182D01*
X010323Y011221D01*
X005122Y011221D02*
X005122Y015159D01*
X005123Y015159D02*
X005121Y015198D01*
X005115Y015236D01*
X005106Y015273D01*
X005093Y015310D01*
X005076Y015345D01*
X005057Y015378D01*
X005034Y015409D01*
X005008Y015438D01*
X004979Y015464D01*
X004948Y015487D01*
X004915Y015506D01*
X004880Y015523D01*
X004843Y015536D01*
X004806Y015545D01*
X004768Y015551D01*
X004729Y015553D01*
X004729Y015552D02*
X004335Y015552D01*
X003154Y015552D02*
X002366Y015552D01*
X001185Y015552D02*
X000791Y015552D01*
X000791Y015553D02*
X000752Y015551D01*
X000714Y015545D01*
X000677Y015536D01*
X000640Y015523D01*
X000605Y015506D01*
X000572Y015487D01*
X000541Y015464D01*
X000512Y015438D01*
X000486Y015409D01*
X000463Y015378D01*
X000444Y015345D01*
X000427Y015310D01*
X000414Y015273D01*
X000405Y015236D01*
X000399Y015198D01*
X000397Y015159D01*
X000398Y015159D02*
X000398Y011221D01*
X000397Y011221D02*
X000399Y011182D01*
X000405Y011144D01*
X000414Y011107D01*
X000427Y011070D01*
X000444Y011035D01*
X000463Y011002D01*
X000486Y010971D01*
X000512Y010942D01*
X000541Y010916D01*
X000572Y010893D01*
X000605Y010874D01*
X000640Y010857D01*
X000677Y010844D01*
X000714Y010835D01*
X000752Y010829D01*
X000791Y010827D01*
X000791Y010828D02*
X001185Y010828D01*
X002366Y010828D02*
X003154Y010828D01*
X004335Y010828D02*
X004729Y010828D01*
X004729Y010827D02*
X004768Y010829D01*
X004806Y010835D01*
X004843Y010844D01*
X004880Y010857D01*
X004915Y010874D01*
X004948Y010893D01*
X004979Y010916D01*
X005008Y010942D01*
X005034Y010971D01*
X005057Y011002D01*
X005076Y011035D01*
X005093Y011070D01*
X005106Y011107D01*
X005115Y011144D01*
X005121Y011182D01*
X005123Y011221D01*
X022227Y008350D02*
X023093Y008350D01*
X021991Y007090D02*
X021993Y007141D01*
X021999Y007192D01*
X022009Y007242D01*
X022022Y007292D01*
X022040Y007340D01*
X022060Y007387D01*
X022085Y007432D01*
X022113Y007475D01*
X022144Y007516D01*
X022178Y007554D01*
X022215Y007589D01*
X022254Y007622D01*
X022296Y007652D01*
X022340Y007678D01*
X022386Y007700D01*
X022434Y007720D01*
X022483Y007735D01*
X022533Y007747D01*
X022583Y007755D01*
X022634Y007759D01*
X022686Y007759D01*
X022737Y007755D01*
X022787Y007747D01*
X022837Y007735D01*
X022886Y007720D01*
X022934Y007700D01*
X022980Y007678D01*
X023024Y007652D01*
X023066Y007622D01*
X023105Y007589D01*
X023142Y007554D01*
X023176Y007516D01*
X023207Y007475D01*
X023235Y007432D01*
X023260Y007387D01*
X023280Y007340D01*
X023298Y007292D01*
X023311Y007242D01*
X023321Y007192D01*
X023327Y007141D01*
X023329Y007090D01*
X023327Y007039D01*
X023321Y006988D01*
X023311Y006938D01*
X023298Y006888D01*
X023280Y006840D01*
X023260Y006793D01*
X023235Y006748D01*
X023207Y006705D01*
X023176Y006664D01*
X023142Y006626D01*
X023105Y006591D01*
X023066Y006558D01*
X023024Y006528D01*
X022980Y006502D01*
X022934Y006480D01*
X022886Y006460D01*
X022837Y006445D01*
X022787Y006433D01*
X022737Y006425D01*
X022686Y006421D01*
X022634Y006421D01*
X022583Y006425D01*
X022533Y006433D01*
X022483Y006445D01*
X022434Y006460D01*
X022386Y006480D01*
X022340Y006502D01*
X022296Y006528D01*
X022254Y006558D01*
X022215Y006591D01*
X022178Y006626D01*
X022144Y006664D01*
X022113Y006705D01*
X022085Y006748D01*
X022060Y006793D01*
X022040Y006840D01*
X022022Y006888D01*
X022009Y006938D01*
X021999Y006988D01*
X021993Y007039D01*
X021991Y007090D01*
X022227Y005830D02*
X023093Y005830D01*
M02*
