G75*
G70*
%OFA0B0*%
%FSLAX24Y24*%
%IPPOS*%
%LPD*%
%AMOC8*
5,1,8,0,0,1.08239X$1,22.5*
%
%ADD10C,0.0000*%
%ADD11C,0.0098*%
%ADD12C,0.0100*%
%ADD13C,0.0060*%
D10*
X005661Y000151D02*
X005661Y024954D01*
X022197Y024954D01*
X022197Y000151D01*
X005661Y000151D01*
X007690Y001253D02*
X007692Y001283D01*
X007698Y001313D01*
X007707Y001341D01*
X007720Y001368D01*
X007737Y001394D01*
X007756Y001416D01*
X007778Y001437D01*
X007803Y001454D01*
X007830Y001468D01*
X007858Y001478D01*
X007887Y001485D01*
X007917Y001488D01*
X007948Y001487D01*
X007977Y001482D01*
X008006Y001474D01*
X008034Y001461D01*
X008059Y001446D01*
X008083Y001427D01*
X008104Y001405D01*
X008122Y001381D01*
X008137Y001355D01*
X008148Y001327D01*
X008156Y001298D01*
X008160Y001268D01*
X008160Y001238D01*
X008156Y001208D01*
X008148Y001179D01*
X008137Y001151D01*
X008122Y001125D01*
X008104Y001101D01*
X008083Y001079D01*
X008059Y001060D01*
X008034Y001045D01*
X008006Y001032D01*
X007977Y001024D01*
X007948Y001019D01*
X007917Y001018D01*
X007887Y001021D01*
X007858Y001028D01*
X007830Y001038D01*
X007803Y001052D01*
X007778Y001069D01*
X007756Y001090D01*
X007737Y001112D01*
X007720Y001138D01*
X007707Y001165D01*
X007698Y001193D01*
X007692Y001223D01*
X007690Y001253D01*
X007690Y007002D02*
X007692Y007032D01*
X007698Y007062D01*
X007707Y007090D01*
X007720Y007117D01*
X007737Y007143D01*
X007756Y007165D01*
X007778Y007186D01*
X007803Y007203D01*
X007830Y007217D01*
X007858Y007227D01*
X007887Y007234D01*
X007917Y007237D01*
X007948Y007236D01*
X007977Y007231D01*
X008006Y007223D01*
X008034Y007210D01*
X008059Y007195D01*
X008083Y007176D01*
X008104Y007154D01*
X008122Y007130D01*
X008137Y007104D01*
X008148Y007076D01*
X008156Y007047D01*
X008160Y007017D01*
X008160Y006987D01*
X008156Y006957D01*
X008148Y006928D01*
X008137Y006900D01*
X008122Y006874D01*
X008104Y006850D01*
X008083Y006828D01*
X008059Y006809D01*
X008034Y006794D01*
X008006Y006781D01*
X007977Y006773D01*
X007948Y006768D01*
X007917Y006767D01*
X007887Y006770D01*
X007858Y006777D01*
X007830Y006787D01*
X007803Y006801D01*
X007778Y006818D01*
X007756Y006839D01*
X007737Y006861D01*
X007720Y006887D01*
X007707Y006914D01*
X007698Y006942D01*
X007692Y006972D01*
X007690Y007002D01*
X010976Y013419D02*
X010978Y013446D01*
X010984Y013473D01*
X010993Y013499D01*
X011006Y013523D01*
X011022Y013546D01*
X011041Y013565D01*
X011063Y013582D01*
X011087Y013596D01*
X011112Y013606D01*
X011139Y013613D01*
X011166Y013616D01*
X011194Y013615D01*
X011221Y013610D01*
X011247Y013602D01*
X011271Y013590D01*
X011294Y013574D01*
X011315Y013556D01*
X011332Y013535D01*
X011347Y013511D01*
X011358Y013486D01*
X011366Y013460D01*
X011370Y013433D01*
X011370Y013405D01*
X011366Y013378D01*
X011358Y013352D01*
X011347Y013327D01*
X011332Y013303D01*
X011315Y013282D01*
X011294Y013264D01*
X011272Y013248D01*
X011247Y013236D01*
X011221Y013228D01*
X011194Y013223D01*
X011166Y013222D01*
X011139Y013225D01*
X011112Y013232D01*
X011087Y013242D01*
X011063Y013256D01*
X011041Y013273D01*
X011022Y013292D01*
X011006Y013315D01*
X010993Y013339D01*
X010984Y013365D01*
X010978Y013392D01*
X010976Y013419D01*
X010878Y015604D02*
X010880Y015638D01*
X010886Y015672D01*
X010896Y015705D01*
X010909Y015736D01*
X010927Y015766D01*
X010947Y015794D01*
X010971Y015819D01*
X010997Y015841D01*
X011025Y015859D01*
X011056Y015875D01*
X011088Y015887D01*
X011122Y015895D01*
X011156Y015899D01*
X011190Y015899D01*
X011224Y015895D01*
X011258Y015887D01*
X011290Y015875D01*
X011320Y015859D01*
X011349Y015841D01*
X011375Y015819D01*
X011399Y015794D01*
X011419Y015766D01*
X011437Y015736D01*
X011450Y015705D01*
X011460Y015672D01*
X011466Y015638D01*
X011468Y015604D01*
X011466Y015570D01*
X011460Y015536D01*
X011450Y015503D01*
X011437Y015472D01*
X011419Y015442D01*
X011399Y015414D01*
X011375Y015389D01*
X011349Y015367D01*
X011321Y015349D01*
X011290Y015333D01*
X011258Y015321D01*
X011224Y015313D01*
X011190Y015309D01*
X011156Y015309D01*
X011122Y015313D01*
X011088Y015321D01*
X011056Y015333D01*
X011025Y015349D01*
X010997Y015367D01*
X010971Y015389D01*
X010947Y015414D01*
X010927Y015442D01*
X010909Y015472D01*
X010896Y015503D01*
X010886Y015536D01*
X010880Y015570D01*
X010878Y015604D01*
X019698Y007002D02*
X019700Y007032D01*
X019706Y007062D01*
X019715Y007090D01*
X019728Y007117D01*
X019745Y007143D01*
X019764Y007165D01*
X019786Y007186D01*
X019811Y007203D01*
X019838Y007217D01*
X019866Y007227D01*
X019895Y007234D01*
X019925Y007237D01*
X019956Y007236D01*
X019985Y007231D01*
X020014Y007223D01*
X020042Y007210D01*
X020067Y007195D01*
X020091Y007176D01*
X020112Y007154D01*
X020130Y007130D01*
X020145Y007104D01*
X020156Y007076D01*
X020164Y007047D01*
X020168Y007017D01*
X020168Y006987D01*
X020164Y006957D01*
X020156Y006928D01*
X020145Y006900D01*
X020130Y006874D01*
X020112Y006850D01*
X020091Y006828D01*
X020067Y006809D01*
X020042Y006794D01*
X020014Y006781D01*
X019985Y006773D01*
X019956Y006768D01*
X019925Y006767D01*
X019895Y006770D01*
X019866Y006777D01*
X019838Y006787D01*
X019811Y006801D01*
X019786Y006818D01*
X019764Y006839D01*
X019745Y006861D01*
X019728Y006887D01*
X019715Y006914D01*
X019706Y006942D01*
X019700Y006972D01*
X019698Y007002D01*
X019698Y001253D02*
X019700Y001283D01*
X019706Y001313D01*
X019715Y001341D01*
X019728Y001368D01*
X019745Y001394D01*
X019764Y001416D01*
X019786Y001437D01*
X019811Y001454D01*
X019838Y001468D01*
X019866Y001478D01*
X019895Y001485D01*
X019925Y001488D01*
X019956Y001487D01*
X019985Y001482D01*
X020014Y001474D01*
X020042Y001461D01*
X020067Y001446D01*
X020091Y001427D01*
X020112Y001405D01*
X020130Y001381D01*
X020145Y001355D01*
X020156Y001327D01*
X020164Y001298D01*
X020168Y001268D01*
X020168Y001238D01*
X020164Y001208D01*
X020156Y001179D01*
X020145Y001151D01*
X020130Y001125D01*
X020112Y001101D01*
X020091Y001079D01*
X020067Y001060D01*
X020042Y001045D01*
X020014Y001032D01*
X019985Y001024D01*
X019956Y001019D01*
X019925Y001018D01*
X019895Y001021D01*
X019866Y001028D01*
X019838Y001038D01*
X019811Y001052D01*
X019786Y001069D01*
X019764Y001090D01*
X019745Y001112D01*
X019728Y001138D01*
X019715Y001165D01*
X019706Y001193D01*
X019700Y001223D01*
X019698Y001253D01*
D11*
X019685Y001051D02*
X019685Y001551D01*
X019334Y001551D01*
X019334Y001553D02*
X019334Y001878D01*
X019102Y001878D01*
X019334Y001878D02*
X019334Y002378D01*
X019102Y002378D01*
X019334Y002378D02*
X019334Y002878D01*
X019102Y002878D01*
X019334Y002878D02*
X019334Y003378D01*
X019102Y003378D01*
X019334Y003378D02*
X019334Y003878D01*
X019102Y003878D01*
X019334Y003878D02*
X019334Y004378D01*
X019102Y004378D01*
X019334Y004378D02*
X019334Y004878D01*
X019102Y004878D01*
X019334Y004878D02*
X019334Y005378D01*
X019102Y005378D01*
X019334Y005378D02*
X019334Y005878D01*
X019183Y005878D01*
X019102Y005878D01*
X019334Y005878D02*
X019334Y006378D01*
X019183Y006378D01*
X019102Y006378D01*
X019334Y006378D02*
X019334Y006704D01*
X019685Y006704D01*
X019685Y007204D01*
X019484Y007204D02*
X019484Y006901D01*
X018858Y006901D01*
X018858Y001354D01*
X019484Y001354D01*
X019484Y001051D01*
X019486Y001010D01*
X019492Y000968D01*
X019501Y000928D01*
X019514Y000889D01*
X019531Y000851D01*
X019551Y000815D01*
X019575Y000780D01*
X019601Y000749D01*
X019631Y000719D01*
X019662Y000693D01*
X019697Y000669D01*
X019733Y000649D01*
X019771Y000632D01*
X019810Y000619D01*
X019850Y000610D01*
X019892Y000604D01*
X019933Y000602D01*
X019974Y000604D01*
X020016Y000610D01*
X020056Y000619D01*
X020095Y000632D01*
X020133Y000649D01*
X020169Y000669D01*
X020204Y000693D01*
X020235Y000719D01*
X020265Y000749D01*
X020291Y000780D01*
X020315Y000815D01*
X020335Y000851D01*
X020352Y000889D01*
X020365Y000928D01*
X020374Y000968D01*
X020380Y001010D01*
X020382Y001051D01*
X020382Y001354D01*
X021008Y001354D01*
X021008Y006901D01*
X020382Y006901D01*
X020382Y007204D01*
X020181Y007204D02*
X020181Y006704D01*
X020531Y006704D01*
X020531Y006378D01*
X020763Y006378D01*
X020531Y006378D02*
X020531Y005878D01*
X020763Y005878D01*
X020531Y005878D02*
X020531Y005378D01*
X020763Y005378D01*
X020531Y005378D02*
X020531Y004878D01*
X020763Y004878D01*
X020531Y004878D02*
X020531Y004378D01*
X020763Y004378D01*
X020531Y004378D02*
X020531Y003878D01*
X020763Y003878D01*
X020531Y003878D02*
X020531Y003378D01*
X020763Y003378D01*
X020531Y003378D02*
X020531Y002878D01*
X020763Y002878D01*
X020531Y002878D02*
X020531Y002378D01*
X020763Y002378D01*
X020531Y002378D02*
X020531Y001878D01*
X020531Y001553D01*
X020533Y001551D02*
X020181Y001551D01*
X020181Y001051D01*
X020179Y001021D01*
X020174Y000992D01*
X020165Y000963D01*
X020153Y000936D01*
X020137Y000910D01*
X020119Y000887D01*
X020097Y000865D01*
X020074Y000847D01*
X020048Y000831D01*
X020021Y000819D01*
X019992Y000810D01*
X019963Y000805D01*
X019933Y000803D01*
X019903Y000805D01*
X019874Y000810D01*
X019845Y000819D01*
X019818Y000831D01*
X019792Y000847D01*
X019769Y000865D01*
X019747Y000887D01*
X019729Y000910D01*
X019713Y000936D01*
X019701Y000963D01*
X019692Y000992D01*
X019687Y001021D01*
X019685Y001051D01*
X020531Y001878D02*
X020763Y001878D01*
X020382Y007204D02*
X020380Y007245D01*
X020374Y007287D01*
X020365Y007327D01*
X020352Y007366D01*
X020335Y007404D01*
X020315Y007440D01*
X020291Y007475D01*
X020265Y007506D01*
X020235Y007536D01*
X020204Y007562D01*
X020169Y007586D01*
X020133Y007606D01*
X020095Y007623D01*
X020056Y007636D01*
X020016Y007645D01*
X019974Y007651D01*
X019933Y007653D01*
X019892Y007651D01*
X019850Y007645D01*
X019810Y007636D01*
X019771Y007623D01*
X019733Y007606D01*
X019697Y007586D01*
X019662Y007562D01*
X019631Y007536D01*
X019601Y007506D01*
X019575Y007475D01*
X019551Y007440D01*
X019531Y007404D01*
X019514Y007366D01*
X019501Y007327D01*
X019492Y007287D01*
X019486Y007245D01*
X019484Y007204D01*
X019685Y007204D02*
X019687Y007234D01*
X019692Y007263D01*
X019701Y007292D01*
X019713Y007319D01*
X019729Y007345D01*
X019747Y007368D01*
X019769Y007390D01*
X019792Y007408D01*
X019818Y007424D01*
X019845Y007436D01*
X019874Y007445D01*
X019903Y007450D01*
X019933Y007452D01*
X019963Y007450D01*
X019992Y007445D01*
X020021Y007436D01*
X020048Y007424D01*
X020074Y007408D01*
X020097Y007390D01*
X020119Y007368D01*
X020137Y007345D01*
X020153Y007319D01*
X020165Y007292D01*
X020174Y007263D01*
X020179Y007234D01*
X020181Y007204D01*
X009000Y006901D02*
X009000Y001354D01*
X008374Y001354D01*
X008374Y001051D01*
X008173Y001051D02*
X008173Y001551D01*
X008525Y001551D01*
X008523Y001553D02*
X008523Y001878D01*
X008756Y001878D01*
X008523Y001878D02*
X008523Y002378D01*
X008756Y002378D01*
X008523Y002378D02*
X008523Y002878D01*
X008756Y002878D01*
X008523Y002878D02*
X008523Y003378D01*
X008756Y003378D01*
X008523Y003378D02*
X008523Y003878D01*
X008756Y003878D01*
X008523Y003878D02*
X008523Y004378D01*
X008756Y004378D01*
X008523Y004378D02*
X008523Y004878D01*
X008756Y004878D01*
X008523Y004878D02*
X008523Y005378D01*
X008756Y005378D01*
X008523Y005378D02*
X008523Y005878D01*
X008756Y005878D01*
X008523Y005878D02*
X008523Y006378D01*
X008756Y006378D01*
X008523Y006378D02*
X008523Y006704D01*
X008173Y006704D01*
X008173Y007204D01*
X008374Y007204D02*
X008374Y006901D01*
X009000Y006901D01*
X008374Y007204D02*
X008372Y007245D01*
X008366Y007287D01*
X008357Y007327D01*
X008344Y007366D01*
X008327Y007404D01*
X008307Y007440D01*
X008283Y007475D01*
X008257Y007506D01*
X008227Y007536D01*
X008196Y007562D01*
X008161Y007586D01*
X008125Y007606D01*
X008087Y007623D01*
X008048Y007636D01*
X008008Y007645D01*
X007966Y007651D01*
X007925Y007653D01*
X007884Y007651D01*
X007842Y007645D01*
X007802Y007636D01*
X007763Y007623D01*
X007725Y007606D01*
X007689Y007586D01*
X007654Y007562D01*
X007623Y007536D01*
X007593Y007506D01*
X007567Y007475D01*
X007543Y007440D01*
X007523Y007404D01*
X007506Y007366D01*
X007493Y007327D01*
X007484Y007287D01*
X007478Y007245D01*
X007476Y007204D01*
X007476Y006901D01*
X006850Y006901D01*
X006850Y001354D01*
X007476Y001354D01*
X007476Y001051D01*
X007677Y001051D02*
X007677Y001551D01*
X007326Y001551D01*
X007326Y001553D02*
X007326Y001878D01*
X007094Y001878D01*
X007326Y001878D02*
X007326Y002378D01*
X007094Y002378D01*
X007326Y002378D02*
X007326Y002878D01*
X007094Y002878D01*
X007326Y002878D02*
X007326Y003378D01*
X007094Y003378D01*
X007326Y003378D02*
X007326Y003878D01*
X007094Y003878D01*
X007326Y003878D02*
X007326Y004378D01*
X007094Y004378D01*
X007326Y004378D02*
X007326Y004878D01*
X007094Y004878D01*
X007326Y004878D02*
X007326Y005378D01*
X007094Y005378D01*
X007326Y005378D02*
X007326Y005878D01*
X007175Y005878D01*
X007094Y005878D01*
X007326Y005878D02*
X007326Y006378D01*
X007175Y006378D01*
X007094Y006378D01*
X007326Y006378D02*
X007326Y006704D01*
X007677Y006704D01*
X007677Y007204D01*
X007679Y007234D01*
X007684Y007263D01*
X007693Y007292D01*
X007705Y007319D01*
X007721Y007345D01*
X007739Y007368D01*
X007761Y007390D01*
X007784Y007408D01*
X007810Y007424D01*
X007837Y007436D01*
X007866Y007445D01*
X007895Y007450D01*
X007925Y007452D01*
X007955Y007450D01*
X007984Y007445D01*
X008013Y007436D01*
X008040Y007424D01*
X008066Y007408D01*
X008089Y007390D01*
X008111Y007368D01*
X008129Y007345D01*
X008145Y007319D01*
X008157Y007292D01*
X008166Y007263D01*
X008171Y007234D01*
X008173Y007204D01*
X008374Y001051D02*
X008372Y001010D01*
X008366Y000968D01*
X008357Y000928D01*
X008344Y000889D01*
X008327Y000851D01*
X008307Y000815D01*
X008283Y000780D01*
X008257Y000749D01*
X008227Y000719D01*
X008196Y000693D01*
X008161Y000669D01*
X008125Y000649D01*
X008087Y000632D01*
X008048Y000619D01*
X008008Y000610D01*
X007966Y000604D01*
X007925Y000602D01*
X007884Y000604D01*
X007842Y000610D01*
X007802Y000619D01*
X007763Y000632D01*
X007725Y000649D01*
X007689Y000669D01*
X007654Y000693D01*
X007623Y000719D01*
X007593Y000749D01*
X007567Y000780D01*
X007543Y000815D01*
X007523Y000851D01*
X007506Y000889D01*
X007493Y000928D01*
X007484Y000968D01*
X007478Y001010D01*
X007476Y001051D01*
X007677Y001051D02*
X007679Y001021D01*
X007684Y000992D01*
X007693Y000963D01*
X007705Y000936D01*
X007721Y000910D01*
X007739Y000887D01*
X007761Y000865D01*
X007784Y000847D01*
X007810Y000831D01*
X007837Y000819D01*
X007866Y000810D01*
X007895Y000805D01*
X007925Y000803D01*
X007955Y000805D01*
X007984Y000810D01*
X008013Y000819D01*
X008040Y000831D01*
X008066Y000847D01*
X008089Y000865D01*
X008111Y000887D01*
X008129Y000910D01*
X008145Y000936D01*
X008157Y000963D01*
X008166Y000992D01*
X008171Y001021D01*
X008173Y001051D01*
D12*
X007175Y005878D02*
X006925Y005878D01*
X006925Y006378D01*
X007175Y006378D01*
X018933Y006378D02*
X018933Y005878D01*
X019183Y005878D01*
X019183Y006378D02*
X018933Y006378D01*
D13*
X014879Y005963D02*
X014879Y005363D01*
X014877Y005346D01*
X014873Y005329D01*
X014866Y005313D01*
X014856Y005299D01*
X014843Y005286D01*
X014829Y005276D01*
X014813Y005269D01*
X014796Y005265D01*
X014779Y005263D01*
X013079Y005263D01*
X013062Y005265D01*
X013045Y005269D01*
X013029Y005276D01*
X013015Y005286D01*
X013002Y005299D01*
X012992Y005313D01*
X012985Y005329D01*
X012981Y005346D01*
X012979Y005363D01*
X012979Y005963D01*
X012981Y005980D01*
X012985Y005997D01*
X012992Y006013D01*
X013002Y006027D01*
X013015Y006040D01*
X013029Y006050D01*
X013045Y006057D01*
X013062Y006061D01*
X013079Y006063D01*
X014779Y006063D01*
X014796Y006061D01*
X014813Y006057D01*
X014829Y006050D01*
X014843Y006040D01*
X014856Y006027D01*
X014866Y006013D01*
X014873Y005997D01*
X014877Y005980D01*
X014879Y005963D01*
X014779Y006838D02*
X013079Y006838D01*
X013062Y006840D01*
X013045Y006844D01*
X013029Y006851D01*
X013015Y006861D01*
X013002Y006874D01*
X012992Y006888D01*
X012985Y006904D01*
X012981Y006921D01*
X012979Y006938D01*
X012979Y007538D01*
X012981Y007555D01*
X012985Y007572D01*
X012992Y007588D01*
X013002Y007602D01*
X013015Y007615D01*
X013029Y007625D01*
X013045Y007632D01*
X013062Y007636D01*
X013079Y007638D01*
X014779Y007638D01*
X014796Y007636D01*
X014813Y007632D01*
X014829Y007625D01*
X014843Y007615D01*
X014856Y007602D01*
X014866Y007588D01*
X014873Y007572D01*
X014877Y007555D01*
X014879Y007538D01*
X014879Y006938D01*
X014877Y006921D01*
X014873Y006904D01*
X014866Y006888D01*
X014856Y006874D01*
X014843Y006861D01*
X014829Y006851D01*
X014813Y006844D01*
X014796Y006840D01*
X014779Y006838D01*
X014779Y008413D02*
X013079Y008413D01*
X013062Y008415D01*
X013045Y008419D01*
X013029Y008426D01*
X013015Y008436D01*
X013002Y008449D01*
X012992Y008463D01*
X012985Y008479D01*
X012981Y008496D01*
X012979Y008513D01*
X012979Y009113D01*
X012981Y009130D01*
X012985Y009147D01*
X012992Y009163D01*
X013002Y009177D01*
X013015Y009190D01*
X013029Y009200D01*
X013045Y009207D01*
X013062Y009211D01*
X013079Y009213D01*
X014779Y009213D01*
X014796Y009211D01*
X014813Y009207D01*
X014829Y009200D01*
X014843Y009190D01*
X014856Y009177D01*
X014866Y009163D01*
X014873Y009147D01*
X014877Y009130D01*
X014879Y009113D01*
X014879Y008513D01*
X014877Y008496D01*
X014873Y008479D01*
X014866Y008463D01*
X014856Y008449D01*
X014843Y008436D01*
X014829Y008426D01*
X014813Y008419D01*
X014796Y008415D01*
X014779Y008413D01*
M02*
