%
M48
M72
T01C0.0118
T02C0.0236
T03C0.0315
T04C0.0394
T05C0.0400
T06C0.0470
T07C0.0591
%
T01
X6015Y1883
X6606Y1805
X6724Y4088
X6724Y4482
X6724Y4876
X6291Y5230
X6606Y6372
X6606Y7356
X6055Y8340
X7590Y7395
X8378Y6765
X9244Y6765
X9795Y6805
X9756Y7395
X10031Y8183
X9756Y9246
X9756Y10191
X9913Y10978
X9913Y11765
X8968Y11765
X8299Y11765
X7354Y13380
X8299Y10191
X10071Y5860
X9795Y5584
X9244Y5545
X9126Y4876
X9126Y4482
X9126Y4088
X9126Y3694
X9362Y3143
X9952Y3891
X9952Y4324
X9677Y4561
X11212Y2356
X10504Y2277
X9283Y1805
X12945Y3305
X13256Y2198
X13614Y2198
X14401Y1017
X16330Y2352
X17472Y2671
X17984Y2356
X18496Y2868
X17748Y3498
X18496Y3970
X18496Y4403
X18496Y4876
X18417Y5506
X18338Y5899
X18299Y6332
X17984Y6962
X17866Y7828
X17472Y7828
X18299Y7828
X18889Y7356
X17866Y9009
X17905Y11765
X21330Y6372
X21330Y5899
X21134Y4797
X21134Y2868
X21134Y2395
X21134Y2002
X18496Y1175
X17787Y5033
X17787Y5820
T02
X21409Y8744
X21409Y9244
X21409Y9744
X21409Y10244
X21409Y10744
X21409Y11244
T03
X6449Y10781
X6449Y9797
X6449Y11765
T04
X11173Y13419
X18929Y8754
X19929Y8754
T05
X17929Y1754
X17929Y754
X16929Y754
X16929Y1754
X15929Y1754
X15929Y754
X14929Y754
X14929Y1754
X13929Y1754
X13929Y754
X12929Y754
X12929Y1754
X11929Y1754
X11929Y754
X10929Y754
X10929Y1754
X9929Y1754
X9929Y754
T06
X7925Y1253
X7925Y7002
X19933Y7002
X19933Y1253
T07
X11173Y15604
M30
