G75*
G70*
%OFA0B0*%
%FSLAX24Y24*%
%IPPOS*%
%LPD*%
%AMOC8*
5,1,8,0,0,1.08239X$1,22.5*
%
%ADD10C,0.0671*%
%ADD11C,0.0030*%
%ADD12C,0.0020*%
%ADD13R,0.0955X0.0370*%
%ADD14C,0.0550*%
%ADD15C,0.0050*%
%ADD16R,0.0540X0.0710*%
%ADD17C,0.0474*%
%ADD18OC8,0.0680*%
%ADD19C,0.0516*%
%ADD20R,0.0671X0.0671*%
%ADD21C,0.0674*%
D10*
X006449Y009797D03*
X006449Y010781D03*
X011173Y015604D03*
D11*
X007205Y007170D02*
X006958Y007170D01*
X007082Y007170D02*
X007082Y007540D01*
X007205Y007417D01*
X007286Y007765D02*
X007533Y007765D01*
X007655Y007765D02*
X007655Y008135D01*
X007533Y008011D02*
X007410Y008135D01*
X007410Y007765D01*
X007655Y007765D02*
X007902Y008135D01*
X007902Y007765D01*
X008023Y007826D02*
X008023Y008073D01*
X008085Y008135D01*
X008208Y008135D01*
X008270Y008073D01*
X008270Y007826D01*
X008208Y007765D01*
X008085Y007765D01*
X008023Y007826D01*
X008391Y007826D02*
X008453Y007765D01*
X008577Y007765D01*
X008638Y007826D01*
X008638Y008073D01*
X008577Y008135D01*
X008453Y008135D01*
X008391Y008073D01*
X007336Y008806D02*
X007276Y008745D01*
X007154Y008745D01*
X007094Y008806D01*
X006974Y008806D02*
X006913Y008745D01*
X006792Y008745D01*
X006731Y008806D01*
X006731Y009048D01*
X006792Y009109D01*
X006913Y009109D01*
X006974Y009048D01*
X006974Y008806D01*
X007094Y009048D02*
X007154Y009109D01*
X007276Y009109D01*
X007336Y009048D01*
X007336Y008806D01*
X006611Y008745D02*
X006611Y009109D01*
X006369Y008745D01*
X006369Y009109D01*
X006249Y009048D02*
X006188Y009109D01*
X006067Y009109D01*
X006006Y009048D01*
X006006Y008988D01*
X006067Y008927D01*
X006006Y008866D01*
X006006Y008806D01*
X006067Y008745D01*
X006188Y008745D01*
X006249Y008806D01*
X006128Y008927D02*
X006067Y008927D01*
X006935Y011584D02*
X007182Y011584D01*
X007058Y011584D02*
X007058Y011954D01*
X007182Y011830D01*
X019172Y007540D02*
X019172Y007170D01*
X019049Y007170D02*
X019296Y007170D01*
X019296Y007417D02*
X019172Y007540D01*
X019346Y007765D02*
X019592Y007765D01*
X019346Y008011D01*
X019346Y008073D01*
X019407Y008135D01*
X019531Y008135D01*
X019592Y008073D01*
X019714Y008135D02*
X019714Y007765D01*
X019961Y008135D01*
X019961Y007765D01*
X020082Y007826D02*
X020082Y008073D01*
X020144Y008135D01*
X020267Y008135D01*
X020329Y008073D01*
X020329Y007826D01*
X020267Y007765D01*
X020144Y007765D01*
X020082Y007826D01*
X020450Y007826D02*
X020512Y007765D01*
X020636Y007765D01*
X020697Y007826D01*
X020697Y008073D01*
X020636Y008135D01*
X020512Y008135D01*
X020450Y008073D01*
X021580Y008001D02*
X021827Y008001D01*
X021704Y008001D02*
X021704Y008371D01*
X021827Y008248D01*
X020951Y011308D02*
X020827Y011308D01*
X020765Y011370D01*
X020644Y011370D02*
X020644Y011616D01*
X020582Y011678D01*
X020459Y011678D01*
X020397Y011616D01*
X020397Y011370D01*
X020459Y011308D01*
X020582Y011308D01*
X020644Y011370D01*
X020765Y011616D02*
X020827Y011678D01*
X020951Y011678D01*
X021012Y011616D01*
X021012Y011370D01*
X020951Y011308D01*
X020276Y011308D02*
X020276Y011678D01*
X020029Y011308D01*
X020029Y011678D01*
X019907Y011678D02*
X019907Y011493D01*
X019784Y011555D01*
X019722Y011555D01*
X019660Y011493D01*
X019660Y011370D01*
X019722Y011308D01*
X019846Y011308D01*
X019907Y011370D01*
X019907Y011678D02*
X019660Y011678D01*
D12*
X010218Y002579D02*
X010218Y002409D01*
X010175Y002366D01*
X010090Y002366D01*
X010048Y002409D01*
X009964Y002409D02*
X009922Y002366D01*
X009836Y002366D01*
X009794Y002409D01*
X009794Y002579D01*
X009836Y002622D01*
X009922Y002622D01*
X009964Y002579D01*
X009964Y002409D01*
X010048Y002579D02*
X010090Y002622D01*
X010175Y002622D01*
X010218Y002579D01*
X009711Y002622D02*
X009540Y002366D01*
X009540Y002622D01*
X009457Y002494D02*
X009286Y002494D01*
X009329Y002622D02*
X009457Y002494D01*
X009329Y002366D02*
X009329Y002622D01*
X009711Y002622D02*
X009711Y002366D01*
D13*
X008462Y002378D03*
X008462Y002878D03*
X008462Y003378D03*
X008462Y003878D03*
X008462Y004378D03*
X008462Y004878D03*
X008462Y005378D03*
X008462Y005878D03*
X008462Y006378D03*
X007387Y006378D03*
X007387Y005878D03*
X007387Y005378D03*
X007387Y004878D03*
X007387Y004378D03*
X007387Y003878D03*
X007387Y003378D03*
X007387Y002878D03*
X007387Y002378D03*
X007387Y001878D03*
X008462Y001878D03*
X019395Y001878D03*
X019395Y002378D03*
X019395Y002878D03*
X019395Y003378D03*
X019395Y003878D03*
X019395Y004378D03*
X019395Y004878D03*
X019395Y005378D03*
X019395Y005878D03*
X019395Y006378D03*
X020470Y006378D03*
X020470Y005878D03*
X020470Y005378D03*
X020470Y004878D03*
X020470Y004378D03*
X020470Y003878D03*
X020470Y003378D03*
X020470Y002878D03*
X020470Y002378D03*
X020470Y001878D03*
D14*
X019933Y001253D03*
X019933Y007002D03*
X007925Y007002D03*
X007925Y001253D03*
D15*
X006059Y013030D02*
X006101Y013045D01*
X006138Y013068D01*
X006169Y013099D01*
X006193Y013137D01*
X006207Y013178D01*
X006212Y013222D01*
X006207Y013266D01*
X006193Y013307D01*
X006169Y013345D01*
X006138Y013376D01*
X006101Y013399D01*
X006059Y013414D01*
X006015Y013419D01*
X005972Y013414D01*
X005930Y013399D01*
X005893Y013376D01*
X005862Y013345D01*
X005838Y013307D01*
X005824Y013266D01*
X005819Y013222D01*
X005824Y013178D01*
X005838Y013137D01*
X005862Y013099D01*
X005893Y013068D01*
X005930Y013045D01*
X005972Y013030D01*
X006015Y013025D01*
X006059Y013030D01*
X006131Y013064D02*
X005900Y013064D01*
X005853Y013112D02*
X006177Y013112D01*
X006201Y013161D02*
X005830Y013161D01*
X005820Y013209D02*
X006211Y013209D01*
X006208Y013258D02*
X005823Y013258D01*
X005838Y013306D02*
X006193Y013306D01*
X006159Y013355D02*
X005872Y013355D01*
X005942Y013404D02*
X006089Y013404D01*
X021688Y000628D02*
X021665Y000591D01*
X021650Y000549D01*
X021645Y000506D01*
X021650Y000462D01*
X021665Y000420D01*
X021688Y000383D01*
X021719Y000352D01*
X021757Y000328D01*
X021798Y000314D01*
X021842Y000309D01*
X021886Y000314D01*
X021928Y000328D01*
X021965Y000352D01*
X021996Y000383D01*
X022020Y000420D01*
X022034Y000462D01*
X022039Y000506D01*
X022034Y000549D01*
X022020Y000591D01*
X021996Y000628D01*
X021965Y000659D01*
X021928Y000683D01*
X021886Y000697D01*
X021842Y000702D01*
X021798Y000697D01*
X021757Y000683D01*
X021719Y000659D01*
X021688Y000628D01*
X021697Y000637D02*
X021988Y000637D01*
X022021Y000588D02*
X021664Y000588D01*
X021649Y000540D02*
X022035Y000540D01*
X022037Y000491D02*
X021647Y000491D01*
X021657Y000442D02*
X022027Y000442D01*
X022003Y000394D02*
X021681Y000394D01*
X021729Y000345D02*
X021955Y000345D01*
X021921Y000685D02*
X021763Y000685D01*
D16*
X014529Y005663D03*
X013929Y005663D03*
X013329Y005663D03*
X013329Y007238D03*
X013929Y007238D03*
X014529Y007238D03*
X014529Y008813D03*
X013929Y008813D03*
X013329Y008813D03*
D17*
X011173Y013419D03*
D18*
X010929Y001754D03*
X010929Y000754D03*
X011929Y000754D03*
X011929Y001754D03*
X012929Y001754D03*
X012929Y000754D03*
X013929Y000754D03*
X013929Y001754D03*
X014929Y001754D03*
X014929Y000754D03*
X015929Y000754D03*
X015929Y001754D03*
X016929Y001754D03*
X016929Y000754D03*
X017929Y000754D03*
X017929Y001754D03*
X009929Y001754D03*
X009929Y000754D03*
D19*
X021409Y008744D02*
X021845Y008744D01*
X021845Y009244D02*
X021409Y009244D01*
X021409Y009744D02*
X021845Y009744D01*
X021845Y010244D02*
X021409Y010244D01*
X021409Y010744D02*
X021845Y010744D01*
X021845Y011244D02*
X021409Y011244D01*
D20*
X006449Y011765D03*
D21*
X018929Y008754D03*
X019929Y008754D03*
M02*
