G75*
G70*
%OFA0B0*%
%FSLAX24Y24*%
%IPPOS*%
%LPD*%
%AMOC8*
5,1,8,0,0,1.08239X$1,22.5*
%
%ADD10R,0.0197X0.0197*%
%ADD11C,0.0079*%
%ADD12R,0.0197X0.0197*%
%ADD13R,0.0354X0.0984*%
%ADD14C,0.0394*%
%ADD15R,0.2165X0.0984*%
%ADD16R,0.0945X0.0394*%
%ADD17OC8,0.0600*%
%ADD18R,0.0315X0.0276*%
%ADD19R,0.0460X0.0630*%
%ADD20C,0.0436*%
%ADD21R,0.0669X0.0315*%
%ADD22R,0.0591X0.0591*%
%ADD23C,0.0591*%
%ADD24C,0.0594*%
%ADD25C,0.0276*%
%ADD26C,0.0278*%
%ADD27C,0.0197*%
D10*
G36*
X008458Y012744D02*
X008596Y012606D01*
X008458Y012468D01*
X008320Y012606D01*
X008458Y012744D01*
G37*
G36*
X008179Y013023D02*
X008317Y012885D01*
X008179Y012747D01*
X008041Y012885D01*
X008179Y013023D01*
G37*
D11*
X005956Y002454D02*
X005819Y002454D01*
X005956Y002454D02*
X006291Y003320D01*
X006370Y003320D01*
X006035Y002454D01*
X006114Y002454D01*
X006429Y003261D01*
X006508Y003065D01*
X006586Y003065D01*
X006488Y003320D01*
X006567Y003320D01*
X006665Y003065D01*
X006586Y003065D01*
X006626Y002927D02*
X006704Y002927D01*
X006803Y002592D01*
X006763Y002691D02*
X006567Y002691D01*
X006527Y002592D02*
X006626Y002927D01*
X006488Y003320D02*
X006370Y003320D01*
X006330Y003537D02*
X006015Y003852D01*
X006015Y004009D01*
X005976Y004049D01*
X005976Y008261D01*
X006055Y008340D01*
X006606Y008270D02*
X006873Y008270D01*
X006951Y008192D01*
X007129Y008192D01*
X007393Y008183D02*
X007393Y007907D01*
X007284Y007798D01*
X007129Y007798D01*
X007393Y008183D02*
X007472Y008261D01*
X007802Y008261D01*
X008378Y008261D02*
X008402Y008261D01*
X008378Y008237D01*
X008378Y006765D01*
X008378Y006687D01*
X008141Y006450D01*
X007472Y006450D01*
X006567Y005545D01*
X006567Y005112D01*
X006449Y004994D01*
X006449Y003931D01*
X006567Y003813D01*
X006842Y003813D01*
X007118Y004088D01*
X009126Y004088D01*
X008929Y003891D02*
X009126Y003694D01*
X008929Y003891D02*
X007551Y003891D01*
X007197Y003537D01*
X006330Y003537D01*
X006724Y004088D02*
X007433Y004797D01*
X007925Y004797D01*
X007000Y004757D02*
X006724Y004482D01*
X006724Y004876D02*
X006724Y005387D01*
X007511Y006175D01*
X008456Y006175D01*
X008968Y005663D01*
X008968Y005427D01*
X009126Y005269D01*
X009126Y004876D01*
X009126Y004482D02*
X008929Y004482D01*
X008732Y004679D01*
X008732Y005624D01*
X008496Y005860D01*
X007472Y005860D01*
X007000Y005387D01*
X007000Y004757D01*
X006291Y005230D02*
X006291Y005663D01*
X007511Y006883D01*
X007511Y007317D01*
X007590Y007395D01*
X006606Y007356D02*
X006606Y007719D01*
X009244Y006765D02*
X009244Y005545D01*
X009795Y005584D02*
X009795Y006805D01*
X009519Y006883D02*
X009441Y006962D01*
X009441Y009876D01*
X009756Y010191D01*
X010700Y010191D01*
X010700Y009403D02*
X011409Y009403D01*
X016055Y004757D01*
X016055Y002261D01*
X016449Y001868D01*
X016449Y001234D01*
X016929Y000754D01*
X017350Y001332D02*
X017350Y002021D01*
X016645Y002726D01*
X016645Y002730D01*
X016527Y002848D01*
X016527Y003498D01*
X017748Y003498D01*
X018023Y003596D02*
X017728Y003891D01*
X017157Y003891D01*
X017157Y004679D02*
X017669Y004679D01*
X017787Y004797D01*
X017787Y005033D01*
X017669Y005466D02*
X017787Y005584D01*
X017787Y005820D01*
X017669Y005466D02*
X017157Y005466D01*
X017157Y006254D02*
X017708Y006254D01*
X017984Y006529D01*
X017984Y006962D01*
X018299Y007395D02*
X018299Y006332D01*
X018063Y006096D01*
X018063Y003793D01*
X018220Y003635D01*
X018220Y002553D01*
X018299Y002474D01*
X018299Y002124D01*
X017929Y001754D01*
X017508Y001533D02*
X017787Y001254D01*
X018023Y001254D01*
X018378Y000899D01*
X018614Y000899D01*
X020582Y002868D01*
X021134Y002868D01*
X021134Y002395D02*
X020386Y002395D01*
X018299Y000309D01*
X014637Y000309D01*
X014401Y000545D01*
X014401Y001017D01*
X014677Y001135D02*
X014362Y001450D01*
X014362Y005820D01*
X011252Y008931D01*
X010110Y008931D01*
X009756Y008576D01*
X009756Y007395D01*
X009756Y007277D01*
X009992Y007041D01*
X010700Y007041D01*
X010700Y006254D02*
X010071Y006254D01*
X010071Y005860D01*
X010582Y005466D02*
X010700Y005466D01*
X010779Y005466D01*
X011929Y004317D01*
X011929Y001754D01*
X011488Y001490D02*
X011724Y001254D01*
X012472Y001254D01*
X012472Y001210D01*
X012929Y000754D01*
X013141Y000309D02*
X011374Y000309D01*
X010929Y000754D01*
X010508Y001175D01*
X009008Y001175D01*
X008693Y000860D01*
X007039Y000860D01*
X006015Y001883D01*
X006035Y002454D02*
X005956Y002454D01*
X006114Y002454D02*
X009323Y002454D01*
X009204Y002592D02*
X009204Y002671D01*
X009205Y002671D02*
X009203Y002686D01*
X009199Y002701D01*
X009192Y002715D01*
X009182Y002727D01*
X009170Y002737D01*
X009156Y002744D01*
X009141Y002748D01*
X009126Y002750D01*
X008949Y002750D01*
X008949Y002592D01*
X008949Y002750D02*
X008949Y002927D01*
X009165Y002927D01*
X009165Y002926D02*
X009175Y002925D01*
X009185Y002921D01*
X009193Y002915D01*
X009199Y002906D01*
X009203Y002897D01*
X009204Y002887D01*
X009204Y002809D01*
X009203Y002796D01*
X009198Y002783D01*
X009191Y002772D01*
X009182Y002763D01*
X009171Y002756D01*
X009158Y002751D01*
X009145Y002750D01*
X009126Y002750D01*
X009204Y003143D02*
X009362Y003143D01*
X009204Y003143D02*
X008889Y003458D01*
X007925Y003458D01*
X007846Y002927D02*
X008063Y002927D01*
X008063Y002926D02*
X008073Y002925D01*
X008083Y002921D01*
X008091Y002915D01*
X008097Y002906D01*
X008101Y002897D01*
X008102Y002887D01*
X008102Y002828D01*
X008101Y002815D01*
X008096Y002802D01*
X008089Y002791D01*
X008080Y002782D01*
X008069Y002775D01*
X008056Y002770D01*
X008043Y002769D01*
X007846Y002769D01*
X007846Y002592D01*
X008043Y002592D01*
X008056Y002593D01*
X008069Y002598D01*
X008080Y002605D01*
X008089Y002614D01*
X008096Y002625D01*
X008101Y002638D01*
X008102Y002651D01*
X008102Y002710D01*
X008101Y002723D01*
X008096Y002736D01*
X008089Y002747D01*
X008080Y002756D01*
X008069Y002763D01*
X008056Y002768D01*
X008043Y002769D01*
X007846Y002769D02*
X007846Y002927D01*
X007492Y002927D02*
X007492Y002592D01*
X007315Y002592D02*
X007452Y002927D01*
X007492Y002927D01*
X007177Y002927D02*
X007315Y002592D01*
X007137Y002592D02*
X007137Y002927D01*
X007177Y002927D01*
X007275Y002317D02*
X007413Y002317D01*
X007413Y002316D02*
X007423Y002315D01*
X007433Y002311D01*
X007441Y002305D01*
X007447Y002296D01*
X007451Y002287D01*
X007452Y002277D01*
X007452Y002238D01*
X007451Y002225D01*
X007446Y002212D01*
X007439Y002201D01*
X007430Y002192D01*
X007419Y002185D01*
X007406Y002180D01*
X007393Y002179D01*
X007295Y002179D01*
X007275Y002080D02*
X007275Y002317D01*
X007059Y002317D02*
X007059Y002080D01*
X006783Y002080D02*
X006862Y002317D01*
X006685Y002297D02*
X006783Y002080D01*
X006586Y002080D02*
X006685Y002297D01*
X006508Y002317D02*
X006586Y002080D01*
X007393Y002179D02*
X007406Y002178D01*
X007419Y002173D01*
X007430Y002166D01*
X007439Y002157D01*
X007446Y002146D01*
X007451Y002133D01*
X007452Y002120D01*
X007452Y002080D01*
X007649Y002080D02*
X007807Y002080D01*
X007807Y002198D02*
X007649Y002198D01*
X007649Y002080D01*
X007649Y002198D02*
X007649Y002317D01*
X007807Y002317D01*
X008004Y002317D02*
X008004Y002080D01*
X008141Y002080D01*
X008338Y002080D02*
X008476Y002080D01*
X008476Y002198D02*
X008338Y002198D01*
X008338Y002080D01*
X008338Y002198D02*
X008338Y002317D01*
X008476Y002317D01*
X008673Y002277D02*
X008673Y002238D01*
X008674Y002228D01*
X008678Y002218D01*
X008684Y002210D01*
X008693Y002204D01*
X008702Y002200D01*
X008712Y002199D01*
X008712Y002198D02*
X008811Y002198D01*
X008821Y002197D01*
X008831Y002193D01*
X008839Y002187D01*
X008845Y002178D01*
X008849Y002169D01*
X008850Y002159D01*
X008850Y002139D01*
X008849Y002126D01*
X008844Y002113D01*
X008837Y002102D01*
X008828Y002093D01*
X008817Y002086D01*
X008804Y002081D01*
X008791Y002080D01*
X008693Y002080D01*
X008685Y002082D01*
X008679Y002086D01*
X008675Y002092D01*
X008673Y002100D01*
X008673Y002277D02*
X008674Y002287D01*
X008678Y002296D01*
X008684Y002305D01*
X008693Y002311D01*
X008702Y002315D01*
X008712Y002316D01*
X008712Y002317D02*
X008830Y002317D01*
X008838Y002315D01*
X008844Y002311D01*
X008848Y002305D01*
X008850Y002297D01*
X009047Y002297D02*
X009047Y002238D01*
X009048Y002228D01*
X009052Y002218D01*
X009058Y002210D01*
X009067Y002204D01*
X009076Y002200D01*
X009086Y002199D01*
X009086Y002198D02*
X009204Y002198D01*
X009204Y002199D02*
X009212Y002197D01*
X009218Y002193D01*
X009222Y002187D01*
X009224Y002179D01*
X009224Y002120D01*
X009223Y002110D01*
X009219Y002100D01*
X009213Y002092D01*
X009204Y002086D01*
X009195Y002082D01*
X009185Y002081D01*
X009185Y002080D02*
X009067Y002080D01*
X009059Y002082D01*
X009053Y002086D01*
X009049Y002092D01*
X009047Y002100D01*
X009047Y002297D02*
X009049Y002305D01*
X009053Y002311D01*
X009059Y002315D01*
X009067Y002317D01*
X009165Y002317D01*
X009165Y002316D02*
X009175Y002318D01*
X009184Y002317D01*
X009193Y002312D01*
X009200Y002305D01*
X009204Y002297D01*
X009637Y002159D02*
X009283Y001805D01*
X009637Y002159D02*
X009637Y003419D01*
X009519Y003537D01*
X009519Y004285D01*
X009401Y004403D01*
X009401Y004718D01*
X009519Y004836D01*
X009519Y006883D01*
X010031Y008183D02*
X010897Y008183D01*
X012472Y006608D01*
X012472Y001254D01*
X011929Y000754D02*
X011350Y001332D01*
X010622Y001332D01*
X010386Y001569D01*
X010386Y001962D01*
X009795Y002553D01*
X009795Y003576D01*
X009677Y003694D01*
X009677Y004049D01*
X009952Y004324D01*
X010700Y004324D01*
X010700Y004679D01*
X010700Y003891D02*
X011252Y003891D01*
X011488Y003655D01*
X011488Y001490D01*
X011212Y002356D02*
X011212Y002592D01*
X010700Y003104D01*
X009952Y002828D02*
X009952Y003891D01*
X009677Y004561D02*
X010582Y005466D01*
X009952Y002828D02*
X010504Y002277D01*
X008634Y002592D02*
X008417Y002592D01*
X008417Y002769D01*
X008614Y002769D01*
X008634Y002927D02*
X008417Y002927D01*
X008417Y002769D01*
X012945Y002509D02*
X013256Y002198D01*
X013417Y001978D02*
X013614Y002175D01*
X013614Y002198D01*
X013417Y001978D02*
X013417Y000584D01*
X013141Y000309D01*
X013929Y001754D02*
X013929Y005387D01*
X010700Y008616D01*
X011409Y009088D02*
X009913Y009088D01*
X009756Y009246D01*
X011409Y009088D02*
X015897Y004600D01*
X015897Y001785D01*
X015929Y001754D01*
X016330Y002352D02*
X016929Y001754D01*
X017350Y001332D02*
X017929Y000754D01*
X018496Y001175D02*
X018850Y001529D01*
X018850Y003616D01*
X018496Y003970D01*
X018220Y003872D02*
X018496Y003596D01*
X018496Y002868D01*
X018023Y002415D02*
X018023Y003596D01*
X018220Y003872D02*
X018220Y005309D01*
X018417Y005506D01*
X019047Y004876D01*
X019047Y003734D01*
X019323Y003458D01*
X019913Y003458D01*
X019913Y004797D02*
X021134Y004797D01*
X021409Y005506D02*
X021645Y005742D01*
X021645Y006569D01*
X021527Y006687D01*
X021094Y006687D01*
X021015Y006608D01*
X019086Y006608D01*
X018614Y007080D01*
X018614Y007513D01*
X018299Y007828D01*
X018299Y007395D02*
X017866Y007828D01*
X017472Y007828D02*
X017472Y007356D01*
X017157Y007041D01*
X018338Y005939D02*
X018771Y006372D01*
X020858Y006372D01*
X021330Y005899D01*
X021409Y005506D02*
X021409Y002277D01*
X021134Y002002D01*
X018023Y002415D02*
X017984Y002376D01*
X017984Y002356D01*
X017508Y002612D02*
X017472Y002647D01*
X017472Y002671D01*
X017157Y002671D01*
X017157Y003104D01*
X017508Y002612D02*
X017508Y001533D01*
X016330Y002352D02*
X016330Y010742D01*
X016567Y010978D01*
X017157Y010978D01*
X017157Y010191D02*
X017748Y010191D01*
X017866Y010072D01*
X017866Y009009D01*
X018200Y008754D02*
X018515Y008754D01*
X018515Y008478D01*
X018889Y008104D01*
X018889Y007356D01*
X018929Y008754D02*
X018515Y008754D01*
X018200Y008754D02*
X018063Y008616D01*
X017157Y008616D01*
X017157Y009403D02*
X016606Y009403D01*
X016527Y009324D01*
X016527Y003498D01*
X014677Y001135D02*
X014677Y001006D01*
X014929Y000754D01*
X012945Y002509D02*
X012945Y003305D01*
X018338Y005899D02*
X018338Y005939D01*
D12*
X008968Y012159D03*
X008968Y012553D03*
X008124Y013399D03*
X007730Y013399D03*
X007129Y008192D03*
X007129Y007798D03*
D13*
X008304Y010978D03*
X009445Y010978D03*
D14*
X006015Y013222D03*
X021842Y000506D03*
D15*
X008122Y014462D03*
X008122Y024305D03*
D16*
X010700Y012553D03*
X010700Y011765D03*
X010700Y010978D03*
X010700Y010191D03*
X010700Y009403D03*
X010700Y008616D03*
X010700Y007041D03*
X010700Y006254D03*
X010700Y005466D03*
X010700Y004679D03*
X010700Y003891D03*
X010700Y003104D03*
X017157Y003104D03*
X017157Y003891D03*
X017157Y004679D03*
X017157Y005466D03*
X017157Y006254D03*
X017157Y007041D03*
X017157Y008616D03*
X017157Y009403D03*
X017157Y010191D03*
X017157Y010978D03*
X017157Y011765D03*
D17*
X016929Y001754D03*
X016929Y000754D03*
X017929Y000754D03*
X017929Y001754D03*
X015929Y001754D03*
X015929Y000754D03*
X014929Y000754D03*
X014929Y001754D03*
X013929Y001754D03*
X013929Y000754D03*
X012929Y000754D03*
X012929Y001754D03*
X011929Y001754D03*
X011929Y000754D03*
X010929Y000754D03*
X010929Y001754D03*
X009929Y001754D03*
X009929Y000754D03*
D18*
X006606Y007719D03*
X006606Y008270D03*
D19*
X007802Y008261D03*
X008402Y008261D03*
D20*
X021409Y008744D02*
X021845Y008744D01*
X021845Y009244D02*
X021409Y009244D01*
X021409Y009744D02*
X021845Y009744D01*
X021845Y010244D02*
X021409Y010244D01*
X021409Y010744D02*
X021845Y010744D01*
X021845Y011244D02*
X021409Y011244D01*
D21*
X019913Y004797D03*
X019913Y003458D03*
X007925Y003458D03*
X007925Y004797D03*
D22*
X006449Y011765D03*
D23*
X006449Y010781D03*
X006449Y009797D03*
D24*
X018929Y008754D03*
X019929Y008754D03*
D25*
X017905Y011765D02*
X017157Y011765D01*
X010700Y011765D02*
X009913Y011765D01*
X009913Y010978D02*
X009445Y010978D01*
X009913Y010978D02*
X010700Y010978D01*
X010700Y012553D02*
X009204Y012553D01*
X008304Y011761D02*
X008299Y011765D01*
X008304Y011761D02*
X008304Y010978D01*
X008304Y010195D01*
X008299Y010191D01*
X008124Y013598D02*
X008124Y014460D01*
X008122Y014462D01*
X008124Y014462D02*
X008124Y014462D01*
D26*
X007354Y013380D03*
X008299Y011765D03*
X008968Y011765D03*
X009913Y011765D03*
X009913Y010978D03*
X009756Y010191D03*
X009756Y009246D03*
X010031Y008183D03*
X009756Y007395D03*
X009795Y006805D03*
X009244Y006765D03*
X008378Y006765D03*
X007590Y007395D03*
X006606Y007356D03*
X006055Y008340D03*
X006606Y006372D03*
X006291Y005230D03*
X006724Y004876D03*
X006724Y004482D03*
X006724Y004088D03*
X006606Y001805D03*
X006015Y001883D03*
X009126Y003694D03*
X009126Y004088D03*
X009126Y004482D03*
X009126Y004876D03*
X009244Y005545D03*
X009795Y005584D03*
X010071Y005860D03*
X009677Y004561D03*
X009952Y004324D03*
X009952Y003891D03*
X009362Y003143D03*
X009283Y001805D03*
X010504Y002277D03*
X011212Y002356D03*
X012945Y003305D03*
X013256Y002198D03*
X013614Y002198D03*
X014401Y001017D03*
X016330Y002352D03*
X017472Y002671D03*
X017984Y002356D03*
X018496Y002868D03*
X017748Y003498D03*
X018496Y003970D03*
X018496Y004403D03*
X018496Y004876D03*
X018417Y005506D03*
X018338Y005899D03*
X018299Y006332D03*
X017984Y006962D03*
X017866Y007828D03*
X017472Y007828D03*
X018299Y007828D03*
X018889Y007356D03*
X017866Y009009D03*
X017905Y011765D03*
X021330Y006372D03*
X021330Y005899D03*
X021134Y004797D03*
X021134Y002868D03*
X021134Y002395D03*
X021134Y002002D03*
X018496Y001175D03*
X017787Y005033D03*
X017787Y005820D03*
X008299Y010191D03*
D27*
X008968Y011765D02*
X008968Y012159D01*
X008968Y012553D02*
X009204Y012553D01*
X008968Y012553D02*
X008511Y012553D01*
X008458Y012606D01*
X008179Y012885D02*
X008124Y012941D01*
X008124Y013399D01*
X008124Y013598D01*
X007730Y013399D02*
X007374Y013399D01*
X007374Y013400D02*
X007366Y013398D01*
X007360Y013394D01*
X007356Y013388D01*
X007354Y013380D01*
X008122Y014462D02*
X008124Y014462D01*
M02*
