G75*
G70*
%OFA0B0*%
%FSLAX24Y24*%
%IPPOS*%
%LPD*%
%AMOC8*
5,1,8,0,0,1.08239X$1,22.5*
%
%ADD10R,0.1100X0.1600*%
%ADD11C,0.0850*%
%ADD12C,0.0681*%
%ADD13R,0.0925X0.0748*%
%ADD14R,0.0591X0.1339*%
%ADD15C,0.0100*%
%ADD16C,0.0270*%
%ADD17C,0.0340*%
%ADD18C,0.0160*%
%ADD19C,0.0240*%
%ADD20C,0.0470*%
D10*
X001310Y008440D03*
X012810Y008440D03*
D11*
X012126Y010729D03*
X014094Y010729D03*
X017376Y010729D03*
X019344Y010729D03*
X019344Y015651D03*
X017376Y015651D03*
X014094Y015651D03*
X012126Y015651D03*
X008944Y015651D03*
X006976Y015651D03*
X003744Y015651D03*
X001776Y015651D03*
X001776Y010729D03*
X003744Y010729D03*
X006976Y010729D03*
X008944Y010729D03*
D12*
X003000Y005600D03*
D13*
X002065Y004576D03*
X003935Y004576D03*
X003935Y006624D03*
X002065Y006624D03*
D14*
X001898Y005600D03*
X004102Y005600D03*
D15*
X001370Y000926D02*
X001892Y000578D01*
X002471Y000338D01*
X003086Y000215D01*
X003400Y000200D01*
X024340Y000200D01*
X024340Y016400D01*
X001200Y016400D01*
X001044Y016388D01*
X000746Y016291D01*
X000493Y016107D01*
X000309Y015854D01*
X000212Y015556D01*
X000200Y015400D01*
X000200Y003400D01*
X000215Y003086D01*
X000338Y002471D01*
X000578Y001892D01*
X000926Y001370D01*
X001370Y000926D01*
X001430Y000887D02*
X006020Y000887D01*
X006032Y000874D02*
X006277Y000773D01*
X006543Y000773D01*
X006788Y000874D01*
X006976Y001062D01*
X007077Y001307D01*
X007077Y001573D01*
X006976Y001818D01*
X006788Y002006D01*
X006645Y002065D01*
X006788Y002124D01*
X006976Y002312D01*
X007077Y002557D01*
X007077Y002823D01*
X006976Y003068D01*
X006788Y003256D01*
X006543Y003357D01*
X006277Y003357D01*
X006032Y003256D01*
X005844Y003068D01*
X005743Y002823D01*
X005743Y002557D01*
X005844Y002312D01*
X006032Y002124D01*
X006175Y002065D01*
X006032Y002006D01*
X005844Y001818D01*
X005743Y001573D01*
X005743Y001307D01*
X005844Y001062D01*
X006032Y000874D01*
X005921Y000985D02*
X001311Y000985D01*
X001213Y001084D02*
X005835Y001084D01*
X005794Y001182D02*
X001114Y001182D01*
X001016Y001281D02*
X005754Y001281D01*
X005743Y001379D02*
X000920Y001379D01*
X000854Y001478D02*
X001710Y001478D01*
X001664Y001497D02*
X001882Y001406D01*
X002118Y001406D01*
X002336Y001497D01*
X002503Y001664D01*
X002594Y001882D01*
X002594Y002118D01*
X002503Y002336D01*
X002336Y002503D01*
X002118Y002594D01*
X001882Y002594D01*
X001664Y002503D01*
X001497Y002336D01*
X001406Y002118D01*
X001406Y001882D01*
X001497Y001664D01*
X001664Y001497D01*
X001584Y001576D02*
X000789Y001576D01*
X000723Y001675D02*
X001492Y001675D01*
X001451Y001773D02*
X000657Y001773D01*
X000591Y001872D02*
X001411Y001872D01*
X001406Y001970D02*
X000545Y001970D01*
X000505Y002069D02*
X001406Y002069D01*
X001427Y002167D02*
X000464Y002167D01*
X000423Y002266D02*
X001467Y002266D01*
X001524Y002364D02*
X000382Y002364D01*
X000341Y002463D02*
X001623Y002463D01*
X001803Y002561D02*
X000320Y002561D01*
X000300Y002660D02*
X005743Y002660D01*
X005743Y002758D02*
X000281Y002758D01*
X000261Y002857D02*
X005756Y002857D01*
X005797Y002955D02*
X000242Y002955D01*
X000222Y003054D02*
X005838Y003054D01*
X005928Y003152D02*
X000212Y003152D01*
X000207Y003251D02*
X002838Y003251D01*
X002782Y003274D02*
X002923Y003215D01*
X003077Y003215D01*
X003218Y003274D01*
X003326Y003382D01*
X003385Y003523D01*
X003385Y004080D01*
X003415Y004063D01*
X003453Y004052D01*
X003885Y004052D01*
X003885Y004526D01*
X003985Y004526D01*
X003985Y004052D01*
X004417Y004052D01*
X004456Y004063D01*
X004490Y004082D01*
X004518Y004110D01*
X004537Y004144D01*
X004548Y004183D01*
X004548Y004526D01*
X003985Y004526D01*
X003985Y004626D01*
X004548Y004626D01*
X004548Y004970D01*
X004548Y005550D01*
X004152Y005550D01*
X004152Y005100D01*
X004052Y005100D01*
X004052Y005550D01*
X003657Y005550D01*
X003657Y005100D01*
X003453Y005100D01*
X003415Y005090D01*
X003385Y005073D01*
X003385Y005291D01*
X003416Y005322D01*
X003491Y005502D01*
X003491Y005698D01*
X003416Y005878D01*
X003278Y006016D01*
X003098Y006091D01*
X002902Y006091D01*
X002722Y006016D01*
X002584Y005878D01*
X002509Y005698D01*
X002509Y005502D01*
X002584Y005322D01*
X002615Y005291D01*
X002615Y005073D01*
X002585Y005090D01*
X002547Y005100D01*
X002343Y005100D01*
X002343Y005550D01*
X001948Y005550D01*
X001948Y005650D01*
X002343Y005650D01*
X002343Y006100D01*
X002547Y006100D01*
X002585Y006110D01*
X002620Y006130D01*
X002648Y006158D01*
X002667Y006192D01*
X002678Y006230D01*
X002678Y006574D01*
X002115Y006574D01*
X002115Y006674D01*
X002015Y006674D01*
X002015Y007148D01*
X001583Y007148D01*
X001544Y007137D01*
X001510Y007118D01*
X001482Y007090D01*
X001463Y007056D01*
X001452Y007017D01*
X001452Y006674D01*
X002015Y006674D01*
X002015Y006574D01*
X001452Y006574D01*
X001452Y005650D01*
X001848Y005650D01*
X001848Y005550D01*
X001452Y005550D01*
X001452Y004956D01*
X001452Y004626D01*
X002015Y004626D01*
X002015Y004526D01*
X002115Y004526D01*
X002115Y004052D01*
X002547Y004052D01*
X002585Y004063D01*
X002615Y004080D01*
X002615Y003523D01*
X002674Y003382D01*
X002782Y003274D01*
X002707Y003349D02*
X000203Y003349D01*
X000200Y003448D02*
X002646Y003448D01*
X002615Y003546D02*
X000200Y003546D01*
X000200Y003645D02*
X002615Y003645D01*
X002615Y003743D02*
X000200Y003743D01*
X000200Y003842D02*
X002615Y003842D01*
X002615Y003940D02*
X000200Y003940D01*
X000200Y004039D02*
X002615Y004039D01*
X002115Y004137D02*
X002015Y004137D01*
X002015Y004052D02*
X002015Y004526D01*
X001452Y004526D01*
X001452Y004183D01*
X001463Y004144D01*
X001482Y004110D01*
X001510Y004082D01*
X001544Y004063D01*
X001583Y004052D01*
X002015Y004052D01*
X002015Y004236D02*
X002115Y004236D01*
X002115Y004334D02*
X002015Y004334D01*
X002015Y004433D02*
X002115Y004433D01*
X002015Y004531D02*
X000200Y004531D01*
X000200Y004433D02*
X001452Y004433D01*
X001452Y004334D02*
X000200Y004334D01*
X000200Y004236D02*
X001452Y004236D01*
X001467Y004137D02*
X000200Y004137D01*
X000200Y004630D02*
X001452Y004630D01*
X001452Y004728D02*
X000200Y004728D01*
X000200Y004827D02*
X001452Y004827D01*
X001452Y004925D02*
X000200Y004925D01*
X000200Y005024D02*
X001452Y005024D01*
X001452Y005122D02*
X000200Y005122D01*
X000200Y005221D02*
X001452Y005221D01*
X001452Y005319D02*
X000200Y005319D01*
X000200Y005418D02*
X001452Y005418D01*
X001452Y005516D02*
X000200Y005516D01*
X000200Y005615D02*
X001848Y005615D01*
X001948Y005615D02*
X002509Y005615D01*
X002516Y005713D02*
X002343Y005713D01*
X002343Y005812D02*
X002557Y005812D01*
X002616Y005910D02*
X002343Y005910D01*
X002343Y006009D02*
X002715Y006009D01*
X002575Y006107D02*
X003425Y006107D01*
X003415Y006110D02*
X003453Y006100D01*
X003657Y006100D01*
X003657Y005650D01*
X004052Y005650D01*
X004052Y005550D01*
X004152Y005550D01*
X004152Y005650D01*
X004052Y005650D01*
X004052Y006100D01*
X004152Y006100D01*
X004152Y005650D01*
X004548Y005650D01*
X004548Y006574D01*
X003985Y006574D01*
X003985Y006674D01*
X003885Y006674D01*
X003885Y007148D01*
X003453Y007148D01*
X003415Y007137D01*
X003380Y007118D01*
X003352Y007090D01*
X003333Y007056D01*
X003322Y007017D01*
X003322Y006674D01*
X003885Y006674D01*
X003885Y006574D01*
X003322Y006574D01*
X003322Y006230D01*
X003333Y006192D01*
X003352Y006158D01*
X003380Y006130D01*
X003415Y006110D01*
X003329Y006206D02*
X002671Y006206D01*
X002678Y006304D02*
X003322Y006304D01*
X003322Y006403D02*
X002678Y006403D01*
X002678Y006501D02*
X003322Y006501D01*
X003322Y006698D02*
X002678Y006698D01*
X002678Y006674D02*
X002678Y007017D01*
X002667Y007056D01*
X002648Y007090D01*
X002620Y007118D01*
X002585Y007137D01*
X002547Y007148D01*
X002115Y007148D01*
X002115Y006674D01*
X002678Y006674D01*
X002678Y006797D02*
X003322Y006797D01*
X003322Y006895D02*
X002678Y006895D01*
X002678Y006994D02*
X003322Y006994D01*
X003355Y007092D02*
X002645Y007092D01*
X002115Y007092D02*
X002015Y007092D01*
X002015Y006994D02*
X002115Y006994D01*
X002115Y006895D02*
X002015Y006895D01*
X002015Y006797D02*
X002115Y006797D01*
X002115Y006698D02*
X002015Y006698D01*
X002015Y006600D02*
X000200Y006600D01*
X000200Y006698D02*
X001452Y006698D01*
X001452Y006797D02*
X000200Y006797D01*
X000200Y006895D02*
X001452Y006895D01*
X001452Y006994D02*
X000200Y006994D01*
X000200Y007092D02*
X001485Y007092D01*
X001360Y007490D02*
X001880Y007490D01*
X001918Y007500D01*
X001952Y007520D01*
X001980Y007548D01*
X002000Y007582D01*
X002010Y007620D01*
X002010Y008390D01*
X001360Y008390D01*
X001360Y008490D01*
X002010Y008490D01*
X002010Y009260D01*
X002000Y009298D01*
X001980Y009332D01*
X001955Y009357D01*
X006714Y009311D01*
X006715Y009310D01*
X006737Y009310D01*
X006749Y009298D01*
X006853Y009255D01*
X006967Y009255D01*
X007071Y009298D01*
X007083Y009310D01*
X011737Y009310D01*
X011749Y009298D01*
X011853Y009255D01*
X011967Y009255D01*
X012071Y009298D01*
X012083Y009310D01*
X012118Y009310D01*
X012110Y009302D01*
X012110Y007720D01*
X011183Y007720D01*
X011171Y007732D01*
X011067Y007775D01*
X010953Y007775D01*
X010849Y007732D01*
X010768Y007651D01*
X010725Y007547D01*
X010725Y007433D01*
X010768Y007329D01*
X010849Y007248D01*
X010953Y007205D01*
X011067Y007205D01*
X011171Y007248D01*
X011183Y007260D01*
X011417Y007260D01*
X011349Y007232D01*
X011268Y007151D01*
X011225Y007047D01*
X011225Y006933D01*
X011268Y006829D01*
X011310Y006787D01*
X011310Y003643D01*
X011268Y003601D01*
X011225Y003497D01*
X011225Y003383D01*
X011268Y003279D01*
X011349Y003198D01*
X011453Y003155D01*
X011567Y003155D01*
X011671Y003198D01*
X011752Y003279D01*
X011795Y003383D01*
X011795Y003465D01*
X011897Y003465D01*
X012001Y003508D01*
X012082Y003589D01*
X012125Y003693D01*
X012125Y003807D01*
X012082Y003911D01*
X012040Y003953D01*
X012040Y005667D01*
X012082Y005709D01*
X012125Y005813D01*
X012125Y005927D01*
X012082Y006031D01*
X012001Y006112D01*
X011897Y006155D01*
X011783Y006155D01*
X011710Y006125D01*
X011710Y006787D01*
X011752Y006829D01*
X011795Y006933D01*
X011795Y007047D01*
X011752Y007151D01*
X011671Y007232D01*
X011603Y007260D01*
X012540Y007260D01*
X012540Y006192D01*
X012539Y006190D01*
X012540Y006138D01*
X012540Y003952D01*
X012135Y003547D01*
X012099Y003532D01*
X012018Y003451D01*
X011975Y003347D01*
X011975Y003233D01*
X012018Y003129D01*
X012030Y003117D01*
X012030Y002945D01*
X012165Y002810D01*
X014399Y002810D01*
X015030Y002010D01*
X015030Y001995D01*
X015088Y001937D01*
X015139Y001873D01*
X015154Y001871D01*
X015165Y001860D01*
X015247Y001860D01*
X015328Y001850D01*
X015340Y001860D01*
X017487Y001860D01*
X017499Y001848D01*
X017603Y001805D01*
X017717Y001805D01*
X017821Y001848D01*
X017902Y001929D01*
X017945Y002033D01*
X017945Y002147D01*
X017902Y002251D01*
X017821Y002332D01*
X017717Y002375D01*
X017603Y002375D01*
X017499Y002332D01*
X017487Y002320D01*
X015371Y002320D01*
X014740Y003120D01*
X014740Y003135D01*
X014682Y003193D01*
X014631Y003257D01*
X014616Y003259D01*
X014605Y003270D01*
X014523Y003270D01*
X014442Y003280D01*
X014430Y003270D01*
X012622Y003270D01*
X012963Y003611D01*
X013039Y003687D01*
X013080Y003786D01*
X013080Y005874D01*
X016030Y005919D01*
X016063Y005905D01*
X016177Y005905D01*
X016210Y005919D01*
X020055Y005871D01*
X020056Y005870D01*
X020108Y005870D01*
X020160Y005869D01*
X020162Y005870D01*
X020164Y005870D01*
X020212Y005890D01*
X020260Y005909D01*
X020261Y005910D01*
X024340Y005910D01*
X024340Y005812D02*
X013080Y005812D01*
X013080Y005713D02*
X024340Y005713D01*
X024340Y005615D02*
X019889Y005615D01*
X019871Y005632D02*
X019767Y005675D01*
X019653Y005675D01*
X019549Y005632D01*
X019468Y005551D01*
X019425Y005447D01*
X019425Y005333D01*
X019468Y005229D01*
X019480Y005217D01*
X019480Y004363D01*
X019468Y004351D01*
X019425Y004247D01*
X019425Y004133D01*
X019468Y004029D01*
X019480Y004017D01*
X019480Y003013D01*
X019468Y003001D01*
X019425Y002897D01*
X019425Y002783D01*
X019468Y002679D01*
X019549Y002598D01*
X019653Y002555D01*
X019767Y002555D01*
X019871Y002598D01*
X019952Y002679D01*
X019995Y002783D01*
X019995Y002897D01*
X019952Y003001D01*
X019940Y003013D01*
X019940Y004017D01*
X019952Y004029D01*
X019995Y004133D01*
X019995Y004247D01*
X019952Y004351D01*
X019940Y004363D01*
X019940Y005217D01*
X019952Y005229D01*
X019995Y005333D01*
X019995Y005447D01*
X019952Y005551D01*
X019871Y005632D01*
X019966Y005516D02*
X024340Y005516D01*
X024340Y005418D02*
X019995Y005418D01*
X019989Y005319D02*
X024340Y005319D01*
X024340Y005221D02*
X019944Y005221D01*
X019940Y005122D02*
X024340Y005122D01*
X024340Y005024D02*
X019940Y005024D01*
X019940Y004925D02*
X024340Y004925D01*
X024340Y004827D02*
X019940Y004827D01*
X019940Y004728D02*
X024340Y004728D01*
X024340Y004630D02*
X019940Y004630D01*
X019940Y004531D02*
X024340Y004531D01*
X024340Y004433D02*
X019940Y004433D01*
X019959Y004334D02*
X024340Y004334D01*
X024340Y004236D02*
X019995Y004236D01*
X019995Y004137D02*
X024340Y004137D01*
X024340Y004039D02*
X019956Y004039D01*
X019940Y003940D02*
X024340Y003940D01*
X024340Y003842D02*
X019940Y003842D01*
X019940Y003743D02*
X024340Y003743D01*
X024340Y003645D02*
X019940Y003645D01*
X019940Y003546D02*
X024340Y003546D01*
X024340Y003448D02*
X019940Y003448D01*
X019940Y003349D02*
X024340Y003349D01*
X024340Y003251D02*
X019940Y003251D01*
X019940Y003152D02*
X024340Y003152D01*
X024340Y003054D02*
X019940Y003054D01*
X019971Y002955D02*
X024340Y002955D01*
X024340Y002857D02*
X019995Y002857D01*
X019985Y002758D02*
X024340Y002758D01*
X024340Y002660D02*
X019933Y002660D01*
X019781Y002561D02*
X021803Y002561D01*
X021882Y002594D02*
X021664Y002503D01*
X021497Y002336D01*
X021406Y002118D01*
X021406Y001882D01*
X021497Y001664D01*
X021664Y001497D01*
X021882Y001406D01*
X022118Y001406D01*
X022336Y001497D01*
X022503Y001664D01*
X022594Y001882D01*
X022594Y002118D01*
X022503Y002336D01*
X022336Y002503D01*
X022118Y002594D01*
X021882Y002594D01*
X021623Y002463D02*
X015259Y002463D01*
X015181Y002561D02*
X019639Y002561D01*
X019487Y002660D02*
X015103Y002660D01*
X015026Y002758D02*
X019435Y002758D01*
X019425Y002857D02*
X014948Y002857D01*
X014870Y002955D02*
X019449Y002955D01*
X019480Y003054D02*
X014792Y003054D01*
X014723Y003152D02*
X019480Y003152D01*
X019480Y003251D02*
X014637Y003251D01*
X014440Y002758D02*
X011312Y002758D01*
X011394Y002660D02*
X014517Y002660D01*
X014595Y002561D02*
X011476Y002561D01*
X011558Y002463D02*
X014673Y002463D01*
X014751Y002364D02*
X011707Y002364D01*
X011657Y002385D02*
X011623Y002385D01*
X010550Y003672D01*
X010550Y003683D01*
X010500Y003733D01*
X010498Y003735D01*
X010451Y003792D01*
X010440Y003793D01*
X010383Y003850D01*
X010083Y003850D01*
X009300Y004633D01*
X009183Y004750D01*
X008160Y004750D01*
X008160Y008117D01*
X008202Y008159D01*
X008245Y008263D01*
X008245Y008377D01*
X008202Y008481D01*
X008121Y008562D01*
X008058Y008588D01*
X008815Y008582D01*
X008859Y008538D01*
X008963Y008495D01*
X009077Y008495D01*
X009181Y008538D01*
X009262Y008619D01*
X009305Y008723D01*
X009305Y008837D01*
X009262Y008941D01*
X009181Y009022D01*
X009077Y009065D01*
X008963Y009065D01*
X008859Y009022D01*
X008819Y008982D01*
X006684Y008999D01*
X006543Y009140D01*
X006413Y009140D01*
X006371Y009182D01*
X006267Y009225D01*
X006153Y009225D01*
X006049Y009182D01*
X005968Y009101D01*
X005925Y008997D01*
X005925Y008883D01*
X005968Y008779D01*
X006049Y008698D01*
X006153Y008655D01*
X006267Y008655D01*
X006371Y008698D01*
X006395Y008722D01*
X006458Y008659D01*
X006516Y008601D01*
X006517Y008600D01*
X006599Y008600D01*
X007866Y008590D01*
X007799Y008562D01*
X007718Y008481D01*
X007675Y008377D01*
X007675Y008263D01*
X007718Y008159D01*
X007760Y008117D01*
X007760Y004557D01*
X007877Y004440D01*
X007967Y004350D01*
X009017Y004350D01*
X009917Y003450D01*
X009967Y003450D01*
X009898Y003381D01*
X009855Y003277D01*
X009855Y003163D01*
X009898Y003059D01*
X009940Y003017D01*
X009940Y002843D01*
X009898Y002801D01*
X009855Y002697D01*
X009855Y002583D01*
X009898Y002479D01*
X009979Y002398D01*
X010083Y002355D01*
X010197Y002355D01*
X010301Y002398D01*
X010382Y002479D01*
X010425Y002583D01*
X010425Y002697D01*
X010382Y002801D01*
X010340Y002843D01*
X010340Y003017D01*
X010382Y003059D01*
X010425Y003163D01*
X010425Y003198D01*
X011315Y002130D01*
X011315Y002043D01*
X011358Y001939D01*
X011439Y001858D01*
X011543Y001815D01*
X011657Y001815D01*
X011761Y001858D01*
X011842Y001939D01*
X011885Y002043D01*
X011885Y002157D01*
X011842Y002261D01*
X011761Y002342D01*
X011657Y002385D01*
X011838Y002266D02*
X014828Y002266D01*
X014906Y002167D02*
X011881Y002167D01*
X011885Y002069D02*
X014984Y002069D01*
X015055Y001970D02*
X011855Y001970D01*
X011775Y001872D02*
X015149Y001872D01*
X015337Y002364D02*
X017577Y002364D01*
X017743Y002364D02*
X021524Y002364D01*
X021467Y002266D02*
X017888Y002266D01*
X017937Y002167D02*
X021427Y002167D01*
X021406Y002069D02*
X017945Y002069D01*
X017919Y001970D02*
X021406Y001970D01*
X021411Y001872D02*
X017845Y001872D01*
X019480Y003349D02*
X012701Y003349D01*
X012799Y003448D02*
X019480Y003448D01*
X019480Y003546D02*
X012898Y003546D01*
X012963Y003611D02*
X012963Y003611D01*
X012996Y003645D02*
X019480Y003645D01*
X019480Y003743D02*
X013062Y003743D01*
X013080Y003842D02*
X019480Y003842D01*
X019480Y003940D02*
X013080Y003940D01*
X013080Y004039D02*
X019464Y004039D01*
X019425Y004137D02*
X013080Y004137D01*
X013080Y004236D02*
X019425Y004236D01*
X019461Y004334D02*
X013080Y004334D01*
X013080Y004433D02*
X019480Y004433D01*
X019480Y004531D02*
X013080Y004531D01*
X013080Y004630D02*
X019480Y004630D01*
X019480Y004728D02*
X013080Y004728D01*
X013080Y004827D02*
X019480Y004827D01*
X019480Y004925D02*
X013080Y004925D01*
X013080Y005024D02*
X019480Y005024D01*
X019480Y005122D02*
X013080Y005122D01*
X013080Y005221D02*
X019476Y005221D01*
X019431Y005319D02*
X013080Y005319D01*
X013080Y005418D02*
X019425Y005418D01*
X019454Y005516D02*
X013080Y005516D01*
X013080Y005615D02*
X019531Y005615D01*
X020261Y005910D02*
X020263Y005911D01*
X020300Y005948D01*
X020337Y005984D01*
X020338Y005986D01*
X020339Y005987D01*
X020359Y006035D01*
X020379Y006083D01*
X020379Y006085D01*
X020380Y006086D01*
X020380Y006138D01*
X020381Y006190D01*
X020380Y006192D01*
X020380Y008447D01*
X020395Y008483D01*
X020395Y008597D01*
X020352Y008701D01*
X020271Y008782D01*
X020167Y008825D01*
X020053Y008825D01*
X019949Y008782D01*
X019868Y008701D01*
X019825Y008597D01*
X019825Y008483D01*
X019840Y008447D01*
X019840Y006413D01*
X018039Y006436D01*
X018042Y006439D01*
X018085Y006543D01*
X018085Y006657D01*
X018042Y006761D01*
X017961Y006842D01*
X017857Y006885D01*
X017743Y006885D01*
X017650Y006846D01*
X017650Y006947D01*
X017692Y006989D01*
X017735Y007093D01*
X017735Y007207D01*
X017692Y007311D01*
X017611Y007392D01*
X017507Y007435D01*
X017393Y007435D01*
X017289Y007392D01*
X017208Y007311D01*
X017165Y007207D01*
X017165Y007093D01*
X017208Y006989D01*
X017250Y006947D01*
X017250Y006900D01*
X013867Y006900D01*
X013842Y006961D01*
X013761Y007042D01*
X013700Y007067D01*
X013750Y007117D01*
X013750Y009000D01*
X017554Y009000D01*
X017739Y008950D01*
X017748Y008929D01*
X017829Y008848D01*
X017933Y008805D01*
X018047Y008805D01*
X018151Y008848D01*
X018232Y008929D01*
X018275Y009033D01*
X018275Y009147D01*
X018232Y009251D01*
X018151Y009332D01*
X018047Y009375D01*
X017933Y009375D01*
X017841Y009337D01*
X017684Y009379D01*
X017663Y009400D01*
X017606Y009400D01*
X017552Y009415D01*
X017526Y009400D01*
X017431Y009400D01*
X017445Y009433D01*
X017445Y009547D01*
X017402Y009651D01*
X017321Y009732D01*
X017217Y009775D01*
X017103Y009775D01*
X016999Y009732D01*
X016987Y009720D01*
X015503Y009720D01*
X015600Y009817D01*
X015627Y009844D01*
X015661Y009858D01*
X015742Y009939D01*
X015785Y010043D01*
X015785Y010157D01*
X015742Y010261D01*
X015703Y010300D01*
X015997Y010300D01*
X016039Y010258D01*
X016143Y010215D01*
X016257Y010215D01*
X016361Y010258D01*
X016442Y010339D01*
X016485Y010443D01*
X016485Y010557D01*
X016442Y010661D01*
X016361Y010742D01*
X016257Y010785D01*
X016143Y010785D01*
X016039Y010742D01*
X015997Y010700D01*
X015117Y010700D01*
X014717Y010300D01*
X014478Y010300D01*
X014582Y010404D01*
X014669Y010615D01*
X014669Y010844D01*
X014582Y011055D01*
X014420Y011217D01*
X014209Y011304D01*
X013980Y011304D01*
X013769Y011217D01*
X013607Y011055D01*
X013519Y010844D01*
X013519Y010615D01*
X013607Y010404D01*
X013710Y010300D01*
X012510Y010300D01*
X012613Y010404D01*
X012701Y010615D01*
X012701Y010844D01*
X012613Y011055D01*
X012451Y011217D01*
X012356Y011256D01*
X012356Y011395D01*
X017146Y011409D01*
X017146Y011256D01*
X017050Y011217D01*
X016888Y011055D01*
X016801Y010844D01*
X016801Y010615D01*
X016888Y010404D01*
X017050Y010242D01*
X017261Y010154D01*
X017490Y010154D01*
X017701Y010242D01*
X017863Y010404D01*
X017951Y010615D01*
X017951Y010844D01*
X017863Y011055D01*
X017701Y011217D01*
X017606Y011256D01*
X017606Y011534D01*
X017624Y011568D01*
X017606Y011625D01*
X017606Y011685D01*
X017590Y011701D01*
X017590Y011736D01*
X017562Y011763D01*
X017551Y011800D01*
X017497Y011828D01*
X017455Y011870D01*
X017416Y011870D01*
X017382Y011888D01*
X017324Y011870D01*
X012221Y011855D01*
X012205Y011870D01*
X001675Y011870D01*
X001540Y011735D01*
X001540Y011254D01*
X001450Y011217D01*
X001288Y011055D01*
X001201Y010844D01*
X001201Y010615D01*
X001288Y010404D01*
X001450Y010242D01*
X001661Y010154D01*
X001890Y010154D01*
X002101Y010242D01*
X002263Y010404D01*
X002351Y010615D01*
X002351Y010844D01*
X002263Y011055D01*
X002101Y011217D01*
X002006Y011256D01*
X002006Y011410D01*
X006746Y011410D01*
X006746Y011256D01*
X006650Y011217D01*
X006488Y011055D01*
X006401Y010844D01*
X006401Y010615D01*
X006488Y010404D01*
X006650Y010242D01*
X006861Y010154D01*
X007090Y010154D01*
X007301Y010242D01*
X007463Y010404D01*
X007551Y010615D01*
X007551Y010844D01*
X007463Y011055D01*
X007301Y011217D01*
X007206Y011256D01*
X007206Y011410D01*
X010800Y011410D01*
X010800Y010633D01*
X010768Y010601D01*
X010725Y010497D01*
X010725Y010383D01*
X010760Y010300D01*
X010483Y010300D01*
X010400Y010383D01*
X010283Y010500D01*
X009917Y010500D01*
X009417Y010000D01*
X005585Y010000D01*
X005585Y010057D01*
X005542Y010161D01*
X005461Y010242D01*
X005357Y010285D01*
X005243Y010285D01*
X005139Y010242D01*
X005058Y010161D01*
X005015Y010057D01*
X005015Y009943D01*
X005058Y009839D01*
X005110Y009787D01*
X001835Y009818D01*
X001821Y009832D01*
X001717Y009875D01*
X001603Y009875D01*
X001499Y009832D01*
X001418Y009751D01*
X001375Y009647D01*
X001375Y009533D01*
X001418Y009429D01*
X001457Y009390D01*
X001360Y009390D01*
X001360Y008490D01*
X001260Y008490D01*
X001260Y009390D01*
X000740Y009390D01*
X000702Y009380D01*
X000668Y009360D01*
X000640Y009332D01*
X000620Y009298D01*
X000610Y009260D01*
X000610Y008490D01*
X001260Y008490D01*
X001260Y008390D01*
X001360Y008390D01*
X001360Y007490D01*
X001360Y007585D02*
X001260Y007585D01*
X001260Y007490D02*
X001260Y008390D01*
X000610Y008390D01*
X000610Y007620D01*
X000620Y007582D01*
X000640Y007548D01*
X000668Y007520D01*
X000702Y007500D01*
X000740Y007490D01*
X001260Y007490D01*
X001260Y007683D02*
X001360Y007683D01*
X001360Y007782D02*
X001260Y007782D01*
X001260Y007880D02*
X001360Y007880D01*
X001360Y007979D02*
X001260Y007979D01*
X001260Y008077D02*
X001360Y008077D01*
X001360Y008176D02*
X001260Y008176D01*
X001260Y008274D02*
X001360Y008274D01*
X001360Y008373D02*
X001260Y008373D01*
X001260Y008471D02*
X000200Y008471D01*
X000200Y008373D02*
X000610Y008373D01*
X000610Y008274D02*
X000200Y008274D01*
X000200Y008176D02*
X000610Y008176D01*
X000610Y008077D02*
X000200Y008077D01*
X000200Y007979D02*
X000610Y007979D01*
X000610Y007880D02*
X000200Y007880D01*
X000200Y007782D02*
X000610Y007782D01*
X000610Y007683D02*
X000200Y007683D01*
X000200Y007585D02*
X000620Y007585D01*
X000200Y007486D02*
X007760Y007486D01*
X007760Y007388D02*
X000200Y007388D01*
X000200Y007289D02*
X007760Y007289D01*
X007760Y007191D02*
X000200Y007191D01*
X000200Y006501D02*
X001452Y006501D01*
X001452Y006403D02*
X000200Y006403D01*
X000200Y006304D02*
X001452Y006304D01*
X001452Y006206D02*
X000200Y006206D01*
X000200Y006107D02*
X001452Y006107D01*
X001452Y006009D02*
X000200Y006009D01*
X000200Y005910D02*
X001452Y005910D01*
X001452Y005812D02*
X000200Y005812D01*
X000200Y005713D02*
X001452Y005713D01*
X002343Y005516D02*
X002509Y005516D01*
X002545Y005418D02*
X002343Y005418D01*
X002343Y005319D02*
X002587Y005319D01*
X002615Y005221D02*
X002343Y005221D01*
X002343Y005122D02*
X002615Y005122D01*
X003385Y005122D02*
X003657Y005122D01*
X003657Y005221D02*
X003385Y005221D01*
X003413Y005319D02*
X003657Y005319D01*
X003657Y005418D02*
X003455Y005418D01*
X003491Y005516D02*
X003657Y005516D01*
X003491Y005615D02*
X004052Y005615D01*
X004052Y005713D02*
X004152Y005713D01*
X004152Y005615D02*
X007760Y005615D01*
X007760Y005713D02*
X004548Y005713D01*
X004548Y005812D02*
X007760Y005812D01*
X007760Y005910D02*
X004548Y005910D01*
X004548Y006009D02*
X007760Y006009D01*
X007760Y006107D02*
X004548Y006107D01*
X004548Y006206D02*
X007760Y006206D01*
X007760Y006304D02*
X004548Y006304D01*
X004548Y006403D02*
X007760Y006403D01*
X007760Y006501D02*
X004548Y006501D01*
X004548Y006674D02*
X003985Y006674D01*
X003985Y007148D01*
X004417Y007148D01*
X004456Y007137D01*
X004490Y007118D01*
X004518Y007090D01*
X004537Y007056D01*
X004548Y007017D01*
X004548Y006674D01*
X004548Y006698D02*
X007760Y006698D01*
X007760Y006600D02*
X003985Y006600D01*
X003985Y006698D02*
X003885Y006698D01*
X003885Y006600D02*
X002115Y006600D01*
X003285Y006009D02*
X003657Y006009D01*
X003657Y005910D02*
X003384Y005910D01*
X003443Y005812D02*
X003657Y005812D01*
X003657Y005713D02*
X003484Y005713D01*
X004052Y005812D02*
X004152Y005812D01*
X004152Y005910D02*
X004052Y005910D01*
X004052Y006009D02*
X004152Y006009D01*
X004152Y005516D02*
X004052Y005516D01*
X004052Y005418D02*
X004152Y005418D01*
X004152Y005319D02*
X004052Y005319D01*
X004052Y005221D02*
X004152Y005221D01*
X004152Y005122D02*
X004052Y005122D01*
X004548Y005122D02*
X007760Y005122D01*
X007760Y005024D02*
X004548Y005024D01*
X004548Y004925D02*
X007760Y004925D01*
X007760Y004827D02*
X004548Y004827D01*
X004548Y004728D02*
X007760Y004728D01*
X007760Y004630D02*
X004548Y004630D01*
X004548Y004433D02*
X007885Y004433D01*
X007786Y004531D02*
X003985Y004531D01*
X003985Y004433D02*
X003885Y004433D01*
X003885Y004334D02*
X003985Y004334D01*
X003985Y004236D02*
X003885Y004236D01*
X003885Y004137D02*
X003985Y004137D01*
X004533Y004137D02*
X009230Y004137D01*
X009132Y004236D02*
X004548Y004236D01*
X004548Y004334D02*
X009033Y004334D01*
X009100Y004550D02*
X008050Y004550D01*
X007960Y004640D01*
X007960Y008320D01*
X007818Y008570D02*
X002010Y008570D01*
X002010Y008668D02*
X006122Y008668D01*
X005980Y008767D02*
X002010Y008767D01*
X002010Y008865D02*
X005933Y008865D01*
X005925Y008964D02*
X002010Y008964D01*
X002010Y009062D02*
X005952Y009062D01*
X006027Y009161D02*
X002010Y009161D01*
X002010Y009259D02*
X006844Y009259D01*
X006976Y009259D02*
X011844Y009259D01*
X011976Y009259D02*
X012110Y009259D01*
X012110Y009161D02*
X006393Y009161D01*
X006460Y008940D02*
X006210Y008940D01*
X006460Y008940D02*
X006600Y008800D01*
X009020Y008780D01*
X009282Y008668D02*
X012110Y008668D01*
X012110Y008570D02*
X009213Y008570D01*
X009305Y008767D02*
X012110Y008767D01*
X012110Y008865D02*
X009293Y008865D01*
X009240Y008964D02*
X012110Y008964D01*
X012110Y009062D02*
X009084Y009062D01*
X008956Y009062D02*
X006621Y009062D01*
X006449Y008668D02*
X006298Y008668D01*
X006516Y008601D02*
X006516Y008601D01*
X007675Y008373D02*
X002010Y008373D01*
X002010Y008274D02*
X007675Y008274D01*
X007711Y008176D02*
X002010Y008176D01*
X002010Y008077D02*
X007760Y008077D01*
X007760Y007979D02*
X002010Y007979D01*
X002010Y007880D02*
X007760Y007880D01*
X007760Y007782D02*
X002010Y007782D01*
X002010Y007683D02*
X007760Y007683D01*
X007760Y007585D02*
X002000Y007585D01*
X001360Y008471D02*
X007714Y008471D01*
X008102Y008570D02*
X008827Y008570D01*
X008245Y008373D02*
X012110Y008373D01*
X012110Y008471D02*
X008206Y008471D01*
X008245Y008274D02*
X012110Y008274D01*
X012110Y008176D02*
X008209Y008176D01*
X008160Y008077D02*
X012110Y008077D01*
X012110Y007979D02*
X008160Y007979D01*
X008160Y007880D02*
X012110Y007880D01*
X012110Y007782D02*
X008160Y007782D01*
X008160Y007683D02*
X010800Y007683D01*
X010741Y007585D02*
X008160Y007585D01*
X008160Y007486D02*
X010725Y007486D01*
X010744Y007388D02*
X008160Y007388D01*
X008160Y007289D02*
X010808Y007289D01*
X011244Y007092D02*
X008160Y007092D01*
X008160Y006994D02*
X011225Y006994D01*
X011241Y006895D02*
X008160Y006895D01*
X008160Y006797D02*
X011300Y006797D01*
X011310Y006698D02*
X008160Y006698D01*
X008160Y006600D02*
X011310Y006600D01*
X011310Y006501D02*
X008160Y006501D01*
X008160Y006403D02*
X011310Y006403D01*
X011310Y006304D02*
X008160Y006304D01*
X008160Y006206D02*
X011310Y006206D01*
X011310Y006107D02*
X008160Y006107D01*
X008160Y006009D02*
X011310Y006009D01*
X011310Y005910D02*
X008160Y005910D01*
X008160Y005812D02*
X011310Y005812D01*
X011310Y005713D02*
X008160Y005713D01*
X008160Y005615D02*
X011310Y005615D01*
X011310Y005516D02*
X008160Y005516D01*
X008160Y005418D02*
X011310Y005418D01*
X011310Y005319D02*
X008160Y005319D01*
X008160Y005221D02*
X011310Y005221D01*
X011310Y005122D02*
X008160Y005122D01*
X008160Y005024D02*
X011310Y005024D01*
X011310Y004925D02*
X008160Y004925D01*
X008160Y004827D02*
X011310Y004827D01*
X011310Y004728D02*
X009205Y004728D01*
X009303Y004630D02*
X011310Y004630D01*
X011310Y004531D02*
X009402Y004531D01*
X009500Y004433D02*
X011310Y004433D01*
X011310Y004334D02*
X009599Y004334D01*
X009697Y004236D02*
X011310Y004236D01*
X011310Y004137D02*
X009796Y004137D01*
X009894Y004039D02*
X011310Y004039D01*
X011310Y003940D02*
X009993Y003940D01*
X010000Y003650D02*
X009100Y004550D01*
X009329Y004039D02*
X003385Y004039D01*
X003385Y003940D02*
X009427Y003940D01*
X009526Y003842D02*
X003385Y003842D01*
X003385Y003743D02*
X007016Y003743D01*
X007041Y003768D02*
X006932Y003659D01*
X006873Y003517D01*
X006873Y003363D01*
X006932Y003221D01*
X007041Y003112D01*
X007183Y003053D01*
X007337Y003053D01*
X007479Y003112D01*
X007588Y003221D01*
X007647Y003363D01*
X007647Y003517D01*
X007588Y003659D01*
X007479Y003768D01*
X007337Y003827D01*
X007183Y003827D01*
X007041Y003768D01*
X006926Y003645D02*
X003385Y003645D01*
X003385Y003546D02*
X006885Y003546D01*
X006873Y003448D02*
X003354Y003448D01*
X003293Y003349D02*
X006257Y003349D01*
X006027Y003251D02*
X003162Y003251D01*
X002377Y002463D02*
X005782Y002463D01*
X005743Y002561D02*
X002197Y002561D01*
X002476Y002364D02*
X005823Y002364D01*
X005891Y002266D02*
X002533Y002266D01*
X002573Y002167D02*
X005989Y002167D01*
X005996Y001970D02*
X002594Y001970D01*
X002594Y002069D02*
X006166Y002069D01*
X005898Y001872D02*
X002589Y001872D01*
X002549Y001773D02*
X005825Y001773D01*
X005785Y001675D02*
X002508Y001675D01*
X002416Y001576D02*
X005744Y001576D01*
X005743Y001478D02*
X002290Y001478D01*
X001724Y000690D02*
X024340Y000690D01*
X024340Y000788D02*
X009080Y000788D01*
X009043Y000773D02*
X009288Y000874D01*
X009476Y001062D01*
X009577Y001307D01*
X009577Y001573D01*
X009476Y001818D01*
X009288Y002006D01*
X009145Y002065D01*
X009288Y002124D01*
X009476Y002312D01*
X009577Y002557D01*
X009577Y002823D01*
X009476Y003068D01*
X009288Y003256D01*
X009043Y003357D01*
X008777Y003357D01*
X008532Y003256D01*
X008344Y003068D01*
X008243Y002823D01*
X008243Y002557D01*
X008344Y002312D01*
X008532Y002124D01*
X008675Y002065D01*
X008532Y002006D01*
X008344Y001818D01*
X008243Y001573D01*
X008243Y001307D01*
X008344Y001062D01*
X008532Y000874D01*
X008777Y000773D01*
X009043Y000773D01*
X009300Y000887D02*
X024340Y000887D01*
X024340Y000985D02*
X009399Y000985D01*
X009485Y001084D02*
X024340Y001084D01*
X024340Y001182D02*
X009526Y001182D01*
X009566Y001281D02*
X024340Y001281D01*
X024340Y001379D02*
X009577Y001379D01*
X009577Y001478D02*
X021710Y001478D01*
X021584Y001576D02*
X009576Y001576D01*
X009535Y001675D02*
X021492Y001675D01*
X021451Y001773D02*
X009495Y001773D01*
X009422Y001872D02*
X011425Y001872D01*
X011345Y001970D02*
X009324Y001970D01*
X009154Y002069D02*
X011315Y002069D01*
X011284Y002167D02*
X009331Y002167D01*
X009429Y002266D02*
X011202Y002266D01*
X011120Y002364D02*
X010218Y002364D01*
X010062Y002364D02*
X009497Y002364D01*
X009538Y002463D02*
X009914Y002463D01*
X009864Y002561D02*
X009577Y002561D01*
X009577Y002660D02*
X009855Y002660D01*
X009880Y002758D02*
X009577Y002758D01*
X009564Y002857D02*
X009940Y002857D01*
X009940Y002955D02*
X009523Y002955D01*
X009482Y003054D02*
X009903Y003054D01*
X009860Y003152D02*
X009392Y003152D01*
X009293Y003251D02*
X009855Y003251D01*
X009885Y003349D02*
X009063Y003349D01*
X008757Y003349D02*
X008441Y003349D01*
X008447Y003363D02*
X008388Y003221D01*
X008279Y003112D01*
X008137Y003053D01*
X007983Y003053D01*
X007841Y003112D01*
X007732Y003221D01*
X007673Y003363D01*
X007673Y003517D01*
X007732Y003659D01*
X007841Y003768D01*
X007983Y003827D01*
X008137Y003827D01*
X008279Y003768D01*
X008388Y003659D01*
X008447Y003517D01*
X008447Y003363D01*
X008447Y003448D02*
X009964Y003448D01*
X009821Y003546D02*
X008435Y003546D01*
X008394Y003645D02*
X009723Y003645D01*
X009624Y003743D02*
X008304Y003743D01*
X007816Y003743D02*
X007504Y003743D01*
X007594Y003645D02*
X007726Y003645D01*
X007685Y003546D02*
X007635Y003546D01*
X007647Y003448D02*
X007673Y003448D01*
X007679Y003349D02*
X007641Y003349D01*
X007600Y003251D02*
X007720Y003251D01*
X007801Y003152D02*
X007519Y003152D01*
X007338Y003054D02*
X007982Y003054D01*
X008138Y003054D02*
X008338Y003054D01*
X008319Y003152D02*
X008428Y003152D01*
X008400Y003251D02*
X008527Y003251D01*
X008297Y002955D02*
X007023Y002955D01*
X007064Y002857D02*
X008256Y002857D01*
X008243Y002758D02*
X007077Y002758D01*
X007077Y002660D02*
X008243Y002660D01*
X008243Y002561D02*
X007077Y002561D01*
X007038Y002463D02*
X008282Y002463D01*
X008323Y002364D02*
X006997Y002364D01*
X006929Y002266D02*
X008391Y002266D01*
X008489Y002167D02*
X006831Y002167D01*
X006824Y001970D02*
X008496Y001970D01*
X008398Y001872D02*
X006922Y001872D01*
X006995Y001773D02*
X007453Y001773D01*
X007441Y001768D02*
X007332Y001659D01*
X007273Y001517D01*
X007273Y001363D01*
X007332Y001221D01*
X007441Y001112D01*
X007583Y001053D01*
X007737Y001053D01*
X007879Y001112D01*
X007988Y001221D01*
X008047Y001363D01*
X008047Y001517D01*
X007988Y001659D01*
X007879Y001768D01*
X007737Y001827D01*
X007583Y001827D01*
X007441Y001768D01*
X007347Y001675D02*
X007035Y001675D01*
X007076Y001576D02*
X007297Y001576D01*
X007273Y001478D02*
X007077Y001478D01*
X007077Y001379D02*
X007273Y001379D01*
X007307Y001281D02*
X007066Y001281D01*
X007026Y001182D02*
X007371Y001182D01*
X007509Y001084D02*
X006985Y001084D01*
X006899Y000985D02*
X008421Y000985D01*
X008335Y001084D02*
X007811Y001084D01*
X007949Y001182D02*
X008294Y001182D01*
X008254Y001281D02*
X008013Y001281D01*
X008047Y001379D02*
X008243Y001379D01*
X008243Y001478D02*
X008047Y001478D01*
X008023Y001576D02*
X008244Y001576D01*
X008285Y001675D02*
X007973Y001675D01*
X007867Y001773D02*
X008325Y001773D01*
X008666Y002069D02*
X006654Y002069D01*
X006982Y003054D02*
X007182Y003054D01*
X007001Y003152D02*
X006892Y003152D01*
X006920Y003251D02*
X006793Y003251D01*
X006879Y003349D02*
X006563Y003349D01*
X010000Y003650D02*
X010300Y003650D01*
X010350Y003600D01*
X011600Y002100D01*
X011038Y002463D02*
X010366Y002463D01*
X010416Y002561D02*
X010955Y002561D01*
X010873Y002660D02*
X010425Y002660D01*
X010400Y002758D02*
X010791Y002758D01*
X010709Y002857D02*
X010340Y002857D01*
X010340Y002955D02*
X010627Y002955D01*
X010545Y003054D02*
X010377Y003054D01*
X010420Y003152D02*
X010463Y003152D01*
X010140Y003220D02*
X010140Y002640D01*
X010984Y003152D02*
X012009Y003152D01*
X012030Y003054D02*
X011066Y003054D01*
X011148Y002955D02*
X012030Y002955D01*
X012118Y002857D02*
X011230Y002857D01*
X011296Y003251D02*
X010902Y003251D01*
X010820Y003349D02*
X011239Y003349D01*
X011225Y003448D02*
X010737Y003448D01*
X010655Y003546D02*
X011245Y003546D01*
X011310Y003645D02*
X010573Y003645D01*
X010491Y003743D02*
X011310Y003743D01*
X011310Y003842D02*
X010391Y003842D01*
X011510Y003440D02*
X011510Y006990D01*
X011713Y007191D02*
X012540Y007191D01*
X012540Y007092D02*
X011776Y007092D01*
X011795Y006994D02*
X012540Y006994D01*
X012540Y006895D02*
X011779Y006895D01*
X011720Y006797D02*
X012540Y006797D01*
X012540Y006698D02*
X011710Y006698D01*
X011710Y006600D02*
X012540Y006600D01*
X012540Y006501D02*
X011710Y006501D01*
X011710Y006403D02*
X012540Y006403D01*
X012540Y006304D02*
X011710Y006304D01*
X011710Y006206D02*
X012540Y006206D01*
X012540Y006107D02*
X012006Y006107D01*
X012091Y006009D02*
X012540Y006009D01*
X012540Y005910D02*
X012125Y005910D01*
X012124Y005812D02*
X012540Y005812D01*
X012540Y005713D02*
X012083Y005713D01*
X012040Y005615D02*
X012540Y005615D01*
X012540Y005516D02*
X012040Y005516D01*
X012040Y005418D02*
X012540Y005418D01*
X012540Y005319D02*
X012040Y005319D01*
X012040Y005221D02*
X012540Y005221D01*
X012540Y005122D02*
X012040Y005122D01*
X012040Y005024D02*
X012540Y005024D01*
X012540Y004925D02*
X012040Y004925D01*
X012040Y004827D02*
X012540Y004827D01*
X012540Y004728D02*
X012040Y004728D01*
X012040Y004630D02*
X012540Y004630D01*
X012540Y004531D02*
X012040Y004531D01*
X012040Y004433D02*
X012540Y004433D01*
X012540Y004334D02*
X012040Y004334D01*
X012040Y004236D02*
X012540Y004236D01*
X012540Y004137D02*
X012040Y004137D01*
X012040Y004039D02*
X012540Y004039D01*
X012528Y003940D02*
X012053Y003940D01*
X012111Y003842D02*
X012430Y003842D01*
X012331Y003743D02*
X012125Y003743D01*
X012105Y003645D02*
X012233Y003645D01*
X012133Y003546D02*
X012039Y003546D01*
X012017Y003448D02*
X011795Y003448D01*
X011781Y003349D02*
X011976Y003349D01*
X011975Y003251D02*
X011724Y003251D01*
X011840Y003750D02*
X011840Y005870D01*
X013250Y006500D02*
X017750Y006500D01*
X017800Y006600D01*
X018085Y006600D02*
X019840Y006600D01*
X019840Y006698D02*
X018068Y006698D01*
X018007Y006797D02*
X019840Y006797D01*
X019840Y006895D02*
X017650Y006895D01*
X017694Y006994D02*
X019840Y006994D01*
X019840Y007092D02*
X017734Y007092D01*
X017735Y007191D02*
X019840Y007191D01*
X019840Y007289D02*
X017701Y007289D01*
X017616Y007388D02*
X019840Y007388D01*
X019840Y007486D02*
X013750Y007486D01*
X013750Y007388D02*
X017284Y007388D01*
X017199Y007289D02*
X013750Y007289D01*
X013750Y007191D02*
X017165Y007191D01*
X017166Y007092D02*
X013725Y007092D01*
X013810Y006994D02*
X017206Y006994D01*
X017450Y007150D02*
X017450Y006700D01*
X013700Y006700D01*
X013600Y006800D01*
X013300Y006950D02*
X013550Y007200D01*
X013550Y009100D01*
X013650Y009200D01*
X017580Y009200D01*
X017990Y009090D01*
X017891Y009358D02*
X017765Y009358D01*
X018089Y009358D02*
X024340Y009358D01*
X024340Y009456D02*
X017445Y009456D01*
X017442Y009555D02*
X024340Y009555D01*
X024340Y009653D02*
X017400Y009653D01*
X017273Y009752D02*
X024340Y009752D01*
X024340Y009850D02*
X015641Y009850D01*
X015746Y009949D02*
X024340Y009949D01*
X024340Y010047D02*
X015785Y010047D01*
X015785Y010146D02*
X024340Y010146D01*
X024340Y010244D02*
X019672Y010244D01*
X019670Y010242D02*
X019832Y010404D01*
X019919Y010615D01*
X019919Y010844D01*
X019832Y011055D01*
X019670Y011217D01*
X019459Y011304D01*
X019230Y011304D01*
X019019Y011217D01*
X018857Y011055D01*
X018769Y010844D01*
X018769Y010615D01*
X018857Y010404D01*
X019019Y010242D01*
X019230Y010154D01*
X019459Y010154D01*
X019670Y010242D01*
X019771Y010343D02*
X024340Y010343D01*
X024340Y010441D02*
X019847Y010441D01*
X019888Y010540D02*
X024340Y010540D01*
X024340Y010638D02*
X019919Y010638D01*
X019919Y010737D02*
X024340Y010737D01*
X024340Y010835D02*
X019919Y010835D01*
X019882Y010934D02*
X024340Y010934D01*
X024340Y011032D02*
X019841Y011032D01*
X019756Y011131D02*
X024340Y011131D01*
X024340Y011229D02*
X019641Y011229D01*
X019048Y011229D02*
X017672Y011229D01*
X017606Y011328D02*
X024340Y011328D01*
X024340Y011426D02*
X017606Y011426D01*
X017606Y011525D02*
X024340Y011525D01*
X024340Y011623D02*
X017606Y011623D01*
X017590Y011722D02*
X024340Y011722D01*
X024340Y011820D02*
X017512Y011820D01*
X017146Y011328D02*
X012356Y011328D01*
X012422Y011229D02*
X013798Y011229D01*
X013682Y011131D02*
X012538Y011131D01*
X012623Y011032D02*
X013597Y011032D01*
X013556Y010934D02*
X012664Y010934D01*
X012701Y010835D02*
X013519Y010835D01*
X013519Y010737D02*
X012701Y010737D01*
X012701Y010638D02*
X013519Y010638D01*
X013551Y010540D02*
X012669Y010540D01*
X012629Y010441D02*
X013591Y010441D01*
X013668Y010343D02*
X012552Y010343D01*
X011742Y010300D02*
X011260Y010300D01*
X011295Y010383D01*
X011295Y010497D01*
X011260Y010581D01*
X011260Y011410D01*
X011896Y011410D01*
X011896Y011256D01*
X011800Y011217D01*
X011638Y011055D01*
X011551Y010844D01*
X011551Y010615D01*
X011638Y010404D01*
X011742Y010300D01*
X011699Y010343D02*
X011278Y010343D01*
X011295Y010441D02*
X011623Y010441D01*
X011582Y010540D02*
X011277Y010540D01*
X011260Y010638D02*
X011551Y010638D01*
X011551Y010737D02*
X011260Y010737D01*
X011260Y010835D02*
X011551Y010835D01*
X011588Y010934D02*
X011260Y010934D01*
X011260Y011032D02*
X011629Y011032D01*
X011714Y011131D02*
X011260Y011131D01*
X011260Y011229D02*
X011829Y011229D01*
X011896Y011328D02*
X011260Y011328D01*
X010800Y011328D02*
X007206Y011328D01*
X007272Y011229D02*
X008648Y011229D01*
X008619Y011217D02*
X008457Y011055D01*
X008369Y010844D01*
X008369Y010615D01*
X008457Y010404D01*
X008619Y010242D01*
X008830Y010154D01*
X009059Y010154D01*
X009270Y010242D01*
X009432Y010404D01*
X009519Y010615D01*
X009519Y010844D01*
X009432Y011055D01*
X009270Y011217D01*
X009059Y011304D01*
X008830Y011304D01*
X008619Y011217D01*
X008532Y011131D02*
X007388Y011131D01*
X007473Y011032D02*
X008447Y011032D01*
X008406Y010934D02*
X007514Y010934D01*
X007551Y010835D02*
X008369Y010835D01*
X008369Y010737D02*
X007551Y010737D01*
X007551Y010638D02*
X008369Y010638D01*
X008401Y010540D02*
X007519Y010540D01*
X007479Y010441D02*
X008441Y010441D01*
X008518Y010343D02*
X007402Y010343D01*
X007304Y010244D02*
X008616Y010244D01*
X009272Y010244D02*
X009661Y010244D01*
X009563Y010146D02*
X005548Y010146D01*
X005585Y010047D02*
X009464Y010047D01*
X009500Y009800D02*
X005500Y009800D01*
X005300Y010000D01*
X005052Y010146D02*
X000200Y010146D01*
X000200Y010244D02*
X001448Y010244D01*
X001349Y010343D02*
X000200Y010343D01*
X000200Y010441D02*
X001273Y010441D01*
X001232Y010540D02*
X000200Y010540D01*
X000200Y010638D02*
X001201Y010638D01*
X001201Y010737D02*
X000200Y010737D01*
X000200Y010835D02*
X001201Y010835D01*
X001238Y010934D02*
X000200Y010934D01*
X000200Y011032D02*
X001279Y011032D01*
X001364Y011131D02*
X000200Y011131D01*
X000200Y011229D02*
X001479Y011229D01*
X001540Y011328D02*
X000200Y011328D01*
X000200Y011426D02*
X001540Y011426D01*
X001540Y011525D02*
X000200Y011525D01*
X000200Y011623D02*
X001540Y011623D01*
X001540Y011722D02*
X000200Y011722D01*
X000200Y011820D02*
X001625Y011820D01*
X002006Y011328D02*
X006746Y011328D01*
X006679Y011229D02*
X004041Y011229D01*
X004070Y011217D02*
X003859Y011304D01*
X003630Y011304D01*
X003419Y011217D01*
X003257Y011055D01*
X003169Y010844D01*
X003169Y010615D01*
X003257Y010404D01*
X003419Y010242D01*
X003630Y010154D01*
X003859Y010154D01*
X004070Y010242D01*
X004232Y010404D01*
X004319Y010615D01*
X004319Y010844D01*
X004232Y011055D01*
X004070Y011217D01*
X004156Y011131D02*
X006564Y011131D01*
X006479Y011032D02*
X004241Y011032D01*
X004282Y010934D02*
X006438Y010934D01*
X006401Y010835D02*
X004319Y010835D01*
X004319Y010737D02*
X006401Y010737D01*
X006401Y010638D02*
X004319Y010638D01*
X004288Y010540D02*
X006432Y010540D01*
X006473Y010441D02*
X004247Y010441D01*
X004171Y010343D02*
X006549Y010343D01*
X006648Y010244D02*
X005456Y010244D01*
X005144Y010244D02*
X004072Y010244D01*
X003416Y010244D02*
X002104Y010244D01*
X002202Y010343D02*
X003318Y010343D01*
X003241Y010441D02*
X002279Y010441D01*
X002319Y010540D02*
X003201Y010540D01*
X003169Y010638D02*
X002351Y010638D01*
X002351Y010737D02*
X003169Y010737D01*
X003169Y010835D02*
X002351Y010835D01*
X002314Y010934D02*
X003206Y010934D01*
X003247Y011032D02*
X002273Y011032D01*
X002188Y011131D02*
X003332Y011131D01*
X003448Y011229D02*
X002072Y011229D01*
X000200Y011919D02*
X024340Y011919D01*
X024340Y012017D02*
X000200Y012017D01*
X000200Y012116D02*
X024340Y012116D01*
X024340Y012214D02*
X000200Y012214D01*
X000200Y012313D02*
X024340Y012313D01*
X024340Y012411D02*
X000200Y012411D01*
X000200Y012510D02*
X024340Y012510D01*
X024340Y012608D02*
X000200Y012608D01*
X000200Y012707D02*
X024340Y012707D01*
X024340Y012805D02*
X000200Y012805D01*
X000200Y012904D02*
X024340Y012904D01*
X024340Y013002D02*
X000200Y013002D01*
X000200Y013101D02*
X024340Y013101D01*
X024340Y013199D02*
X000200Y013199D01*
X000200Y013298D02*
X024340Y013298D01*
X024340Y013396D02*
X000200Y013396D01*
X000200Y013495D02*
X021669Y013495D01*
X021664Y013497D02*
X021882Y013406D01*
X022118Y013406D01*
X022336Y013497D01*
X022503Y013664D01*
X022594Y013882D01*
X022594Y014118D01*
X022503Y014336D01*
X022336Y014503D01*
X022118Y014594D01*
X021882Y014594D01*
X021664Y014503D01*
X021497Y014336D01*
X021406Y014118D01*
X021406Y013882D01*
X021497Y013664D01*
X021664Y013497D01*
X021567Y013593D02*
X000200Y013593D01*
X000200Y013692D02*
X021485Y013692D01*
X021444Y013790D02*
X000200Y013790D01*
X000200Y013889D02*
X021406Y013889D01*
X021406Y013987D02*
X000200Y013987D01*
X000200Y014086D02*
X021406Y014086D01*
X021434Y014184D02*
X000200Y014184D01*
X000200Y014283D02*
X021474Y014283D01*
X021541Y014381D02*
X000200Y014381D01*
X000200Y014480D02*
X021640Y014480D01*
X021844Y014578D02*
X000200Y014578D01*
X000200Y014677D02*
X024340Y014677D01*
X024340Y014775D02*
X000200Y014775D01*
X000200Y014874D02*
X024340Y014874D01*
X024340Y014972D02*
X000200Y014972D01*
X000200Y015071D02*
X024340Y015071D01*
X024340Y015169D02*
X019676Y015169D01*
X019670Y015163D02*
X019832Y015325D01*
X019919Y015536D01*
X019919Y015765D01*
X019832Y015976D01*
X019670Y016138D01*
X019459Y016226D01*
X019230Y016226D01*
X019019Y016138D01*
X018857Y015976D01*
X018769Y015765D01*
X018769Y015536D01*
X018857Y015325D01*
X019019Y015163D01*
X019230Y015076D01*
X019459Y015076D01*
X019670Y015163D01*
X019774Y015268D02*
X024340Y015268D01*
X024340Y015366D02*
X019849Y015366D01*
X019890Y015465D02*
X024340Y015465D01*
X024340Y015563D02*
X019919Y015563D01*
X019919Y015662D02*
X024340Y015662D01*
X024340Y015760D02*
X019919Y015760D01*
X019881Y015859D02*
X024340Y015859D01*
X024340Y015957D02*
X019840Y015957D01*
X019753Y016056D02*
X024340Y016056D01*
X024340Y016154D02*
X019631Y016154D01*
X019057Y016154D02*
X017663Y016154D01*
X017701Y016138D02*
X017490Y016226D01*
X017261Y016226D01*
X017050Y016138D01*
X016888Y015976D01*
X016801Y015765D01*
X016801Y015536D01*
X016888Y015325D01*
X017050Y015163D01*
X017261Y015076D01*
X017490Y015076D01*
X017701Y015163D01*
X017863Y015325D01*
X017951Y015536D01*
X017951Y015765D01*
X017863Y015976D01*
X017701Y016138D01*
X017784Y016056D02*
X018936Y016056D01*
X018849Y015957D02*
X017871Y015957D01*
X017912Y015859D02*
X018808Y015859D01*
X018769Y015760D02*
X017951Y015760D01*
X017951Y015662D02*
X018769Y015662D01*
X018769Y015563D02*
X017951Y015563D01*
X017921Y015465D02*
X018799Y015465D01*
X018840Y015366D02*
X017880Y015366D01*
X017806Y015268D02*
X018914Y015268D01*
X019013Y015169D02*
X017707Y015169D01*
X017044Y015169D02*
X014426Y015169D01*
X014420Y015163D02*
X014582Y015325D01*
X014669Y015536D01*
X014669Y015765D01*
X014582Y015976D01*
X014420Y016138D01*
X014209Y016226D01*
X013980Y016226D01*
X013769Y016138D01*
X013607Y015976D01*
X013519Y015765D01*
X013519Y015536D01*
X013607Y015325D01*
X013769Y015163D01*
X013980Y015076D01*
X014209Y015076D01*
X014420Y015163D01*
X014524Y015268D02*
X016946Y015268D01*
X016871Y015366D02*
X014599Y015366D01*
X014640Y015465D02*
X016830Y015465D01*
X016801Y015563D02*
X014669Y015563D01*
X014669Y015662D02*
X016801Y015662D01*
X016801Y015760D02*
X014669Y015760D01*
X014631Y015859D02*
X016839Y015859D01*
X016880Y015957D02*
X014590Y015957D01*
X014503Y016056D02*
X016967Y016056D01*
X017089Y016154D02*
X014381Y016154D01*
X013807Y016154D02*
X012413Y016154D01*
X012451Y016138D02*
X012240Y016226D01*
X012011Y016226D01*
X011800Y016138D01*
X011638Y015976D01*
X011551Y015765D01*
X011551Y015536D01*
X011638Y015325D01*
X011800Y015163D01*
X012011Y015076D01*
X012240Y015076D01*
X012451Y015163D01*
X012613Y015325D01*
X012701Y015536D01*
X012701Y015765D01*
X012613Y015976D01*
X012451Y016138D01*
X012534Y016056D02*
X013686Y016056D01*
X013599Y015957D02*
X012621Y015957D01*
X012662Y015859D02*
X013558Y015859D01*
X013519Y015760D02*
X012701Y015760D01*
X012701Y015662D02*
X013519Y015662D01*
X013519Y015563D02*
X012701Y015563D01*
X012671Y015465D02*
X013549Y015465D01*
X013590Y015366D02*
X012630Y015366D01*
X012556Y015268D02*
X013664Y015268D01*
X013763Y015169D02*
X012457Y015169D01*
X011794Y015169D02*
X009276Y015169D01*
X009270Y015163D02*
X009432Y015325D01*
X009519Y015536D01*
X009519Y015765D01*
X009432Y015976D01*
X009270Y016138D01*
X009059Y016226D01*
X008830Y016226D01*
X008619Y016138D01*
X008457Y015976D01*
X008369Y015765D01*
X008369Y015536D01*
X008457Y015325D01*
X008619Y015163D01*
X008830Y015076D01*
X009059Y015076D01*
X009270Y015163D01*
X009374Y015268D02*
X011696Y015268D01*
X011621Y015366D02*
X009449Y015366D01*
X009490Y015465D02*
X011580Y015465D01*
X011551Y015563D02*
X009519Y015563D01*
X009519Y015662D02*
X011551Y015662D01*
X011551Y015760D02*
X009519Y015760D01*
X009481Y015859D02*
X011589Y015859D01*
X011630Y015957D02*
X009440Y015957D01*
X009353Y016056D02*
X011717Y016056D01*
X011839Y016154D02*
X009231Y016154D01*
X008657Y016154D02*
X007263Y016154D01*
X007301Y016138D02*
X007090Y016226D01*
X006861Y016226D01*
X006650Y016138D01*
X006488Y015976D01*
X006401Y015765D01*
X006401Y015536D01*
X006488Y015325D01*
X006650Y015163D01*
X006861Y015076D01*
X007090Y015076D01*
X007301Y015163D01*
X007463Y015325D01*
X007551Y015536D01*
X007551Y015765D01*
X007463Y015976D01*
X007301Y016138D01*
X007384Y016056D02*
X008536Y016056D01*
X008449Y015957D02*
X007471Y015957D01*
X007512Y015859D02*
X008408Y015859D01*
X008369Y015760D02*
X007551Y015760D01*
X007551Y015662D02*
X008369Y015662D01*
X008369Y015563D02*
X007551Y015563D01*
X007521Y015465D02*
X008399Y015465D01*
X008440Y015366D02*
X007480Y015366D01*
X007406Y015268D02*
X008514Y015268D01*
X008613Y015169D02*
X007307Y015169D01*
X006644Y015169D02*
X004076Y015169D01*
X004070Y015163D02*
X004232Y015325D01*
X004319Y015536D01*
X004319Y015765D01*
X004232Y015976D01*
X004070Y016138D01*
X003859Y016226D01*
X003630Y016226D01*
X003419Y016138D01*
X003257Y015976D01*
X003169Y015765D01*
X003169Y015536D01*
X003257Y015325D01*
X003419Y015163D01*
X003630Y015076D01*
X003859Y015076D01*
X004070Y015163D01*
X004174Y015268D02*
X006546Y015268D01*
X006471Y015366D02*
X004249Y015366D01*
X004290Y015465D02*
X006430Y015465D01*
X006401Y015563D02*
X004319Y015563D01*
X004319Y015662D02*
X006401Y015662D01*
X006401Y015760D02*
X004319Y015760D01*
X004281Y015859D02*
X006439Y015859D01*
X006480Y015957D02*
X004240Y015957D01*
X004153Y016056D02*
X006567Y016056D01*
X006689Y016154D02*
X004031Y016154D01*
X003457Y016154D02*
X002063Y016154D01*
X002101Y016138D02*
X001890Y016226D01*
X001661Y016226D01*
X001450Y016138D01*
X001288Y015976D01*
X001201Y015765D01*
X001201Y015536D01*
X001288Y015325D01*
X001450Y015163D01*
X001661Y015076D01*
X001890Y015076D01*
X002101Y015163D01*
X002263Y015325D01*
X002351Y015536D01*
X002351Y015765D01*
X002263Y015976D01*
X002101Y016138D01*
X002184Y016056D02*
X003336Y016056D01*
X003249Y015957D02*
X002271Y015957D01*
X002312Y015859D02*
X003208Y015859D01*
X003169Y015760D02*
X002351Y015760D01*
X002351Y015662D02*
X003169Y015662D01*
X003169Y015563D02*
X002351Y015563D01*
X002321Y015465D02*
X003199Y015465D01*
X003240Y015366D02*
X002280Y015366D01*
X002206Y015268D02*
X003314Y015268D01*
X003413Y015169D02*
X002107Y015169D01*
X001444Y015169D02*
X000200Y015169D01*
X000200Y015268D02*
X001346Y015268D01*
X001271Y015366D02*
X000200Y015366D01*
X000205Y015465D02*
X001230Y015465D01*
X001201Y015563D02*
X000214Y015563D01*
X000246Y015662D02*
X001201Y015662D01*
X001201Y015760D02*
X000278Y015760D01*
X000312Y015859D02*
X001239Y015859D01*
X001280Y015957D02*
X000384Y015957D01*
X000455Y016056D02*
X001367Y016056D01*
X001489Y016154D02*
X000557Y016154D01*
X000693Y016253D02*
X024340Y016253D01*
X024340Y016351D02*
X000931Y016351D01*
X009241Y011229D02*
X010800Y011229D01*
X010800Y011131D02*
X009356Y011131D01*
X009441Y011032D02*
X010800Y011032D01*
X010800Y010934D02*
X009482Y010934D01*
X009519Y010835D02*
X010800Y010835D01*
X010800Y010737D02*
X009519Y010737D01*
X009519Y010638D02*
X010800Y010638D01*
X010743Y010540D02*
X009488Y010540D01*
X009447Y010441D02*
X009858Y010441D01*
X009760Y010343D02*
X009371Y010343D01*
X009500Y009800D02*
X010000Y010300D01*
X010200Y010300D01*
X010400Y010100D01*
X014800Y010100D01*
X015200Y010500D01*
X016200Y010500D01*
X016451Y010638D02*
X016801Y010638D01*
X016801Y010737D02*
X016367Y010737D01*
X016485Y010540D02*
X016832Y010540D01*
X016873Y010441D02*
X016484Y010441D01*
X016443Y010343D02*
X016949Y010343D01*
X017048Y010244D02*
X016327Y010244D01*
X016073Y010244D02*
X015749Y010244D01*
X015500Y010100D02*
X015500Y010000D01*
X015400Y009900D01*
X010100Y009900D01*
X010440Y010343D02*
X010742Y010343D01*
X010725Y010441D02*
X010342Y010441D01*
X011010Y010440D02*
X011030Y010440D01*
X013750Y008964D02*
X017690Y008964D01*
X017812Y008865D02*
X013750Y008865D01*
X013750Y008767D02*
X019933Y008767D01*
X019855Y008668D02*
X013750Y008668D01*
X013750Y008570D02*
X019825Y008570D01*
X019830Y008471D02*
X013750Y008471D01*
X013750Y008373D02*
X019840Y008373D01*
X019840Y008274D02*
X013750Y008274D01*
X013750Y008176D02*
X019840Y008176D01*
X019840Y008077D02*
X013750Y008077D01*
X013750Y007979D02*
X019840Y007979D01*
X019840Y007880D02*
X013750Y007880D01*
X013750Y007782D02*
X019840Y007782D01*
X019840Y007683D02*
X013750Y007683D01*
X013750Y007585D02*
X019840Y007585D01*
X020380Y007585D02*
X024340Y007585D01*
X024340Y007683D02*
X020380Y007683D01*
X020380Y007782D02*
X024340Y007782D01*
X024340Y007880D02*
X020380Y007880D01*
X020380Y007979D02*
X024340Y007979D01*
X024340Y008077D02*
X020380Y008077D01*
X020380Y008176D02*
X024340Y008176D01*
X024340Y008274D02*
X020380Y008274D01*
X020380Y008373D02*
X024340Y008373D01*
X024340Y008471D02*
X020390Y008471D01*
X020395Y008570D02*
X024340Y008570D01*
X024340Y008668D02*
X020365Y008668D01*
X020287Y008767D02*
X024340Y008767D01*
X024340Y008865D02*
X018168Y008865D01*
X018246Y008964D02*
X024340Y008964D01*
X024340Y009062D02*
X018275Y009062D01*
X018269Y009161D02*
X024340Y009161D01*
X024340Y009259D02*
X018224Y009259D01*
X017047Y009752D02*
X015534Y009752D01*
X014858Y010441D02*
X014597Y010441D01*
X014638Y010540D02*
X014957Y010540D01*
X015055Y010638D02*
X014669Y010638D01*
X014669Y010737D02*
X016033Y010737D01*
X016801Y010835D02*
X014669Y010835D01*
X014632Y010934D02*
X016838Y010934D01*
X016879Y011032D02*
X014591Y011032D01*
X014506Y011131D02*
X016964Y011131D01*
X017079Y011229D02*
X014391Y011229D01*
X014521Y010343D02*
X014760Y010343D01*
X013160Y008840D02*
X013160Y008490D01*
X012810Y008440D01*
X011307Y007191D02*
X008160Y007191D01*
X007760Y007092D02*
X004515Y007092D01*
X004548Y006994D02*
X007760Y006994D01*
X007760Y006895D02*
X004548Y006895D01*
X004548Y006797D02*
X007760Y006797D01*
X007760Y005516D02*
X004548Y005516D01*
X004548Y005418D02*
X007760Y005418D01*
X007760Y005319D02*
X004548Y005319D01*
X004548Y005221D02*
X007760Y005221D01*
X003985Y006797D02*
X003885Y006797D01*
X003885Y006895D02*
X003985Y006895D01*
X003985Y006994D02*
X003885Y006994D01*
X003885Y007092D02*
X003985Y007092D01*
X001360Y008570D02*
X001260Y008570D01*
X001260Y008668D02*
X001360Y008668D01*
X001360Y008767D02*
X001260Y008767D01*
X001260Y008865D02*
X001360Y008865D01*
X001360Y008964D02*
X001260Y008964D01*
X001260Y009062D02*
X001360Y009062D01*
X001360Y009161D02*
X001260Y009161D01*
X001260Y009259D02*
X001360Y009259D01*
X001360Y009358D02*
X001260Y009358D01*
X001407Y009456D02*
X000200Y009456D01*
X000200Y009358D02*
X000665Y009358D01*
X000610Y009259D02*
X000200Y009259D01*
X000200Y009161D02*
X000610Y009161D01*
X000610Y009062D02*
X000200Y009062D01*
X000200Y008964D02*
X000610Y008964D01*
X000610Y008865D02*
X000200Y008865D01*
X000200Y008767D02*
X000610Y008767D01*
X000610Y008668D02*
X000200Y008668D01*
X000200Y008570D02*
X000610Y008570D01*
X000200Y009555D02*
X001375Y009555D01*
X001378Y009653D02*
X000200Y009653D01*
X000200Y009752D02*
X001418Y009752D01*
X001543Y009850D02*
X000200Y009850D01*
X000200Y009949D02*
X005015Y009949D01*
X005015Y010047D02*
X000200Y010047D01*
X001777Y009850D02*
X005054Y009850D01*
X013250Y006950D02*
X013300Y006950D01*
X015461Y005910D02*
X016051Y005910D01*
X016189Y005910D02*
X016915Y005910D01*
X018067Y006501D02*
X019840Y006501D01*
X020380Y006501D02*
X024340Y006501D01*
X024340Y006403D02*
X020380Y006403D01*
X020380Y006304D02*
X024340Y006304D01*
X024340Y006206D02*
X020380Y006206D01*
X020380Y006107D02*
X024340Y006107D01*
X024340Y006009D02*
X020348Y006009D01*
X020380Y006600D02*
X024340Y006600D01*
X024340Y006698D02*
X020380Y006698D01*
X020380Y006797D02*
X024340Y006797D01*
X024340Y006895D02*
X020380Y006895D01*
X020380Y006994D02*
X024340Y006994D01*
X024340Y007092D02*
X020380Y007092D01*
X020380Y007191D02*
X024340Y007191D01*
X024340Y007289D02*
X020380Y007289D01*
X020380Y007388D02*
X024340Y007388D01*
X024340Y007486D02*
X020380Y007486D01*
X019016Y010244D02*
X017704Y010244D01*
X017802Y010343D02*
X018918Y010343D01*
X018841Y010441D02*
X017879Y010441D01*
X017919Y010540D02*
X018801Y010540D01*
X018769Y010638D02*
X017951Y010638D01*
X017951Y010737D02*
X018769Y010737D01*
X018769Y010835D02*
X017951Y010835D01*
X017914Y010934D02*
X018806Y010934D01*
X018847Y011032D02*
X017873Y011032D01*
X017788Y011131D02*
X018932Y011131D01*
X022331Y013495D02*
X024340Y013495D01*
X024340Y013593D02*
X022433Y013593D01*
X022515Y013692D02*
X024340Y013692D01*
X024340Y013790D02*
X022556Y013790D01*
X022594Y013889D02*
X024340Y013889D01*
X024340Y013987D02*
X022594Y013987D01*
X022594Y014086D02*
X024340Y014086D01*
X024340Y014184D02*
X022566Y014184D01*
X022526Y014283D02*
X024340Y014283D01*
X024340Y014381D02*
X022459Y014381D01*
X022360Y014480D02*
X024340Y014480D01*
X024340Y014578D02*
X022156Y014578D01*
X022197Y002561D02*
X024340Y002561D01*
X024340Y002463D02*
X022377Y002463D01*
X022476Y002364D02*
X024340Y002364D01*
X024340Y002266D02*
X022533Y002266D01*
X022573Y002167D02*
X024340Y002167D01*
X024340Y002069D02*
X022594Y002069D01*
X022594Y001970D02*
X024340Y001970D01*
X024340Y001872D02*
X022589Y001872D01*
X022549Y001773D02*
X024340Y001773D01*
X024340Y001675D02*
X022508Y001675D01*
X022416Y001576D02*
X024340Y001576D01*
X024340Y001478D02*
X022290Y001478D01*
X024340Y000591D02*
X001872Y000591D01*
X002098Y000493D02*
X024340Y000493D01*
X024340Y000394D02*
X002335Y000394D01*
X002684Y000296D02*
X024340Y000296D01*
X008740Y000788D02*
X006580Y000788D01*
X006800Y000887D02*
X008520Y000887D01*
X006240Y000788D02*
X001577Y000788D01*
D16*
X003160Y000840D03*
X004410Y000890D03*
X003660Y001840D03*
X003010Y002540D03*
X003710Y002940D03*
X004510Y002690D03*
X003760Y003690D03*
X004010Y004490D03*
X005910Y003590D03*
X007910Y004190D03*
X006910Y005090D03*
X008710Y005290D03*
X010310Y005290D03*
X011840Y005870D03*
X012360Y005490D03*
X013250Y006500D03*
X013600Y006800D03*
X013250Y006950D03*
X011960Y007990D03*
X011010Y007490D03*
X011510Y006990D03*
X010260Y007840D03*
X008810Y007090D03*
X007960Y008320D03*
X009020Y008780D03*
X009210Y009140D03*
X010100Y009900D03*
X011010Y010440D03*
X011460Y010490D03*
X010510Y010740D03*
X011910Y009540D03*
X013160Y010640D03*
X015500Y010100D03*
X016200Y010500D03*
X015710Y010790D03*
X016710Y010140D03*
X017160Y009490D03*
X017990Y009090D03*
X019010Y008890D03*
X020110Y008540D03*
X020910Y008790D03*
X021960Y008990D03*
X021610Y009390D03*
X022110Y009790D03*
X022760Y010090D03*
X023210Y010490D03*
X023910Y010840D03*
X023360Y011240D03*
X022510Y011440D03*
X021260Y011140D03*
X021810Y010640D03*
X020960Y009990D03*
X020410Y010240D03*
X018360Y010590D03*
X021260Y012090D03*
X021760Y012190D03*
X022510Y012190D03*
X023310Y012590D03*
X023760Y012040D03*
X023960Y012890D03*
X023060Y013540D03*
X023860Y013740D03*
X023260Y014290D03*
X022910Y014840D03*
X023660Y015140D03*
X022960Y015940D03*
X023760Y015990D03*
X022060Y015840D03*
X021560Y015140D03*
X021260Y013490D03*
X021560Y012890D03*
X022410Y012990D03*
X018360Y016040D03*
X015560Y015990D03*
X013060Y015990D03*
X010510Y015990D03*
X007910Y016040D03*
X005360Y015990D03*
X002710Y016040D03*
X005360Y013490D03*
X010560Y013490D03*
X015760Y013490D03*
X007960Y010540D03*
X006910Y009540D03*
X006210Y008940D03*
X005300Y010000D03*
X005610Y010490D03*
X003460Y009090D03*
X001660Y009590D03*
X000760Y010090D03*
X002760Y010590D03*
X001310Y008440D03*
X004160Y007640D03*
X005960Y007790D03*
X006210Y006890D03*
X004110Y006690D03*
X003010Y006690D03*
X001960Y006690D03*
X000610Y006490D03*
X001960Y005540D03*
X000810Y004790D03*
X001960Y004540D03*
X002360Y003790D03*
X001910Y003190D03*
X001060Y002540D03*
X004110Y005540D03*
X010060Y004040D03*
X011510Y003440D03*
X011840Y003750D03*
X012260Y003290D03*
X012110Y002740D03*
X011600Y002100D03*
X010140Y002640D03*
X009860Y002140D03*
X009860Y001140D03*
X011310Y000790D03*
X012460Y000990D03*
X013060Y001340D03*
X013660Y001340D03*
X014060Y000940D03*
X014710Y000540D03*
X013420Y000400D03*
X014510Y001440D03*
X016260Y003190D03*
X017710Y003190D03*
X017660Y002090D03*
X019710Y002840D03*
X020560Y002490D03*
X021160Y002490D03*
X020860Y002040D03*
X020410Y001790D03*
X020710Y001290D03*
X021210Y001040D03*
X020660Y000690D03*
X021560Y000490D03*
X022360Y000640D03*
X022910Y000640D03*
X022110Y001040D03*
X023060Y001390D03*
X023510Y001840D03*
X024060Y001540D03*
X024110Y001040D03*
X024060Y000540D03*
X024010Y002240D03*
X023810Y002740D03*
X023260Y002640D03*
X022660Y002740D03*
X022160Y002940D03*
X021760Y002740D03*
X019710Y004190D03*
X021410Y004690D03*
X021910Y004440D03*
X022660Y004440D03*
X022010Y005090D03*
X021510Y005240D03*
X021810Y006090D03*
X021660Y007040D03*
X021710Y008090D03*
X022660Y008240D03*
X023610Y008040D03*
X023660Y008990D03*
X023510Y009590D03*
X022810Y009290D03*
X020760Y007990D03*
X018260Y007040D03*
X017800Y006600D03*
X017450Y007150D03*
X017010Y007240D03*
X015860Y007490D03*
X014960Y008290D03*
X014410Y008890D03*
X016760Y008790D03*
X016120Y006190D03*
X016260Y004690D03*
X017710Y004690D03*
X019710Y005390D03*
X023710Y006040D03*
X023810Y005340D03*
X024160Y004890D03*
X023910Y004390D03*
X023760Y006940D03*
X013310Y003840D03*
X010140Y003220D03*
X007660Y000840D03*
D17*
X007910Y002940D03*
D18*
X012260Y003040D02*
X012260Y003290D01*
X012260Y003040D02*
X014510Y003040D01*
X015260Y002090D01*
X017660Y002090D01*
X019710Y002840D02*
X019710Y004190D01*
X019710Y005390D01*
X012810Y007490D02*
X011010Y007490D01*
X012860Y008840D02*
X012860Y009490D01*
X012860Y009540D01*
X011910Y009540D01*
X006910Y009540D01*
X006810Y009540D01*
X001660Y009590D01*
X001776Y010729D02*
X001770Y010779D01*
X001770Y011640D01*
X006976Y011640D01*
X006976Y010729D01*
X006976Y011606D02*
X007010Y011640D01*
X011030Y011640D01*
X012110Y011640D01*
X012126Y011624D01*
X017360Y011640D01*
X017376Y011590D01*
X017376Y010729D01*
X017160Y009490D02*
X012860Y009490D01*
X012860Y008840D02*
X013160Y008840D01*
X011030Y010440D02*
X011030Y011640D01*
X012126Y011624D02*
X012126Y010729D01*
X007010Y011640D02*
X006976Y011640D01*
X001776Y011640D02*
X001776Y010729D01*
D19*
X012810Y008440D02*
X012810Y007490D01*
X012810Y006140D01*
X016120Y006190D01*
X020110Y006140D01*
X020110Y008540D01*
X012810Y006140D02*
X012810Y003840D01*
X012260Y003290D01*
D20*
X003000Y003600D02*
X003000Y005600D01*
M02*
